<?xml version="1.0" encoding="utf-8" standalone="no"?>
<!DOCTYPE svg PUBLIC "-//W3C//DTD SVG 1.1//EN"
  "http://www.w3.org/Graphics/SVG/1.1/DTD/svg11.dtd">
<svg height="345.6pt" version="1.1" viewBox="0 0 460.8 345.6" width="460.8pt" xmlns="http://www.w3.org/2000/svg" xmlns:xlink="http://www.w3.org/1999/xlink">
 <metadata>
  <rdf:RDF xmlns:cc="http://creativecommons.org/ns#" xmlns:dc="http://purl.org/dc/elements/1.1/" xmlns:rdf="http://www.w3.org/1999/02/22-rdf-syntax-ns#">
   <cc:Work>
    <dc:type rdf:resource="http://purl.org/dc/dcmitype/StillImage"/>
    <dc:date>2021-12-07T06:33:19.975858</dc:date>
    <dc:format>image/svg+xml</dc:format>
    <dc:creator>
     <cc:Agent>
      <dc:title>Matplotlib v3.4.3, https://matplotlib.org/</dc:title>
     </cc:Agent>
    </dc:creator>
   </cc:Work>
  </rdf:RDF>
 </metadata>
 <defs>
  <style type="text/css">*{stroke-linecap:butt;stroke-linejoin:round;}</style>
 </defs>
 <g id="figure_1">
  <g id="patch_1">
   <path d="M 0 345.6 
L 460.8 345.6 
L 460.8 0 
L 0 0 
z
" style="fill:#ffffff;"/>
  </g>
  <g id="axes_1">
   <g id="patch_2">
    <path d="M 57.6 307.584 
L 414.72 307.584 
L 414.72 41.472 
L 57.6 41.472 
z
" style="fill:#ffffff;"/>
   </g>
   <g id="patch_3">
    <path clip-path="url(#p41f54f69ec)" d="M 58.31424 307.584 
L 59.74272 307.584 
L 59.74272 304.681349 
L 58.31424 304.681349 
z
" style="fill:#1f77b4;"/>
   </g>
   <g id="patch_4">
    <path clip-path="url(#p41f54f69ec)" d="M 61.1712 307.584 
L 62.59968 307.584 
L 62.59968 305.530507 
L 61.1712 305.530507 
z
" style="fill:#1f77b4;"/>
   </g>
   <g id="patch_5">
    <path clip-path="url(#p41f54f69ec)" d="M 64.02816 307.584 
L 65.45664 307.584 
L 65.45664 306.157666 
L 64.02816 306.157666 
z
" style="fill:#1f77b4;"/>
   </g>
   <g id="patch_6">
    <path clip-path="url(#p41f54f69ec)" d="M 66.88512 307.584 
L 68.3136 307.584 
L 68.3136 306.307214 
L 66.88512 306.307214 
z
" style="fill:#1f77b4;"/>
   </g>
   <g id="patch_7">
    <path clip-path="url(#p41f54f69ec)" d="M 69.74208 307.584 
L 71.17056 307.584 
L 71.17056 303.009129 
L 69.74208 303.009129 
z
" style="fill:#1f77b4;"/>
   </g>
   <g id="patch_8">
    <path clip-path="url(#p41f54f69ec)" d="M 72.59904 307.584 
L 74.02752 307.584 
L 74.02752 306.561354 
L 72.59904 306.561354 
z
" style="fill:#1f77b4;"/>
   </g>
   <g id="patch_9">
    <path clip-path="url(#p41f54f69ec)" d="M 75.456 307.584 
L 76.88448 307.584 
L 76.88448 303.606792 
L 75.456 303.606792 
z
" style="fill:#1f77b4;"/>
   </g>
   <g id="patch_10">
    <path clip-path="url(#p41f54f69ec)" d="M 78.31296 307.584 
L 79.74144 307.584 
L 79.74144 305.961467 
L 78.31296 305.961467 
z
" style="fill:#1f77b4;"/>
   </g>
   <g id="patch_11">
    <path clip-path="url(#p41f54f69ec)" d="M 81.16992 307.584 
L 82.5984 307.584 
L 82.5984 305.648463 
L 81.16992 305.648463 
z
" style="fill:#1f77b4;"/>
   </g>
   <g id="patch_12">
    <path clip-path="url(#p41f54f69ec)" d="M 84.02688 307.584 
L 85.45536 307.584 
L 85.45536 304.026376 
L 84.02688 304.026376 
z
" style="fill:#1f77b4;"/>
   </g>
   <g id="patch_13">
    <path clip-path="url(#p41f54f69ec)" d="M 86.88384 307.584 
L 88.31232 307.584 
L 88.31232 305.956462 
L 86.88384 305.956462 
z
" style="fill:#1f77b4;"/>
   </g>
   <g id="patch_14">
    <path clip-path="url(#p41f54f69ec)" d="M 89.7408 307.584 
L 91.16928 307.584 
L 91.16928 304.436253 
L 89.7408 304.436253 
z
" style="fill:#1f77b4;"/>
   </g>
   <g id="patch_15">
    <path clip-path="url(#p41f54f69ec)" d="M 92.59776 307.584 
L 94.02624 307.584 
L 94.02624 307.381329 
L 92.59776 307.381329 
z
" style="fill:#1f77b4;"/>
   </g>
   <g id="patch_16">
    <path clip-path="url(#p41f54f69ec)" d="M 95.45472 307.584 
L 96.8832 307.584 
L 96.8832 305.255693 
L 95.45472 305.255693 
z
" style="fill:#1f77b4;"/>
   </g>
   <g id="patch_17">
    <path clip-path="url(#p41f54f69ec)" d="M 98.31168 307.584 
L 99.74016 307.584 
L 99.74016 306.215607 
L 98.31168 306.215607 
z
" style="fill:#1f77b4;"/>
   </g>
   <g id="patch_18">
    <path clip-path="url(#p41f54f69ec)" d="M 101.16864 307.584 
L 102.59712 307.584 
L 102.59712 305.540941 
L 101.16864 305.540941 
z
" style="fill:#1f77b4;"/>
   </g>
   <g id="patch_19">
    <path clip-path="url(#p41f54f69ec)" d="M 104.0256 307.584 
L 105.45408 307.584 
L 105.45408 306.935271 
L 104.0256 306.935271 
z
" style="fill:#1f77b4;"/>
   </g>
   <g id="patch_20">
    <path clip-path="url(#p41f54f69ec)" d="M 106.88256 307.584 
L 108.31104 307.584 
L 108.31104 306.169946 
L 106.88256 306.169946 
z
" style="fill:#1f77b4;"/>
   </g>
   <g id="patch_21">
    <path clip-path="url(#p41f54f69ec)" d="M 109.73952 307.584 
L 111.168 307.584 
L 111.168 306.233827 
L 109.73952 306.233827 
z
" style="fill:#1f77b4;"/>
   </g>
   <g id="patch_22">
    <path clip-path="url(#p41f54f69ec)" d="M 112.59648 307.584 
L 114.02496 307.584 
L 114.02496 303.864986 
L 112.59648 303.864986 
z
" style="fill:#1f77b4;"/>
   </g>
   <g id="patch_23">
    <path clip-path="url(#p41f54f69ec)" d="M 115.45344 307.584 
L 116.88192 307.584 
L 116.88192 306.231466 
L 115.45344 306.231466 
z
" style="fill:#1f77b4;"/>
   </g>
   <g id="patch_24">
    <path clip-path="url(#p41f54f69ec)" d="M 118.3104 307.584 
L 119.73888 307.584 
L 119.73888 305.892197 
L 118.3104 305.892197 
z
" style="fill:#1f77b4;"/>
   </g>
   <g id="patch_25">
    <path clip-path="url(#p41f54f69ec)" d="M 121.16736 307.584 
L 122.59584 307.584 
L 122.59584 305.240966 
L 121.16736 305.240966 
z
" style="fill:#1f77b4;"/>
   </g>
   <g id="patch_26">
    <path clip-path="url(#p41f54f69ec)" d="M 124.02432 307.584 
L 125.4528 307.584 
L 125.4528 306.993932 
L 124.02432 306.993932 
z
" style="fill:#1f77b4;"/>
   </g>
   <g id="patch_27">
    <path clip-path="url(#p41f54f69ec)" d="M 126.88128 307.584 
L 128.30976 307.584 
L 128.30976 305.793241 
L 126.88128 305.793241 
z
" style="fill:#1f77b4;"/>
   </g>
   <g id="patch_28">
    <path clip-path="url(#p41f54f69ec)" d="M 129.73824 307.584 
L 131.16672 307.584 
L 131.16672 305.540488 
L 129.73824 305.540488 
z
" style="fill:#1f77b4;"/>
   </g>
   <g id="patch_29">
    <path clip-path="url(#p41f54f69ec)" d="M 132.5952 307.584 
L 134.02368 307.584 
L 134.02368 304.841886 
L 132.5952 304.841886 
z
" style="fill:#1f77b4;"/>
   </g>
   <g id="patch_30">
    <path clip-path="url(#p41f54f69ec)" d="M 135.45216 307.584 
L 136.88064 307.584 
L 136.88064 306.827991 
L 135.45216 306.827991 
z
" style="fill:#1f77b4;"/>
   </g>
   <g id="patch_31">
    <path clip-path="url(#p41f54f69ec)" d="M 138.30912 307.584 
L 139.7376 307.584 
L 139.7376 305.918652 
L 138.30912 305.918652 
z
" style="fill:#1f77b4;"/>
   </g>
   <g id="patch_32">
    <path clip-path="url(#p41f54f69ec)" d="M 141.16608 307.584 
L 142.59456 307.584 
L 142.59456 306.149389 
L 141.16608 306.149389 
z
" style="fill:#1f77b4;"/>
   </g>
   <g id="patch_33">
    <path clip-path="url(#p41f54f69ec)" d="M 144.02304 307.584 
L 145.45152 307.584 
L 145.45152 306.955767 
L 144.02304 306.955767 
z
" style="fill:#1f77b4;"/>
   </g>
   <g id="patch_34">
    <path clip-path="url(#p41f54f69ec)" d="M 146.88 307.584 
L 148.30848 307.584 
L 148.30848 306.006963 
L 146.88 306.006963 
z
" style="fill:#1f77b4;"/>
   </g>
   <g id="patch_35">
    <path clip-path="url(#p41f54f69ec)" d="M 149.73696 307.584 
L 151.16544 307.584 
L 151.16544 304.447014 
L 149.73696 304.447014 
z
" style="fill:#1f77b4;"/>
   </g>
   <g id="patch_36">
    <path clip-path="url(#p41f54f69ec)" d="M 152.59392 307.584 
L 154.0224 307.584 
L 154.0224 306.550819 
L 152.59392 306.550819 
z
" style="fill:#1f77b4;"/>
   </g>
   <g id="patch_37">
    <path clip-path="url(#p41f54f69ec)" d="M 155.45088 307.584 
L 156.87936 307.584 
L 156.87936 306.960425 
L 155.45088 306.960425 
z
" style="fill:#1f77b4;"/>
   </g>
   <g id="patch_38">
    <path clip-path="url(#p41f54f69ec)" d="M 158.30784 307.584 
L 159.73632 307.584 
L 159.73632 305.62911 
L 158.30784 305.62911 
z
" style="fill:#1f77b4;"/>
   </g>
   <g id="patch_39">
    <path clip-path="url(#p41f54f69ec)" d="M 161.1648 307.584 
L 162.59328 307.584 
L 162.59328 307.292751 
L 161.1648 307.292751 
z
" style="fill:#1f77b4;"/>
   </g>
   <g id="patch_40">
    <path clip-path="url(#p41f54f69ec)" d="M 164.02176 307.584 
L 165.45024 307.584 
L 165.45024 306.466298 
L 164.02176 306.466298 
z
" style="fill:#1f77b4;"/>
   </g>
   <g id="patch_41">
    <path clip-path="url(#p41f54f69ec)" d="M 166.87872 307.584 
L 168.3072 307.584 
L 168.3072 307.027962 
L 166.87872 307.027962 
z
" style="fill:#1f77b4;"/>
   </g>
   <g id="patch_42">
    <path clip-path="url(#p41f54f69ec)" d="M 169.73568 307.584 
L 171.16416 307.584 
L 171.16416 306.521417 
L 169.73568 306.521417 
z
" style="fill:#1f77b4;"/>
   </g>
   <g id="patch_43">
    <path clip-path="url(#p41f54f69ec)" d="M 172.59264 307.584 
L 174.02112 307.584 
L 174.02112 306.286697 
L 172.59264 306.286697 
z
" style="fill:#1f77b4;"/>
   </g>
   <g id="patch_44">
    <path clip-path="url(#p41f54f69ec)" d="M 175.4496 307.584 
L 176.87808 307.584 
L 176.87808 303.899808 
L 175.4496 303.899808 
z
" style="fill:#1f77b4;"/>
   </g>
   <g id="patch_45">
    <path clip-path="url(#p41f54f69ec)" d="M 178.30656 307.584 
L 179.73504 307.584 
L 179.73504 306.802835 
L 178.30656 306.802835 
z
" style="fill:#1f77b4;"/>
   </g>
   <g id="patch_46">
    <path clip-path="url(#p41f54f69ec)" d="M 181.16352 307.584 
L 182.592 307.584 
L 182.592 305.945649 
L 181.16352 305.945649 
z
" style="fill:#1f77b4;"/>
   </g>
   <g id="patch_47">
    <path clip-path="url(#p41f54f69ec)" d="M 184.02048 307.584 
L 185.44896 307.584 
L 185.44896 306.130641 
L 184.02048 306.130641 
z
" style="fill:#1f77b4;"/>
   </g>
   <g id="patch_48">
    <path clip-path="url(#p41f54f69ec)" d="M 186.87744 307.584 
L 188.30592 307.584 
L 188.30592 302.159341 
L 186.87744 302.159341 
z
" style="fill:#1f77b4;"/>
   </g>
   <g id="patch_49">
    <path clip-path="url(#p41f54f69ec)" d="M 189.7344 307.584 
L 191.16288 307.584 
L 191.16288 305.555251 
L 189.7344 305.555251 
z
" style="fill:#1f77b4;"/>
   </g>
   <g id="patch_50">
    <path clip-path="url(#p41f54f69ec)" d="M 192.59136 307.584 
L 194.01984 307.584 
L 194.01984 297.849704 
L 192.59136 297.849704 
z
" style="fill:#1f77b4;"/>
   </g>
   <g id="patch_51">
    <path clip-path="url(#p41f54f69ec)" d="M 195.44832 307.584 
L 196.8768 307.584 
L 196.8768 304.312016 
L 195.44832 304.312016 
z
" style="fill:#1f77b4;"/>
   </g>
   <g id="patch_52">
    <path clip-path="url(#p41f54f69ec)" d="M 198.30528 307.584 
L 199.73376 307.584 
L 199.73376 307.03677 
L 198.30528 307.03677 
z
" style="fill:#1f77b4;"/>
   </g>
   <g id="patch_53">
    <path clip-path="url(#p41f54f69ec)" d="M 201.16224 307.584 
L 202.59072 307.584 
L 202.59072 306.638232 
L 201.16224 306.638232 
z
" style="fill:#1f77b4;"/>
   </g>
   <g id="patch_54">
    <path clip-path="url(#p41f54f69ec)" d="M 204.0192 307.584 
L 205.44768 307.584 
L 205.44768 306.440043 
L 204.0192 306.440043 
z
" style="fill:#1f77b4;"/>
   </g>
   <g id="patch_55">
    <path clip-path="url(#p41f54f69ec)" d="M 206.87616 307.584 
L 208.30464 307.584 
L 208.30464 306.024198 
L 206.87616 306.024198 
z
" style="fill:#1f77b4;"/>
   </g>
   <g id="patch_56">
    <path clip-path="url(#p41f54f69ec)" d="M 209.73312 307.584 
L 211.1616 307.584 
L 211.1616 306.850308 
L 209.73312 306.850308 
z
" style="fill:#1f77b4;"/>
   </g>
   <g id="patch_57">
    <path clip-path="url(#p41f54f69ec)" d="M 212.59008 307.584 
L 214.01856 307.584 
L 214.01856 304.714825 
L 212.59008 304.714825 
z
" style="fill:#1f77b4;"/>
   </g>
   <g id="patch_58">
    <path clip-path="url(#p41f54f69ec)" d="M 215.44704 307.584 
L 216.87552 307.584 
L 216.87552 305.628533 
L 215.44704 305.628533 
z
" style="fill:#1f77b4;"/>
   </g>
   <g id="patch_59">
    <path clip-path="url(#p41f54f69ec)" d="M 218.304 307.584 
L 219.73248 307.584 
L 219.73248 306.206722 
L 218.304 306.206722 
z
" style="fill:#1f77b4;"/>
   </g>
   <g id="patch_60">
    <path clip-path="url(#p41f54f69ec)" d="M 221.16096 307.584 
L 222.58944 307.584 
L 222.58944 307.058882 
L 221.16096 307.058882 
z
" style="fill:#1f77b4;"/>
   </g>
   <g id="patch_61">
    <path clip-path="url(#p41f54f69ec)" d="M 224.01792 307.584 
L 225.4464 307.584 
L 225.4464 306.371003 
L 224.01792 306.371003 
z
" style="fill:#1f77b4;"/>
   </g>
   <g id="patch_62">
    <path clip-path="url(#p41f54f69ec)" d="M 226.87488 307.584 
L 228.30336 307.584 
L 228.30336 307.346984 
L 226.87488 307.346984 
z
" style="fill:#1f77b4;"/>
   </g>
   <g id="patch_63">
    <path clip-path="url(#p41f54f69ec)" d="M 229.73184 307.584 
L 231.16032 307.584 
L 231.16032 306.111781 
L 229.73184 306.111781 
z
" style="fill:#1f77b4;"/>
   </g>
   <g id="patch_64">
    <path clip-path="url(#p41f54f69ec)" d="M 232.5888 307.584 
L 234.01728 307.584 
L 234.01728 304.883738 
L 232.5888 304.883738 
z
" style="fill:#1f77b4;"/>
   </g>
   <g id="patch_65">
    <path clip-path="url(#p41f54f69ec)" d="M 235.44576 307.584 
L 236.87424 307.584 
L 236.87424 306.717306 
L 235.44576 306.717306 
z
" style="fill:#1f77b4;"/>
   </g>
   <g id="patch_66">
    <path clip-path="url(#p41f54f69ec)" d="M 238.30272 307.584 
L 239.7312 307.584 
L 239.7312 305.655614 
L 238.30272 305.655614 
z
" style="fill:#1f77b4;"/>
   </g>
   <g id="patch_67">
    <path clip-path="url(#p41f54f69ec)" d="M 241.15968 307.584 
L 242.58816 307.584 
L 242.58816 305.827227 
L 241.15968 305.827227 
z
" style="fill:#1f77b4;"/>
   </g>
   <g id="patch_68">
    <path clip-path="url(#p41f54f69ec)" d="M 244.01664 307.584 
L 245.44512 307.584 
L 245.44512 307.158324 
L 244.01664 307.158324 
z
" style="fill:#1f77b4;"/>
   </g>
   <g id="patch_69">
    <path clip-path="url(#p41f54f69ec)" d="M 246.8736 307.584 
L 248.30208 307.584 
L 248.30208 305.008406 
L 246.8736 305.008406 
z
" style="fill:#1f77b4;"/>
   </g>
   <g id="patch_70">
    <path clip-path="url(#p41f54f69ec)" d="M 249.73056 307.584 
L 251.15904 307.584 
L 251.15904 306.342649 
L 249.73056 306.342649 
z
" style="fill:#1f77b4;"/>
   </g>
   <g id="patch_71">
    <path clip-path="url(#p41f54f69ec)" d="M 252.58752 307.584 
L 254.016 307.584 
L 254.016 305.646859 
L 252.58752 305.646859 
z
" style="fill:#1f77b4;"/>
   </g>
   <g id="patch_72">
    <path clip-path="url(#p41f54f69ec)" d="M 255.44448 307.584 
L 256.87296 307.584 
L 256.87296 305.716867 
L 255.44448 305.716867 
z
" style="fill:#1f77b4;"/>
   </g>
   <g id="patch_73">
    <path clip-path="url(#p41f54f69ec)" d="M 258.30144 307.584 
L 259.72992 307.584 
L 259.72992 306.898085 
L 258.30144 306.898085 
z
" style="fill:#1f77b4;"/>
   </g>
   <g id="patch_74">
    <path clip-path="url(#p41f54f69ec)" d="M 261.1584 307.584 
L 262.58688 307.584 
L 262.58688 305.910167 
L 261.1584 305.910167 
z
" style="fill:#1f77b4;"/>
   </g>
   <g id="patch_75">
    <path clip-path="url(#p41f54f69ec)" d="M 264.01536 307.584 
L 265.44384 307.584 
L 265.44384 305.604943 
L 264.01536 305.604943 
z
" style="fill:#1f77b4;"/>
   </g>
   <g id="patch_76">
    <path clip-path="url(#p41f54f69ec)" d="M 266.87232 307.584 
L 268.3008 307.584 
L 268.3008 306.170832 
L 266.87232 306.170832 
z
" style="fill:#1f77b4;"/>
   </g>
   <g id="patch_77">
    <path clip-path="url(#p41f54f69ec)" d="M 269.72928 307.584 
L 271.15776 307.584 
L 271.15776 304.853343 
L 269.72928 304.853343 
z
" style="fill:#1f77b4;"/>
   </g>
   <g id="patch_78">
    <path clip-path="url(#p41f54f69ec)" d="M 272.58624 307.584 
L 274.01472 307.584 
L 274.01472 306.52234 
L 272.58624 306.52234 
z
" style="fill:#1f77b4;"/>
   </g>
   <g id="patch_79">
    <path clip-path="url(#p41f54f69ec)" d="M 275.4432 307.584 
L 276.87168 307.584 
L 276.87168 307.137271 
L 275.4432 307.137271 
z
" style="fill:#1f77b4;"/>
   </g>
   <g id="patch_80">
    <path clip-path="url(#p41f54f69ec)" d="M 278.30016 307.584 
L 279.72864 307.584 
L 279.72864 305.847409 
L 278.30016 305.847409 
z
" style="fill:#1f77b4;"/>
   </g>
   <g id="patch_81">
    <path clip-path="url(#p41f54f69ec)" d="M 281.15712 307.584 
L 282.5856 307.584 
L 282.5856 305.036126 
L 281.15712 305.036126 
z
" style="fill:#1f77b4;"/>
   </g>
   <g id="patch_82">
    <path clip-path="url(#p41f54f69ec)" d="M 284.01408 307.584 
L 285.44256 307.584 
L 285.44256 306.558749 
L 284.01408 306.558749 
z
" style="fill:#1f77b4;"/>
   </g>
   <g id="patch_83">
    <path clip-path="url(#p41f54f69ec)" d="M 286.87104 307.584 
L 288.29952 307.584 
L 288.29952 305.016865 
L 286.87104 305.016865 
z
" style="fill:#1f77b4;"/>
   </g>
   <g id="patch_84">
    <path clip-path="url(#p41f54f69ec)" d="M 289.728 307.584 
L 291.15648 307.584 
L 291.15648 305.295259 
L 289.728 305.295259 
z
" style="fill:#1f77b4;"/>
   </g>
   <g id="patch_85">
    <path clip-path="url(#p41f54f69ec)" d="M 292.58496 307.584 
L 294.01344 307.584 
L 294.01344 305.911426 
L 292.58496 305.911426 
z
" style="fill:#1f77b4;"/>
   </g>
   <g id="patch_86">
    <path clip-path="url(#p41f54f69ec)" d="M 295.44192 307.584 
L 296.8704 307.584 
L 296.8704 305.299436 
L 295.44192 305.299436 
z
" style="fill:#1f77b4;"/>
   </g>
   <g id="patch_87">
    <path clip-path="url(#p41f54f69ec)" d="M 298.29888 307.584 
L 299.72736 307.584 
L 299.72736 307.093049 
L 298.29888 307.093049 
z
" style="fill:#1f77b4;"/>
   </g>
   <g id="patch_88">
    <path clip-path="url(#p41f54f69ec)" d="M 301.15584 307.584 
L 302.58432 307.584 
L 302.58432 303.662207 
L 301.15584 303.662207 
z
" style="fill:#1f77b4;"/>
   </g>
   <g id="patch_89">
    <path clip-path="url(#p41f54f69ec)" d="M 304.0128 307.584 
L 305.44128 307.584 
L 305.44128 304.459447 
L 304.0128 304.459447 
z
" style="fill:#1f77b4;"/>
   </g>
   <g id="patch_90">
    <path clip-path="url(#p41f54f69ec)" d="M 306.86976 307.584 
L 308.29824 307.584 
L 308.29824 306.737949 
L 306.86976 306.737949 
z
" style="fill:#1f77b4;"/>
   </g>
   <g id="patch_91">
    <path clip-path="url(#p41f54f69ec)" d="M 309.72672 307.584 
L 311.1552 307.584 
L 311.1552 305.356123 
L 309.72672 305.356123 
z
" style="fill:#1f77b4;"/>
   </g>
   <g id="patch_92">
    <path clip-path="url(#p41f54f69ec)" d="M 312.58368 307.584 
L 314.01216 307.584 
L 314.01216 305.748785 
L 312.58368 305.748785 
z
" style="fill:#1f77b4;"/>
   </g>
   <g id="patch_93">
    <path clip-path="url(#p41f54f69ec)" d="M 315.44064 307.584 
L 316.86912 307.584 
L 316.86912 306.328089 
L 315.44064 306.328089 
z
" style="fill:#1f77b4;"/>
   </g>
   <g id="patch_94">
    <path clip-path="url(#p41f54f69ec)" d="M 318.2976 307.584 
L 319.72608 307.584 
L 319.72608 306.303371 
L 318.2976 306.303371 
z
" style="fill:#1f77b4;"/>
   </g>
   <g id="patch_95">
    <path clip-path="url(#p41f54f69ec)" d="M 321.15456 307.584 
L 322.58304 307.584 
L 322.58304 306.445926 
L 321.15456 306.445926 
z
" style="fill:#1f77b4;"/>
   </g>
   <g id="patch_96">
    <path clip-path="url(#p41f54f69ec)" d="M 324.01152 307.584 
L 325.44 307.584 
L 325.44 306.658906 
L 324.01152 306.658906 
z
" style="fill:#1f77b4;"/>
   </g>
   <g id="patch_97">
    <path clip-path="url(#p41f54f69ec)" d="M 326.86848 307.584 
L 328.29696 307.584 
L 328.29696 305.263477 
L 326.86848 305.263477 
z
" style="fill:#1f77b4;"/>
   </g>
   <g id="patch_98">
    <path clip-path="url(#p41f54f69ec)" d="M 329.72544 307.584 
L 331.15392 307.584 
L 331.15392 305.062894 
L 329.72544 305.062894 
z
" style="fill:#1f77b4;"/>
   </g>
   <g id="patch_99">
    <path clip-path="url(#p41f54f69ec)" d="M 332.5824 307.584 
L 334.01088 307.584 
L 334.01088 306.006532 
L 332.5824 306.006532 
z
" style="fill:#1f77b4;"/>
   </g>
   <g id="patch_100">
    <path clip-path="url(#p41f54f69ec)" d="M 335.43936 307.584 
L 336.86784 307.584 
L 336.86784 305.780814 
L 335.43936 305.780814 
z
" style="fill:#1f77b4;"/>
   </g>
   <g id="patch_101">
    <path clip-path="url(#p41f54f69ec)" d="M 338.29632 307.584 
L 339.7248 307.584 
L 339.7248 304.071989 
L 338.29632 304.071989 
z
" style="fill:#1f77b4;"/>
   </g>
   <g id="patch_102">
    <path clip-path="url(#p41f54f69ec)" d="M 341.15328 307.584 
L 342.58176 307.584 
L 342.58176 306.42607 
L 341.15328 306.42607 
z
" style="fill:#1f77b4;"/>
   </g>
   <g id="patch_103">
    <path clip-path="url(#p41f54f69ec)" d="M 344.01024 307.584 
L 345.43872 307.584 
L 345.43872 306.475122 
L 344.01024 306.475122 
z
" style="fill:#1f77b4;"/>
   </g>
   <g id="patch_104">
    <path clip-path="url(#p41f54f69ec)" d="M 346.8672 307.584 
L 348.29568 307.584 
L 348.29568 307.084364 
L 346.8672 307.084364 
z
" style="fill:#1f77b4;"/>
   </g>
   <g id="patch_105">
    <path clip-path="url(#p41f54f69ec)" d="M 349.72416 307.584 
L 351.15264 307.584 
L 351.15264 306.813192 
L 349.72416 306.813192 
z
" style="fill:#1f77b4;"/>
   </g>
   <g id="patch_106">
    <path clip-path="url(#p41f54f69ec)" d="M 352.58112 307.584 
L 354.0096 307.584 
L 354.0096 306.396667 
L 352.58112 306.396667 
z
" style="fill:#1f77b4;"/>
   </g>
   <g id="patch_107">
    <path clip-path="url(#p41f54f69ec)" d="M 355.43808 307.584 
L 356.86656 307.584 
L 356.86656 304.812424 
L 355.43808 304.812424 
z
" style="fill:#1f77b4;"/>
   </g>
   <g id="patch_108">
    <path clip-path="url(#p41f54f69ec)" d="M 358.29504 307.584 
L 359.72352 307.584 
L 359.72352 303.978185 
L 358.29504 303.978185 
z
" style="fill:#1f77b4;"/>
   </g>
   <g id="patch_109">
    <path clip-path="url(#p41f54f69ec)" d="M 361.152 307.584 
L 362.58048 307.584 
L 362.58048 304.623814 
L 361.152 304.623814 
z
" style="fill:#1f77b4;"/>
   </g>
   <g id="patch_110">
    <path clip-path="url(#p41f54f69ec)" d="M 364.00896 307.584 
L 365.43744 307.584 
L 365.43744 307.055005 
L 364.00896 307.055005 
z
" style="fill:#1f77b4;"/>
   </g>
   <g id="patch_111">
    <path clip-path="url(#p41f54f69ec)" d="M 366.86592 307.584 
L 368.2944 307.584 
L 368.2944 305.406889 
L 366.86592 305.406889 
z
" style="fill:#1f77b4;"/>
   </g>
   <g id="patch_112">
    <path clip-path="url(#p41f54f69ec)" d="M 369.72288 307.584 
L 371.15136 307.584 
L 371.15136 307.535421 
L 369.72288 307.535421 
z
" style="fill:#1f77b4;"/>
   </g>
   <g id="patch_113">
    <path clip-path="url(#p41f54f69ec)" d="M 372.57984 307.584 
L 374.00832 307.584 
L 374.00832 306.068988 
L 372.57984 306.068988 
z
" style="fill:#1f77b4;"/>
   </g>
   <g id="patch_114">
    <path clip-path="url(#p41f54f69ec)" d="M 375.4368 307.584 
L 376.86528 307.584 
L 376.86528 304.446665 
L 375.4368 304.446665 
z
" style="fill:#1f77b4;"/>
   </g>
   <g id="patch_115">
    <path clip-path="url(#p41f54f69ec)" d="M 378.29376 307.584 
L 379.72224 307.584 
L 379.72224 305.436215 
L 378.29376 305.436215 
z
" style="fill:#1f77b4;"/>
   </g>
   <g id="patch_116">
    <path clip-path="url(#p41f54f69ec)" d="M 381.15072 307.584 
L 382.5792 307.584 
L 382.5792 305.576181 
L 381.15072 305.576181 
z
" style="fill:#1f77b4;"/>
   </g>
   <g id="patch_117">
    <path clip-path="url(#p41f54f69ec)" d="M 384.00768 307.584 
L 385.43616 307.584 
L 385.43616 304.816631 
L 384.00768 304.816631 
z
" style="fill:#1f77b4;"/>
   </g>
   <g id="patch_118">
    <path clip-path="url(#p41f54f69ec)" d="M 386.86464 307.584 
L 388.29312 307.584 
L 388.29312 305.566074 
L 386.86464 305.566074 
z
" style="fill:#1f77b4;"/>
   </g>
   <g id="patch_119">
    <path clip-path="url(#p41f54f69ec)" d="M 389.7216 307.584 
L 391.15008 307.584 
L 391.15008 305.466024 
L 389.7216 305.466024 
z
" style="fill:#1f77b4;"/>
   </g>
   <g id="patch_120">
    <path clip-path="url(#p41f54f69ec)" d="M 392.57856 307.584 
L 394.00704 307.584 
L 394.00704 301.66595 
L 392.57856 301.66595 
z
" style="fill:#1f77b4;"/>
   </g>
   <g id="patch_121">
    <path clip-path="url(#p41f54f69ec)" d="M 395.43552 307.584 
L 396.864 307.584 
L 396.864 307.072943 
L 395.43552 307.072943 
z
" style="fill:#1f77b4;"/>
   </g>
   <g id="patch_122">
    <path clip-path="url(#p41f54f69ec)" d="M 398.29248 307.584 
L 399.72096 307.584 
L 399.72096 306.181334 
L 398.29248 306.181334 
z
" style="fill:#1f77b4;"/>
   </g>
   <g id="patch_123">
    <path clip-path="url(#p41f54f69ec)" d="M 401.14944 307.584 
L 402.57792 307.584 
L 402.57792 304.949723 
L 401.14944 304.949723 
z
" style="fill:#1f77b4;"/>
   </g>
   <g id="patch_124">
    <path clip-path="url(#p41f54f69ec)" d="M 404.0064 307.584 
L 405.43488 307.584 
L 405.43488 305.311526 
L 404.0064 305.311526 
z
" style="fill:#1f77b4;"/>
   </g>
   <g id="patch_125">
    <path clip-path="url(#p41f54f69ec)" d="M 406.86336 307.584 
L 408.29184 307.584 
L 408.29184 301.316611 
L 406.86336 301.316611 
z
" style="fill:#1f77b4;"/>
   </g>
   <g id="patch_126">
    <path clip-path="url(#p41f54f69ec)" d="M 409.72032 307.584 
L 411.1488 307.584 
L 411.1488 307.04639 
L 409.72032 307.04639 
z
" style="fill:#1f77b4;"/>
   </g>
   <g id="patch_127">
    <path clip-path="url(#p41f54f69ec)" d="M 412.57728 307.584 
L 414.00576 307.584 
L 414.00576 304.707241 
L 412.57728 304.707241 
z
" style="fill:#1f77b4;"/>
   </g>
   <g id="patch_128">
    <path clip-path="url(#p41f54f69ec)" d="M 58.31424 304.681349 
L 59.74272 304.681349 
L 59.74272 294.973983 
L 58.31424 294.973983 
z
" style="fill:#ff7f0e;"/>
   </g>
   <g id="patch_129">
    <path clip-path="url(#p41f54f69ec)" d="M 61.1712 305.530507 
L 62.59968 305.530507 
L 62.59968 303.432246 
L 61.1712 303.432246 
z
" style="fill:#ff7f0e;"/>
   </g>
   <g id="patch_130">
    <path clip-path="url(#p41f54f69ec)" d="M 64.02816 306.157666 
L 65.45664 306.157666 
L 65.45664 264.624368 
L 64.02816 264.624368 
z
" style="fill:#ff7f0e;"/>
   </g>
   <g id="patch_131">
    <path clip-path="url(#p41f54f69ec)" d="M 66.88512 306.307214 
L 68.3136 306.307214 
L 68.3136 297.035022 
L 66.88512 297.035022 
z
" style="fill:#ff7f0e;"/>
   </g>
   <g id="patch_132">
    <path clip-path="url(#p41f54f69ec)" d="M 69.74208 303.009129 
L 71.17056 303.009129 
L 71.17056 195.209826 
L 69.74208 195.209826 
z
" style="fill:#ff7f0e;"/>
   </g>
   <g id="patch_133">
    <path clip-path="url(#p41f54f69ec)" d="M 72.59904 306.561354 
L 74.02752 306.561354 
L 74.02752 305.938604 
L 72.59904 305.938604 
z
" style="fill:#ff7f0e;"/>
   </g>
   <g id="patch_134">
    <path clip-path="url(#p41f54f69ec)" d="M 75.456 303.606792 
L 76.88448 303.606792 
L 76.88448 298.598253 
L 75.456 298.598253 
z
" style="fill:#ff7f0e;"/>
   </g>
   <g id="patch_135">
    <path clip-path="url(#p41f54f69ec)" d="M 78.31296 305.961467 
L 79.74144 305.961467 
L 79.74144 300.874187 
L 78.31296 300.874187 
z
" style="fill:#ff7f0e;"/>
   </g>
   <g id="patch_136">
    <path clip-path="url(#p41f54f69ec)" d="M 81.16992 305.648463 
L 82.5984 305.648463 
L 82.5984 206.881466 
L 81.16992 206.881466 
z
" style="fill:#ff7f0e;"/>
   </g>
   <g id="patch_137">
    <path clip-path="url(#p41f54f69ec)" d="M 84.02688 304.026376 
L 85.45536 304.026376 
L 85.45536 278.9457 
L 84.02688 278.9457 
z
" style="fill:#ff7f0e;"/>
   </g>
   <g id="patch_138">
    <path clip-path="url(#p41f54f69ec)" d="M 86.88384 305.956462 
L 88.31232 305.956462 
L 88.31232 302.923899 
L 86.88384 302.923899 
z
" style="fill:#ff7f0e;"/>
   </g>
   <g id="patch_139">
    <path clip-path="url(#p41f54f69ec)" d="M 89.7408 304.436253 
L 91.16928 304.436253 
L 91.16928 297.008764 
L 89.7408 297.008764 
z
" style="fill:#ff7f0e;"/>
   </g>
   <g id="patch_140">
    <path clip-path="url(#p41f54f69ec)" d="M 92.59776 307.381329 
L 94.02624 307.381329 
L 94.02624 307.269917 
L 92.59776 307.269917 
z
" style="fill:#ff7f0e;"/>
   </g>
   <g id="patch_141">
    <path clip-path="url(#p41f54f69ec)" d="M 95.45472 305.255693 
L 96.8832 305.255693 
L 96.8832 298.408974 
L 95.45472 298.408974 
z
" style="fill:#ff7f0e;"/>
   </g>
   <g id="patch_142">
    <path clip-path="url(#p41f54f69ec)" d="M 98.31168 306.215607 
L 99.74016 306.215607 
L 99.74016 302.859478 
L 98.31168 302.859478 
z
" style="fill:#ff7f0e;"/>
   </g>
   <g id="patch_143">
    <path clip-path="url(#p41f54f69ec)" d="M 101.16864 305.540941 
L 102.59712 305.540941 
L 102.59712 249.863373 
L 101.16864 249.863373 
z
" style="fill:#ff7f0e;"/>
   </g>
   <g id="patch_144">
    <path clip-path="url(#p41f54f69ec)" d="M 104.0256 306.935271 
L 105.45408 306.935271 
L 105.45408 230.489771 
L 104.0256 230.489771 
z
" style="fill:#ff7f0e;"/>
   </g>
   <g id="patch_145">
    <path clip-path="url(#p41f54f69ec)" d="M 106.88256 306.169946 
L 108.31104 306.169946 
L 108.31104 302.242852 
L 106.88256 302.242852 
z
" style="fill:#ff7f0e;"/>
   </g>
   <g id="patch_146">
    <path clip-path="url(#p41f54f69ec)" d="M 109.73952 306.233827 
L 111.168 306.233827 
L 111.168 302.744759 
L 109.73952 302.744759 
z
" style="fill:#ff7f0e;"/>
   </g>
   <g id="patch_147">
    <path clip-path="url(#p41f54f69ec)" d="M 112.59648 303.864986 
L 114.02496 303.864986 
L 114.02496 261.803925 
L 112.59648 261.803925 
z
" style="fill:#ff7f0e;"/>
   </g>
   <g id="patch_148">
    <path clip-path="url(#p41f54f69ec)" d="M 115.45344 306.231466 
L 116.88192 306.231466 
L 116.88192 232.465127 
L 115.45344 232.465127 
z
" style="fill:#ff7f0e;"/>
   </g>
   <g id="patch_149">
    <path clip-path="url(#p41f54f69ec)" d="M 118.3104 305.892197 
L 119.73888 305.892197 
L 119.73888 300.149641 
L 118.3104 300.149641 
z
" style="fill:#ff7f0e;"/>
   </g>
   <g id="patch_150">
    <path clip-path="url(#p41f54f69ec)" d="M 121.16736 305.240966 
L 122.59584 305.240966 
L 122.59584 297.604122 
L 121.16736 297.604122 
z
" style="fill:#ff7f0e;"/>
   </g>
   <g id="patch_151">
    <path clip-path="url(#p41f54f69ec)" d="M 124.02432 306.993932 
L 125.4528 306.993932 
L 125.4528 268.752786 
L 124.02432 268.752786 
z
" style="fill:#ff7f0e;"/>
   </g>
   <g id="patch_152">
    <path clip-path="url(#p41f54f69ec)" d="M 126.88128 305.793241 
L 128.30976 305.793241 
L 128.30976 299.180723 
L 126.88128 299.180723 
z
" style="fill:#ff7f0e;"/>
   </g>
   <g id="patch_153">
    <path clip-path="url(#p41f54f69ec)" d="M 129.73824 305.540488 
L 131.16672 305.540488 
L 131.16672 293.250543 
L 129.73824 293.250543 
z
" style="fill:#ff7f0e;"/>
   </g>
   <g id="patch_154">
    <path clip-path="url(#p41f54f69ec)" d="M 132.5952 304.841886 
L 134.02368 304.841886 
L 134.02368 269.188051 
L 132.5952 269.188051 
z
" style="fill:#ff7f0e;"/>
   </g>
   <g id="patch_155">
    <path clip-path="url(#p41f54f69ec)" d="M 135.45216 306.827991 
L 136.88064 306.827991 
L 136.88064 306.3049 
L 135.45216 306.3049 
z
" style="fill:#ff7f0e;"/>
   </g>
   <g id="patch_156">
    <path clip-path="url(#p41f54f69ec)" d="M 138.30912 305.918652 
L 139.7376 305.918652 
L 139.7376 298.982048 
L 138.30912 298.982048 
z
" style="fill:#ff7f0e;"/>
   </g>
   <g id="patch_157">
    <path clip-path="url(#p41f54f69ec)" d="M 141.16608 306.149389 
L 142.59456 306.149389 
L 142.59456 305.209228 
L 141.16608 305.209228 
z
" style="fill:#ff7f0e;"/>
   </g>
   <g id="patch_158">
    <path clip-path="url(#p41f54f69ec)" d="M 144.02304 306.955767 
L 145.45152 306.955767 
L 145.45152 306.608734 
L 144.02304 306.608734 
z
" style="fill:#ff7f0e;"/>
   </g>
   <g id="patch_159">
    <path clip-path="url(#p41f54f69ec)" d="M 146.88 306.006963 
L 148.30848 306.006963 
L 148.30848 280.988148 
L 146.88 280.988148 
z
" style="fill:#ff7f0e;"/>
   </g>
   <g id="patch_160">
    <path clip-path="url(#p41f54f69ec)" d="M 149.73696 304.447014 
L 151.16544 304.447014 
L 151.16544 293.209514 
L 149.73696 293.209514 
z
" style="fill:#ff7f0e;"/>
   </g>
   <g id="patch_161">
    <path clip-path="url(#p41f54f69ec)" d="M 152.59392 306.550819 
L 154.0224 306.550819 
L 154.0224 305.528926 
L 152.59392 305.528926 
z
" style="fill:#ff7f0e;"/>
   </g>
   <g id="patch_162">
    <path clip-path="url(#p41f54f69ec)" d="M 155.45088 306.960425 
L 156.87936 306.960425 
L 156.87936 306.483233 
L 155.45088 306.483233 
z
" style="fill:#ff7f0e;"/>
   </g>
   <g id="patch_163">
    <path clip-path="url(#p41f54f69ec)" d="M 158.30784 305.62911 
L 159.73632 305.62911 
L 159.73632 229.408024 
L 158.30784 229.408024 
z
" style="fill:#ff7f0e;"/>
   </g>
   <g id="patch_164">
    <path clip-path="url(#p41f54f69ec)" d="M 161.1648 307.292751 
L 162.59328 307.292751 
L 162.59328 306.976977 
L 161.1648 306.976977 
z
" style="fill:#ff7f0e;"/>
   </g>
   <g id="patch_165">
    <path clip-path="url(#p41f54f69ec)" d="M 164.02176 306.466298 
L 165.45024 306.466298 
L 165.45024 304.572255 
L 164.02176 304.572255 
z
" style="fill:#ff7f0e;"/>
   </g>
   <g id="patch_166">
    <path clip-path="url(#p41f54f69ec)" d="M 166.87872 307.027962 
L 168.3072 307.027962 
L 168.3072 306.691816 
L 166.87872 306.691816 
z
" style="fill:#ff7f0e;"/>
   </g>
   <g id="patch_167">
    <path clip-path="url(#p41f54f69ec)" d="M 169.73568 306.521417 
L 171.16416 306.521417 
L 171.16416 305.799266 
L 169.73568 305.799266 
z
" style="fill:#ff7f0e;"/>
   </g>
   <g id="patch_168">
    <path clip-path="url(#p41f54f69ec)" d="M 172.59264 306.286697 
L 174.02112 306.286697 
L 174.02112 278.71697 
L 172.59264 278.71697 
z
" style="fill:#ff7f0e;"/>
   </g>
   <g id="patch_169">
    <path clip-path="url(#p41f54f69ec)" d="M 175.4496 303.899808 
L 176.87808 303.899808 
L 176.87808 136.714337 
L 175.4496 136.714337 
z
" style="fill:#ff7f0e;"/>
   </g>
   <g id="patch_170">
    <path clip-path="url(#p41f54f69ec)" d="M 178.30656 306.802835 
L 179.73504 306.802835 
L 179.73504 305.799618 
L 178.30656 305.799618 
z
" style="fill:#ff7f0e;"/>
   </g>
   <g id="patch_171">
    <path clip-path="url(#p41f54f69ec)" d="M 181.16352 305.945649 
L 182.592 305.945649 
L 182.592 304.906768 
L 181.16352 304.906768 
z
" style="fill:#ff7f0e;"/>
   </g>
   <g id="patch_172">
    <path clip-path="url(#p41f54f69ec)" d="M 184.02048 306.130641 
L 185.44896 306.130641 
L 185.44896 260.783019 
L 184.02048 260.783019 
z
" style="fill:#ff7f0e;"/>
   </g>
   <g id="patch_173">
    <path clip-path="url(#p41f54f69ec)" d="M 186.87744 302.159341 
L 188.30592 302.159341 
L 188.30592 281.573877 
L 186.87744 281.573877 
z
" style="fill:#ff7f0e;"/>
   </g>
   <g id="patch_174">
    <path clip-path="url(#p41f54f69ec)" d="M 189.7344 305.555251 
L 191.16288 305.555251 
L 191.16288 264.496618 
L 189.7344 264.496618 
z
" style="fill:#ff7f0e;"/>
   </g>
   <g id="patch_175">
    <path clip-path="url(#p41f54f69ec)" d="M 192.59136 297.849704 
L 194.01984 297.849704 
L 194.01984 241.758576 
L 192.59136 241.758576 
z
" style="fill:#ff7f0e;"/>
   </g>
   <g id="patch_176">
    <path clip-path="url(#p41f54f69ec)" d="M 195.44832 304.312016 
L 196.8768 304.312016 
L 196.8768 273.115693 
L 195.44832 273.115693 
z
" style="fill:#ff7f0e;"/>
   </g>
   <g id="patch_177">
    <path clip-path="url(#p41f54f69ec)" d="M 198.30528 307.03677 
L 199.73376 307.03677 
L 199.73376 305.799261 
L 198.30528 305.799261 
z
" style="fill:#ff7f0e;"/>
   </g>
   <g id="patch_178">
    <path clip-path="url(#p41f54f69ec)" d="M 201.16224 306.638232 
L 202.59072 306.638232 
L 202.59072 304.015071 
L 201.16224 304.015071 
z
" style="fill:#ff7f0e;"/>
   </g>
   <g id="patch_179">
    <path clip-path="url(#p41f54f69ec)" d="M 204.0192 306.440043 
L 205.44768 306.440043 
L 205.44768 300.447116 
L 204.0192 300.447116 
z
" style="fill:#ff7f0e;"/>
   </g>
   <g id="patch_180">
    <path clip-path="url(#p41f54f69ec)" d="M 206.87616 306.024198 
L 208.30464 306.024198 
L 208.30464 300.989168 
L 206.87616 300.989168 
z
" style="fill:#ff7f0e;"/>
   </g>
   <g id="patch_181">
    <path clip-path="url(#p41f54f69ec)" d="M 209.73312 306.850308 
L 211.1616 306.850308 
L 211.1616 292.65661 
L 209.73312 292.65661 
z
" style="fill:#ff7f0e;"/>
   </g>
   <g id="patch_182">
    <path clip-path="url(#p41f54f69ec)" d="M 212.59008 304.714825 
L 214.01856 304.714825 
L 214.01856 272.400475 
L 212.59008 272.400475 
z
" style="fill:#ff7f0e;"/>
   </g>
   <g id="patch_183">
    <path clip-path="url(#p41f54f69ec)" d="M 215.44704 305.628533 
L 216.87552 305.628533 
L 216.87552 210.371319 
L 215.44704 210.371319 
z
" style="fill:#ff7f0e;"/>
   </g>
   <g id="patch_184">
    <path clip-path="url(#p41f54f69ec)" d="M 218.304 306.206722 
L 219.73248 306.206722 
L 219.73248 304.60413 
L 218.304 304.60413 
z
" style="fill:#ff7f0e;"/>
   </g>
   <g id="patch_185">
    <path clip-path="url(#p41f54f69ec)" d="M 221.16096 307.058882 
L 222.58944 307.058882 
L 222.58944 306.136228 
L 221.16096 306.136228 
z
" style="fill:#ff7f0e;"/>
   </g>
   <g id="patch_186">
    <path clip-path="url(#p41f54f69ec)" d="M 224.01792 306.371003 
L 225.4464 306.371003 
L 225.4464 295.810663 
L 224.01792 295.810663 
z
" style="fill:#ff7f0e;"/>
   </g>
   <g id="patch_187">
    <path clip-path="url(#p41f54f69ec)" d="M 226.87488 307.346984 
L 228.30336 307.346984 
L 228.30336 306.419989 
L 226.87488 306.419989 
z
" style="fill:#ff7f0e;"/>
   </g>
   <g id="patch_188">
    <path clip-path="url(#p41f54f69ec)" d="M 229.73184 306.111781 
L 231.16032 306.111781 
L 231.16032 207.052336 
L 229.73184 207.052336 
z
" style="fill:#ff7f0e;"/>
   </g>
   <g id="patch_189">
    <path clip-path="url(#p41f54f69ec)" d="M 232.5888 304.883738 
L 234.01728 304.883738 
L 234.01728 295.061493 
L 232.5888 295.061493 
z
" style="fill:#ff7f0e;"/>
   </g>
   <g id="patch_190">
    <path clip-path="url(#p41f54f69ec)" d="M 235.44576 306.717306 
L 236.87424 306.717306 
L 236.87424 304.327636 
L 235.44576 304.327636 
z
" style="fill:#ff7f0e;"/>
   </g>
   <g id="patch_191">
    <path clip-path="url(#p41f54f69ec)" d="M 238.30272 305.655614 
L 239.7312 305.655614 
L 239.7312 296.626461 
L 238.30272 296.626461 
z
" style="fill:#ff7f0e;"/>
   </g>
   <g id="patch_192">
    <path clip-path="url(#p41f54f69ec)" d="M 241.15968 305.827227 
L 242.58816 305.827227 
L 242.58816 201.561909 
L 241.15968 201.561909 
z
" style="fill:#ff7f0e;"/>
   </g>
   <g id="patch_193">
    <path clip-path="url(#p41f54f69ec)" d="M 244.01664 307.158324 
L 245.44512 307.158324 
L 245.44512 306.893997 
L 244.01664 306.893997 
z
" style="fill:#ff7f0e;"/>
   </g>
   <g id="patch_194">
    <path clip-path="url(#p41f54f69ec)" d="M 246.8736 305.008406 
L 248.30208 305.008406 
L 248.30208 288.324982 
L 246.8736 288.324982 
z
" style="fill:#ff7f0e;"/>
   </g>
   <g id="patch_195">
    <path clip-path="url(#p41f54f69ec)" d="M 249.73056 306.342649 
L 251.15904 306.342649 
L 251.15904 304.541066 
L 249.73056 304.541066 
z
" style="fill:#ff7f0e;"/>
   </g>
   <g id="patch_196">
    <path clip-path="url(#p41f54f69ec)" d="M 252.58752 305.646859 
L 254.016 305.646859 
L 254.016 303.812589 
L 252.58752 303.812589 
z
" style="fill:#ff7f0e;"/>
   </g>
   <g id="patch_197">
    <path clip-path="url(#p41f54f69ec)" d="M 255.44448 305.716867 
L 256.87296 305.716867 
L 256.87296 297.001708 
L 255.44448 297.001708 
z
" style="fill:#ff7f0e;"/>
   </g>
   <g id="patch_198">
    <path clip-path="url(#p41f54f69ec)" d="M 258.30144 306.898085 
L 259.72992 306.898085 
L 259.72992 306.063909 
L 258.30144 306.063909 
z
" style="fill:#ff7f0e;"/>
   </g>
   <g id="patch_199">
    <path clip-path="url(#p41f54f69ec)" d="M 261.1584 305.910167 
L 262.58688 305.910167 
L 262.58688 303.764054 
L 261.1584 303.764054 
z
" style="fill:#ff7f0e;"/>
   </g>
   <g id="patch_200">
    <path clip-path="url(#p41f54f69ec)" d="M 264.01536 305.604943 
L 265.44384 305.604943 
L 265.44384 299.757793 
L 264.01536 299.757793 
z
" style="fill:#ff7f0e;"/>
   </g>
   <g id="patch_201">
    <path clip-path="url(#p41f54f69ec)" d="M 266.87232 306.170832 
L 268.3008 306.170832 
L 268.3008 302.318182 
L 266.87232 302.318182 
z
" style="fill:#ff7f0e;"/>
   </g>
   <g id="patch_202">
    <path clip-path="url(#p41f54f69ec)" d="M 269.72928 304.853343 
L 271.15776 304.853343 
L 271.15776 297.994177 
L 269.72928 297.994177 
z
" style="fill:#ff7f0e;"/>
   </g>
   <g id="patch_203">
    <path clip-path="url(#p41f54f69ec)" d="M 272.58624 306.52234 
L 274.01472 306.52234 
L 274.01472 165.17704 
L 272.58624 165.17704 
z
" style="fill:#ff7f0e;"/>
   </g>
   <g id="patch_204">
    <path clip-path="url(#p41f54f69ec)" d="M 275.4432 307.137271 
L 276.87168 307.137271 
L 276.87168 306.691768 
L 275.4432 306.691768 
z
" style="fill:#ff7f0e;"/>
   </g>
   <g id="patch_205">
    <path clip-path="url(#p41f54f69ec)" d="M 278.30016 305.847409 
L 279.72864 305.847409 
L 279.72864 301.020901 
L 278.30016 301.020901 
z
" style="fill:#ff7f0e;"/>
   </g>
   <g id="patch_206">
    <path clip-path="url(#p41f54f69ec)" d="M 281.15712 305.036126 
L 282.5856 305.036126 
L 282.5856 225.814006 
L 281.15712 225.814006 
z
" style="fill:#ff7f0e;"/>
   </g>
   <g id="patch_207">
    <path clip-path="url(#p41f54f69ec)" d="M 284.01408 306.558749 
L 285.44256 306.558749 
L 285.44256 227.109775 
L 284.01408 227.109775 
z
" style="fill:#ff7f0e;"/>
   </g>
   <g id="patch_208">
    <path clip-path="url(#p41f54f69ec)" d="M 286.87104 305.016865 
L 288.29952 305.016865 
L 288.29952 284.483537 
L 286.87104 284.483537 
z
" style="fill:#ff7f0e;"/>
   </g>
   <g id="patch_209">
    <path clip-path="url(#p41f54f69ec)" d="M 289.728 305.295259 
L 291.15648 305.295259 
L 291.15648 301.660938 
L 289.728 301.660938 
z
" style="fill:#ff7f0e;"/>
   </g>
   <g id="patch_210">
    <path clip-path="url(#p41f54f69ec)" d="M 292.58496 305.911426 
L 294.01344 305.911426 
L 294.01344 299.427062 
L 292.58496 299.427062 
z
" style="fill:#ff7f0e;"/>
   </g>
   <g id="patch_211">
    <path clip-path="url(#p41f54f69ec)" d="M 295.44192 305.299436 
L 296.8704 305.299436 
L 296.8704 193.203738 
L 295.44192 193.203738 
z
" style="fill:#ff7f0e;"/>
   </g>
   <g id="patch_212">
    <path clip-path="url(#p41f54f69ec)" d="M 298.29888 307.093049 
L 299.72736 307.093049 
L 299.72736 305.424697 
L 298.29888 305.424697 
z
" style="fill:#ff7f0e;"/>
   </g>
   <g id="patch_213">
    <path clip-path="url(#p41f54f69ec)" d="M 301.15584 303.662207 
L 302.58432 303.662207 
L 302.58432 84.264992 
L 301.15584 84.264992 
z
" style="fill:#ff7f0e;"/>
   </g>
   <g id="patch_214">
    <path clip-path="url(#p41f54f69ec)" d="M 304.0128 304.459447 
L 305.44128 304.459447 
L 305.44128 193.141979 
L 304.0128 193.141979 
z
" style="fill:#ff7f0e;"/>
   </g>
   <g id="patch_215">
    <path clip-path="url(#p41f54f69ec)" d="M 306.86976 306.737949 
L 308.29824 306.737949 
L 308.29824 305.954415 
L 306.86976 305.954415 
z
" style="fill:#ff7f0e;"/>
   </g>
   <g id="patch_216">
    <path clip-path="url(#p41f54f69ec)" d="M 309.72672 305.356123 
L 311.1552 305.356123 
L 311.1552 149.707782 
L 309.72672 149.707782 
z
" style="fill:#ff7f0e;"/>
   </g>
   <g id="patch_217">
    <path clip-path="url(#p41f54f69ec)" d="M 312.58368 305.748785 
L 314.01216 305.748785 
L 314.01216 295.139068 
L 312.58368 295.139068 
z
" style="fill:#ff7f0e;"/>
   </g>
   <g id="patch_218">
    <path clip-path="url(#p41f54f69ec)" d="M 315.44064 306.328089 
L 316.86912 306.328089 
L 316.86912 292.419623 
L 315.44064 292.419623 
z
" style="fill:#ff7f0e;"/>
   </g>
   <g id="patch_219">
    <path clip-path="url(#p41f54f69ec)" d="M 318.2976 306.303371 
L 319.72608 306.303371 
L 319.72608 248.502309 
L 318.2976 248.502309 
z
" style="fill:#ff7f0e;"/>
   </g>
   <g id="patch_220">
    <path clip-path="url(#p41f54f69ec)" d="M 321.15456 306.445926 
L 322.58304 306.445926 
L 322.58304 294.201486 
L 321.15456 294.201486 
z
" style="fill:#ff7f0e;"/>
   </g>
   <g id="patch_221">
    <path clip-path="url(#p41f54f69ec)" d="M 324.01152 306.658906 
L 325.44 306.658906 
L 325.44 240.299512 
L 324.01152 240.299512 
z
" style="fill:#ff7f0e;"/>
   </g>
   <g id="patch_222">
    <path clip-path="url(#p41f54f69ec)" d="M 326.86848 305.263477 
L 328.29696 305.263477 
L 328.29696 101.647669 
L 326.86848 101.647669 
z
" style="fill:#ff7f0e;"/>
   </g>
   <g id="patch_223">
    <path clip-path="url(#p41f54f69ec)" d="M 329.72544 305.062894 
L 331.15392 305.062894 
L 331.15392 181.117545 
L 329.72544 181.117545 
z
" style="fill:#ff7f0e;"/>
   </g>
   <g id="patch_224">
    <path clip-path="url(#p41f54f69ec)" d="M 332.5824 306.006532 
L 334.01088 306.006532 
L 334.01088 296.201682 
L 332.5824 296.201682 
z
" style="fill:#ff7f0e;"/>
   </g>
   <g id="patch_225">
    <path clip-path="url(#p41f54f69ec)" d="M 335.43936 305.780814 
L 336.86784 305.780814 
L 336.86784 304.297908 
L 335.43936 304.297908 
z
" style="fill:#ff7f0e;"/>
   </g>
   <g id="patch_226">
    <path clip-path="url(#p41f54f69ec)" d="M 338.29632 304.071989 
L 339.7248 304.071989 
L 339.7248 298.286039 
L 338.29632 298.286039 
z
" style="fill:#ff7f0e;"/>
   </g>
   <g id="patch_227">
    <path clip-path="url(#p41f54f69ec)" d="M 341.15328 306.42607 
L 342.58176 306.42607 
L 342.58176 41.472 
L 341.15328 41.472 
z
" style="fill:#ff7f0e;"/>
   </g>
   <g id="patch_228">
    <path clip-path="url(#p41f54f69ec)" d="M 344.01024 306.475122 
L 345.43872 306.475122 
L 345.43872 305.709219 
L 344.01024 305.709219 
z
" style="fill:#ff7f0e;"/>
   </g>
   <g id="patch_229">
    <path clip-path="url(#p41f54f69ec)" d="M 346.8672 307.084364 
L 348.29568 307.084364 
L 348.29568 306.691499 
L 346.8672 306.691499 
z
" style="fill:#ff7f0e;"/>
   </g>
   <g id="patch_230">
    <path clip-path="url(#p41f54f69ec)" d="M 349.72416 306.813192 
L 351.15264 306.813192 
L 351.15264 305.154419 
L 349.72416 305.154419 
z
" style="fill:#ff7f0e;"/>
   </g>
   <g id="patch_231">
    <path clip-path="url(#p41f54f69ec)" d="M 352.58112 306.396667 
L 354.0096 306.396667 
L 354.0096 300.262224 
L 352.58112 300.262224 
z
" style="fill:#ff7f0e;"/>
   </g>
   <g id="patch_232">
    <path clip-path="url(#p41f54f69ec)" d="M 355.43808 304.812424 
L 356.86656 304.812424 
L 356.86656 272.408478 
L 355.43808 272.408478 
z
" style="fill:#ff7f0e;"/>
   </g>
   <g id="patch_233">
    <path clip-path="url(#p41f54f69ec)" d="M 358.29504 303.978185 
L 359.72352 303.978185 
L 359.72352 212.5178 
L 358.29504 212.5178 
z
" style="fill:#ff7f0e;"/>
   </g>
   <g id="patch_234">
    <path clip-path="url(#p41f54f69ec)" d="M 361.152 304.623814 
L 362.58048 304.623814 
L 362.58048 217.586698 
L 361.152 217.586698 
z
" style="fill:#ff7f0e;"/>
   </g>
   <g id="patch_235">
    <path clip-path="url(#p41f54f69ec)" d="M 364.00896 307.055005 
L 365.43744 307.055005 
L 365.43744 305.914648 
L 364.00896 305.914648 
z
" style="fill:#ff7f0e;"/>
   </g>
   <g id="patch_236">
    <path clip-path="url(#p41f54f69ec)" d="M 366.86592 305.406889 
L 368.2944 305.406889 
L 368.2944 206.883256 
L 366.86592 206.883256 
z
" style="fill:#ff7f0e;"/>
   </g>
   <g id="patch_237">
    <path clip-path="url(#p41f54f69ec)" d="M 369.72288 307.535421 
L 371.15136 307.535421 
L 371.15136 211.301515 
L 369.72288 211.301515 
z
" style="fill:#ff7f0e;"/>
   </g>
   <g id="patch_238">
    <path clip-path="url(#p41f54f69ec)" d="M 372.57984 306.068988 
L 374.00832 306.068988 
L 374.00832 254.148879 
L 372.57984 254.148879 
z
" style="fill:#ff7f0e;"/>
   </g>
   <g id="patch_239">
    <path clip-path="url(#p41f54f69ec)" d="M 375.4368 304.446665 
L 376.86528 304.446665 
L 376.86528 296.969101 
L 375.4368 296.969101 
z
" style="fill:#ff7f0e;"/>
   </g>
   <g id="patch_240">
    <path clip-path="url(#p41f54f69ec)" d="M 378.29376 305.436215 
L 379.72224 305.436215 
L 379.72224 291.549248 
L 378.29376 291.549248 
z
" style="fill:#ff7f0e;"/>
   </g>
   <g id="patch_241">
    <path clip-path="url(#p41f54f69ec)" d="M 381.15072 305.576181 
L 382.5792 305.576181 
L 382.5792 255.333251 
L 381.15072 255.333251 
z
" style="fill:#ff7f0e;"/>
   </g>
   <g id="patch_242">
    <path clip-path="url(#p41f54f69ec)" d="M 384.00768 304.816631 
L 385.43616 304.816631 
L 385.43616 253.703853 
L 384.00768 253.703853 
z
" style="fill:#ff7f0e;"/>
   </g>
   <g id="patch_243">
    <path clip-path="url(#p41f54f69ec)" d="M 386.86464 305.566074 
L 388.29312 305.566074 
L 388.29312 204.811653 
L 386.86464 204.811653 
z
" style="fill:#ff7f0e;"/>
   </g>
   <g id="patch_244">
    <path clip-path="url(#p41f54f69ec)" d="M 389.7216 305.466024 
L 391.15008 305.466024 
L 391.15008 225.828435 
L 389.7216 225.828435 
z
" style="fill:#ff7f0e;"/>
   </g>
   <g id="patch_245">
    <path clip-path="url(#p41f54f69ec)" d="M 392.57856 301.66595 
L 394.00704 301.66595 
L 394.00704 285.310944 
L 392.57856 285.310944 
z
" style="fill:#ff7f0e;"/>
   </g>
   <g id="patch_246">
    <path clip-path="url(#p41f54f69ec)" d="M 395.43552 307.072943 
L 396.864 307.072943 
L 396.864 306.691657 
L 395.43552 306.691657 
z
" style="fill:#ff7f0e;"/>
   </g>
   <g id="patch_247">
    <path clip-path="url(#p41f54f69ec)" d="M 398.29248 306.181334 
L 399.72096 306.181334 
L 399.72096 187.53545 
L 398.29248 187.53545 
z
" style="fill:#ff7f0e;"/>
   </g>
   <g id="patch_248">
    <path clip-path="url(#p41f54f69ec)" d="M 401.14944 304.949723 
L 402.57792 304.949723 
L 402.57792 299.007777 
L 401.14944 299.007777 
z
" style="fill:#ff7f0e;"/>
   </g>
   <g id="patch_249">
    <path clip-path="url(#p41f54f69ec)" d="M 404.0064 305.311526 
L 405.43488 305.311526 
L 405.43488 292.758562 
L 404.0064 292.758562 
z
" style="fill:#ff7f0e;"/>
   </g>
   <g id="patch_250">
    <path clip-path="url(#p41f54f69ec)" d="M 406.86336 301.316611 
L 408.29184 301.316611 
L 408.29184 276.243915 
L 406.86336 276.243915 
z
" style="fill:#ff7f0e;"/>
   </g>
   <g id="patch_251">
    <path clip-path="url(#p41f54f69ec)" d="M 409.72032 307.04639 
L 411.1488 307.04639 
L 411.1488 304.906683 
L 409.72032 304.906683 
z
" style="fill:#ff7f0e;"/>
   </g>
   <g id="patch_252">
    <path clip-path="url(#p41f54f69ec)" d="M 412.57728 304.707241 
L 414.00576 304.707241 
L 414.00576 299.517048 
L 412.57728 299.517048 
z
" style="fill:#ff7f0e;"/>
   </g>
   <g id="matplotlib.axis_1">
    <g id="xtick_1">
     <g id="line2d_1">
      <defs>
       <path d="M 0 0 
L 0 3.5 
" id="mea69aba235" style="stroke:#000000;stroke-width:0.8;"/>
      </defs>
      <g>
       <use style="stroke:#000000;stroke-width:0.8;" x="59.02848" xlink:href="#mea69aba235" y="307.584"/>
      </g>
     </g>
     <g id="text_1">
      <!-- 0 -->
      <g transform="translate(61.787855 320.9465)rotate(-90)scale(0.1 -0.1)">
       <defs>
        <path d="M 2034 4250 
Q 1547 4250 1301 3770 
Q 1056 3291 1056 2328 
Q 1056 1369 1301 889 
Q 1547 409 2034 409 
Q 2525 409 2770 889 
Q 3016 1369 3016 2328 
Q 3016 3291 2770 3770 
Q 2525 4250 2034 4250 
z
M 2034 4750 
Q 2819 4750 3233 4129 
Q 3647 3509 3647 2328 
Q 3647 1150 3233 529 
Q 2819 -91 2034 -91 
Q 1250 -91 836 529 
Q 422 1150 422 2328 
Q 422 3509 836 4129 
Q 1250 4750 2034 4750 
z
" id="DejaVuSans-30" transform="scale(0.015625)"/>
       </defs>
       <use xlink:href="#DejaVuSans-30"/>
      </g>
     </g>
    </g>
    <g id="xtick_2">
     <g id="line2d_2">
      <g>
       <use style="stroke:#000000;stroke-width:0.8;" x="79.0272" xlink:href="#mea69aba235" y="307.584"/>
      </g>
     </g>
     <g id="text_2">
      <!-- 7 -->
      <g transform="translate(81.786575 320.9465)rotate(-90)scale(0.1 -0.1)">
       <defs>
        <path d="M 525 4666 
L 3525 4666 
L 3525 4397 
L 1831 0 
L 1172 0 
L 2766 4134 
L 525 4134 
L 525 4666 
z
" id="DejaVuSans-37" transform="scale(0.015625)"/>
       </defs>
       <use xlink:href="#DejaVuSans-37"/>
      </g>
     </g>
    </g>
    <g id="xtick_3">
     <g id="line2d_3">
      <g>
       <use style="stroke:#000000;stroke-width:0.8;" x="99.02592" xlink:href="#mea69aba235" y="307.584"/>
      </g>
     </g>
     <g id="text_3">
      <!-- 14 -->
      <g transform="translate(101.785295 327.309)rotate(-90)scale(0.1 -0.1)">
       <defs>
        <path d="M 794 531 
L 1825 531 
L 1825 4091 
L 703 3866 
L 703 4441 
L 1819 4666 
L 2450 4666 
L 2450 531 
L 3481 531 
L 3481 0 
L 794 0 
L 794 531 
z
" id="DejaVuSans-31" transform="scale(0.015625)"/>
        <path d="M 2419 4116 
L 825 1625 
L 2419 1625 
L 2419 4116 
z
M 2253 4666 
L 3047 4666 
L 3047 1625 
L 3713 1625 
L 3713 1100 
L 3047 1100 
L 3047 0 
L 2419 0 
L 2419 1100 
L 313 1100 
L 313 1709 
L 2253 4666 
z
" id="DejaVuSans-34" transform="scale(0.015625)"/>
       </defs>
       <use xlink:href="#DejaVuSans-31"/>
       <use x="63.623047" xlink:href="#DejaVuSans-34"/>
      </g>
     </g>
    </g>
    <g id="xtick_4">
     <g id="line2d_4">
      <g>
       <use style="stroke:#000000;stroke-width:0.8;" x="119.02464" xlink:href="#mea69aba235" y="307.584"/>
      </g>
     </g>
     <g id="text_4">
      <!-- 21 -->
      <g transform="translate(121.784015 327.309)rotate(-90)scale(0.1 -0.1)">
       <defs>
        <path d="M 1228 531 
L 3431 531 
L 3431 0 
L 469 0 
L 469 531 
Q 828 903 1448 1529 
Q 2069 2156 2228 2338 
Q 2531 2678 2651 2914 
Q 2772 3150 2772 3378 
Q 2772 3750 2511 3984 
Q 2250 4219 1831 4219 
Q 1534 4219 1204 4116 
Q 875 4013 500 3803 
L 500 4441 
Q 881 4594 1212 4672 
Q 1544 4750 1819 4750 
Q 2544 4750 2975 4387 
Q 3406 4025 3406 3419 
Q 3406 3131 3298 2873 
Q 3191 2616 2906 2266 
Q 2828 2175 2409 1742 
Q 1991 1309 1228 531 
z
" id="DejaVuSans-32" transform="scale(0.015625)"/>
       </defs>
       <use xlink:href="#DejaVuSans-32"/>
       <use x="63.623047" xlink:href="#DejaVuSans-31"/>
      </g>
     </g>
    </g>
    <g id="xtick_5">
     <g id="line2d_5">
      <g>
       <use style="stroke:#000000;stroke-width:0.8;" x="139.02336" xlink:href="#mea69aba235" y="307.584"/>
      </g>
     </g>
     <g id="text_5">
      <!-- 28 -->
      <g transform="translate(141.782735 327.309)rotate(-90)scale(0.1 -0.1)">
       <defs>
        <path d="M 2034 2216 
Q 1584 2216 1326 1975 
Q 1069 1734 1069 1313 
Q 1069 891 1326 650 
Q 1584 409 2034 409 
Q 2484 409 2743 651 
Q 3003 894 3003 1313 
Q 3003 1734 2745 1975 
Q 2488 2216 2034 2216 
z
M 1403 2484 
Q 997 2584 770 2862 
Q 544 3141 544 3541 
Q 544 4100 942 4425 
Q 1341 4750 2034 4750 
Q 2731 4750 3128 4425 
Q 3525 4100 3525 3541 
Q 3525 3141 3298 2862 
Q 3072 2584 2669 2484 
Q 3125 2378 3379 2068 
Q 3634 1759 3634 1313 
Q 3634 634 3220 271 
Q 2806 -91 2034 -91 
Q 1263 -91 848 271 
Q 434 634 434 1313 
Q 434 1759 690 2068 
Q 947 2378 1403 2484 
z
M 1172 3481 
Q 1172 3119 1398 2916 
Q 1625 2713 2034 2713 
Q 2441 2713 2670 2916 
Q 2900 3119 2900 3481 
Q 2900 3844 2670 4047 
Q 2441 4250 2034 4250 
Q 1625 4250 1398 4047 
Q 1172 3844 1172 3481 
z
" id="DejaVuSans-38" transform="scale(0.015625)"/>
       </defs>
       <use xlink:href="#DejaVuSans-32"/>
       <use x="63.623047" xlink:href="#DejaVuSans-38"/>
      </g>
     </g>
    </g>
    <g id="xtick_6">
     <g id="line2d_6">
      <g>
       <use style="stroke:#000000;stroke-width:0.8;" x="159.02208" xlink:href="#mea69aba235" y="307.584"/>
      </g>
     </g>
     <g id="text_6">
      <!-- 36 -->
      <g transform="translate(161.781455 327.309)rotate(-90)scale(0.1 -0.1)">
       <defs>
        <path d="M 2597 2516 
Q 3050 2419 3304 2112 
Q 3559 1806 3559 1356 
Q 3559 666 3084 287 
Q 2609 -91 1734 -91 
Q 1441 -91 1130 -33 
Q 819 25 488 141 
L 488 750 
Q 750 597 1062 519 
Q 1375 441 1716 441 
Q 2309 441 2620 675 
Q 2931 909 2931 1356 
Q 2931 1769 2642 2001 
Q 2353 2234 1838 2234 
L 1294 2234 
L 1294 2753 
L 1863 2753 
Q 2328 2753 2575 2939 
Q 2822 3125 2822 3475 
Q 2822 3834 2567 4026 
Q 2313 4219 1838 4219 
Q 1578 4219 1281 4162 
Q 984 4106 628 3988 
L 628 4550 
Q 988 4650 1302 4700 
Q 1616 4750 1894 4750 
Q 2613 4750 3031 4423 
Q 3450 4097 3450 3541 
Q 3450 3153 3228 2886 
Q 3006 2619 2597 2516 
z
" id="DejaVuSans-33" transform="scale(0.015625)"/>
        <path d="M 2113 2584 
Q 1688 2584 1439 2293 
Q 1191 2003 1191 1497 
Q 1191 994 1439 701 
Q 1688 409 2113 409 
Q 2538 409 2786 701 
Q 3034 994 3034 1497 
Q 3034 2003 2786 2293 
Q 2538 2584 2113 2584 
z
M 3366 4563 
L 3366 3988 
Q 3128 4100 2886 4159 
Q 2644 4219 2406 4219 
Q 1781 4219 1451 3797 
Q 1122 3375 1075 2522 
Q 1259 2794 1537 2939 
Q 1816 3084 2150 3084 
Q 2853 3084 3261 2657 
Q 3669 2231 3669 1497 
Q 3669 778 3244 343 
Q 2819 -91 2113 -91 
Q 1303 -91 875 529 
Q 447 1150 447 2328 
Q 447 3434 972 4092 
Q 1497 4750 2381 4750 
Q 2619 4750 2861 4703 
Q 3103 4656 3366 4563 
z
" id="DejaVuSans-36" transform="scale(0.015625)"/>
       </defs>
       <use xlink:href="#DejaVuSans-33"/>
       <use x="63.623047" xlink:href="#DejaVuSans-36"/>
      </g>
     </g>
    </g>
    <g id="xtick_7">
     <g id="line2d_7">
      <g>
       <use style="stroke:#000000;stroke-width:0.8;" x="179.0208" xlink:href="#mea69aba235" y="307.584"/>
      </g>
     </g>
     <g id="text_7">
      <!-- 43 -->
      <g transform="translate(181.780175 327.309)rotate(-90)scale(0.1 -0.1)">
       <use xlink:href="#DejaVuSans-34"/>
       <use x="63.623047" xlink:href="#DejaVuSans-33"/>
      </g>
     </g>
    </g>
    <g id="xtick_8">
     <g id="line2d_8">
      <g>
       <use style="stroke:#000000;stroke-width:0.8;" x="199.01952" xlink:href="#mea69aba235" y="307.584"/>
      </g>
     </g>
     <g id="text_8">
      <!-- 51 -->
      <g transform="translate(201.778895 327.309)rotate(-90)scale(0.1 -0.1)">
       <defs>
        <path d="M 691 4666 
L 3169 4666 
L 3169 4134 
L 1269 4134 
L 1269 2991 
Q 1406 3038 1543 3061 
Q 1681 3084 1819 3084 
Q 2600 3084 3056 2656 
Q 3513 2228 3513 1497 
Q 3513 744 3044 326 
Q 2575 -91 1722 -91 
Q 1428 -91 1123 -41 
Q 819 9 494 109 
L 494 744 
Q 775 591 1075 516 
Q 1375 441 1709 441 
Q 2250 441 2565 725 
Q 2881 1009 2881 1497 
Q 2881 1984 2565 2268 
Q 2250 2553 1709 2553 
Q 1456 2553 1204 2497 
Q 953 2441 691 2322 
L 691 4666 
z
" id="DejaVuSans-35" transform="scale(0.015625)"/>
       </defs>
       <use xlink:href="#DejaVuSans-35"/>
       <use x="63.623047" xlink:href="#DejaVuSans-31"/>
      </g>
     </g>
    </g>
    <g id="xtick_9">
     <g id="line2d_9">
      <g>
       <use style="stroke:#000000;stroke-width:0.8;" x="219.01824" xlink:href="#mea69aba235" y="307.584"/>
      </g>
     </g>
     <g id="text_9">
      <!-- 59 -->
      <g transform="translate(221.777615 327.309)rotate(-90)scale(0.1 -0.1)">
       <defs>
        <path d="M 703 97 
L 703 672 
Q 941 559 1184 500 
Q 1428 441 1663 441 
Q 2288 441 2617 861 
Q 2947 1281 2994 2138 
Q 2813 1869 2534 1725 
Q 2256 1581 1919 1581 
Q 1219 1581 811 2004 
Q 403 2428 403 3163 
Q 403 3881 828 4315 
Q 1253 4750 1959 4750 
Q 2769 4750 3195 4129 
Q 3622 3509 3622 2328 
Q 3622 1225 3098 567 
Q 2575 -91 1691 -91 
Q 1453 -91 1209 -44 
Q 966 3 703 97 
z
M 1959 2075 
Q 2384 2075 2632 2365 
Q 2881 2656 2881 3163 
Q 2881 3666 2632 3958 
Q 2384 4250 1959 4250 
Q 1534 4250 1286 3958 
Q 1038 3666 1038 3163 
Q 1038 2656 1286 2365 
Q 1534 2075 1959 2075 
z
" id="DejaVuSans-39" transform="scale(0.015625)"/>
       </defs>
       <use xlink:href="#DejaVuSans-35"/>
       <use x="63.623047" xlink:href="#DejaVuSans-39"/>
      </g>
     </g>
    </g>
    <g id="xtick_10">
     <g id="line2d_10">
      <g>
       <use style="stroke:#000000;stroke-width:0.8;" x="239.01696" xlink:href="#mea69aba235" y="307.584"/>
      </g>
     </g>
     <g id="text_10">
      <!-- 66 -->
      <g transform="translate(241.776335 327.309)rotate(-90)scale(0.1 -0.1)">
       <use xlink:href="#DejaVuSans-36"/>
       <use x="63.623047" xlink:href="#DejaVuSans-36"/>
      </g>
     </g>
    </g>
    <g id="xtick_11">
     <g id="line2d_11">
      <g>
       <use style="stroke:#000000;stroke-width:0.8;" x="259.01568" xlink:href="#mea69aba235" y="307.584"/>
      </g>
     </g>
     <g id="text_11">
      <!-- 73 -->
      <g transform="translate(261.775055 327.309)rotate(-90)scale(0.1 -0.1)">
       <use xlink:href="#DejaVuSans-37"/>
       <use x="63.623047" xlink:href="#DejaVuSans-33"/>
      </g>
     </g>
    </g>
    <g id="xtick_12">
     <g id="line2d_12">
      <g>
       <use style="stroke:#000000;stroke-width:0.8;" x="279.0144" xlink:href="#mea69aba235" y="307.584"/>
      </g>
     </g>
     <g id="text_12">
      <!-- 80 -->
      <g transform="translate(281.773775 327.309)rotate(-90)scale(0.1 -0.1)">
       <use xlink:href="#DejaVuSans-38"/>
       <use x="63.623047" xlink:href="#DejaVuSans-30"/>
      </g>
     </g>
    </g>
    <g id="xtick_13">
     <g id="line2d_13">
      <g>
       <use style="stroke:#000000;stroke-width:0.8;" x="299.01312" xlink:href="#mea69aba235" y="307.584"/>
      </g>
     </g>
     <g id="text_13">
      <!-- 87 -->
      <g transform="translate(301.772495 327.309)rotate(-90)scale(0.1 -0.1)">
       <use xlink:href="#DejaVuSans-38"/>
       <use x="63.623047" xlink:href="#DejaVuSans-37"/>
      </g>
     </g>
    </g>
    <g id="xtick_14">
     <g id="line2d_14">
      <g>
       <use style="stroke:#000000;stroke-width:0.8;" x="319.01184" xlink:href="#mea69aba235" y="307.584"/>
      </g>
     </g>
     <g id="text_14">
      <!-- 94 -->
      <g transform="translate(321.771215 327.309)rotate(-90)scale(0.1 -0.1)">
       <use xlink:href="#DejaVuSans-39"/>
       <use x="63.623047" xlink:href="#DejaVuSans-34"/>
      </g>
     </g>
    </g>
    <g id="xtick_15">
     <g id="line2d_15">
      <g>
       <use style="stroke:#000000;stroke-width:0.8;" x="339.01056" xlink:href="#mea69aba235" y="307.584"/>
      </g>
     </g>
     <g id="text_15">
      <!-- 101 -->
      <g transform="translate(341.769935 333.6715)rotate(-90)scale(0.1 -0.1)">
       <use xlink:href="#DejaVuSans-31"/>
       <use x="63.623047" xlink:href="#DejaVuSans-30"/>
       <use x="127.246094" xlink:href="#DejaVuSans-31"/>
      </g>
     </g>
    </g>
    <g id="xtick_16">
     <g id="line2d_16">
      <g>
       <use style="stroke:#000000;stroke-width:0.8;" x="359.00928" xlink:href="#mea69aba235" y="307.584"/>
      </g>
     </g>
     <g id="text_16">
      <!-- 108 -->
      <g transform="translate(361.768655 333.6715)rotate(-90)scale(0.1 -0.1)">
       <use xlink:href="#DejaVuSans-31"/>
       <use x="63.623047" xlink:href="#DejaVuSans-30"/>
       <use x="127.246094" xlink:href="#DejaVuSans-38"/>
      </g>
     </g>
    </g>
    <g id="xtick_17">
     <g id="line2d_17">
      <g>
       <use style="stroke:#000000;stroke-width:0.8;" x="379.008" xlink:href="#mea69aba235" y="307.584"/>
      </g>
     </g>
     <g id="text_17">
      <!-- 115 -->
      <g transform="translate(381.767375 333.6715)rotate(-90)scale(0.1 -0.1)">
       <use xlink:href="#DejaVuSans-31"/>
       <use x="63.623047" xlink:href="#DejaVuSans-31"/>
       <use x="127.246094" xlink:href="#DejaVuSans-35"/>
      </g>
     </g>
    </g>
    <g id="xtick_18">
     <g id="line2d_18">
      <g>
       <use style="stroke:#000000;stroke-width:0.8;" x="399.00672" xlink:href="#mea69aba235" y="307.584"/>
      </g>
     </g>
     <g id="text_18">
      <!-- 122 -->
      <g transform="translate(401.766095 333.6715)rotate(-90)scale(0.1 -0.1)">
       <use xlink:href="#DejaVuSans-31"/>
       <use x="63.623047" xlink:href="#DejaVuSans-32"/>
       <use x="127.246094" xlink:href="#DejaVuSans-32"/>
      </g>
     </g>
    </g>
    <g id="text_19">
     <!-- domain -->
     <g transform="translate(217.434219 345.269937)scale(0.1 -0.1)">
      <defs>
       <path d="M 2906 2969 
L 2906 4863 
L 3481 4863 
L 3481 0 
L 2906 0 
L 2906 525 
Q 2725 213 2448 61 
Q 2172 -91 1784 -91 
Q 1150 -91 751 415 
Q 353 922 353 1747 
Q 353 2572 751 3078 
Q 1150 3584 1784 3584 
Q 2172 3584 2448 3432 
Q 2725 3281 2906 2969 
z
M 947 1747 
Q 947 1113 1208 752 
Q 1469 391 1925 391 
Q 2381 391 2643 752 
Q 2906 1113 2906 1747 
Q 2906 2381 2643 2742 
Q 2381 3103 1925 3103 
Q 1469 3103 1208 2742 
Q 947 2381 947 1747 
z
" id="DejaVuSans-64" transform="scale(0.015625)"/>
       <path d="M 1959 3097 
Q 1497 3097 1228 2736 
Q 959 2375 959 1747 
Q 959 1119 1226 758 
Q 1494 397 1959 397 
Q 2419 397 2687 759 
Q 2956 1122 2956 1747 
Q 2956 2369 2687 2733 
Q 2419 3097 1959 3097 
z
M 1959 3584 
Q 2709 3584 3137 3096 
Q 3566 2609 3566 1747 
Q 3566 888 3137 398 
Q 2709 -91 1959 -91 
Q 1206 -91 779 398 
Q 353 888 353 1747 
Q 353 2609 779 3096 
Q 1206 3584 1959 3584 
z
" id="DejaVuSans-6f" transform="scale(0.015625)"/>
       <path d="M 3328 2828 
Q 3544 3216 3844 3400 
Q 4144 3584 4550 3584 
Q 5097 3584 5394 3201 
Q 5691 2819 5691 2113 
L 5691 0 
L 5113 0 
L 5113 2094 
Q 5113 2597 4934 2840 
Q 4756 3084 4391 3084 
Q 3944 3084 3684 2787 
Q 3425 2491 3425 1978 
L 3425 0 
L 2847 0 
L 2847 2094 
Q 2847 2600 2669 2842 
Q 2491 3084 2119 3084 
Q 1678 3084 1418 2786 
Q 1159 2488 1159 1978 
L 1159 0 
L 581 0 
L 581 3500 
L 1159 3500 
L 1159 2956 
Q 1356 3278 1631 3431 
Q 1906 3584 2284 3584 
Q 2666 3584 2933 3390 
Q 3200 3197 3328 2828 
z
" id="DejaVuSans-6d" transform="scale(0.015625)"/>
       <path d="M 2194 1759 
Q 1497 1759 1228 1600 
Q 959 1441 959 1056 
Q 959 750 1161 570 
Q 1363 391 1709 391 
Q 2188 391 2477 730 
Q 2766 1069 2766 1631 
L 2766 1759 
L 2194 1759 
z
M 3341 1997 
L 3341 0 
L 2766 0 
L 2766 531 
Q 2569 213 2275 61 
Q 1981 -91 1556 -91 
Q 1019 -91 701 211 
Q 384 513 384 1019 
Q 384 1609 779 1909 
Q 1175 2209 1959 2209 
L 2766 2209 
L 2766 2266 
Q 2766 2663 2505 2880 
Q 2244 3097 1772 3097 
Q 1472 3097 1187 3025 
Q 903 2953 641 2809 
L 641 3341 
Q 956 3463 1253 3523 
Q 1550 3584 1831 3584 
Q 2591 3584 2966 3190 
Q 3341 2797 3341 1997 
z
" id="DejaVuSans-61" transform="scale(0.015625)"/>
       <path d="M 603 3500 
L 1178 3500 
L 1178 0 
L 603 0 
L 603 3500 
z
M 603 4863 
L 1178 4863 
L 1178 4134 
L 603 4134 
L 603 4863 
z
" id="DejaVuSans-69" transform="scale(0.015625)"/>
       <path d="M 3513 2113 
L 3513 0 
L 2938 0 
L 2938 2094 
Q 2938 2591 2744 2837 
Q 2550 3084 2163 3084 
Q 1697 3084 1428 2787 
Q 1159 2491 1159 1978 
L 1159 0 
L 581 0 
L 581 3500 
L 1159 3500 
L 1159 2956 
Q 1366 3272 1645 3428 
Q 1925 3584 2291 3584 
Q 2894 3584 3203 3211 
Q 3513 2838 3513 2113 
z
" id="DejaVuSans-6e" transform="scale(0.015625)"/>
      </defs>
      <use xlink:href="#DejaVuSans-64"/>
      <use x="63.476562" xlink:href="#DejaVuSans-6f"/>
      <use x="124.658203" xlink:href="#DejaVuSans-6d"/>
      <use x="222.070312" xlink:href="#DejaVuSans-61"/>
      <use x="283.349609" xlink:href="#DejaVuSans-69"/>
      <use x="311.132812" xlink:href="#DejaVuSans-6e"/>
     </g>
    </g>
   </g>
   <g id="matplotlib.axis_2">
    <g id="ytick_1">
     <g id="line2d_19">
      <defs>
       <path d="M 0 0 
L -3.5 0 
" id="m6b5b285e74" style="stroke:#000000;stroke-width:0.8;"/>
      </defs>
      <g>
       <use style="stroke:#000000;stroke-width:0.8;" x="57.6" xlink:href="#m6b5b285e74" y="307.584"/>
      </g>
     </g>
     <g id="text_20">
      <!-- 0.0 -->
      <g transform="translate(34.696875 311.383219)scale(0.1 -0.1)">
       <defs>
        <path d="M 684 794 
L 1344 794 
L 1344 0 
L 684 0 
L 684 794 
z
" id="DejaVuSans-2e" transform="scale(0.015625)"/>
       </defs>
       <use xlink:href="#DejaVuSans-30"/>
       <use x="63.623047" xlink:href="#DejaVuSans-2e"/>
       <use x="95.410156" xlink:href="#DejaVuSans-30"/>
      </g>
     </g>
    </g>
    <g id="ytick_2">
     <g id="line2d_20">
      <g>
       <use style="stroke:#000000;stroke-width:0.8;" x="57.6" xlink:href="#m6b5b285e74" y="272.116855"/>
      </g>
     </g>
     <g id="text_21">
      <!-- 0.5 -->
      <g transform="translate(34.696875 275.916074)scale(0.1 -0.1)">
       <use xlink:href="#DejaVuSans-30"/>
       <use x="63.623047" xlink:href="#DejaVuSans-2e"/>
       <use x="95.410156" xlink:href="#DejaVuSans-35"/>
      </g>
     </g>
    </g>
    <g id="ytick_3">
     <g id="line2d_21">
      <g>
       <use style="stroke:#000000;stroke-width:0.8;" x="57.6" xlink:href="#m6b5b285e74" y="236.64971"/>
      </g>
     </g>
     <g id="text_22">
      <!-- 1.0 -->
      <g transform="translate(34.696875 240.448929)scale(0.1 -0.1)">
       <use xlink:href="#DejaVuSans-31"/>
       <use x="63.623047" xlink:href="#DejaVuSans-2e"/>
       <use x="95.410156" xlink:href="#DejaVuSans-30"/>
      </g>
     </g>
    </g>
    <g id="ytick_4">
     <g id="line2d_22">
      <g>
       <use style="stroke:#000000;stroke-width:0.8;" x="57.6" xlink:href="#m6b5b285e74" y="201.182566"/>
      </g>
     </g>
     <g id="text_23">
      <!-- 1.5 -->
      <g transform="translate(34.696875 204.981784)scale(0.1 -0.1)">
       <use xlink:href="#DejaVuSans-31"/>
       <use x="63.623047" xlink:href="#DejaVuSans-2e"/>
       <use x="95.410156" xlink:href="#DejaVuSans-35"/>
      </g>
     </g>
    </g>
    <g id="ytick_5">
     <g id="line2d_23">
      <g>
       <use style="stroke:#000000;stroke-width:0.8;" x="57.6" xlink:href="#m6b5b285e74" y="165.715421"/>
      </g>
     </g>
     <g id="text_24">
      <!-- 2.0 -->
      <g transform="translate(34.696875 169.51464)scale(0.1 -0.1)">
       <use xlink:href="#DejaVuSans-32"/>
       <use x="63.623047" xlink:href="#DejaVuSans-2e"/>
       <use x="95.410156" xlink:href="#DejaVuSans-30"/>
      </g>
     </g>
    </g>
    <g id="ytick_6">
     <g id="line2d_24">
      <g>
       <use style="stroke:#000000;stroke-width:0.8;" x="57.6" xlink:href="#m6b5b285e74" y="130.248276"/>
      </g>
     </g>
     <g id="text_25">
      <!-- 2.5 -->
      <g transform="translate(34.696875 134.047495)scale(0.1 -0.1)">
       <use xlink:href="#DejaVuSans-32"/>
       <use x="63.623047" xlink:href="#DejaVuSans-2e"/>
       <use x="95.410156" xlink:href="#DejaVuSans-35"/>
      </g>
     </g>
    </g>
    <g id="ytick_7">
     <g id="line2d_25">
      <g>
       <use style="stroke:#000000;stroke-width:0.8;" x="57.6" xlink:href="#m6b5b285e74" y="94.781131"/>
      </g>
     </g>
     <g id="text_26">
      <!-- 3.0 -->
      <g transform="translate(34.696875 98.58035)scale(0.1 -0.1)">
       <use xlink:href="#DejaVuSans-33"/>
       <use x="63.623047" xlink:href="#DejaVuSans-2e"/>
       <use x="95.410156" xlink:href="#DejaVuSans-30"/>
      </g>
     </g>
    </g>
    <g id="ytick_8">
     <g id="line2d_26">
      <g>
       <use style="stroke:#000000;stroke-width:0.8;" x="57.6" xlink:href="#m6b5b285e74" y="59.313987"/>
      </g>
     </g>
     <g id="text_27">
      <!-- 3.5 -->
      <g transform="translate(34.696875 63.113205)scale(0.1 -0.1)">
       <use xlink:href="#DejaVuSans-33"/>
       <use x="63.623047" xlink:href="#DejaVuSans-2e"/>
       <use x="95.410156" xlink:href="#DejaVuSans-35"/>
      </g>
     </g>
    </g>
    <g id="text_28">
     <!-- Total Bytes sent to Domain -->
     <g transform="translate(28.617187 241.823312)rotate(-90)scale(0.1 -0.1)">
      <defs>
       <path d="M -19 4666 
L 3928 4666 
L 3928 4134 
L 2272 4134 
L 2272 0 
L 1638 0 
L 1638 4134 
L -19 4134 
L -19 4666 
z
" id="DejaVuSans-54" transform="scale(0.015625)"/>
       <path d="M 1172 4494 
L 1172 3500 
L 2356 3500 
L 2356 3053 
L 1172 3053 
L 1172 1153 
Q 1172 725 1289 603 
Q 1406 481 1766 481 
L 2356 481 
L 2356 0 
L 1766 0 
Q 1100 0 847 248 
Q 594 497 594 1153 
L 594 3053 
L 172 3053 
L 172 3500 
L 594 3500 
L 594 4494 
L 1172 4494 
z
" id="DejaVuSans-74" transform="scale(0.015625)"/>
       <path d="M 603 4863 
L 1178 4863 
L 1178 0 
L 603 0 
L 603 4863 
z
" id="DejaVuSans-6c" transform="scale(0.015625)"/>
       <path id="DejaVuSans-20" transform="scale(0.015625)"/>
       <path d="M 1259 2228 
L 1259 519 
L 2272 519 
Q 2781 519 3026 730 
Q 3272 941 3272 1375 
Q 3272 1813 3026 2020 
Q 2781 2228 2272 2228 
L 1259 2228 
z
M 1259 4147 
L 1259 2741 
L 2194 2741 
Q 2656 2741 2882 2914 
Q 3109 3088 3109 3444 
Q 3109 3797 2882 3972 
Q 2656 4147 2194 4147 
L 1259 4147 
z
M 628 4666 
L 2241 4666 
Q 2963 4666 3353 4366 
Q 3744 4066 3744 3513 
Q 3744 3084 3544 2831 
Q 3344 2578 2956 2516 
Q 3422 2416 3680 2098 
Q 3938 1781 3938 1306 
Q 3938 681 3513 340 
Q 3088 0 2303 0 
L 628 0 
L 628 4666 
z
" id="DejaVuSans-42" transform="scale(0.015625)"/>
       <path d="M 2059 -325 
Q 1816 -950 1584 -1140 
Q 1353 -1331 966 -1331 
L 506 -1331 
L 506 -850 
L 844 -850 
Q 1081 -850 1212 -737 
Q 1344 -625 1503 -206 
L 1606 56 
L 191 3500 
L 800 3500 
L 1894 763 
L 2988 3500 
L 3597 3500 
L 2059 -325 
z
" id="DejaVuSans-79" transform="scale(0.015625)"/>
       <path d="M 3597 1894 
L 3597 1613 
L 953 1613 
Q 991 1019 1311 708 
Q 1631 397 2203 397 
Q 2534 397 2845 478 
Q 3156 559 3463 722 
L 3463 178 
Q 3153 47 2828 -22 
Q 2503 -91 2169 -91 
Q 1331 -91 842 396 
Q 353 884 353 1716 
Q 353 2575 817 3079 
Q 1281 3584 2069 3584 
Q 2775 3584 3186 3129 
Q 3597 2675 3597 1894 
z
M 3022 2063 
Q 3016 2534 2758 2815 
Q 2500 3097 2075 3097 
Q 1594 3097 1305 2825 
Q 1016 2553 972 2059 
L 3022 2063 
z
" id="DejaVuSans-65" transform="scale(0.015625)"/>
       <path d="M 2834 3397 
L 2834 2853 
Q 2591 2978 2328 3040 
Q 2066 3103 1784 3103 
Q 1356 3103 1142 2972 
Q 928 2841 928 2578 
Q 928 2378 1081 2264 
Q 1234 2150 1697 2047 
L 1894 2003 
Q 2506 1872 2764 1633 
Q 3022 1394 3022 966 
Q 3022 478 2636 193 
Q 2250 -91 1575 -91 
Q 1294 -91 989 -36 
Q 684 19 347 128 
L 347 722 
Q 666 556 975 473 
Q 1284 391 1588 391 
Q 1994 391 2212 530 
Q 2431 669 2431 922 
Q 2431 1156 2273 1281 
Q 2116 1406 1581 1522 
L 1381 1569 
Q 847 1681 609 1914 
Q 372 2147 372 2553 
Q 372 3047 722 3315 
Q 1072 3584 1716 3584 
Q 2034 3584 2315 3537 
Q 2597 3491 2834 3397 
z
" id="DejaVuSans-73" transform="scale(0.015625)"/>
       <path d="M 1259 4147 
L 1259 519 
L 2022 519 
Q 2988 519 3436 956 
Q 3884 1394 3884 2338 
Q 3884 3275 3436 3711 
Q 2988 4147 2022 4147 
L 1259 4147 
z
M 628 4666 
L 1925 4666 
Q 3281 4666 3915 4102 
Q 4550 3538 4550 2338 
Q 4550 1131 3912 565 
Q 3275 0 1925 0 
L 628 0 
L 628 4666 
z
" id="DejaVuSans-44" transform="scale(0.015625)"/>
      </defs>
      <use xlink:href="#DejaVuSans-54"/>
      <use x="44.083984" xlink:href="#DejaVuSans-6f"/>
      <use x="105.265625" xlink:href="#DejaVuSans-74"/>
      <use x="144.474609" xlink:href="#DejaVuSans-61"/>
      <use x="205.753906" xlink:href="#DejaVuSans-6c"/>
      <use x="233.537109" xlink:href="#DejaVuSans-20"/>
      <use x="265.324219" xlink:href="#DejaVuSans-42"/>
      <use x="333.927734" xlink:href="#DejaVuSans-79"/>
      <use x="393.107422" xlink:href="#DejaVuSans-74"/>
      <use x="432.316406" xlink:href="#DejaVuSans-65"/>
      <use x="493.839844" xlink:href="#DejaVuSans-73"/>
      <use x="545.939453" xlink:href="#DejaVuSans-20"/>
      <use x="577.726562" xlink:href="#DejaVuSans-73"/>
      <use x="629.826172" xlink:href="#DejaVuSans-65"/>
      <use x="691.349609" xlink:href="#DejaVuSans-6e"/>
      <use x="754.728516" xlink:href="#DejaVuSans-74"/>
      <use x="793.9375" xlink:href="#DejaVuSans-20"/>
      <use x="825.724609" xlink:href="#DejaVuSans-74"/>
      <use x="864.933594" xlink:href="#DejaVuSans-6f"/>
      <use x="926.115234" xlink:href="#DejaVuSans-20"/>
      <use x="957.902344" xlink:href="#DejaVuSans-44"/>
      <use x="1034.904297" xlink:href="#DejaVuSans-6f"/>
      <use x="1096.085938" xlink:href="#DejaVuSans-6d"/>
      <use x="1193.498047" xlink:href="#DejaVuSans-61"/>
      <use x="1254.777344" xlink:href="#DejaVuSans-69"/>
      <use x="1282.560547" xlink:href="#DejaVuSans-6e"/>
     </g>
    </g>
    <g id="text_29">
     <!-- 1e9 -->
     <g transform="translate(57.6 38.472)scale(0.1 -0.1)">
      <use xlink:href="#DejaVuSans-31"/>
      <use x="63.623047" xlink:href="#DejaVuSans-65"/>
      <use x="125.146484" xlink:href="#DejaVuSans-39"/>
     </g>
    </g>
   </g>
   <g id="patch_253">
    <path d="M 57.6 307.584 
L 57.6 41.472 
" style="fill:none;stroke:#000000;stroke-linecap:square;stroke-linejoin:miter;stroke-width:0.8;"/>
   </g>
   <g id="patch_254">
    <path d="M 414.72 307.584 
L 414.72 41.472 
" style="fill:none;stroke:#000000;stroke-linecap:square;stroke-linejoin:miter;stroke-width:0.8;"/>
   </g>
   <g id="patch_255">
    <path d="M 57.6 307.584 
L 414.72 307.584 
" style="fill:none;stroke:#000000;stroke-linecap:square;stroke-linejoin:miter;stroke-width:0.8;"/>
   </g>
   <g id="patch_256">
    <path d="M 57.6 41.472 
L 414.72 41.472 
" style="fill:none;stroke:#000000;stroke-linecap:square;stroke-linejoin:miter;stroke-width:0.8;"/>
   </g>
   <g id="text_30">
    <!-- ex3-run184 -->
    <g transform="translate(201.515625 35.472)scale(0.12 -0.12)">
     <defs>
      <path d="M 3513 3500 
L 2247 1797 
L 3578 0 
L 2900 0 
L 1881 1375 
L 863 0 
L 184 0 
L 1544 1831 
L 300 3500 
L 978 3500 
L 1906 2253 
L 2834 3500 
L 3513 3500 
z
" id="DejaVuSans-78" transform="scale(0.015625)"/>
      <path d="M 313 2009 
L 1997 2009 
L 1997 1497 
L 313 1497 
L 313 2009 
z
" id="DejaVuSans-2d" transform="scale(0.015625)"/>
      <path d="M 2631 2963 
Q 2534 3019 2420 3045 
Q 2306 3072 2169 3072 
Q 1681 3072 1420 2755 
Q 1159 2438 1159 1844 
L 1159 0 
L 581 0 
L 581 3500 
L 1159 3500 
L 1159 2956 
Q 1341 3275 1631 3429 
Q 1922 3584 2338 3584 
Q 2397 3584 2469 3576 
Q 2541 3569 2628 3553 
L 2631 2963 
z
" id="DejaVuSans-72" transform="scale(0.015625)"/>
      <path d="M 544 1381 
L 544 3500 
L 1119 3500 
L 1119 1403 
Q 1119 906 1312 657 
Q 1506 409 1894 409 
Q 2359 409 2629 706 
Q 2900 1003 2900 1516 
L 2900 3500 
L 3475 3500 
L 3475 0 
L 2900 0 
L 2900 538 
Q 2691 219 2414 64 
Q 2138 -91 1772 -91 
Q 1169 -91 856 284 
Q 544 659 544 1381 
z
M 1991 3584 
L 1991 3584 
z
" id="DejaVuSans-75" transform="scale(0.015625)"/>
     </defs>
     <use xlink:href="#DejaVuSans-65"/>
     <use x="59.773438" xlink:href="#DejaVuSans-78"/>
     <use x="118.953125" xlink:href="#DejaVuSans-33"/>
     <use x="182.576172" xlink:href="#DejaVuSans-2d"/>
     <use x="218.660156" xlink:href="#DejaVuSans-72"/>
     <use x="259.773438" xlink:href="#DejaVuSans-75"/>
     <use x="323.152344" xlink:href="#DejaVuSans-6e"/>
     <use x="386.53125" xlink:href="#DejaVuSans-31"/>
     <use x="450.154297" xlink:href="#DejaVuSans-38"/>
     <use x="513.777344" xlink:href="#DejaVuSans-34"/>
    </g>
   </g>
   <g id="legend_1">
    <g id="patch_257">
     <path d="M 64.6 78.82825 
L 184.99375 78.82825 
Q 186.99375 78.82825 186.99375 76.82825 
L 186.99375 48.472 
Q 186.99375 46.472 184.99375 46.472 
L 64.6 46.472 
Q 62.6 46.472 62.6 48.472 
L 62.6 76.82825 
Q 62.6 78.82825 64.6 78.82825 
z
" style="fill:#ffffff;opacity:0.8;stroke:#cccccc;stroke-linejoin:miter;"/>
    </g>
    <g id="patch_258">
     <path d="M 66.6 58.070437 
L 86.6 58.070437 
L 86.6 51.070437 
L 66.6 51.070437 
z
" style="fill:#1f77b4;"/>
    </g>
    <g id="text_31">
     <!--  non-dupe bytes -->
     <g transform="translate(94.6 58.070437)scale(0.1 -0.1)">
      <defs>
       <path d="M 1159 525 
L 1159 -1331 
L 581 -1331 
L 581 3500 
L 1159 3500 
L 1159 2969 
Q 1341 3281 1617 3432 
Q 1894 3584 2278 3584 
Q 2916 3584 3314 3078 
Q 3713 2572 3713 1747 
Q 3713 922 3314 415 
Q 2916 -91 2278 -91 
Q 1894 -91 1617 61 
Q 1341 213 1159 525 
z
M 3116 1747 
Q 3116 2381 2855 2742 
Q 2594 3103 2138 3103 
Q 1681 3103 1420 2742 
Q 1159 2381 1159 1747 
Q 1159 1113 1420 752 
Q 1681 391 2138 391 
Q 2594 391 2855 752 
Q 3116 1113 3116 1747 
z
" id="DejaVuSans-70" transform="scale(0.015625)"/>
       <path d="M 3116 1747 
Q 3116 2381 2855 2742 
Q 2594 3103 2138 3103 
Q 1681 3103 1420 2742 
Q 1159 2381 1159 1747 
Q 1159 1113 1420 752 
Q 1681 391 2138 391 
Q 2594 391 2855 752 
Q 3116 1113 3116 1747 
z
M 1159 2969 
Q 1341 3281 1617 3432 
Q 1894 3584 2278 3584 
Q 2916 3584 3314 3078 
Q 3713 2572 3713 1747 
Q 3713 922 3314 415 
Q 2916 -91 2278 -91 
Q 1894 -91 1617 61 
Q 1341 213 1159 525 
L 1159 0 
L 581 0 
L 581 4863 
L 1159 4863 
L 1159 2969 
z
" id="DejaVuSans-62" transform="scale(0.015625)"/>
      </defs>
      <use xlink:href="#DejaVuSans-20"/>
      <use x="31.787109" xlink:href="#DejaVuSans-6e"/>
      <use x="95.166016" xlink:href="#DejaVuSans-6f"/>
      <use x="156.347656" xlink:href="#DejaVuSans-6e"/>
      <use x="219.726562" xlink:href="#DejaVuSans-2d"/>
      <use x="255.810547" xlink:href="#DejaVuSans-64"/>
      <use x="319.287109" xlink:href="#DejaVuSans-75"/>
      <use x="382.666016" xlink:href="#DejaVuSans-70"/>
      <use x="446.142578" xlink:href="#DejaVuSans-65"/>
      <use x="507.666016" xlink:href="#DejaVuSans-20"/>
      <use x="539.453125" xlink:href="#DejaVuSans-62"/>
      <use x="602.929688" xlink:href="#DejaVuSans-79"/>
      <use x="662.109375" xlink:href="#DejaVuSans-74"/>
      <use x="701.318359" xlink:href="#DejaVuSans-65"/>
      <use x="762.841797" xlink:href="#DejaVuSans-73"/>
     </g>
    </g>
    <g id="patch_259">
     <path d="M 66.6 72.748562 
L 86.6 72.748562 
L 86.6 65.748562 
L 66.6 65.748562 
z
" style="fill:#ff7f0e;"/>
    </g>
    <g id="text_32">
     <!-- total region bytes -->
     <g transform="translate(94.6 72.748562)scale(0.1 -0.1)">
      <defs>
       <path d="M 2906 1791 
Q 2906 2416 2648 2759 
Q 2391 3103 1925 3103 
Q 1463 3103 1205 2759 
Q 947 2416 947 1791 
Q 947 1169 1205 825 
Q 1463 481 1925 481 
Q 2391 481 2648 825 
Q 2906 1169 2906 1791 
z
M 3481 434 
Q 3481 -459 3084 -895 
Q 2688 -1331 1869 -1331 
Q 1566 -1331 1297 -1286 
Q 1028 -1241 775 -1147 
L 775 -588 
Q 1028 -725 1275 -790 
Q 1522 -856 1778 -856 
Q 2344 -856 2625 -561 
Q 2906 -266 2906 331 
L 2906 616 
Q 2728 306 2450 153 
Q 2172 0 1784 0 
Q 1141 0 747 490 
Q 353 981 353 1791 
Q 353 2603 747 3093 
Q 1141 3584 1784 3584 
Q 2172 3584 2450 3431 
Q 2728 3278 2906 2969 
L 2906 3500 
L 3481 3500 
L 3481 434 
z
" id="DejaVuSans-67" transform="scale(0.015625)"/>
      </defs>
      <use xlink:href="#DejaVuSans-74"/>
      <use x="39.208984" xlink:href="#DejaVuSans-6f"/>
      <use x="100.390625" xlink:href="#DejaVuSans-74"/>
      <use x="139.599609" xlink:href="#DejaVuSans-61"/>
      <use x="200.878906" xlink:href="#DejaVuSans-6c"/>
      <use x="228.662109" xlink:href="#DejaVuSans-20"/>
      <use x="260.449219" xlink:href="#DejaVuSans-72"/>
      <use x="299.3125" xlink:href="#DejaVuSans-65"/>
      <use x="360.835938" xlink:href="#DejaVuSans-67"/>
      <use x="424.3125" xlink:href="#DejaVuSans-69"/>
      <use x="452.095703" xlink:href="#DejaVuSans-6f"/>
      <use x="513.277344" xlink:href="#DejaVuSans-6e"/>
      <use x="576.65625" xlink:href="#DejaVuSans-20"/>
      <use x="608.443359" xlink:href="#DejaVuSans-62"/>
      <use x="671.919922" xlink:href="#DejaVuSans-79"/>
      <use x="731.099609" xlink:href="#DejaVuSans-74"/>
      <use x="770.308594" xlink:href="#DejaVuSans-65"/>
      <use x="831.832031" xlink:href="#DejaVuSans-73"/>
     </g>
    </g>
   </g>
  </g>
 </g>
 <defs>
  <clipPath id="p41f54f69ec">
   <rect height="266.112" width="357.12" x="57.6" y="41.472"/>
  </clipPath>
 </defs>
</svg>
