<?xml version="1.0" encoding="utf-8" standalone="no"?>
<!DOCTYPE svg PUBLIC "-//W3C//DTD SVG 1.1//EN"
  "http://www.w3.org/Graphics/SVG/1.1/DTD/svg11.dtd">
<svg height="345.6pt" version="1.1" viewBox="0 0 460.8 345.6" width="460.8pt" xmlns="http://www.w3.org/2000/svg" xmlns:xlink="http://www.w3.org/1999/xlink">
 <metadata>
  <rdf:RDF xmlns:cc="http://creativecommons.org/ns#" xmlns:dc="http://purl.org/dc/elements/1.1/" xmlns:rdf="http://www.w3.org/1999/02/22-rdf-syntax-ns#">
   <cc:Work>
    <dc:type rdf:resource="http://purl.org/dc/dcmitype/StillImage"/>
    <dc:date>2021-12-05T23:48:52.488207</dc:date>
    <dc:format>image/svg+xml</dc:format>
    <dc:creator>
     <cc:Agent>
      <dc:title>Matplotlib v3.4.3, https://matplotlib.org/</dc:title>
     </cc:Agent>
    </dc:creator>
   </cc:Work>
  </rdf:RDF>
 </metadata>
 <defs>
  <style type="text/css">*{stroke-linecap:butt;stroke-linejoin:round;}</style>
 </defs>
 <g id="figure_1">
  <g id="patch_1">
   <path d="M 0 345.6 
L 460.8 345.6 
L 460.8 0 
L 0 0 
z
" style="fill:#ffffff;"/>
  </g>
  <g id="axes_1">
   <g id="patch_2">
    <path d="M 57.6 307.584 
L 414.72 307.584 
L 414.72 41.472 
L 57.6 41.472 
z
" style="fill:#ffffff;"/>
   </g>
   <g id="patch_3">
    <path clip-path="url(#p88e78a7b1a)" d="M 58.31424 307.584 
L 59.74272 307.584 
L 59.74272 304.498129 
L 58.31424 304.498129 
z
" style="fill:#1f77b4;"/>
   </g>
   <g id="patch_4">
    <path clip-path="url(#p88e78a7b1a)" d="M 61.1712 307.584 
L 62.59968 307.584 
L 62.59968 305.07564 
L 61.1712 305.07564 
z
" style="fill:#1f77b4;"/>
   </g>
   <g id="patch_5">
    <path clip-path="url(#p88e78a7b1a)" d="M 64.02816 307.584 
L 65.45664 307.584 
L 65.45664 306.166752 
L 64.02816 306.166752 
z
" style="fill:#1f77b4;"/>
   </g>
   <g id="patch_6">
    <path clip-path="url(#p88e78a7b1a)" d="M 66.88512 307.584 
L 68.3136 307.584 
L 68.3136 306.585024 
L 66.88512 306.585024 
z
" style="fill:#1f77b4;"/>
   </g>
   <g id="patch_7">
    <path clip-path="url(#p88e78a7b1a)" d="M 69.74208 307.584 
L 71.17056 307.584 
L 71.17056 303.038273 
L 69.74208 303.038273 
z
" style="fill:#1f77b4;"/>
   </g>
   <g id="patch_8">
    <path clip-path="url(#p88e78a7b1a)" d="M 72.59904 307.584 
L 74.02752 307.584 
L 74.02752 306.567869 
L 72.59904 306.567869 
z
" style="fill:#1f77b4;"/>
   </g>
   <g id="patch_9">
    <path clip-path="url(#p88e78a7b1a)" d="M 75.456 307.584 
L 76.88448 307.584 
L 76.88448 303.918065 
L 75.456 303.918065 
z
" style="fill:#1f77b4;"/>
   </g>
   <g id="patch_10">
    <path clip-path="url(#p88e78a7b1a)" d="M 78.31296 307.584 
L 79.74144 307.584 
L 79.74144 305.971803 
L 78.31296 305.971803 
z
" style="fill:#1f77b4;"/>
   </g>
   <g id="patch_11">
    <path clip-path="url(#p88e78a7b1a)" d="M 81.16992 307.584 
L 82.5984 307.584 
L 82.5984 305.660793 
L 81.16992 305.660793 
z
" style="fill:#1f77b4;"/>
   </g>
   <g id="patch_12">
    <path clip-path="url(#p88e78a7b1a)" d="M 84.02688 307.584 
L 85.45536 307.584 
L 85.45536 304.293897 
L 84.02688 304.293897 
z
" style="fill:#1f77b4;"/>
   </g>
   <g id="patch_13">
    <path clip-path="url(#p88e78a7b1a)" d="M 86.88384 307.584 
L 88.31232 307.584 
L 88.31232 305.966831 
L 86.88384 305.966831 
z
" style="fill:#1f77b4;"/>
   </g>
   <g id="patch_14">
    <path clip-path="url(#p88e78a7b1a)" d="M 89.7408 307.584 
L 91.16928 307.584 
L 91.16928 304.456306 
L 89.7408 304.456306 
z
" style="fill:#1f77b4;"/>
   </g>
   <g id="patch_15">
    <path clip-path="url(#p88e78a7b1a)" d="M 92.59776 307.584 
L 94.02624 307.584 
L 94.02624 307.38262 
L 92.59776 307.38262 
z
" style="fill:#1f77b4;"/>
   </g>
   <g id="patch_16">
    <path clip-path="url(#p88e78a7b1a)" d="M 95.45472 307.584 
L 96.8832 307.584 
L 96.8832 305.270526 
L 95.45472 305.270526 
z
" style="fill:#1f77b4;"/>
   </g>
   <g id="patch_17">
    <path clip-path="url(#p88e78a7b1a)" d="M 98.31168 307.584 
L 99.74016 307.584 
L 99.74016 306.224325 
L 98.31168 306.224325 
z
" style="fill:#1f77b4;"/>
   </g>
   <g id="patch_18">
    <path clip-path="url(#p88e78a7b1a)" d="M 101.16864 307.584 
L 102.59712 307.584 
L 102.59712 305.766188 
L 101.16864 305.766188 
z
" style="fill:#1f77b4;"/>
   </g>
   <g id="patch_19">
    <path clip-path="url(#p88e78a7b1a)" d="M 104.0256 307.584 
L 105.45408 307.584 
L 105.45408 306.939404 
L 104.0256 306.939404 
z
" style="fill:#1f77b4;"/>
   </g>
   <g id="patch_20">
    <path clip-path="url(#p88e78a7b1a)" d="M 106.88256 307.584 
L 108.31104 307.584 
L 108.31104 306.669269 
L 106.88256 306.669269 
z
" style="fill:#1f77b4;"/>
   </g>
   <g id="patch_21">
    <path clip-path="url(#p88e78a7b1a)" d="M 109.73952 307.584 
L 111.168 307.584 
L 111.168 306.493376 
L 109.73952 306.493376 
z
" style="fill:#1f77b4;"/>
   </g>
   <g id="patch_22">
    <path clip-path="url(#p88e78a7b1a)" d="M 112.59648 307.584 
L 114.02496 307.584 
L 114.02496 304.322663 
L 112.59648 304.322663 
z
" style="fill:#1f77b4;"/>
   </g>
   <g id="patch_23">
    <path clip-path="url(#p88e78a7b1a)" d="M 115.45344 307.584 
L 116.88192 307.584 
L 116.88192 305.302732 
L 115.45344 305.302732 
z
" style="fill:#1f77b4;"/>
   </g>
   <g id="patch_24">
    <path clip-path="url(#p88e78a7b1a)" d="M 118.3104 307.584 
L 119.73888 307.584 
L 119.73888 305.902975 
L 118.3104 305.902975 
z
" style="fill:#1f77b4;"/>
   </g>
   <g id="patch_25">
    <path clip-path="url(#p88e78a7b1a)" d="M 121.16736 307.584 
L 122.59584 307.584 
L 122.59584 305.176165 
L 121.16736 305.176165 
z
" style="fill:#1f77b4;"/>
   </g>
   <g id="patch_26">
    <path clip-path="url(#p88e78a7b1a)" d="M 124.02432 307.584 
L 125.4528 307.584 
L 125.4528 306.997691 
L 124.02432 306.997691 
z
" style="fill:#1f77b4;"/>
   </g>
   <g id="patch_27">
    <path clip-path="url(#p88e78a7b1a)" d="M 126.88128 307.584 
L 128.30976 307.584 
L 128.30976 305.804649 
L 126.88128 305.804649 
z
" style="fill:#1f77b4;"/>
   </g>
   <g id="patch_28">
    <path clip-path="url(#p88e78a7b1a)" d="M 129.73824 307.584 
L 131.16672 307.584 
L 131.16672 305.553506 
L 129.73824 305.553506 
z
" style="fill:#1f77b4;"/>
   </g>
   <g id="patch_29">
    <path clip-path="url(#p88e78a7b1a)" d="M 132.5952 307.584 
L 134.02368 307.584 
L 134.02368 304.859355 
L 132.5952 304.859355 
z
" style="fill:#1f77b4;"/>
   </g>
   <g id="patch_30">
    <path clip-path="url(#p88e78a7b1a)" d="M 135.45216 307.584 
L 136.88064 307.584 
L 136.88064 306.832807 
L 135.45216 306.832807 
z
" style="fill:#1f77b4;"/>
   </g>
   <g id="patch_31">
    <path clip-path="url(#p88e78a7b1a)" d="M 138.30912 307.584 
L 139.7376 307.584 
L 139.7376 305.929261 
L 138.30912 305.929261 
z
" style="fill:#1f77b4;"/>
   </g>
   <g id="patch_32">
    <path clip-path="url(#p88e78a7b1a)" d="M 141.16608 307.584 
L 142.59456 307.584 
L 142.59456 306.158528 
L 141.16608 306.158528 
z
" style="fill:#1f77b4;"/>
   </g>
   <g id="patch_33">
    <path clip-path="url(#p88e78a7b1a)" d="M 144.02304 307.584 
L 145.45152 307.584 
L 145.45152 306.462416 
L 144.02304 306.462416 
z
" style="fill:#1f77b4;"/>
   </g>
   <g id="patch_34">
    <path clip-path="url(#p88e78a7b1a)" d="M 146.88 307.584 
L 148.30848 307.584 
L 148.30848 305.992387 
L 146.88 305.992387 
z
" style="fill:#1f77b4;"/>
   </g>
   <g id="patch_35">
    <path clip-path="url(#p88e78a7b1a)" d="M 149.73696 307.584 
L 151.16544 307.584 
L 151.16544 304.730536 
L 149.73696 304.730536 
z
" style="fill:#1f77b4;"/>
   </g>
   <g id="patch_36">
    <path clip-path="url(#p88e78a7b1a)" d="M 152.59392 307.584 
L 154.0224 307.584 
L 154.0224 306.225873 
L 152.59392 306.225873 
z
" style="fill:#1f77b4;"/>
   </g>
   <g id="patch_37">
    <path clip-path="url(#p88e78a7b1a)" d="M 155.45088 307.584 
L 156.87936 307.584 
L 156.87936 306.964398 
L 155.45088 306.964398 
z
" style="fill:#1f77b4;"/>
   </g>
   <g id="patch_38">
    <path clip-path="url(#p88e78a7b1a)" d="M 158.30784 307.584 
L 159.73632 307.584 
L 159.73632 306.121627 
L 158.30784 306.121627 
z
" style="fill:#1f77b4;"/>
   </g>
   <g id="patch_39">
    <path clip-path="url(#p88e78a7b1a)" d="M 161.1648 307.584 
L 162.59328 307.584 
L 162.59328 306.37552 
L 161.1648 306.37552 
z
" style="fill:#1f77b4;"/>
   </g>
   <g id="patch_40">
    <path clip-path="url(#p88e78a7b1a)" d="M 164.02176 307.584 
L 165.45024 307.584 
L 165.45024 307.031504 
L 164.02176 307.031504 
z
" style="fill:#1f77b4;"/>
   </g>
   <g id="patch_41">
    <path clip-path="url(#p88e78a7b1a)" d="M 166.87872 307.584 
L 168.3072 307.584 
L 168.3072 306.528186 
L 166.87872 306.528186 
z
" style="fill:#1f77b4;"/>
   </g>
   <g id="patch_42">
    <path clip-path="url(#p88e78a7b1a)" d="M 169.73568 307.584 
L 171.16416 307.584 
L 171.16416 306.294962 
L 169.73568 306.294962 
z
" style="fill:#1f77b4;"/>
   </g>
   <g id="patch_43">
    <path clip-path="url(#p88e78a7b1a)" d="M 172.59264 307.584 
L 174.02112 307.584 
L 174.02112 303.618901 
L 172.59264 303.618901 
z
" style="fill:#1f77b4;"/>
   </g>
   <g id="patch_44">
    <path clip-path="url(#p88e78a7b1a)" d="M 175.4496 307.584 
L 176.87808 307.584 
L 176.87808 306.807812 
L 175.4496 306.807812 
z
" style="fill:#1f77b4;"/>
   </g>
   <g id="patch_45">
    <path clip-path="url(#p88e78a7b1a)" d="M 178.30656 307.584 
L 179.73504 307.584 
L 179.73504 305.956086 
L 178.30656 305.956086 
z
" style="fill:#1f77b4;"/>
   </g>
   <g id="patch_46">
    <path clip-path="url(#p88e78a7b1a)" d="M 181.16352 307.584 
L 182.592 307.584 
L 182.592 306.068727 
L 181.16352 306.068727 
z
" style="fill:#1f77b4;"/>
   </g>
   <g id="patch_47">
    <path clip-path="url(#p88e78a7b1a)" d="M 184.02048 307.584 
L 185.44896 307.584 
L 185.44896 302.193899 
L 184.02048 302.193899 
z
" style="fill:#1f77b4;"/>
   </g>
   <g id="patch_48">
    <path clip-path="url(#p88e78a7b1a)" d="M 186.87744 307.584 
L 188.30592 307.584 
L 188.30592 305.885175 
L 186.87744 305.885175 
z
" style="fill:#1f77b4;"/>
   </g>
   <g id="patch_49">
    <path clip-path="url(#p88e78a7b1a)" d="M 189.7344 307.584 
L 191.16288 307.584 
L 191.16288 307.53573 
L 189.7344 307.53573 
z
" style="fill:#1f77b4;"/>
   </g>
   <g id="patch_50">
    <path clip-path="url(#p88e78a7b1a)" d="M 192.59136 307.584 
L 194.01984 307.584 
L 194.01984 298.553818 
L 192.59136 298.553818 
z
" style="fill:#1f77b4;"/>
   </g>
   <g id="patch_51">
    <path clip-path="url(#p88e78a7b1a)" d="M 195.44832 307.584 
L 196.8768 307.584 
L 196.8768 304.748309 
L 195.44832 304.748309 
z
" style="fill:#1f77b4;"/>
   </g>
   <g id="patch_52">
    <path clip-path="url(#p88e78a7b1a)" d="M 198.30528 307.584 
L 199.73376 307.584 
L 199.73376 306.607876 
L 198.30528 306.607876 
z
" style="fill:#1f77b4;"/>
   </g>
   <g id="patch_53">
    <path clip-path="url(#p88e78a7b1a)" d="M 201.16224 307.584 
L 202.59072 307.584 
L 202.59072 306.644257 
L 201.16224 306.644257 
z
" style="fill:#1f77b4;"/>
   </g>
   <g id="patch_54">
    <path clip-path="url(#p88e78a7b1a)" d="M 204.0192 307.584 
L 205.44768 307.584 
L 205.44768 307.112604 
L 204.0192 307.112604 
z
" style="fill:#1f77b4;"/>
   </g>
   <g id="patch_55">
    <path clip-path="url(#p88e78a7b1a)" d="M 206.87616 307.584 
L 208.30464 307.584 
L 208.30464 306.447331 
L 206.87616 306.447331 
z
" style="fill:#1f77b4;"/>
   </g>
   <g id="patch_56">
    <path clip-path="url(#p88e78a7b1a)" d="M 209.73312 307.584 
L 211.1616 307.584 
L 211.1616 305.712264 
L 209.73312 305.712264 
z
" style="fill:#1f77b4;"/>
   </g>
   <g id="patch_57">
    <path clip-path="url(#p88e78a7b1a)" d="M 212.59008 307.584 
L 214.01856 307.584 
L 214.01856 306.35853 
L 212.59008 306.35853 
z
" style="fill:#1f77b4;"/>
   </g>
   <g id="patch_58">
    <path clip-path="url(#p88e78a7b1a)" d="M 215.44704 307.584 
L 216.87552 307.584 
L 216.87552 304.733103 
L 215.44704 304.733103 
z
" style="fill:#1f77b4;"/>
   </g>
   <g id="patch_59">
    <path clip-path="url(#p88e78a7b1a)" d="M 218.304 307.584 
L 219.73248 307.584 
L 219.73248 305.640991 
L 218.304 305.640991 
z
" style="fill:#1f77b4;"/>
   </g>
   <g id="patch_60">
    <path clip-path="url(#p88e78a7b1a)" d="M 221.16096 307.584 
L 222.58944 307.584 
L 222.58944 306.307465 
L 221.16096 306.307465 
z
" style="fill:#1f77b4;"/>
   </g>
   <g id="patch_61">
    <path clip-path="url(#p88e78a7b1a)" d="M 224.01792 307.584 
L 225.4464 307.584 
L 225.4464 307.062227 
L 224.01792 307.062227 
z
" style="fill:#1f77b4;"/>
   </g>
   <g id="patch_62">
    <path clip-path="url(#p88e78a7b1a)" d="M 226.87488 307.584 
L 228.30336 307.584 
L 228.30336 306.378731 
L 226.87488 306.378731 
z
" style="fill:#1f77b4;"/>
   </g>
   <g id="patch_63">
    <path clip-path="url(#p88e78a7b1a)" d="M 229.73184 307.584 
L 231.16032 307.584 
L 231.16032 306.851141 
L 229.73184 306.851141 
z
" style="fill:#1f77b4;"/>
   </g>
   <g id="patch_64">
    <path clip-path="url(#p88e78a7b1a)" d="M 232.5888 307.584 
L 234.01728 307.584 
L 234.01728 305.63032 
L 232.5888 305.63032 
z
" style="fill:#1f77b4;"/>
   </g>
   <g id="patch_65">
    <path clip-path="url(#p88e78a7b1a)" d="M 235.44576 307.584 
L 236.87424 307.584 
L 236.87424 304.90094 
L 235.44576 304.90094 
z
" style="fill:#1f77b4;"/>
   </g>
   <g id="patch_66">
    <path clip-path="url(#p88e78a7b1a)" d="M 238.30272 307.584 
L 239.7312 307.584 
L 239.7312 306.171244 
L 238.30272 306.171244 
z
" style="fill:#1f77b4;"/>
   </g>
   <g id="patch_67">
    <path clip-path="url(#p88e78a7b1a)" d="M 241.15968 307.584 
L 242.58816 307.584 
L 242.58816 305.987241 
L 241.15968 305.987241 
z
" style="fill:#1f77b4;"/>
   </g>
   <g id="patch_68">
    <path clip-path="url(#p88e78a7b1a)" d="M 244.01664 307.584 
L 245.44512 307.584 
L 245.44512 305.838418 
L 244.01664 305.838418 
z
" style="fill:#1f77b4;"/>
   </g>
   <g id="patch_69">
    <path clip-path="url(#p88e78a7b1a)" d="M 246.8736 307.584 
L 248.30208 307.584 
L 248.30208 306.736663 
L 246.8736 306.736663 
z
" style="fill:#1f77b4;"/>
   </g>
   <g id="patch_70">
    <path clip-path="url(#p88e78a7b1a)" d="M 249.73056 307.584 
L 251.15904 307.584 
L 251.15904 304.547697 
L 249.73056 304.547697 
z
" style="fill:#1f77b4;"/>
   </g>
   <g id="patch_71">
    <path clip-path="url(#p88e78a7b1a)" d="M 252.58752 307.584 
L 254.016 307.584 
L 254.016 306.480333 
L 252.58752 306.480333 
z
" style="fill:#1f77b4;"/>
   </g>
   <g id="patch_72">
    <path clip-path="url(#p88e78a7b1a)" d="M 255.44448 307.584 
L 256.87296 307.584 
L 256.87296 306.019775 
L 255.44448 306.019775 
z
" style="fill:#1f77b4;"/>
   </g>
   <g id="patch_73">
    <path clip-path="url(#p88e78a7b1a)" d="M 258.30144 307.584 
L 259.72992 307.584 
L 259.72992 305.728761 
L 258.30144 305.728761 
z
" style="fill:#1f77b4;"/>
   </g>
   <g id="patch_74">
    <path clip-path="url(#p88e78a7b1a)" d="M 261.1584 307.584 
L 262.58688 307.584 
L 262.58688 306.902454 
L 261.1584 306.902454 
z
" style="fill:#1f77b4;"/>
   </g>
   <g id="patch_75">
    <path clip-path="url(#p88e78a7b1a)" d="M 264.01536 307.584 
L 265.44384 307.584 
L 265.44384 306.85546 
L 264.01536 306.85546 
z
" style="fill:#1f77b4;"/>
   </g>
   <g id="patch_76">
    <path clip-path="url(#p88e78a7b1a)" d="M 266.87232 307.584 
L 268.3008 307.584 
L 268.3008 305.61755 
L 266.87232 305.61755 
z
" style="fill:#1f77b4;"/>
   </g>
   <g id="patch_77">
    <path clip-path="url(#p88e78a7b1a)" d="M 269.72928 307.584 
L 271.15776 307.584 
L 271.15776 306.437869 
L 269.72928 306.437869 
z
" style="fill:#1f77b4;"/>
   </g>
   <g id="patch_78">
    <path clip-path="url(#p88e78a7b1a)" d="M 272.58624 307.584 
L 274.01472 307.584 
L 274.01472 305.387702 
L 272.58624 305.387702 
z
" style="fill:#1f77b4;"/>
   </g>
   <g id="patch_79">
    <path clip-path="url(#p88e78a7b1a)" d="M 275.4432 307.584 
L 276.87168 307.584 
L 276.87168 306.173772 
L 275.4432 306.173772 
z
" style="fill:#1f77b4;"/>
   </g>
   <g id="patch_80">
    <path clip-path="url(#p88e78a7b1a)" d="M 278.30016 307.584 
L 279.72864 307.584 
L 279.72864 305.858472 
L 278.30016 305.858472 
z
" style="fill:#1f77b4;"/>
   </g>
   <g id="patch_81">
    <path clip-path="url(#p88e78a7b1a)" d="M 281.15712 307.584 
L 282.5856 307.584 
L 282.5856 305.052357 
L 281.15712 305.052357 
z
" style="fill:#1f77b4;"/>
   </g>
   <g id="patch_82">
    <path clip-path="url(#p88e78a7b1a)" d="M 284.01408 307.584 
L 285.44256 307.584 
L 285.44256 306.314333 
L 284.01408 306.314333 
z
" style="fill:#1f77b4;"/>
   </g>
   <g id="patch_83">
    <path clip-path="url(#p88e78a7b1a)" d="M 286.87104 307.584 
L 288.29952 307.584 
L 288.29952 305.033219 
L 286.87104 305.033219 
z
" style="fill:#1f77b4;"/>
   </g>
   <g id="patch_84">
    <path clip-path="url(#p88e78a7b1a)" d="M 289.728 307.584 
L 291.15648 307.584 
L 291.15648 305.734212 
L 289.728 305.734212 
z
" style="fill:#1f77b4;"/>
   </g>
   <g id="patch_85">
    <path clip-path="url(#p88e78a7b1a)" d="M 292.58496 307.584 
L 294.01344 307.584 
L 294.01344 305.922081 
L 292.58496 305.922081 
z
" style="fill:#1f77b4;"/>
   </g>
   <g id="patch_86">
    <path clip-path="url(#p88e78a7b1a)" d="M 295.44192 307.584 
L 296.8704 307.584 
L 296.8704 305.377219 
L 295.44192 305.377219 
z
" style="fill:#1f77b4;"/>
   </g>
   <g id="patch_87">
    <path clip-path="url(#p88e78a7b1a)" d="M 298.29888 307.584 
L 299.72736 307.584 
L 299.72736 307.096176 
L 298.29888 307.096176 
z
" style="fill:#1f77b4;"/>
   </g>
   <g id="patch_88">
    <path clip-path="url(#p88e78a7b1a)" d="M 301.15584 307.584 
L 302.58432 307.584 
L 302.58432 303.691169 
L 301.15584 303.691169 
z
" style="fill:#1f77b4;"/>
   </g>
   <g id="patch_89">
    <path clip-path="url(#p88e78a7b1a)" d="M 304.0128 307.584 
L 305.44128 307.584 
L 305.44128 304.731056 
L 304.0128 304.731056 
z
" style="fill:#1f77b4;"/>
   </g>
   <g id="patch_90">
    <path clip-path="url(#p88e78a7b1a)" d="M 306.86976 307.584 
L 308.29824 307.584 
L 308.29824 307.134691 
L 306.86976 307.134691 
z
" style="fill:#1f77b4;"/>
   </g>
   <g id="patch_91">
    <path clip-path="url(#p88e78a7b1a)" d="M 309.72672 307.584 
L 311.1552 307.584 
L 311.1552 305.370316 
L 309.72672 305.370316 
z
" style="fill:#1f77b4;"/>
   </g>
   <g id="patch_92">
    <path clip-path="url(#p88e78a7b1a)" d="M 312.58368 307.584 
L 314.01216 307.584 
L 314.01216 305.217101 
L 312.58368 305.217101 
z
" style="fill:#1f77b4;"/>
   </g>
   <g id="patch_93">
    <path clip-path="url(#p88e78a7b1a)" d="M 315.44064 307.584 
L 316.86912 307.584 
L 316.86912 306.07086 
L 315.44064 306.07086 
z
" style="fill:#1f77b4;"/>
   </g>
   <g id="patch_94">
    <path clip-path="url(#p88e78a7b1a)" d="M 318.2976 307.584 
L 319.72608 307.584 
L 319.72608 306.214023 
L 318.2976 306.214023 
z
" style="fill:#1f77b4;"/>
   </g>
   <g id="patch_95">
    <path clip-path="url(#p88e78a7b1a)" d="M 321.15456 307.584 
L 322.58304 307.584 
L 322.58304 306.160799 
L 321.15456 306.160799 
z
" style="fill:#1f77b4;"/>
   </g>
   <g id="patch_96">
    <path clip-path="url(#p88e78a7b1a)" d="M 324.01152 307.584 
L 325.44 307.584 
L 325.44 306.713069 
L 324.01152 306.713069 
z
" style="fill:#1f77b4;"/>
   </g>
   <g id="patch_97">
    <path clip-path="url(#p88e78a7b1a)" d="M 326.86848 307.584 
L 328.29696 307.584 
L 328.29696 305.27826 
L 326.86848 305.27826 
z
" style="fill:#1f77b4;"/>
   </g>
   <g id="patch_98">
    <path clip-path="url(#p88e78a7b1a)" d="M 329.72544 307.584 
L 331.15392 307.584 
L 331.15392 305.654548 
L 329.72544 305.654548 
z
" style="fill:#1f77b4;"/>
   </g>
   <g id="patch_99">
    <path clip-path="url(#p88e78a7b1a)" d="M 332.5824 307.584 
L 334.01088 307.584 
L 334.01088 306.016581 
L 332.5824 306.016581 
z
" style="fill:#1f77b4;"/>
   </g>
   <g id="patch_100">
    <path clip-path="url(#p88e78a7b1a)" d="M 335.43936 307.584 
L 336.86784 307.584 
L 336.86784 305.792301 
L 335.43936 305.792301 
z
" style="fill:#1f77b4;"/>
   </g>
   <g id="patch_101">
    <path clip-path="url(#p88e78a7b1a)" d="M 338.29632 307.584 
L 339.7248 307.584 
L 339.7248 304.094363 
L 338.29632 304.094363 
z
" style="fill:#1f77b4;"/>
   </g>
   <g id="patch_102">
    <path clip-path="url(#p88e78a7b1a)" d="M 341.15328 307.584 
L 342.58176 307.584 
L 342.58176 306.433447 
L 341.15328 306.433447 
z
" style="fill:#1f77b4;"/>
   </g>
   <g id="patch_103">
    <path clip-path="url(#p88e78a7b1a)" d="M 344.01024 307.584 
L 345.43872 307.584 
L 345.43872 306.482186 
L 344.01024 306.482186 
z
" style="fill:#1f77b4;"/>
   </g>
   <g id="patch_104">
    <path clip-path="url(#p88e78a7b1a)" d="M 346.8672 307.584 
L 348.29568 307.584 
L 348.29568 307.059103 
L 346.8672 307.059103 
z
" style="fill:#1f77b4;"/>
   </g>
   <g id="patch_105">
    <path clip-path="url(#p88e78a7b1a)" d="M 349.72416 307.584 
L 351.15264 307.584 
L 351.15264 306.818102 
L 349.72416 306.818102 
z
" style="fill:#1f77b4;"/>
   </g>
   <g id="patch_106">
    <path clip-path="url(#p88e78a7b1a)" d="M 352.58112 307.584 
L 354.0096 307.584 
L 354.0096 305.701836 
L 352.58112 305.701836 
z
" style="fill:#1f77b4;"/>
   </g>
   <g id="patch_107">
    <path clip-path="url(#p88e78a7b1a)" d="M 355.43808 307.584 
L 356.86656 307.584 
L 356.86656 304.83008 
L 355.43808 304.83008 
z
" style="fill:#1f77b4;"/>
   </g>
   <g id="patch_108">
    <path clip-path="url(#p88e78a7b1a)" d="M 358.29504 307.584 
L 359.72352 307.584 
L 359.72352 304.001156 
L 358.29504 304.001156 
z
" style="fill:#1f77b4;"/>
   </g>
   <g id="patch_109">
    <path clip-path="url(#p88e78a7b1a)" d="M 361.152 307.584 
L 362.58048 307.584 
L 362.58048 304.602049 
L 361.152 304.602049 
z
" style="fill:#1f77b4;"/>
   </g>
   <g id="patch_110">
    <path clip-path="url(#p88e78a7b1a)" d="M 364.00896 307.584 
L 365.43744 307.584 
L 365.43744 307.058375 
L 364.00896 307.058375 
z
" style="fill:#1f77b4;"/>
   </g>
   <g id="patch_111">
    <path clip-path="url(#p88e78a7b1a)" d="M 366.86592 307.584 
L 368.2944 307.584 
L 368.2944 305.653589 
L 366.86592 305.653589 
z
" style="fill:#1f77b4;"/>
   </g>
   <g id="patch_112">
    <path clip-path="url(#p88e78a7b1a)" d="M 369.72288 307.584 
L 371.15136 307.584 
L 371.15136 307.265287 
L 369.72288 307.265287 
z
" style="fill:#1f77b4;"/>
   </g>
   <g id="patch_113">
    <path clip-path="url(#p88e78a7b1a)" d="M 372.57984 307.584 
L 374.00832 307.584 
L 374.00832 306.416215 
L 372.57984 306.416215 
z
" style="fill:#1f77b4;"/>
   </g>
   <g id="patch_114">
    <path clip-path="url(#p88e78a7b1a)" d="M 375.4368 307.584 
L 376.86528 307.584 
L 376.86528 304.14731 
L 375.4368 304.14731 
z
" style="fill:#1f77b4;"/>
   </g>
   <g id="patch_115">
    <path clip-path="url(#p88e78a7b1a)" d="M 378.29376 307.584 
L 379.72224 307.584 
L 379.72224 305.449897 
L 378.29376 305.449897 
z
" style="fill:#1f77b4;"/>
   </g>
   <g id="patch_116">
    <path clip-path="url(#p88e78a7b1a)" d="M 381.15072 307.584 
L 382.5792 307.584 
L 382.5792 305.588971 
L 381.15072 305.588971 
z
" style="fill:#1f77b4;"/>
   </g>
   <g id="patch_117">
    <path clip-path="url(#p88e78a7b1a)" d="M 384.00768 307.584 
L 385.43616 307.584 
L 385.43616 304.33454 
L 384.00768 304.33454 
z
" style="fill:#1f77b4;"/>
   </g>
   <g id="patch_118">
    <path clip-path="url(#p88e78a7b1a)" d="M 386.86464 307.584 
L 388.29312 307.584 
L 388.29312 305.708705 
L 386.86464 305.708705 
z
" style="fill:#1f77b4;"/>
   </g>
   <g id="patch_119">
    <path clip-path="url(#p88e78a7b1a)" d="M 389.7216 307.584 
L 391.15008 307.584 
L 391.15008 305.479517 
L 389.7216 305.479517 
z
" style="fill:#1f77b4;"/>
   </g>
   <g id="patch_120">
    <path clip-path="url(#p88e78a7b1a)" d="M 392.57856 307.584 
L 394.00704 307.584 
L 394.00704 301.703651 
L 392.57856 301.703651 
z
" style="fill:#1f77b4;"/>
   </g>
   <g id="patch_121">
    <path clip-path="url(#p88e78a7b1a)" d="M 395.43552 307.584 
L 396.864 307.584 
L 396.864 307.076199 
L 395.43552 307.076199 
z
" style="fill:#1f77b4;"/>
   </g>
   <g id="patch_122">
    <path clip-path="url(#p88e78a7b1a)" d="M 398.29248 307.584 
L 399.72096 307.584 
L 399.72096 305.41891 
L 398.29248 305.41891 
z
" style="fill:#1f77b4;"/>
   </g>
   <g id="patch_123">
    <path clip-path="url(#p88e78a7b1a)" d="M 401.14944 307.584 
L 402.57792 307.584 
L 402.57792 304.874536 
L 401.14944 304.874536 
z
" style="fill:#1f77b4;"/>
   </g>
   <g id="patch_124">
    <path clip-path="url(#p88e78a7b1a)" d="M 404.0064 307.584 
L 405.43488 307.584 
L 405.43488 305.326002 
L 404.0064 305.326002 
z
" style="fill:#1f77b4;"/>
   </g>
   <g id="patch_125">
    <path clip-path="url(#p88e78a7b1a)" d="M 406.86336 307.584 
L 408.29184 307.584 
L 408.29184 301.356538 
L 406.86336 301.356538 
z
" style="fill:#1f77b4;"/>
   </g>
   <g id="patch_126">
    <path clip-path="url(#p88e78a7b1a)" d="M 409.72032 307.584 
L 411.1488 307.584 
L 411.1488 307.049815 
L 409.72032 307.049815 
z
" style="fill:#1f77b4;"/>
   </g>
   <g id="patch_127">
    <path clip-path="url(#p88e78a7b1a)" d="M 412.57728 307.584 
L 414.00576 307.584 
L 414.00576 304.75019 
L 412.57728 304.75019 
z
" style="fill:#1f77b4;"/>
   </g>
   <g id="patch_128">
    <path clip-path="url(#p88e78a7b1a)" d="M 58.31424 304.498129 
L 59.74272 304.498129 
L 59.74272 294.363104 
L 58.31424 294.363104 
z
" style="fill:#ff7f0e;"/>
   </g>
   <g id="patch_129">
    <path clip-path="url(#p88e78a7b1a)" d="M 61.1712 305.07564 
L 62.59968 305.07564 
L 62.59968 302.7529 
L 61.1712 302.7529 
z
" style="fill:#ff7f0e;"/>
   </g>
   <g id="patch_130">
    <path clip-path="url(#p88e78a7b1a)" d="M 64.02816 306.166752 
L 65.45664 306.166752 
L 65.45664 264.547492 
L 64.02816 264.547492 
z
" style="fill:#ff7f0e;"/>
   </g>
   <g id="patch_131">
    <path clip-path="url(#p88e78a7b1a)" d="M 66.88512 306.585024 
L 68.3136 306.585024 
L 68.3136 297.595244 
L 66.88512 297.595244 
z
" style="fill:#ff7f0e;"/>
   </g>
   <g id="patch_132">
    <path clip-path="url(#p88e78a7b1a)" d="M 69.74208 303.038273 
L 71.17056 303.038273 
L 71.17056 196.812055 
L 69.74208 196.812055 
z
" style="fill:#ff7f0e;"/>
   </g>
   <g id="patch_133">
    <path clip-path="url(#p88e78a7b1a)" d="M 72.59904 306.567869 
L 74.02752 306.567869 
L 74.02752 305.949086 
L 72.59904 305.949086 
z
" style="fill:#ff7f0e;"/>
   </g>
   <g id="patch_134">
    <path clip-path="url(#p88e78a7b1a)" d="M 75.456 303.918065 
L 76.88448 303.918065 
L 76.88448 299.05173 
L 75.456 299.05173 
z
" style="fill:#ff7f0e;"/>
   </g>
   <g id="patch_135">
    <path clip-path="url(#p88e78a7b1a)" d="M 78.31296 305.971803 
L 79.74144 305.971803 
L 79.74144 300.916932 
L 78.31296 300.916932 
z
" style="fill:#ff7f0e;"/>
   </g>
   <g id="patch_136">
    <path clip-path="url(#p88e78a7b1a)" d="M 81.16992 305.660793 
L 82.5984 305.660793 
L 82.5984 207.522994 
L 81.16992 207.522994 
z
" style="fill:#ff7f0e;"/>
   </g>
   <g id="patch_137">
    <path clip-path="url(#p88e78a7b1a)" d="M 84.02688 304.293897 
L 85.45536 304.293897 
L 85.45536 279.214729 
L 84.02688 279.214729 
z
" style="fill:#ff7f0e;"/>
   </g>
   <g id="patch_138">
    <path clip-path="url(#p88e78a7b1a)" d="M 86.88384 305.966831 
L 88.31232 305.966831 
L 88.31232 302.953586 
L 86.88384 302.953586 
z
" style="fill:#ff7f0e;"/>
   </g>
   <g id="patch_139">
    <path clip-path="url(#p88e78a7b1a)" d="M 89.7408 304.456306 
L 91.16928 304.456306 
L 91.16928 297.076134 
L 89.7408 297.076134 
z
" style="fill:#ff7f0e;"/>
   </g>
   <g id="patch_140">
    <path clip-path="url(#p88e78a7b1a)" d="M 92.59776 307.38262 
L 94.02624 307.38262 
L 94.02624 307.271918 
L 92.59776 307.271918 
z
" style="fill:#ff7f0e;"/>
   </g>
   <g id="patch_141">
    <path clip-path="url(#p88e78a7b1a)" d="M 95.45472 305.270526 
L 96.8832 305.270526 
L 96.8832 298.467424 
L 95.45472 298.467424 
z
" style="fill:#ff7f0e;"/>
   </g>
   <g id="patch_142">
    <path clip-path="url(#p88e78a7b1a)" d="M 98.31168 306.224325 
L 99.74016 306.224325 
L 99.74016 302.889576 
L 98.31168 302.889576 
z
" style="fill:#ff7f0e;"/>
   </g>
   <g id="patch_143">
    <path clip-path="url(#p88e78a7b1a)" d="M 101.16864 305.766188 
L 102.59712 305.766188 
L 102.59712 249.924044 
L 101.16864 249.924044 
z
" style="fill:#ff7f0e;"/>
   </g>
   <g id="patch_144">
    <path clip-path="url(#p88e78a7b1a)" d="M 104.0256 306.939404 
L 105.45408 306.939404 
L 105.45408 231.35163 
L 104.0256 231.35163 
z
" style="fill:#ff7f0e;"/>
   </g>
   <g id="patch_145">
    <path clip-path="url(#p88e78a7b1a)" d="M 106.88256 306.669269 
L 108.31104 306.669269 
L 108.31104 302.957853 
L 106.88256 302.957853 
z
" style="fill:#ff7f0e;"/>
   </g>
   <g id="patch_146">
    <path clip-path="url(#p88e78a7b1a)" d="M 109.73952 306.493376 
L 111.168 306.493376 
L 111.168 303.365474 
L 109.73952 303.365474 
z
" style="fill:#ff7f0e;"/>
   </g>
   <g id="patch_147">
    <path clip-path="url(#p88e78a7b1a)" d="M 112.59648 304.322663 
L 114.02496 304.322663 
L 114.02496 262.488703 
L 112.59648 262.488703 
z
" style="fill:#ff7f0e;"/>
   </g>
   <g id="patch_148">
    <path clip-path="url(#p88e78a7b1a)" d="M 115.45344 305.302732 
L 116.88192 305.302732 
L 116.88192 231.362718 
L 115.45344 231.362718 
z
" style="fill:#ff7f0e;"/>
   </g>
   <g id="patch_149">
    <path clip-path="url(#p88e78a7b1a)" d="M 118.3104 305.902975 
L 119.73888 305.902975 
L 119.73888 300.197002 
L 118.3104 300.197002 
z
" style="fill:#ff7f0e;"/>
   </g>
   <g id="patch_150">
    <path clip-path="url(#p88e78a7b1a)" d="M 121.16736 305.176165 
L 122.59584 305.176165 
L 122.59584 297.349786 
L 121.16736 297.349786 
z
" style="fill:#ff7f0e;"/>
   </g>
   <g id="patch_151">
    <path clip-path="url(#p88e78a7b1a)" d="M 124.02432 306.997691 
L 125.4528 306.997691 
L 125.4528 268.651362 
L 124.02432 268.651362 
z
" style="fill:#ff7f0e;"/>
   </g>
   <g id="patch_152">
    <path clip-path="url(#p88e78a7b1a)" d="M 126.88128 305.804649 
L 128.30976 305.804649 
L 128.30976 299.234256 
L 126.88128 299.234256 
z
" style="fill:#ff7f0e;"/>
   </g>
   <g id="patch_153">
    <path clip-path="url(#p88e78a7b1a)" d="M 129.73824 305.553506 
L 131.16672 305.553506 
L 131.16672 293.341855 
L 129.73824 293.341855 
z
" style="fill:#ff7f0e;"/>
   </g>
   <g id="patch_154">
    <path clip-path="url(#p88e78a7b1a)" d="M 132.5952 304.859355 
L 134.02368 304.859355 
L 134.02368 270.064603 
L 132.5952 270.064603 
z
" style="fill:#ff7f0e;"/>
   </g>
   <g id="patch_155">
    <path clip-path="url(#p88e78a7b1a)" d="M 135.45216 306.832807 
L 136.88064 306.832807 
L 136.88064 306.313048 
L 135.45216 306.313048 
z
" style="fill:#ff7f0e;"/>
   </g>
   <g id="patch_156">
    <path clip-path="url(#p88e78a7b1a)" d="M 138.30912 305.929261 
L 139.7376 305.929261 
L 139.7376 299.036847 
L 138.30912 299.036847 
z
" style="fill:#ff7f0e;"/>
   </g>
   <g id="patch_157">
    <path clip-path="url(#p88e78a7b1a)" d="M 141.16608 306.158528 
L 142.59456 306.158528 
L 142.59456 305.224356 
L 141.16608 305.224356 
z
" style="fill:#ff7f0e;"/>
   </g>
   <g id="patch_158">
    <path clip-path="url(#p88e78a7b1a)" d="M 144.02304 306.462416 
L 145.45152 306.462416 
L 145.45152 305.804598 
L 144.02304 305.804598 
z
" style="fill:#ff7f0e;"/>
   </g>
   <g id="patch_159">
    <path clip-path="url(#p88e78a7b1a)" d="M 146.88 305.992387 
L 148.30848 305.992387 
L 148.30848 281.492766 
L 146.88 281.492766 
z
" style="fill:#ff7f0e;"/>
   </g>
   <g id="patch_160">
    <path clip-path="url(#p88e78a7b1a)" d="M 149.73696 304.730536 
L 151.16544 304.730536 
L 151.16544 293.763106 
L 149.73696 293.763106 
z
" style="fill:#ff7f0e;"/>
   </g>
   <g id="patch_161">
    <path clip-path="url(#p88e78a7b1a)" d="M 152.59392 306.225873 
L 154.0224 306.225873 
L 154.0224 304.990226 
L 152.59392 304.990226 
z
" style="fill:#ff7f0e;"/>
   </g>
   <g id="patch_162">
    <path clip-path="url(#p88e78a7b1a)" d="M 155.45088 306.964398 
L 156.87936 306.964398 
L 156.87936 306.490246 
L 155.45088 306.490246 
z
" style="fill:#ff7f0e;"/>
   </g>
   <g id="patch_163">
    <path clip-path="url(#p88e78a7b1a)" d="M 158.30784 306.121627 
L 159.73632 306.121627 
L 159.73632 231.487333 
L 158.30784 231.487333 
z
" style="fill:#ff7f0e;"/>
   </g>
   <g id="patch_164">
    <path clip-path="url(#p88e78a7b1a)" d="M 161.1648 306.37552 
L 162.59328 306.37552 
L 162.59328 303.521485 
L 161.1648 303.521485 
z
" style="fill:#ff7f0e;"/>
   </g>
   <g id="patch_165">
    <path clip-path="url(#p88e78a7b1a)" d="M 164.02176 307.031504 
L 165.45024 307.031504 
L 165.45024 306.6975 
L 164.02176 306.6975 
z
" style="fill:#ff7f0e;"/>
   </g>
   <g id="patch_166">
    <path clip-path="url(#p88e78a7b1a)" d="M 166.87872 306.528186 
L 168.3072 306.528186 
L 168.3072 305.810636 
L 166.87872 305.810636 
z
" style="fill:#ff7f0e;"/>
   </g>
   <g id="patch_167">
    <path clip-path="url(#p88e78a7b1a)" d="M 169.73568 306.294962 
L 171.16416 306.294962 
L 171.16416 278.408904 
L 169.73568 278.408904 
z
" style="fill:#ff7f0e;"/>
   </g>
   <g id="patch_168">
    <path clip-path="url(#p88e78a7b1a)" d="M 172.59264 303.618901 
L 174.02112 303.618901 
L 174.02112 135.209752 
L 172.59264 135.209752 
z
" style="fill:#ff7f0e;"/>
   </g>
   <g id="patch_169">
    <path clip-path="url(#p88e78a7b1a)" d="M 175.4496 306.807812 
L 176.87808 306.807812 
L 176.87808 305.810986 
L 175.4496 305.810986 
z
" style="fill:#ff7f0e;"/>
   </g>
   <g id="patch_170">
    <path clip-path="url(#p88e78a7b1a)" d="M 178.30656 305.956086 
L 179.73504 305.956086 
L 179.73504 304.923824 
L 178.30656 304.923824 
z
" style="fill:#ff7f0e;"/>
   </g>
   <g id="patch_171">
    <path clip-path="url(#p88e78a7b1a)" d="M 181.16352 306.068727 
L 182.592 306.068727 
L 182.592 260.736713 
L 181.16352 260.736713 
z
" style="fill:#ff7f0e;"/>
   </g>
   <g id="patch_172">
    <path clip-path="url(#p88e78a7b1a)" d="M 184.02048 302.193899 
L 185.44896 302.193899 
L 185.44896 282.3222 
L 184.02048 282.3222 
z
" style="fill:#ff7f0e;"/>
   </g>
   <g id="patch_173">
    <path clip-path="url(#p88e78a7b1a)" d="M 186.87744 305.885175 
L 188.30592 305.885175 
L 188.30592 264.609236 
L 186.87744 264.609236 
z
" style="fill:#ff7f0e;"/>
   </g>
   <g id="patch_174">
    <path clip-path="url(#p88e78a7b1a)" d="M 189.7344 307.53573 
L 191.16288 307.53573 
L 191.16288 306.698175 
L 189.7344 306.698175 
z
" style="fill:#ff7f0e;"/>
   </g>
   <g id="patch_175">
    <path clip-path="url(#p88e78a7b1a)" d="M 192.59136 298.553818 
L 194.01984 298.553818 
L 194.01984 242.471529 
L 192.59136 242.471529 
z
" style="fill:#ff7f0e;"/>
   </g>
   <g id="patch_176">
    <path clip-path="url(#p88e78a7b1a)" d="M 195.44832 304.748309 
L 196.8768 304.748309 
L 196.8768 273.432795 
L 195.44832 273.432795 
z
" style="fill:#ff7f0e;"/>
   </g>
   <g id="patch_177">
    <path clip-path="url(#p88e78a7b1a)" d="M 198.30528 306.607876 
L 199.73376 306.607876 
L 199.73376 305.003797 
L 198.30528 305.003797 
z
" style="fill:#ff7f0e;"/>
   </g>
   <g id="patch_178">
    <path clip-path="url(#p88e78a7b1a)" d="M 201.16224 306.644257 
L 202.59072 306.644257 
L 202.59072 304.037807 
L 201.16224 304.037807 
z
" style="fill:#ff7f0e;"/>
   </g>
   <g id="patch_179">
    <path clip-path="url(#p88e78a7b1a)" d="M 204.0192 307.112604 
L 205.44768 307.112604 
L 205.44768 306.943274 
L 204.0192 306.943274 
z
" style="fill:#ff7f0e;"/>
   </g>
   <g id="patch_180">
    <path clip-path="url(#p88e78a7b1a)" d="M 206.87616 306.447331 
L 208.30464 306.447331 
L 208.30464 300.492582 
L 206.87616 300.492582 
z
" style="fill:#ff7f0e;"/>
   </g>
   <g id="patch_181">
    <path clip-path="url(#p88e78a7b1a)" d="M 209.73312 305.712264 
L 211.1616 305.712264 
L 211.1616 300.818165 
L 209.73312 300.818165 
z
" style="fill:#ff7f0e;"/>
   </g>
   <g id="patch_182">
    <path clip-path="url(#p88e78a7b1a)" d="M 212.59008 306.35853 
L 214.01856 306.35853 
L 214.01856 291.86489 
L 212.59008 291.86489 
z
" style="fill:#ff7f0e;"/>
   </g>
   <g id="patch_183">
    <path clip-path="url(#p88e78a7b1a)" d="M 215.44704 304.733103 
L 216.87552 304.733103 
L 216.87552 272.624613 
L 215.44704 272.624613 
z
" style="fill:#ff7f0e;"/>
   </g>
   <g id="patch_184">
    <path clip-path="url(#p88e78a7b1a)" d="M 218.304 305.640991 
L 219.73248 305.640991 
L 219.73248 212.580414 
L 218.304 212.580414 
z
" style="fill:#ff7f0e;"/>
   </g>
   <g id="patch_185">
    <path clip-path="url(#p88e78a7b1a)" d="M 221.16096 306.307465 
L 222.58944 306.307465 
L 222.58944 305.177725 
L 221.16096 305.177725 
z
" style="fill:#ff7f0e;"/>
   </g>
   <g id="patch_186">
    <path clip-path="url(#p88e78a7b1a)" d="M 224.01792 307.062227 
L 225.4464 307.062227 
L 225.4464 306.145451 
L 224.01792 306.145451 
z
" style="fill:#ff7f0e;"/>
   </g>
   <g id="patch_187">
    <path clip-path="url(#p88e78a7b1a)" d="M 226.87488 306.378731 
L 228.30336 306.378731 
L 228.30336 295.885666 
L 226.87488 295.885666 
z
" style="fill:#ff7f0e;"/>
   </g>
   <g id="patch_188">
    <path clip-path="url(#p88e78a7b1a)" d="M 229.73184 306.851141 
L 231.16032 306.851141 
L 231.16032 305.617055 
L 229.73184 305.617055 
z
" style="fill:#ff7f0e;"/>
   </g>
   <g id="patch_189">
    <path clip-path="url(#p88e78a7b1a)" d="M 232.5888 305.63032 
L 234.01728 305.63032 
L 234.01728 205.367165 
L 232.5888 205.367165 
z
" style="fill:#ff7f0e;"/>
   </g>
   <g id="patch_190">
    <path clip-path="url(#p88e78a7b1a)" d="M 235.44576 304.90094 
L 236.87424 304.90094 
L 236.87424 295.832479 
L 235.44576 295.832479 
z
" style="fill:#ff7f0e;"/>
   </g>
   <g id="patch_191">
    <path clip-path="url(#p88e78a7b1a)" d="M 238.30272 306.171244 
L 239.7312 306.171244 
L 239.7312 303.113413 
L 238.30272 303.113413 
z
" style="fill:#ff7f0e;"/>
   </g>
   <g id="patch_192">
    <path clip-path="url(#p88e78a7b1a)" d="M 241.15968 305.987241 
L 242.58816 305.987241 
L 242.58816 297.247554 
L 241.15968 297.247554 
z
" style="fill:#ff7f0e;"/>
   </g>
   <g id="patch_193">
    <path clip-path="url(#p88e78a7b1a)" d="M 244.01664 305.838418 
L 245.44512 305.838418 
L 245.44512 201.351172 
L 244.01664 201.351172 
z
" style="fill:#ff7f0e;"/>
   </g>
   <g id="patch_194">
    <path clip-path="url(#p88e78a7b1a)" d="M 246.8736 306.736663 
L 248.30208 306.736663 
L 248.30208 306.203782 
L 246.8736 306.203782 
z
" style="fill:#ff7f0e;"/>
   </g>
   <g id="patch_195">
    <path clip-path="url(#p88e78a7b1a)" d="M 249.73056 304.547697 
L 251.15904 304.547697 
L 251.15904 287.561037 
L 249.73056 287.561037 
z
" style="fill:#ff7f0e;"/>
   </g>
   <g id="patch_196">
    <path clip-path="url(#p88e78a7b1a)" d="M 252.58752 306.480333 
L 254.016 306.480333 
L 254.016 305.368928 
L 252.58752 305.368928 
z
" style="fill:#ff7f0e;"/>
   </g>
   <g id="patch_197">
    <path clip-path="url(#p88e78a7b1a)" d="M 255.44448 306.019775 
L 256.87296 306.019775 
L 256.87296 304.39843 
L 255.44448 304.39843 
z
" style="fill:#ff7f0e;"/>
   </g>
   <g id="patch_198">
    <path clip-path="url(#p88e78a7b1a)" d="M 258.30144 305.728761 
L 259.72992 305.728761 
L 259.72992 297.069122 
L 258.30144 297.069122 
z
" style="fill:#ff7f0e;"/>
   </g>
   <g id="patch_199">
    <path clip-path="url(#p88e78a7b1a)" d="M 261.1584 306.902454 
L 262.58688 306.902454 
L 262.58688 306.073593 
L 261.1584 306.073593 
z
" style="fill:#ff7f0e;"/>
   </g>
   <g id="patch_200">
    <path clip-path="url(#p88e78a7b1a)" d="M 264.01536 306.85546 
L 265.44384 306.85546 
L 265.44384 305.251752 
L 264.01536 305.251752 
z
" style="fill:#ff7f0e;"/>
   </g>
   <g id="patch_201">
    <path clip-path="url(#p88e78a7b1a)" d="M 266.87232 305.61755 
L 268.3008 305.61755 
L 268.3008 299.80765 
L 266.87232 299.80765 
z
" style="fill:#ff7f0e;"/>
   </g>
   <g id="patch_202">
    <path clip-path="url(#p88e78a7b1a)" d="M 269.72928 306.437869 
L 271.15776 306.437869 
L 271.15776 302.762809 
L 269.72928 302.762809 
z
" style="fill:#ff7f0e;"/>
   </g>
   <g id="patch_203">
    <path clip-path="url(#p88e78a7b1a)" d="M 272.58624 305.387702 
L 274.01472 305.387702 
L 274.01472 298.941941 
L 272.58624 298.941941 
z
" style="fill:#ff7f0e;"/>
   </g>
   <g id="patch_204">
    <path clip-path="url(#p88e78a7b1a)" d="M 275.4432 306.173772 
L 276.87168 306.173772 
L 276.87168 165.90849 
L 275.4432 165.90849 
z
" style="fill:#ff7f0e;"/>
   </g>
   <g id="patch_205">
    <path clip-path="url(#p88e78a7b1a)" d="M 278.30016 305.858472 
L 279.72864 305.858472 
L 279.72864 301.062711 
L 278.30016 301.062711 
z
" style="fill:#ff7f0e;"/>
   </g>
   <g id="patch_206">
    <path clip-path="url(#p88e78a7b1a)" d="M 281.15712 305.052357 
L 282.5856 305.052357 
L 282.5856 226.337245 
L 281.15712 226.337245 
z
" style="fill:#ff7f0e;"/>
   </g>
   <g id="patch_207">
    <path clip-path="url(#p88e78a7b1a)" d="M 284.01408 306.314333 
L 285.44256 306.314333 
L 285.44256 227.033561 
L 284.01408 227.033561 
z
" style="fill:#ff7f0e;"/>
   </g>
   <g id="patch_208">
    <path clip-path="url(#p88e78a7b1a)" d="M 286.87104 305.033219 
L 288.29952 305.033219 
L 288.29952 285.437533 
L 286.87104 285.437533 
z
" style="fill:#ff7f0e;"/>
   </g>
   <g id="patch_209">
    <path clip-path="url(#p88e78a7b1a)" d="M 289.728 305.734212 
L 291.15648 305.734212 
L 291.15648 302.393281 
L 289.728 302.393281 
z
" style="fill:#ff7f0e;"/>
   </g>
   <g id="patch_210">
    <path clip-path="url(#p88e78a7b1a)" d="M 292.58496 305.922081 
L 294.01344 305.922081 
L 294.01344 301.006588 
L 292.58496 301.006588 
z
" style="fill:#ff7f0e;"/>
   </g>
   <g id="patch_211">
    <path clip-path="url(#p88e78a7b1a)" d="M 295.44192 305.377219 
L 296.8704 305.377219 
L 296.8704 195.002356 
L 295.44192 195.002356 
z
" style="fill:#ff7f0e;"/>
   </g>
   <g id="patch_212">
    <path clip-path="url(#p88e78a7b1a)" d="M 298.29888 307.096176 
L 299.72736 307.096176 
L 299.72736 305.438453 
L 298.29888 305.438453 
z
" style="fill:#ff7f0e;"/>
   </g>
   <g id="patch_213">
    <path clip-path="url(#p88e78a7b1a)" d="M 301.15584 303.691169 
L 302.58432 303.691169 
L 302.58432 86.574444 
L 301.15584 86.574444 
z
" style="fill:#ff7f0e;"/>
   </g>
   <g id="patch_214">
    <path clip-path="url(#p88e78a7b1a)" d="M 304.0128 304.731056 
L 305.44128 304.731056 
L 305.44128 194.276411 
L 304.0128 194.276411 
z
" style="fill:#ff7f0e;"/>
   </g>
   <g id="patch_215">
    <path clip-path="url(#p88e78a7b1a)" d="M 306.86976 307.134691 
L 308.29824 307.134691 
L 308.29824 306.851595 
L 306.86976 306.851595 
z
" style="fill:#ff7f0e;"/>
   </g>
   <g id="patch_216">
    <path clip-path="url(#p88e78a7b1a)" d="M 309.72672 305.370316 
L 311.1552 305.370316 
L 311.1552 150.713536 
L 309.72672 150.713536 
z
" style="fill:#ff7f0e;"/>
   </g>
   <g id="patch_217">
    <path clip-path="url(#p88e78a7b1a)" d="M 312.58368 305.217101 
L 314.01216 305.217101 
L 314.01216 294.331792 
L 312.58368 294.331792 
z
" style="fill:#ff7f0e;"/>
   </g>
   <g id="patch_218">
    <path clip-path="url(#p88e78a7b1a)" d="M 315.44064 306.07086 
L 316.86912 306.07086 
L 316.86912 303.152594 
L 315.44064 303.152594 
z
" style="fill:#ff7f0e;"/>
   </g>
   <g id="patch_219">
    <path clip-path="url(#p88e78a7b1a)" d="M 318.2976 306.214023 
L 319.72608 306.214023 
L 319.72608 250.092522 
L 318.2976 250.092522 
z
" style="fill:#ff7f0e;"/>
   </g>
   <g id="patch_220">
    <path clip-path="url(#p88e78a7b1a)" d="M 321.15456 306.160799 
L 322.58304 306.160799 
L 322.58304 294.087497 
L 321.15456 294.087497 
z
" style="fill:#ff7f0e;"/>
   </g>
   <g id="patch_221">
    <path clip-path="url(#p88e78a7b1a)" d="M 324.01152 306.713069 
L 325.44 306.713069 
L 325.44 241.613975 
L 324.01152 241.613975 
z
" style="fill:#ff7f0e;"/>
   </g>
   <g id="patch_222">
    <path clip-path="url(#p88e78a7b1a)" d="M 326.86848 305.27826 
L 328.29696 305.27826 
L 328.29696 103.152449 
L 326.86848 103.152449 
z
" style="fill:#ff7f0e;"/>
   </g>
   <g id="patch_223">
    <path clip-path="url(#p88e78a7b1a)" d="M 329.72544 305.654548 
L 331.15392 305.654548 
L 331.15392 182.727017 
L 329.72544 182.727017 
z
" style="fill:#ff7f0e;"/>
   </g>
   <g id="patch_224">
    <path clip-path="url(#p88e78a7b1a)" d="M 332.5824 306.016581 
L 334.01088 306.016581 
L 334.01088 296.274193 
L 332.5824 296.274193 
z
" style="fill:#ff7f0e;"/>
   </g>
   <g id="patch_225">
    <path clip-path="url(#p88e78a7b1a)" d="M 335.43936 305.792301 
L 336.86784 305.792301 
L 336.86784 304.318842 
L 335.43936 304.318842 
z
" style="fill:#ff7f0e;"/>
   </g>
   <g id="patch_226">
    <path clip-path="url(#p88e78a7b1a)" d="M 338.29632 304.094363 
L 339.7248 304.094363 
L 339.7248 298.345272 
L 338.29632 298.345272 
z
" style="fill:#ff7f0e;"/>
   </g>
   <g id="patch_227">
    <path clip-path="url(#p88e78a7b1a)" d="M 341.15328 306.433447 
L 342.58176 306.433447 
L 342.58176 41.472 
L 341.15328 41.472 
z
" style="fill:#ff7f0e;"/>
   </g>
   <g id="patch_228">
    <path clip-path="url(#p88e78a7b1a)" d="M 344.01024 306.482186 
L 345.43872 306.482186 
L 345.43872 305.721162 
L 344.01024 305.721162 
z
" style="fill:#ff7f0e;"/>
   </g>
   <g id="patch_229">
    <path clip-path="url(#p88e78a7b1a)" d="M 346.8672 307.059103 
L 348.29568 307.059103 
L 348.29568 306.697208 
L 346.8672 306.697208 
z
" style="fill:#ff7f0e;"/>
   </g>
   <g id="patch_230">
    <path clip-path="url(#p88e78a7b1a)" d="M 349.72416 306.818102 
L 351.15264 306.818102 
L 351.15264 305.169897 
L 349.72416 305.169897 
z
" style="fill:#ff7f0e;"/>
   </g>
   <g id="patch_231">
    <path clip-path="url(#p88e78a7b1a)" d="M 352.58112 305.701836 
L 354.0096 305.701836 
L 354.0096 299.121195 
L 352.58112 299.121195 
z
" style="fill:#ff7f0e;"/>
   </g>
   <g id="patch_232">
    <path clip-path="url(#p88e78a7b1a)" d="M 355.43808 304.83008 
L 356.86656 304.83008 
L 356.86656 272.632564 
L 355.43808 272.632564 
z
" style="fill:#ff7f0e;"/>
   </g>
   <g id="patch_233">
    <path clip-path="url(#p88e78a7b1a)" d="M 358.29504 304.001156 
L 359.72352 304.001156 
L 359.72352 213.598898 
L 358.29504 213.598898 
z
" style="fill:#ff7f0e;"/>
   </g>
   <g id="patch_234">
    <path clip-path="url(#p88e78a7b1a)" d="M 361.152 304.602049 
L 362.58048 304.602049 
L 362.58048 206.981443 
L 361.152 206.981443 
z
" style="fill:#ff7f0e;"/>
   </g>
   <g id="patch_235">
    <path clip-path="url(#p88e78a7b1a)" d="M 364.00896 307.058375 
L 365.43744 307.058375 
L 365.43744 305.925283 
L 364.00896 305.925283 
z
" style="fill:#ff7f0e;"/>
   </g>
   <g id="patch_236">
    <path clip-path="url(#p88e78a7b1a)" d="M 366.86592 305.653589 
L 368.2944 305.653589 
L 368.2944 208.963099 
L 366.86592 208.963099 
z
" style="fill:#ff7f0e;"/>
   </g>
   <g id="patch_237">
    <path clip-path="url(#p88e78a7b1a)" d="M 369.72288 307.265287 
L 371.15136 307.265287 
L 371.15136 211.544157 
L 369.72288 211.544157 
z
" style="fill:#ff7f0e;"/>
   </g>
   <g id="patch_238">
    <path clip-path="url(#p88e78a7b1a)" d="M 372.57984 306.416215 
L 374.00832 306.416215 
L 374.00832 254.79827 
L 372.57984 254.79827 
z
" style="fill:#ff7f0e;"/>
   </g>
   <g id="patch_239">
    <path clip-path="url(#p88e78a7b1a)" d="M 375.4368 304.14731 
L 376.86528 304.14731 
L 376.86528 296.485436 
L 375.4368 296.485436 
z
" style="fill:#ff7f0e;"/>
   </g>
   <g id="patch_240">
    <path clip-path="url(#p88e78a7b1a)" d="M 378.29376 305.449897 
L 379.72224 305.449897 
L 379.72224 291.651398 
L 378.29376 291.651398 
z
" style="fill:#ff7f0e;"/>
   </g>
   <g id="patch_241">
    <path clip-path="url(#p88e78a7b1a)" d="M 381.15072 305.588971 
L 382.5792 305.588971 
L 382.5792 254.77944 
L 381.15072 254.77944 
z
" style="fill:#ff7f0e;"/>
   </g>
   <g id="patch_242">
    <path clip-path="url(#p88e78a7b1a)" d="M 384.00768 304.33454 
L 385.43616 304.33454 
L 385.43616 253.44374 
L 384.00768 253.44374 
z
" style="fill:#ff7f0e;"/>
   </g>
   <g id="patch_243">
    <path clip-path="url(#p88e78a7b1a)" d="M 386.86464 305.708705 
L 388.29312 305.708705 
L 388.29312 206.274844 
L 386.86464 206.274844 
z
" style="fill:#ff7f0e;"/>
   </g>
   <g id="patch_244">
    <path clip-path="url(#p88e78a7b1a)" d="M 389.7216 305.479517 
L 391.15008 305.479517 
L 391.15008 226.349261 
L 389.7216 226.349261 
z
" style="fill:#ff7f0e;"/>
   </g>
   <g id="patch_245">
    <path clip-path="url(#p88e78a7b1a)" d="M 392.57856 301.703651 
L 394.00704 301.703651 
L 394.00704 285.452835 
L 392.57856 285.452835 
z
" style="fill:#ff7f0e;"/>
   </g>
   <g id="patch_246">
    <path clip-path="url(#p88e78a7b1a)" d="M 395.43552 307.076199 
L 396.864 307.076199 
L 396.864 306.697342 
L 395.43552 306.697342 
z
" style="fill:#ff7f0e;"/>
   </g>
   <g id="patch_247">
    <path clip-path="url(#p88e78a7b1a)" d="M 398.29248 305.41891 
L 399.72096 305.41891 
L 399.72096 187.5091 
L 398.29248 187.5091 
z
" style="fill:#ff7f0e;"/>
   </g>
   <g id="patch_248">
    <path clip-path="url(#p88e78a7b1a)" d="M 401.14944 304.874536 
L 402.57792 304.874536 
L 402.57792 298.507801 
L 401.14944 298.507801 
z
" style="fill:#ff7f0e;"/>
   </g>
   <g id="patch_249">
    <path clip-path="url(#p88e78a7b1a)" d="M 404.0064 305.326002 
L 405.43488 305.326002 
L 405.43488 292.853008 
L 404.0064 292.853008 
z
" style="fill:#ff7f0e;"/>
   </g>
   <g id="patch_250">
    <path clip-path="url(#p88e78a7b1a)" d="M 406.86336 301.356538 
L 408.29184 301.356538 
L 408.29184 276.443568 
L 406.86336 276.443568 
z
" style="fill:#ff7f0e;"/>
   </g>
   <g id="patch_251">
    <path clip-path="url(#p88e78a7b1a)" d="M 409.72032 307.049815 
L 411.1488 307.049815 
L 411.1488 304.923739 
L 409.72032 304.923739 
z
" style="fill:#ff7f0e;"/>
   </g>
   <g id="patch_252">
    <path clip-path="url(#p88e78a7b1a)" d="M 412.57728 304.75019 
L 414.00576 304.75019 
L 414.00576 299.902142 
L 412.57728 299.902142 
z
" style="fill:#ff7f0e;"/>
   </g>
   <g id="matplotlib.axis_1">
    <g id="xtick_1">
     <g id="line2d_1">
      <defs>
       <path d="M 0 0 
L 0 3.5 
" id="mbf6f9e1664" style="stroke:#000000;stroke-width:0.8;"/>
      </defs>
      <g>
       <use style="stroke:#000000;stroke-width:0.8;" x="59.02848" xlink:href="#mbf6f9e1664" y="307.584"/>
      </g>
     </g>
     <g id="text_1">
      <!-- 0 -->
      <g transform="translate(61.787855 320.9465)rotate(-90)scale(0.1 -0.1)">
       <defs>
        <path d="M 2034 4250 
Q 1547 4250 1301 3770 
Q 1056 3291 1056 2328 
Q 1056 1369 1301 889 
Q 1547 409 2034 409 
Q 2525 409 2770 889 
Q 3016 1369 3016 2328 
Q 3016 3291 2770 3770 
Q 2525 4250 2034 4250 
z
M 2034 4750 
Q 2819 4750 3233 4129 
Q 3647 3509 3647 2328 
Q 3647 1150 3233 529 
Q 2819 -91 2034 -91 
Q 1250 -91 836 529 
Q 422 1150 422 2328 
Q 422 3509 836 4129 
Q 1250 4750 2034 4750 
z
" id="DejaVuSans-30" transform="scale(0.015625)"/>
       </defs>
       <use xlink:href="#DejaVuSans-30"/>
      </g>
     </g>
    </g>
    <g id="xtick_2">
     <g id="line2d_2">
      <g>
       <use style="stroke:#000000;stroke-width:0.8;" x="104.73984" xlink:href="#mbf6f9e1664" y="307.584"/>
      </g>
     </g>
     <g id="text_2">
      <!-- 16 -->
      <g transform="translate(107.499215 327.309)rotate(-90)scale(0.1 -0.1)">
       <defs>
        <path d="M 794 531 
L 1825 531 
L 1825 4091 
L 703 3866 
L 703 4441 
L 1819 4666 
L 2450 4666 
L 2450 531 
L 3481 531 
L 3481 0 
L 794 0 
L 794 531 
z
" id="DejaVuSans-31" transform="scale(0.015625)"/>
        <path d="M 2113 2584 
Q 1688 2584 1439 2293 
Q 1191 2003 1191 1497 
Q 1191 994 1439 701 
Q 1688 409 2113 409 
Q 2538 409 2786 701 
Q 3034 994 3034 1497 
Q 3034 2003 2786 2293 
Q 2538 2584 2113 2584 
z
M 3366 4563 
L 3366 3988 
Q 3128 4100 2886 4159 
Q 2644 4219 2406 4219 
Q 1781 4219 1451 3797 
Q 1122 3375 1075 2522 
Q 1259 2794 1537 2939 
Q 1816 3084 2150 3084 
Q 2853 3084 3261 2657 
Q 3669 2231 3669 1497 
Q 3669 778 3244 343 
Q 2819 -91 2113 -91 
Q 1303 -91 875 529 
Q 447 1150 447 2328 
Q 447 3434 972 4092 
Q 1497 4750 2381 4750 
Q 2619 4750 2861 4703 
Q 3103 4656 3366 4563 
z
" id="DejaVuSans-36" transform="scale(0.015625)"/>
       </defs>
       <use xlink:href="#DejaVuSans-31"/>
       <use x="63.623047" xlink:href="#DejaVuSans-36"/>
      </g>
     </g>
    </g>
    <g id="xtick_3">
     <g id="line2d_3">
      <g>
       <use style="stroke:#000000;stroke-width:0.8;" x="150.4512" xlink:href="#mbf6f9e1664" y="307.584"/>
      </g>
     </g>
     <g id="text_3">
      <!-- 33 -->
      <g transform="translate(153.210575 327.309)rotate(-90)scale(0.1 -0.1)">
       <defs>
        <path d="M 2597 2516 
Q 3050 2419 3304 2112 
Q 3559 1806 3559 1356 
Q 3559 666 3084 287 
Q 2609 -91 1734 -91 
Q 1441 -91 1130 -33 
Q 819 25 488 141 
L 488 750 
Q 750 597 1062 519 
Q 1375 441 1716 441 
Q 2309 441 2620 675 
Q 2931 909 2931 1356 
Q 2931 1769 2642 2001 
Q 2353 2234 1838 2234 
L 1294 2234 
L 1294 2753 
L 1863 2753 
Q 2328 2753 2575 2939 
Q 2822 3125 2822 3475 
Q 2822 3834 2567 4026 
Q 2313 4219 1838 4219 
Q 1578 4219 1281 4162 
Q 984 4106 628 3988 
L 628 4550 
Q 988 4650 1302 4700 
Q 1616 4750 1894 4750 
Q 2613 4750 3031 4423 
Q 3450 4097 3450 3541 
Q 3450 3153 3228 2886 
Q 3006 2619 2597 2516 
z
" id="DejaVuSans-33" transform="scale(0.015625)"/>
       </defs>
       <use xlink:href="#DejaVuSans-33"/>
       <use x="63.623047" xlink:href="#DejaVuSans-33"/>
      </g>
     </g>
    </g>
    <g id="xtick_4">
     <g id="line2d_4">
      <g>
       <use style="stroke:#000000;stroke-width:0.8;" x="196.16256" xlink:href="#mbf6f9e1664" y="307.584"/>
      </g>
     </g>
     <g id="text_4">
      <!-- 50 -->
      <g transform="translate(198.921935 327.309)rotate(-90)scale(0.1 -0.1)">
       <defs>
        <path d="M 691 4666 
L 3169 4666 
L 3169 4134 
L 1269 4134 
L 1269 2991 
Q 1406 3038 1543 3061 
Q 1681 3084 1819 3084 
Q 2600 3084 3056 2656 
Q 3513 2228 3513 1497 
Q 3513 744 3044 326 
Q 2575 -91 1722 -91 
Q 1428 -91 1123 -41 
Q 819 9 494 109 
L 494 744 
Q 775 591 1075 516 
Q 1375 441 1709 441 
Q 2250 441 2565 725 
Q 2881 1009 2881 1497 
Q 2881 1984 2565 2268 
Q 2250 2553 1709 2553 
Q 1456 2553 1204 2497 
Q 953 2441 691 2322 
L 691 4666 
z
" id="DejaVuSans-35" transform="scale(0.015625)"/>
       </defs>
       <use xlink:href="#DejaVuSans-35"/>
       <use x="63.623047" xlink:href="#DejaVuSans-30"/>
      </g>
     </g>
    </g>
    <g id="xtick_5">
     <g id="line2d_5">
      <g>
       <use style="stroke:#000000;stroke-width:0.8;" x="241.87392" xlink:href="#mbf6f9e1664" y="307.584"/>
      </g>
     </g>
     <g id="text_5">
      <!-- 66 -->
      <g transform="translate(244.633295 327.309)rotate(-90)scale(0.1 -0.1)">
       <use xlink:href="#DejaVuSans-36"/>
       <use x="63.623047" xlink:href="#DejaVuSans-36"/>
      </g>
     </g>
    </g>
    <g id="xtick_6">
     <g id="line2d_6">
      <g>
       <use style="stroke:#000000;stroke-width:0.8;" x="287.58528" xlink:href="#mbf6f9e1664" y="307.584"/>
      </g>
     </g>
     <g id="text_6">
      <!-- 83 -->
      <g transform="translate(290.344655 327.309)rotate(-90)scale(0.1 -0.1)">
       <defs>
        <path d="M 2034 2216 
Q 1584 2216 1326 1975 
Q 1069 1734 1069 1313 
Q 1069 891 1326 650 
Q 1584 409 2034 409 
Q 2484 409 2743 651 
Q 3003 894 3003 1313 
Q 3003 1734 2745 1975 
Q 2488 2216 2034 2216 
z
M 1403 2484 
Q 997 2584 770 2862 
Q 544 3141 544 3541 
Q 544 4100 942 4425 
Q 1341 4750 2034 4750 
Q 2731 4750 3128 4425 
Q 3525 4100 3525 3541 
Q 3525 3141 3298 2862 
Q 3072 2584 2669 2484 
Q 3125 2378 3379 2068 
Q 3634 1759 3634 1313 
Q 3634 634 3220 271 
Q 2806 -91 2034 -91 
Q 1263 -91 848 271 
Q 434 634 434 1313 
Q 434 1759 690 2068 
Q 947 2378 1403 2484 
z
M 1172 3481 
Q 1172 3119 1398 2916 
Q 1625 2713 2034 2713 
Q 2441 2713 2670 2916 
Q 2900 3119 2900 3481 
Q 2900 3844 2670 4047 
Q 2441 4250 2034 4250 
Q 1625 4250 1398 4047 
Q 1172 3844 1172 3481 
z
" id="DejaVuSans-38" transform="scale(0.015625)"/>
       </defs>
       <use xlink:href="#DejaVuSans-38"/>
       <use x="63.623047" xlink:href="#DejaVuSans-33"/>
      </g>
     </g>
    </g>
    <g id="xtick_7">
     <g id="line2d_7">
      <g>
       <use style="stroke:#000000;stroke-width:0.8;" x="333.29664" xlink:href="#mbf6f9e1664" y="307.584"/>
      </g>
     </g>
     <g id="text_7">
      <!-- 99 -->
      <g transform="translate(336.056015 327.309)rotate(-90)scale(0.1 -0.1)">
       <defs>
        <path d="M 703 97 
L 703 672 
Q 941 559 1184 500 
Q 1428 441 1663 441 
Q 2288 441 2617 861 
Q 2947 1281 2994 2138 
Q 2813 1869 2534 1725 
Q 2256 1581 1919 1581 
Q 1219 1581 811 2004 
Q 403 2428 403 3163 
Q 403 3881 828 4315 
Q 1253 4750 1959 4750 
Q 2769 4750 3195 4129 
Q 3622 3509 3622 2328 
Q 3622 1225 3098 567 
Q 2575 -91 1691 -91 
Q 1453 -91 1209 -44 
Q 966 3 703 97 
z
M 1959 2075 
Q 2384 2075 2632 2365 
Q 2881 2656 2881 3163 
Q 2881 3666 2632 3958 
Q 2384 4250 1959 4250 
Q 1534 4250 1286 3958 
Q 1038 3666 1038 3163 
Q 1038 2656 1286 2365 
Q 1534 2075 1959 2075 
z
" id="DejaVuSans-39" transform="scale(0.015625)"/>
       </defs>
       <use xlink:href="#DejaVuSans-39"/>
       <use x="63.623047" xlink:href="#DejaVuSans-39"/>
      </g>
     </g>
    </g>
    <g id="xtick_8">
     <g id="line2d_8">
      <g>
       <use style="stroke:#000000;stroke-width:0.8;" x="379.008" xlink:href="#mbf6f9e1664" y="307.584"/>
      </g>
     </g>
     <g id="text_8">
      <!-- 115 -->
      <g transform="translate(381.767375 333.6715)rotate(-90)scale(0.1 -0.1)">
       <use xlink:href="#DejaVuSans-31"/>
       <use x="63.623047" xlink:href="#DejaVuSans-31"/>
       <use x="127.246094" xlink:href="#DejaVuSans-35"/>
      </g>
     </g>
    </g>
    <g id="xtick_9">
     <g id="line2d_9">
      <g>
       <use style="stroke:#000000;stroke-width:0.8;" x="413.29152" xlink:href="#mbf6f9e1664" y="307.584"/>
      </g>
     </g>
     <g id="text_9">
      <!-- 127 -->
      <g transform="translate(416.050895 333.6715)rotate(-90)scale(0.1 -0.1)">
       <defs>
        <path d="M 1228 531 
L 3431 531 
L 3431 0 
L 469 0 
L 469 531 
Q 828 903 1448 1529 
Q 2069 2156 2228 2338 
Q 2531 2678 2651 2914 
Q 2772 3150 2772 3378 
Q 2772 3750 2511 3984 
Q 2250 4219 1831 4219 
Q 1534 4219 1204 4116 
Q 875 4013 500 3803 
L 500 4441 
Q 881 4594 1212 4672 
Q 1544 4750 1819 4750 
Q 2544 4750 2975 4387 
Q 3406 4025 3406 3419 
Q 3406 3131 3298 2873 
Q 3191 2616 2906 2266 
Q 2828 2175 2409 1742 
Q 1991 1309 1228 531 
z
" id="DejaVuSans-32" transform="scale(0.015625)"/>
        <path d="M 525 4666 
L 3525 4666 
L 3525 4397 
L 1831 0 
L 1172 0 
L 2766 4134 
L 525 4134 
L 525 4666 
z
" id="DejaVuSans-37" transform="scale(0.015625)"/>
       </defs>
       <use xlink:href="#DejaVuSans-31"/>
       <use x="63.623047" xlink:href="#DejaVuSans-32"/>
       <use x="127.246094" xlink:href="#DejaVuSans-37"/>
      </g>
     </g>
    </g>
    <g id="text_10">
     <!-- domain -->
     <g transform="translate(217.434219 345.269937)scale(0.1 -0.1)">
      <defs>
       <path d="M 2906 2969 
L 2906 4863 
L 3481 4863 
L 3481 0 
L 2906 0 
L 2906 525 
Q 2725 213 2448 61 
Q 2172 -91 1784 -91 
Q 1150 -91 751 415 
Q 353 922 353 1747 
Q 353 2572 751 3078 
Q 1150 3584 1784 3584 
Q 2172 3584 2448 3432 
Q 2725 3281 2906 2969 
z
M 947 1747 
Q 947 1113 1208 752 
Q 1469 391 1925 391 
Q 2381 391 2643 752 
Q 2906 1113 2906 1747 
Q 2906 2381 2643 2742 
Q 2381 3103 1925 3103 
Q 1469 3103 1208 2742 
Q 947 2381 947 1747 
z
" id="DejaVuSans-64" transform="scale(0.015625)"/>
       <path d="M 1959 3097 
Q 1497 3097 1228 2736 
Q 959 2375 959 1747 
Q 959 1119 1226 758 
Q 1494 397 1959 397 
Q 2419 397 2687 759 
Q 2956 1122 2956 1747 
Q 2956 2369 2687 2733 
Q 2419 3097 1959 3097 
z
M 1959 3584 
Q 2709 3584 3137 3096 
Q 3566 2609 3566 1747 
Q 3566 888 3137 398 
Q 2709 -91 1959 -91 
Q 1206 -91 779 398 
Q 353 888 353 1747 
Q 353 2609 779 3096 
Q 1206 3584 1959 3584 
z
" id="DejaVuSans-6f" transform="scale(0.015625)"/>
       <path d="M 3328 2828 
Q 3544 3216 3844 3400 
Q 4144 3584 4550 3584 
Q 5097 3584 5394 3201 
Q 5691 2819 5691 2113 
L 5691 0 
L 5113 0 
L 5113 2094 
Q 5113 2597 4934 2840 
Q 4756 3084 4391 3084 
Q 3944 3084 3684 2787 
Q 3425 2491 3425 1978 
L 3425 0 
L 2847 0 
L 2847 2094 
Q 2847 2600 2669 2842 
Q 2491 3084 2119 3084 
Q 1678 3084 1418 2786 
Q 1159 2488 1159 1978 
L 1159 0 
L 581 0 
L 581 3500 
L 1159 3500 
L 1159 2956 
Q 1356 3278 1631 3431 
Q 1906 3584 2284 3584 
Q 2666 3584 2933 3390 
Q 3200 3197 3328 2828 
z
" id="DejaVuSans-6d" transform="scale(0.015625)"/>
       <path d="M 2194 1759 
Q 1497 1759 1228 1600 
Q 959 1441 959 1056 
Q 959 750 1161 570 
Q 1363 391 1709 391 
Q 2188 391 2477 730 
Q 2766 1069 2766 1631 
L 2766 1759 
L 2194 1759 
z
M 3341 1997 
L 3341 0 
L 2766 0 
L 2766 531 
Q 2569 213 2275 61 
Q 1981 -91 1556 -91 
Q 1019 -91 701 211 
Q 384 513 384 1019 
Q 384 1609 779 1909 
Q 1175 2209 1959 2209 
L 2766 2209 
L 2766 2266 
Q 2766 2663 2505 2880 
Q 2244 3097 1772 3097 
Q 1472 3097 1187 3025 
Q 903 2953 641 2809 
L 641 3341 
Q 956 3463 1253 3523 
Q 1550 3584 1831 3584 
Q 2591 3584 2966 3190 
Q 3341 2797 3341 1997 
z
" id="DejaVuSans-61" transform="scale(0.015625)"/>
       <path d="M 603 3500 
L 1178 3500 
L 1178 0 
L 603 0 
L 603 3500 
z
M 603 4863 
L 1178 4863 
L 1178 4134 
L 603 4134 
L 603 4863 
z
" id="DejaVuSans-69" transform="scale(0.015625)"/>
       <path d="M 3513 2113 
L 3513 0 
L 2938 0 
L 2938 2094 
Q 2938 2591 2744 2837 
Q 2550 3084 2163 3084 
Q 1697 3084 1428 2787 
Q 1159 2491 1159 1978 
L 1159 0 
L 581 0 
L 581 3500 
L 1159 3500 
L 1159 2956 
Q 1366 3272 1645 3428 
Q 1925 3584 2291 3584 
Q 2894 3584 3203 3211 
Q 3513 2838 3513 2113 
z
" id="DejaVuSans-6e" transform="scale(0.015625)"/>
      </defs>
      <use xlink:href="#DejaVuSans-64"/>
      <use x="63.476562" xlink:href="#DejaVuSans-6f"/>
      <use x="124.658203" xlink:href="#DejaVuSans-6d"/>
      <use x="222.070312" xlink:href="#DejaVuSans-61"/>
      <use x="283.349609" xlink:href="#DejaVuSans-69"/>
      <use x="311.132812" xlink:href="#DejaVuSans-6e"/>
     </g>
    </g>
   </g>
   <g id="matplotlib.axis_2">
    <g id="ytick_1">
     <g id="line2d_10">
      <defs>
       <path d="M 0 0 
L -3.5 0 
" id="me589c13dcc" style="stroke:#000000;stroke-width:0.8;"/>
      </defs>
      <g>
       <use style="stroke:#000000;stroke-width:0.8;" x="57.6" xlink:href="#me589c13dcc" y="307.584"/>
      </g>
     </g>
     <g id="text_11">
      <!-- 0.0 -->
      <g transform="translate(34.696875 311.383219)scale(0.1 -0.1)">
       <defs>
        <path d="M 684 794 
L 1344 794 
L 1344 0 
L 684 0 
L 684 794 
z
" id="DejaVuSans-2e" transform="scale(0.015625)"/>
       </defs>
       <use xlink:href="#DejaVuSans-30"/>
       <use x="63.623047" xlink:href="#DejaVuSans-2e"/>
       <use x="95.410156" xlink:href="#DejaVuSans-30"/>
      </g>
     </g>
    </g>
    <g id="ytick_2">
     <g id="line2d_11">
      <g>
       <use style="stroke:#000000;stroke-width:0.8;" x="57.6" xlink:href="#me589c13dcc" y="272.3428"/>
      </g>
     </g>
     <g id="text_12">
      <!-- 0.5 -->
      <g transform="translate(34.696875 276.142018)scale(0.1 -0.1)">
       <use xlink:href="#DejaVuSans-30"/>
       <use x="63.623047" xlink:href="#DejaVuSans-2e"/>
       <use x="95.410156" xlink:href="#DejaVuSans-35"/>
      </g>
     </g>
    </g>
    <g id="ytick_3">
     <g id="line2d_12">
      <g>
       <use style="stroke:#000000;stroke-width:0.8;" x="57.6" xlink:href="#me589c13dcc" y="237.101599"/>
      </g>
     </g>
     <g id="text_13">
      <!-- 1.0 -->
      <g transform="translate(34.696875 240.900818)scale(0.1 -0.1)">
       <use xlink:href="#DejaVuSans-31"/>
       <use x="63.623047" xlink:href="#DejaVuSans-2e"/>
       <use x="95.410156" xlink:href="#DejaVuSans-30"/>
      </g>
     </g>
    </g>
    <g id="ytick_4">
     <g id="line2d_13">
      <g>
       <use style="stroke:#000000;stroke-width:0.8;" x="57.6" xlink:href="#me589c13dcc" y="201.860399"/>
      </g>
     </g>
     <g id="text_14">
      <!-- 1.5 -->
      <g transform="translate(34.696875 205.659618)scale(0.1 -0.1)">
       <use xlink:href="#DejaVuSans-31"/>
       <use x="63.623047" xlink:href="#DejaVuSans-2e"/>
       <use x="95.410156" xlink:href="#DejaVuSans-35"/>
      </g>
     </g>
    </g>
    <g id="ytick_5">
     <g id="line2d_14">
      <g>
       <use style="stroke:#000000;stroke-width:0.8;" x="57.6" xlink:href="#me589c13dcc" y="166.619199"/>
      </g>
     </g>
     <g id="text_15">
      <!-- 2.0 -->
      <g transform="translate(34.696875 170.418417)scale(0.1 -0.1)">
       <use xlink:href="#DejaVuSans-32"/>
       <use x="63.623047" xlink:href="#DejaVuSans-2e"/>
       <use x="95.410156" xlink:href="#DejaVuSans-30"/>
      </g>
     </g>
    </g>
    <g id="ytick_6">
     <g id="line2d_15">
      <g>
       <use style="stroke:#000000;stroke-width:0.8;" x="57.6" xlink:href="#me589c13dcc" y="131.377998"/>
      </g>
     </g>
     <g id="text_16">
      <!-- 2.5 -->
      <g transform="translate(34.696875 135.177217)scale(0.1 -0.1)">
       <use xlink:href="#DejaVuSans-32"/>
       <use x="63.623047" xlink:href="#DejaVuSans-2e"/>
       <use x="95.410156" xlink:href="#DejaVuSans-35"/>
      </g>
     </g>
    </g>
    <g id="ytick_7">
     <g id="line2d_16">
      <g>
       <use style="stroke:#000000;stroke-width:0.8;" x="57.6" xlink:href="#me589c13dcc" y="96.136798"/>
      </g>
     </g>
     <g id="text_17">
      <!-- 3.0 -->
      <g transform="translate(34.696875 99.936017)scale(0.1 -0.1)">
       <use xlink:href="#DejaVuSans-33"/>
       <use x="63.623047" xlink:href="#DejaVuSans-2e"/>
       <use x="95.410156" xlink:href="#DejaVuSans-30"/>
      </g>
     </g>
    </g>
    <g id="ytick_8">
     <g id="line2d_17">
      <g>
       <use style="stroke:#000000;stroke-width:0.8;" x="57.6" xlink:href="#me589c13dcc" y="60.895598"/>
      </g>
     </g>
     <g id="text_18">
      <!-- 3.5 -->
      <g transform="translate(34.696875 64.694817)scale(0.1 -0.1)">
       <use xlink:href="#DejaVuSans-33"/>
       <use x="63.623047" xlink:href="#DejaVuSans-2e"/>
       <use x="95.410156" xlink:href="#DejaVuSans-35"/>
      </g>
     </g>
    </g>
    <g id="text_19">
     <!-- Total Bytes sent to Domain -->
     <g transform="translate(28.617187 241.823312)rotate(-90)scale(0.1 -0.1)">
      <defs>
       <path d="M -19 4666 
L 3928 4666 
L 3928 4134 
L 2272 4134 
L 2272 0 
L 1638 0 
L 1638 4134 
L -19 4134 
L -19 4666 
z
" id="DejaVuSans-54" transform="scale(0.015625)"/>
       <path d="M 1172 4494 
L 1172 3500 
L 2356 3500 
L 2356 3053 
L 1172 3053 
L 1172 1153 
Q 1172 725 1289 603 
Q 1406 481 1766 481 
L 2356 481 
L 2356 0 
L 1766 0 
Q 1100 0 847 248 
Q 594 497 594 1153 
L 594 3053 
L 172 3053 
L 172 3500 
L 594 3500 
L 594 4494 
L 1172 4494 
z
" id="DejaVuSans-74" transform="scale(0.015625)"/>
       <path d="M 603 4863 
L 1178 4863 
L 1178 0 
L 603 0 
L 603 4863 
z
" id="DejaVuSans-6c" transform="scale(0.015625)"/>
       <path id="DejaVuSans-20" transform="scale(0.015625)"/>
       <path d="M 1259 2228 
L 1259 519 
L 2272 519 
Q 2781 519 3026 730 
Q 3272 941 3272 1375 
Q 3272 1813 3026 2020 
Q 2781 2228 2272 2228 
L 1259 2228 
z
M 1259 4147 
L 1259 2741 
L 2194 2741 
Q 2656 2741 2882 2914 
Q 3109 3088 3109 3444 
Q 3109 3797 2882 3972 
Q 2656 4147 2194 4147 
L 1259 4147 
z
M 628 4666 
L 2241 4666 
Q 2963 4666 3353 4366 
Q 3744 4066 3744 3513 
Q 3744 3084 3544 2831 
Q 3344 2578 2956 2516 
Q 3422 2416 3680 2098 
Q 3938 1781 3938 1306 
Q 3938 681 3513 340 
Q 3088 0 2303 0 
L 628 0 
L 628 4666 
z
" id="DejaVuSans-42" transform="scale(0.015625)"/>
       <path d="M 2059 -325 
Q 1816 -950 1584 -1140 
Q 1353 -1331 966 -1331 
L 506 -1331 
L 506 -850 
L 844 -850 
Q 1081 -850 1212 -737 
Q 1344 -625 1503 -206 
L 1606 56 
L 191 3500 
L 800 3500 
L 1894 763 
L 2988 3500 
L 3597 3500 
L 2059 -325 
z
" id="DejaVuSans-79" transform="scale(0.015625)"/>
       <path d="M 3597 1894 
L 3597 1613 
L 953 1613 
Q 991 1019 1311 708 
Q 1631 397 2203 397 
Q 2534 397 2845 478 
Q 3156 559 3463 722 
L 3463 178 
Q 3153 47 2828 -22 
Q 2503 -91 2169 -91 
Q 1331 -91 842 396 
Q 353 884 353 1716 
Q 353 2575 817 3079 
Q 1281 3584 2069 3584 
Q 2775 3584 3186 3129 
Q 3597 2675 3597 1894 
z
M 3022 2063 
Q 3016 2534 2758 2815 
Q 2500 3097 2075 3097 
Q 1594 3097 1305 2825 
Q 1016 2553 972 2059 
L 3022 2063 
z
" id="DejaVuSans-65" transform="scale(0.015625)"/>
       <path d="M 2834 3397 
L 2834 2853 
Q 2591 2978 2328 3040 
Q 2066 3103 1784 3103 
Q 1356 3103 1142 2972 
Q 928 2841 928 2578 
Q 928 2378 1081 2264 
Q 1234 2150 1697 2047 
L 1894 2003 
Q 2506 1872 2764 1633 
Q 3022 1394 3022 966 
Q 3022 478 2636 193 
Q 2250 -91 1575 -91 
Q 1294 -91 989 -36 
Q 684 19 347 128 
L 347 722 
Q 666 556 975 473 
Q 1284 391 1588 391 
Q 1994 391 2212 530 
Q 2431 669 2431 922 
Q 2431 1156 2273 1281 
Q 2116 1406 1581 1522 
L 1381 1569 
Q 847 1681 609 1914 
Q 372 2147 372 2553 
Q 372 3047 722 3315 
Q 1072 3584 1716 3584 
Q 2034 3584 2315 3537 
Q 2597 3491 2834 3397 
z
" id="DejaVuSans-73" transform="scale(0.015625)"/>
       <path d="M 1259 4147 
L 1259 519 
L 2022 519 
Q 2988 519 3436 956 
Q 3884 1394 3884 2338 
Q 3884 3275 3436 3711 
Q 2988 4147 2022 4147 
L 1259 4147 
z
M 628 4666 
L 1925 4666 
Q 3281 4666 3915 4102 
Q 4550 3538 4550 2338 
Q 4550 1131 3912 565 
Q 3275 0 1925 0 
L 628 0 
L 628 4666 
z
" id="DejaVuSans-44" transform="scale(0.015625)"/>
      </defs>
      <use xlink:href="#DejaVuSans-54"/>
      <use x="44.083984" xlink:href="#DejaVuSans-6f"/>
      <use x="105.265625" xlink:href="#DejaVuSans-74"/>
      <use x="144.474609" xlink:href="#DejaVuSans-61"/>
      <use x="205.753906" xlink:href="#DejaVuSans-6c"/>
      <use x="233.537109" xlink:href="#DejaVuSans-20"/>
      <use x="265.324219" xlink:href="#DejaVuSans-42"/>
      <use x="333.927734" xlink:href="#DejaVuSans-79"/>
      <use x="393.107422" xlink:href="#DejaVuSans-74"/>
      <use x="432.316406" xlink:href="#DejaVuSans-65"/>
      <use x="493.839844" xlink:href="#DejaVuSans-73"/>
      <use x="545.939453" xlink:href="#DejaVuSans-20"/>
      <use x="577.726562" xlink:href="#DejaVuSans-73"/>
      <use x="629.826172" xlink:href="#DejaVuSans-65"/>
      <use x="691.349609" xlink:href="#DejaVuSans-6e"/>
      <use x="754.728516" xlink:href="#DejaVuSans-74"/>
      <use x="793.9375" xlink:href="#DejaVuSans-20"/>
      <use x="825.724609" xlink:href="#DejaVuSans-74"/>
      <use x="864.933594" xlink:href="#DejaVuSans-6f"/>
      <use x="926.115234" xlink:href="#DejaVuSans-20"/>
      <use x="957.902344" xlink:href="#DejaVuSans-44"/>
      <use x="1034.904297" xlink:href="#DejaVuSans-6f"/>
      <use x="1096.085938" xlink:href="#DejaVuSans-6d"/>
      <use x="1193.498047" xlink:href="#DejaVuSans-61"/>
      <use x="1254.777344" xlink:href="#DejaVuSans-69"/>
      <use x="1282.560547" xlink:href="#DejaVuSans-6e"/>
     </g>
    </g>
    <g id="text_20">
     <!-- 1e9 -->
     <g transform="translate(57.6 38.472)scale(0.1 -0.1)">
      <use xlink:href="#DejaVuSans-31"/>
      <use x="63.623047" xlink:href="#DejaVuSans-65"/>
      <use x="125.146484" xlink:href="#DejaVuSans-39"/>
     </g>
    </g>
   </g>
   <g id="patch_253">
    <path d="M 57.6 307.584 
L 57.6 41.472 
" style="fill:none;stroke:#000000;stroke-linecap:square;stroke-linejoin:miter;stroke-width:0.8;"/>
   </g>
   <g id="patch_254">
    <path d="M 414.72 307.584 
L 414.72 41.472 
" style="fill:none;stroke:#000000;stroke-linecap:square;stroke-linejoin:miter;stroke-width:0.8;"/>
   </g>
   <g id="patch_255">
    <path d="M 57.6 307.584 
L 414.72 307.584 
" style="fill:none;stroke:#000000;stroke-linecap:square;stroke-linejoin:miter;stroke-width:0.8;"/>
   </g>
   <g id="patch_256">
    <path d="M 57.6 41.472 
L 414.72 41.472 
" style="fill:none;stroke:#000000;stroke-linecap:square;stroke-linejoin:miter;stroke-width:0.8;"/>
   </g>
   <g id="text_21">
    <!-- ex3-run154 -->
    <g transform="translate(201.515625 35.472)scale(0.12 -0.12)">
     <defs>
      <path d="M 3513 3500 
L 2247 1797 
L 3578 0 
L 2900 0 
L 1881 1375 
L 863 0 
L 184 0 
L 1544 1831 
L 300 3500 
L 978 3500 
L 1906 2253 
L 2834 3500 
L 3513 3500 
z
" id="DejaVuSans-78" transform="scale(0.015625)"/>
      <path d="M 313 2009 
L 1997 2009 
L 1997 1497 
L 313 1497 
L 313 2009 
z
" id="DejaVuSans-2d" transform="scale(0.015625)"/>
      <path d="M 2631 2963 
Q 2534 3019 2420 3045 
Q 2306 3072 2169 3072 
Q 1681 3072 1420 2755 
Q 1159 2438 1159 1844 
L 1159 0 
L 581 0 
L 581 3500 
L 1159 3500 
L 1159 2956 
Q 1341 3275 1631 3429 
Q 1922 3584 2338 3584 
Q 2397 3584 2469 3576 
Q 2541 3569 2628 3553 
L 2631 2963 
z
" id="DejaVuSans-72" transform="scale(0.015625)"/>
      <path d="M 544 1381 
L 544 3500 
L 1119 3500 
L 1119 1403 
Q 1119 906 1312 657 
Q 1506 409 1894 409 
Q 2359 409 2629 706 
Q 2900 1003 2900 1516 
L 2900 3500 
L 3475 3500 
L 3475 0 
L 2900 0 
L 2900 538 
Q 2691 219 2414 64 
Q 2138 -91 1772 -91 
Q 1169 -91 856 284 
Q 544 659 544 1381 
z
M 1991 3584 
L 1991 3584 
z
" id="DejaVuSans-75" transform="scale(0.015625)"/>
      <path d="M 2419 4116 
L 825 1625 
L 2419 1625 
L 2419 4116 
z
M 2253 4666 
L 3047 4666 
L 3047 1625 
L 3713 1625 
L 3713 1100 
L 3047 1100 
L 3047 0 
L 2419 0 
L 2419 1100 
L 313 1100 
L 313 1709 
L 2253 4666 
z
" id="DejaVuSans-34" transform="scale(0.015625)"/>
     </defs>
     <use xlink:href="#DejaVuSans-65"/>
     <use x="59.773438" xlink:href="#DejaVuSans-78"/>
     <use x="118.953125" xlink:href="#DejaVuSans-33"/>
     <use x="182.576172" xlink:href="#DejaVuSans-2d"/>
     <use x="218.660156" xlink:href="#DejaVuSans-72"/>
     <use x="259.773438" xlink:href="#DejaVuSans-75"/>
     <use x="323.152344" xlink:href="#DejaVuSans-6e"/>
     <use x="386.53125" xlink:href="#DejaVuSans-31"/>
     <use x="450.154297" xlink:href="#DejaVuSans-35"/>
     <use x="513.777344" xlink:href="#DejaVuSans-34"/>
    </g>
   </g>
   <g id="legend_1">
    <g id="patch_257">
     <path d="M 64.6 78.82825 
L 184.99375 78.82825 
Q 186.99375 78.82825 186.99375 76.82825 
L 186.99375 48.472 
Q 186.99375 46.472 184.99375 46.472 
L 64.6 46.472 
Q 62.6 46.472 62.6 48.472 
L 62.6 76.82825 
Q 62.6 78.82825 64.6 78.82825 
z
" style="fill:#ffffff;opacity:0.8;stroke:#cccccc;stroke-linejoin:miter;"/>
    </g>
    <g id="patch_258">
     <path d="M 66.6 58.070437 
L 86.6 58.070437 
L 86.6 51.070437 
L 66.6 51.070437 
z
" style="fill:#1f77b4;"/>
    </g>
    <g id="text_22">
     <!--  non-dupe bytes -->
     <g transform="translate(94.6 58.070437)scale(0.1 -0.1)">
      <defs>
       <path d="M 1159 525 
L 1159 -1331 
L 581 -1331 
L 581 3500 
L 1159 3500 
L 1159 2969 
Q 1341 3281 1617 3432 
Q 1894 3584 2278 3584 
Q 2916 3584 3314 3078 
Q 3713 2572 3713 1747 
Q 3713 922 3314 415 
Q 2916 -91 2278 -91 
Q 1894 -91 1617 61 
Q 1341 213 1159 525 
z
M 3116 1747 
Q 3116 2381 2855 2742 
Q 2594 3103 2138 3103 
Q 1681 3103 1420 2742 
Q 1159 2381 1159 1747 
Q 1159 1113 1420 752 
Q 1681 391 2138 391 
Q 2594 391 2855 752 
Q 3116 1113 3116 1747 
z
" id="DejaVuSans-70" transform="scale(0.015625)"/>
       <path d="M 3116 1747 
Q 3116 2381 2855 2742 
Q 2594 3103 2138 3103 
Q 1681 3103 1420 2742 
Q 1159 2381 1159 1747 
Q 1159 1113 1420 752 
Q 1681 391 2138 391 
Q 2594 391 2855 752 
Q 3116 1113 3116 1747 
z
M 1159 2969 
Q 1341 3281 1617 3432 
Q 1894 3584 2278 3584 
Q 2916 3584 3314 3078 
Q 3713 2572 3713 1747 
Q 3713 922 3314 415 
Q 2916 -91 2278 -91 
Q 1894 -91 1617 61 
Q 1341 213 1159 525 
L 1159 0 
L 581 0 
L 581 4863 
L 1159 4863 
L 1159 2969 
z
" id="DejaVuSans-62" transform="scale(0.015625)"/>
      </defs>
      <use xlink:href="#DejaVuSans-20"/>
      <use x="31.787109" xlink:href="#DejaVuSans-6e"/>
      <use x="95.166016" xlink:href="#DejaVuSans-6f"/>
      <use x="156.347656" xlink:href="#DejaVuSans-6e"/>
      <use x="219.726562" xlink:href="#DejaVuSans-2d"/>
      <use x="255.810547" xlink:href="#DejaVuSans-64"/>
      <use x="319.287109" xlink:href="#DejaVuSans-75"/>
      <use x="382.666016" xlink:href="#DejaVuSans-70"/>
      <use x="446.142578" xlink:href="#DejaVuSans-65"/>
      <use x="507.666016" xlink:href="#DejaVuSans-20"/>
      <use x="539.453125" xlink:href="#DejaVuSans-62"/>
      <use x="602.929688" xlink:href="#DejaVuSans-79"/>
      <use x="662.109375" xlink:href="#DejaVuSans-74"/>
      <use x="701.318359" xlink:href="#DejaVuSans-65"/>
      <use x="762.841797" xlink:href="#DejaVuSans-73"/>
     </g>
    </g>
    <g id="patch_259">
     <path d="M 66.6 72.748562 
L 86.6 72.748562 
L 86.6 65.748562 
L 66.6 65.748562 
z
" style="fill:#ff7f0e;"/>
    </g>
    <g id="text_23">
     <!-- total region bytes -->
     <g transform="translate(94.6 72.748562)scale(0.1 -0.1)">
      <defs>
       <path d="M 2906 1791 
Q 2906 2416 2648 2759 
Q 2391 3103 1925 3103 
Q 1463 3103 1205 2759 
Q 947 2416 947 1791 
Q 947 1169 1205 825 
Q 1463 481 1925 481 
Q 2391 481 2648 825 
Q 2906 1169 2906 1791 
z
M 3481 434 
Q 3481 -459 3084 -895 
Q 2688 -1331 1869 -1331 
Q 1566 -1331 1297 -1286 
Q 1028 -1241 775 -1147 
L 775 -588 
Q 1028 -725 1275 -790 
Q 1522 -856 1778 -856 
Q 2344 -856 2625 -561 
Q 2906 -266 2906 331 
L 2906 616 
Q 2728 306 2450 153 
Q 2172 0 1784 0 
Q 1141 0 747 490 
Q 353 981 353 1791 
Q 353 2603 747 3093 
Q 1141 3584 1784 3584 
Q 2172 3584 2450 3431 
Q 2728 3278 2906 2969 
L 2906 3500 
L 3481 3500 
L 3481 434 
z
" id="DejaVuSans-67" transform="scale(0.015625)"/>
      </defs>
      <use xlink:href="#DejaVuSans-74"/>
      <use x="39.208984" xlink:href="#DejaVuSans-6f"/>
      <use x="100.390625" xlink:href="#DejaVuSans-74"/>
      <use x="139.599609" xlink:href="#DejaVuSans-61"/>
      <use x="200.878906" xlink:href="#DejaVuSans-6c"/>
      <use x="228.662109" xlink:href="#DejaVuSans-20"/>
      <use x="260.449219" xlink:href="#DejaVuSans-72"/>
      <use x="299.3125" xlink:href="#DejaVuSans-65"/>
      <use x="360.835938" xlink:href="#DejaVuSans-67"/>
      <use x="424.3125" xlink:href="#DejaVuSans-69"/>
      <use x="452.095703" xlink:href="#DejaVuSans-6f"/>
      <use x="513.277344" xlink:href="#DejaVuSans-6e"/>
      <use x="576.65625" xlink:href="#DejaVuSans-20"/>
      <use x="608.443359" xlink:href="#DejaVuSans-62"/>
      <use x="671.919922" xlink:href="#DejaVuSans-79"/>
      <use x="731.099609" xlink:href="#DejaVuSans-74"/>
      <use x="770.308594" xlink:href="#DejaVuSans-65"/>
      <use x="831.832031" xlink:href="#DejaVuSans-73"/>
     </g>
    </g>
   </g>
  </g>
 </g>
 <defs>
  <clipPath id="p88e78a7b1a">
   <rect height="266.112" width="357.12" x="57.6" y="41.472"/>
  </clipPath>
 </defs>
</svg>
