<?xml version="1.0" encoding="utf-8" standalone="no"?>
<!DOCTYPE svg PUBLIC "-//W3C//DTD SVG 1.1//EN"
  "http://www.w3.org/Graphics/SVG/1.1/DTD/svg11.dtd">
<svg height="345.6pt" version="1.1" viewBox="0 0 460.8 345.6" width="460.8pt" xmlns="http://www.w3.org/2000/svg" xmlns:xlink="http://www.w3.org/1999/xlink">
 <metadata>
  <rdf:RDF xmlns:cc="http://creativecommons.org/ns#" xmlns:dc="http://purl.org/dc/elements/1.1/" xmlns:rdf="http://www.w3.org/1999/02/22-rdf-syntax-ns#">
   <cc:Work>
    <dc:type rdf:resource="http://purl.org/dc/dcmitype/StillImage"/>
    <dc:date>2021-12-06T00:32:48.642734</dc:date>
    <dc:format>image/svg+xml</dc:format>
    <dc:creator>
     <cc:Agent>
      <dc:title>Matplotlib v3.4.3, https://matplotlib.org/</dc:title>
     </cc:Agent>
    </dc:creator>
   </cc:Work>
  </rdf:RDF>
 </metadata>
 <defs>
  <style type="text/css">*{stroke-linecap:butt;stroke-linejoin:round;}</style>
 </defs>
 <g id="figure_1">
  <g id="patch_1">
   <path d="M 0 345.6 
L 460.8 345.6 
L 460.8 0 
L 0 0 
z
" style="fill:#ffffff;"/>
  </g>
  <g id="axes_1">
   <g id="patch_2">
    <path d="M 57.6 307.584 
L 414.72 307.584 
L 414.72 41.472 
L 57.6 41.472 
z
" style="fill:#ffffff;"/>
   </g>
   <g id="patch_3">
    <path clip-path="url(#pdfb87586fe)" d="M 58.325854 307.584 
L 59.777561 307.584 
L 59.777561 306.650947 
L 58.325854 306.650947 
z
" style="fill:#1f77b4;"/>
   </g>
   <g id="patch_4">
    <path clip-path="url(#pdfb87586fe)" d="M 61.229268 307.584 
L 62.680976 307.584 
L 62.680976 305.374155 
L 61.229268 305.374155 
z
" style="fill:#1f77b4;"/>
   </g>
   <g id="patch_5">
    <path clip-path="url(#pdfb87586fe)" d="M 64.132683 307.584 
L 65.58439 307.584 
L 65.58439 307.138819 
L 64.132683 307.138819 
z
" style="fill:#1f77b4;"/>
   </g>
   <g id="patch_6">
    <path clip-path="url(#pdfb87586fe)" d="M 67.036098 307.584 
L 68.487805 307.584 
L 68.487805 306.859495 
L 67.036098 306.859495 
z
" style="fill:#1f77b4;"/>
   </g>
   <g id="patch_7">
    <path clip-path="url(#pdfb87586fe)" d="M 69.939512 307.584 
L 71.39122 307.584 
L 71.39122 306.90408 
L 69.939512 306.90408 
z
" style="fill:#1f77b4;"/>
   </g>
   <g id="patch_8">
    <path clip-path="url(#pdfb87586fe)" d="M 72.842927 307.584 
L 74.294634 307.584 
L 74.294634 306.556043 
L 72.842927 306.556043 
z
" style="fill:#1f77b4;"/>
   </g>
   <g id="patch_9">
    <path clip-path="url(#pdfb87586fe)" d="M 75.746341 307.584 
L 77.198049 307.584 
L 77.198049 307.042218 
L 75.746341 307.042218 
z
" style="fill:#1f77b4;"/>
   </g>
   <g id="patch_10">
    <path clip-path="url(#pdfb87586fe)" d="M 78.649756 307.584 
L 80.101463 307.584 
L 80.101463 306.143365 
L 78.649756 306.143365 
z
" style="fill:#1f77b4;"/>
   </g>
   <g id="patch_11">
    <path clip-path="url(#pdfb87586fe)" d="M 81.553171 307.584 
L 83.004878 307.584 
L 83.004878 306.480134 
L 81.553171 306.480134 
z
" style="fill:#1f77b4;"/>
   </g>
   <g id="patch_12">
    <path clip-path="url(#pdfb87586fe)" d="M 84.456585 307.584 
L 85.908293 307.584 
L 85.908293 305.989529 
L 84.456585 305.989529 
z
" style="fill:#1f77b4;"/>
   </g>
   <g id="patch_13">
    <path clip-path="url(#pdfb87586fe)" d="M 87.36 307.584 
L 88.811707 307.584 
L 88.811707 306.053394 
L 87.36 306.053394 
z
" style="fill:#1f77b4;"/>
   </g>
   <g id="patch_14">
    <path clip-path="url(#pdfb87586fe)" d="M 90.263415 307.584 
L 91.715122 307.584 
L 91.715122 306.236878 
L 90.263415 306.236878 
z
" style="fill:#1f77b4;"/>
   </g>
   <g id="patch_15">
    <path clip-path="url(#pdfb87586fe)" d="M 93.166829 307.584 
L 94.618537 307.584 
L 94.618537 305.97448 
L 93.166829 305.97448 
z
" style="fill:#1f77b4;"/>
   </g>
   <g id="patch_16">
    <path clip-path="url(#pdfb87586fe)" d="M 96.070244 307.584 
L 97.521951 307.584 
L 97.521951 306.127618 
L 96.070244 306.127618 
z
" style="fill:#1f77b4;"/>
   </g>
   <g id="patch_17">
    <path clip-path="url(#pdfb87586fe)" d="M 98.973659 307.584 
L 100.425366 307.584 
L 100.425366 306.531632 
L 98.973659 306.531632 
z
" style="fill:#1f77b4;"/>
   </g>
   <g id="patch_18">
    <path clip-path="url(#pdfb87586fe)" d="M 101.877073 307.584 
L 103.32878 307.584 
L 103.32878 306.773317 
L 101.877073 306.773317 
z
" style="fill:#1f77b4;"/>
   </g>
   <g id="patch_19">
    <path clip-path="url(#pdfb87586fe)" d="M 104.780488 307.584 
L 106.232195 307.584 
L 106.232195 305.790939 
L 104.780488 305.790939 
z
" style="fill:#1f77b4;"/>
   </g>
   <g id="patch_20">
    <path clip-path="url(#pdfb87586fe)" d="M 107.683902 307.584 
L 109.13561 307.584 
L 109.13561 305.182555 
L 107.683902 305.182555 
z
" style="fill:#1f77b4;"/>
   </g>
   <g id="patch_21">
    <path clip-path="url(#pdfb87586fe)" d="M 110.587317 307.584 
L 112.039024 307.584 
L 112.039024 306.530453 
L 110.587317 306.530453 
z
" style="fill:#1f77b4;"/>
   </g>
   <g id="patch_22">
    <path clip-path="url(#pdfb87586fe)" d="M 113.490732 307.584 
L 114.942439 307.584 
L 114.942439 307.383368 
L 113.490732 307.383368 
z
" style="fill:#1f77b4;"/>
   </g>
   <g id="patch_23">
    <path clip-path="url(#pdfb87586fe)" d="M 116.394146 307.584 
L 117.845854 307.584 
L 117.845854 306.828137 
L 116.394146 306.828137 
z
" style="fill:#1f77b4;"/>
   </g>
   <g id="patch_24">
    <path clip-path="url(#pdfb87586fe)" d="M 119.297561 307.584 
L 120.749268 307.584 
L 120.749268 307.116429 
L 119.297561 307.116429 
z
" style="fill:#1f77b4;"/>
   </g>
   <g id="patch_25">
    <path clip-path="url(#pdfb87586fe)" d="M 122.200976 307.584 
L 123.652683 307.584 
L 123.652683 306.624329 
L 122.200976 306.624329 
z
" style="fill:#1f77b4;"/>
   </g>
   <g id="patch_26">
    <path clip-path="url(#pdfb87586fe)" d="M 125.10439 307.584 
L 126.556098 307.584 
L 126.556098 304.135306 
L 125.10439 304.135306 
z
" style="fill:#1f77b4;"/>
   </g>
   <g id="patch_27">
    <path clip-path="url(#pdfb87586fe)" d="M 128.007805 307.584 
L 129.459512 307.584 
L 129.459512 305.299333 
L 128.007805 305.299333 
z
" style="fill:#1f77b4;"/>
   </g>
   <g id="patch_28">
    <path clip-path="url(#pdfb87586fe)" d="M 130.91122 307.584 
L 132.362927 307.584 
L 132.362927 307.306429 
L 130.91122 307.306429 
z
" style="fill:#1f77b4;"/>
   </g>
   <g id="patch_29">
    <path clip-path="url(#pdfb87586fe)" d="M 133.814634 307.584 
L 135.266341 307.584 
L 135.266341 306.65148 
L 133.814634 306.65148 
z
" style="fill:#1f77b4;"/>
   </g>
   <g id="patch_30">
    <path clip-path="url(#pdfb87586fe)" d="M 136.718049 307.584 
L 138.169756 307.584 
L 138.169756 306.175714 
L 136.718049 306.175714 
z
" style="fill:#1f77b4;"/>
   </g>
   <g id="patch_31">
    <path clip-path="url(#pdfb87586fe)" d="M 139.621463 307.584 
L 141.073171 307.584 
L 141.073171 306.604458 
L 139.621463 306.604458 
z
" style="fill:#1f77b4;"/>
   </g>
   <g id="patch_32">
    <path clip-path="url(#pdfb87586fe)" d="M 142.524878 307.584 
L 143.976585 307.584 
L 143.976585 306.632039 
L 142.524878 306.632039 
z
" style="fill:#1f77b4;"/>
   </g>
   <g id="patch_33">
    <path clip-path="url(#pdfb87586fe)" d="M 145.428293 307.584 
L 146.88 307.584 
L 146.88 306.024366 
L 145.428293 306.024366 
z
" style="fill:#1f77b4;"/>
   </g>
   <g id="patch_34">
    <path clip-path="url(#pdfb87586fe)" d="M 148.331707 307.584 
L 149.783415 307.584 
L 149.783415 306.956207 
L 148.331707 306.956207 
z
" style="fill:#1f77b4;"/>
   </g>
   <g id="patch_35">
    <path clip-path="url(#pdfb87586fe)" d="M 151.235122 307.584 
L 152.686829 307.584 
L 152.686829 306.190171 
L 151.235122 306.190171 
z
" style="fill:#1f77b4;"/>
   </g>
   <g id="patch_36">
    <path clip-path="url(#pdfb87586fe)" d="M 154.138537 307.584 
L 155.590244 307.584 
L 155.590244 304.033327 
L 154.138537 304.033327 
z
" style="fill:#1f77b4;"/>
   </g>
   <g id="patch_37">
    <path clip-path="url(#pdfb87586fe)" d="M 157.041951 307.584 
L 158.493659 307.584 
L 158.493659 306.291408 
L 157.041951 306.291408 
z
" style="fill:#1f77b4;"/>
   </g>
   <g id="patch_38">
    <path clip-path="url(#pdfb87586fe)" d="M 159.945366 307.584 
L 161.397073 307.584 
L 161.397073 305.622107 
L 159.945366 305.622107 
z
" style="fill:#1f77b4;"/>
   </g>
   <g id="patch_39">
    <path clip-path="url(#pdfb87586fe)" d="M 162.84878 307.584 
L 164.300488 307.584 
L 164.300488 306.615486 
L 162.84878 306.615486 
z
" style="fill:#1f77b4;"/>
   </g>
   <g id="patch_40">
    <path clip-path="url(#pdfb87586fe)" d="M 165.752195 307.584 
L 167.203902 307.584 
L 167.203902 306.396825 
L 165.752195 306.396825 
z
" style="fill:#1f77b4;"/>
   </g>
   <g id="patch_41">
    <path clip-path="url(#pdfb87586fe)" d="M 168.65561 307.584 
L 170.107317 307.584 
L 170.107317 306.352118 
L 168.65561 306.352118 
z
" style="fill:#1f77b4;"/>
   </g>
   <g id="patch_42">
    <path clip-path="url(#pdfb87586fe)" d="M 171.559024 307.584 
L 173.010732 307.584 
L 173.010732 306.017348 
L 171.559024 306.017348 
z
" style="fill:#1f77b4;"/>
   </g>
   <g id="patch_43">
    <path clip-path="url(#pdfb87586fe)" d="M 174.462439 307.584 
L 175.914146 307.584 
L 175.914146 305.883962 
L 174.462439 305.883962 
z
" style="fill:#1f77b4;"/>
   </g>
   <g id="patch_44">
    <path clip-path="url(#pdfb87586fe)" d="M 177.365854 307.584 
L 178.817561 307.584 
L 178.817561 304.380119 
L 177.365854 304.380119 
z
" style="fill:#1f77b4;"/>
   </g>
   <g id="patch_45">
    <path clip-path="url(#pdfb87586fe)" d="M 180.269268 307.584 
L 181.720976 307.584 
L 181.720976 306.151759 
L 180.269268 306.151759 
z
" style="fill:#1f77b4;"/>
   </g>
   <g id="patch_46">
    <path clip-path="url(#pdfb87586fe)" d="M 183.172683 307.584 
L 184.62439 307.584 
L 184.62439 306.596366 
L 183.172683 306.596366 
z
" style="fill:#1f77b4;"/>
   </g>
   <g id="patch_47">
    <path clip-path="url(#pdfb87586fe)" d="M 186.076098 307.584 
L 187.527805 307.584 
L 187.527805 306.363945 
L 186.076098 306.363945 
z
" style="fill:#1f77b4;"/>
   </g>
   <g id="patch_48">
    <path clip-path="url(#pdfb87586fe)" d="M 188.979512 307.584 
L 190.43122 307.584 
L 190.43122 306.838249 
L 188.979512 306.838249 
z
" style="fill:#1f77b4;"/>
   </g>
   <g id="patch_49">
    <path clip-path="url(#pdfb87586fe)" d="M 191.882927 307.584 
L 193.334634 307.584 
L 193.334634 306.158418 
L 191.882927 306.158418 
z
" style="fill:#1f77b4;"/>
   </g>
   <g id="patch_50">
    <path clip-path="url(#pdfb87586fe)" d="M 194.786341 307.584 
L 196.238049 307.584 
L 196.238049 306.764756 
L 194.786341 306.764756 
z
" style="fill:#1f77b4;"/>
   </g>
   <g id="patch_51">
    <path clip-path="url(#pdfb87586fe)" d="M 197.689756 307.584 
L 199.141463 307.584 
L 199.141463 306.400044 
L 197.689756 306.400044 
z
" style="fill:#1f77b4;"/>
   </g>
   <g id="patch_52">
    <path clip-path="url(#pdfb87586fe)" d="M 200.593171 307.584 
L 202.044878 307.584 
L 202.044878 305.186916 
L 200.593171 305.186916 
z
" style="fill:#1f77b4;"/>
   </g>
   <g id="patch_53">
    <path clip-path="url(#pdfb87586fe)" d="M 203.496585 307.584 
L 204.948293 307.584 
L 204.948293 306.986831 
L 203.496585 306.986831 
z
" style="fill:#1f77b4;"/>
   </g>
   <g id="patch_54">
    <path clip-path="url(#pdfb87586fe)" d="M 206.4 307.584 
L 207.851707 307.584 
L 207.851707 305.098599 
L 206.4 305.098599 
z
" style="fill:#1f77b4;"/>
   </g>
   <g id="patch_55">
    <path clip-path="url(#pdfb87586fe)" d="M 209.303415 307.584 
L 210.755122 307.584 
L 210.755122 306.639561 
L 209.303415 306.639561 
z
" style="fill:#1f77b4;"/>
   </g>
   <g id="patch_56">
    <path clip-path="url(#pdfb87586fe)" d="M 212.206829 307.584 
L 213.658537 307.584 
L 213.658537 302.578877 
L 212.206829 302.578877 
z
" style="fill:#1f77b4;"/>
   </g>
   <g id="patch_57">
    <path clip-path="url(#pdfb87586fe)" d="M 215.110244 307.584 
L 216.561951 307.584 
L 216.561951 306.411349 
L 215.110244 306.411349 
z
" style="fill:#1f77b4;"/>
   </g>
   <g id="patch_58">
    <path clip-path="url(#pdfb87586fe)" d="M 218.013659 307.584 
L 219.465366 307.584 
L 219.465366 306.975068 
L 218.013659 306.975068 
z
" style="fill:#1f77b4;"/>
   </g>
   <g id="patch_59">
    <path clip-path="url(#pdfb87586fe)" d="M 220.917073 307.584 
L 222.36878 307.584 
L 222.36878 306.937295 
L 220.917073 306.937295 
z
" style="fill:#1f77b4;"/>
   </g>
   <g id="patch_60">
    <path clip-path="url(#pdfb87586fe)" d="M 223.820488 307.584 
L 225.272195 307.584 
L 225.272195 305.517332 
L 223.820488 305.517332 
z
" style="fill:#1f77b4;"/>
   </g>
   <g id="patch_61">
    <path clip-path="url(#pdfb87586fe)" d="M 226.723902 307.584 
L 228.17561 307.584 
L 228.17561 306.983269 
L 226.723902 306.983269 
z
" style="fill:#1f77b4;"/>
   </g>
   <g id="patch_62">
    <path clip-path="url(#pdfb87586fe)" d="M 229.627317 307.584 
L 231.079024 307.584 
L 231.079024 307.251664 
L 229.627317 307.251664 
z
" style="fill:#1f77b4;"/>
   </g>
   <g id="patch_63">
    <path clip-path="url(#pdfb87586fe)" d="M 232.530732 307.584 
L 233.982439 307.584 
L 233.982439 307.205992 
L 232.530732 307.205992 
z
" style="fill:#1f77b4;"/>
   </g>
   <g id="patch_64">
    <path clip-path="url(#pdfb87586fe)" d="M 235.434146 307.584 
L 236.885854 307.584 
L 236.885854 305.813162 
L 235.434146 305.813162 
z
" style="fill:#1f77b4;"/>
   </g>
   <g id="patch_65">
    <path clip-path="url(#pdfb87586fe)" d="M 238.337561 307.584 
L 239.789268 307.584 
L 239.789268 306.759783 
L 238.337561 306.759783 
z
" style="fill:#1f77b4;"/>
   </g>
   <g id="patch_66">
    <path clip-path="url(#pdfb87586fe)" d="M 241.240976 307.584 
L 242.692683 307.584 
L 242.692683 307.166016 
L 241.240976 307.166016 
z
" style="fill:#1f77b4;"/>
   </g>
   <g id="patch_67">
    <path clip-path="url(#pdfb87586fe)" d="M 244.14439 307.584 
L 245.596098 307.584 
L 245.596098 306.294335 
L 244.14439 306.294335 
z
" style="fill:#1f77b4;"/>
   </g>
   <g id="patch_68">
    <path clip-path="url(#pdfb87586fe)" d="M 247.047805 307.584 
L 248.499512 307.584 
L 248.499512 305.331354 
L 247.047805 305.331354 
z
" style="fill:#1f77b4;"/>
   </g>
   <g id="patch_69">
    <path clip-path="url(#pdfb87586fe)" d="M 249.95122 307.584 
L 251.402927 307.584 
L 251.402927 304.503716 
L 249.95122 304.503716 
z
" style="fill:#1f77b4;"/>
   </g>
   <g id="patch_70">
    <path clip-path="url(#pdfb87586fe)" d="M 252.854634 307.584 
L 254.306341 307.584 
L 254.306341 305.256624 
L 252.854634 305.256624 
z
" style="fill:#1f77b4;"/>
   </g>
   <g id="patch_71">
    <path clip-path="url(#pdfb87586fe)" d="M 255.758049 307.584 
L 257.209756 307.584 
L 257.209756 305.645431 
L 255.758049 305.645431 
z
" style="fill:#1f77b4;"/>
   </g>
   <g id="patch_72">
    <path clip-path="url(#pdfb87586fe)" d="M 258.661463 307.584 
L 260.113171 307.584 
L 260.113171 305.028598 
L 258.661463 305.028598 
z
" style="fill:#1f77b4;"/>
   </g>
   <g id="patch_73">
    <path clip-path="url(#pdfb87586fe)" d="M 261.564878 307.584 
L 263.016585 307.584 
L 263.016585 307.084884 
L 261.564878 307.084884 
z
" style="fill:#1f77b4;"/>
   </g>
   <g id="patch_74">
    <path clip-path="url(#pdfb87586fe)" d="M 264.468293 307.584 
L 265.92 307.584 
L 265.92 306.980988 
L 264.468293 306.980988 
z
" style="fill:#1f77b4;"/>
   </g>
   <g id="patch_75">
    <path clip-path="url(#pdfb87586fe)" d="M 267.371707 307.584 
L 268.823415 307.584 
L 268.823415 306.46082 
L 267.371707 306.46082 
z
" style="fill:#1f77b4;"/>
   </g>
   <g id="patch_76">
    <path clip-path="url(#pdfb87586fe)" d="M 270.275122 307.584 
L 271.726829 307.584 
L 271.726829 306.668379 
L 270.275122 306.668379 
z
" style="fill:#1f77b4;"/>
   </g>
   <g id="patch_77">
    <path clip-path="url(#pdfb87586fe)" d="M 273.178537 307.584 
L 274.630244 307.584 
L 274.630244 306.115794 
L 273.178537 306.115794 
z
" style="fill:#1f77b4;"/>
   </g>
   <g id="patch_78">
    <path clip-path="url(#pdfb87586fe)" d="M 276.081951 307.584 
L 277.533659 307.584 
L 277.533659 305.352911 
L 276.081951 305.352911 
z
" style="fill:#1f77b4;"/>
   </g>
   <g id="patch_79">
    <path clip-path="url(#pdfb87586fe)" d="M 278.985366 307.584 
L 280.437073 307.584 
L 280.437073 305.641577 
L 278.985366 305.641577 
z
" style="fill:#1f77b4;"/>
   </g>
   <g id="patch_80">
    <path clip-path="url(#pdfb87586fe)" d="M 281.88878 307.584 
L 283.340488 307.584 
L 283.340488 305.755906 
L 281.88878 305.755906 
z
" style="fill:#1f77b4;"/>
   </g>
   <g id="patch_81">
    <path clip-path="url(#pdfb87586fe)" d="M 284.792195 307.584 
L 286.243902 307.584 
L 286.243902 305.930556 
L 284.792195 305.930556 
z
" style="fill:#1f77b4;"/>
   </g>
   <g id="patch_82">
    <path clip-path="url(#pdfb87586fe)" d="M 287.69561 307.584 
L 289.147317 307.584 
L 289.147317 306.937697 
L 287.69561 306.937697 
z
" style="fill:#1f77b4;"/>
   </g>
   <g id="patch_83">
    <path clip-path="url(#pdfb87586fe)" d="M 290.599024 307.584 
L 292.050732 307.584 
L 292.050732 306.951469 
L 290.599024 306.951469 
z
" style="fill:#1f77b4;"/>
   </g>
   <g id="patch_84">
    <path clip-path="url(#pdfb87586fe)" d="M 293.502439 307.584 
L 294.954146 307.584 
L 294.954146 305.426945 
L 293.502439 305.426945 
z
" style="fill:#1f77b4;"/>
   </g>
   <g id="patch_85">
    <path clip-path="url(#pdfb87586fe)" d="M 296.405854 307.584 
L 297.857561 307.584 
L 297.857561 306.775535 
L 296.405854 306.775535 
z
" style="fill:#1f77b4;"/>
   </g>
   <g id="patch_86">
    <path clip-path="url(#pdfb87586fe)" d="M 299.309268 307.584 
L 300.760976 307.584 
L 300.760976 307.156153 
L 299.309268 307.156153 
z
" style="fill:#1f77b4;"/>
   </g>
   <g id="patch_87">
    <path clip-path="url(#pdfb87586fe)" d="M 302.212683 307.584 
L 303.66439 307.584 
L 303.66439 305.592126 
L 302.212683 305.592126 
z
" style="fill:#1f77b4;"/>
   </g>
   <g id="patch_88">
    <path clip-path="url(#pdfb87586fe)" d="M 305.116098 307.584 
L 306.567805 307.584 
L 306.567805 305.686921 
L 305.116098 305.686921 
z
" style="fill:#1f77b4;"/>
   </g>
   <g id="patch_89">
    <path clip-path="url(#pdfb87586fe)" d="M 308.019512 307.584 
L 309.47122 307.584 
L 309.47122 306.665058 
L 308.019512 306.665058 
z
" style="fill:#1f77b4;"/>
   </g>
   <g id="patch_90">
    <path clip-path="url(#pdfb87586fe)" d="M 310.922927 307.584 
L 312.374634 307.584 
L 312.374634 305.130324 
L 310.922927 305.130324 
z
" style="fill:#1f77b4;"/>
   </g>
   <g id="patch_91">
    <path clip-path="url(#pdfb87586fe)" d="M 313.826341 307.584 
L 315.278049 307.584 
L 315.278049 306.607473 
L 313.826341 306.607473 
z
" style="fill:#1f77b4;"/>
   </g>
   <g id="patch_92">
    <path clip-path="url(#pdfb87586fe)" d="M 316.729756 307.584 
L 318.181463 307.584 
L 318.181463 306.388735 
L 316.729756 306.388735 
z
" style="fill:#1f77b4;"/>
   </g>
   <g id="patch_93">
    <path clip-path="url(#pdfb87586fe)" d="M 319.633171 307.584 
L 321.084878 307.584 
L 321.084878 306.168585 
L 319.633171 306.168585 
z
" style="fill:#1f77b4;"/>
   </g>
   <g id="patch_94">
    <path clip-path="url(#pdfb87586fe)" d="M 322.536585 307.584 
L 323.988293 307.584 
L 323.988293 306.569922 
L 322.536585 306.569922 
z
" style="fill:#1f77b4;"/>
   </g>
   <g id="patch_95">
    <path clip-path="url(#pdfb87586fe)" d="M 325.44 307.584 
L 326.891707 307.584 
L 326.891707 307.000811 
L 325.44 307.000811 
z
" style="fill:#1f77b4;"/>
   </g>
   <g id="patch_96">
    <path clip-path="url(#pdfb87586fe)" d="M 328.343415 307.584 
L 329.795122 307.584 
L 329.795122 303.428214 
L 328.343415 303.428214 
z
" style="fill:#1f77b4;"/>
   </g>
   <g id="patch_97">
    <path clip-path="url(#pdfb87586fe)" d="M 331.246829 307.584 
L 332.698537 307.584 
L 332.698537 306.457985 
L 331.246829 306.457985 
z
" style="fill:#1f77b4;"/>
   </g>
   <g id="patch_98">
    <path clip-path="url(#pdfb87586fe)" d="M 334.150244 307.584 
L 335.601951 307.584 
L 335.601951 305.043166 
L 334.150244 305.043166 
z
" style="fill:#1f77b4;"/>
   </g>
   <g id="patch_99">
    <path clip-path="url(#pdfb87586fe)" d="M 337.053659 307.584 
L 338.505366 307.584 
L 338.505366 306.375062 
L 337.053659 306.375062 
z
" style="fill:#1f77b4;"/>
   </g>
   <g id="patch_100">
    <path clip-path="url(#pdfb87586fe)" d="M 339.957073 307.584 
L 341.40878 307.584 
L 341.40878 302.811968 
L 339.957073 302.811968 
z
" style="fill:#1f77b4;"/>
   </g>
   <g id="patch_101">
    <path clip-path="url(#pdfb87586fe)" d="M 342.860488 307.584 
L 344.312195 307.584 
L 344.312195 306.730446 
L 342.860488 306.730446 
z
" style="fill:#1f77b4;"/>
   </g>
   <g id="patch_102">
    <path clip-path="url(#pdfb87586fe)" d="M 345.763902 307.584 
L 347.21561 307.584 
L 347.21561 306.400801 
L 345.763902 306.400801 
z
" style="fill:#1f77b4;"/>
   </g>
   <g id="patch_103">
    <path clip-path="url(#pdfb87586fe)" d="M 348.667317 307.584 
L 350.119024 307.584 
L 350.119024 306.289664 
L 348.667317 306.289664 
z
" style="fill:#1f77b4;"/>
   </g>
   <g id="patch_104">
    <path clip-path="url(#pdfb87586fe)" d="M 351.570732 307.584 
L 353.022439 307.584 
L 353.022439 305.816894 
L 351.570732 305.816894 
z
" style="fill:#1f77b4;"/>
   </g>
   <g id="patch_105">
    <path clip-path="url(#pdfb87586fe)" d="M 354.474146 307.584 
L 355.925854 307.584 
L 355.925854 305.999782 
L 354.474146 305.999782 
z
" style="fill:#1f77b4;"/>
   </g>
   <g id="patch_106">
    <path clip-path="url(#pdfb87586fe)" d="M 357.377561 307.584 
L 358.829268 307.584 
L 358.829268 306.006871 
L 357.377561 306.006871 
z
" style="fill:#1f77b4;"/>
   </g>
   <g id="patch_107">
    <path clip-path="url(#pdfb87586fe)" d="M 360.280976 307.584 
L 361.732683 307.584 
L 361.732683 306.748311 
L 360.280976 306.748311 
z
" style="fill:#1f77b4;"/>
   </g>
   <g id="patch_108">
    <path clip-path="url(#pdfb87586fe)" d="M 363.18439 307.584 
L 364.636098 307.584 
L 364.636098 305.648592 
L 363.18439 305.648592 
z
" style="fill:#1f77b4;"/>
   </g>
   <g id="patch_109">
    <path clip-path="url(#pdfb87586fe)" d="M 366.087805 307.584 
L 367.539512 307.584 
L 367.539512 305.474164 
L 366.087805 305.474164 
z
" style="fill:#1f77b4;"/>
   </g>
   <g id="patch_110">
    <path clip-path="url(#pdfb87586fe)" d="M 368.99122 307.584 
L 370.442927 307.584 
L 370.442927 305.59782 
L 368.99122 305.59782 
z
" style="fill:#1f77b4;"/>
   </g>
   <g id="patch_111">
    <path clip-path="url(#pdfb87586fe)" d="M 371.894634 307.584 
L 373.346341 307.584 
L 373.346341 305.047949 
L 371.894634 305.047949 
z
" style="fill:#1f77b4;"/>
   </g>
   <g id="patch_112">
    <path clip-path="url(#pdfb87586fe)" d="M 374.798049 307.584 
L 376.249756 307.584 
L 376.249756 306.003625 
L 374.798049 306.003625 
z
" style="fill:#1f77b4;"/>
   </g>
   <g id="patch_113">
    <path clip-path="url(#pdfb87586fe)" d="M 377.701463 307.584 
L 379.153171 307.584 
L 379.153171 305.46944 
L 377.701463 305.46944 
z
" style="fill:#1f77b4;"/>
   </g>
   <g id="patch_114">
    <path clip-path="url(#pdfb87586fe)" d="M 380.604878 307.584 
L 382.056585 307.584 
L 382.056585 306.689048 
L 380.604878 306.689048 
z
" style="fill:#1f77b4;"/>
   </g>
   <g id="patch_115">
    <path clip-path="url(#pdfb87586fe)" d="M 383.508293 307.584 
L 384.96 307.584 
L 384.96 306.103976 
L 383.508293 306.103976 
z
" style="fill:#1f77b4;"/>
   </g>
   <g id="patch_116">
    <path clip-path="url(#pdfb87586fe)" d="M 386.411707 307.584 
L 387.863415 307.584 
L 387.863415 306.710667 
L 386.411707 306.710667 
z
" style="fill:#1f77b4;"/>
   </g>
   <g id="patch_117">
    <path clip-path="url(#pdfb87586fe)" d="M 389.315122 307.584 
L 390.766829 307.584 
L 390.766829 306.502341 
L 389.315122 306.502341 
z
" style="fill:#1f77b4;"/>
   </g>
   <g id="patch_118">
    <path clip-path="url(#pdfb87586fe)" d="M 392.218537 307.584 
L 393.670244 307.584 
L 393.670244 306.024596 
L 392.218537 306.024596 
z
" style="fill:#1f77b4;"/>
   </g>
   <g id="patch_119">
    <path clip-path="url(#pdfb87586fe)" d="M 395.121951 307.584 
L 396.573659 307.584 
L 396.573659 307.002312 
L 395.121951 307.002312 
z
" style="fill:#1f77b4;"/>
   </g>
   <g id="patch_120">
    <path clip-path="url(#pdfb87586fe)" d="M 398.025366 307.584 
L 399.477073 307.584 
L 399.477073 307.151859 
L 398.025366 307.151859 
z
" style="fill:#1f77b4;"/>
   </g>
   <g id="patch_121">
    <path clip-path="url(#pdfb87586fe)" d="M 400.92878 307.584 
L 402.380488 307.584 
L 402.380488 305.692584 
L 400.92878 305.692584 
z
" style="fill:#1f77b4;"/>
   </g>
   <g id="patch_122">
    <path clip-path="url(#pdfb87586fe)" d="M 403.832195 307.584 
L 405.283902 307.584 
L 405.283902 305.444917 
L 403.832195 305.444917 
z
" style="fill:#1f77b4;"/>
   </g>
   <g id="patch_123">
    <path clip-path="url(#pdfb87586fe)" d="M 406.73561 307.584 
L 408.187317 307.584 
L 408.187317 305.951314 
L 406.73561 305.951314 
z
" style="fill:#1f77b4;"/>
   </g>
   <g id="patch_124">
    <path clip-path="url(#pdfb87586fe)" d="M 409.639024 307.584 
L 411.090732 307.584 
L 411.090732 305.710182 
L 409.639024 305.710182 
z
" style="fill:#1f77b4;"/>
   </g>
   <g id="patch_125">
    <path clip-path="url(#pdfb87586fe)" d="M 412.542439 307.584 
L 413.994146 307.584 
L 413.994146 304.829036 
L 412.542439 304.829036 
z
" style="fill:#1f77b4;"/>
   </g>
   <g id="patch_126">
    <path clip-path="url(#pdfb87586fe)" d="M 58.325854 306.650947 
L 59.777561 306.650947 
L 59.777561 300.548596 
L 58.325854 300.548596 
z
" style="fill:#ff7f0e;"/>
   </g>
   <g id="patch_127">
    <path clip-path="url(#pdfb87586fe)" d="M 61.229268 305.374155 
L 62.680976 305.374155 
L 62.680976 295.118298 
L 61.229268 295.118298 
z
" style="fill:#ff7f0e;"/>
   </g>
   <g id="patch_128">
    <path clip-path="url(#pdfb87586fe)" d="M 64.132683 307.138819 
L 65.58439 307.138819 
L 65.58439 256.394872 
L 64.132683 256.394872 
z
" style="fill:#ff7f0e;"/>
   </g>
   <g id="patch_129">
    <path clip-path="url(#pdfb87586fe)" d="M 67.036098 306.859495 
L 68.487805 306.859495 
L 68.487805 306.359917 
L 67.036098 306.359917 
z
" style="fill:#ff7f0e;"/>
   </g>
   <g id="patch_130">
    <path clip-path="url(#pdfb87586fe)" d="M 69.939512 306.90408 
L 71.39122 306.90408 
L 71.39122 306.517063 
L 69.939512 306.517063 
z
" style="fill:#ff7f0e;"/>
   </g>
   <g id="patch_131">
    <path clip-path="url(#pdfb87586fe)" d="M 72.842927 306.556043 
L 74.294634 306.556043 
L 74.294634 268.421559 
L 72.842927 268.421559 
z
" style="fill:#ff7f0e;"/>
   </g>
   <g id="patch_132">
    <path clip-path="url(#pdfb87586fe)" d="M 75.746341 307.042218 
L 77.198049 307.042218 
L 77.198049 196.210607 
L 75.746341 196.210607 
z
" style="fill:#ff7f0e;"/>
   </g>
   <g id="patch_133">
    <path clip-path="url(#pdfb87586fe)" d="M 78.649756 306.143365 
L 80.101463 306.143365 
L 80.101463 229.992882 
L 78.649756 229.992882 
z
" style="fill:#ff7f0e;"/>
   </g>
   <g id="patch_134">
    <path clip-path="url(#pdfb87586fe)" d="M 81.553171 306.480134 
L 83.004878 306.480134 
L 83.004878 304.742148 
L 81.553171 304.742148 
z
" style="fill:#ff7f0e;"/>
   </g>
   <g id="patch_135">
    <path clip-path="url(#pdfb87586fe)" d="M 84.456585 305.989529 
L 85.908293 305.989529 
L 85.908293 299.176891 
L 84.456585 299.176891 
z
" style="fill:#ff7f0e;"/>
   </g>
   <g id="patch_136">
    <path clip-path="url(#pdfb87586fe)" d="M 87.36 306.053394 
L 88.811707 306.053394 
L 88.811707 298.806488 
L 87.36 298.806488 
z
" style="fill:#ff7f0e;"/>
   </g>
   <g id="patch_137">
    <path clip-path="url(#pdfb87586fe)" d="M 90.263415 306.236878 
L 91.715122 306.236878 
L 91.715122 302.633673 
L 90.263415 302.633673 
z
" style="fill:#ff7f0e;"/>
   </g>
   <g id="patch_138">
    <path clip-path="url(#pdfb87586fe)" d="M 93.166829 305.97448 
L 94.618537 305.97448 
L 94.618537 256.056732 
L 93.166829 256.056732 
z
" style="fill:#ff7f0e;"/>
   </g>
   <g id="patch_139">
    <path clip-path="url(#pdfb87586fe)" d="M 96.070244 306.127618 
L 97.521951 306.127618 
L 97.521951 294.745678 
L 96.070244 294.745678 
z
" style="fill:#ff7f0e;"/>
   </g>
   <g id="patch_140">
    <path clip-path="url(#pdfb87586fe)" d="M 98.973659 306.531632 
L 100.425366 306.531632 
L 100.425366 302.382922 
L 98.973659 302.382922 
z
" style="fill:#ff7f0e;"/>
   </g>
   <g id="patch_141">
    <path clip-path="url(#pdfb87586fe)" d="M 101.877073 306.773317 
L 103.32878 306.773317 
L 103.32878 283.924085 
L 101.877073 283.924085 
z
" style="fill:#ff7f0e;"/>
   </g>
   <g id="patch_142">
    <path clip-path="url(#pdfb87586fe)" d="M 104.780488 305.790939 
L 106.232195 305.790939 
L 106.232195 289.942617 
L 104.780488 289.942617 
z
" style="fill:#ff7f0e;"/>
   </g>
   <g id="patch_143">
    <path clip-path="url(#pdfb87586fe)" d="M 107.683902 305.182555 
L 109.13561 305.182555 
L 109.13561 289.494785 
L 107.683902 289.494785 
z
" style="fill:#ff7f0e;"/>
   </g>
   <g id="patch_144">
    <path clip-path="url(#pdfb87586fe)" d="M 110.587317 306.530453 
L 112.039024 306.530453 
L 112.039024 298.326713 
L 110.587317 298.326713 
z
" style="fill:#ff7f0e;"/>
   </g>
   <g id="patch_145">
    <path clip-path="url(#pdfb87586fe)" d="M 113.490732 307.383368 
L 114.942439 307.383368 
L 114.942439 307.2442 
L 113.490732 307.2442 
z
" style="fill:#ff7f0e;"/>
   </g>
   <g id="patch_146">
    <path clip-path="url(#pdfb87586fe)" d="M 116.394146 306.828137 
L 117.845854 306.828137 
L 117.845854 277.178024 
L 116.394146 277.178024 
z
" style="fill:#ff7f0e;"/>
   </g>
   <g id="patch_147">
    <path clip-path="url(#pdfb87586fe)" d="M 119.297561 307.116429 
L 120.749268 307.116429 
L 120.749268 304.863125 
L 119.297561 304.863125 
z
" style="fill:#ff7f0e;"/>
   </g>
   <g id="patch_148">
    <path clip-path="url(#pdfb87586fe)" d="M 122.200976 306.624329 
L 123.652683 306.624329 
L 123.652683 302.291162 
L 122.200976 302.291162 
z
" style="fill:#ff7f0e;"/>
   </g>
   <g id="patch_149">
    <path clip-path="url(#pdfb87586fe)" d="M 125.10439 304.135306 
L 126.556098 304.135306 
L 126.556098 290.775474 
L 125.10439 290.775474 
z
" style="fill:#ff7f0e;"/>
   </g>
   <g id="patch_150">
    <path clip-path="url(#pdfb87586fe)" d="M 128.007805 305.299333 
L 129.459512 305.299333 
L 129.459512 268.652038 
L 128.007805 268.652038 
z
" style="fill:#ff7f0e;"/>
   </g>
   <g id="patch_151">
    <path clip-path="url(#pdfb87586fe)" d="M 130.91122 307.306429 
L 132.362927 307.306429 
L 132.362927 230.200741 
L 130.91122 230.200741 
z
" style="fill:#ff7f0e;"/>
   </g>
   <g id="patch_152">
    <path clip-path="url(#pdfb87586fe)" d="M 133.814634 306.65148 
L 135.266341 306.65148 
L 135.266341 284.850216 
L 133.814634 284.850216 
z
" style="fill:#ff7f0e;"/>
   </g>
   <g id="patch_153">
    <path clip-path="url(#pdfb87586fe)" d="M 136.718049 306.175714 
L 138.169756 306.175714 
L 138.169756 227.251924 
L 136.718049 227.251924 
z
" style="fill:#ff7f0e;"/>
   </g>
   <g id="patch_154">
    <path clip-path="url(#pdfb87586fe)" d="M 139.621463 306.604458 
L 141.073171 306.604458 
L 141.073171 302.349025 
L 139.621463 302.349025 
z
" style="fill:#ff7f0e;"/>
   </g>
   <g id="patch_155">
    <path clip-path="url(#pdfb87586fe)" d="M 142.524878 306.632039 
L 143.976585 306.632039 
L 143.976585 305.915208 
L 142.524878 305.915208 
z
" style="fill:#ff7f0e;"/>
   </g>
   <g id="patch_156">
    <path clip-path="url(#pdfb87586fe)" d="M 145.428293 306.024366 
L 146.88 306.024366 
L 146.88 289.524963 
L 145.428293 289.524963 
z
" style="fill:#ff7f0e;"/>
   </g>
   <g id="patch_157">
    <path clip-path="url(#pdfb87586fe)" d="M 148.331707 306.956207 
L 149.783415 306.956207 
L 149.783415 303.382564 
L 148.331707 303.382564 
z
" style="fill:#ff7f0e;"/>
   </g>
   <g id="patch_158">
    <path clip-path="url(#pdfb87586fe)" d="M 151.235122 306.190171 
L 152.686829 306.190171 
L 152.686829 301.800086 
L 151.235122 301.800086 
z
" style="fill:#ff7f0e;"/>
   </g>
   <g id="patch_159">
    <path clip-path="url(#pdfb87586fe)" d="M 154.138537 304.033327 
L 155.590244 304.033327 
L 155.590244 276.637101 
L 154.138537 276.637101 
z
" style="fill:#ff7f0e;"/>
   </g>
   <g id="patch_160">
    <path clip-path="url(#pdfb87586fe)" d="M 157.041951 306.291408 
L 158.493659 306.291408 
L 158.493659 245.573247 
L 157.041951 245.573247 
z
" style="fill:#ff7f0e;"/>
   </g>
   <g id="patch_161">
    <path clip-path="url(#pdfb87586fe)" d="M 159.945366 305.622107 
L 161.397073 305.622107 
L 161.397073 298.899016 
L 159.945366 298.899016 
z
" style="fill:#ff7f0e;"/>
   </g>
   <g id="patch_162">
    <path clip-path="url(#pdfb87586fe)" d="M 162.84878 306.615486 
L 164.300488 306.615486 
L 164.300488 304.676543 
L 162.84878 304.676543 
z
" style="fill:#ff7f0e;"/>
   </g>
   <g id="patch_163">
    <path clip-path="url(#pdfb87586fe)" d="M 165.752195 306.396825 
L 167.203902 306.396825 
L 167.203902 305.572847 
L 165.752195 305.572847 
z
" style="fill:#ff7f0e;"/>
   </g>
   <g id="patch_164">
    <path clip-path="url(#pdfb87586fe)" d="M 168.65561 306.352118 
L 170.107317 306.352118 
L 170.107317 277.692283 
L 168.65561 277.692283 
z
" style="fill:#ff7f0e;"/>
   </g>
   <g id="patch_165">
    <path clip-path="url(#pdfb87586fe)" d="M 171.559024 306.017348 
L 173.010732 306.017348 
L 173.010732 199.216502 
L 171.559024 199.216502 
z
" style="fill:#ff7f0e;"/>
   </g>
   <g id="patch_166">
    <path clip-path="url(#pdfb87586fe)" d="M 174.462439 305.883962 
L 175.914146 305.883962 
L 175.914146 199.03261 
L 174.462439 199.03261 
z
" style="fill:#ff7f0e;"/>
   </g>
   <g id="patch_167">
    <path clip-path="url(#pdfb87586fe)" d="M 177.365854 304.380119 
L 178.817561 304.380119 
L 178.817561 264.95419 
L 177.365854 264.95419 
z
" style="fill:#ff7f0e;"/>
   </g>
   <g id="patch_168">
    <path clip-path="url(#pdfb87586fe)" d="M 180.269268 306.151759 
L 181.720976 306.151759 
L 181.720976 302.435709 
L 180.269268 302.435709 
z
" style="fill:#ff7f0e;"/>
   </g>
   <g id="patch_169">
    <path clip-path="url(#pdfb87586fe)" d="M 183.172683 306.596366 
L 184.62439 306.596366 
L 184.62439 271.613411 
L 183.172683 271.613411 
z
" style="fill:#ff7f0e;"/>
   </g>
   <g id="patch_170">
    <path clip-path="url(#pdfb87586fe)" d="M 186.076098 306.363945 
L 187.527805 306.363945 
L 187.527805 250.558274 
L 186.076098 250.558274 
z
" style="fill:#ff7f0e;"/>
   </g>
   <g id="patch_171">
    <path clip-path="url(#pdfb87586fe)" d="M 188.979512 306.838249 
L 190.43122 306.838249 
L 190.43122 242.075572 
L 188.979512 242.075572 
z
" style="fill:#ff7f0e;"/>
   </g>
   <g id="patch_172">
    <path clip-path="url(#pdfb87586fe)" d="M 191.882927 306.158418 
L 193.334634 306.158418 
L 193.334634 305.314101 
L 191.882927 305.314101 
z
" style="fill:#ff7f0e;"/>
   </g>
   <g id="patch_173">
    <path clip-path="url(#pdfb87586fe)" d="M 194.786341 306.764756 
L 196.238049 306.764756 
L 196.238049 305.939208 
L 194.786341 305.939208 
z
" style="fill:#ff7f0e;"/>
   </g>
   <g id="patch_174">
    <path clip-path="url(#pdfb87586fe)" d="M 197.689756 306.400044 
L 199.141463 306.400044 
L 199.141463 288.131738 
L 197.689756 288.131738 
z
" style="fill:#ff7f0e;"/>
   </g>
   <g id="patch_175">
    <path clip-path="url(#pdfb87586fe)" d="M 200.593171 305.186916 
L 202.044878 305.186916 
L 202.044878 293.421394 
L 200.593171 293.421394 
z
" style="fill:#ff7f0e;"/>
   </g>
   <g id="patch_176">
    <path clip-path="url(#pdfb87586fe)" d="M 203.496585 306.986831 
L 204.948293 306.986831 
L 204.948293 232.464791 
L 203.496585 232.464791 
z
" style="fill:#ff7f0e;"/>
   </g>
   <g id="patch_177">
    <path clip-path="url(#pdfb87586fe)" d="M 206.4 305.098599 
L 207.851707 305.098599 
L 207.851707 299.191703 
L 206.4 299.191703 
z
" style="fill:#ff7f0e;"/>
   </g>
   <g id="patch_178">
    <path clip-path="url(#pdfb87586fe)" d="M 209.303415 306.639561 
L 210.755122 306.639561 
L 210.755122 235.889251 
L 209.303415 235.889251 
z
" style="fill:#ff7f0e;"/>
   </g>
   <g id="patch_179">
    <path clip-path="url(#pdfb87586fe)" d="M 212.206829 302.578877 
L 213.658537 302.578877 
L 213.658537 282.082557 
L 212.206829 282.082557 
z
" style="fill:#ff7f0e;"/>
   </g>
   <g id="patch_180">
    <path clip-path="url(#pdfb87586fe)" d="M 215.110244 306.411349 
L 216.561951 306.411349 
L 216.561951 305.558412 
L 215.110244 305.558412 
z
" style="fill:#ff7f0e;"/>
   </g>
   <g id="patch_181">
    <path clip-path="url(#pdfb87586fe)" d="M 218.013659 306.975068 
L 219.465366 306.975068 
L 219.465366 256.197893 
L 218.013659 256.197893 
z
" style="fill:#ff7f0e;"/>
   </g>
   <g id="patch_182">
    <path clip-path="url(#pdfb87586fe)" d="M 220.917073 306.937295 
L 222.36878 306.937295 
L 222.36878 306.533313 
L 220.917073 306.533313 
z
" style="fill:#ff7f0e;"/>
   </g>
   <g id="patch_183">
    <path clip-path="url(#pdfb87586fe)" d="M 223.820488 305.517332 
L 225.272195 305.517332 
L 225.272195 255.636616 
L 223.820488 255.636616 
z
" style="fill:#ff7f0e;"/>
   </g>
   <g id="patch_184">
    <path clip-path="url(#pdfb87586fe)" d="M 226.723902 306.983269 
L 228.17561 306.983269 
L 228.17561 306.578433 
L 226.723902 306.578433 
z
" style="fill:#ff7f0e;"/>
   </g>
   <g id="patch_185">
    <path clip-path="url(#pdfb87586fe)" d="M 229.627317 307.251664 
L 231.079024 307.251664 
L 231.079024 307.009877 
L 229.627317 307.009877 
z
" style="fill:#ff7f0e;"/>
   </g>
   <g id="patch_186">
    <path clip-path="url(#pdfb87586fe)" d="M 232.530732 307.205992 
L 233.982439 307.205992 
L 233.982439 305.419381 
L 232.530732 305.419381 
z
" style="fill:#ff7f0e;"/>
   </g>
   <g id="patch_187">
    <path clip-path="url(#pdfb87586fe)" d="M 235.434146 305.813162 
L 236.885854 305.813162 
L 236.885854 296.127802 
L 235.434146 296.127802 
z
" style="fill:#ff7f0e;"/>
   </g>
   <g id="patch_188">
    <path clip-path="url(#pdfb87586fe)" d="M 238.337561 306.759783 
L 239.789268 306.759783 
L 239.789268 302.860993 
L 238.337561 302.860993 
z
" style="fill:#ff7f0e;"/>
   </g>
   <g id="patch_189">
    <path clip-path="url(#pdfb87586fe)" d="M 241.240976 307.166016 
L 242.692683 307.166016 
L 242.692683 306.903841 
L 241.240976 306.903841 
z
" style="fill:#ff7f0e;"/>
   </g>
   <g id="patch_190">
    <path clip-path="url(#pdfb87586fe)" d="M 244.14439 306.294335 
L 245.596098 306.294335 
L 245.596098 226.906052 
L 244.14439 226.906052 
z
" style="fill:#ff7f0e;"/>
   </g>
   <g id="patch_191">
    <path clip-path="url(#pdfb87586fe)" d="M 247.047805 305.331354 
L 248.499512 305.331354 
L 248.499512 289.413875 
L 247.047805 289.413875 
z
" style="fill:#ff7f0e;"/>
   </g>
   <g id="patch_192">
    <path clip-path="url(#pdfb87586fe)" d="M 249.95122 304.503716 
L 251.402927 304.503716 
L 251.402927 192.30852 
L 249.95122 192.30852 
z
" style="fill:#ff7f0e;"/>
   </g>
   <g id="patch_193">
    <path clip-path="url(#pdfb87586fe)" d="M 252.854634 305.256624 
L 254.306341 305.256624 
L 254.306341 137.747841 
L 252.854634 137.747841 
z
" style="fill:#ff7f0e;"/>
   </g>
   <g id="patch_194">
    <path clip-path="url(#pdfb87586fe)" d="M 255.758049 305.645431 
L 257.209756 305.645431 
L 257.209756 303.65006 
L 255.758049 303.65006 
z
" style="fill:#ff7f0e;"/>
   </g>
   <g id="patch_195">
    <path clip-path="url(#pdfb87586fe)" d="M 258.661463 305.028598 
L 260.113171 305.028598 
L 260.113171 299.009852 
L 258.661463 299.009852 
z
" style="fill:#ff7f0e;"/>
   </g>
   <g id="patch_196">
    <path clip-path="url(#pdfb87586fe)" d="M 261.564878 307.084884 
L 263.016585 307.084884 
L 263.016585 301.874338 
L 261.564878 301.874338 
z
" style="fill:#ff7f0e;"/>
   </g>
   <g id="patch_197">
    <path clip-path="url(#pdfb87586fe)" d="M 264.468293 306.980988 
L 265.92 306.980988 
L 265.92 255.159665 
L 264.468293 255.159665 
z
" style="fill:#ff7f0e;"/>
   </g>
   <g id="patch_198">
    <path clip-path="url(#pdfb87586fe)" d="M 267.371707 306.46082 
L 268.823415 306.46082 
L 268.823415 302.852494 
L 267.371707 302.852494 
z
" style="fill:#ff7f0e;"/>
   </g>
   <g id="patch_199">
    <path clip-path="url(#pdfb87586fe)" d="M 270.275122 306.668379 
L 271.726829 306.668379 
L 271.726829 306.156603 
L 270.275122 306.156603 
z
" style="fill:#ff7f0e;"/>
   </g>
   <g id="patch_200">
    <path clip-path="url(#pdfb87586fe)" d="M 273.178537 306.115794 
L 274.630244 306.115794 
L 274.630244 299.068026 
L 273.178537 299.068026 
z
" style="fill:#ff7f0e;"/>
   </g>
   <g id="patch_201">
    <path clip-path="url(#pdfb87586fe)" d="M 276.081951 305.352911 
L 277.533659 305.352911 
L 277.533659 301.390947 
L 276.081951 301.390947 
z
" style="fill:#ff7f0e;"/>
   </g>
   <g id="patch_202">
    <path clip-path="url(#pdfb87586fe)" d="M 278.985366 305.641577 
L 280.437073 305.641577 
L 280.437073 299.467431 
L 278.985366 299.467431 
z
" style="fill:#ff7f0e;"/>
   </g>
   <g id="patch_203">
    <path clip-path="url(#pdfb87586fe)" d="M 281.88878 305.755906 
L 283.340488 305.755906 
L 283.340488 302.955005 
L 281.88878 302.955005 
z
" style="fill:#ff7f0e;"/>
   </g>
   <g id="patch_204">
    <path clip-path="url(#pdfb87586fe)" d="M 284.792195 305.930556 
L 286.243902 305.930556 
L 286.243902 293.715284 
L 284.792195 293.715284 
z
" style="fill:#ff7f0e;"/>
   </g>
   <g id="patch_205">
    <path clip-path="url(#pdfb87586fe)" d="M 287.69561 306.937697 
L 289.147317 306.937697 
L 289.147317 305.749701 
L 287.69561 305.749701 
z
" style="fill:#ff7f0e;"/>
   </g>
   <g id="patch_206">
    <path clip-path="url(#pdfb87586fe)" d="M 290.599024 306.951469 
L 292.050732 306.951469 
L 292.050732 306.546991 
L 290.599024 306.546991 
z
" style="fill:#ff7f0e;"/>
   </g>
   <g id="patch_207">
    <path clip-path="url(#pdfb87586fe)" d="M 293.502439 305.426945 
L 294.954146 305.426945 
L 294.954146 298.738993 
L 293.502439 298.738993 
z
" style="fill:#ff7f0e;"/>
   </g>
   <g id="patch_208">
    <path clip-path="url(#pdfb87586fe)" d="M 296.405854 306.775535 
L 297.857561 306.775535 
L 297.857561 304.99817 
L 296.405854 304.99817 
z
" style="fill:#ff7f0e;"/>
   </g>
   <g id="patch_209">
    <path clip-path="url(#pdfb87586fe)" d="M 299.309268 307.156153 
L 300.760976 307.156153 
L 300.760976 305.542196 
L 299.309268 305.542196 
z
" style="fill:#ff7f0e;"/>
   </g>
   <g id="patch_210">
    <path clip-path="url(#pdfb87586fe)" d="M 302.212683 305.592126 
L 303.66439 305.592126 
L 303.66439 236.77575 
L 302.212683 236.77575 
z
" style="fill:#ff7f0e;"/>
   </g>
   <g id="patch_211">
    <path clip-path="url(#pdfb87586fe)" d="M 305.116098 305.686921 
L 306.567805 305.686921 
L 306.567805 255.381501 
L 305.116098 255.381501 
z
" style="fill:#ff7f0e;"/>
   </g>
   <g id="patch_212">
    <path clip-path="url(#pdfb87586fe)" d="M 308.019512 306.665058 
L 309.47122 306.665058 
L 309.47122 304.027173 
L 308.019512 304.027173 
z
" style="fill:#ff7f0e;"/>
   </g>
   <g id="patch_213">
    <path clip-path="url(#pdfb87586fe)" d="M 310.922927 305.130324 
L 312.374634 305.130324 
L 312.374634 226.373392 
L 310.922927 226.373392 
z
" style="fill:#ff7f0e;"/>
   </g>
   <g id="patch_214">
    <path clip-path="url(#pdfb87586fe)" d="M 313.826341 306.607473 
L 315.278049 306.607473 
L 315.278049 305.88791 
L 313.826341 305.88791 
z
" style="fill:#ff7f0e;"/>
   </g>
   <g id="patch_215">
    <path clip-path="url(#pdfb87586fe)" d="M 316.729756 306.388735 
L 318.181463 306.388735 
L 318.181463 305.410842 
L 316.729756 305.410842 
z
" style="fill:#ff7f0e;"/>
   </g>
   <g id="patch_216">
    <path clip-path="url(#pdfb87586fe)" d="M 319.633171 306.168585 
L 321.084878 306.168585 
L 321.084878 304.639552 
L 319.633171 304.639552 
z
" style="fill:#ff7f0e;"/>
   </g>
   <g id="patch_217">
    <path clip-path="url(#pdfb87586fe)" d="M 322.536585 306.569922 
L 323.988293 306.569922 
L 323.988293 305.880102 
L 322.536585 305.880102 
z
" style="fill:#ff7f0e;"/>
   </g>
   <g id="patch_218">
    <path clip-path="url(#pdfb87586fe)" d="M 325.44 307.000811 
L 326.891707 307.000811 
L 326.891707 306.643899 
L 325.44 306.643899 
z
" style="fill:#ff7f0e;"/>
   </g>
   <g id="patch_219">
    <path clip-path="url(#pdfb87586fe)" d="M 328.343415 303.428214 
L 329.795122 303.428214 
L 329.795122 220.74013 
L 328.343415 220.74013 
z
" style="fill:#ff7f0e;"/>
   </g>
   <g id="patch_220">
    <path clip-path="url(#pdfb87586fe)" d="M 331.246829 306.457985 
L 332.698537 306.457985 
L 332.698537 298.971197 
L 331.246829 298.971197 
z
" style="fill:#ff7f0e;"/>
   </g>
   <g id="patch_221">
    <path clip-path="url(#pdfb87586fe)" d="M 334.150244 305.043166 
L 335.601951 305.043166 
L 335.601951 232.102267 
L 334.150244 232.102267 
z
" style="fill:#ff7f0e;"/>
   </g>
   <g id="patch_222">
    <path clip-path="url(#pdfb87586fe)" d="M 337.053659 306.375062 
L 338.505366 306.375062 
L 338.505366 303.130975 
L 337.053659 303.130975 
z
" style="fill:#ff7f0e;"/>
   </g>
   <g id="patch_223">
    <path clip-path="url(#pdfb87586fe)" d="M 339.957073 302.811968 
L 341.40878 302.811968 
L 341.40878 41.472 
L 339.957073 41.472 
z
" style="fill:#ff7f0e;"/>
   </g>
   <g id="patch_224">
    <path clip-path="url(#pdfb87586fe)" d="M 342.860488 306.730446 
L 344.312195 306.730446 
L 344.312195 304.436869 
L 342.860488 304.436869 
z
" style="fill:#ff7f0e;"/>
   </g>
   <g id="patch_225">
    <path clip-path="url(#pdfb87586fe)" d="M 345.763902 306.400801 
L 347.21561 306.400801 
L 347.21561 302.687875 
L 345.763902 302.687875 
z
" style="fill:#ff7f0e;"/>
   </g>
   <g id="patch_226">
    <path clip-path="url(#pdfb87586fe)" d="M 348.667317 306.289664 
L 350.119024 306.289664 
L 350.119024 295.755384 
L 348.667317 295.755384 
z
" style="fill:#ff7f0e;"/>
   </g>
   <g id="patch_227">
    <path clip-path="url(#pdfb87586fe)" d="M 351.570732 305.816894 
L 353.022439 305.816894 
L 353.022439 233.201384 
L 351.570732 233.201384 
z
" style="fill:#ff7f0e;"/>
   </g>
   <g id="patch_228">
    <path clip-path="url(#pdfb87586fe)" d="M 354.474146 305.999782 
L 355.925854 305.999782 
L 355.925854 204.450048 
L 354.474146 204.450048 
z
" style="fill:#ff7f0e;"/>
   </g>
   <g id="patch_229">
    <path clip-path="url(#pdfb87586fe)" d="M 357.377561 306.006871 
L 358.829268 306.006871 
L 358.829268 256.964308 
L 357.377561 256.964308 
z
" style="fill:#ff7f0e;"/>
   </g>
   <g id="patch_230">
    <path clip-path="url(#pdfb87586fe)" d="M 360.280976 306.748311 
L 361.732683 306.748311 
L 361.732683 295.978806 
L 360.280976 295.978806 
z
" style="fill:#ff7f0e;"/>
   </g>
   <g id="patch_231">
    <path clip-path="url(#pdfb87586fe)" d="M 363.18439 305.648592 
L 364.636098 305.648592 
L 364.636098 302.217664 
L 363.18439 302.217664 
z
" style="fill:#ff7f0e;"/>
   </g>
   <g id="patch_232">
    <path clip-path="url(#pdfb87586fe)" d="M 366.087805 305.474164 
L 367.539512 305.474164 
L 367.539512 298.1196 
L 366.087805 298.1196 
z
" style="fill:#ff7f0e;"/>
   </g>
   <g id="patch_233">
    <path clip-path="url(#pdfb87586fe)" d="M 368.99122 305.59782 
L 370.442927 305.59782 
L 370.442927 294.070169 
L 368.99122 294.070169 
z
" style="fill:#ff7f0e;"/>
   </g>
   <g id="patch_234">
    <path clip-path="url(#pdfb87586fe)" d="M 371.894634 305.047949 
L 373.346341 305.047949 
L 373.346341 228.651808 
L 371.894634 228.651808 
z
" style="fill:#ff7f0e;"/>
   </g>
   <g id="patch_235">
    <path clip-path="url(#pdfb87586fe)" d="M 374.798049 306.003625 
L 376.249756 306.003625 
L 376.249756 305.040587 
L 374.798049 305.040587 
z
" style="fill:#ff7f0e;"/>
   </g>
   <g id="patch_236">
    <path clip-path="url(#pdfb87586fe)" d="M 377.701463 305.46944 
L 379.153171 305.46944 
L 379.153171 281.603693 
L 377.701463 281.603693 
z
" style="fill:#ff7f0e;"/>
   </g>
   <g id="patch_237">
    <path clip-path="url(#pdfb87586fe)" d="M 380.604878 306.689048 
L 382.056585 306.689048 
L 382.056585 249.89063 
L 380.604878 249.89063 
z
" style="fill:#ff7f0e;"/>
   </g>
   <g id="patch_238">
    <path clip-path="url(#pdfb87586fe)" d="M 383.508293 306.103976 
L 384.96 306.103976 
L 384.96 305.162313 
L 383.508293 305.162313 
z
" style="fill:#ff7f0e;"/>
   </g>
   <g id="patch_239">
    <path clip-path="url(#pdfb87586fe)" d="M 386.411707 306.710667 
L 387.863415 306.710667 
L 387.863415 304.504411 
L 386.411707 304.504411 
z
" style="fill:#ff7f0e;"/>
   </g>
   <g id="patch_240">
    <path clip-path="url(#pdfb87586fe)" d="M 389.315122 306.502341 
L 390.766829 306.502341 
L 390.766829 276.688741 
L 389.315122 276.688741 
z
" style="fill:#ff7f0e;"/>
   </g>
   <g id="patch_241">
    <path clip-path="url(#pdfb87586fe)" d="M 392.218537 306.024596 
L 393.670244 306.024596 
L 393.670244 301.414034 
L 392.218537 301.414034 
z
" style="fill:#ff7f0e;"/>
   </g>
   <g id="patch_242">
    <path clip-path="url(#pdfb87586fe)" d="M 395.121951 307.002312 
L 396.573659 307.002312 
L 396.573659 305.542726 
L 395.121951 305.542726 
z
" style="fill:#ff7f0e;"/>
   </g>
   <g id="patch_243">
    <path clip-path="url(#pdfb87586fe)" d="M 398.025366 307.151859 
L 399.477073 307.151859 
L 399.477073 305.944683 
L 398.025366 305.944683 
z
" style="fill:#ff7f0e;"/>
   </g>
   <g id="patch_244">
    <path clip-path="url(#pdfb87586fe)" d="M 400.92878 305.692584 
L 402.380488 305.692584 
L 402.380488 249.907671 
L 400.92878 249.907671 
z
" style="fill:#ff7f0e;"/>
   </g>
   <g id="patch_245">
    <path clip-path="url(#pdfb87586fe)" d="M 403.832195 305.444917 
L 405.283902 305.444917 
L 405.283902 292.36244 
L 403.832195 292.36244 
z
" style="fill:#ff7f0e;"/>
   </g>
   <g id="patch_246">
    <path clip-path="url(#pdfb87586fe)" d="M 406.73561 305.951314 
L 408.187317 305.951314 
L 408.187317 304.261703 
L 406.73561 304.261703 
z
" style="fill:#ff7f0e;"/>
   </g>
   <g id="patch_247">
    <path clip-path="url(#pdfb87586fe)" d="M 409.639024 305.710182 
L 411.090732 305.710182 
L 411.090732 298.77797 
L 409.639024 298.77797 
z
" style="fill:#ff7f0e;"/>
   </g>
   <g id="patch_248">
    <path clip-path="url(#pdfb87586fe)" d="M 412.542439 304.829036 
L 413.994146 304.829036 
L 413.994146 278.272894 
L 412.542439 278.272894 
z
" style="fill:#ff7f0e;"/>
   </g>
   <g id="matplotlib.axis_1">
    <g id="xtick_1">
     <g id="line2d_1">
      <defs>
       <path d="M 0 0 
L 0 3.5 
" id="m637e007be8" style="stroke:#000000;stroke-width:0.8;"/>
      </defs>
      <g>
       <use style="stroke:#000000;stroke-width:0.8;" x="59.051707" xlink:href="#m637e007be8" y="307.584"/>
      </g>
     </g>
     <g id="text_1">
      <!-- 0 -->
      <g transform="translate(61.811082 320.9465)rotate(-90)scale(0.1 -0.1)">
       <defs>
        <path d="M 2034 4250 
Q 1547 4250 1301 3770 
Q 1056 3291 1056 2328 
Q 1056 1369 1301 889 
Q 1547 409 2034 409 
Q 2525 409 2770 889 
Q 3016 1369 3016 2328 
Q 3016 3291 2770 3770 
Q 2525 4250 2034 4250 
z
M 2034 4750 
Q 2819 4750 3233 4129 
Q 3647 3509 3647 2328 
Q 3647 1150 3233 529 
Q 2819 -91 2034 -91 
Q 1250 -91 836 529 
Q 422 1150 422 2328 
Q 422 3509 836 4129 
Q 1250 4750 2034 4750 
z
" id="DejaVuSans-30" transform="scale(0.015625)"/>
       </defs>
       <use xlink:href="#DejaVuSans-30"/>
      </g>
     </g>
    </g>
    <g id="xtick_2">
     <g id="line2d_2">
      <g>
       <use style="stroke:#000000;stroke-width:0.8;" x="79.37561" xlink:href="#m637e007be8" y="307.584"/>
      </g>
     </g>
     <g id="text_2">
      <!-- 7 -->
      <g transform="translate(82.134985 320.9465)rotate(-90)scale(0.1 -0.1)">
       <defs>
        <path d="M 525 4666 
L 3525 4666 
L 3525 4397 
L 1831 0 
L 1172 0 
L 2766 4134 
L 525 4134 
L 525 4666 
z
" id="DejaVuSans-37" transform="scale(0.015625)"/>
       </defs>
       <use xlink:href="#DejaVuSans-37"/>
      </g>
     </g>
    </g>
    <g id="xtick_3">
     <g id="line2d_3">
      <g>
       <use style="stroke:#000000;stroke-width:0.8;" x="99.699512" xlink:href="#m637e007be8" y="307.584"/>
      </g>
     </g>
     <g id="text_3">
      <!-- 15 -->
      <g transform="translate(102.458887 327.309)rotate(-90)scale(0.1 -0.1)">
       <defs>
        <path d="M 794 531 
L 1825 531 
L 1825 4091 
L 703 3866 
L 703 4441 
L 1819 4666 
L 2450 4666 
L 2450 531 
L 3481 531 
L 3481 0 
L 794 0 
L 794 531 
z
" id="DejaVuSans-31" transform="scale(0.015625)"/>
        <path d="M 691 4666 
L 3169 4666 
L 3169 4134 
L 1269 4134 
L 1269 2991 
Q 1406 3038 1543 3061 
Q 1681 3084 1819 3084 
Q 2600 3084 3056 2656 
Q 3513 2228 3513 1497 
Q 3513 744 3044 326 
Q 2575 -91 1722 -91 
Q 1428 -91 1123 -41 
Q 819 9 494 109 
L 494 744 
Q 775 591 1075 516 
Q 1375 441 1709 441 
Q 2250 441 2565 725 
Q 2881 1009 2881 1497 
Q 2881 1984 2565 2268 
Q 2250 2553 1709 2553 
Q 1456 2553 1204 2497 
Q 953 2441 691 2322 
L 691 4666 
z
" id="DejaVuSans-35" transform="scale(0.015625)"/>
       </defs>
       <use xlink:href="#DejaVuSans-31"/>
       <use x="63.623047" xlink:href="#DejaVuSans-35"/>
      </g>
     </g>
    </g>
    <g id="xtick_4">
     <g id="line2d_4">
      <g>
       <use style="stroke:#000000;stroke-width:0.8;" x="120.023415" xlink:href="#m637e007be8" y="307.584"/>
      </g>
     </g>
     <g id="text_4">
      <!-- 22 -->
      <g transform="translate(122.78279 327.309)rotate(-90)scale(0.1 -0.1)">
       <defs>
        <path d="M 1228 531 
L 3431 531 
L 3431 0 
L 469 0 
L 469 531 
Q 828 903 1448 1529 
Q 2069 2156 2228 2338 
Q 2531 2678 2651 2914 
Q 2772 3150 2772 3378 
Q 2772 3750 2511 3984 
Q 2250 4219 1831 4219 
Q 1534 4219 1204 4116 
Q 875 4013 500 3803 
L 500 4441 
Q 881 4594 1212 4672 
Q 1544 4750 1819 4750 
Q 2544 4750 2975 4387 
Q 3406 4025 3406 3419 
Q 3406 3131 3298 2873 
Q 3191 2616 2906 2266 
Q 2828 2175 2409 1742 
Q 1991 1309 1228 531 
z
" id="DejaVuSans-32" transform="scale(0.015625)"/>
       </defs>
       <use xlink:href="#DejaVuSans-32"/>
       <use x="63.623047" xlink:href="#DejaVuSans-32"/>
      </g>
     </g>
    </g>
    <g id="xtick_5">
     <g id="line2d_5">
      <g>
       <use style="stroke:#000000;stroke-width:0.8;" x="140.347317" xlink:href="#m637e007be8" y="307.584"/>
      </g>
     </g>
     <g id="text_5">
      <!-- 29 -->
      <g transform="translate(143.106692 327.309)rotate(-90)scale(0.1 -0.1)">
       <defs>
        <path d="M 703 97 
L 703 672 
Q 941 559 1184 500 
Q 1428 441 1663 441 
Q 2288 441 2617 861 
Q 2947 1281 2994 2138 
Q 2813 1869 2534 1725 
Q 2256 1581 1919 1581 
Q 1219 1581 811 2004 
Q 403 2428 403 3163 
Q 403 3881 828 4315 
Q 1253 4750 1959 4750 
Q 2769 4750 3195 4129 
Q 3622 3509 3622 2328 
Q 3622 1225 3098 567 
Q 2575 -91 1691 -91 
Q 1453 -91 1209 -44 
Q 966 3 703 97 
z
M 1959 2075 
Q 2384 2075 2632 2365 
Q 2881 2656 2881 3163 
Q 2881 3666 2632 3958 
Q 2384 4250 1959 4250 
Q 1534 4250 1286 3958 
Q 1038 3666 1038 3163 
Q 1038 2656 1286 2365 
Q 1534 2075 1959 2075 
z
" id="DejaVuSans-39" transform="scale(0.015625)"/>
       </defs>
       <use xlink:href="#DejaVuSans-32"/>
       <use x="63.623047" xlink:href="#DejaVuSans-39"/>
      </g>
     </g>
    </g>
    <g id="xtick_6">
     <g id="line2d_6">
      <g>
       <use style="stroke:#000000;stroke-width:0.8;" x="160.67122" xlink:href="#m637e007be8" y="307.584"/>
      </g>
     </g>
     <g id="text_6">
      <!-- 36 -->
      <g transform="translate(163.430595 327.309)rotate(-90)scale(0.1 -0.1)">
       <defs>
        <path d="M 2597 2516 
Q 3050 2419 3304 2112 
Q 3559 1806 3559 1356 
Q 3559 666 3084 287 
Q 2609 -91 1734 -91 
Q 1441 -91 1130 -33 
Q 819 25 488 141 
L 488 750 
Q 750 597 1062 519 
Q 1375 441 1716 441 
Q 2309 441 2620 675 
Q 2931 909 2931 1356 
Q 2931 1769 2642 2001 
Q 2353 2234 1838 2234 
L 1294 2234 
L 1294 2753 
L 1863 2753 
Q 2328 2753 2575 2939 
Q 2822 3125 2822 3475 
Q 2822 3834 2567 4026 
Q 2313 4219 1838 4219 
Q 1578 4219 1281 4162 
Q 984 4106 628 3988 
L 628 4550 
Q 988 4650 1302 4700 
Q 1616 4750 1894 4750 
Q 2613 4750 3031 4423 
Q 3450 4097 3450 3541 
Q 3450 3153 3228 2886 
Q 3006 2619 2597 2516 
z
" id="DejaVuSans-33" transform="scale(0.015625)"/>
        <path d="M 2113 2584 
Q 1688 2584 1439 2293 
Q 1191 2003 1191 1497 
Q 1191 994 1439 701 
Q 1688 409 2113 409 
Q 2538 409 2786 701 
Q 3034 994 3034 1497 
Q 3034 2003 2786 2293 
Q 2538 2584 2113 2584 
z
M 3366 4563 
L 3366 3988 
Q 3128 4100 2886 4159 
Q 2644 4219 2406 4219 
Q 1781 4219 1451 3797 
Q 1122 3375 1075 2522 
Q 1259 2794 1537 2939 
Q 1816 3084 2150 3084 
Q 2853 3084 3261 2657 
Q 3669 2231 3669 1497 
Q 3669 778 3244 343 
Q 2819 -91 2113 -91 
Q 1303 -91 875 529 
Q 447 1150 447 2328 
Q 447 3434 972 4092 
Q 1497 4750 2381 4750 
Q 2619 4750 2861 4703 
Q 3103 4656 3366 4563 
z
" id="DejaVuSans-36" transform="scale(0.015625)"/>
       </defs>
       <use xlink:href="#DejaVuSans-33"/>
       <use x="63.623047" xlink:href="#DejaVuSans-36"/>
      </g>
     </g>
    </g>
    <g id="xtick_7">
     <g id="line2d_7">
      <g>
       <use style="stroke:#000000;stroke-width:0.8;" x="180.995122" xlink:href="#m637e007be8" y="307.584"/>
      </g>
     </g>
     <g id="text_7">
      <!-- 43 -->
      <g transform="translate(183.754497 327.309)rotate(-90)scale(0.1 -0.1)">
       <defs>
        <path d="M 2419 4116 
L 825 1625 
L 2419 1625 
L 2419 4116 
z
M 2253 4666 
L 3047 4666 
L 3047 1625 
L 3713 1625 
L 3713 1100 
L 3047 1100 
L 3047 0 
L 2419 0 
L 2419 1100 
L 313 1100 
L 313 1709 
L 2253 4666 
z
" id="DejaVuSans-34" transform="scale(0.015625)"/>
       </defs>
       <use xlink:href="#DejaVuSans-34"/>
       <use x="63.623047" xlink:href="#DejaVuSans-33"/>
      </g>
     </g>
    </g>
    <g id="xtick_8">
     <g id="line2d_8">
      <g>
       <use style="stroke:#000000;stroke-width:0.8;" x="201.319024" xlink:href="#m637e007be8" y="307.584"/>
      </g>
     </g>
     <g id="text_8">
      <!-- 50 -->
      <g transform="translate(204.078399 327.309)rotate(-90)scale(0.1 -0.1)">
       <use xlink:href="#DejaVuSans-35"/>
       <use x="63.623047" xlink:href="#DejaVuSans-30"/>
      </g>
     </g>
    </g>
    <g id="xtick_9">
     <g id="line2d_9">
      <g>
       <use style="stroke:#000000;stroke-width:0.8;" x="221.642927" xlink:href="#m637e007be8" y="307.584"/>
      </g>
     </g>
     <g id="text_9">
      <!-- 58 -->
      <g transform="translate(224.402302 327.309)rotate(-90)scale(0.1 -0.1)">
       <defs>
        <path d="M 2034 2216 
Q 1584 2216 1326 1975 
Q 1069 1734 1069 1313 
Q 1069 891 1326 650 
Q 1584 409 2034 409 
Q 2484 409 2743 651 
Q 3003 894 3003 1313 
Q 3003 1734 2745 1975 
Q 2488 2216 2034 2216 
z
M 1403 2484 
Q 997 2584 770 2862 
Q 544 3141 544 3541 
Q 544 4100 942 4425 
Q 1341 4750 2034 4750 
Q 2731 4750 3128 4425 
Q 3525 4100 3525 3541 
Q 3525 3141 3298 2862 
Q 3072 2584 2669 2484 
Q 3125 2378 3379 2068 
Q 3634 1759 3634 1313 
Q 3634 634 3220 271 
Q 2806 -91 2034 -91 
Q 1263 -91 848 271 
Q 434 634 434 1313 
Q 434 1759 690 2068 
Q 947 2378 1403 2484 
z
M 1172 3481 
Q 1172 3119 1398 2916 
Q 1625 2713 2034 2713 
Q 2441 2713 2670 2916 
Q 2900 3119 2900 3481 
Q 2900 3844 2670 4047 
Q 2441 4250 2034 4250 
Q 1625 4250 1398 4047 
Q 1172 3844 1172 3481 
z
" id="DejaVuSans-38" transform="scale(0.015625)"/>
       </defs>
       <use xlink:href="#DejaVuSans-35"/>
       <use x="63.623047" xlink:href="#DejaVuSans-38"/>
      </g>
     </g>
    </g>
    <g id="xtick_10">
     <g id="line2d_10">
      <g>
       <use style="stroke:#000000;stroke-width:0.8;" x="241.966829" xlink:href="#m637e007be8" y="307.584"/>
      </g>
     </g>
     <g id="text_10">
      <!-- 65 -->
      <g transform="translate(244.726204 327.309)rotate(-90)scale(0.1 -0.1)">
       <use xlink:href="#DejaVuSans-36"/>
       <use x="63.623047" xlink:href="#DejaVuSans-35"/>
      </g>
     </g>
    </g>
    <g id="xtick_11">
     <g id="line2d_11">
      <g>
       <use style="stroke:#000000;stroke-width:0.8;" x="262.290732" xlink:href="#m637e007be8" y="307.584"/>
      </g>
     </g>
     <g id="text_11">
      <!-- 72 -->
      <g transform="translate(265.050107 327.309)rotate(-90)scale(0.1 -0.1)">
       <use xlink:href="#DejaVuSans-37"/>
       <use x="63.623047" xlink:href="#DejaVuSans-32"/>
      </g>
     </g>
    </g>
    <g id="xtick_12">
     <g id="line2d_12">
      <g>
       <use style="stroke:#000000;stroke-width:0.8;" x="282.614634" xlink:href="#m637e007be8" y="307.584"/>
      </g>
     </g>
     <g id="text_12">
      <!-- 80 -->
      <g transform="translate(285.374009 327.309)rotate(-90)scale(0.1 -0.1)">
       <use xlink:href="#DejaVuSans-38"/>
       <use x="63.623047" xlink:href="#DejaVuSans-30"/>
      </g>
     </g>
    </g>
    <g id="xtick_13">
     <g id="line2d_13">
      <g>
       <use style="stroke:#000000;stroke-width:0.8;" x="302.938537" xlink:href="#m637e007be8" y="307.584"/>
      </g>
     </g>
     <g id="text_13">
      <!-- 87 -->
      <g transform="translate(305.697912 327.309)rotate(-90)scale(0.1 -0.1)">
       <use xlink:href="#DejaVuSans-38"/>
       <use x="63.623047" xlink:href="#DejaVuSans-37"/>
      </g>
     </g>
    </g>
    <g id="xtick_14">
     <g id="line2d_14">
      <g>
       <use style="stroke:#000000;stroke-width:0.8;" x="323.262439" xlink:href="#m637e007be8" y="307.584"/>
      </g>
     </g>
     <g id="text_14">
      <!-- 94 -->
      <g transform="translate(326.021814 327.309)rotate(-90)scale(0.1 -0.1)">
       <use xlink:href="#DejaVuSans-39"/>
       <use x="63.623047" xlink:href="#DejaVuSans-34"/>
      </g>
     </g>
    </g>
    <g id="xtick_15">
     <g id="line2d_15">
      <g>
       <use style="stroke:#000000;stroke-width:0.8;" x="343.586341" xlink:href="#m637e007be8" y="307.584"/>
      </g>
     </g>
     <g id="text_15">
      <!-- 101 -->
      <g transform="translate(346.345716 333.6715)rotate(-90)scale(0.1 -0.1)">
       <use xlink:href="#DejaVuSans-31"/>
       <use x="63.623047" xlink:href="#DejaVuSans-30"/>
       <use x="127.246094" xlink:href="#DejaVuSans-31"/>
      </g>
     </g>
    </g>
    <g id="xtick_16">
     <g id="line2d_16">
      <g>
       <use style="stroke:#000000;stroke-width:0.8;" x="363.910244" xlink:href="#m637e007be8" y="307.584"/>
      </g>
     </g>
     <g id="text_16">
      <!-- 108 -->
      <g transform="translate(366.669619 333.6715)rotate(-90)scale(0.1 -0.1)">
       <use xlink:href="#DejaVuSans-31"/>
       <use x="63.623047" xlink:href="#DejaVuSans-30"/>
       <use x="127.246094" xlink:href="#DejaVuSans-38"/>
      </g>
     </g>
    </g>
    <g id="xtick_17">
     <g id="line2d_17">
      <g>
       <use style="stroke:#000000;stroke-width:0.8;" x="384.234146" xlink:href="#m637e007be8" y="307.584"/>
      </g>
     </g>
     <g id="text_17">
      <!-- 116 -->
      <g transform="translate(386.993521 333.6715)rotate(-90)scale(0.1 -0.1)">
       <use xlink:href="#DejaVuSans-31"/>
       <use x="63.623047" xlink:href="#DejaVuSans-31"/>
       <use x="127.246094" xlink:href="#DejaVuSans-36"/>
      </g>
     </g>
    </g>
    <g id="xtick_18">
     <g id="line2d_18">
      <g>
       <use style="stroke:#000000;stroke-width:0.8;" x="404.558049" xlink:href="#m637e007be8" y="307.584"/>
      </g>
     </g>
     <g id="text_18">
      <!-- 124 -->
      <g transform="translate(407.317424 333.6715)rotate(-90)scale(0.1 -0.1)">
       <use xlink:href="#DejaVuSans-31"/>
       <use x="63.623047" xlink:href="#DejaVuSans-32"/>
       <use x="127.246094" xlink:href="#DejaVuSans-34"/>
      </g>
     </g>
    </g>
    <g id="text_19">
     <!-- domain -->
     <g transform="translate(217.434219 345.269937)scale(0.1 -0.1)">
      <defs>
       <path d="M 2906 2969 
L 2906 4863 
L 3481 4863 
L 3481 0 
L 2906 0 
L 2906 525 
Q 2725 213 2448 61 
Q 2172 -91 1784 -91 
Q 1150 -91 751 415 
Q 353 922 353 1747 
Q 353 2572 751 3078 
Q 1150 3584 1784 3584 
Q 2172 3584 2448 3432 
Q 2725 3281 2906 2969 
z
M 947 1747 
Q 947 1113 1208 752 
Q 1469 391 1925 391 
Q 2381 391 2643 752 
Q 2906 1113 2906 1747 
Q 2906 2381 2643 2742 
Q 2381 3103 1925 3103 
Q 1469 3103 1208 2742 
Q 947 2381 947 1747 
z
" id="DejaVuSans-64" transform="scale(0.015625)"/>
       <path d="M 1959 3097 
Q 1497 3097 1228 2736 
Q 959 2375 959 1747 
Q 959 1119 1226 758 
Q 1494 397 1959 397 
Q 2419 397 2687 759 
Q 2956 1122 2956 1747 
Q 2956 2369 2687 2733 
Q 2419 3097 1959 3097 
z
M 1959 3584 
Q 2709 3584 3137 3096 
Q 3566 2609 3566 1747 
Q 3566 888 3137 398 
Q 2709 -91 1959 -91 
Q 1206 -91 779 398 
Q 353 888 353 1747 
Q 353 2609 779 3096 
Q 1206 3584 1959 3584 
z
" id="DejaVuSans-6f" transform="scale(0.015625)"/>
       <path d="M 3328 2828 
Q 3544 3216 3844 3400 
Q 4144 3584 4550 3584 
Q 5097 3584 5394 3201 
Q 5691 2819 5691 2113 
L 5691 0 
L 5113 0 
L 5113 2094 
Q 5113 2597 4934 2840 
Q 4756 3084 4391 3084 
Q 3944 3084 3684 2787 
Q 3425 2491 3425 1978 
L 3425 0 
L 2847 0 
L 2847 2094 
Q 2847 2600 2669 2842 
Q 2491 3084 2119 3084 
Q 1678 3084 1418 2786 
Q 1159 2488 1159 1978 
L 1159 0 
L 581 0 
L 581 3500 
L 1159 3500 
L 1159 2956 
Q 1356 3278 1631 3431 
Q 1906 3584 2284 3584 
Q 2666 3584 2933 3390 
Q 3200 3197 3328 2828 
z
" id="DejaVuSans-6d" transform="scale(0.015625)"/>
       <path d="M 2194 1759 
Q 1497 1759 1228 1600 
Q 959 1441 959 1056 
Q 959 750 1161 570 
Q 1363 391 1709 391 
Q 2188 391 2477 730 
Q 2766 1069 2766 1631 
L 2766 1759 
L 2194 1759 
z
M 3341 1997 
L 3341 0 
L 2766 0 
L 2766 531 
Q 2569 213 2275 61 
Q 1981 -91 1556 -91 
Q 1019 -91 701 211 
Q 384 513 384 1019 
Q 384 1609 779 1909 
Q 1175 2209 1959 2209 
L 2766 2209 
L 2766 2266 
Q 2766 2663 2505 2880 
Q 2244 3097 1772 3097 
Q 1472 3097 1187 3025 
Q 903 2953 641 2809 
L 641 3341 
Q 956 3463 1253 3523 
Q 1550 3584 1831 3584 
Q 2591 3584 2966 3190 
Q 3341 2797 3341 1997 
z
" id="DejaVuSans-61" transform="scale(0.015625)"/>
       <path d="M 603 3500 
L 1178 3500 
L 1178 0 
L 603 0 
L 603 3500 
z
M 603 4863 
L 1178 4863 
L 1178 4134 
L 603 4134 
L 603 4863 
z
" id="DejaVuSans-69" transform="scale(0.015625)"/>
       <path d="M 3513 2113 
L 3513 0 
L 2938 0 
L 2938 2094 
Q 2938 2591 2744 2837 
Q 2550 3084 2163 3084 
Q 1697 3084 1428 2787 
Q 1159 2491 1159 1978 
L 1159 0 
L 581 0 
L 581 3500 
L 1159 3500 
L 1159 2956 
Q 1366 3272 1645 3428 
Q 1925 3584 2291 3584 
Q 2894 3584 3203 3211 
Q 3513 2838 3513 2113 
z
" id="DejaVuSans-6e" transform="scale(0.015625)"/>
      </defs>
      <use xlink:href="#DejaVuSans-64"/>
      <use x="63.476562" xlink:href="#DejaVuSans-6f"/>
      <use x="124.658203" xlink:href="#DejaVuSans-6d"/>
      <use x="222.070312" xlink:href="#DejaVuSans-61"/>
      <use x="283.349609" xlink:href="#DejaVuSans-69"/>
      <use x="311.132812" xlink:href="#DejaVuSans-6e"/>
     </g>
    </g>
   </g>
   <g id="matplotlib.axis_2">
    <g id="ytick_1">
     <g id="line2d_19">
      <defs>
       <path d="M 0 0 
L -3.5 0 
" id="ma3bcb4213e" style="stroke:#000000;stroke-width:0.8;"/>
      </defs>
      <g>
       <use style="stroke:#000000;stroke-width:0.8;" x="57.6" xlink:href="#ma3bcb4213e" y="307.584"/>
      </g>
     </g>
     <g id="text_20">
      <!-- 0 -->
      <g transform="translate(44.2375 311.383219)scale(0.1 -0.1)">
       <use xlink:href="#DejaVuSans-30"/>
      </g>
     </g>
    </g>
    <g id="ytick_2">
     <g id="line2d_20">
      <g>
       <use style="stroke:#000000;stroke-width:0.8;" x="57.6" xlink:href="#ma3bcb4213e" y="253.493236"/>
      </g>
     </g>
     <g id="text_21">
      <!-- 1 -->
      <g transform="translate(44.2375 257.292454)scale(0.1 -0.1)">
       <use xlink:href="#DejaVuSans-31"/>
      </g>
     </g>
    </g>
    <g id="ytick_3">
     <g id="line2d_21">
      <g>
       <use style="stroke:#000000;stroke-width:0.8;" x="57.6" xlink:href="#ma3bcb4213e" y="199.402471"/>
      </g>
     </g>
     <g id="text_22">
      <!-- 2 -->
      <g transform="translate(44.2375 203.20169)scale(0.1 -0.1)">
       <use xlink:href="#DejaVuSans-32"/>
      </g>
     </g>
    </g>
    <g id="ytick_4">
     <g id="line2d_22">
      <g>
       <use style="stroke:#000000;stroke-width:0.8;" x="57.6" xlink:href="#ma3bcb4213e" y="145.311707"/>
      </g>
     </g>
     <g id="text_23">
      <!-- 3 -->
      <g transform="translate(44.2375 149.110926)scale(0.1 -0.1)">
       <use xlink:href="#DejaVuSans-33"/>
      </g>
     </g>
    </g>
    <g id="ytick_5">
     <g id="line2d_23">
      <g>
       <use style="stroke:#000000;stroke-width:0.8;" x="57.6" xlink:href="#ma3bcb4213e" y="91.220943"/>
      </g>
     </g>
     <g id="text_24">
      <!-- 4 -->
      <g transform="translate(44.2375 95.020162)scale(0.1 -0.1)">
       <use xlink:href="#DejaVuSans-34"/>
      </g>
     </g>
    </g>
    <g id="text_25">
     <!-- Total Bytes sent to Domain -->
     <g transform="translate(38.157812 241.823312)rotate(-90)scale(0.1 -0.1)">
      <defs>
       <path d="M -19 4666 
L 3928 4666 
L 3928 4134 
L 2272 4134 
L 2272 0 
L 1638 0 
L 1638 4134 
L -19 4134 
L -19 4666 
z
" id="DejaVuSans-54" transform="scale(0.015625)"/>
       <path d="M 1172 4494 
L 1172 3500 
L 2356 3500 
L 2356 3053 
L 1172 3053 
L 1172 1153 
Q 1172 725 1289 603 
Q 1406 481 1766 481 
L 2356 481 
L 2356 0 
L 1766 0 
Q 1100 0 847 248 
Q 594 497 594 1153 
L 594 3053 
L 172 3053 
L 172 3500 
L 594 3500 
L 594 4494 
L 1172 4494 
z
" id="DejaVuSans-74" transform="scale(0.015625)"/>
       <path d="M 603 4863 
L 1178 4863 
L 1178 0 
L 603 0 
L 603 4863 
z
" id="DejaVuSans-6c" transform="scale(0.015625)"/>
       <path id="DejaVuSans-20" transform="scale(0.015625)"/>
       <path d="M 1259 2228 
L 1259 519 
L 2272 519 
Q 2781 519 3026 730 
Q 3272 941 3272 1375 
Q 3272 1813 3026 2020 
Q 2781 2228 2272 2228 
L 1259 2228 
z
M 1259 4147 
L 1259 2741 
L 2194 2741 
Q 2656 2741 2882 2914 
Q 3109 3088 3109 3444 
Q 3109 3797 2882 3972 
Q 2656 4147 2194 4147 
L 1259 4147 
z
M 628 4666 
L 2241 4666 
Q 2963 4666 3353 4366 
Q 3744 4066 3744 3513 
Q 3744 3084 3544 2831 
Q 3344 2578 2956 2516 
Q 3422 2416 3680 2098 
Q 3938 1781 3938 1306 
Q 3938 681 3513 340 
Q 3088 0 2303 0 
L 628 0 
L 628 4666 
z
" id="DejaVuSans-42" transform="scale(0.015625)"/>
       <path d="M 2059 -325 
Q 1816 -950 1584 -1140 
Q 1353 -1331 966 -1331 
L 506 -1331 
L 506 -850 
L 844 -850 
Q 1081 -850 1212 -737 
Q 1344 -625 1503 -206 
L 1606 56 
L 191 3500 
L 800 3500 
L 1894 763 
L 2988 3500 
L 3597 3500 
L 2059 -325 
z
" id="DejaVuSans-79" transform="scale(0.015625)"/>
       <path d="M 3597 1894 
L 3597 1613 
L 953 1613 
Q 991 1019 1311 708 
Q 1631 397 2203 397 
Q 2534 397 2845 478 
Q 3156 559 3463 722 
L 3463 178 
Q 3153 47 2828 -22 
Q 2503 -91 2169 -91 
Q 1331 -91 842 396 
Q 353 884 353 1716 
Q 353 2575 817 3079 
Q 1281 3584 2069 3584 
Q 2775 3584 3186 3129 
Q 3597 2675 3597 1894 
z
M 3022 2063 
Q 3016 2534 2758 2815 
Q 2500 3097 2075 3097 
Q 1594 3097 1305 2825 
Q 1016 2553 972 2059 
L 3022 2063 
z
" id="DejaVuSans-65" transform="scale(0.015625)"/>
       <path d="M 2834 3397 
L 2834 2853 
Q 2591 2978 2328 3040 
Q 2066 3103 1784 3103 
Q 1356 3103 1142 2972 
Q 928 2841 928 2578 
Q 928 2378 1081 2264 
Q 1234 2150 1697 2047 
L 1894 2003 
Q 2506 1872 2764 1633 
Q 3022 1394 3022 966 
Q 3022 478 2636 193 
Q 2250 -91 1575 -91 
Q 1294 -91 989 -36 
Q 684 19 347 128 
L 347 722 
Q 666 556 975 473 
Q 1284 391 1588 391 
Q 1994 391 2212 530 
Q 2431 669 2431 922 
Q 2431 1156 2273 1281 
Q 2116 1406 1581 1522 
L 1381 1569 
Q 847 1681 609 1914 
Q 372 2147 372 2553 
Q 372 3047 722 3315 
Q 1072 3584 1716 3584 
Q 2034 3584 2315 3537 
Q 2597 3491 2834 3397 
z
" id="DejaVuSans-73" transform="scale(0.015625)"/>
       <path d="M 1259 4147 
L 1259 519 
L 2022 519 
Q 2988 519 3436 956 
Q 3884 1394 3884 2338 
Q 3884 3275 3436 3711 
Q 2988 4147 2022 4147 
L 1259 4147 
z
M 628 4666 
L 1925 4666 
Q 3281 4666 3915 4102 
Q 4550 3538 4550 2338 
Q 4550 1131 3912 565 
Q 3275 0 1925 0 
L 628 0 
L 628 4666 
z
" id="DejaVuSans-44" transform="scale(0.015625)"/>
      </defs>
      <use xlink:href="#DejaVuSans-54"/>
      <use x="44.083984" xlink:href="#DejaVuSans-6f"/>
      <use x="105.265625" xlink:href="#DejaVuSans-74"/>
      <use x="144.474609" xlink:href="#DejaVuSans-61"/>
      <use x="205.753906" xlink:href="#DejaVuSans-6c"/>
      <use x="233.537109" xlink:href="#DejaVuSans-20"/>
      <use x="265.324219" xlink:href="#DejaVuSans-42"/>
      <use x="333.927734" xlink:href="#DejaVuSans-79"/>
      <use x="393.107422" xlink:href="#DejaVuSans-74"/>
      <use x="432.316406" xlink:href="#DejaVuSans-65"/>
      <use x="493.839844" xlink:href="#DejaVuSans-73"/>
      <use x="545.939453" xlink:href="#DejaVuSans-20"/>
      <use x="577.726562" xlink:href="#DejaVuSans-73"/>
      <use x="629.826172" xlink:href="#DejaVuSans-65"/>
      <use x="691.349609" xlink:href="#DejaVuSans-6e"/>
      <use x="754.728516" xlink:href="#DejaVuSans-74"/>
      <use x="793.9375" xlink:href="#DejaVuSans-20"/>
      <use x="825.724609" xlink:href="#DejaVuSans-74"/>
      <use x="864.933594" xlink:href="#DejaVuSans-6f"/>
      <use x="926.115234" xlink:href="#DejaVuSans-20"/>
      <use x="957.902344" xlink:href="#DejaVuSans-44"/>
      <use x="1034.904297" xlink:href="#DejaVuSans-6f"/>
      <use x="1096.085938" xlink:href="#DejaVuSans-6d"/>
      <use x="1193.498047" xlink:href="#DejaVuSans-61"/>
      <use x="1254.777344" xlink:href="#DejaVuSans-69"/>
      <use x="1282.560547" xlink:href="#DejaVuSans-6e"/>
     </g>
    </g>
    <g id="text_26">
     <!-- 1e9 -->
     <g transform="translate(57.6 38.472)scale(0.1 -0.1)">
      <use xlink:href="#DejaVuSans-31"/>
      <use x="63.623047" xlink:href="#DejaVuSans-65"/>
      <use x="125.146484" xlink:href="#DejaVuSans-39"/>
     </g>
    </g>
   </g>
   <g id="patch_249">
    <path d="M 57.6 307.584 
L 57.6 41.472 
" style="fill:none;stroke:#000000;stroke-linecap:square;stroke-linejoin:miter;stroke-width:0.8;"/>
   </g>
   <g id="patch_250">
    <path d="M 414.72 307.584 
L 414.72 41.472 
" style="fill:none;stroke:#000000;stroke-linecap:square;stroke-linejoin:miter;stroke-width:0.8;"/>
   </g>
   <g id="patch_251">
    <path d="M 57.6 307.584 
L 414.72 307.584 
" style="fill:none;stroke:#000000;stroke-linecap:square;stroke-linejoin:miter;stroke-width:0.8;"/>
   </g>
   <g id="patch_252">
    <path d="M 57.6 41.472 
L 414.72 41.472 
" style="fill:none;stroke:#000000;stroke-linecap:square;stroke-linejoin:miter;stroke-width:0.8;"/>
   </g>
   <g id="text_27">
    <!-- ex0-run76 -->
    <g transform="translate(205.333125 35.472)scale(0.12 -0.12)">
     <defs>
      <path d="M 3513 3500 
L 2247 1797 
L 3578 0 
L 2900 0 
L 1881 1375 
L 863 0 
L 184 0 
L 1544 1831 
L 300 3500 
L 978 3500 
L 1906 2253 
L 2834 3500 
L 3513 3500 
z
" id="DejaVuSans-78" transform="scale(0.015625)"/>
      <path d="M 313 2009 
L 1997 2009 
L 1997 1497 
L 313 1497 
L 313 2009 
z
" id="DejaVuSans-2d" transform="scale(0.015625)"/>
      <path d="M 2631 2963 
Q 2534 3019 2420 3045 
Q 2306 3072 2169 3072 
Q 1681 3072 1420 2755 
Q 1159 2438 1159 1844 
L 1159 0 
L 581 0 
L 581 3500 
L 1159 3500 
L 1159 2956 
Q 1341 3275 1631 3429 
Q 1922 3584 2338 3584 
Q 2397 3584 2469 3576 
Q 2541 3569 2628 3553 
L 2631 2963 
z
" id="DejaVuSans-72" transform="scale(0.015625)"/>
      <path d="M 544 1381 
L 544 3500 
L 1119 3500 
L 1119 1403 
Q 1119 906 1312 657 
Q 1506 409 1894 409 
Q 2359 409 2629 706 
Q 2900 1003 2900 1516 
L 2900 3500 
L 3475 3500 
L 3475 0 
L 2900 0 
L 2900 538 
Q 2691 219 2414 64 
Q 2138 -91 1772 -91 
Q 1169 -91 856 284 
Q 544 659 544 1381 
z
M 1991 3584 
L 1991 3584 
z
" id="DejaVuSans-75" transform="scale(0.015625)"/>
     </defs>
     <use xlink:href="#DejaVuSans-65"/>
     <use x="59.773438" xlink:href="#DejaVuSans-78"/>
     <use x="118.953125" xlink:href="#DejaVuSans-30"/>
     <use x="182.576172" xlink:href="#DejaVuSans-2d"/>
     <use x="218.660156" xlink:href="#DejaVuSans-72"/>
     <use x="259.773438" xlink:href="#DejaVuSans-75"/>
     <use x="323.152344" xlink:href="#DejaVuSans-6e"/>
     <use x="386.53125" xlink:href="#DejaVuSans-37"/>
     <use x="450.154297" xlink:href="#DejaVuSans-36"/>
    </g>
   </g>
   <g id="legend_1">
    <g id="patch_253">
     <path d="M 64.6 78.82825 
L 184.99375 78.82825 
Q 186.99375 78.82825 186.99375 76.82825 
L 186.99375 48.472 
Q 186.99375 46.472 184.99375 46.472 
L 64.6 46.472 
Q 62.6 46.472 62.6 48.472 
L 62.6 76.82825 
Q 62.6 78.82825 64.6 78.82825 
z
" style="fill:#ffffff;opacity:0.8;stroke:#cccccc;stroke-linejoin:miter;"/>
    </g>
    <g id="patch_254">
     <path d="M 66.6 58.070437 
L 86.6 58.070437 
L 86.6 51.070437 
L 66.6 51.070437 
z
" style="fill:#1f77b4;"/>
    </g>
    <g id="text_28">
     <!--  non-dupe bytes -->
     <g transform="translate(94.6 58.070437)scale(0.1 -0.1)">
      <defs>
       <path d="M 1159 525 
L 1159 -1331 
L 581 -1331 
L 581 3500 
L 1159 3500 
L 1159 2969 
Q 1341 3281 1617 3432 
Q 1894 3584 2278 3584 
Q 2916 3584 3314 3078 
Q 3713 2572 3713 1747 
Q 3713 922 3314 415 
Q 2916 -91 2278 -91 
Q 1894 -91 1617 61 
Q 1341 213 1159 525 
z
M 3116 1747 
Q 3116 2381 2855 2742 
Q 2594 3103 2138 3103 
Q 1681 3103 1420 2742 
Q 1159 2381 1159 1747 
Q 1159 1113 1420 752 
Q 1681 391 2138 391 
Q 2594 391 2855 752 
Q 3116 1113 3116 1747 
z
" id="DejaVuSans-70" transform="scale(0.015625)"/>
       <path d="M 3116 1747 
Q 3116 2381 2855 2742 
Q 2594 3103 2138 3103 
Q 1681 3103 1420 2742 
Q 1159 2381 1159 1747 
Q 1159 1113 1420 752 
Q 1681 391 2138 391 
Q 2594 391 2855 752 
Q 3116 1113 3116 1747 
z
M 1159 2969 
Q 1341 3281 1617 3432 
Q 1894 3584 2278 3584 
Q 2916 3584 3314 3078 
Q 3713 2572 3713 1747 
Q 3713 922 3314 415 
Q 2916 -91 2278 -91 
Q 1894 -91 1617 61 
Q 1341 213 1159 525 
L 1159 0 
L 581 0 
L 581 4863 
L 1159 4863 
L 1159 2969 
z
" id="DejaVuSans-62" transform="scale(0.015625)"/>
      </defs>
      <use xlink:href="#DejaVuSans-20"/>
      <use x="31.787109" xlink:href="#DejaVuSans-6e"/>
      <use x="95.166016" xlink:href="#DejaVuSans-6f"/>
      <use x="156.347656" xlink:href="#DejaVuSans-6e"/>
      <use x="219.726562" xlink:href="#DejaVuSans-2d"/>
      <use x="255.810547" xlink:href="#DejaVuSans-64"/>
      <use x="319.287109" xlink:href="#DejaVuSans-75"/>
      <use x="382.666016" xlink:href="#DejaVuSans-70"/>
      <use x="446.142578" xlink:href="#DejaVuSans-65"/>
      <use x="507.666016" xlink:href="#DejaVuSans-20"/>
      <use x="539.453125" xlink:href="#DejaVuSans-62"/>
      <use x="602.929688" xlink:href="#DejaVuSans-79"/>
      <use x="662.109375" xlink:href="#DejaVuSans-74"/>
      <use x="701.318359" xlink:href="#DejaVuSans-65"/>
      <use x="762.841797" xlink:href="#DejaVuSans-73"/>
     </g>
    </g>
    <g id="patch_255">
     <path d="M 66.6 72.748562 
L 86.6 72.748562 
L 86.6 65.748562 
L 66.6 65.748562 
z
" style="fill:#ff7f0e;"/>
    </g>
    <g id="text_29">
     <!-- total region bytes -->
     <g transform="translate(94.6 72.748562)scale(0.1 -0.1)">
      <defs>
       <path d="M 2906 1791 
Q 2906 2416 2648 2759 
Q 2391 3103 1925 3103 
Q 1463 3103 1205 2759 
Q 947 2416 947 1791 
Q 947 1169 1205 825 
Q 1463 481 1925 481 
Q 2391 481 2648 825 
Q 2906 1169 2906 1791 
z
M 3481 434 
Q 3481 -459 3084 -895 
Q 2688 -1331 1869 -1331 
Q 1566 -1331 1297 -1286 
Q 1028 -1241 775 -1147 
L 775 -588 
Q 1028 -725 1275 -790 
Q 1522 -856 1778 -856 
Q 2344 -856 2625 -561 
Q 2906 -266 2906 331 
L 2906 616 
Q 2728 306 2450 153 
Q 2172 0 1784 0 
Q 1141 0 747 490 
Q 353 981 353 1791 
Q 353 2603 747 3093 
Q 1141 3584 1784 3584 
Q 2172 3584 2450 3431 
Q 2728 3278 2906 2969 
L 2906 3500 
L 3481 3500 
L 3481 434 
z
" id="DejaVuSans-67" transform="scale(0.015625)"/>
      </defs>
      <use xlink:href="#DejaVuSans-74"/>
      <use x="39.208984" xlink:href="#DejaVuSans-6f"/>
      <use x="100.390625" xlink:href="#DejaVuSans-74"/>
      <use x="139.599609" xlink:href="#DejaVuSans-61"/>
      <use x="200.878906" xlink:href="#DejaVuSans-6c"/>
      <use x="228.662109" xlink:href="#DejaVuSans-20"/>
      <use x="260.449219" xlink:href="#DejaVuSans-72"/>
      <use x="299.3125" xlink:href="#DejaVuSans-65"/>
      <use x="360.835938" xlink:href="#DejaVuSans-67"/>
      <use x="424.3125" xlink:href="#DejaVuSans-69"/>
      <use x="452.095703" xlink:href="#DejaVuSans-6f"/>
      <use x="513.277344" xlink:href="#DejaVuSans-6e"/>
      <use x="576.65625" xlink:href="#DejaVuSans-20"/>
      <use x="608.443359" xlink:href="#DejaVuSans-62"/>
      <use x="671.919922" xlink:href="#DejaVuSans-79"/>
      <use x="731.099609" xlink:href="#DejaVuSans-74"/>
      <use x="770.308594" xlink:href="#DejaVuSans-65"/>
      <use x="831.832031" xlink:href="#DejaVuSans-73"/>
     </g>
    </g>
   </g>
  </g>
 </g>
 <defs>
  <clipPath id="pdfb87586fe">
   <rect height="266.112" width="357.12" x="57.6" y="41.472"/>
  </clipPath>
 </defs>
</svg>
