<?xml version="1.0" encoding="utf-8" standalone="no"?>
<!DOCTYPE svg PUBLIC "-//W3C//DTD SVG 1.1//EN"
  "http://www.w3.org/Graphics/SVG/1.1/DTD/svg11.dtd">
<svg height="345.6pt" version="1.1" viewBox="0 0 460.8 345.6" width="460.8pt" xmlns="http://www.w3.org/2000/svg" xmlns:xlink="http://www.w3.org/1999/xlink">
 <metadata>
  <rdf:RDF xmlns:cc="http://creativecommons.org/ns#" xmlns:dc="http://purl.org/dc/elements/1.1/" xmlns:rdf="http://www.w3.org/1999/02/22-rdf-syntax-ns#">
   <cc:Work>
    <dc:type rdf:resource="http://purl.org/dc/dcmitype/StillImage"/>
    <dc:date>2021-12-02T06:01:57.014186</dc:date>
    <dc:format>image/svg+xml</dc:format>
    <dc:creator>
     <cc:Agent>
      <dc:title>Matplotlib v3.4.3, https://matplotlib.org/</dc:title>
     </cc:Agent>
    </dc:creator>
   </cc:Work>
  </rdf:RDF>
 </metadata>
 <defs>
  <style type="text/css">*{stroke-linecap:butt;stroke-linejoin:round;}</style>
 </defs>
 <g id="figure_1">
  <g id="patch_1">
   <path d="M 0 345.6 
L 460.8 345.6 
L 460.8 0 
L 0 0 
z
" style="fill:#ffffff;"/>
  </g>
  <g id="axes_1">
   <g id="patch_2">
    <path d="M 52.1245 290.135464 
L 450 290.135464 
L 450 26.88 
L 52.1245 26.88 
z
" style="fill:#ffffff;"/>
   </g>
   <g id="matplotlib.axis_1">
    <g id="xtick_1">
     <g id="line2d_1">
      <defs>
       <path d="M 0 0 
L 0 3.5 
" id="mf8ad9ab557" style="stroke:#000000;stroke-width:0.8;"/>
      </defs>
      <g>
       <use style="stroke:#000000;stroke-width:0.8;" x="67.448643" xlink:href="#mf8ad9ab557" y="290.135464"/>
      </g>
     </g>
     <g id="text_1">
      <!-- 2011-09-15 -->
      <g transform="translate(16.079191 332.773716)rotate(-30)scale(0.1 -0.1)">
       <defs>
        <path d="M 1228 531 
L 3431 531 
L 3431 0 
L 469 0 
L 469 531 
Q 828 903 1448 1529 
Q 2069 2156 2228 2338 
Q 2531 2678 2651 2914 
Q 2772 3150 2772 3378 
Q 2772 3750 2511 3984 
Q 2250 4219 1831 4219 
Q 1534 4219 1204 4116 
Q 875 4013 500 3803 
L 500 4441 
Q 881 4594 1212 4672 
Q 1544 4750 1819 4750 
Q 2544 4750 2975 4387 
Q 3406 4025 3406 3419 
Q 3406 3131 3298 2873 
Q 3191 2616 2906 2266 
Q 2828 2175 2409 1742 
Q 1991 1309 1228 531 
z
" id="DejaVuSans-32" transform="scale(0.015625)"/>
        <path d="M 2034 4250 
Q 1547 4250 1301 3770 
Q 1056 3291 1056 2328 
Q 1056 1369 1301 889 
Q 1547 409 2034 409 
Q 2525 409 2770 889 
Q 3016 1369 3016 2328 
Q 3016 3291 2770 3770 
Q 2525 4250 2034 4250 
z
M 2034 4750 
Q 2819 4750 3233 4129 
Q 3647 3509 3647 2328 
Q 3647 1150 3233 529 
Q 2819 -91 2034 -91 
Q 1250 -91 836 529 
Q 422 1150 422 2328 
Q 422 3509 836 4129 
Q 1250 4750 2034 4750 
z
" id="DejaVuSans-30" transform="scale(0.015625)"/>
        <path d="M 794 531 
L 1825 531 
L 1825 4091 
L 703 3866 
L 703 4441 
L 1819 4666 
L 2450 4666 
L 2450 531 
L 3481 531 
L 3481 0 
L 794 0 
L 794 531 
z
" id="DejaVuSans-31" transform="scale(0.015625)"/>
        <path d="M 313 2009 
L 1997 2009 
L 1997 1497 
L 313 1497 
L 313 2009 
z
" id="DejaVuSans-2d" transform="scale(0.015625)"/>
        <path d="M 703 97 
L 703 672 
Q 941 559 1184 500 
Q 1428 441 1663 441 
Q 2288 441 2617 861 
Q 2947 1281 2994 2138 
Q 2813 1869 2534 1725 
Q 2256 1581 1919 1581 
Q 1219 1581 811 2004 
Q 403 2428 403 3163 
Q 403 3881 828 4315 
Q 1253 4750 1959 4750 
Q 2769 4750 3195 4129 
Q 3622 3509 3622 2328 
Q 3622 1225 3098 567 
Q 2575 -91 1691 -91 
Q 1453 -91 1209 -44 
Q 966 3 703 97 
z
M 1959 2075 
Q 2384 2075 2632 2365 
Q 2881 2656 2881 3163 
Q 2881 3666 2632 3958 
Q 2384 4250 1959 4250 
Q 1534 4250 1286 3958 
Q 1038 3666 1038 3163 
Q 1038 2656 1286 2365 
Q 1534 2075 1959 2075 
z
" id="DejaVuSans-39" transform="scale(0.015625)"/>
        <path d="M 691 4666 
L 3169 4666 
L 3169 4134 
L 1269 4134 
L 1269 2991 
Q 1406 3038 1543 3061 
Q 1681 3084 1819 3084 
Q 2600 3084 3056 2656 
Q 3513 2228 3513 1497 
Q 3513 744 3044 326 
Q 2575 -91 1722 -91 
Q 1428 -91 1123 -41 
Q 819 9 494 109 
L 494 744 
Q 775 591 1075 516 
Q 1375 441 1709 441 
Q 2250 441 2565 725 
Q 2881 1009 2881 1497 
Q 2881 1984 2565 2268 
Q 2250 2553 1709 2553 
Q 1456 2553 1204 2497 
Q 953 2441 691 2322 
L 691 4666 
z
" id="DejaVuSans-35" transform="scale(0.015625)"/>
       </defs>
       <use xlink:href="#DejaVuSans-32"/>
       <use x="63.623047" xlink:href="#DejaVuSans-30"/>
       <use x="127.246094" xlink:href="#DejaVuSans-31"/>
       <use x="190.869141" xlink:href="#DejaVuSans-31"/>
       <use x="254.492188" xlink:href="#DejaVuSans-2d"/>
       <use x="290.576172" xlink:href="#DejaVuSans-30"/>
       <use x="354.199219" xlink:href="#DejaVuSans-39"/>
       <use x="417.822266" xlink:href="#DejaVuSans-2d"/>
       <use x="453.90625" xlink:href="#DejaVuSans-31"/>
       <use x="517.529297" xlink:href="#DejaVuSans-35"/>
      </g>
     </g>
    </g>
    <g id="xtick_2">
     <g id="line2d_2">
      <g>
       <use style="stroke:#000000;stroke-width:0.8;" x="111.626353" xlink:href="#mf8ad9ab557" y="290.135464"/>
      </g>
     </g>
     <g id="text_2">
      <!-- 2011-10-01 -->
      <g transform="translate(60.256901 332.773716)rotate(-30)scale(0.1 -0.1)">
       <use xlink:href="#DejaVuSans-32"/>
       <use x="63.623047" xlink:href="#DejaVuSans-30"/>
       <use x="127.246094" xlink:href="#DejaVuSans-31"/>
       <use x="190.869141" xlink:href="#DejaVuSans-31"/>
       <use x="254.492188" xlink:href="#DejaVuSans-2d"/>
       <use x="290.576172" xlink:href="#DejaVuSans-31"/>
       <use x="354.199219" xlink:href="#DejaVuSans-30"/>
       <use x="417.822266" xlink:href="#DejaVuSans-2d"/>
       <use x="453.90625" xlink:href="#DejaVuSans-30"/>
       <use x="517.529297" xlink:href="#DejaVuSans-31"/>
      </g>
     </g>
    </g>
    <g id="xtick_3">
     <g id="line2d_3">
      <g>
       <use style="stroke:#000000;stroke-width:0.8;" x="150.281849" xlink:href="#mf8ad9ab557" y="290.135464"/>
      </g>
     </g>
     <g id="text_3">
      <!-- 2011-10-15 -->
      <g transform="translate(98.912398 332.773716)rotate(-30)scale(0.1 -0.1)">
       <use xlink:href="#DejaVuSans-32"/>
       <use x="63.623047" xlink:href="#DejaVuSans-30"/>
       <use x="127.246094" xlink:href="#DejaVuSans-31"/>
       <use x="190.869141" xlink:href="#DejaVuSans-31"/>
       <use x="254.492188" xlink:href="#DejaVuSans-2d"/>
       <use x="290.576172" xlink:href="#DejaVuSans-31"/>
       <use x="354.199219" xlink:href="#DejaVuSans-30"/>
       <use x="417.822266" xlink:href="#DejaVuSans-2d"/>
       <use x="453.90625" xlink:href="#DejaVuSans-31"/>
       <use x="517.529297" xlink:href="#DejaVuSans-35"/>
      </g>
     </g>
    </g>
    <g id="xtick_4">
     <g id="line2d_4">
      <g>
       <use style="stroke:#000000;stroke-width:0.8;" x="197.220666" xlink:href="#mf8ad9ab557" y="290.135464"/>
      </g>
     </g>
     <g id="text_4">
      <!-- 2011-11-01 -->
      <g transform="translate(145.851214 332.773716)rotate(-30)scale(0.1 -0.1)">
       <use xlink:href="#DejaVuSans-32"/>
       <use x="63.623047" xlink:href="#DejaVuSans-30"/>
       <use x="127.246094" xlink:href="#DejaVuSans-31"/>
       <use x="190.869141" xlink:href="#DejaVuSans-31"/>
       <use x="254.492188" xlink:href="#DejaVuSans-2d"/>
       <use x="290.576172" xlink:href="#DejaVuSans-31"/>
       <use x="354.199219" xlink:href="#DejaVuSans-31"/>
       <use x="417.822266" xlink:href="#DejaVuSans-2d"/>
       <use x="453.90625" xlink:href="#DejaVuSans-30"/>
       <use x="517.529297" xlink:href="#DejaVuSans-31"/>
      </g>
     </g>
    </g>
    <g id="xtick_5">
     <g id="line2d_5">
      <g>
       <use style="stroke:#000000;stroke-width:0.8;" x="235.876162" xlink:href="#mf8ad9ab557" y="290.135464"/>
      </g>
     </g>
     <g id="text_5">
      <!-- 2011-11-15 -->
      <g transform="translate(184.506711 332.773716)rotate(-30)scale(0.1 -0.1)">
       <use xlink:href="#DejaVuSans-32"/>
       <use x="63.623047" xlink:href="#DejaVuSans-30"/>
       <use x="127.246094" xlink:href="#DejaVuSans-31"/>
       <use x="190.869141" xlink:href="#DejaVuSans-31"/>
       <use x="254.492188" xlink:href="#DejaVuSans-2d"/>
       <use x="290.576172" xlink:href="#DejaVuSans-31"/>
       <use x="354.199219" xlink:href="#DejaVuSans-31"/>
       <use x="417.822266" xlink:href="#DejaVuSans-2d"/>
       <use x="453.90625" xlink:href="#DejaVuSans-31"/>
       <use x="517.529297" xlink:href="#DejaVuSans-35"/>
      </g>
     </g>
    </g>
    <g id="xtick_6">
     <g id="line2d_6">
      <g>
       <use style="stroke:#000000;stroke-width:0.8;" x="280.053872" xlink:href="#mf8ad9ab557" y="290.135464"/>
      </g>
     </g>
     <g id="text_6">
      <!-- 2011-12-01 -->
      <g transform="translate(228.684421 332.773716)rotate(-30)scale(0.1 -0.1)">
       <use xlink:href="#DejaVuSans-32"/>
       <use x="63.623047" xlink:href="#DejaVuSans-30"/>
       <use x="127.246094" xlink:href="#DejaVuSans-31"/>
       <use x="190.869141" xlink:href="#DejaVuSans-31"/>
       <use x="254.492188" xlink:href="#DejaVuSans-2d"/>
       <use x="290.576172" xlink:href="#DejaVuSans-31"/>
       <use x="354.199219" xlink:href="#DejaVuSans-32"/>
       <use x="417.822266" xlink:href="#DejaVuSans-2d"/>
       <use x="453.90625" xlink:href="#DejaVuSans-30"/>
       <use x="517.529297" xlink:href="#DejaVuSans-31"/>
      </g>
     </g>
    </g>
    <g id="xtick_7">
     <g id="line2d_7">
      <g>
       <use style="stroke:#000000;stroke-width:0.8;" x="318.709368" xlink:href="#mf8ad9ab557" y="290.135464"/>
      </g>
     </g>
     <g id="text_7">
      <!-- 2011-12-15 -->
      <g transform="translate(267.339917 332.773716)rotate(-30)scale(0.1 -0.1)">
       <use xlink:href="#DejaVuSans-32"/>
       <use x="63.623047" xlink:href="#DejaVuSans-30"/>
       <use x="127.246094" xlink:href="#DejaVuSans-31"/>
       <use x="190.869141" xlink:href="#DejaVuSans-31"/>
       <use x="254.492188" xlink:href="#DejaVuSans-2d"/>
       <use x="290.576172" xlink:href="#DejaVuSans-31"/>
       <use x="354.199219" xlink:href="#DejaVuSans-32"/>
       <use x="417.822266" xlink:href="#DejaVuSans-2d"/>
       <use x="453.90625" xlink:href="#DejaVuSans-31"/>
       <use x="517.529297" xlink:href="#DejaVuSans-35"/>
      </g>
     </g>
    </g>
    <g id="xtick_8">
     <g id="line2d_8">
      <g>
       <use style="stroke:#000000;stroke-width:0.8;" x="365.648185" xlink:href="#mf8ad9ab557" y="290.135464"/>
      </g>
     </g>
     <g id="text_8">
      <!-- 2012-01-01 -->
      <g transform="translate(314.278734 332.773716)rotate(-30)scale(0.1 -0.1)">
       <use xlink:href="#DejaVuSans-32"/>
       <use x="63.623047" xlink:href="#DejaVuSans-30"/>
       <use x="127.246094" xlink:href="#DejaVuSans-31"/>
       <use x="190.869141" xlink:href="#DejaVuSans-32"/>
       <use x="254.492188" xlink:href="#DejaVuSans-2d"/>
       <use x="290.576172" xlink:href="#DejaVuSans-30"/>
       <use x="354.199219" xlink:href="#DejaVuSans-31"/>
       <use x="417.822266" xlink:href="#DejaVuSans-2d"/>
       <use x="453.90625" xlink:href="#DejaVuSans-30"/>
       <use x="517.529297" xlink:href="#DejaVuSans-31"/>
      </g>
     </g>
    </g>
    <g id="xtick_9">
     <g id="line2d_9">
      <g>
       <use style="stroke:#000000;stroke-width:0.8;" x="404.303681" xlink:href="#mf8ad9ab557" y="290.135464"/>
      </g>
     </g>
     <g id="text_9">
      <!-- 2012-01-15 -->
      <g transform="translate(352.93423 332.773716)rotate(-30)scale(0.1 -0.1)">
       <use xlink:href="#DejaVuSans-32"/>
       <use x="63.623047" xlink:href="#DejaVuSans-30"/>
       <use x="127.246094" xlink:href="#DejaVuSans-31"/>
       <use x="190.869141" xlink:href="#DejaVuSans-32"/>
       <use x="254.492188" xlink:href="#DejaVuSans-2d"/>
       <use x="290.576172" xlink:href="#DejaVuSans-30"/>
       <use x="354.199219" xlink:href="#DejaVuSans-31"/>
       <use x="417.822266" xlink:href="#DejaVuSans-2d"/>
       <use x="453.90625" xlink:href="#DejaVuSans-31"/>
       <use x="517.529297" xlink:href="#DejaVuSans-35"/>
      </g>
     </g>
    </g>
   </g>
   <g id="matplotlib.axis_2">
    <g id="ytick_1">
     <g id="line2d_10">
      <defs>
       <path d="M 0 0 
L -3.5 0 
" id="m5081dc3847" style="stroke:#000000;stroke-width:0.8;"/>
      </defs>
      <g>
       <use style="stroke:#000000;stroke-width:0.8;" x="52.1245" xlink:href="#m5081dc3847" y="240.660966"/>
      </g>
     </g>
     <g id="text_10">
      <!-- $\mathdefault{10^{1}}$ -->
      <g transform="translate(27.5245 244.460185)scale(0.1 -0.1)">
       <use transform="translate(0 0.684375)" xlink:href="#DejaVuSans-31"/>
       <use transform="translate(63.623047 0.684375)" xlink:href="#DejaVuSans-30"/>
       <use transform="translate(128.203125 38.965625)scale(0.7)" xlink:href="#DejaVuSans-31"/>
      </g>
     </g>
    </g>
    <g id="ytick_2">
     <g id="line2d_11">
      <g>
       <use style="stroke:#000000;stroke-width:0.8;" x="52.1245" xlink:href="#m5081dc3847" y="183.904721"/>
      </g>
     </g>
     <g id="text_11">
      <!-- $\mathdefault{10^{2}}$ -->
      <g transform="translate(27.5245 187.70394)scale(0.1 -0.1)">
       <use transform="translate(0 0.765625)" xlink:href="#DejaVuSans-31"/>
       <use transform="translate(63.623047 0.765625)" xlink:href="#DejaVuSans-30"/>
       <use transform="translate(128.203125 39.046875)scale(0.7)" xlink:href="#DejaVuSans-32"/>
      </g>
     </g>
    </g>
    <g id="ytick_3">
     <g id="line2d_12">
      <g>
       <use style="stroke:#000000;stroke-width:0.8;" x="52.1245" xlink:href="#m5081dc3847" y="127.148476"/>
      </g>
     </g>
     <g id="text_12">
      <!-- $\mathdefault{10^{3}}$ -->
      <g transform="translate(27.5245 130.947695)scale(0.1 -0.1)">
       <defs>
        <path d="M 2597 2516 
Q 3050 2419 3304 2112 
Q 3559 1806 3559 1356 
Q 3559 666 3084 287 
Q 2609 -91 1734 -91 
Q 1441 -91 1130 -33 
Q 819 25 488 141 
L 488 750 
Q 750 597 1062 519 
Q 1375 441 1716 441 
Q 2309 441 2620 675 
Q 2931 909 2931 1356 
Q 2931 1769 2642 2001 
Q 2353 2234 1838 2234 
L 1294 2234 
L 1294 2753 
L 1863 2753 
Q 2328 2753 2575 2939 
Q 2822 3125 2822 3475 
Q 2822 3834 2567 4026 
Q 2313 4219 1838 4219 
Q 1578 4219 1281 4162 
Q 984 4106 628 3988 
L 628 4550 
Q 988 4650 1302 4700 
Q 1616 4750 1894 4750 
Q 2613 4750 3031 4423 
Q 3450 4097 3450 3541 
Q 3450 3153 3228 2886 
Q 3006 2619 2597 2516 
z
" id="DejaVuSans-33" transform="scale(0.015625)"/>
       </defs>
       <use transform="translate(0 0.765625)" xlink:href="#DejaVuSans-31"/>
       <use transform="translate(63.623047 0.765625)" xlink:href="#DejaVuSans-30"/>
       <use transform="translate(128.203125 39.046875)scale(0.7)" xlink:href="#DejaVuSans-33"/>
      </g>
     </g>
    </g>
    <g id="ytick_4">
     <g id="line2d_13">
      <g>
       <use style="stroke:#000000;stroke-width:0.8;" x="52.1245" xlink:href="#m5081dc3847" y="70.392231"/>
      </g>
     </g>
     <g id="text_13">
      <!-- $\mathdefault{10^{4}}$ -->
      <g transform="translate(27.5245 74.19145)scale(0.1 -0.1)">
       <defs>
        <path d="M 2419 4116 
L 825 1625 
L 2419 1625 
L 2419 4116 
z
M 2253 4666 
L 3047 4666 
L 3047 1625 
L 3713 1625 
L 3713 1100 
L 3047 1100 
L 3047 0 
L 2419 0 
L 2419 1100 
L 313 1100 
L 313 1709 
L 2253 4666 
z
" id="DejaVuSans-34" transform="scale(0.015625)"/>
       </defs>
       <use transform="translate(0 0.684375)" xlink:href="#DejaVuSans-31"/>
       <use transform="translate(63.623047 0.684375)" xlink:href="#DejaVuSans-30"/>
       <use transform="translate(128.203125 38.965625)scale(0.7)" xlink:href="#DejaVuSans-34"/>
      </g>
     </g>
    </g>
    <g id="ytick_5">
     <g id="line2d_14">
      <defs>
       <path d="M 0 0 
L -2 0 
" id="m0416f6263d" style="stroke:#000000;stroke-width:0.6;"/>
      </defs>
      <g>
       <use style="stroke:#000000;stroke-width:0.6;" x="52.1245" xlink:href="#m0416f6263d" y="280.331879"/>
      </g>
     </g>
    </g>
    <g id="ytick_6">
     <g id="line2d_15">
      <g>
       <use style="stroke:#000000;stroke-width:0.6;" x="52.1245" xlink:href="#m0416f6263d" y="270.3376"/>
      </g>
     </g>
    </g>
    <g id="ytick_7">
     <g id="line2d_16">
      <g>
       <use style="stroke:#000000;stroke-width:0.6;" x="52.1245" xlink:href="#m0416f6263d" y="263.246547"/>
      </g>
     </g>
    </g>
    <g id="ytick_8">
     <g id="line2d_17">
      <g>
       <use style="stroke:#000000;stroke-width:0.6;" x="52.1245" xlink:href="#m0416f6263d" y="257.746298"/>
      </g>
     </g>
    </g>
    <g id="ytick_9">
     <g id="line2d_18">
      <g>
       <use style="stroke:#000000;stroke-width:0.6;" x="52.1245" xlink:href="#m0416f6263d" y="253.252268"/>
      </g>
     </g>
    </g>
    <g id="ytick_10">
     <g id="line2d_19">
      <g>
       <use style="stroke:#000000;stroke-width:0.6;" x="52.1245" xlink:href="#m0416f6263d" y="249.45262"/>
      </g>
     </g>
    </g>
    <g id="ytick_11">
     <g id="line2d_20">
      <g>
       <use style="stroke:#000000;stroke-width:0.6;" x="52.1245" xlink:href="#m0416f6263d" y="246.161215"/>
      </g>
     </g>
    </g>
    <g id="ytick_12">
     <g id="line2d_21">
      <g>
       <use style="stroke:#000000;stroke-width:0.6;" x="52.1245" xlink:href="#m0416f6263d" y="243.25799"/>
      </g>
     </g>
    </g>
    <g id="ytick_13">
     <g id="line2d_22">
      <g>
       <use style="stroke:#000000;stroke-width:0.6;" x="52.1245" xlink:href="#m0416f6263d" y="223.575634"/>
      </g>
     </g>
    </g>
    <g id="ytick_14">
     <g id="line2d_23">
      <g>
       <use style="stroke:#000000;stroke-width:0.6;" x="52.1245" xlink:href="#m0416f6263d" y="213.581355"/>
      </g>
     </g>
    </g>
    <g id="ytick_15">
     <g id="line2d_24">
      <g>
       <use style="stroke:#000000;stroke-width:0.6;" x="52.1245" xlink:href="#m0416f6263d" y="206.490302"/>
      </g>
     </g>
    </g>
    <g id="ytick_16">
     <g id="line2d_25">
      <g>
       <use style="stroke:#000000;stroke-width:0.6;" x="52.1245" xlink:href="#m0416f6263d" y="200.990053"/>
      </g>
     </g>
    </g>
    <g id="ytick_17">
     <g id="line2d_26">
      <g>
       <use style="stroke:#000000;stroke-width:0.6;" x="52.1245" xlink:href="#m0416f6263d" y="196.496023"/>
      </g>
     </g>
    </g>
    <g id="ytick_18">
     <g id="line2d_27">
      <g>
       <use style="stroke:#000000;stroke-width:0.6;" x="52.1245" xlink:href="#m0416f6263d" y="192.696375"/>
      </g>
     </g>
    </g>
    <g id="ytick_19">
     <g id="line2d_28">
      <g>
       <use style="stroke:#000000;stroke-width:0.6;" x="52.1245" xlink:href="#m0416f6263d" y="189.40497"/>
      </g>
     </g>
    </g>
    <g id="ytick_20">
     <g id="line2d_29">
      <g>
       <use style="stroke:#000000;stroke-width:0.6;" x="52.1245" xlink:href="#m0416f6263d" y="186.501745"/>
      </g>
     </g>
    </g>
    <g id="ytick_21">
     <g id="line2d_30">
      <g>
       <use style="stroke:#000000;stroke-width:0.6;" x="52.1245" xlink:href="#m0416f6263d" y="166.819389"/>
      </g>
     </g>
    </g>
    <g id="ytick_22">
     <g id="line2d_31">
      <g>
       <use style="stroke:#000000;stroke-width:0.6;" x="52.1245" xlink:href="#m0416f6263d" y="156.82511"/>
      </g>
     </g>
    </g>
    <g id="ytick_23">
     <g id="line2d_32">
      <g>
       <use style="stroke:#000000;stroke-width:0.6;" x="52.1245" xlink:href="#m0416f6263d" y="149.734057"/>
      </g>
     </g>
    </g>
    <g id="ytick_24">
     <g id="line2d_33">
      <g>
       <use style="stroke:#000000;stroke-width:0.6;" x="52.1245" xlink:href="#m0416f6263d" y="144.233808"/>
      </g>
     </g>
    </g>
    <g id="ytick_25">
     <g id="line2d_34">
      <g>
       <use style="stroke:#000000;stroke-width:0.6;" x="52.1245" xlink:href="#m0416f6263d" y="139.739778"/>
      </g>
     </g>
    </g>
    <g id="ytick_26">
     <g id="line2d_35">
      <g>
       <use style="stroke:#000000;stroke-width:0.6;" x="52.1245" xlink:href="#m0416f6263d" y="135.94013"/>
      </g>
     </g>
    </g>
    <g id="ytick_27">
     <g id="line2d_36">
      <g>
       <use style="stroke:#000000;stroke-width:0.6;" x="52.1245" xlink:href="#m0416f6263d" y="132.648725"/>
      </g>
     </g>
    </g>
    <g id="ytick_28">
     <g id="line2d_37">
      <g>
       <use style="stroke:#000000;stroke-width:0.6;" x="52.1245" xlink:href="#m0416f6263d" y="129.7455"/>
      </g>
     </g>
    </g>
    <g id="ytick_29">
     <g id="line2d_38">
      <g>
       <use style="stroke:#000000;stroke-width:0.6;" x="52.1245" xlink:href="#m0416f6263d" y="110.063144"/>
      </g>
     </g>
    </g>
    <g id="ytick_30">
     <g id="line2d_39">
      <g>
       <use style="stroke:#000000;stroke-width:0.6;" x="52.1245" xlink:href="#m0416f6263d" y="100.068865"/>
      </g>
     </g>
    </g>
    <g id="ytick_31">
     <g id="line2d_40">
      <g>
       <use style="stroke:#000000;stroke-width:0.6;" x="52.1245" xlink:href="#m0416f6263d" y="92.977812"/>
      </g>
     </g>
    </g>
    <g id="ytick_32">
     <g id="line2d_41">
      <g>
       <use style="stroke:#000000;stroke-width:0.6;" x="52.1245" xlink:href="#m0416f6263d" y="87.477563"/>
      </g>
     </g>
    </g>
    <g id="ytick_33">
     <g id="line2d_42">
      <g>
       <use style="stroke:#000000;stroke-width:0.6;" x="52.1245" xlink:href="#m0416f6263d" y="82.983533"/>
      </g>
     </g>
    </g>
    <g id="ytick_34">
     <g id="line2d_43">
      <g>
       <use style="stroke:#000000;stroke-width:0.6;" x="52.1245" xlink:href="#m0416f6263d" y="79.183885"/>
      </g>
     </g>
    </g>
    <g id="ytick_35">
     <g id="line2d_44">
      <g>
       <use style="stroke:#000000;stroke-width:0.6;" x="52.1245" xlink:href="#m0416f6263d" y="75.89248"/>
      </g>
     </g>
    </g>
    <g id="ytick_36">
     <g id="line2d_45">
      <g>
       <use style="stroke:#000000;stroke-width:0.6;" x="52.1245" xlink:href="#m0416f6263d" y="72.989255"/>
      </g>
     </g>
    </g>
    <g id="ytick_37">
     <g id="line2d_46">
      <g>
       <use style="stroke:#000000;stroke-width:0.6;" x="52.1245" xlink:href="#m0416f6263d" y="53.306899"/>
      </g>
     </g>
    </g>
    <g id="ytick_38">
     <g id="line2d_47">
      <g>
       <use style="stroke:#000000;stroke-width:0.6;" x="52.1245" xlink:href="#m0416f6263d" y="43.31262"/>
      </g>
     </g>
    </g>
    <g id="ytick_39">
     <g id="line2d_48">
      <g>
       <use style="stroke:#000000;stroke-width:0.6;" x="52.1245" xlink:href="#m0416f6263d" y="36.221567"/>
      </g>
     </g>
    </g>
    <g id="ytick_40">
     <g id="line2d_49">
      <g>
       <use style="stroke:#000000;stroke-width:0.6;" x="52.1245" xlink:href="#m0416f6263d" y="30.721318"/>
      </g>
     </g>
    </g>
    <g id="text_14">
     <!-- Dedup (Logical / Physical) -->
     <g transform="translate(21.444812 223.167107)rotate(-90)scale(0.1 -0.1)">
      <defs>
       <path d="M 1259 4147 
L 1259 519 
L 2022 519 
Q 2988 519 3436 956 
Q 3884 1394 3884 2338 
Q 3884 3275 3436 3711 
Q 2988 4147 2022 4147 
L 1259 4147 
z
M 628 4666 
L 1925 4666 
Q 3281 4666 3915 4102 
Q 4550 3538 4550 2338 
Q 4550 1131 3912 565 
Q 3275 0 1925 0 
L 628 0 
L 628 4666 
z
" id="DejaVuSans-44" transform="scale(0.015625)"/>
       <path d="M 3597 1894 
L 3597 1613 
L 953 1613 
Q 991 1019 1311 708 
Q 1631 397 2203 397 
Q 2534 397 2845 478 
Q 3156 559 3463 722 
L 3463 178 
Q 3153 47 2828 -22 
Q 2503 -91 2169 -91 
Q 1331 -91 842 396 
Q 353 884 353 1716 
Q 353 2575 817 3079 
Q 1281 3584 2069 3584 
Q 2775 3584 3186 3129 
Q 3597 2675 3597 1894 
z
M 3022 2063 
Q 3016 2534 2758 2815 
Q 2500 3097 2075 3097 
Q 1594 3097 1305 2825 
Q 1016 2553 972 2059 
L 3022 2063 
z
" id="DejaVuSans-65" transform="scale(0.015625)"/>
       <path d="M 2906 2969 
L 2906 4863 
L 3481 4863 
L 3481 0 
L 2906 0 
L 2906 525 
Q 2725 213 2448 61 
Q 2172 -91 1784 -91 
Q 1150 -91 751 415 
Q 353 922 353 1747 
Q 353 2572 751 3078 
Q 1150 3584 1784 3584 
Q 2172 3584 2448 3432 
Q 2725 3281 2906 2969 
z
M 947 1747 
Q 947 1113 1208 752 
Q 1469 391 1925 391 
Q 2381 391 2643 752 
Q 2906 1113 2906 1747 
Q 2906 2381 2643 2742 
Q 2381 3103 1925 3103 
Q 1469 3103 1208 2742 
Q 947 2381 947 1747 
z
" id="DejaVuSans-64" transform="scale(0.015625)"/>
       <path d="M 544 1381 
L 544 3500 
L 1119 3500 
L 1119 1403 
Q 1119 906 1312 657 
Q 1506 409 1894 409 
Q 2359 409 2629 706 
Q 2900 1003 2900 1516 
L 2900 3500 
L 3475 3500 
L 3475 0 
L 2900 0 
L 2900 538 
Q 2691 219 2414 64 
Q 2138 -91 1772 -91 
Q 1169 -91 856 284 
Q 544 659 544 1381 
z
M 1991 3584 
L 1991 3584 
z
" id="DejaVuSans-75" transform="scale(0.015625)"/>
       <path d="M 1159 525 
L 1159 -1331 
L 581 -1331 
L 581 3500 
L 1159 3500 
L 1159 2969 
Q 1341 3281 1617 3432 
Q 1894 3584 2278 3584 
Q 2916 3584 3314 3078 
Q 3713 2572 3713 1747 
Q 3713 922 3314 415 
Q 2916 -91 2278 -91 
Q 1894 -91 1617 61 
Q 1341 213 1159 525 
z
M 3116 1747 
Q 3116 2381 2855 2742 
Q 2594 3103 2138 3103 
Q 1681 3103 1420 2742 
Q 1159 2381 1159 1747 
Q 1159 1113 1420 752 
Q 1681 391 2138 391 
Q 2594 391 2855 752 
Q 3116 1113 3116 1747 
z
" id="DejaVuSans-70" transform="scale(0.015625)"/>
       <path id="DejaVuSans-20" transform="scale(0.015625)"/>
       <path d="M 1984 4856 
Q 1566 4138 1362 3434 
Q 1159 2731 1159 2009 
Q 1159 1288 1364 580 
Q 1569 -128 1984 -844 
L 1484 -844 
Q 1016 -109 783 600 
Q 550 1309 550 2009 
Q 550 2706 781 3412 
Q 1013 4119 1484 4856 
L 1984 4856 
z
" id="DejaVuSans-28" transform="scale(0.015625)"/>
       <path d="M 628 4666 
L 1259 4666 
L 1259 531 
L 3531 531 
L 3531 0 
L 628 0 
L 628 4666 
z
" id="DejaVuSans-4c" transform="scale(0.015625)"/>
       <path d="M 1959 3097 
Q 1497 3097 1228 2736 
Q 959 2375 959 1747 
Q 959 1119 1226 758 
Q 1494 397 1959 397 
Q 2419 397 2687 759 
Q 2956 1122 2956 1747 
Q 2956 2369 2687 2733 
Q 2419 3097 1959 3097 
z
M 1959 3584 
Q 2709 3584 3137 3096 
Q 3566 2609 3566 1747 
Q 3566 888 3137 398 
Q 2709 -91 1959 -91 
Q 1206 -91 779 398 
Q 353 888 353 1747 
Q 353 2609 779 3096 
Q 1206 3584 1959 3584 
z
" id="DejaVuSans-6f" transform="scale(0.015625)"/>
       <path d="M 2906 1791 
Q 2906 2416 2648 2759 
Q 2391 3103 1925 3103 
Q 1463 3103 1205 2759 
Q 947 2416 947 1791 
Q 947 1169 1205 825 
Q 1463 481 1925 481 
Q 2391 481 2648 825 
Q 2906 1169 2906 1791 
z
M 3481 434 
Q 3481 -459 3084 -895 
Q 2688 -1331 1869 -1331 
Q 1566 -1331 1297 -1286 
Q 1028 -1241 775 -1147 
L 775 -588 
Q 1028 -725 1275 -790 
Q 1522 -856 1778 -856 
Q 2344 -856 2625 -561 
Q 2906 -266 2906 331 
L 2906 616 
Q 2728 306 2450 153 
Q 2172 0 1784 0 
Q 1141 0 747 490 
Q 353 981 353 1791 
Q 353 2603 747 3093 
Q 1141 3584 1784 3584 
Q 2172 3584 2450 3431 
Q 2728 3278 2906 2969 
L 2906 3500 
L 3481 3500 
L 3481 434 
z
" id="DejaVuSans-67" transform="scale(0.015625)"/>
       <path d="M 603 3500 
L 1178 3500 
L 1178 0 
L 603 0 
L 603 3500 
z
M 603 4863 
L 1178 4863 
L 1178 4134 
L 603 4134 
L 603 4863 
z
" id="DejaVuSans-69" transform="scale(0.015625)"/>
       <path d="M 3122 3366 
L 3122 2828 
Q 2878 2963 2633 3030 
Q 2388 3097 2138 3097 
Q 1578 3097 1268 2742 
Q 959 2388 959 1747 
Q 959 1106 1268 751 
Q 1578 397 2138 397 
Q 2388 397 2633 464 
Q 2878 531 3122 666 
L 3122 134 
Q 2881 22 2623 -34 
Q 2366 -91 2075 -91 
Q 1284 -91 818 406 
Q 353 903 353 1747 
Q 353 2603 823 3093 
Q 1294 3584 2113 3584 
Q 2378 3584 2631 3529 
Q 2884 3475 3122 3366 
z
" id="DejaVuSans-63" transform="scale(0.015625)"/>
       <path d="M 2194 1759 
Q 1497 1759 1228 1600 
Q 959 1441 959 1056 
Q 959 750 1161 570 
Q 1363 391 1709 391 
Q 2188 391 2477 730 
Q 2766 1069 2766 1631 
L 2766 1759 
L 2194 1759 
z
M 3341 1997 
L 3341 0 
L 2766 0 
L 2766 531 
Q 2569 213 2275 61 
Q 1981 -91 1556 -91 
Q 1019 -91 701 211 
Q 384 513 384 1019 
Q 384 1609 779 1909 
Q 1175 2209 1959 2209 
L 2766 2209 
L 2766 2266 
Q 2766 2663 2505 2880 
Q 2244 3097 1772 3097 
Q 1472 3097 1187 3025 
Q 903 2953 641 2809 
L 641 3341 
Q 956 3463 1253 3523 
Q 1550 3584 1831 3584 
Q 2591 3584 2966 3190 
Q 3341 2797 3341 1997 
z
" id="DejaVuSans-61" transform="scale(0.015625)"/>
       <path d="M 603 4863 
L 1178 4863 
L 1178 0 
L 603 0 
L 603 4863 
z
" id="DejaVuSans-6c" transform="scale(0.015625)"/>
       <path d="M 1625 4666 
L 2156 4666 
L 531 -594 
L 0 -594 
L 1625 4666 
z
" id="DejaVuSans-2f" transform="scale(0.015625)"/>
       <path d="M 1259 4147 
L 1259 2394 
L 2053 2394 
Q 2494 2394 2734 2622 
Q 2975 2850 2975 3272 
Q 2975 3691 2734 3919 
Q 2494 4147 2053 4147 
L 1259 4147 
z
M 628 4666 
L 2053 4666 
Q 2838 4666 3239 4311 
Q 3641 3956 3641 3272 
Q 3641 2581 3239 2228 
Q 2838 1875 2053 1875 
L 1259 1875 
L 1259 0 
L 628 0 
L 628 4666 
z
" id="DejaVuSans-50" transform="scale(0.015625)"/>
       <path d="M 3513 2113 
L 3513 0 
L 2938 0 
L 2938 2094 
Q 2938 2591 2744 2837 
Q 2550 3084 2163 3084 
Q 1697 3084 1428 2787 
Q 1159 2491 1159 1978 
L 1159 0 
L 581 0 
L 581 4863 
L 1159 4863 
L 1159 2956 
Q 1366 3272 1645 3428 
Q 1925 3584 2291 3584 
Q 2894 3584 3203 3211 
Q 3513 2838 3513 2113 
z
" id="DejaVuSans-68" transform="scale(0.015625)"/>
       <path d="M 2059 -325 
Q 1816 -950 1584 -1140 
Q 1353 -1331 966 -1331 
L 506 -1331 
L 506 -850 
L 844 -850 
Q 1081 -850 1212 -737 
Q 1344 -625 1503 -206 
L 1606 56 
L 191 3500 
L 800 3500 
L 1894 763 
L 2988 3500 
L 3597 3500 
L 2059 -325 
z
" id="DejaVuSans-79" transform="scale(0.015625)"/>
       <path d="M 2834 3397 
L 2834 2853 
Q 2591 2978 2328 3040 
Q 2066 3103 1784 3103 
Q 1356 3103 1142 2972 
Q 928 2841 928 2578 
Q 928 2378 1081 2264 
Q 1234 2150 1697 2047 
L 1894 2003 
Q 2506 1872 2764 1633 
Q 3022 1394 3022 966 
Q 3022 478 2636 193 
Q 2250 -91 1575 -91 
Q 1294 -91 989 -36 
Q 684 19 347 128 
L 347 722 
Q 666 556 975 473 
Q 1284 391 1588 391 
Q 1994 391 2212 530 
Q 2431 669 2431 922 
Q 2431 1156 2273 1281 
Q 2116 1406 1581 1522 
L 1381 1569 
Q 847 1681 609 1914 
Q 372 2147 372 2553 
Q 372 3047 722 3315 
Q 1072 3584 1716 3584 
Q 2034 3584 2315 3537 
Q 2597 3491 2834 3397 
z
" id="DejaVuSans-73" transform="scale(0.015625)"/>
       <path d="M 513 4856 
L 1013 4856 
Q 1481 4119 1714 3412 
Q 1947 2706 1947 2009 
Q 1947 1309 1714 600 
Q 1481 -109 1013 -844 
L 513 -844 
Q 928 -128 1133 580 
Q 1338 1288 1338 2009 
Q 1338 2731 1133 3434 
Q 928 4138 513 4856 
z
" id="DejaVuSans-29" transform="scale(0.015625)"/>
      </defs>
      <use xlink:href="#DejaVuSans-44"/>
      <use x="77.001953" xlink:href="#DejaVuSans-65"/>
      <use x="138.525391" xlink:href="#DejaVuSans-64"/>
      <use x="202.001953" xlink:href="#DejaVuSans-75"/>
      <use x="265.380859" xlink:href="#DejaVuSans-70"/>
      <use x="328.857422" xlink:href="#DejaVuSans-20"/>
      <use x="360.644531" xlink:href="#DejaVuSans-28"/>
      <use x="399.658203" xlink:href="#DejaVuSans-4c"/>
      <use x="453.621094" xlink:href="#DejaVuSans-6f"/>
      <use x="514.802734" xlink:href="#DejaVuSans-67"/>
      <use x="578.279297" xlink:href="#DejaVuSans-69"/>
      <use x="606.0625" xlink:href="#DejaVuSans-63"/>
      <use x="661.042969" xlink:href="#DejaVuSans-61"/>
      <use x="722.322266" xlink:href="#DejaVuSans-6c"/>
      <use x="750.105469" xlink:href="#DejaVuSans-20"/>
      <use x="781.892578" xlink:href="#DejaVuSans-2f"/>
      <use x="815.583984" xlink:href="#DejaVuSans-20"/>
      <use x="847.371094" xlink:href="#DejaVuSans-50"/>
      <use x="907.673828" xlink:href="#DejaVuSans-68"/>
      <use x="971.052734" xlink:href="#DejaVuSans-79"/>
      <use x="1030.232422" xlink:href="#DejaVuSans-73"/>
      <use x="1082.332031" xlink:href="#DejaVuSans-69"/>
      <use x="1110.115234" xlink:href="#DejaVuSans-63"/>
      <use x="1165.095703" xlink:href="#DejaVuSans-61"/>
      <use x="1226.375" xlink:href="#DejaVuSans-6c"/>
      <use x="1254.158203" xlink:href="#DejaVuSans-29"/>
     </g>
    </g>
   </g>
   <g id="line2d_50">
    <defs>
     <path d="M 0 3 
C 0.795609 3 1.55874 2.683901 2.12132 2.12132 
C 2.683901 1.55874 3 0.795609 3 0 
C 3 -0.795609 2.683901 -1.55874 2.12132 -2.12132 
C 1.55874 -2.683901 0.795609 -3 0 -3 
C -0.795609 -3 -1.55874 -2.683901 -2.12132 -2.12132 
C -2.683901 -1.55874 -3 -0.795609 -3 0 
C -3 0.795609 -2.683901 1.55874 -2.12132 2.12132 
C -1.55874 2.683901 -0.795609 3 0 3 
z
" id="m8a8a26a34a" style="stroke:#1f77b4;"/>
    </defs>
    <g clip-path="url(#pff516b8277)">
     <use style="fill:#1f77b4;stroke:#1f77b4;" x="70.20975" xlink:href="#m8a8a26a34a" y="278.169306"/>
     <use style="fill:#1f77b4;stroke:#1f77b4;" x="72.970856" xlink:href="#m8a8a26a34a" y="230.152868"/>
     <use style="fill:#1f77b4;stroke:#1f77b4;" x="75.731963" xlink:href="#m8a8a26a34a" y="242.325301"/>
     <use style="fill:#1f77b4;stroke:#1f77b4;" x="81.254177" xlink:href="#m8a8a26a34a" y="248.973006"/>
     <use style="fill:#1f77b4;stroke:#1f77b4;" x="84.015284" xlink:href="#m8a8a26a34a" y="243.069045"/>
     <use style="fill:#1f77b4;stroke:#1f77b4;" x="86.776391" xlink:href="#m8a8a26a34a" y="245.764312"/>
     <use style="fill:#1f77b4;stroke:#1f77b4;" x="92.298605" xlink:href="#m8a8a26a34a" y="247.628588"/>
     <use style="fill:#1f77b4;stroke:#1f77b4;" x="95.059711" xlink:href="#m8a8a26a34a" y="193.191971"/>
     <use style="fill:#1f77b4;stroke:#1f77b4;" x="100.581925" xlink:href="#m8a8a26a34a" y="246.149022"/>
     <use style="fill:#1f77b4;stroke:#1f77b4;" x="103.343032" xlink:href="#m8a8a26a34a" y="177.165174"/>
     <use style="fill:#1f77b4;stroke:#1f77b4;" x="106.104139" xlink:href="#m8a8a26a34a" y="247.032205"/>
     <use style="fill:#1f77b4;stroke:#1f77b4;" x="108.865246" xlink:href="#m8a8a26a34a" y="250.224904"/>
     <use style="fill:#1f77b4;stroke:#1f77b4;" x="111.626353" xlink:href="#m8a8a26a34a" y="241.514981"/>
     <use style="fill:#1f77b4;stroke:#1f77b4;" x="114.38746" xlink:href="#m8a8a26a34a" y="127.980271"/>
     <use style="fill:#1f77b4;stroke:#1f77b4;" x="117.148566" xlink:href="#m8a8a26a34a" y="139.911336"/>
     <use style="fill:#1f77b4;stroke:#1f77b4;" x="119.909673" xlink:href="#m8a8a26a34a" y="252.477066"/>
     <use style="fill:#1f77b4;stroke:#1f77b4;" x="122.67078" xlink:href="#m8a8a26a34a" y="239.991713"/>
     <use style="fill:#1f77b4;stroke:#1f77b4;" x="125.431887" xlink:href="#m8a8a26a34a" y="242.942397"/>
     <use style="fill:#1f77b4;stroke:#1f77b4;" x="128.192994" xlink:href="#m8a8a26a34a" y="236.087488"/>
     <use style="fill:#1f77b4;stroke:#1f77b4;" x="130.954101" xlink:href="#m8a8a26a34a" y="179.97908"/>
     <use style="fill:#1f77b4;stroke:#1f77b4;" x="133.715208" xlink:href="#m8a8a26a34a" y="202.744257"/>
     <use style="fill:#1f77b4;stroke:#1f77b4;" x="136.476315" xlink:href="#m8a8a26a34a" y="179.923954"/>
     <use style="fill:#1f77b4;stroke:#1f77b4;" x="139.237421" xlink:href="#m8a8a26a34a" y="245.138558"/>
     <use style="fill:#1f77b4;stroke:#1f77b4;" x="141.998528" xlink:href="#m8a8a26a34a" y="193.213002"/>
     <use style="fill:#1f77b4;stroke:#1f77b4;" x="144.759635" xlink:href="#m8a8a26a34a" y="246.533587"/>
     <use style="fill:#1f77b4;stroke:#1f77b4;" x="147.520742" xlink:href="#m8a8a26a34a" y="238.617958"/>
     <use style="fill:#1f77b4;stroke:#1f77b4;" x="150.281849" xlink:href="#m8a8a26a34a" y="241.444245"/>
     <use style="fill:#1f77b4;stroke:#1f77b4;" x="153.042956" xlink:href="#m8a8a26a34a" y="180.648549"/>
     <use style="fill:#1f77b4;stroke:#1f77b4;" x="155.804063" xlink:href="#m8a8a26a34a" y="186.167539"/>
     <use style="fill:#1f77b4;stroke:#1f77b4;" x="158.56517" xlink:href="#m8a8a26a34a" y="243.043983"/>
     <use style="fill:#1f77b4;stroke:#1f77b4;" x="161.326276" xlink:href="#m8a8a26a34a" y="240.599424"/>
     <use style="fill:#1f77b4;stroke:#1f77b4;" x="164.087383" xlink:href="#m8a8a26a34a" y="248.262442"/>
     <use style="fill:#1f77b4;stroke:#1f77b4;" x="166.84849" xlink:href="#m8a8a26a34a" y="244.370159"/>
     <use style="fill:#1f77b4;stroke:#1f77b4;" x="172.370704" xlink:href="#m8a8a26a34a" y="169.782567"/>
     <use style="fill:#1f77b4;stroke:#1f77b4;" x="175.131811" xlink:href="#m8a8a26a34a" y="173.022103"/>
     <use style="fill:#1f77b4;stroke:#1f77b4;" x="177.892918" xlink:href="#m8a8a26a34a" y="195.800246"/>
     <use style="fill:#1f77b4;stroke:#1f77b4;" x="183.415131" xlink:href="#m8a8a26a34a" y="169.088231"/>
     <use style="fill:#1f77b4;stroke:#1f77b4;" x="186.176238" xlink:href="#m8a8a26a34a" y="171.554136"/>
     <use style="fill:#1f77b4;stroke:#1f77b4;" x="188.937345" xlink:href="#m8a8a26a34a" y="246.714243"/>
     <use style="fill:#1f77b4;stroke:#1f77b4;" x="191.698452" xlink:href="#m8a8a26a34a" y="220.182255"/>
     <use style="fill:#1f77b4;stroke:#1f77b4;" x="194.459559" xlink:href="#m8a8a26a34a" y="176.914017"/>
     <use style="fill:#1f77b4;stroke:#1f77b4;" x="197.220666" xlink:href="#m8a8a26a34a" y="249.357812"/>
     <use style="fill:#1f77b4;stroke:#1f77b4;" x="199.981773" xlink:href="#m8a8a26a34a" y="250.052928"/>
     <use style="fill:#1f77b4;stroke:#1f77b4;" x="202.742879" xlink:href="#m8a8a26a34a" y="242.663549"/>
     <use style="fill:#1f77b4;stroke:#1f77b4;" x="205.503986" xlink:href="#m8a8a26a34a" y="241.402802"/>
     <use style="fill:#1f77b4;stroke:#1f77b4;" x="208.265093" xlink:href="#m8a8a26a34a" y="248.507916"/>
     <use style="fill:#1f77b4;stroke:#1f77b4;" x="211.0262" xlink:href="#m8a8a26a34a" y="140.240405"/>
     <use style="fill:#1f77b4;stroke:#1f77b4;" x="216.548414" xlink:href="#m8a8a26a34a" y="239.964193"/>
     <use style="fill:#1f77b4;stroke:#1f77b4;" x="219.309521" xlink:href="#m8a8a26a34a" y="243.321238"/>
     <use style="fill:#1f77b4;stroke:#1f77b4;" x="222.070628" xlink:href="#m8a8a26a34a" y="236.423571"/>
     <use style="fill:#1f77b4;stroke:#1f77b4;" x="224.831734" xlink:href="#m8a8a26a34a" y="239.767184"/>
     <use style="fill:#1f77b4;stroke:#1f77b4;" x="227.592841" xlink:href="#m8a8a26a34a" y="236.941253"/>
     <use style="fill:#1f77b4;stroke:#1f77b4;" x="280.053872" xlink:href="#m8a8a26a34a" y="258.387595"/>
     <use style="fill:#1f77b4;stroke:#1f77b4;" x="282.814979" xlink:href="#m8a8a26a34a" y="242.85176"/>
     <use style="fill:#1f77b4;stroke:#1f77b4;" x="285.576086" xlink:href="#m8a8a26a34a" y="162.247669"/>
     <use style="fill:#1f77b4;stroke:#1f77b4;" x="288.337193" xlink:href="#m8a8a26a34a" y="168.764195"/>
     <use style="fill:#1f77b4;stroke:#1f77b4;" x="293.859406" xlink:href="#m8a8a26a34a" y="244.608241"/>
     <use style="fill:#1f77b4;stroke:#1f77b4;" x="296.620513" xlink:href="#m8a8a26a34a" y="247.053332"/>
     <use style="fill:#1f77b4;stroke:#1f77b4;" x="299.38162" xlink:href="#m8a8a26a34a" y="244.575321"/>
     <use style="fill:#1f77b4;stroke:#1f77b4;" x="302.142727" xlink:href="#m8a8a26a34a" y="167.544079"/>
     <use style="fill:#1f77b4;stroke:#1f77b4;" x="304.903834" xlink:href="#m8a8a26a34a" y="195.797179"/>
     <use style="fill:#1f77b4;stroke:#1f77b4;" x="313.187154" xlink:href="#m8a8a26a34a" y="207.089607"/>
     <use style="fill:#1f77b4;stroke:#1f77b4;" x="324.231582" xlink:href="#m8a8a26a34a" y="173.719722"/>
     <use style="fill:#1f77b4;stroke:#1f77b4;" x="326.992689" xlink:href="#m8a8a26a34a" y="161.490097"/>
     <use style="fill:#1f77b4;stroke:#1f77b4;" x="329.753796" xlink:href="#m8a8a26a34a" y="184.721907"/>
     <use style="fill:#1f77b4;stroke:#1f77b4;" x="332.514903" xlink:href="#m8a8a26a34a" y="248.218401"/>
     <use style="fill:#1f77b4;stroke:#1f77b4;" x="335.276009" xlink:href="#m8a8a26a34a" y="248.049038"/>
     <use style="fill:#1f77b4;stroke:#1f77b4;" x="338.037116" xlink:href="#m8a8a26a34a" y="231.219709"/>
     <use style="fill:#1f77b4;stroke:#1f77b4;" x="340.798223" xlink:href="#m8a8a26a34a" y="242.102241"/>
     <use style="fill:#1f77b4;stroke:#1f77b4;" x="343.55933" xlink:href="#m8a8a26a34a" y="246.492193"/>
     <use style="fill:#1f77b4;stroke:#1f77b4;" x="346.320437" xlink:href="#m8a8a26a34a" y="152.756116"/>
     <use style="fill:#1f77b4;stroke:#1f77b4;" x="349.081544" xlink:href="#m8a8a26a34a" y="39.301053"/>
     <use style="fill:#1f77b4;stroke:#1f77b4;" x="357.364864" xlink:href="#m8a8a26a34a" y="178.029775"/>
     <use style="fill:#1f77b4;stroke:#1f77b4;" x="362.887078" xlink:href="#m8a8a26a34a" y="119.675914"/>
     <use style="fill:#1f77b4;stroke:#1f77b4;" x="365.648185" xlink:href="#m8a8a26a34a" y="182.22671"/>
     <use style="fill:#1f77b4;stroke:#1f77b4;" x="368.409292" xlink:href="#m8a8a26a34a" y="38.846157"/>
     <use style="fill:#1f77b4;stroke:#1f77b4;" x="371.170399" xlink:href="#m8a8a26a34a" y="247.99002"/>
     <use style="fill:#1f77b4;stroke:#1f77b4;" x="373.931506" xlink:href="#m8a8a26a34a" y="243.326555"/>
     <use style="fill:#1f77b4;stroke:#1f77b4;" x="376.692613" xlink:href="#m8a8a26a34a" y="250.809348"/>
     <use style="fill:#1f77b4;stroke:#1f77b4;" x="379.453719" xlink:href="#m8a8a26a34a" y="242.647459"/>
     <use style="fill:#1f77b4;stroke:#1f77b4;" x="382.214826" xlink:href="#m8a8a26a34a" y="244.526563"/>
     <use style="fill:#1f77b4;stroke:#1f77b4;" x="384.975933" xlink:href="#m8a8a26a34a" y="97.426673"/>
     <use style="fill:#1f77b4;stroke:#1f77b4;" x="387.73704" xlink:href="#m8a8a26a34a" y="162.96377"/>
     <use style="fill:#1f77b4;stroke:#1f77b4;" x="390.498147" xlink:href="#m8a8a26a34a" y="252.406022"/>
     <use style="fill:#1f77b4;stroke:#1f77b4;" x="393.259254" xlink:href="#m8a8a26a34a" y="249.74401"/>
     <use style="fill:#1f77b4;stroke:#1f77b4;" x="396.020361" xlink:href="#m8a8a26a34a" y="251.314935"/>
     <use style="fill:#1f77b4;stroke:#1f77b4;" x="398.781467" xlink:href="#m8a8a26a34a" y="257.815338"/>
     <use style="fill:#1f77b4;stroke:#1f77b4;" x="401.542574" xlink:href="#m8a8a26a34a" y="249.142724"/>
     <use style="fill:#1f77b4;stroke:#1f77b4;" x="404.303681" xlink:href="#m8a8a26a34a" y="177.911762"/>
     <use style="fill:#1f77b4;stroke:#1f77b4;" x="409.825895" xlink:href="#m8a8a26a34a" y="164.942731"/>
     <use style="fill:#1f77b4;stroke:#1f77b4;" x="415.348109" xlink:href="#m8a8a26a34a" y="248.624657"/>
     <use style="fill:#1f77b4;stroke:#1f77b4;" x="418.109216" xlink:href="#m8a8a26a34a" y="246.170469"/>
     <use style="fill:#1f77b4;stroke:#1f77b4;" x="420.870322" xlink:href="#m8a8a26a34a" y="247.897627"/>
     <use style="fill:#1f77b4;stroke:#1f77b4;" x="423.631429" xlink:href="#m8a8a26a34a" y="175.820753"/>
     <use style="fill:#1f77b4;stroke:#1f77b4;" x="429.153643" xlink:href="#m8a8a26a34a" y="239.370661"/>
     <use style="fill:#1f77b4;stroke:#1f77b4;" x="431.91475" xlink:href="#m8a8a26a34a" y="245.281594"/>
    </g>
   </g>
   <g id="line2d_51">
    <path clip-path="url(#pff516b8277)" d="M 70.20975 278.169306 
L 72.970856 264.27481 
L 75.731963 258.810447 
L 78.49307 251.646753 
L 81.254177 251.128348 
L 84.015284 249.914974 
L 86.776391 249.359662 
L 92.298605 249.137893 
L 95.059711 246.414457 
L 97.820818 243.694649 
L 100.581925 243.944235 
L 103.343032 241.816671 
L 106.104139 242.285847 
L 108.865246 243.000927 
L 111.626353 242.897702 
L 114.38746 241.213634 
L 117.148566 239.6497 
L 119.909673 240.546824 
L 122.67078 240.51731 
L 125.431887 240.640743 
L 128.192994 240.441357 
L 130.954101 239.39234 
L 133.715208 238.546269 
L 136.476315 237.593773 
L 139.237421 237.95296 
L 141.998528 237.126715 
L 144.759635 237.562492 
L 147.520742 237.600219 
L 150.281849 237.742836 
L 153.042956 236.993039 
L 155.804063 236.291037 
L 158.56517 236.537252 
L 161.326276 236.675872 
L 164.087383 237.129103 
L 166.84849 237.386466 
L 169.609597 236.640241 
L 172.370704 235.964688 
L 175.131811 235.31654 
L 177.892918 234.771663 
L 180.654024 234.106047 
L 183.415131 233.504859 
L 186.176238 232.925109 
L 188.937345 233.379402 
L 191.698452 233.130589 
L 194.459559 232.601516 
L 197.220666 233.150671 
L 199.981773 233.693724 
L 202.742879 233.914679 
L 205.503986 234.092038 
L 208.265093 234.506973 
L 211.0262 233.997285 
L 213.787307 233.486891 
L 216.548414 233.638392 
L 219.309521 233.876389 
L 222.070628 233.925115 
L 224.831734 234.044291 
L 227.592841 234.099443 
L 280.053872 234.955708 
L 282.814979 235.146728 
L 285.576086 234.670409 
L 288.337193 234.212073 
L 291.098299 233.729085 
L 293.859406 233.994612 
L 296.620513 234.322641 
L 299.38162 234.564287 
L 302.142727 234.128967 
L 304.903834 233.768639 
L 307.664941 233.319298 
L 310.426048 232.878001 
L 313.187154 232.595397 
L 315.948261 232.166027 
L 318.709368 231.744008 
L 321.470475 231.329093 
L 324.231582 230.96076 
L 326.992689 230.583507 
L 329.753796 230.250405 
L 332.514903 230.666426 
L 335.276009 231.058742 
L 338.037116 231.061234 
L 340.798223 231.272305 
L 343.55933 231.587202 
L 346.320437 231.234113 
L 349.081544 230.87145 
L 357.364864 230.556076 
L 360.125971 230.203636 
L 362.887078 229.860114 
L 365.648185 229.567379 
L 368.409292 229.229584 
L 371.170399 229.607133 
L 373.931506 229.856697 
L 376.692613 230.299958 
L 379.453719 230.513119 
L 382.214826 230.761452 
L 384.975933 230.43906 
L 387.73704 230.140228 
L 390.498147 230.605018 
L 393.259254 230.976803 
L 396.020361 231.381046 
L 398.781467 231.988848 
L 401.542574 232.305427 
L 404.303681 232.025438 
L 409.825895 231.73514 
L 415.348109 232.040839 
L 418.109216 232.281591 
L 420.870322 232.549451 
L 423.631429 232.277219 
L 426.392536 231.978188 
L 429.153643 232.081315 
L 431.91475 232.293689 
" style="fill:none;stroke:#ff7f0e;stroke-linecap:square;stroke-width:1.5;"/>
   </g>
   <g id="patch_3">
    <path d="M 52.1245 290.135464 
L 52.1245 26.88 
" style="fill:none;stroke:#000000;stroke-linecap:square;stroke-linejoin:miter;stroke-width:0.8;"/>
   </g>
   <g id="patch_4">
    <path d="M 450 290.135464 
L 450 26.88 
" style="fill:none;stroke:#000000;stroke-linecap:square;stroke-linejoin:miter;stroke-width:0.8;"/>
   </g>
   <g id="patch_5">
    <path d="M 52.1245 290.135464 
L 450 290.135464 
" style="fill:none;stroke:#000000;stroke-linecap:square;stroke-linejoin:miter;stroke-width:0.8;"/>
   </g>
   <g id="patch_6">
    <path d="M 52.1245 26.88 
L 450 26.88 
" style="fill:none;stroke:#000000;stroke-linecap:square;stroke-linejoin:miter;stroke-width:0.8;"/>
   </g>
   <g id="text_15">
    <!-- Instantaneous Daily Dedup (ex0-run31) -->
    <g transform="translate(132.266 20.88)scale(0.12 -0.12)">
     <defs>
      <path d="M 628 4666 
L 1259 4666 
L 1259 0 
L 628 0 
L 628 4666 
z
" id="DejaVuSans-49" transform="scale(0.015625)"/>
      <path d="M 3513 2113 
L 3513 0 
L 2938 0 
L 2938 2094 
Q 2938 2591 2744 2837 
Q 2550 3084 2163 3084 
Q 1697 3084 1428 2787 
Q 1159 2491 1159 1978 
L 1159 0 
L 581 0 
L 581 3500 
L 1159 3500 
L 1159 2956 
Q 1366 3272 1645 3428 
Q 1925 3584 2291 3584 
Q 2894 3584 3203 3211 
Q 3513 2838 3513 2113 
z
" id="DejaVuSans-6e" transform="scale(0.015625)"/>
      <path d="M 1172 4494 
L 1172 3500 
L 2356 3500 
L 2356 3053 
L 1172 3053 
L 1172 1153 
Q 1172 725 1289 603 
Q 1406 481 1766 481 
L 2356 481 
L 2356 0 
L 1766 0 
Q 1100 0 847 248 
Q 594 497 594 1153 
L 594 3053 
L 172 3053 
L 172 3500 
L 594 3500 
L 594 4494 
L 1172 4494 
z
" id="DejaVuSans-74" transform="scale(0.015625)"/>
      <path d="M 3513 3500 
L 2247 1797 
L 3578 0 
L 2900 0 
L 1881 1375 
L 863 0 
L 184 0 
L 1544 1831 
L 300 3500 
L 978 3500 
L 1906 2253 
L 2834 3500 
L 3513 3500 
z
" id="DejaVuSans-78" transform="scale(0.015625)"/>
      <path d="M 2631 2963 
Q 2534 3019 2420 3045 
Q 2306 3072 2169 3072 
Q 1681 3072 1420 2755 
Q 1159 2438 1159 1844 
L 1159 0 
L 581 0 
L 581 3500 
L 1159 3500 
L 1159 2956 
Q 1341 3275 1631 3429 
Q 1922 3584 2338 3584 
Q 2397 3584 2469 3576 
Q 2541 3569 2628 3553 
L 2631 2963 
z
" id="DejaVuSans-72" transform="scale(0.015625)"/>
     </defs>
     <use xlink:href="#DejaVuSans-49"/>
     <use x="29.492188" xlink:href="#DejaVuSans-6e"/>
     <use x="92.871094" xlink:href="#DejaVuSans-73"/>
     <use x="144.970703" xlink:href="#DejaVuSans-74"/>
     <use x="184.179688" xlink:href="#DejaVuSans-61"/>
     <use x="245.458984" xlink:href="#DejaVuSans-6e"/>
     <use x="308.837891" xlink:href="#DejaVuSans-74"/>
     <use x="348.046875" xlink:href="#DejaVuSans-61"/>
     <use x="409.326172" xlink:href="#DejaVuSans-6e"/>
     <use x="472.705078" xlink:href="#DejaVuSans-65"/>
     <use x="534.228516" xlink:href="#DejaVuSans-6f"/>
     <use x="595.410156" xlink:href="#DejaVuSans-75"/>
     <use x="658.789062" xlink:href="#DejaVuSans-73"/>
     <use x="710.888672" xlink:href="#DejaVuSans-20"/>
     <use x="742.675781" xlink:href="#DejaVuSans-44"/>
     <use x="819.677734" xlink:href="#DejaVuSans-61"/>
     <use x="880.957031" xlink:href="#DejaVuSans-69"/>
     <use x="908.740234" xlink:href="#DejaVuSans-6c"/>
     <use x="936.523438" xlink:href="#DejaVuSans-79"/>
     <use x="995.703125" xlink:href="#DejaVuSans-20"/>
     <use x="1027.490234" xlink:href="#DejaVuSans-44"/>
     <use x="1104.492188" xlink:href="#DejaVuSans-65"/>
     <use x="1166.015625" xlink:href="#DejaVuSans-64"/>
     <use x="1229.492188" xlink:href="#DejaVuSans-75"/>
     <use x="1292.871094" xlink:href="#DejaVuSans-70"/>
     <use x="1356.347656" xlink:href="#DejaVuSans-20"/>
     <use x="1388.134766" xlink:href="#DejaVuSans-28"/>
     <use x="1427.148438" xlink:href="#DejaVuSans-65"/>
     <use x="1486.921875" xlink:href="#DejaVuSans-78"/>
     <use x="1546.101562" xlink:href="#DejaVuSans-30"/>
     <use x="1609.724609" xlink:href="#DejaVuSans-2d"/>
     <use x="1645.808594" xlink:href="#DejaVuSans-72"/>
     <use x="1686.921875" xlink:href="#DejaVuSans-75"/>
     <use x="1750.300781" xlink:href="#DejaVuSans-6e"/>
     <use x="1813.679688" xlink:href="#DejaVuSans-33"/>
     <use x="1877.302734" xlink:href="#DejaVuSans-31"/>
     <use x="1940.925781" xlink:href="#DejaVuSans-29"/>
    </g>
   </g>
   <g id="legend_1">
    <g id="patch_7">
     <path d="M 59.1245 64.7925 
L 226.604187 64.7925 
Q 228.604187 64.7925 228.604187 62.7925 
L 228.604187 33.88 
Q 228.604187 31.88 226.604187 31.88 
L 59.1245 31.88 
Q 57.1245 31.88 57.1245 33.88 
L 57.1245 62.7925 
Q 57.1245 64.7925 59.1245 64.7925 
z
" style="fill:#ffffff;opacity:0.8;stroke:#cccccc;stroke-linejoin:miter;"/>
    </g>
    <g id="line2d_52"/>
    <g id="line2d_53"/>
    <g id="text_16">
     <!-- Dedup_User18 -->
     <g transform="translate(89.1245 43.478438)scale(0.1 -0.1)">
      <defs>
       <path d="M 3263 -1063 
L 3263 -1509 
L -63 -1509 
L -63 -1063 
L 3263 -1063 
z
" id="DejaVuSans-5f" transform="scale(0.015625)"/>
       <path d="M 556 4666 
L 1191 4666 
L 1191 1831 
Q 1191 1081 1462 751 
Q 1734 422 2344 422 
Q 2950 422 3222 751 
Q 3494 1081 3494 1831 
L 3494 4666 
L 4128 4666 
L 4128 1753 
Q 4128 841 3676 375 
Q 3225 -91 2344 -91 
Q 1459 -91 1007 375 
Q 556 841 556 1753 
L 556 4666 
z
" id="DejaVuSans-55" transform="scale(0.015625)"/>
       <path d="M 2034 2216 
Q 1584 2216 1326 1975 
Q 1069 1734 1069 1313 
Q 1069 891 1326 650 
Q 1584 409 2034 409 
Q 2484 409 2743 651 
Q 3003 894 3003 1313 
Q 3003 1734 2745 1975 
Q 2488 2216 2034 2216 
z
M 1403 2484 
Q 997 2584 770 2862 
Q 544 3141 544 3541 
Q 544 4100 942 4425 
Q 1341 4750 2034 4750 
Q 2731 4750 3128 4425 
Q 3525 4100 3525 3541 
Q 3525 3141 3298 2862 
Q 3072 2584 2669 2484 
Q 3125 2378 3379 2068 
Q 3634 1759 3634 1313 
Q 3634 634 3220 271 
Q 2806 -91 2034 -91 
Q 1263 -91 848 271 
Q 434 634 434 1313 
Q 434 1759 690 2068 
Q 947 2378 1403 2484 
z
M 1172 3481 
Q 1172 3119 1398 2916 
Q 1625 2713 2034 2713 
Q 2441 2713 2670 2916 
Q 2900 3119 2900 3481 
Q 2900 3844 2670 4047 
Q 2441 4250 2034 4250 
Q 1625 4250 1398 4047 
Q 1172 3844 1172 3481 
z
" id="DejaVuSans-38" transform="scale(0.015625)"/>
      </defs>
      <use xlink:href="#DejaVuSans-44"/>
      <use x="77.001953" xlink:href="#DejaVuSans-65"/>
      <use x="138.525391" xlink:href="#DejaVuSans-64"/>
      <use x="202.001953" xlink:href="#DejaVuSans-75"/>
      <use x="265.380859" xlink:href="#DejaVuSans-70"/>
      <use x="328.857422" xlink:href="#DejaVuSans-5f"/>
      <use x="378.857422" xlink:href="#DejaVuSans-55"/>
      <use x="452.050781" xlink:href="#DejaVuSans-73"/>
      <use x="504.150391" xlink:href="#DejaVuSans-65"/>
      <use x="565.673828" xlink:href="#DejaVuSans-72"/>
      <use x="606.787109" xlink:href="#DejaVuSans-31"/>
      <use x="670.410156" xlink:href="#DejaVuSans-38"/>
     </g>
    </g>
    <g id="line2d_54">
     <path d="M 61.1245 54.934688 
L 81.1245 54.934688 
" style="fill:none;stroke:#ff7f0e;stroke-linecap:square;stroke-width:1.5;"/>
    </g>
    <g id="line2d_55"/>
    <g id="text_17">
     <!-- Cumulative_Dedup_User18 -->
     <g transform="translate(89.1245 58.434688)scale(0.1 -0.1)">
      <defs>
       <path d="M 4122 4306 
L 4122 3641 
Q 3803 3938 3442 4084 
Q 3081 4231 2675 4231 
Q 1875 4231 1450 3742 
Q 1025 3253 1025 2328 
Q 1025 1406 1450 917 
Q 1875 428 2675 428 
Q 3081 428 3442 575 
Q 3803 722 4122 1019 
L 4122 359 
Q 3791 134 3420 21 
Q 3050 -91 2638 -91 
Q 1578 -91 968 557 
Q 359 1206 359 2328 
Q 359 3453 968 4101 
Q 1578 4750 2638 4750 
Q 3056 4750 3426 4639 
Q 3797 4528 4122 4306 
z
" id="DejaVuSans-43" transform="scale(0.015625)"/>
       <path d="M 3328 2828 
Q 3544 3216 3844 3400 
Q 4144 3584 4550 3584 
Q 5097 3584 5394 3201 
Q 5691 2819 5691 2113 
L 5691 0 
L 5113 0 
L 5113 2094 
Q 5113 2597 4934 2840 
Q 4756 3084 4391 3084 
Q 3944 3084 3684 2787 
Q 3425 2491 3425 1978 
L 3425 0 
L 2847 0 
L 2847 2094 
Q 2847 2600 2669 2842 
Q 2491 3084 2119 3084 
Q 1678 3084 1418 2786 
Q 1159 2488 1159 1978 
L 1159 0 
L 581 0 
L 581 3500 
L 1159 3500 
L 1159 2956 
Q 1356 3278 1631 3431 
Q 1906 3584 2284 3584 
Q 2666 3584 2933 3390 
Q 3200 3197 3328 2828 
z
" id="DejaVuSans-6d" transform="scale(0.015625)"/>
       <path d="M 191 3500 
L 800 3500 
L 1894 563 
L 2988 3500 
L 3597 3500 
L 2284 0 
L 1503 0 
L 191 3500 
z
" id="DejaVuSans-76" transform="scale(0.015625)"/>
      </defs>
      <use xlink:href="#DejaVuSans-43"/>
      <use x="69.824219" xlink:href="#DejaVuSans-75"/>
      <use x="133.203125" xlink:href="#DejaVuSans-6d"/>
      <use x="230.615234" xlink:href="#DejaVuSans-75"/>
      <use x="293.994141" xlink:href="#DejaVuSans-6c"/>
      <use x="321.777344" xlink:href="#DejaVuSans-61"/>
      <use x="383.056641" xlink:href="#DejaVuSans-74"/>
      <use x="422.265625" xlink:href="#DejaVuSans-69"/>
      <use x="450.048828" xlink:href="#DejaVuSans-76"/>
      <use x="509.228516" xlink:href="#DejaVuSans-65"/>
      <use x="570.751953" xlink:href="#DejaVuSans-5f"/>
      <use x="620.751953" xlink:href="#DejaVuSans-44"/>
      <use x="697.753906" xlink:href="#DejaVuSans-65"/>
      <use x="759.277344" xlink:href="#DejaVuSans-64"/>
      <use x="822.753906" xlink:href="#DejaVuSans-75"/>
      <use x="886.132812" xlink:href="#DejaVuSans-70"/>
      <use x="949.609375" xlink:href="#DejaVuSans-5f"/>
      <use x="999.609375" xlink:href="#DejaVuSans-55"/>
      <use x="1072.802734" xlink:href="#DejaVuSans-73"/>
      <use x="1124.902344" xlink:href="#DejaVuSans-65"/>
      <use x="1186.425781" xlink:href="#DejaVuSans-72"/>
      <use x="1227.539062" xlink:href="#DejaVuSans-31"/>
      <use x="1291.162109" xlink:href="#DejaVuSans-38"/>
     </g>
    </g>
   </g>
  </g>
 </g>
 <defs>
  <clipPath id="pff516b8277">
   <rect height="263.255464" width="397.8755" x="52.1245" y="26.88"/>
  </clipPath>
 </defs>
</svg>
