<?xml version="1.0" encoding="utf-8" standalone="no"?>
<!DOCTYPE svg PUBLIC "-//W3C//DTD SVG 1.1//EN"
  "http://www.w3.org/Graphics/SVG/1.1/DTD/svg11.dtd">
<svg height="345.6pt" version="1.1" viewBox="0 0 460.8 345.6" width="460.8pt" xmlns="http://www.w3.org/2000/svg" xmlns:xlink="http://www.w3.org/1999/xlink">
 <metadata>
  <rdf:RDF xmlns:cc="http://creativecommons.org/ns#" xmlns:dc="http://purl.org/dc/elements/1.1/" xmlns:rdf="http://www.w3.org/1999/02/22-rdf-syntax-ns#">
   <cc:Work>
    <dc:type rdf:resource="http://purl.org/dc/dcmitype/StillImage"/>
    <dc:date>2021-12-02T19:02:26.998838</dc:date>
    <dc:format>image/svg+xml</dc:format>
    <dc:creator>
     <cc:Agent>
      <dc:title>Matplotlib v3.4.3, https://matplotlib.org/</dc:title>
     </cc:Agent>
    </dc:creator>
   </cc:Work>
  </rdf:RDF>
 </metadata>
 <defs>
  <style type="text/css">*{stroke-linecap:butt;stroke-linejoin:round;}</style>
 </defs>
 <g id="figure_1">
  <g id="patch_1">
   <path d="M 0 345.6 
L 460.8 345.6 
L 460.8 0 
L 0 0 
z
" style="fill:#ffffff;"/>
  </g>
  <g id="axes_1">
   <g id="patch_2">
    <path d="M 57.6 307.584 
L 414.72 307.584 
L 414.72 41.472 
L 57.6 41.472 
z
" style="fill:#ffffff;"/>
   </g>
   <g id="patch_3">
    <path clip-path="url(#pccb40f3a2d)" d="M 58.2975 307.584 
L 59.6925 307.584 
L 59.6925 300.430639 
L 58.2975 300.430639 
z
" style="fill:#1f77b4;"/>
   </g>
   <g id="patch_4">
    <path clip-path="url(#pccb40f3a2d)" d="M 61.0875 307.584 
L 62.4825 307.584 
L 62.4825 300.226072 
L 61.0875 300.226072 
z
" style="fill:#1f77b4;"/>
   </g>
   <g id="patch_5">
    <path clip-path="url(#pccb40f3a2d)" d="M 63.8775 307.584 
L 65.2725 307.584 
L 65.2725 302.438715 
L 63.8775 302.438715 
z
" style="fill:#1f77b4;"/>
   </g>
   <g id="patch_6">
    <path clip-path="url(#pccb40f3a2d)" d="M 66.6675 307.584 
L 68.0625 307.584 
L 68.0625 297.906824 
L 66.6675 297.906824 
z
" style="fill:#1f77b4;"/>
   </g>
   <g id="patch_7">
    <path clip-path="url(#pccb40f3a2d)" d="M 69.4575 307.584 
L 70.8525 307.584 
L 70.8525 300.575985 
L 69.4575 300.575985 
z
" style="fill:#1f77b4;"/>
   </g>
   <g id="patch_8">
    <path clip-path="url(#pccb40f3a2d)" d="M 72.2475 307.584 
L 73.6425 307.584 
L 73.6425 299.000461 
L 72.2475 299.000461 
z
" style="fill:#1f77b4;"/>
   </g>
   <g id="patch_9">
    <path clip-path="url(#pccb40f3a2d)" d="M 75.0375 307.584 
L 76.4325 307.584 
L 76.4325 303.659485 
L 75.0375 303.659485 
z
" style="fill:#1f77b4;"/>
   </g>
   <g id="patch_10">
    <path clip-path="url(#pccb40f3a2d)" d="M 77.8275 307.584 
L 79.2225 307.584 
L 79.2225 301.360341 
L 77.8275 301.360341 
z
" style="fill:#1f77b4;"/>
   </g>
   <g id="patch_11">
    <path clip-path="url(#pccb40f3a2d)" d="M 80.6175 307.584 
L 82.0125 307.584 
L 82.0125 299.556901 
L 80.6175 299.556901 
z
" style="fill:#1f77b4;"/>
   </g>
   <g id="patch_12">
    <path clip-path="url(#pccb40f3a2d)" d="M 83.4075 307.584 
L 84.8025 307.584 
L 84.8025 297.48076 
L 83.4075 297.48076 
z
" style="fill:#1f77b4;"/>
   </g>
   <g id="patch_13">
    <path clip-path="url(#pccb40f3a2d)" d="M 86.1975 307.584 
L 87.5925 307.584 
L 87.5925 302.597135 
L 86.1975 302.597135 
z
" style="fill:#1f77b4;"/>
   </g>
   <g id="patch_14">
    <path clip-path="url(#pccb40f3a2d)" d="M 88.9875 307.584 
L 90.3825 307.584 
L 90.3825 295.741713 
L 88.9875 295.741713 
z
" style="fill:#1f77b4;"/>
   </g>
   <g id="patch_15">
    <path clip-path="url(#pccb40f3a2d)" d="M 91.7775 307.584 
L 93.1725 307.584 
L 93.1725 303.58242 
L 91.7775 303.58242 
z
" style="fill:#1f77b4;"/>
   </g>
   <g id="patch_16">
    <path clip-path="url(#pccb40f3a2d)" d="M 94.5675 307.584 
L 95.9625 307.584 
L 95.9625 301.337839 
L 94.5675 301.337839 
z
" style="fill:#1f77b4;"/>
   </g>
   <g id="patch_17">
    <path clip-path="url(#pccb40f3a2d)" d="M 97.3575 307.584 
L 98.7525 307.584 
L 98.7525 297.031462 
L 97.3575 297.031462 
z
" style="fill:#1f77b4;"/>
   </g>
   <g id="patch_18">
    <path clip-path="url(#pccb40f3a2d)" d="M 100.1475 307.584 
L 101.5425 307.584 
L 101.5425 300.795648 
L 100.1475 300.795648 
z
" style="fill:#1f77b4;"/>
   </g>
   <g id="patch_19">
    <path clip-path="url(#pccb40f3a2d)" d="M 102.9375 307.584 
L 104.3325 307.584 
L 104.3325 300.418921 
L 102.9375 300.418921 
z
" style="fill:#1f77b4;"/>
   </g>
   <g id="patch_20">
    <path clip-path="url(#pccb40f3a2d)" d="M 105.7275 307.584 
L 107.1225 307.584 
L 107.1225 301.862582 
L 105.7275 301.862582 
z
" style="fill:#1f77b4;"/>
   </g>
   <g id="patch_21">
    <path clip-path="url(#pccb40f3a2d)" d="M 108.5175 307.584 
L 109.9125 307.584 
L 109.9125 303.868774 
L 108.5175 303.868774 
z
" style="fill:#1f77b4;"/>
   </g>
   <g id="patch_22">
    <path clip-path="url(#pccb40f3a2d)" d="M 111.3075 307.584 
L 112.7025 307.584 
L 112.7025 298.389656 
L 111.3075 298.389656 
z
" style="fill:#1f77b4;"/>
   </g>
   <g id="patch_23">
    <path clip-path="url(#pccb40f3a2d)" d="M 114.0975 307.584 
L 115.4925 307.584 
L 115.4925 299.007931 
L 114.0975 299.007931 
z
" style="fill:#1f77b4;"/>
   </g>
   <g id="patch_24">
    <path clip-path="url(#pccb40f3a2d)" d="M 116.8875 307.584 
L 118.2825 307.584 
L 118.2825 302.094753 
L 116.8875 302.094753 
z
" style="fill:#1f77b4;"/>
   </g>
   <g id="patch_25">
    <path clip-path="url(#pccb40f3a2d)" d="M 119.6775 307.584 
L 121.0725 307.584 
L 121.0725 301.733262 
L 119.6775 301.733262 
z
" style="fill:#1f77b4;"/>
   </g>
   <g id="patch_26">
    <path clip-path="url(#pccb40f3a2d)" d="M 122.4675 307.584 
L 123.8625 307.584 
L 123.8625 300.873447 
L 122.4675 300.873447 
z
" style="fill:#1f77b4;"/>
   </g>
   <g id="patch_27">
    <path clip-path="url(#pccb40f3a2d)" d="M 125.2575 307.584 
L 126.6525 307.584 
L 126.6525 301.498833 
L 125.2575 301.498833 
z
" style="fill:#1f77b4;"/>
   </g>
   <g id="patch_28">
    <path clip-path="url(#pccb40f3a2d)" d="M 128.0475 307.584 
L 129.4425 307.584 
L 129.4425 299.296936 
L 128.0475 299.296936 
z
" style="fill:#1f77b4;"/>
   </g>
   <g id="patch_29">
    <path clip-path="url(#pccb40f3a2d)" d="M 130.8375 307.584 
L 132.2325 307.584 
L 132.2325 300.922591 
L 130.8375 300.922591 
z
" style="fill:#1f77b4;"/>
   </g>
   <g id="patch_30">
    <path clip-path="url(#pccb40f3a2d)" d="M 133.6275 307.584 
L 135.0225 307.584 
L 135.0225 301.348555 
L 133.6275 301.348555 
z
" style="fill:#1f77b4;"/>
   </g>
   <g id="patch_31">
    <path clip-path="url(#pccb40f3a2d)" d="M 136.4175 307.584 
L 137.8125 307.584 
L 137.8125 301.059827 
L 136.4175 301.059827 
z
" style="fill:#1f77b4;"/>
   </g>
   <g id="patch_32">
    <path clip-path="url(#pccb40f3a2d)" d="M 139.2075 307.584 
L 140.6025 307.584 
L 140.6025 300.525428 
L 139.2075 300.525428 
z
" style="fill:#1f77b4;"/>
   </g>
   <g id="patch_33">
    <path clip-path="url(#pccb40f3a2d)" d="M 141.9975 307.584 
L 143.3925 307.584 
L 143.3925 300.08158 
L 141.9975 300.08158 
z
" style="fill:#1f77b4;"/>
   </g>
   <g id="patch_34">
    <path clip-path="url(#pccb40f3a2d)" d="M 144.7875 307.584 
L 146.1825 307.584 
L 146.1825 298.357451 
L 144.7875 298.357451 
z
" style="fill:#1f77b4;"/>
   </g>
   <g id="patch_35">
    <path clip-path="url(#pccb40f3a2d)" d="M 147.5775 307.584 
L 148.9725 307.584 
L 148.9725 303.722692 
L 147.5775 303.722692 
z
" style="fill:#1f77b4;"/>
   </g>
   <g id="patch_36">
    <path clip-path="url(#pccb40f3a2d)" d="M 150.3675 307.584 
L 151.7625 307.584 
L 151.7625 299.098199 
L 150.3675 299.098199 
z
" style="fill:#1f77b4;"/>
   </g>
   <g id="patch_37">
    <path clip-path="url(#pccb40f3a2d)" d="M 153.1575 307.584 
L 154.5525 307.584 
L 154.5525 298.690549 
L 153.1575 298.690549 
z
" style="fill:#1f77b4;"/>
   </g>
   <g id="patch_38">
    <path clip-path="url(#pccb40f3a2d)" d="M 155.9475 307.584 
L 157.3425 307.584 
L 157.3425 305.370929 
L 155.9475 305.370929 
z
" style="fill:#1f77b4;"/>
   </g>
   <g id="patch_39">
    <path clip-path="url(#pccb40f3a2d)" d="M 158.7375 307.584 
L 160.1325 307.584 
L 160.1325 300.752124 
L 158.7375 300.752124 
z
" style="fill:#1f77b4;"/>
   </g>
   <g id="patch_40">
    <path clip-path="url(#pccb40f3a2d)" d="M 161.5275 307.584 
L 162.9225 307.584 
L 162.9225 302.512037 
L 161.5275 302.512037 
z
" style="fill:#1f77b4;"/>
   </g>
   <g id="patch_41">
    <path clip-path="url(#pccb40f3a2d)" d="M 164.3175 307.584 
L 165.7125 307.584 
L 165.7125 301.394557 
L 164.3175 301.394557 
z
" style="fill:#1f77b4;"/>
   </g>
   <g id="patch_42">
    <path clip-path="url(#pccb40f3a2d)" d="M 167.1075 307.584 
L 168.5025 307.584 
L 168.5025 300.68823 
L 167.1075 300.68823 
z
" style="fill:#1f77b4;"/>
   </g>
   <g id="patch_43">
    <path clip-path="url(#pccb40f3a2d)" d="M 169.8975 307.584 
L 171.2925 307.584 
L 171.2925 299.680606 
L 169.8975 299.680606 
z
" style="fill:#1f77b4;"/>
   </g>
   <g id="patch_44">
    <path clip-path="url(#pccb40f3a2d)" d="M 172.6875 307.584 
L 174.0825 307.584 
L 174.0825 296.941956 
L 172.6875 296.941956 
z
" style="fill:#1f77b4;"/>
   </g>
   <g id="patch_45">
    <path clip-path="url(#pccb40f3a2d)" d="M 175.4775 307.584 
L 176.8725 307.584 
L 176.8725 302.789087 
L 175.4775 302.789087 
z
" style="fill:#1f77b4;"/>
   </g>
   <g id="patch_46">
    <path clip-path="url(#pccb40f3a2d)" d="M 178.2675 307.584 
L 179.6625 307.584 
L 179.6625 303.009661 
L 178.2675 303.009661 
z
" style="fill:#1f77b4;"/>
   </g>
   <g id="patch_47">
    <path clip-path="url(#pccb40f3a2d)" d="M 181.0575 307.584 
L 182.4525 307.584 
L 182.4525 302.00184 
L 181.0575 302.00184 
z
" style="fill:#1f77b4;"/>
   </g>
   <g id="patch_48">
    <path clip-path="url(#pccb40f3a2d)" d="M 183.8475 307.584 
L 185.2425 307.584 
L 185.2425 300.520124 
L 183.8475 300.520124 
z
" style="fill:#1f77b4;"/>
   </g>
   <g id="patch_49">
    <path clip-path="url(#pccb40f3a2d)" d="M 186.6375 307.584 
L 188.0325 307.584 
L 188.0325 299.95354 
L 186.6375 299.95354 
z
" style="fill:#1f77b4;"/>
   </g>
   <g id="patch_50">
    <path clip-path="url(#pccb40f3a2d)" d="M 189.4275 307.584 
L 190.8225 307.584 
L 190.8225 301.769405 
L 189.4275 301.769405 
z
" style="fill:#1f77b4;"/>
   </g>
   <g id="patch_51">
    <path clip-path="url(#pccb40f3a2d)" d="M 192.2175 307.584 
L 193.6125 307.584 
L 193.6125 300.901729 
L 192.2175 300.901729 
z
" style="fill:#1f77b4;"/>
   </g>
   <g id="patch_52">
    <path clip-path="url(#pccb40f3a2d)" d="M 195.0075 307.584 
L 196.4025 307.584 
L 196.4025 295.505976 
L 195.0075 295.505976 
z
" style="fill:#1f77b4;"/>
   </g>
   <g id="patch_53">
    <path clip-path="url(#pccb40f3a2d)" d="M 197.7975 307.584 
L 199.1925 307.584 
L 199.1925 301.13991 
L 197.7975 301.13991 
z
" style="fill:#1f77b4;"/>
   </g>
   <g id="patch_54">
    <path clip-path="url(#pccb40f3a2d)" d="M 200.5875 307.584 
L 201.9825 307.584 
L 201.9825 299.772642 
L 200.5875 299.772642 
z
" style="fill:#1f77b4;"/>
   </g>
   <g id="patch_55">
    <path clip-path="url(#pccb40f3a2d)" d="M 203.3775 307.584 
L 204.7725 307.584 
L 204.7725 301.749279 
L 203.3775 301.749279 
z
" style="fill:#1f77b4;"/>
   </g>
   <g id="patch_56">
    <path clip-path="url(#pccb40f3a2d)" d="M 206.1675 307.584 
L 207.5625 307.584 
L 207.5625 300.707554 
L 206.1675 300.707554 
z
" style="fill:#1f77b4;"/>
   </g>
   <g id="patch_57">
    <path clip-path="url(#pccb40f3a2d)" d="M 208.9575 307.584 
L 210.3525 307.584 
L 210.3525 303.009137 
L 208.9575 303.009137 
z
" style="fill:#1f77b4;"/>
   </g>
   <g id="patch_58">
    <path clip-path="url(#pccb40f3a2d)" d="M 211.7475 307.584 
L 213.1425 307.584 
L 213.1425 303.090632 
L 211.7475 303.090632 
z
" style="fill:#1f77b4;"/>
   </g>
   <g id="patch_59">
    <path clip-path="url(#pccb40f3a2d)" d="M 214.5375 307.584 
L 215.9325 307.584 
L 215.9325 302.871102 
L 214.5375 302.871102 
z
" style="fill:#1f77b4;"/>
   </g>
   <g id="patch_60">
    <path clip-path="url(#pccb40f3a2d)" d="M 217.3275 307.584 
L 218.7225 307.584 
L 218.7225 299.003966 
L 217.3275 299.003966 
z
" style="fill:#1f77b4;"/>
   </g>
   <g id="patch_61">
    <path clip-path="url(#pccb40f3a2d)" d="M 220.1175 307.584 
L 221.5125 307.584 
L 221.5125 304.39786 
L 220.1175 304.39786 
z
" style="fill:#1f77b4;"/>
   </g>
   <g id="patch_62">
    <path clip-path="url(#pccb40f3a2d)" d="M 222.9075 307.584 
L 224.3025 307.584 
L 224.3025 298.730495 
L 222.9075 298.730495 
z
" style="fill:#1f77b4;"/>
   </g>
   <g id="patch_63">
    <path clip-path="url(#pccb40f3a2d)" d="M 225.6975 307.584 
L 227.0925 307.584 
L 227.0925 303.827978 
L 225.6975 303.827978 
z
" style="fill:#1f77b4;"/>
   </g>
   <g id="patch_64">
    <path clip-path="url(#pccb40f3a2d)" d="M 228.4875 307.584 
L 229.8825 307.584 
L 229.8825 298.468304 
L 228.4875 298.468304 
z
" style="fill:#1f77b4;"/>
   </g>
   <g id="patch_65">
    <path clip-path="url(#pccb40f3a2d)" d="M 231.2775 307.584 
L 232.6725 307.584 
L 232.6725 298.702596 
L 231.2775 298.702596 
z
" style="fill:#1f77b4;"/>
   </g>
   <g id="patch_66">
    <path clip-path="url(#pccb40f3a2d)" d="M 234.0675 307.584 
L 235.4625 307.584 
L 235.4625 298.335412 
L 234.0675 298.335412 
z
" style="fill:#1f77b4;"/>
   </g>
   <g id="patch_67">
    <path clip-path="url(#pccb40f3a2d)" d="M 236.8575 307.584 
L 238.2525 307.584 
L 238.2525 299.770492 
L 236.8575 299.770492 
z
" style="fill:#1f77b4;"/>
   </g>
   <g id="patch_68">
    <path clip-path="url(#pccb40f3a2d)" d="M 239.6475 307.584 
L 241.0425 307.584 
L 241.0425 301.23408 
L 239.6475 301.23408 
z
" style="fill:#1f77b4;"/>
   </g>
   <g id="patch_69">
    <path clip-path="url(#pccb40f3a2d)" d="M 242.4375 307.584 
L 243.8325 307.584 
L 243.8325 295.037686 
L 242.4375 295.037686 
z
" style="fill:#1f77b4;"/>
   </g>
   <g id="patch_70">
    <path clip-path="url(#pccb40f3a2d)" d="M 245.2275 307.584 
L 246.6225 307.584 
L 246.6225 302.981025 
L 245.2275 302.981025 
z
" style="fill:#1f77b4;"/>
   </g>
   <g id="patch_71">
    <path clip-path="url(#pccb40f3a2d)" d="M 248.0175 307.584 
L 249.4125 307.584 
L 249.4125 301.101748 
L 248.0175 301.101748 
z
" style="fill:#1f77b4;"/>
   </g>
   <g id="patch_72">
    <path clip-path="url(#pccb40f3a2d)" d="M 250.8075 307.584 
L 252.2025 307.584 
L 252.2025 300.701443 
L 250.8075 300.701443 
z
" style="fill:#1f77b4;"/>
   </g>
   <g id="patch_73">
    <path clip-path="url(#pccb40f3a2d)" d="M 253.5975 307.584 
L 254.9925 307.584 
L 254.9925 298.762221 
L 253.5975 298.762221 
z
" style="fill:#1f77b4;"/>
   </g>
   <g id="patch_74">
    <path clip-path="url(#pccb40f3a2d)" d="M 256.3875 307.584 
L 257.7825 307.584 
L 257.7825 298.225756 
L 256.3875 298.225756 
z
" style="fill:#1f77b4;"/>
   </g>
   <g id="patch_75">
    <path clip-path="url(#pccb40f3a2d)" d="M 259.1775 307.584 
L 260.5725 307.584 
L 260.5725 300.511569 
L 259.1775 300.511569 
z
" style="fill:#1f77b4;"/>
   </g>
   <g id="patch_76">
    <path clip-path="url(#pccb40f3a2d)" d="M 261.9675 307.584 
L 263.3625 307.584 
L 263.3625 300.029425 
L 261.9675 300.029425 
z
" style="fill:#1f77b4;"/>
   </g>
   <g id="patch_77">
    <path clip-path="url(#pccb40f3a2d)" d="M 264.7575 307.584 
L 266.1525 307.584 
L 266.1525 304.205628 
L 264.7575 304.205628 
z
" style="fill:#1f77b4;"/>
   </g>
   <g id="patch_78">
    <path clip-path="url(#pccb40f3a2d)" d="M 267.5475 307.584 
L 268.9425 307.584 
L 268.9425 303.827482 
L 267.5475 303.827482 
z
" style="fill:#1f77b4;"/>
   </g>
   <g id="patch_79">
    <path clip-path="url(#pccb40f3a2d)" d="M 270.3375 307.584 
L 271.7325 307.584 
L 271.7325 297.915189 
L 270.3375 297.915189 
z
" style="fill:#1f77b4;"/>
   </g>
   <g id="patch_80">
    <path clip-path="url(#pccb40f3a2d)" d="M 273.1275 307.584 
L 274.5225 307.584 
L 274.5225 302.760531 
L 273.1275 302.760531 
z
" style="fill:#1f77b4;"/>
   </g>
   <g id="patch_81">
    <path clip-path="url(#pccb40f3a2d)" d="M 275.9175 307.584 
L 277.3125 307.584 
L 277.3125 299.190159 
L 275.9175 299.190159 
z
" style="fill:#1f77b4;"/>
   </g>
   <g id="patch_82">
    <path clip-path="url(#pccb40f3a2d)" d="M 278.7075 307.584 
L 280.1025 307.584 
L 280.1025 302.40233 
L 278.7075 302.40233 
z
" style="fill:#1f77b4;"/>
   </g>
   <g id="patch_83">
    <path clip-path="url(#pccb40f3a2d)" d="M 281.4975 307.584 
L 282.8925 307.584 
L 282.8925 299.162643 
L 281.4975 299.162643 
z
" style="fill:#1f77b4;"/>
   </g>
   <g id="patch_84">
    <path clip-path="url(#pccb40f3a2d)" d="M 284.2875 307.584 
L 285.6825 307.584 
L 285.6825 301.044703 
L 284.2875 301.044703 
z
" style="fill:#1f77b4;"/>
   </g>
   <g id="patch_85">
    <path clip-path="url(#pccb40f3a2d)" d="M 287.0775 307.584 
L 288.4725 307.584 
L 288.4725 302.784862 
L 287.0775 302.784862 
z
" style="fill:#1f77b4;"/>
   </g>
   <g id="patch_86">
    <path clip-path="url(#pccb40f3a2d)" d="M 289.8675 307.584 
L 291.2625 307.584 
L 291.2625 298.423783 
L 289.8675 298.423783 
z
" style="fill:#1f77b4;"/>
   </g>
   <g id="patch_87">
    <path clip-path="url(#pccb40f3a2d)" d="M 292.6575 307.584 
L 294.0525 307.584 
L 294.0525 298.775017 
L 292.6575 298.775017 
z
" style="fill:#1f77b4;"/>
   </g>
   <g id="patch_88">
    <path clip-path="url(#pccb40f3a2d)" d="M 295.4475 307.584 
L 296.8425 307.584 
L 296.8425 297.481825 
L 295.4475 297.481825 
z
" style="fill:#1f77b4;"/>
   </g>
   <g id="patch_89">
    <path clip-path="url(#pccb40f3a2d)" d="M 298.2375 307.584 
L 299.6325 307.584 
L 299.6325 302.736899 
L 298.2375 302.736899 
z
" style="fill:#1f77b4;"/>
   </g>
   <g id="patch_90">
    <path clip-path="url(#pccb40f3a2d)" d="M 301.0275 307.584 
L 302.4225 307.584 
L 302.4225 303.868666 
L 301.0275 303.868666 
z
" style="fill:#1f77b4;"/>
   </g>
   <g id="patch_91">
    <path clip-path="url(#pccb40f3a2d)" d="M 303.8175 307.584 
L 305.2125 307.584 
L 305.2125 299.67369 
L 303.8175 299.67369 
z
" style="fill:#1f77b4;"/>
   </g>
   <g id="patch_92">
    <path clip-path="url(#pccb40f3a2d)" d="M 306.6075 307.584 
L 308.0025 307.584 
L 308.0025 301.778743 
L 306.6075 301.778743 
z
" style="fill:#1f77b4;"/>
   </g>
   <g id="patch_93">
    <path clip-path="url(#pccb40f3a2d)" d="M 309.3975 307.584 
L 310.7925 307.584 
L 310.7925 302.187964 
L 309.3975 302.187964 
z
" style="fill:#1f77b4;"/>
   </g>
   <g id="patch_94">
    <path clip-path="url(#pccb40f3a2d)" d="M 312.1875 307.584 
L 313.5825 307.584 
L 313.5825 302.611896 
L 312.1875 302.611896 
z
" style="fill:#1f77b4;"/>
   </g>
   <g id="patch_95">
    <path clip-path="url(#pccb40f3a2d)" d="M 314.9775 307.584 
L 316.3725 307.584 
L 316.3725 302.858363 
L 314.9775 302.858363 
z
" style="fill:#1f77b4;"/>
   </g>
   <g id="patch_96">
    <path clip-path="url(#pccb40f3a2d)" d="M 317.7675 307.584 
L 319.1625 307.584 
L 319.1625 301.15431 
L 317.7675 301.15431 
z
" style="fill:#1f77b4;"/>
   </g>
   <g id="patch_97">
    <path clip-path="url(#pccb40f3a2d)" d="M 320.5575 307.584 
L 321.9525 307.584 
L 321.9525 299.155395 
L 320.5575 299.155395 
z
" style="fill:#1f77b4;"/>
   </g>
   <g id="patch_98">
    <path clip-path="url(#pccb40f3a2d)" d="M 323.3475 307.584 
L 324.7425 307.584 
L 324.7425 302.985827 
L 323.3475 302.985827 
z
" style="fill:#1f77b4;"/>
   </g>
   <g id="patch_99">
    <path clip-path="url(#pccb40f3a2d)" d="M 326.1375 307.584 
L 327.5325 307.584 
L 327.5325 301.987043 
L 326.1375 301.987043 
z
" style="fill:#1f77b4;"/>
   </g>
   <g id="patch_100">
    <path clip-path="url(#pccb40f3a2d)" d="M 328.9275 307.584 
L 330.3225 307.584 
L 330.3225 300.809362 
L 328.9275 300.809362 
z
" style="fill:#1f77b4;"/>
   </g>
   <g id="patch_101">
    <path clip-path="url(#pccb40f3a2d)" d="M 331.7175 307.584 
L 333.1125 307.584 
L 333.1125 302.063963 
L 331.7175 302.063963 
z
" style="fill:#1f77b4;"/>
   </g>
   <g id="patch_102">
    <path clip-path="url(#pccb40f3a2d)" d="M 334.5075 307.584 
L 335.9025 307.584 
L 335.9025 301.938348 
L 334.5075 301.938348 
z
" style="fill:#1f77b4;"/>
   </g>
   <g id="patch_103">
    <path clip-path="url(#pccb40f3a2d)" d="M 337.2975 307.584 
L 338.6925 307.584 
L 338.6925 301.555189 
L 337.2975 301.555189 
z
" style="fill:#1f77b4;"/>
   </g>
   <g id="patch_104">
    <path clip-path="url(#pccb40f3a2d)" d="M 340.0875 307.584 
L 341.4825 307.584 
L 341.4825 295.353287 
L 340.0875 295.353287 
z
" style="fill:#1f77b4;"/>
   </g>
   <g id="patch_105">
    <path clip-path="url(#pccb40f3a2d)" d="M 342.8775 307.584 
L 344.2725 307.584 
L 344.2725 297.875418 
L 342.8775 297.875418 
z
" style="fill:#1f77b4;"/>
   </g>
   <g id="patch_106">
    <path clip-path="url(#pccb40f3a2d)" d="M 345.6675 307.584 
L 347.0625 307.584 
L 347.0625 301.135187 
L 345.6675 301.135187 
z
" style="fill:#1f77b4;"/>
   </g>
   <g id="patch_107">
    <path clip-path="url(#pccb40f3a2d)" d="M 348.4575 307.584 
L 349.8525 307.584 
L 349.8525 300.22764 
L 348.4575 300.22764 
z
" style="fill:#1f77b4;"/>
   </g>
   <g id="patch_108">
    <path clip-path="url(#pccb40f3a2d)" d="M 351.2475 307.584 
L 352.6425 307.584 
L 352.6425 300.542936 
L 351.2475 300.542936 
z
" style="fill:#1f77b4;"/>
   </g>
   <g id="patch_109">
    <path clip-path="url(#pccb40f3a2d)" d="M 354.0375 307.584 
L 355.4325 307.584 
L 355.4325 299.036573 
L 354.0375 299.036573 
z
" style="fill:#1f77b4;"/>
   </g>
   <g id="patch_110">
    <path clip-path="url(#pccb40f3a2d)" d="M 356.8275 307.584 
L 358.2225 307.584 
L 358.2225 296.967686 
L 356.8275 296.967686 
z
" style="fill:#1f77b4;"/>
   </g>
   <g id="patch_111">
    <path clip-path="url(#pccb40f3a2d)" d="M 359.6175 307.584 
L 361.0125 307.584 
L 361.0125 301.440159 
L 359.6175 301.440159 
z
" style="fill:#1f77b4;"/>
   </g>
   <g id="patch_112">
    <path clip-path="url(#pccb40f3a2d)" d="M 362.4075 307.584 
L 363.8025 307.584 
L 363.8025 300.214047 
L 362.4075 300.214047 
z
" style="fill:#1f77b4;"/>
   </g>
   <g id="patch_113">
    <path clip-path="url(#pccb40f3a2d)" d="M 365.1975 307.584 
L 366.5925 307.584 
L 366.5925 296.013537 
L 365.1975 296.013537 
z
" style="fill:#1f77b4;"/>
   </g>
   <g id="patch_114">
    <path clip-path="url(#pccb40f3a2d)" d="M 367.9875 307.584 
L 369.3825 307.584 
L 369.3825 299.738103 
L 367.9875 299.738103 
z
" style="fill:#1f77b4;"/>
   </g>
   <g id="patch_115">
    <path clip-path="url(#pccb40f3a2d)" d="M 370.7775 307.584 
L 372.1725 307.584 
L 372.1725 300.396128 
L 370.7775 300.396128 
z
" style="fill:#1f77b4;"/>
   </g>
   <g id="patch_116">
    <path clip-path="url(#pccb40f3a2d)" d="M 373.5675 307.584 
L 374.9625 307.584 
L 374.9625 302.077396 
L 373.5675 302.077396 
z
" style="fill:#1f77b4;"/>
   </g>
   <g id="patch_117">
    <path clip-path="url(#pccb40f3a2d)" d="M 376.3575 307.584 
L 377.7525 307.584 
L 377.7525 301.255682 
L 376.3575 301.255682 
z
" style="fill:#1f77b4;"/>
   </g>
   <g id="patch_118">
    <path clip-path="url(#pccb40f3a2d)" d="M 379.1475 307.584 
L 380.5425 307.584 
L 380.5425 300.966461 
L 379.1475 300.966461 
z
" style="fill:#1f77b4;"/>
   </g>
   <g id="patch_119">
    <path clip-path="url(#pccb40f3a2d)" d="M 381.9375 307.584 
L 383.3325 307.584 
L 383.3325 296.881983 
L 381.9375 296.881983 
z
" style="fill:#1f77b4;"/>
   </g>
   <g id="patch_120">
    <path clip-path="url(#pccb40f3a2d)" d="M 384.7275 307.584 
L 386.1225 307.584 
L 386.1225 299.842003 
L 384.7275 299.842003 
z
" style="fill:#1f77b4;"/>
   </g>
   <g id="patch_121">
    <path clip-path="url(#pccb40f3a2d)" d="M 387.5175 307.584 
L 388.9125 307.584 
L 388.9125 298.720151 
L 387.5175 298.720151 
z
" style="fill:#1f77b4;"/>
   </g>
   <g id="patch_122">
    <path clip-path="url(#pccb40f3a2d)" d="M 390.3075 307.584 
L 391.7025 307.584 
L 391.7025 299.886254 
L 390.3075 299.886254 
z
" style="fill:#1f77b4;"/>
   </g>
   <g id="patch_123">
    <path clip-path="url(#pccb40f3a2d)" d="M 393.0975 307.584 
L 394.4925 307.584 
L 394.4925 301.881512 
L 393.0975 301.881512 
z
" style="fill:#1f77b4;"/>
   </g>
   <g id="patch_124">
    <path clip-path="url(#pccb40f3a2d)" d="M 395.8875 307.584 
L 397.2825 307.584 
L 397.2825 303.378113 
L 395.8875 303.378113 
z
" style="fill:#1f77b4;"/>
   </g>
   <g id="patch_125">
    <path clip-path="url(#pccb40f3a2d)" d="M 398.6775 307.584 
L 400.0725 307.584 
L 400.0725 300.8243 
L 398.6775 300.8243 
z
" style="fill:#1f77b4;"/>
   </g>
   <g id="patch_126">
    <path clip-path="url(#pccb40f3a2d)" d="M 401.4675 307.584 
L 402.8625 307.584 
L 402.8625 299.650008 
L 401.4675 299.650008 
z
" style="fill:#1f77b4;"/>
   </g>
   <g id="patch_127">
    <path clip-path="url(#pccb40f3a2d)" d="M 404.2575 307.584 
L 405.6525 307.584 
L 405.6525 297.888233 
L 404.2575 297.888233 
z
" style="fill:#1f77b4;"/>
   </g>
   <g id="patch_128">
    <path clip-path="url(#pccb40f3a2d)" d="M 407.0475 307.584 
L 408.4425 307.584 
L 408.4425 300.591039 
L 407.0475 300.591039 
z
" style="fill:#1f77b4;"/>
   </g>
   <g id="patch_129">
    <path clip-path="url(#pccb40f3a2d)" d="M 409.8375 307.584 
L 411.2325 307.584 
L 411.2325 302.661279 
L 409.8375 302.661279 
z
" style="fill:#1f77b4;"/>
   </g>
   <g id="patch_130">
    <path clip-path="url(#pccb40f3a2d)" d="M 412.6275 307.584 
L 414.0225 307.584 
L 414.0225 300.842114 
L 412.6275 300.842114 
z
" style="fill:#1f77b4;"/>
   </g>
   <g id="patch_131">
    <path clip-path="url(#pccb40f3a2d)" d="M 58.2975 300.430639 
L 59.6925 300.430639 
L 59.6925 165.118856 
L 58.2975 165.118856 
z
" style="fill:#ff7f0e;"/>
   </g>
   <g id="patch_132">
    <path clip-path="url(#pccb40f3a2d)" d="M 61.0875 300.226072 
L 62.4825 300.226072 
L 62.4825 213.311705 
L 61.0875 213.311705 
z
" style="fill:#ff7f0e;"/>
   </g>
   <g id="patch_133">
    <path clip-path="url(#pccb40f3a2d)" d="M 63.8775 302.438715 
L 65.2725 302.438715 
L 65.2725 224.627916 
L 63.8775 224.627916 
z
" style="fill:#ff7f0e;"/>
   </g>
   <g id="patch_134">
    <path clip-path="url(#pccb40f3a2d)" d="M 66.6675 297.906824 
L 68.0625 297.906824 
L 68.0625 199.337045 
L 66.6675 199.337045 
z
" style="fill:#ff7f0e;"/>
   </g>
   <g id="patch_135">
    <path clip-path="url(#pccb40f3a2d)" d="M 69.4575 300.575985 
L 70.8525 300.575985 
L 70.8525 227.480127 
L 69.4575 227.480127 
z
" style="fill:#ff7f0e;"/>
   </g>
   <g id="patch_136">
    <path clip-path="url(#pccb40f3a2d)" d="M 72.2475 299.000461 
L 73.6425 299.000461 
L 73.6425 235.963417 
L 72.2475 235.963417 
z
" style="fill:#ff7f0e;"/>
   </g>
   <g id="patch_137">
    <path clip-path="url(#pccb40f3a2d)" d="M 75.0375 303.659485 
L 76.4325 303.659485 
L 76.4325 268.367905 
L 75.0375 268.367905 
z
" style="fill:#ff7f0e;"/>
   </g>
   <g id="patch_138">
    <path clip-path="url(#pccb40f3a2d)" d="M 77.8275 301.360341 
L 79.2225 301.360341 
L 79.2225 288.742141 
L 77.8275 288.742141 
z
" style="fill:#ff7f0e;"/>
   </g>
   <g id="patch_139">
    <path clip-path="url(#pccb40f3a2d)" d="M 80.6175 299.556901 
L 82.0125 299.556901 
L 82.0125 145.496264 
L 80.6175 145.496264 
z
" style="fill:#ff7f0e;"/>
   </g>
   <g id="patch_140">
    <path clip-path="url(#pccb40f3a2d)" d="M 83.4075 297.48076 
L 84.8025 297.48076 
L 84.8025 251.796725 
L 83.4075 251.796725 
z
" style="fill:#ff7f0e;"/>
   </g>
   <g id="patch_141">
    <path clip-path="url(#pccb40f3a2d)" d="M 86.1975 302.597135 
L 87.5925 302.597135 
L 87.5925 231.436924 
L 86.1975 231.436924 
z
" style="fill:#ff7f0e;"/>
   </g>
   <g id="patch_142">
    <path clip-path="url(#pccb40f3a2d)" d="M 88.9875 295.741713 
L 90.3825 295.741713 
L 90.3825 196.009363 
L 88.9875 196.009363 
z
" style="fill:#ff7f0e;"/>
   </g>
   <g id="patch_143">
    <path clip-path="url(#pccb40f3a2d)" d="M 91.7775 303.58242 
L 93.1725 303.58242 
L 93.1725 272.160289 
L 91.7775 272.160289 
z
" style="fill:#ff7f0e;"/>
   </g>
   <g id="patch_144">
    <path clip-path="url(#pccb40f3a2d)" d="M 94.5675 301.337839 
L 95.9625 301.337839 
L 95.9625 202.058328 
L 94.5675 202.058328 
z
" style="fill:#ff7f0e;"/>
   </g>
   <g id="patch_145">
    <path clip-path="url(#pccb40f3a2d)" d="M 97.3575 297.031462 
L 98.7525 297.031462 
L 98.7525 180.942729 
L 97.3575 180.942729 
z
" style="fill:#ff7f0e;"/>
   </g>
   <g id="patch_146">
    <path clip-path="url(#pccb40f3a2d)" d="M 100.1475 300.795648 
L 101.5425 300.795648 
L 101.5425 128.145278 
L 100.1475 128.145278 
z
" style="fill:#ff7f0e;"/>
   </g>
   <g id="patch_147">
    <path clip-path="url(#pccb40f3a2d)" d="M 102.9375 300.418921 
L 104.3325 300.418921 
L 104.3325 193.696038 
L 102.9375 193.696038 
z
" style="fill:#ff7f0e;"/>
   </g>
   <g id="patch_148">
    <path clip-path="url(#pccb40f3a2d)" d="M 105.7275 301.862582 
L 107.1225 301.862582 
L 107.1225 214.881665 
L 105.7275 214.881665 
z
" style="fill:#ff7f0e;"/>
   </g>
   <g id="patch_149">
    <path clip-path="url(#pccb40f3a2d)" d="M 108.5175 303.868774 
L 109.9125 303.868774 
L 109.9125 228.820011 
L 108.5175 228.820011 
z
" style="fill:#ff7f0e;"/>
   </g>
   <g id="patch_150">
    <path clip-path="url(#pccb40f3a2d)" d="M 111.3075 298.389656 
L 112.7025 298.389656 
L 112.7025 217.123485 
L 111.3075 217.123485 
z
" style="fill:#ff7f0e;"/>
   </g>
   <g id="patch_151">
    <path clip-path="url(#pccb40f3a2d)" d="M 114.0975 299.007931 
L 115.4925 299.007931 
L 115.4925 195.23987 
L 114.0975 195.23987 
z
" style="fill:#ff7f0e;"/>
   </g>
   <g id="patch_152">
    <path clip-path="url(#pccb40f3a2d)" d="M 116.8875 302.094753 
L 118.2825 302.094753 
L 118.2825 207.326402 
L 116.8875 207.326402 
z
" style="fill:#ff7f0e;"/>
   </g>
   <g id="patch_153">
    <path clip-path="url(#pccb40f3a2d)" d="M 119.6775 301.733262 
L 121.0725 301.733262 
L 121.0725 259.342035 
L 119.6775 259.342035 
z
" style="fill:#ff7f0e;"/>
   </g>
   <g id="patch_154">
    <path clip-path="url(#pccb40f3a2d)" d="M 122.4675 300.873447 
L 123.8625 300.873447 
L 123.8625 175.685465 
L 122.4675 175.685465 
z
" style="fill:#ff7f0e;"/>
   </g>
   <g id="patch_155">
    <path clip-path="url(#pccb40f3a2d)" d="M 125.2575 301.498833 
L 126.6525 301.498833 
L 126.6525 250.293097 
L 125.2575 250.293097 
z
" style="fill:#ff7f0e;"/>
   </g>
   <g id="patch_156">
    <path clip-path="url(#pccb40f3a2d)" d="M 128.0475 299.296936 
L 129.4425 299.296936 
L 129.4425 217.435918 
L 128.0475 217.435918 
z
" style="fill:#ff7f0e;"/>
   </g>
   <g id="patch_157">
    <path clip-path="url(#pccb40f3a2d)" d="M 130.8375 300.922591 
L 132.2325 300.922591 
L 132.2325 235.1961 
L 130.8375 235.1961 
z
" style="fill:#ff7f0e;"/>
   </g>
   <g id="patch_158">
    <path clip-path="url(#pccb40f3a2d)" d="M 133.6275 301.348555 
L 135.0225 301.348555 
L 135.0225 267.636656 
L 133.6275 267.636656 
z
" style="fill:#ff7f0e;"/>
   </g>
   <g id="patch_159">
    <path clip-path="url(#pccb40f3a2d)" d="M 136.4175 301.059827 
L 137.8125 301.059827 
L 137.8125 233.516212 
L 136.4175 233.516212 
z
" style="fill:#ff7f0e;"/>
   </g>
   <g id="patch_160">
    <path clip-path="url(#pccb40f3a2d)" d="M 139.2075 300.525428 
L 140.6025 300.525428 
L 140.6025 186.205909 
L 139.2075 186.205909 
z
" style="fill:#ff7f0e;"/>
   </g>
   <g id="patch_161">
    <path clip-path="url(#pccb40f3a2d)" d="M 141.9975 300.08158 
L 143.3925 300.08158 
L 143.3925 217.102901 
L 141.9975 217.102901 
z
" style="fill:#ff7f0e;"/>
   </g>
   <g id="patch_162">
    <path clip-path="url(#pccb40f3a2d)" d="M 144.7875 298.357451 
L 146.1825 298.357451 
L 146.1825 138.704831 
L 144.7875 138.704831 
z
" style="fill:#ff7f0e;"/>
   </g>
   <g id="patch_163">
    <path clip-path="url(#pccb40f3a2d)" d="M 147.5775 303.722692 
L 148.9725 303.722692 
L 148.9725 254.834734 
L 147.5775 254.834734 
z
" style="fill:#ff7f0e;"/>
   </g>
   <g id="patch_164">
    <path clip-path="url(#pccb40f3a2d)" d="M 150.3675 299.098199 
L 151.7625 299.098199 
L 151.7625 230.676752 
L 150.3675 230.676752 
z
" style="fill:#ff7f0e;"/>
   </g>
   <g id="patch_165">
    <path clip-path="url(#pccb40f3a2d)" d="M 153.1575 298.690549 
L 154.5525 298.690549 
L 154.5525 230.319386 
L 153.1575 230.319386 
z
" style="fill:#ff7f0e;"/>
   </g>
   <g id="patch_166">
    <path clip-path="url(#pccb40f3a2d)" d="M 155.9475 305.370929 
L 157.3425 305.370929 
L 157.3425 291.751205 
L 155.9475 291.751205 
z
" style="fill:#ff7f0e;"/>
   </g>
   <g id="patch_167">
    <path clip-path="url(#pccb40f3a2d)" d="M 158.7375 300.752124 
L 160.1325 300.752124 
L 160.1325 223.112633 
L 158.7375 223.112633 
z
" style="fill:#ff7f0e;"/>
   </g>
   <g id="patch_168">
    <path clip-path="url(#pccb40f3a2d)" d="M 161.5275 302.512037 
L 162.9225 302.512037 
L 162.9225 276.668182 
L 161.5275 276.668182 
z
" style="fill:#ff7f0e;"/>
   </g>
   <g id="patch_169">
    <path clip-path="url(#pccb40f3a2d)" d="M 164.3175 301.394557 
L 165.7125 301.394557 
L 165.7125 234.439614 
L 164.3175 234.439614 
z
" style="fill:#ff7f0e;"/>
   </g>
   <g id="patch_170">
    <path clip-path="url(#pccb40f3a2d)" d="M 167.1075 300.68823 
L 168.5025 300.68823 
L 168.5025 256.337546 
L 167.1075 256.337546 
z
" style="fill:#ff7f0e;"/>
   </g>
   <g id="patch_171">
    <path clip-path="url(#pccb40f3a2d)" d="M 169.8975 299.680606 
L 171.2925 299.680606 
L 171.2925 226.146514 
L 169.8975 226.146514 
z
" style="fill:#ff7f0e;"/>
   </g>
   <g id="patch_172">
    <path clip-path="url(#pccb40f3a2d)" d="M 172.6875 296.941956 
L 174.0825 296.941956 
L 174.0825 176.36135 
L 172.6875 176.36135 
z
" style="fill:#ff7f0e;"/>
   </g>
   <g id="patch_173">
    <path clip-path="url(#pccb40f3a2d)" d="M 175.4775 302.789087 
L 176.8725 302.789087 
L 176.8725 225.394884 
L 175.4775 225.394884 
z
" style="fill:#ff7f0e;"/>
   </g>
   <g id="patch_174">
    <path clip-path="url(#pccb40f3a2d)" d="M 178.2675 303.009661 
L 179.6625 303.009661 
L 179.6625 224.600761 
L 178.2675 224.600761 
z
" style="fill:#ff7f0e;"/>
   </g>
   <g id="patch_175">
    <path clip-path="url(#pccb40f3a2d)" d="M 181.0575 302.00184 
L 182.4525 302.00184 
L 182.4525 268.363905 
L 181.0575 268.363905 
z
" style="fill:#ff7f0e;"/>
   </g>
   <g id="patch_176">
    <path clip-path="url(#pccb40f3a2d)" d="M 183.8475 300.520124 
L 185.2425 300.520124 
L 185.2425 178.671548 
L 183.8475 178.671548 
z
" style="fill:#ff7f0e;"/>
   </g>
   <g id="patch_177">
    <path clip-path="url(#pccb40f3a2d)" d="M 186.6375 299.95354 
L 188.0325 299.95354 
L 188.0325 287.978047 
L 186.6375 287.978047 
z
" style="fill:#ff7f0e;"/>
   </g>
   <g id="patch_178">
    <path clip-path="url(#pccb40f3a2d)" d="M 189.4275 301.769405 
L 190.8225 301.769405 
L 190.8225 209.555316 
L 189.4275 209.555316 
z
" style="fill:#ff7f0e;"/>
   </g>
   <g id="patch_179">
    <path clip-path="url(#pccb40f3a2d)" d="M 192.2175 300.901729 
L 193.6125 300.901729 
L 193.6125 235.98271 
L 192.2175 235.98271 
z
" style="fill:#ff7f0e;"/>
   </g>
   <g id="patch_180">
    <path clip-path="url(#pccb40f3a2d)" d="M 195.0075 295.505976 
L 196.4025 295.505976 
L 196.4025 138.734989 
L 195.0075 138.734989 
z
" style="fill:#ff7f0e;"/>
   </g>
   <g id="patch_181">
    <path clip-path="url(#pccb40f3a2d)" d="M 197.7975 301.13991 
L 199.1925 301.13991 
L 199.1925 218.629162 
L 197.7975 218.629162 
z
" style="fill:#ff7f0e;"/>
   </g>
   <g id="patch_182">
    <path clip-path="url(#pccb40f3a2d)" d="M 200.5875 299.772642 
L 201.9825 299.772642 
L 201.9825 240.472348 
L 200.5875 240.472348 
z
" style="fill:#ff7f0e;"/>
   </g>
   <g id="patch_183">
    <path clip-path="url(#pccb40f3a2d)" d="M 203.3775 301.749279 
L 204.7725 301.749279 
L 204.7725 194.566245 
L 203.3775 194.566245 
z
" style="fill:#ff7f0e;"/>
   </g>
   <g id="patch_184">
    <path clip-path="url(#pccb40f3a2d)" d="M 206.1675 300.707554 
L 207.5625 300.707554 
L 207.5625 219.387169 
L 206.1675 219.387169 
z
" style="fill:#ff7f0e;"/>
   </g>
   <g id="patch_185">
    <path clip-path="url(#pccb40f3a2d)" d="M 208.9575 303.009137 
L 210.3525 303.009137 
L 210.3525 206.577539 
L 208.9575 206.577539 
z
" style="fill:#ff7f0e;"/>
   </g>
   <g id="patch_186">
    <path clip-path="url(#pccb40f3a2d)" d="M 211.7475 303.090632 
L 213.1425 303.090632 
L 213.1425 192.987832 
L 211.7475 192.987832 
z
" style="fill:#ff7f0e;"/>
   </g>
   <g id="patch_187">
    <path clip-path="url(#pccb40f3a2d)" d="M 214.5375 302.871102 
L 215.9325 302.871102 
L 215.9325 261.155132 
L 214.5375 261.155132 
z
" style="fill:#ff7f0e;"/>
   </g>
   <g id="patch_188">
    <path clip-path="url(#pccb40f3a2d)" d="M 217.3275 299.003966 
L 218.7225 299.003966 
L 218.7225 221.595855 
L 217.3275 221.595855 
z
" style="fill:#ff7f0e;"/>
   </g>
   <g id="patch_189">
    <path clip-path="url(#pccb40f3a2d)" d="M 220.1175 304.39786 
L 221.5125 304.39786 
L 221.5125 276.673888 
L 220.1175 276.673888 
z
" style="fill:#ff7f0e;"/>
   </g>
   <g id="patch_190">
    <path clip-path="url(#pccb40f3a2d)" d="M 222.9075 298.730495 
L 224.3025 298.730495 
L 224.3025 175.524126 
L 222.9075 175.524126 
z
" style="fill:#ff7f0e;"/>
   </g>
   <g id="patch_191">
    <path clip-path="url(#pccb40f3a2d)" d="M 225.6975 303.827978 
L 227.0925 303.827978 
L 227.0925 285.707999 
L 225.6975 285.707999 
z
" style="fill:#ff7f0e;"/>
   </g>
   <g id="patch_192">
    <path clip-path="url(#pccb40f3a2d)" d="M 228.4875 298.468304 
L 229.8825 298.468304 
L 229.8825 231.657196 
L 228.4875 231.657196 
z
" style="fill:#ff7f0e;"/>
   </g>
   <g id="patch_193">
    <path clip-path="url(#pccb40f3a2d)" d="M 231.2775 298.702596 
L 232.6725 298.702596 
L 232.6725 265.365231 
L 231.2775 265.365231 
z
" style="fill:#ff7f0e;"/>
   </g>
   <g id="patch_194">
    <path clip-path="url(#pccb40f3a2d)" d="M 234.0675 298.335412 
L 235.4625 298.335412 
L 235.4625 250.338168 
L 234.0675 250.338168 
z
" style="fill:#ff7f0e;"/>
   </g>
   <g id="patch_195">
    <path clip-path="url(#pccb40f3a2d)" d="M 236.8575 299.770492 
L 238.2525 299.770492 
L 238.2525 125.209795 
L 236.8575 125.209795 
z
" style="fill:#ff7f0e;"/>
   </g>
   <g id="patch_196">
    <path clip-path="url(#pccb40f3a2d)" d="M 239.6475 301.23408 
L 241.0425 301.23408 
L 241.0425 210.325923 
L 239.6475 210.325923 
z
" style="fill:#ff7f0e;"/>
   </g>
   <g id="patch_197">
    <path clip-path="url(#pccb40f3a2d)" d="M 242.4375 295.037686 
L 243.8325 295.037686 
L 243.8325 227.663269 
L 242.4375 227.663269 
z
" style="fill:#ff7f0e;"/>
   </g>
   <g id="patch_198">
    <path clip-path="url(#pccb40f3a2d)" d="M 245.2275 302.981025 
L 246.6225 302.981025 
L 246.6225 245.710051 
L 245.2275 245.710051 
z
" style="fill:#ff7f0e;"/>
   </g>
   <g id="patch_199">
    <path clip-path="url(#pccb40f3a2d)" d="M 248.0175 301.101748 
L 249.4125 301.101748 
L 249.4125 223.871471 
L 248.0175 223.871471 
z
" style="fill:#ff7f0e;"/>
   </g>
   <g id="patch_200">
    <path clip-path="url(#pccb40f3a2d)" d="M 250.8075 300.701443 
L 252.2025 300.701443 
L 252.2025 252.573361 
L 250.8075 252.573361 
z
" style="fill:#ff7f0e;"/>
   </g>
   <g id="patch_201">
    <path clip-path="url(#pccb40f3a2d)" d="M 253.5975 298.762221 
L 254.9925 298.762221 
L 254.9925 216.375818 
L 253.5975 216.375818 
z
" style="fill:#ff7f0e;"/>
   </g>
   <g id="patch_202">
    <path clip-path="url(#pccb40f3a2d)" d="M 256.3875 298.225756 
L 257.7825 298.225756 
L 257.7825 185.494698 
L 256.3875 185.494698 
z
" style="fill:#ff7f0e;"/>
   </g>
   <g id="patch_203">
    <path clip-path="url(#pccb40f3a2d)" d="M 259.1775 300.511569 
L 260.5725 300.511569 
L 260.5725 152.272538 
L 259.1775 152.272538 
z
" style="fill:#ff7f0e;"/>
   </g>
   <g id="patch_204">
    <path clip-path="url(#pccb40f3a2d)" d="M 261.9675 300.029425 
L 263.3625 300.029425 
L 263.3625 188.522475 
L 261.9675 188.522475 
z
" style="fill:#ff7f0e;"/>
   </g>
   <g id="patch_205">
    <path clip-path="url(#pccb40f3a2d)" d="M 264.7575 304.205628 
L 266.1525 304.205628 
L 266.1525 259.363002 
L 264.7575 259.363002 
z
" style="fill:#ff7f0e;"/>
   </g>
   <g id="patch_206">
    <path clip-path="url(#pccb40f3a2d)" d="M 267.5475 303.827482 
L 268.9425 303.827482 
L 268.9425 242.023836 
L 267.5475 242.023836 
z
" style="fill:#ff7f0e;"/>
   </g>
   <g id="patch_207">
    <path clip-path="url(#pccb40f3a2d)" d="M 270.3375 297.915189 
L 271.7325 297.915189 
L 271.7325 173.398623 
L 270.3375 173.398623 
z
" style="fill:#ff7f0e;"/>
   </g>
   <g id="patch_208">
    <path clip-path="url(#pccb40f3a2d)" d="M 273.1275 302.760531 
L 274.5225 302.760531 
L 274.5225 281.20013 
L 273.1275 281.20013 
z
" style="fill:#ff7f0e;"/>
   </g>
   <g id="patch_209">
    <path clip-path="url(#pccb40f3a2d)" d="M 275.9175 299.190159 
L 277.3125 299.190159 
L 277.3125 243.508309 
L 275.9175 243.508309 
z
" style="fill:#ff7f0e;"/>
   </g>
   <g id="patch_210">
    <path clip-path="url(#pccb40f3a2d)" d="M 278.7075 302.40233 
L 280.1025 302.40233 
L 280.1025 190.02523 
L 278.7075 190.02523 
z
" style="fill:#ff7f0e;"/>
   </g>
   <g id="patch_211">
    <path clip-path="url(#pccb40f3a2d)" d="M 281.4975 299.162643 
L 282.8925 299.162643 
L 282.8925 201.741247 
L 281.4975 201.741247 
z
" style="fill:#ff7f0e;"/>
   </g>
   <g id="patch_212">
    <path clip-path="url(#pccb40f3a2d)" d="M 284.2875 301.044703 
L 285.6825 301.044703 
L 285.6825 251.033363 
L 284.2875 251.033363 
z
" style="fill:#ff7f0e;"/>
   </g>
   <g id="patch_213">
    <path clip-path="url(#pccb40f3a2d)" d="M 287.0775 302.784862 
L 288.4725 302.784862 
L 288.4725 272.892373 
L 287.0775 272.892373 
z
" style="fill:#ff7f0e;"/>
   </g>
   <g id="patch_214">
    <path clip-path="url(#pccb40f3a2d)" d="M 289.8675 298.423783 
L 291.2625 298.423783 
L 291.2625 136.497622 
L 289.8675 136.497622 
z
" style="fill:#ff7f0e;"/>
   </g>
   <g id="patch_215">
    <path clip-path="url(#pccb40f3a2d)" d="M 292.6575 298.775017 
L 294.0525 298.775017 
L 294.0525 200.845787 
L 292.6575 200.845787 
z
" style="fill:#ff7f0e;"/>
   </g>
   <g id="patch_216">
    <path clip-path="url(#pccb40f3a2d)" d="M 295.4475 297.481825 
L 296.8425 297.481825 
L 296.8425 196.016761 
L 295.4475 196.016761 
z
" style="fill:#ff7f0e;"/>
   </g>
   <g id="patch_217">
    <path clip-path="url(#pccb40f3a2d)" d="M 298.2375 302.736899 
L 299.6325 302.736899 
L 299.6325 210.310842 
L 298.2375 210.310842 
z
" style="fill:#ff7f0e;"/>
   </g>
   <g id="patch_218">
    <path clip-path="url(#pccb40f3a2d)" d="M 301.0275 303.868666 
L 302.4225 303.868666 
L 302.4225 294.767252 
L 301.0275 294.767252 
z
" style="fill:#ff7f0e;"/>
   </g>
   <g id="patch_219">
    <path clip-path="url(#pccb40f3a2d)" d="M 303.8175 299.67369 
L 305.2125 299.67369 
L 305.2125 208.808673 
L 303.8175 208.808673 
z
" style="fill:#ff7f0e;"/>
   </g>
   <g id="patch_220">
    <path clip-path="url(#pccb40f3a2d)" d="M 306.6075 301.778743 
L 308.0025 301.778743 
L 308.0025 262.325424 
L 306.6075 262.325424 
z
" style="fill:#ff7f0e;"/>
   </g>
   <g id="patch_221">
    <path clip-path="url(#pccb40f3a2d)" d="M 309.3975 302.187964 
L 310.7925 302.187964 
L 310.7925 211.610805 
L 309.3975 211.610805 
z
" style="fill:#ff7f0e;"/>
   </g>
   <g id="patch_222">
    <path clip-path="url(#pccb40f3a2d)" d="M 312.1875 302.611896 
L 313.5825 302.611896 
L 313.5825 213.317142 
L 312.1875 213.317142 
z
" style="fill:#ff7f0e;"/>
   </g>
   <g id="patch_223">
    <path clip-path="url(#pccb40f3a2d)" d="M 314.9775 302.858363 
L 316.3725 302.858363 
L 316.3725 227.706848 
L 314.9775 227.706848 
z
" style="fill:#ff7f0e;"/>
   </g>
   <g id="patch_224">
    <path clip-path="url(#pccb40f3a2d)" d="M 317.7675 301.15431 
L 319.1625 301.15431 
L 319.1625 239.72485 
L 317.7675 239.72485 
z
" style="fill:#ff7f0e;"/>
   </g>
   <g id="patch_225">
    <path clip-path="url(#pccb40f3a2d)" d="M 320.5575 299.155395 
L 321.9525 299.155395 
L 321.9525 233.682469 
L 320.5575 233.682469 
z
" style="fill:#ff7f0e;"/>
   </g>
   <g id="patch_226">
    <path clip-path="url(#pccb40f3a2d)" d="M 323.3475 302.985827 
L 324.7425 302.985827 
L 324.7425 244.256792 
L 323.3475 244.256792 
z
" style="fill:#ff7f0e;"/>
   </g>
   <g id="patch_227">
    <path clip-path="url(#pccb40f3a2d)" d="M 326.1375 301.987043 
L 327.5325 301.987043 
L 327.5325 245.74086 
L 326.1375 245.74086 
z
" style="fill:#ff7f0e;"/>
   </g>
   <g id="patch_228">
    <path clip-path="url(#pccb40f3a2d)" d="M 328.9275 300.809362 
L 330.3225 300.809362 
L 330.3225 171.895349 
L 328.9275 171.895349 
z
" style="fill:#ff7f0e;"/>
   </g>
   <g id="patch_229">
    <path clip-path="url(#pccb40f3a2d)" d="M 331.7175 302.063963 
L 333.1125 302.063963 
L 333.1125 242.729123 
L 331.7175 242.729123 
z
" style="fill:#ff7f0e;"/>
   </g>
   <g id="patch_230">
    <path clip-path="url(#pccb40f3a2d)" d="M 334.5075 301.938348 
L 335.9025 301.938348 
L 335.9025 262.352999 
L 334.5075 262.352999 
z
" style="fill:#ff7f0e;"/>
   </g>
   <g id="patch_231">
    <path clip-path="url(#pccb40f3a2d)" d="M 337.2975 301.555189 
L 338.6925 301.555189 
L 338.6925 260.089651 
L 337.2975 260.089651 
z
" style="fill:#ff7f0e;"/>
   </g>
   <g id="patch_232">
    <path clip-path="url(#pccb40f3a2d)" d="M 340.0875 295.353287 
L 341.4825 295.353287 
L 341.4825 203.190294 
L 340.0875 203.190294 
z
" style="fill:#ff7f0e;"/>
   </g>
   <g id="patch_233">
    <path clip-path="url(#pccb40f3a2d)" d="M 342.8775 297.875418 
L 344.2725 297.875418 
L 344.2725 41.472 
L 342.8775 41.472 
z
" style="fill:#ff7f0e;"/>
   </g>
   <g id="patch_234">
    <path clip-path="url(#pccb40f3a2d)" d="M 345.6675 301.135187 
L 347.0625 301.135187 
L 347.0625 250.26978 
L 345.6675 250.26978 
z
" style="fill:#ff7f0e;"/>
   </g>
   <g id="patch_235">
    <path clip-path="url(#pccb40f3a2d)" d="M 348.4575 300.22764 
L 349.8525 300.22764 
L 349.8525 230.670893 
L 348.4575 230.670893 
z
" style="fill:#ff7f0e;"/>
   </g>
   <g id="patch_236">
    <path clip-path="url(#pccb40f3a2d)" d="M 351.2475 300.542936 
L 352.6425 300.542936 
L 352.6425 235.19728 
L 351.2475 235.19728 
z
" style="fill:#ff7f0e;"/>
   </g>
   <g id="patch_237">
    <path clip-path="url(#pccb40f3a2d)" d="M 354.0375 299.036573 
L 355.4325 299.036573 
L 355.4325 206.050547 
L 354.0375 206.050547 
z
" style="fill:#ff7f0e;"/>
   </g>
   <g id="patch_238">
    <path clip-path="url(#pccb40f3a2d)" d="M 356.8275 296.967686 
L 358.2225 296.967686 
L 358.2225 110.407325 
L 356.8275 110.407325 
z
" style="fill:#ff7f0e;"/>
   </g>
   <g id="patch_239">
    <path clip-path="url(#pccb40f3a2d)" d="M 359.6175 301.440159 
L 361.0125 301.440159 
L 361.0125 106.317125 
L 359.6175 106.317125 
z
" style="fill:#ff7f0e;"/>
   </g>
   <g id="patch_240">
    <path clip-path="url(#pccb40f3a2d)" d="M 362.4075 300.214047 
L 363.8025 300.214047 
L 363.8025 241.99684 
L 362.4075 241.99684 
z
" style="fill:#ff7f0e;"/>
   </g>
   <g id="patch_241">
    <path clip-path="url(#pccb40f3a2d)" d="M 365.1975 296.013537 
L 366.5925 296.013537 
L 366.5925 116.019672 
L 365.1975 116.019672 
z
" style="fill:#ff7f0e;"/>
   </g>
   <g id="patch_242">
    <path clip-path="url(#pccb40f3a2d)" d="M 367.9875 299.738103 
L 369.3825 299.738103 
L 369.3825 159.826976 
L 367.9875 159.826976 
z
" style="fill:#ff7f0e;"/>
   </g>
   <g id="patch_243">
    <path clip-path="url(#pccb40f3a2d)" d="M 370.7775 300.396128 
L 372.1725 300.396128 
L 372.1725 172.660051 
L 370.7775 172.660051 
z
" style="fill:#ff7f0e;"/>
   </g>
   <g id="patch_244">
    <path clip-path="url(#pccb40f3a2d)" d="M 373.5675 302.077396 
L 374.9625 302.077396 
L 374.9625 213.370049 
L 373.5675 213.370049 
z
" style="fill:#ff7f0e;"/>
   </g>
   <g id="patch_245">
    <path clip-path="url(#pccb40f3a2d)" d="M 376.3575 301.255682 
L 377.7525 301.255682 
L 377.7525 266.888625 
L 376.3575 266.888625 
z
" style="fill:#ff7f0e;"/>
   </g>
   <g id="patch_246">
    <path clip-path="url(#pccb40f3a2d)" d="M 379.1475 300.966461 
L 380.5425 300.966461 
L 380.5425 236.684916 
L 379.1475 236.684916 
z
" style="fill:#ff7f0e;"/>
   </g>
   <g id="patch_247">
    <path clip-path="url(#pccb40f3a2d)" d="M 381.9375 296.881983 
L 383.3325 296.881983 
L 383.3325 126.131327 
L 381.9375 126.131327 
z
" style="fill:#ff7f0e;"/>
   </g>
   <g id="patch_248">
    <path clip-path="url(#pccb40f3a2d)" d="M 384.7275 299.842003 
L 386.1225 299.842003 
L 386.1225 174.184925 
L 384.7275 174.184925 
z
" style="fill:#ff7f0e;"/>
   </g>
   <g id="patch_249">
    <path clip-path="url(#pccb40f3a2d)" d="M 387.5175 298.720151 
L 388.9125 298.720151 
L 388.9125 200.212367 
L 387.5175 200.212367 
z
" style="fill:#ff7f0e;"/>
   </g>
   <g id="patch_250">
    <path clip-path="url(#pccb40f3a2d)" d="M 390.3075 299.886254 
L 391.7025 299.886254 
L 391.7025 157.546446 
L 390.3075 157.546446 
z
" style="fill:#ff7f0e;"/>
   </g>
   <g id="patch_251">
    <path clip-path="url(#pccb40f3a2d)" d="M 393.0975 301.881512 
L 394.4925 301.881512 
L 394.4925 253.30528 
L 393.0975 253.30528 
z
" style="fill:#ff7f0e;"/>
   </g>
   <g id="patch_252">
    <path clip-path="url(#pccb40f3a2d)" d="M 395.8875 303.378113 
L 397.2825 303.378113 
L 397.2825 261.6918 
L 395.8875 261.6918 
z
" style="fill:#ff7f0e;"/>
   </g>
   <g id="patch_253">
    <path clip-path="url(#pccb40f3a2d)" d="M 398.6775 300.8243 
L 400.0725 300.8243 
L 400.0725 223.908933 
L 398.6775 223.908933 
z
" style="fill:#ff7f0e;"/>
   </g>
   <g id="patch_254">
    <path clip-path="url(#pccb40f3a2d)" d="M 401.4675 299.650008 
L 402.8625 299.650008 
L 402.8625 215.656969 
L 401.4675 215.656969 
z
" style="fill:#ff7f0e;"/>
   </g>
   <g id="patch_255">
    <path clip-path="url(#pccb40f3a2d)" d="M 404.2575 297.888233 
L 405.6525 297.888233 
L 405.6525 241.21387 
L 404.2575 241.21387 
z
" style="fill:#ff7f0e;"/>
   </g>
   <g id="patch_256">
    <path clip-path="url(#pccb40f3a2d)" d="M 407.0475 300.591039 
L 408.4425 300.591039 
L 408.4425 252.535868 
L 407.0475 252.535868 
z
" style="fill:#ff7f0e;"/>
   </g>
   <g id="patch_257">
    <path clip-path="url(#pccb40f3a2d)" d="M 409.8375 302.661279 
L 411.2325 302.661279 
L 411.2325 161.332762 
L 409.8375 161.332762 
z
" style="fill:#ff7f0e;"/>
   </g>
   <g id="patch_258">
    <path clip-path="url(#pccb40f3a2d)" d="M 412.6275 300.842114 
L 414.0225 300.842114 
L 414.0225 278.171353 
L 412.6275 278.171353 
z
" style="fill:#ff7f0e;"/>
   </g>
   <g id="matplotlib.axis_1">
    <g id="xtick_1">
     <g id="line2d_1">
      <defs>
       <path d="M 0 0 
L 0 3.5 
" id="mddb008db8b" style="stroke:#000000;stroke-width:0.8;"/>
      </defs>
      <g>
       <use style="stroke:#000000;stroke-width:0.8;" x="58.995" xlink:href="#mddb008db8b" y="307.584"/>
      </g>
     </g>
     <g id="text_1">
      <!-- 0 -->
      <g transform="translate(61.754375 320.9465)rotate(-90)scale(0.1 -0.1)">
       <defs>
        <path d="M 2034 4250 
Q 1547 4250 1301 3770 
Q 1056 3291 1056 2328 
Q 1056 1369 1301 889 
Q 1547 409 2034 409 
Q 2525 409 2770 889 
Q 3016 1369 3016 2328 
Q 3016 3291 2770 3770 
Q 2525 4250 2034 4250 
z
M 2034 4750 
Q 2819 4750 3233 4129 
Q 3647 3509 3647 2328 
Q 3647 1150 3233 529 
Q 2819 -91 2034 -91 
Q 1250 -91 836 529 
Q 422 1150 422 2328 
Q 422 3509 836 4129 
Q 1250 4750 2034 4750 
z
" id="DejaVuSans-30" transform="scale(0.015625)"/>
       </defs>
       <use xlink:href="#DejaVuSans-30"/>
      </g>
     </g>
    </g>
    <g id="xtick_2">
     <g id="line2d_2">
      <g>
       <use style="stroke:#000000;stroke-width:0.8;" x="237.555" xlink:href="#mddb008db8b" y="307.584"/>
      </g>
     </g>
     <g id="text_2">
      <!-- 64 -->
      <g transform="translate(240.314375 327.309)rotate(-90)scale(0.1 -0.1)">
       <defs>
        <path d="M 2113 2584 
Q 1688 2584 1439 2293 
Q 1191 2003 1191 1497 
Q 1191 994 1439 701 
Q 1688 409 2113 409 
Q 2538 409 2786 701 
Q 3034 994 3034 1497 
Q 3034 2003 2786 2293 
Q 2538 2584 2113 2584 
z
M 3366 4563 
L 3366 3988 
Q 3128 4100 2886 4159 
Q 2644 4219 2406 4219 
Q 1781 4219 1451 3797 
Q 1122 3375 1075 2522 
Q 1259 2794 1537 2939 
Q 1816 3084 2150 3084 
Q 2853 3084 3261 2657 
Q 3669 2231 3669 1497 
Q 3669 778 3244 343 
Q 2819 -91 2113 -91 
Q 1303 -91 875 529 
Q 447 1150 447 2328 
Q 447 3434 972 4092 
Q 1497 4750 2381 4750 
Q 2619 4750 2861 4703 
Q 3103 4656 3366 4563 
z
" id="DejaVuSans-36" transform="scale(0.015625)"/>
        <path d="M 2419 4116 
L 825 1625 
L 2419 1625 
L 2419 4116 
z
M 2253 4666 
L 3047 4666 
L 3047 1625 
L 3713 1625 
L 3713 1100 
L 3047 1100 
L 3047 0 
L 2419 0 
L 2419 1100 
L 313 1100 
L 313 1709 
L 2253 4666 
z
" id="DejaVuSans-34" transform="scale(0.015625)"/>
       </defs>
       <use xlink:href="#DejaVuSans-36"/>
       <use x="63.623047" xlink:href="#DejaVuSans-34"/>
      </g>
     </g>
    </g>
    <g id="text_3">
     <!-- domain -->
     <g transform="translate(217.434219 338.907437)scale(0.1 -0.1)">
      <defs>
       <path d="M 2906 2969 
L 2906 4863 
L 3481 4863 
L 3481 0 
L 2906 0 
L 2906 525 
Q 2725 213 2448 61 
Q 2172 -91 1784 -91 
Q 1150 -91 751 415 
Q 353 922 353 1747 
Q 353 2572 751 3078 
Q 1150 3584 1784 3584 
Q 2172 3584 2448 3432 
Q 2725 3281 2906 2969 
z
M 947 1747 
Q 947 1113 1208 752 
Q 1469 391 1925 391 
Q 2381 391 2643 752 
Q 2906 1113 2906 1747 
Q 2906 2381 2643 2742 
Q 2381 3103 1925 3103 
Q 1469 3103 1208 2742 
Q 947 2381 947 1747 
z
" id="DejaVuSans-64" transform="scale(0.015625)"/>
       <path d="M 1959 3097 
Q 1497 3097 1228 2736 
Q 959 2375 959 1747 
Q 959 1119 1226 758 
Q 1494 397 1959 397 
Q 2419 397 2687 759 
Q 2956 1122 2956 1747 
Q 2956 2369 2687 2733 
Q 2419 3097 1959 3097 
z
M 1959 3584 
Q 2709 3584 3137 3096 
Q 3566 2609 3566 1747 
Q 3566 888 3137 398 
Q 2709 -91 1959 -91 
Q 1206 -91 779 398 
Q 353 888 353 1747 
Q 353 2609 779 3096 
Q 1206 3584 1959 3584 
z
" id="DejaVuSans-6f" transform="scale(0.015625)"/>
       <path d="M 3328 2828 
Q 3544 3216 3844 3400 
Q 4144 3584 4550 3584 
Q 5097 3584 5394 3201 
Q 5691 2819 5691 2113 
L 5691 0 
L 5113 0 
L 5113 2094 
Q 5113 2597 4934 2840 
Q 4756 3084 4391 3084 
Q 3944 3084 3684 2787 
Q 3425 2491 3425 1978 
L 3425 0 
L 2847 0 
L 2847 2094 
Q 2847 2600 2669 2842 
Q 2491 3084 2119 3084 
Q 1678 3084 1418 2786 
Q 1159 2488 1159 1978 
L 1159 0 
L 581 0 
L 581 3500 
L 1159 3500 
L 1159 2956 
Q 1356 3278 1631 3431 
Q 1906 3584 2284 3584 
Q 2666 3584 2933 3390 
Q 3200 3197 3328 2828 
z
" id="DejaVuSans-6d" transform="scale(0.015625)"/>
       <path d="M 2194 1759 
Q 1497 1759 1228 1600 
Q 959 1441 959 1056 
Q 959 750 1161 570 
Q 1363 391 1709 391 
Q 2188 391 2477 730 
Q 2766 1069 2766 1631 
L 2766 1759 
L 2194 1759 
z
M 3341 1997 
L 3341 0 
L 2766 0 
L 2766 531 
Q 2569 213 2275 61 
Q 1981 -91 1556 -91 
Q 1019 -91 701 211 
Q 384 513 384 1019 
Q 384 1609 779 1909 
Q 1175 2209 1959 2209 
L 2766 2209 
L 2766 2266 
Q 2766 2663 2505 2880 
Q 2244 3097 1772 3097 
Q 1472 3097 1187 3025 
Q 903 2953 641 2809 
L 641 3341 
Q 956 3463 1253 3523 
Q 1550 3584 1831 3584 
Q 2591 3584 2966 3190 
Q 3341 2797 3341 1997 
z
" id="DejaVuSans-61" transform="scale(0.015625)"/>
       <path d="M 603 3500 
L 1178 3500 
L 1178 0 
L 603 0 
L 603 3500 
z
M 603 4863 
L 1178 4863 
L 1178 4134 
L 603 4134 
L 603 4863 
z
" id="DejaVuSans-69" transform="scale(0.015625)"/>
       <path d="M 3513 2113 
L 3513 0 
L 2938 0 
L 2938 2094 
Q 2938 2591 2744 2837 
Q 2550 3084 2163 3084 
Q 1697 3084 1428 2787 
Q 1159 2491 1159 1978 
L 1159 0 
L 581 0 
L 581 3500 
L 1159 3500 
L 1159 2956 
Q 1366 3272 1645 3428 
Q 1925 3584 2291 3584 
Q 2894 3584 3203 3211 
Q 3513 2838 3513 2113 
z
" id="DejaVuSans-6e" transform="scale(0.015625)"/>
      </defs>
      <use xlink:href="#DejaVuSans-64"/>
      <use x="63.476562" xlink:href="#DejaVuSans-6f"/>
      <use x="124.658203" xlink:href="#DejaVuSans-6d"/>
      <use x="222.070312" xlink:href="#DejaVuSans-61"/>
      <use x="283.349609" xlink:href="#DejaVuSans-69"/>
      <use x="311.132812" xlink:href="#DejaVuSans-6e"/>
     </g>
    </g>
   </g>
   <g id="matplotlib.axis_2">
    <g id="ytick_1">
     <g id="line2d_3">
      <defs>
       <path d="M 0 0 
L -3.5 0 
" id="mb8362bee85" style="stroke:#000000;stroke-width:0.8;"/>
      </defs>
      <g>
       <use style="stroke:#000000;stroke-width:0.8;" x="57.6" xlink:href="#mb8362bee85" y="307.584"/>
      </g>
     </g>
     <g id="text_4">
      <!-- 0.0 -->
      <g transform="translate(34.696875 311.383219)scale(0.1 -0.1)">
       <defs>
        <path d="M 684 794 
L 1344 794 
L 1344 0 
L 684 0 
L 684 794 
z
" id="DejaVuSans-2e" transform="scale(0.015625)"/>
       </defs>
       <use xlink:href="#DejaVuSans-30"/>
       <use x="63.623047" xlink:href="#DejaVuSans-2e"/>
       <use x="95.410156" xlink:href="#DejaVuSans-30"/>
      </g>
     </g>
    </g>
    <g id="ytick_2">
     <g id="line2d_4">
      <g>
       <use style="stroke:#000000;stroke-width:0.8;" x="57.6" xlink:href="#mb8362bee85" y="271.580709"/>
      </g>
     </g>
     <g id="text_5">
      <!-- 0.2 -->
      <g transform="translate(34.696875 275.379928)scale(0.1 -0.1)">
       <defs>
        <path d="M 1228 531 
L 3431 531 
L 3431 0 
L 469 0 
L 469 531 
Q 828 903 1448 1529 
Q 2069 2156 2228 2338 
Q 2531 2678 2651 2914 
Q 2772 3150 2772 3378 
Q 2772 3750 2511 3984 
Q 2250 4219 1831 4219 
Q 1534 4219 1204 4116 
Q 875 4013 500 3803 
L 500 4441 
Q 881 4594 1212 4672 
Q 1544 4750 1819 4750 
Q 2544 4750 2975 4387 
Q 3406 4025 3406 3419 
Q 3406 3131 3298 2873 
Q 3191 2616 2906 2266 
Q 2828 2175 2409 1742 
Q 1991 1309 1228 531 
z
" id="DejaVuSans-32" transform="scale(0.015625)"/>
       </defs>
       <use xlink:href="#DejaVuSans-30"/>
       <use x="63.623047" xlink:href="#DejaVuSans-2e"/>
       <use x="95.410156" xlink:href="#DejaVuSans-32"/>
      </g>
     </g>
    </g>
    <g id="ytick_3">
     <g id="line2d_5">
      <g>
       <use style="stroke:#000000;stroke-width:0.8;" x="57.6" xlink:href="#mb8362bee85" y="235.577419"/>
      </g>
     </g>
     <g id="text_6">
      <!-- 0.4 -->
      <g transform="translate(34.696875 239.376638)scale(0.1 -0.1)">
       <use xlink:href="#DejaVuSans-30"/>
       <use x="63.623047" xlink:href="#DejaVuSans-2e"/>
       <use x="95.410156" xlink:href="#DejaVuSans-34"/>
      </g>
     </g>
    </g>
    <g id="ytick_4">
     <g id="line2d_6">
      <g>
       <use style="stroke:#000000;stroke-width:0.8;" x="57.6" xlink:href="#mb8362bee85" y="199.574128"/>
      </g>
     </g>
     <g id="text_7">
      <!-- 0.6 -->
      <g transform="translate(34.696875 203.373347)scale(0.1 -0.1)">
       <use xlink:href="#DejaVuSans-30"/>
       <use x="63.623047" xlink:href="#DejaVuSans-2e"/>
       <use x="95.410156" xlink:href="#DejaVuSans-36"/>
      </g>
     </g>
    </g>
    <g id="ytick_5">
     <g id="line2d_7">
      <g>
       <use style="stroke:#000000;stroke-width:0.8;" x="57.6" xlink:href="#mb8362bee85" y="163.570838"/>
      </g>
     </g>
     <g id="text_8">
      <!-- 0.8 -->
      <g transform="translate(34.696875 167.370056)scale(0.1 -0.1)">
       <defs>
        <path d="M 2034 2216 
Q 1584 2216 1326 1975 
Q 1069 1734 1069 1313 
Q 1069 891 1326 650 
Q 1584 409 2034 409 
Q 2484 409 2743 651 
Q 3003 894 3003 1313 
Q 3003 1734 2745 1975 
Q 2488 2216 2034 2216 
z
M 1403 2484 
Q 997 2584 770 2862 
Q 544 3141 544 3541 
Q 544 4100 942 4425 
Q 1341 4750 2034 4750 
Q 2731 4750 3128 4425 
Q 3525 4100 3525 3541 
Q 3525 3141 3298 2862 
Q 3072 2584 2669 2484 
Q 3125 2378 3379 2068 
Q 3634 1759 3634 1313 
Q 3634 634 3220 271 
Q 2806 -91 2034 -91 
Q 1263 -91 848 271 
Q 434 634 434 1313 
Q 434 1759 690 2068 
Q 947 2378 1403 2484 
z
M 1172 3481 
Q 1172 3119 1398 2916 
Q 1625 2713 2034 2713 
Q 2441 2713 2670 2916 
Q 2900 3119 2900 3481 
Q 2900 3844 2670 4047 
Q 2441 4250 2034 4250 
Q 1625 4250 1398 4047 
Q 1172 3844 1172 3481 
z
" id="DejaVuSans-38" transform="scale(0.015625)"/>
       </defs>
       <use xlink:href="#DejaVuSans-30"/>
       <use x="63.623047" xlink:href="#DejaVuSans-2e"/>
       <use x="95.410156" xlink:href="#DejaVuSans-38"/>
      </g>
     </g>
    </g>
    <g id="ytick_6">
     <g id="line2d_8">
      <g>
       <use style="stroke:#000000;stroke-width:0.8;" x="57.6" xlink:href="#mb8362bee85" y="127.567547"/>
      </g>
     </g>
     <g id="text_9">
      <!-- 1.0 -->
      <g transform="translate(34.696875 131.366766)scale(0.1 -0.1)">
       <defs>
        <path d="M 794 531 
L 1825 531 
L 1825 4091 
L 703 3866 
L 703 4441 
L 1819 4666 
L 2450 4666 
L 2450 531 
L 3481 531 
L 3481 0 
L 794 0 
L 794 531 
z
" id="DejaVuSans-31" transform="scale(0.015625)"/>
       </defs>
       <use xlink:href="#DejaVuSans-31"/>
       <use x="63.623047" xlink:href="#DejaVuSans-2e"/>
       <use x="95.410156" xlink:href="#DejaVuSans-30"/>
      </g>
     </g>
    </g>
    <g id="ytick_7">
     <g id="line2d_9">
      <g>
       <use style="stroke:#000000;stroke-width:0.8;" x="57.6" xlink:href="#mb8362bee85" y="91.564256"/>
      </g>
     </g>
     <g id="text_10">
      <!-- 1.2 -->
      <g transform="translate(34.696875 95.363475)scale(0.1 -0.1)">
       <use xlink:href="#DejaVuSans-31"/>
       <use x="63.623047" xlink:href="#DejaVuSans-2e"/>
       <use x="95.410156" xlink:href="#DejaVuSans-32"/>
      </g>
     </g>
    </g>
    <g id="ytick_8">
     <g id="line2d_10">
      <g>
       <use style="stroke:#000000;stroke-width:0.8;" x="57.6" xlink:href="#mb8362bee85" y="55.560966"/>
      </g>
     </g>
     <g id="text_11">
      <!-- 1.4 -->
      <g transform="translate(34.696875 59.360185)scale(0.1 -0.1)">
       <use xlink:href="#DejaVuSans-31"/>
       <use x="63.623047" xlink:href="#DejaVuSans-2e"/>
       <use x="95.410156" xlink:href="#DejaVuSans-34"/>
      </g>
     </g>
    </g>
    <g id="text_12">
     <!-- Total Bytes sent to Domain -->
     <g transform="translate(28.617187 241.823312)rotate(-90)scale(0.1 -0.1)">
      <defs>
       <path d="M -19 4666 
L 3928 4666 
L 3928 4134 
L 2272 4134 
L 2272 0 
L 1638 0 
L 1638 4134 
L -19 4134 
L -19 4666 
z
" id="DejaVuSans-54" transform="scale(0.015625)"/>
       <path d="M 1172 4494 
L 1172 3500 
L 2356 3500 
L 2356 3053 
L 1172 3053 
L 1172 1153 
Q 1172 725 1289 603 
Q 1406 481 1766 481 
L 2356 481 
L 2356 0 
L 1766 0 
Q 1100 0 847 248 
Q 594 497 594 1153 
L 594 3053 
L 172 3053 
L 172 3500 
L 594 3500 
L 594 4494 
L 1172 4494 
z
" id="DejaVuSans-74" transform="scale(0.015625)"/>
       <path d="M 603 4863 
L 1178 4863 
L 1178 0 
L 603 0 
L 603 4863 
z
" id="DejaVuSans-6c" transform="scale(0.015625)"/>
       <path id="DejaVuSans-20" transform="scale(0.015625)"/>
       <path d="M 1259 2228 
L 1259 519 
L 2272 519 
Q 2781 519 3026 730 
Q 3272 941 3272 1375 
Q 3272 1813 3026 2020 
Q 2781 2228 2272 2228 
L 1259 2228 
z
M 1259 4147 
L 1259 2741 
L 2194 2741 
Q 2656 2741 2882 2914 
Q 3109 3088 3109 3444 
Q 3109 3797 2882 3972 
Q 2656 4147 2194 4147 
L 1259 4147 
z
M 628 4666 
L 2241 4666 
Q 2963 4666 3353 4366 
Q 3744 4066 3744 3513 
Q 3744 3084 3544 2831 
Q 3344 2578 2956 2516 
Q 3422 2416 3680 2098 
Q 3938 1781 3938 1306 
Q 3938 681 3513 340 
Q 3088 0 2303 0 
L 628 0 
L 628 4666 
z
" id="DejaVuSans-42" transform="scale(0.015625)"/>
       <path d="M 2059 -325 
Q 1816 -950 1584 -1140 
Q 1353 -1331 966 -1331 
L 506 -1331 
L 506 -850 
L 844 -850 
Q 1081 -850 1212 -737 
Q 1344 -625 1503 -206 
L 1606 56 
L 191 3500 
L 800 3500 
L 1894 763 
L 2988 3500 
L 3597 3500 
L 2059 -325 
z
" id="DejaVuSans-79" transform="scale(0.015625)"/>
       <path d="M 3597 1894 
L 3597 1613 
L 953 1613 
Q 991 1019 1311 708 
Q 1631 397 2203 397 
Q 2534 397 2845 478 
Q 3156 559 3463 722 
L 3463 178 
Q 3153 47 2828 -22 
Q 2503 -91 2169 -91 
Q 1331 -91 842 396 
Q 353 884 353 1716 
Q 353 2575 817 3079 
Q 1281 3584 2069 3584 
Q 2775 3584 3186 3129 
Q 3597 2675 3597 1894 
z
M 3022 2063 
Q 3016 2534 2758 2815 
Q 2500 3097 2075 3097 
Q 1594 3097 1305 2825 
Q 1016 2553 972 2059 
L 3022 2063 
z
" id="DejaVuSans-65" transform="scale(0.015625)"/>
       <path d="M 2834 3397 
L 2834 2853 
Q 2591 2978 2328 3040 
Q 2066 3103 1784 3103 
Q 1356 3103 1142 2972 
Q 928 2841 928 2578 
Q 928 2378 1081 2264 
Q 1234 2150 1697 2047 
L 1894 2003 
Q 2506 1872 2764 1633 
Q 3022 1394 3022 966 
Q 3022 478 2636 193 
Q 2250 -91 1575 -91 
Q 1294 -91 989 -36 
Q 684 19 347 128 
L 347 722 
Q 666 556 975 473 
Q 1284 391 1588 391 
Q 1994 391 2212 530 
Q 2431 669 2431 922 
Q 2431 1156 2273 1281 
Q 2116 1406 1581 1522 
L 1381 1569 
Q 847 1681 609 1914 
Q 372 2147 372 2553 
Q 372 3047 722 3315 
Q 1072 3584 1716 3584 
Q 2034 3584 2315 3537 
Q 2597 3491 2834 3397 
z
" id="DejaVuSans-73" transform="scale(0.015625)"/>
       <path d="M 1259 4147 
L 1259 519 
L 2022 519 
Q 2988 519 3436 956 
Q 3884 1394 3884 2338 
Q 3884 3275 3436 3711 
Q 2988 4147 2022 4147 
L 1259 4147 
z
M 628 4666 
L 1925 4666 
Q 3281 4666 3915 4102 
Q 4550 3538 4550 2338 
Q 4550 1131 3912 565 
Q 3275 0 1925 0 
L 628 0 
L 628 4666 
z
" id="DejaVuSans-44" transform="scale(0.015625)"/>
      </defs>
      <use xlink:href="#DejaVuSans-54"/>
      <use x="44.083984" xlink:href="#DejaVuSans-6f"/>
      <use x="105.265625" xlink:href="#DejaVuSans-74"/>
      <use x="144.474609" xlink:href="#DejaVuSans-61"/>
      <use x="205.753906" xlink:href="#DejaVuSans-6c"/>
      <use x="233.537109" xlink:href="#DejaVuSans-20"/>
      <use x="265.324219" xlink:href="#DejaVuSans-42"/>
      <use x="333.927734" xlink:href="#DejaVuSans-79"/>
      <use x="393.107422" xlink:href="#DejaVuSans-74"/>
      <use x="432.316406" xlink:href="#DejaVuSans-65"/>
      <use x="493.839844" xlink:href="#DejaVuSans-73"/>
      <use x="545.939453" xlink:href="#DejaVuSans-20"/>
      <use x="577.726562" xlink:href="#DejaVuSans-73"/>
      <use x="629.826172" xlink:href="#DejaVuSans-65"/>
      <use x="691.349609" xlink:href="#DejaVuSans-6e"/>
      <use x="754.728516" xlink:href="#DejaVuSans-74"/>
      <use x="793.9375" xlink:href="#DejaVuSans-20"/>
      <use x="825.724609" xlink:href="#DejaVuSans-74"/>
      <use x="864.933594" xlink:href="#DejaVuSans-6f"/>
      <use x="926.115234" xlink:href="#DejaVuSans-20"/>
      <use x="957.902344" xlink:href="#DejaVuSans-44"/>
      <use x="1034.904297" xlink:href="#DejaVuSans-6f"/>
      <use x="1096.085938" xlink:href="#DejaVuSans-6d"/>
      <use x="1193.498047" xlink:href="#DejaVuSans-61"/>
      <use x="1254.777344" xlink:href="#DejaVuSans-69"/>
      <use x="1282.560547" xlink:href="#DejaVuSans-6e"/>
     </g>
    </g>
    <g id="text_13">
     <!-- 1e9 -->
     <g transform="translate(57.6 38.472)scale(0.1 -0.1)">
      <defs>
       <path d="M 703 97 
L 703 672 
Q 941 559 1184 500 
Q 1428 441 1663 441 
Q 2288 441 2617 861 
Q 2947 1281 2994 2138 
Q 2813 1869 2534 1725 
Q 2256 1581 1919 1581 
Q 1219 1581 811 2004 
Q 403 2428 403 3163 
Q 403 3881 828 4315 
Q 1253 4750 1959 4750 
Q 2769 4750 3195 4129 
Q 3622 3509 3622 2328 
Q 3622 1225 3098 567 
Q 2575 -91 1691 -91 
Q 1453 -91 1209 -44 
Q 966 3 703 97 
z
M 1959 2075 
Q 2384 2075 2632 2365 
Q 2881 2656 2881 3163 
Q 2881 3666 2632 3958 
Q 2384 4250 1959 4250 
Q 1534 4250 1286 3958 
Q 1038 3666 1038 3163 
Q 1038 2656 1286 2365 
Q 1534 2075 1959 2075 
z
" id="DejaVuSans-39" transform="scale(0.015625)"/>
      </defs>
      <use xlink:href="#DejaVuSans-31"/>
      <use x="63.623047" xlink:href="#DejaVuSans-65"/>
      <use x="125.146484" xlink:href="#DejaVuSans-39"/>
     </g>
    </g>
   </g>
   <g id="patch_259">
    <path d="M 57.6 307.584 
L 57.6 41.472 
" style="fill:none;stroke:#000000;stroke-linecap:square;stroke-linejoin:miter;stroke-width:0.8;"/>
   </g>
   <g id="patch_260">
    <path d="M 414.72 307.584 
L 414.72 41.472 
" style="fill:none;stroke:#000000;stroke-linecap:square;stroke-linejoin:miter;stroke-width:0.8;"/>
   </g>
   <g id="patch_261">
    <path d="M 57.6 307.584 
L 414.72 307.584 
" style="fill:none;stroke:#000000;stroke-linecap:square;stroke-linejoin:miter;stroke-width:0.8;"/>
   </g>
   <g id="patch_262">
    <path d="M 57.6 41.472 
L 414.72 41.472 
" style="fill:none;stroke:#000000;stroke-linecap:square;stroke-linejoin:miter;stroke-width:0.8;"/>
   </g>
   <g id="text_14">
    <!-- ex0-run77 -->
    <g transform="translate(205.333125 35.472)scale(0.12 -0.12)">
     <defs>
      <path d="M 3513 3500 
L 2247 1797 
L 3578 0 
L 2900 0 
L 1881 1375 
L 863 0 
L 184 0 
L 1544 1831 
L 300 3500 
L 978 3500 
L 1906 2253 
L 2834 3500 
L 3513 3500 
z
" id="DejaVuSans-78" transform="scale(0.015625)"/>
      <path d="M 313 2009 
L 1997 2009 
L 1997 1497 
L 313 1497 
L 313 2009 
z
" id="DejaVuSans-2d" transform="scale(0.015625)"/>
      <path d="M 2631 2963 
Q 2534 3019 2420 3045 
Q 2306 3072 2169 3072 
Q 1681 3072 1420 2755 
Q 1159 2438 1159 1844 
L 1159 0 
L 581 0 
L 581 3500 
L 1159 3500 
L 1159 2956 
Q 1341 3275 1631 3429 
Q 1922 3584 2338 3584 
Q 2397 3584 2469 3576 
Q 2541 3569 2628 3553 
L 2631 2963 
z
" id="DejaVuSans-72" transform="scale(0.015625)"/>
      <path d="M 544 1381 
L 544 3500 
L 1119 3500 
L 1119 1403 
Q 1119 906 1312 657 
Q 1506 409 1894 409 
Q 2359 409 2629 706 
Q 2900 1003 2900 1516 
L 2900 3500 
L 3475 3500 
L 3475 0 
L 2900 0 
L 2900 538 
Q 2691 219 2414 64 
Q 2138 -91 1772 -91 
Q 1169 -91 856 284 
Q 544 659 544 1381 
z
M 1991 3584 
L 1991 3584 
z
" id="DejaVuSans-75" transform="scale(0.015625)"/>
      <path d="M 525 4666 
L 3525 4666 
L 3525 4397 
L 1831 0 
L 1172 0 
L 2766 4134 
L 525 4134 
L 525 4666 
z
" id="DejaVuSans-37" transform="scale(0.015625)"/>
     </defs>
     <use xlink:href="#DejaVuSans-65"/>
     <use x="59.773438" xlink:href="#DejaVuSans-78"/>
     <use x="118.953125" xlink:href="#DejaVuSans-30"/>
     <use x="182.576172" xlink:href="#DejaVuSans-2d"/>
     <use x="218.660156" xlink:href="#DejaVuSans-72"/>
     <use x="259.773438" xlink:href="#DejaVuSans-75"/>
     <use x="323.152344" xlink:href="#DejaVuSans-6e"/>
     <use x="386.53125" xlink:href="#DejaVuSans-37"/>
     <use x="450.154297" xlink:href="#DejaVuSans-37"/>
    </g>
   </g>
   <g id="legend_1">
    <g id="patch_263">
     <path d="M 64.6 78.82825 
L 184.99375 78.82825 
Q 186.99375 78.82825 186.99375 76.82825 
L 186.99375 48.472 
Q 186.99375 46.472 184.99375 46.472 
L 64.6 46.472 
Q 62.6 46.472 62.6 48.472 
L 62.6 76.82825 
Q 62.6 78.82825 64.6 78.82825 
z
" style="fill:#ffffff;opacity:0.8;stroke:#cccccc;stroke-linejoin:miter;"/>
    </g>
    <g id="patch_264">
     <path d="M 66.6 58.070437 
L 86.6 58.070437 
L 86.6 51.070437 
L 66.6 51.070437 
z
" style="fill:#1f77b4;"/>
    </g>
    <g id="text_15">
     <!--  non-dupe bytes -->
     <g transform="translate(94.6 58.070437)scale(0.1 -0.1)">
      <defs>
       <path d="M 1159 525 
L 1159 -1331 
L 581 -1331 
L 581 3500 
L 1159 3500 
L 1159 2969 
Q 1341 3281 1617 3432 
Q 1894 3584 2278 3584 
Q 2916 3584 3314 3078 
Q 3713 2572 3713 1747 
Q 3713 922 3314 415 
Q 2916 -91 2278 -91 
Q 1894 -91 1617 61 
Q 1341 213 1159 525 
z
M 3116 1747 
Q 3116 2381 2855 2742 
Q 2594 3103 2138 3103 
Q 1681 3103 1420 2742 
Q 1159 2381 1159 1747 
Q 1159 1113 1420 752 
Q 1681 391 2138 391 
Q 2594 391 2855 752 
Q 3116 1113 3116 1747 
z
" id="DejaVuSans-70" transform="scale(0.015625)"/>
       <path d="M 3116 1747 
Q 3116 2381 2855 2742 
Q 2594 3103 2138 3103 
Q 1681 3103 1420 2742 
Q 1159 2381 1159 1747 
Q 1159 1113 1420 752 
Q 1681 391 2138 391 
Q 2594 391 2855 752 
Q 3116 1113 3116 1747 
z
M 1159 2969 
Q 1341 3281 1617 3432 
Q 1894 3584 2278 3584 
Q 2916 3584 3314 3078 
Q 3713 2572 3713 1747 
Q 3713 922 3314 415 
Q 2916 -91 2278 -91 
Q 1894 -91 1617 61 
Q 1341 213 1159 525 
L 1159 0 
L 581 0 
L 581 4863 
L 1159 4863 
L 1159 2969 
z
" id="DejaVuSans-62" transform="scale(0.015625)"/>
      </defs>
      <use xlink:href="#DejaVuSans-20"/>
      <use x="31.787109" xlink:href="#DejaVuSans-6e"/>
      <use x="95.166016" xlink:href="#DejaVuSans-6f"/>
      <use x="156.347656" xlink:href="#DejaVuSans-6e"/>
      <use x="219.726562" xlink:href="#DejaVuSans-2d"/>
      <use x="255.810547" xlink:href="#DejaVuSans-64"/>
      <use x="319.287109" xlink:href="#DejaVuSans-75"/>
      <use x="382.666016" xlink:href="#DejaVuSans-70"/>
      <use x="446.142578" xlink:href="#DejaVuSans-65"/>
      <use x="507.666016" xlink:href="#DejaVuSans-20"/>
      <use x="539.453125" xlink:href="#DejaVuSans-62"/>
      <use x="602.929688" xlink:href="#DejaVuSans-79"/>
      <use x="662.109375" xlink:href="#DejaVuSans-74"/>
      <use x="701.318359" xlink:href="#DejaVuSans-65"/>
      <use x="762.841797" xlink:href="#DejaVuSans-73"/>
     </g>
    </g>
    <g id="patch_265">
     <path d="M 66.6 72.748562 
L 86.6 72.748562 
L 86.6 65.748562 
L 66.6 65.748562 
z
" style="fill:#ff7f0e;"/>
    </g>
    <g id="text_16">
     <!-- total region bytes -->
     <g transform="translate(94.6 72.748562)scale(0.1 -0.1)">
      <defs>
       <path d="M 2906 1791 
Q 2906 2416 2648 2759 
Q 2391 3103 1925 3103 
Q 1463 3103 1205 2759 
Q 947 2416 947 1791 
Q 947 1169 1205 825 
Q 1463 481 1925 481 
Q 2391 481 2648 825 
Q 2906 1169 2906 1791 
z
M 3481 434 
Q 3481 -459 3084 -895 
Q 2688 -1331 1869 -1331 
Q 1566 -1331 1297 -1286 
Q 1028 -1241 775 -1147 
L 775 -588 
Q 1028 -725 1275 -790 
Q 1522 -856 1778 -856 
Q 2344 -856 2625 -561 
Q 2906 -266 2906 331 
L 2906 616 
Q 2728 306 2450 153 
Q 2172 0 1784 0 
Q 1141 0 747 490 
Q 353 981 353 1791 
Q 353 2603 747 3093 
Q 1141 3584 1784 3584 
Q 2172 3584 2450 3431 
Q 2728 3278 2906 2969 
L 2906 3500 
L 3481 3500 
L 3481 434 
z
" id="DejaVuSans-67" transform="scale(0.015625)"/>
      </defs>
      <use xlink:href="#DejaVuSans-74"/>
      <use x="39.208984" xlink:href="#DejaVuSans-6f"/>
      <use x="100.390625" xlink:href="#DejaVuSans-74"/>
      <use x="139.599609" xlink:href="#DejaVuSans-61"/>
      <use x="200.878906" xlink:href="#DejaVuSans-6c"/>
      <use x="228.662109" xlink:href="#DejaVuSans-20"/>
      <use x="260.449219" xlink:href="#DejaVuSans-72"/>
      <use x="299.3125" xlink:href="#DejaVuSans-65"/>
      <use x="360.835938" xlink:href="#DejaVuSans-67"/>
      <use x="424.3125" xlink:href="#DejaVuSans-69"/>
      <use x="452.095703" xlink:href="#DejaVuSans-6f"/>
      <use x="513.277344" xlink:href="#DejaVuSans-6e"/>
      <use x="576.65625" xlink:href="#DejaVuSans-20"/>
      <use x="608.443359" xlink:href="#DejaVuSans-62"/>
      <use x="671.919922" xlink:href="#DejaVuSans-79"/>
      <use x="731.099609" xlink:href="#DejaVuSans-74"/>
      <use x="770.308594" xlink:href="#DejaVuSans-65"/>
      <use x="831.832031" xlink:href="#DejaVuSans-73"/>
     </g>
    </g>
   </g>
  </g>
 </g>
 <defs>
  <clipPath id="pccb40f3a2d">
   <rect height="266.112" width="357.12" x="57.6" y="41.472"/>
  </clipPath>
 </defs>
</svg>
