<?xml version="1.0" encoding="utf-8" standalone="no"?>
<!DOCTYPE svg PUBLIC "-//W3C//DTD SVG 1.1//EN"
  "http://www.w3.org/Graphics/SVG/1.1/DTD/svg11.dtd">
<svg height="345.6pt" version="1.1" viewBox="0 0 460.8 345.6" width="460.8pt" xmlns="http://www.w3.org/2000/svg" xmlns:xlink="http://www.w3.org/1999/xlink">
 <metadata>
  <rdf:RDF xmlns:cc="http://creativecommons.org/ns#" xmlns:dc="http://purl.org/dc/elements/1.1/" xmlns:rdf="http://www.w3.org/1999/02/22-rdf-syntax-ns#">
   <cc:Work>
    <dc:type rdf:resource="http://purl.org/dc/dcmitype/StillImage"/>
    <dc:date>2021-12-02T05:57:51.851825</dc:date>
    <dc:format>image/svg+xml</dc:format>
    <dc:creator>
     <cc:Agent>
      <dc:title>Matplotlib v3.4.3, https://matplotlib.org/</dc:title>
     </cc:Agent>
    </dc:creator>
   </cc:Work>
  </rdf:RDF>
 </metadata>
 <defs>
  <style type="text/css">*{stroke-linecap:butt;stroke-linejoin:round;}</style>
 </defs>
 <g id="figure_1">
  <g id="patch_1">
   <path d="M 0 345.6 
L 460.8 345.6 
L 460.8 0 
L 0 0 
z
" style="fill:#ffffff;"/>
  </g>
  <g id="axes_1">
   <g id="patch_2">
    <path d="M 52.1245 290.135464 
L 450 290.135464 
L 450 26.88 
L 52.1245 26.88 
z
" style="fill:#ffffff;"/>
   </g>
   <g id="matplotlib.axis_1">
    <g id="xtick_1">
     <g id="line2d_1">
      <defs>
       <path d="M 0 0 
L 0 3.5 
" id="m49e97621ac" style="stroke:#000000;stroke-width:0.8;"/>
      </defs>
      <g>
       <use style="stroke:#000000;stroke-width:0.8;" x="67.448643" xlink:href="#m49e97621ac" y="290.135464"/>
      </g>
     </g>
     <g id="text_1">
      <!-- 2011-09-15 -->
      <g transform="translate(16.079191 332.773716)rotate(-30)scale(0.1 -0.1)">
       <defs>
        <path d="M 1228 531 
L 3431 531 
L 3431 0 
L 469 0 
L 469 531 
Q 828 903 1448 1529 
Q 2069 2156 2228 2338 
Q 2531 2678 2651 2914 
Q 2772 3150 2772 3378 
Q 2772 3750 2511 3984 
Q 2250 4219 1831 4219 
Q 1534 4219 1204 4116 
Q 875 4013 500 3803 
L 500 4441 
Q 881 4594 1212 4672 
Q 1544 4750 1819 4750 
Q 2544 4750 2975 4387 
Q 3406 4025 3406 3419 
Q 3406 3131 3298 2873 
Q 3191 2616 2906 2266 
Q 2828 2175 2409 1742 
Q 1991 1309 1228 531 
z
" id="DejaVuSans-32" transform="scale(0.015625)"/>
        <path d="M 2034 4250 
Q 1547 4250 1301 3770 
Q 1056 3291 1056 2328 
Q 1056 1369 1301 889 
Q 1547 409 2034 409 
Q 2525 409 2770 889 
Q 3016 1369 3016 2328 
Q 3016 3291 2770 3770 
Q 2525 4250 2034 4250 
z
M 2034 4750 
Q 2819 4750 3233 4129 
Q 3647 3509 3647 2328 
Q 3647 1150 3233 529 
Q 2819 -91 2034 -91 
Q 1250 -91 836 529 
Q 422 1150 422 2328 
Q 422 3509 836 4129 
Q 1250 4750 2034 4750 
z
" id="DejaVuSans-30" transform="scale(0.015625)"/>
        <path d="M 794 531 
L 1825 531 
L 1825 4091 
L 703 3866 
L 703 4441 
L 1819 4666 
L 2450 4666 
L 2450 531 
L 3481 531 
L 3481 0 
L 794 0 
L 794 531 
z
" id="DejaVuSans-31" transform="scale(0.015625)"/>
        <path d="M 313 2009 
L 1997 2009 
L 1997 1497 
L 313 1497 
L 313 2009 
z
" id="DejaVuSans-2d" transform="scale(0.015625)"/>
        <path d="M 703 97 
L 703 672 
Q 941 559 1184 500 
Q 1428 441 1663 441 
Q 2288 441 2617 861 
Q 2947 1281 2994 2138 
Q 2813 1869 2534 1725 
Q 2256 1581 1919 1581 
Q 1219 1581 811 2004 
Q 403 2428 403 3163 
Q 403 3881 828 4315 
Q 1253 4750 1959 4750 
Q 2769 4750 3195 4129 
Q 3622 3509 3622 2328 
Q 3622 1225 3098 567 
Q 2575 -91 1691 -91 
Q 1453 -91 1209 -44 
Q 966 3 703 97 
z
M 1959 2075 
Q 2384 2075 2632 2365 
Q 2881 2656 2881 3163 
Q 2881 3666 2632 3958 
Q 2384 4250 1959 4250 
Q 1534 4250 1286 3958 
Q 1038 3666 1038 3163 
Q 1038 2656 1286 2365 
Q 1534 2075 1959 2075 
z
" id="DejaVuSans-39" transform="scale(0.015625)"/>
        <path d="M 691 4666 
L 3169 4666 
L 3169 4134 
L 1269 4134 
L 1269 2991 
Q 1406 3038 1543 3061 
Q 1681 3084 1819 3084 
Q 2600 3084 3056 2656 
Q 3513 2228 3513 1497 
Q 3513 744 3044 326 
Q 2575 -91 1722 -91 
Q 1428 -91 1123 -41 
Q 819 9 494 109 
L 494 744 
Q 775 591 1075 516 
Q 1375 441 1709 441 
Q 2250 441 2565 725 
Q 2881 1009 2881 1497 
Q 2881 1984 2565 2268 
Q 2250 2553 1709 2553 
Q 1456 2553 1204 2497 
Q 953 2441 691 2322 
L 691 4666 
z
" id="DejaVuSans-35" transform="scale(0.015625)"/>
       </defs>
       <use xlink:href="#DejaVuSans-32"/>
       <use x="63.623047" xlink:href="#DejaVuSans-30"/>
       <use x="127.246094" xlink:href="#DejaVuSans-31"/>
       <use x="190.869141" xlink:href="#DejaVuSans-31"/>
       <use x="254.492188" xlink:href="#DejaVuSans-2d"/>
       <use x="290.576172" xlink:href="#DejaVuSans-30"/>
       <use x="354.199219" xlink:href="#DejaVuSans-39"/>
       <use x="417.822266" xlink:href="#DejaVuSans-2d"/>
       <use x="453.90625" xlink:href="#DejaVuSans-31"/>
       <use x="517.529297" xlink:href="#DejaVuSans-35"/>
      </g>
     </g>
    </g>
    <g id="xtick_2">
     <g id="line2d_2">
      <g>
       <use style="stroke:#000000;stroke-width:0.8;" x="111.626353" xlink:href="#m49e97621ac" y="290.135464"/>
      </g>
     </g>
     <g id="text_2">
      <!-- 2011-10-01 -->
      <g transform="translate(60.256901 332.773716)rotate(-30)scale(0.1 -0.1)">
       <use xlink:href="#DejaVuSans-32"/>
       <use x="63.623047" xlink:href="#DejaVuSans-30"/>
       <use x="127.246094" xlink:href="#DejaVuSans-31"/>
       <use x="190.869141" xlink:href="#DejaVuSans-31"/>
       <use x="254.492188" xlink:href="#DejaVuSans-2d"/>
       <use x="290.576172" xlink:href="#DejaVuSans-31"/>
       <use x="354.199219" xlink:href="#DejaVuSans-30"/>
       <use x="417.822266" xlink:href="#DejaVuSans-2d"/>
       <use x="453.90625" xlink:href="#DejaVuSans-30"/>
       <use x="517.529297" xlink:href="#DejaVuSans-31"/>
      </g>
     </g>
    </g>
    <g id="xtick_3">
     <g id="line2d_3">
      <g>
       <use style="stroke:#000000;stroke-width:0.8;" x="150.281849" xlink:href="#m49e97621ac" y="290.135464"/>
      </g>
     </g>
     <g id="text_3">
      <!-- 2011-10-15 -->
      <g transform="translate(98.912398 332.773716)rotate(-30)scale(0.1 -0.1)">
       <use xlink:href="#DejaVuSans-32"/>
       <use x="63.623047" xlink:href="#DejaVuSans-30"/>
       <use x="127.246094" xlink:href="#DejaVuSans-31"/>
       <use x="190.869141" xlink:href="#DejaVuSans-31"/>
       <use x="254.492188" xlink:href="#DejaVuSans-2d"/>
       <use x="290.576172" xlink:href="#DejaVuSans-31"/>
       <use x="354.199219" xlink:href="#DejaVuSans-30"/>
       <use x="417.822266" xlink:href="#DejaVuSans-2d"/>
       <use x="453.90625" xlink:href="#DejaVuSans-31"/>
       <use x="517.529297" xlink:href="#DejaVuSans-35"/>
      </g>
     </g>
    </g>
    <g id="xtick_4">
     <g id="line2d_4">
      <g>
       <use style="stroke:#000000;stroke-width:0.8;" x="197.220666" xlink:href="#m49e97621ac" y="290.135464"/>
      </g>
     </g>
     <g id="text_4">
      <!-- 2011-11-01 -->
      <g transform="translate(145.851214 332.773716)rotate(-30)scale(0.1 -0.1)">
       <use xlink:href="#DejaVuSans-32"/>
       <use x="63.623047" xlink:href="#DejaVuSans-30"/>
       <use x="127.246094" xlink:href="#DejaVuSans-31"/>
       <use x="190.869141" xlink:href="#DejaVuSans-31"/>
       <use x="254.492188" xlink:href="#DejaVuSans-2d"/>
       <use x="290.576172" xlink:href="#DejaVuSans-31"/>
       <use x="354.199219" xlink:href="#DejaVuSans-31"/>
       <use x="417.822266" xlink:href="#DejaVuSans-2d"/>
       <use x="453.90625" xlink:href="#DejaVuSans-30"/>
       <use x="517.529297" xlink:href="#DejaVuSans-31"/>
      </g>
     </g>
    </g>
    <g id="xtick_5">
     <g id="line2d_5">
      <g>
       <use style="stroke:#000000;stroke-width:0.8;" x="235.876162" xlink:href="#m49e97621ac" y="290.135464"/>
      </g>
     </g>
     <g id="text_5">
      <!-- 2011-11-15 -->
      <g transform="translate(184.506711 332.773716)rotate(-30)scale(0.1 -0.1)">
       <use xlink:href="#DejaVuSans-32"/>
       <use x="63.623047" xlink:href="#DejaVuSans-30"/>
       <use x="127.246094" xlink:href="#DejaVuSans-31"/>
       <use x="190.869141" xlink:href="#DejaVuSans-31"/>
       <use x="254.492188" xlink:href="#DejaVuSans-2d"/>
       <use x="290.576172" xlink:href="#DejaVuSans-31"/>
       <use x="354.199219" xlink:href="#DejaVuSans-31"/>
       <use x="417.822266" xlink:href="#DejaVuSans-2d"/>
       <use x="453.90625" xlink:href="#DejaVuSans-31"/>
       <use x="517.529297" xlink:href="#DejaVuSans-35"/>
      </g>
     </g>
    </g>
    <g id="xtick_6">
     <g id="line2d_6">
      <g>
       <use style="stroke:#000000;stroke-width:0.8;" x="280.053872" xlink:href="#m49e97621ac" y="290.135464"/>
      </g>
     </g>
     <g id="text_6">
      <!-- 2011-12-01 -->
      <g transform="translate(228.684421 332.773716)rotate(-30)scale(0.1 -0.1)">
       <use xlink:href="#DejaVuSans-32"/>
       <use x="63.623047" xlink:href="#DejaVuSans-30"/>
       <use x="127.246094" xlink:href="#DejaVuSans-31"/>
       <use x="190.869141" xlink:href="#DejaVuSans-31"/>
       <use x="254.492188" xlink:href="#DejaVuSans-2d"/>
       <use x="290.576172" xlink:href="#DejaVuSans-31"/>
       <use x="354.199219" xlink:href="#DejaVuSans-32"/>
       <use x="417.822266" xlink:href="#DejaVuSans-2d"/>
       <use x="453.90625" xlink:href="#DejaVuSans-30"/>
       <use x="517.529297" xlink:href="#DejaVuSans-31"/>
      </g>
     </g>
    </g>
    <g id="xtick_7">
     <g id="line2d_7">
      <g>
       <use style="stroke:#000000;stroke-width:0.8;" x="318.709368" xlink:href="#m49e97621ac" y="290.135464"/>
      </g>
     </g>
     <g id="text_7">
      <!-- 2011-12-15 -->
      <g transform="translate(267.339917 332.773716)rotate(-30)scale(0.1 -0.1)">
       <use xlink:href="#DejaVuSans-32"/>
       <use x="63.623047" xlink:href="#DejaVuSans-30"/>
       <use x="127.246094" xlink:href="#DejaVuSans-31"/>
       <use x="190.869141" xlink:href="#DejaVuSans-31"/>
       <use x="254.492188" xlink:href="#DejaVuSans-2d"/>
       <use x="290.576172" xlink:href="#DejaVuSans-31"/>
       <use x="354.199219" xlink:href="#DejaVuSans-32"/>
       <use x="417.822266" xlink:href="#DejaVuSans-2d"/>
       <use x="453.90625" xlink:href="#DejaVuSans-31"/>
       <use x="517.529297" xlink:href="#DejaVuSans-35"/>
      </g>
     </g>
    </g>
    <g id="xtick_8">
     <g id="line2d_8">
      <g>
       <use style="stroke:#000000;stroke-width:0.8;" x="365.648185" xlink:href="#m49e97621ac" y="290.135464"/>
      </g>
     </g>
     <g id="text_8">
      <!-- 2012-01-01 -->
      <g transform="translate(314.278734 332.773716)rotate(-30)scale(0.1 -0.1)">
       <use xlink:href="#DejaVuSans-32"/>
       <use x="63.623047" xlink:href="#DejaVuSans-30"/>
       <use x="127.246094" xlink:href="#DejaVuSans-31"/>
       <use x="190.869141" xlink:href="#DejaVuSans-32"/>
       <use x="254.492188" xlink:href="#DejaVuSans-2d"/>
       <use x="290.576172" xlink:href="#DejaVuSans-30"/>
       <use x="354.199219" xlink:href="#DejaVuSans-31"/>
       <use x="417.822266" xlink:href="#DejaVuSans-2d"/>
       <use x="453.90625" xlink:href="#DejaVuSans-30"/>
       <use x="517.529297" xlink:href="#DejaVuSans-31"/>
      </g>
     </g>
    </g>
    <g id="xtick_9">
     <g id="line2d_9">
      <g>
       <use style="stroke:#000000;stroke-width:0.8;" x="404.303681" xlink:href="#m49e97621ac" y="290.135464"/>
      </g>
     </g>
     <g id="text_9">
      <!-- 2012-01-15 -->
      <g transform="translate(352.93423 332.773716)rotate(-30)scale(0.1 -0.1)">
       <use xlink:href="#DejaVuSans-32"/>
       <use x="63.623047" xlink:href="#DejaVuSans-30"/>
       <use x="127.246094" xlink:href="#DejaVuSans-31"/>
       <use x="190.869141" xlink:href="#DejaVuSans-32"/>
       <use x="254.492188" xlink:href="#DejaVuSans-2d"/>
       <use x="290.576172" xlink:href="#DejaVuSans-30"/>
       <use x="354.199219" xlink:href="#DejaVuSans-31"/>
       <use x="417.822266" xlink:href="#DejaVuSans-2d"/>
       <use x="453.90625" xlink:href="#DejaVuSans-31"/>
       <use x="517.529297" xlink:href="#DejaVuSans-35"/>
      </g>
     </g>
    </g>
   </g>
   <g id="matplotlib.axis_2">
    <g id="ytick_1">
     <g id="line2d_10">
      <defs>
       <path d="M 0 0 
L -3.5 0 
" id="ma832e5a453" style="stroke:#000000;stroke-width:0.8;"/>
      </defs>
      <g>
       <use style="stroke:#000000;stroke-width:0.8;" x="52.1245" xlink:href="#ma832e5a453" y="272.186228"/>
      </g>
     </g>
     <g id="text_10">
      <!-- 55 -->
      <g transform="translate(32.3995 275.985447)scale(0.1 -0.1)">
       <use xlink:href="#DejaVuSans-35"/>
       <use x="63.623047" xlink:href="#DejaVuSans-35"/>
      </g>
     </g>
    </g>
    <g id="ytick_2">
     <g id="line2d_11">
      <g>
       <use style="stroke:#000000;stroke-width:0.8;" x="52.1245" xlink:href="#ma832e5a453" y="242.270834"/>
      </g>
     </g>
     <g id="text_11">
      <!-- 60 -->
      <g transform="translate(32.3995 246.070053)scale(0.1 -0.1)">
       <defs>
        <path d="M 2113 2584 
Q 1688 2584 1439 2293 
Q 1191 2003 1191 1497 
Q 1191 994 1439 701 
Q 1688 409 2113 409 
Q 2538 409 2786 701 
Q 3034 994 3034 1497 
Q 3034 2003 2786 2293 
Q 2538 2584 2113 2584 
z
M 3366 4563 
L 3366 3988 
Q 3128 4100 2886 4159 
Q 2644 4219 2406 4219 
Q 1781 4219 1451 3797 
Q 1122 3375 1075 2522 
Q 1259 2794 1537 2939 
Q 1816 3084 2150 3084 
Q 2853 3084 3261 2657 
Q 3669 2231 3669 1497 
Q 3669 778 3244 343 
Q 2819 -91 2113 -91 
Q 1303 -91 875 529 
Q 447 1150 447 2328 
Q 447 3434 972 4092 
Q 1497 4750 2381 4750 
Q 2619 4750 2861 4703 
Q 3103 4656 3366 4563 
z
" id="DejaVuSans-36" transform="scale(0.015625)"/>
       </defs>
       <use xlink:href="#DejaVuSans-36"/>
       <use x="63.623047" xlink:href="#DejaVuSans-30"/>
      </g>
     </g>
    </g>
    <g id="ytick_3">
     <g id="line2d_12">
      <g>
       <use style="stroke:#000000;stroke-width:0.8;" x="52.1245" xlink:href="#ma832e5a453" y="212.35544"/>
      </g>
     </g>
     <g id="text_12">
      <!-- 65 -->
      <g transform="translate(32.3995 216.154659)scale(0.1 -0.1)">
       <use xlink:href="#DejaVuSans-36"/>
       <use x="63.623047" xlink:href="#DejaVuSans-35"/>
      </g>
     </g>
    </g>
    <g id="ytick_4">
     <g id="line2d_13">
      <g>
       <use style="stroke:#000000;stroke-width:0.8;" x="52.1245" xlink:href="#ma832e5a453" y="182.440047"/>
      </g>
     </g>
     <g id="text_13">
      <!-- 70 -->
      <g transform="translate(32.3995 186.239266)scale(0.1 -0.1)">
       <defs>
        <path d="M 525 4666 
L 3525 4666 
L 3525 4397 
L 1831 0 
L 1172 0 
L 2766 4134 
L 525 4134 
L 525 4666 
z
" id="DejaVuSans-37" transform="scale(0.015625)"/>
       </defs>
       <use xlink:href="#DejaVuSans-37"/>
       <use x="63.623047" xlink:href="#DejaVuSans-30"/>
      </g>
     </g>
    </g>
    <g id="ytick_5">
     <g id="line2d_14">
      <g>
       <use style="stroke:#000000;stroke-width:0.8;" x="52.1245" xlink:href="#ma832e5a453" y="152.524653"/>
      </g>
     </g>
     <g id="text_14">
      <!-- 75 -->
      <g transform="translate(32.3995 156.323872)scale(0.1 -0.1)">
       <use xlink:href="#DejaVuSans-37"/>
       <use x="63.623047" xlink:href="#DejaVuSans-35"/>
      </g>
     </g>
    </g>
    <g id="ytick_6">
     <g id="line2d_15">
      <g>
       <use style="stroke:#000000;stroke-width:0.8;" x="52.1245" xlink:href="#ma832e5a453" y="122.60926"/>
      </g>
     </g>
     <g id="text_15">
      <!-- 80 -->
      <g transform="translate(32.3995 126.408478)scale(0.1 -0.1)">
       <defs>
        <path d="M 2034 2216 
Q 1584 2216 1326 1975 
Q 1069 1734 1069 1313 
Q 1069 891 1326 650 
Q 1584 409 2034 409 
Q 2484 409 2743 651 
Q 3003 894 3003 1313 
Q 3003 1734 2745 1975 
Q 2488 2216 2034 2216 
z
M 1403 2484 
Q 997 2584 770 2862 
Q 544 3141 544 3541 
Q 544 4100 942 4425 
Q 1341 4750 2034 4750 
Q 2731 4750 3128 4425 
Q 3525 4100 3525 3541 
Q 3525 3141 3298 2862 
Q 3072 2584 2669 2484 
Q 3125 2378 3379 2068 
Q 3634 1759 3634 1313 
Q 3634 634 3220 271 
Q 2806 -91 2034 -91 
Q 1263 -91 848 271 
Q 434 634 434 1313 
Q 434 1759 690 2068 
Q 947 2378 1403 2484 
z
M 1172 3481 
Q 1172 3119 1398 2916 
Q 1625 2713 2034 2713 
Q 2441 2713 2670 2916 
Q 2900 3119 2900 3481 
Q 2900 3844 2670 4047 
Q 2441 4250 2034 4250 
Q 1625 4250 1398 4047 
Q 1172 3844 1172 3481 
z
" id="DejaVuSans-38" transform="scale(0.015625)"/>
       </defs>
       <use xlink:href="#DejaVuSans-38"/>
       <use x="63.623047" xlink:href="#DejaVuSans-30"/>
      </g>
     </g>
    </g>
    <g id="ytick_7">
     <g id="line2d_16">
      <g>
       <use style="stroke:#000000;stroke-width:0.8;" x="52.1245" xlink:href="#ma832e5a453" y="92.693866"/>
      </g>
     </g>
     <g id="text_16">
      <!-- 85 -->
      <g transform="translate(32.3995 96.493085)scale(0.1 -0.1)">
       <use xlink:href="#DejaVuSans-38"/>
       <use x="63.623047" xlink:href="#DejaVuSans-35"/>
      </g>
     </g>
    </g>
    <g id="ytick_8">
     <g id="line2d_17">
      <g>
       <use style="stroke:#000000;stroke-width:0.8;" x="52.1245" xlink:href="#ma832e5a453" y="62.778472"/>
      </g>
     </g>
     <g id="text_17">
      <!-- 90 -->
      <g transform="translate(32.3995 66.577691)scale(0.1 -0.1)">
       <use xlink:href="#DejaVuSans-39"/>
       <use x="63.623047" xlink:href="#DejaVuSans-30"/>
      </g>
     </g>
    </g>
    <g id="ytick_9">
     <g id="line2d_18">
      <g>
       <use style="stroke:#000000;stroke-width:0.8;" x="52.1245" xlink:href="#ma832e5a453" y="32.863079"/>
      </g>
     </g>
     <g id="text_18">
      <!-- 95 -->
      <g transform="translate(32.3995 36.662297)scale(0.1 -0.1)">
       <use xlink:href="#DejaVuSans-39"/>
       <use x="63.623047" xlink:href="#DejaVuSans-35"/>
      </g>
     </g>
    </g>
    <g id="text_19">
     <!-- 4MB Regions per Day -->
     <g transform="translate(26.319812 212.102263)rotate(-90)scale(0.1 -0.1)">
      <defs>
       <path d="M 2419 4116 
L 825 1625 
L 2419 1625 
L 2419 4116 
z
M 2253 4666 
L 3047 4666 
L 3047 1625 
L 3713 1625 
L 3713 1100 
L 3047 1100 
L 3047 0 
L 2419 0 
L 2419 1100 
L 313 1100 
L 313 1709 
L 2253 4666 
z
" id="DejaVuSans-34" transform="scale(0.015625)"/>
       <path d="M 628 4666 
L 1569 4666 
L 2759 1491 
L 3956 4666 
L 4897 4666 
L 4897 0 
L 4281 0 
L 4281 4097 
L 3078 897 
L 2444 897 
L 1241 4097 
L 1241 0 
L 628 0 
L 628 4666 
z
" id="DejaVuSans-4d" transform="scale(0.015625)"/>
       <path d="M 1259 2228 
L 1259 519 
L 2272 519 
Q 2781 519 3026 730 
Q 3272 941 3272 1375 
Q 3272 1813 3026 2020 
Q 2781 2228 2272 2228 
L 1259 2228 
z
M 1259 4147 
L 1259 2741 
L 2194 2741 
Q 2656 2741 2882 2914 
Q 3109 3088 3109 3444 
Q 3109 3797 2882 3972 
Q 2656 4147 2194 4147 
L 1259 4147 
z
M 628 4666 
L 2241 4666 
Q 2963 4666 3353 4366 
Q 3744 4066 3744 3513 
Q 3744 3084 3544 2831 
Q 3344 2578 2956 2516 
Q 3422 2416 3680 2098 
Q 3938 1781 3938 1306 
Q 3938 681 3513 340 
Q 3088 0 2303 0 
L 628 0 
L 628 4666 
z
" id="DejaVuSans-42" transform="scale(0.015625)"/>
       <path id="DejaVuSans-20" transform="scale(0.015625)"/>
       <path d="M 2841 2188 
Q 3044 2119 3236 1894 
Q 3428 1669 3622 1275 
L 4263 0 
L 3584 0 
L 2988 1197 
Q 2756 1666 2539 1819 
Q 2322 1972 1947 1972 
L 1259 1972 
L 1259 0 
L 628 0 
L 628 4666 
L 2053 4666 
Q 2853 4666 3247 4331 
Q 3641 3997 3641 3322 
Q 3641 2881 3436 2590 
Q 3231 2300 2841 2188 
z
M 1259 4147 
L 1259 2491 
L 2053 2491 
Q 2509 2491 2742 2702 
Q 2975 2913 2975 3322 
Q 2975 3731 2742 3939 
Q 2509 4147 2053 4147 
L 1259 4147 
z
" id="DejaVuSans-52" transform="scale(0.015625)"/>
       <path d="M 3597 1894 
L 3597 1613 
L 953 1613 
Q 991 1019 1311 708 
Q 1631 397 2203 397 
Q 2534 397 2845 478 
Q 3156 559 3463 722 
L 3463 178 
Q 3153 47 2828 -22 
Q 2503 -91 2169 -91 
Q 1331 -91 842 396 
Q 353 884 353 1716 
Q 353 2575 817 3079 
Q 1281 3584 2069 3584 
Q 2775 3584 3186 3129 
Q 3597 2675 3597 1894 
z
M 3022 2063 
Q 3016 2534 2758 2815 
Q 2500 3097 2075 3097 
Q 1594 3097 1305 2825 
Q 1016 2553 972 2059 
L 3022 2063 
z
" id="DejaVuSans-65" transform="scale(0.015625)"/>
       <path d="M 2906 1791 
Q 2906 2416 2648 2759 
Q 2391 3103 1925 3103 
Q 1463 3103 1205 2759 
Q 947 2416 947 1791 
Q 947 1169 1205 825 
Q 1463 481 1925 481 
Q 2391 481 2648 825 
Q 2906 1169 2906 1791 
z
M 3481 434 
Q 3481 -459 3084 -895 
Q 2688 -1331 1869 -1331 
Q 1566 -1331 1297 -1286 
Q 1028 -1241 775 -1147 
L 775 -588 
Q 1028 -725 1275 -790 
Q 1522 -856 1778 -856 
Q 2344 -856 2625 -561 
Q 2906 -266 2906 331 
L 2906 616 
Q 2728 306 2450 153 
Q 2172 0 1784 0 
Q 1141 0 747 490 
Q 353 981 353 1791 
Q 353 2603 747 3093 
Q 1141 3584 1784 3584 
Q 2172 3584 2450 3431 
Q 2728 3278 2906 2969 
L 2906 3500 
L 3481 3500 
L 3481 434 
z
" id="DejaVuSans-67" transform="scale(0.015625)"/>
       <path d="M 603 3500 
L 1178 3500 
L 1178 0 
L 603 0 
L 603 3500 
z
M 603 4863 
L 1178 4863 
L 1178 4134 
L 603 4134 
L 603 4863 
z
" id="DejaVuSans-69" transform="scale(0.015625)"/>
       <path d="M 1959 3097 
Q 1497 3097 1228 2736 
Q 959 2375 959 1747 
Q 959 1119 1226 758 
Q 1494 397 1959 397 
Q 2419 397 2687 759 
Q 2956 1122 2956 1747 
Q 2956 2369 2687 2733 
Q 2419 3097 1959 3097 
z
M 1959 3584 
Q 2709 3584 3137 3096 
Q 3566 2609 3566 1747 
Q 3566 888 3137 398 
Q 2709 -91 1959 -91 
Q 1206 -91 779 398 
Q 353 888 353 1747 
Q 353 2609 779 3096 
Q 1206 3584 1959 3584 
z
" id="DejaVuSans-6f" transform="scale(0.015625)"/>
       <path d="M 3513 2113 
L 3513 0 
L 2938 0 
L 2938 2094 
Q 2938 2591 2744 2837 
Q 2550 3084 2163 3084 
Q 1697 3084 1428 2787 
Q 1159 2491 1159 1978 
L 1159 0 
L 581 0 
L 581 3500 
L 1159 3500 
L 1159 2956 
Q 1366 3272 1645 3428 
Q 1925 3584 2291 3584 
Q 2894 3584 3203 3211 
Q 3513 2838 3513 2113 
z
" id="DejaVuSans-6e" transform="scale(0.015625)"/>
       <path d="M 2834 3397 
L 2834 2853 
Q 2591 2978 2328 3040 
Q 2066 3103 1784 3103 
Q 1356 3103 1142 2972 
Q 928 2841 928 2578 
Q 928 2378 1081 2264 
Q 1234 2150 1697 2047 
L 1894 2003 
Q 2506 1872 2764 1633 
Q 3022 1394 3022 966 
Q 3022 478 2636 193 
Q 2250 -91 1575 -91 
Q 1294 -91 989 -36 
Q 684 19 347 128 
L 347 722 
Q 666 556 975 473 
Q 1284 391 1588 391 
Q 1994 391 2212 530 
Q 2431 669 2431 922 
Q 2431 1156 2273 1281 
Q 2116 1406 1581 1522 
L 1381 1569 
Q 847 1681 609 1914 
Q 372 2147 372 2553 
Q 372 3047 722 3315 
Q 1072 3584 1716 3584 
Q 2034 3584 2315 3537 
Q 2597 3491 2834 3397 
z
" id="DejaVuSans-73" transform="scale(0.015625)"/>
       <path d="M 1159 525 
L 1159 -1331 
L 581 -1331 
L 581 3500 
L 1159 3500 
L 1159 2969 
Q 1341 3281 1617 3432 
Q 1894 3584 2278 3584 
Q 2916 3584 3314 3078 
Q 3713 2572 3713 1747 
Q 3713 922 3314 415 
Q 2916 -91 2278 -91 
Q 1894 -91 1617 61 
Q 1341 213 1159 525 
z
M 3116 1747 
Q 3116 2381 2855 2742 
Q 2594 3103 2138 3103 
Q 1681 3103 1420 2742 
Q 1159 2381 1159 1747 
Q 1159 1113 1420 752 
Q 1681 391 2138 391 
Q 2594 391 2855 752 
Q 3116 1113 3116 1747 
z
" id="DejaVuSans-70" transform="scale(0.015625)"/>
       <path d="M 2631 2963 
Q 2534 3019 2420 3045 
Q 2306 3072 2169 3072 
Q 1681 3072 1420 2755 
Q 1159 2438 1159 1844 
L 1159 0 
L 581 0 
L 581 3500 
L 1159 3500 
L 1159 2956 
Q 1341 3275 1631 3429 
Q 1922 3584 2338 3584 
Q 2397 3584 2469 3576 
Q 2541 3569 2628 3553 
L 2631 2963 
z
" id="DejaVuSans-72" transform="scale(0.015625)"/>
       <path d="M 1259 4147 
L 1259 519 
L 2022 519 
Q 2988 519 3436 956 
Q 3884 1394 3884 2338 
Q 3884 3275 3436 3711 
Q 2988 4147 2022 4147 
L 1259 4147 
z
M 628 4666 
L 1925 4666 
Q 3281 4666 3915 4102 
Q 4550 3538 4550 2338 
Q 4550 1131 3912 565 
Q 3275 0 1925 0 
L 628 0 
L 628 4666 
z
" id="DejaVuSans-44" transform="scale(0.015625)"/>
       <path d="M 2194 1759 
Q 1497 1759 1228 1600 
Q 959 1441 959 1056 
Q 959 750 1161 570 
Q 1363 391 1709 391 
Q 2188 391 2477 730 
Q 2766 1069 2766 1631 
L 2766 1759 
L 2194 1759 
z
M 3341 1997 
L 3341 0 
L 2766 0 
L 2766 531 
Q 2569 213 2275 61 
Q 1981 -91 1556 -91 
Q 1019 -91 701 211 
Q 384 513 384 1019 
Q 384 1609 779 1909 
Q 1175 2209 1959 2209 
L 2766 2209 
L 2766 2266 
Q 2766 2663 2505 2880 
Q 2244 3097 1772 3097 
Q 1472 3097 1187 3025 
Q 903 2953 641 2809 
L 641 3341 
Q 956 3463 1253 3523 
Q 1550 3584 1831 3584 
Q 2591 3584 2966 3190 
Q 3341 2797 3341 1997 
z
" id="DejaVuSans-61" transform="scale(0.015625)"/>
       <path d="M 2059 -325 
Q 1816 -950 1584 -1140 
Q 1353 -1331 966 -1331 
L 506 -1331 
L 506 -850 
L 844 -850 
Q 1081 -850 1212 -737 
Q 1344 -625 1503 -206 
L 1606 56 
L 191 3500 
L 800 3500 
L 1894 763 
L 2988 3500 
L 3597 3500 
L 2059 -325 
z
" id="DejaVuSans-79" transform="scale(0.015625)"/>
      </defs>
      <use xlink:href="#DejaVuSans-34"/>
      <use x="63.623047" xlink:href="#DejaVuSans-4d"/>
      <use x="149.902344" xlink:href="#DejaVuSans-42"/>
      <use x="218.505859" xlink:href="#DejaVuSans-20"/>
      <use x="250.292969" xlink:href="#DejaVuSans-52"/>
      <use x="315.275391" xlink:href="#DejaVuSans-65"/>
      <use x="376.798828" xlink:href="#DejaVuSans-67"/>
      <use x="440.275391" xlink:href="#DejaVuSans-69"/>
      <use x="468.058594" xlink:href="#DejaVuSans-6f"/>
      <use x="529.240234" xlink:href="#DejaVuSans-6e"/>
      <use x="592.619141" xlink:href="#DejaVuSans-73"/>
      <use x="644.71875" xlink:href="#DejaVuSans-20"/>
      <use x="676.505859" xlink:href="#DejaVuSans-70"/>
      <use x="739.982422" xlink:href="#DejaVuSans-65"/>
      <use x="801.505859" xlink:href="#DejaVuSans-72"/>
      <use x="842.619141" xlink:href="#DejaVuSans-20"/>
      <use x="874.40625" xlink:href="#DejaVuSans-44"/>
      <use x="951.408203" xlink:href="#DejaVuSans-61"/>
      <use x="1012.6875" xlink:href="#DejaVuSans-79"/>
     </g>
    </g>
   </g>
   <g id="line2d_19">
    <defs>
     <path d="M 0 3 
C 0.795609 3 1.55874 2.683901 2.12132 2.12132 
C 2.683901 1.55874 3 0.795609 3 0 
C 3 -0.795609 2.683901 -1.55874 2.12132 -2.12132 
C 1.55874 -2.683901 0.795609 -3 0 -3 
C -0.795609 -3 -1.55874 -2.683901 -2.12132 -2.12132 
C -2.683901 -1.55874 -3 -0.795609 -3 0 
C -3 0.795609 -2.683901 1.55874 -2.12132 2.12132 
C -1.55874 2.683901 -0.795609 3 0 3 
z
" id="m6414074ae5" style="stroke:#1f77b4;"/>
    </defs>
    <g clip-path="url(#p48ff4d8299)">
     <use style="fill:#1f77b4;stroke:#1f77b4;" x="70.20975" xlink:href="#m6414074ae5" y="278.169306"/>
     <use style="fill:#1f77b4;stroke:#1f77b4;" x="72.970856" xlink:href="#m6414074ae5" y="272.186228"/>
     <use style="fill:#1f77b4;stroke:#1f77b4;" x="75.731963" xlink:href="#m6414074ae5" y="272.186228"/>
     <use style="fill:#1f77b4;stroke:#1f77b4;" x="78.49307" xlink:href="#m6414074ae5" y="272.186228"/>
     <use style="fill:#1f77b4;stroke:#1f77b4;" x="81.254177" xlink:href="#m6414074ae5" y="266.203149"/>
     <use style="fill:#1f77b4;stroke:#1f77b4;" x="84.015284" xlink:href="#m6414074ae5" y="260.22007"/>
     <use style="fill:#1f77b4;stroke:#1f77b4;" x="86.776391" xlink:href="#m6414074ae5" y="266.203149"/>
     <use style="fill:#1f77b4;stroke:#1f77b4;" x="92.298605" xlink:href="#m6414074ae5" y="248.253913"/>
     <use style="fill:#1f77b4;stroke:#1f77b4;" x="95.059711" xlink:href="#m6414074ae5" y="248.253913"/>
     <use style="fill:#1f77b4;stroke:#1f77b4;" x="97.820818" xlink:href="#m6414074ae5" y="248.253913"/>
     <use style="fill:#1f77b4;stroke:#1f77b4;" x="100.581925" xlink:href="#m6414074ae5" y="236.287755"/>
     <use style="fill:#1f77b4;stroke:#1f77b4;" x="103.343032" xlink:href="#m6414074ae5" y="236.287755"/>
     <use style="fill:#1f77b4;stroke:#1f77b4;" x="106.104139" xlink:href="#m6414074ae5" y="236.287755"/>
     <use style="fill:#1f77b4;stroke:#1f77b4;" x="108.865246" xlink:href="#m6414074ae5" y="224.321598"/>
     <use style="fill:#1f77b4;stroke:#1f77b4;" x="111.626353" xlink:href="#m6414074ae5" y="230.304677"/>
     <use style="fill:#1f77b4;stroke:#1f77b4;" x="114.38746" xlink:href="#m6414074ae5" y="230.304677"/>
     <use style="fill:#1f77b4;stroke:#1f77b4;" x="117.148566" xlink:href="#m6414074ae5" y="230.304677"/>
     <use style="fill:#1f77b4;stroke:#1f77b4;" x="119.909673" xlink:href="#m6414074ae5" y="260.22007"/>
     <use style="fill:#1f77b4;stroke:#1f77b4;" x="122.67078" xlink:href="#m6414074ae5" y="242.270834"/>
     <use style="fill:#1f77b4;stroke:#1f77b4;" x="125.431887" xlink:href="#m6414074ae5" y="260.22007"/>
     <use style="fill:#1f77b4;stroke:#1f77b4;" x="128.192994" xlink:href="#m6414074ae5" y="248.253913"/>
     <use style="fill:#1f77b4;stroke:#1f77b4;" x="130.954101" xlink:href="#m6414074ae5" y="248.253913"/>
     <use style="fill:#1f77b4;stroke:#1f77b4;" x="133.715208" xlink:href="#m6414074ae5" y="248.253913"/>
     <use style="fill:#1f77b4;stroke:#1f77b4;" x="136.476315" xlink:href="#m6414074ae5" y="248.253913"/>
     <use style="fill:#1f77b4;stroke:#1f77b4;" x="139.237421" xlink:href="#m6414074ae5" y="242.270834"/>
     <use style="fill:#1f77b4;stroke:#1f77b4;" x="141.998528" xlink:href="#m6414074ae5" y="242.270834"/>
     <use style="fill:#1f77b4;stroke:#1f77b4;" x="144.759635" xlink:href="#m6414074ae5" y="236.287755"/>
     <use style="fill:#1f77b4;stroke:#1f77b4;" x="147.520742" xlink:href="#m6414074ae5" y="254.236992"/>
     <use style="fill:#1f77b4;stroke:#1f77b4;" x="150.281849" xlink:href="#m6414074ae5" y="248.253913"/>
     <use style="fill:#1f77b4;stroke:#1f77b4;" x="153.042956" xlink:href="#m6414074ae5" y="248.253913"/>
     <use style="fill:#1f77b4;stroke:#1f77b4;" x="155.804063" xlink:href="#m6414074ae5" y="248.253913"/>
     <use style="fill:#1f77b4;stroke:#1f77b4;" x="158.56517" xlink:href="#m6414074ae5" y="242.270834"/>
     <use style="fill:#1f77b4;stroke:#1f77b4;" x="161.326276" xlink:href="#m6414074ae5" y="236.287755"/>
     <use style="fill:#1f77b4;stroke:#1f77b4;" x="164.087383" xlink:href="#m6414074ae5" y="230.304677"/>
     <use style="fill:#1f77b4;stroke:#1f77b4;" x="166.84849" xlink:href="#m6414074ae5" y="218.338519"/>
     <use style="fill:#1f77b4;stroke:#1f77b4;" x="169.609597" xlink:href="#m6414074ae5" y="218.338519"/>
     <use style="fill:#1f77b4;stroke:#1f77b4;" x="172.370704" xlink:href="#m6414074ae5" y="218.338519"/>
     <use style="fill:#1f77b4;stroke:#1f77b4;" x="175.131811" xlink:href="#m6414074ae5" y="218.338519"/>
     <use style="fill:#1f77b4;stroke:#1f77b4;" x="177.892918" xlink:href="#m6414074ae5" y="218.338519"/>
     <use style="fill:#1f77b4;stroke:#1f77b4;" x="180.654024" xlink:href="#m6414074ae5" y="218.338519"/>
     <use style="fill:#1f77b4;stroke:#1f77b4;" x="183.415131" xlink:href="#m6414074ae5" y="218.338519"/>
     <use style="fill:#1f77b4;stroke:#1f77b4;" x="186.176238" xlink:href="#m6414074ae5" y="218.338519"/>
     <use style="fill:#1f77b4;stroke:#1f77b4;" x="188.937345" xlink:href="#m6414074ae5" y="218.338519"/>
     <use style="fill:#1f77b4;stroke:#1f77b4;" x="191.698452" xlink:href="#m6414074ae5" y="218.338519"/>
     <use style="fill:#1f77b4;stroke:#1f77b4;" x="194.459559" xlink:href="#m6414074ae5" y="218.338519"/>
     <use style="fill:#1f77b4;stroke:#1f77b4;" x="197.220666" xlink:href="#m6414074ae5" y="218.338519"/>
     <use style="fill:#1f77b4;stroke:#1f77b4;" x="199.981773" xlink:href="#m6414074ae5" y="218.338519"/>
     <use style="fill:#1f77b4;stroke:#1f77b4;" x="202.742879" xlink:href="#m6414074ae5" y="248.253913"/>
     <use style="fill:#1f77b4;stroke:#1f77b4;" x="205.503986" xlink:href="#m6414074ae5" y="242.270834"/>
     <use style="fill:#1f77b4;stroke:#1f77b4;" x="208.265093" xlink:href="#m6414074ae5" y="218.338519"/>
     <use style="fill:#1f77b4;stroke:#1f77b4;" x="211.0262" xlink:href="#m6414074ae5" y="218.338519"/>
     <use style="fill:#1f77b4;stroke:#1f77b4;" x="213.787307" xlink:href="#m6414074ae5" y="218.338519"/>
     <use style="fill:#1f77b4;stroke:#1f77b4;" x="216.548414" xlink:href="#m6414074ae5" y="206.372362"/>
     <use style="fill:#1f77b4;stroke:#1f77b4;" x="219.309521" xlink:href="#m6414074ae5" y="206.372362"/>
     <use style="fill:#1f77b4;stroke:#1f77b4;" x="222.070628" xlink:href="#m6414074ae5" y="236.287755"/>
     <use style="fill:#1f77b4;stroke:#1f77b4;" x="224.831734" xlink:href="#m6414074ae5" y="230.304677"/>
     <use style="fill:#1f77b4;stroke:#1f77b4;" x="227.592841" xlink:href="#m6414074ae5" y="230.304677"/>
     <use style="fill:#1f77b4;stroke:#1f77b4;" x="280.053872" xlink:href="#m6414074ae5" y="158.507732"/>
     <use style="fill:#1f77b4;stroke:#1f77b4;" x="282.814979" xlink:href="#m6414074ae5" y="158.507732"/>
     <use style="fill:#1f77b4;stroke:#1f77b4;" x="285.576086" xlink:href="#m6414074ae5" y="158.507732"/>
     <use style="fill:#1f77b4;stroke:#1f77b4;" x="288.337193" xlink:href="#m6414074ae5" y="158.507732"/>
     <use style="fill:#1f77b4;stroke:#1f77b4;" x="291.098299" xlink:href="#m6414074ae5" y="158.507732"/>
     <use style="fill:#1f77b4;stroke:#1f77b4;" x="293.859406" xlink:href="#m6414074ae5" y="146.541575"/>
     <use style="fill:#1f77b4;stroke:#1f77b4;" x="296.620513" xlink:href="#m6414074ae5" y="146.541575"/>
     <use style="fill:#1f77b4;stroke:#1f77b4;" x="299.38162" xlink:href="#m6414074ae5" y="134.575417"/>
     <use style="fill:#1f77b4;stroke:#1f77b4;" x="302.142727" xlink:href="#m6414074ae5" y="134.575417"/>
     <use style="fill:#1f77b4;stroke:#1f77b4;" x="304.903834" xlink:href="#m6414074ae5" y="134.575417"/>
     <use style="fill:#1f77b4;stroke:#1f77b4;" x="307.664941" xlink:href="#m6414074ae5" y="134.575417"/>
     <use style="fill:#1f77b4;stroke:#1f77b4;" x="310.426048" xlink:href="#m6414074ae5" y="134.575417"/>
     <use style="fill:#1f77b4;stroke:#1f77b4;" x="313.187154" xlink:href="#m6414074ae5" y="134.575417"/>
     <use style="fill:#1f77b4;stroke:#1f77b4;" x="315.948261" xlink:href="#m6414074ae5" y="134.575417"/>
     <use style="fill:#1f77b4;stroke:#1f77b4;" x="318.709368" xlink:href="#m6414074ae5" y="134.575417"/>
     <use style="fill:#1f77b4;stroke:#1f77b4;" x="321.470475" xlink:href="#m6414074ae5" y="134.575417"/>
     <use style="fill:#1f77b4;stroke:#1f77b4;" x="324.231582" xlink:href="#m6414074ae5" y="134.575417"/>
     <use style="fill:#1f77b4;stroke:#1f77b4;" x="326.992689" xlink:href="#m6414074ae5" y="134.575417"/>
     <use style="fill:#1f77b4;stroke:#1f77b4;" x="329.753796" xlink:href="#m6414074ae5" y="134.575417"/>
     <use style="fill:#1f77b4;stroke:#1f77b4;" x="332.514903" xlink:href="#m6414074ae5" y="128.592338"/>
     <use style="fill:#1f77b4;stroke:#1f77b4;" x="335.276009" xlink:href="#m6414074ae5" y="128.592338"/>
     <use style="fill:#1f77b4;stroke:#1f77b4;" x="338.037116" xlink:href="#m6414074ae5" y="122.60926"/>
     <use style="fill:#1f77b4;stroke:#1f77b4;" x="340.798223" xlink:href="#m6414074ae5" y="122.60926"/>
     <use style="fill:#1f77b4;stroke:#1f77b4;" x="343.55933" xlink:href="#m6414074ae5" y="122.60926"/>
     <use style="fill:#1f77b4;stroke:#1f77b4;" x="346.320437" xlink:href="#m6414074ae5" y="122.60926"/>
     <use style="fill:#1f77b4;stroke:#1f77b4;" x="349.081544" xlink:href="#m6414074ae5" y="122.60926"/>
     <use style="fill:#1f77b4;stroke:#1f77b4;" x="357.364864" xlink:href="#m6414074ae5" y="122.60926"/>
     <use style="fill:#1f77b4;stroke:#1f77b4;" x="360.125971" xlink:href="#m6414074ae5" y="122.60926"/>
     <use style="fill:#1f77b4;stroke:#1f77b4;" x="362.887078" xlink:href="#m6414074ae5" y="122.60926"/>
     <use style="fill:#1f77b4;stroke:#1f77b4;" x="365.648185" xlink:href="#m6414074ae5" y="122.60926"/>
     <use style="fill:#1f77b4;stroke:#1f77b4;" x="368.409292" xlink:href="#m6414074ae5" y="122.60926"/>
     <use style="fill:#1f77b4;stroke:#1f77b4;" x="371.170399" xlink:href="#m6414074ae5" y="116.626181"/>
     <use style="fill:#1f77b4;stroke:#1f77b4;" x="373.931506" xlink:href="#m6414074ae5" y="110.643102"/>
     <use style="fill:#1f77b4;stroke:#1f77b4;" x="376.692613" xlink:href="#m6414074ae5" y="104.660023"/>
     <use style="fill:#1f77b4;stroke:#1f77b4;" x="379.453719" xlink:href="#m6414074ae5" y="104.660023"/>
     <use style="fill:#1f77b4;stroke:#1f77b4;" x="382.214826" xlink:href="#m6414074ae5" y="104.660023"/>
     <use style="fill:#1f77b4;stroke:#1f77b4;" x="384.975933" xlink:href="#m6414074ae5" y="104.660023"/>
     <use style="fill:#1f77b4;stroke:#1f77b4;" x="387.73704" xlink:href="#m6414074ae5" y="104.660023"/>
     <use style="fill:#1f77b4;stroke:#1f77b4;" x="390.498147" xlink:href="#m6414074ae5" y="92.693866"/>
     <use style="fill:#1f77b4;stroke:#1f77b4;" x="393.259254" xlink:href="#m6414074ae5" y="86.710787"/>
     <use style="fill:#1f77b4;stroke:#1f77b4;" x="396.020361" xlink:href="#m6414074ae5" y="86.710787"/>
     <use style="fill:#1f77b4;stroke:#1f77b4;" x="398.781467" xlink:href="#m6414074ae5" y="74.74463"/>
     <use style="fill:#1f77b4;stroke:#1f77b4;" x="401.542574" xlink:href="#m6414074ae5" y="74.74463"/>
     <use style="fill:#1f77b4;stroke:#1f77b4;" x="404.303681" xlink:href="#m6414074ae5" y="74.74463"/>
     <use style="fill:#1f77b4;stroke:#1f77b4;" x="409.825895" xlink:href="#m6414074ae5" y="74.74463"/>
     <use style="fill:#1f77b4;stroke:#1f77b4;" x="415.348109" xlink:href="#m6414074ae5" y="56.795394"/>
     <use style="fill:#1f77b4;stroke:#1f77b4;" x="418.109216" xlink:href="#m6414074ae5" y="50.812315"/>
     <use style="fill:#1f77b4;stroke:#1f77b4;" x="420.870322" xlink:href="#m6414074ae5" y="56.795394"/>
     <use style="fill:#1f77b4;stroke:#1f77b4;" x="423.631429" xlink:href="#m6414074ae5" y="56.795394"/>
     <use style="fill:#1f77b4;stroke:#1f77b4;" x="426.392536" xlink:href="#m6414074ae5" y="56.795394"/>
     <use style="fill:#1f77b4;stroke:#1f77b4;" x="429.153643" xlink:href="#m6414074ae5" y="56.795394"/>
     <use style="fill:#1f77b4;stroke:#1f77b4;" x="431.91475" xlink:href="#m6414074ae5" y="38.846157"/>
    </g>
   </g>
   <g id="patch_3">
    <path d="M 52.1245 290.135464 
L 52.1245 26.88 
" style="fill:none;stroke:#000000;stroke-linecap:square;stroke-linejoin:miter;stroke-width:0.8;"/>
   </g>
   <g id="patch_4">
    <path d="M 450 290.135464 
L 450 26.88 
" style="fill:none;stroke:#000000;stroke-linecap:square;stroke-linejoin:miter;stroke-width:0.8;"/>
   </g>
   <g id="patch_5">
    <path d="M 52.1245 290.135464 
L 450 290.135464 
" style="fill:none;stroke:#000000;stroke-linecap:square;stroke-linejoin:miter;stroke-width:0.8;"/>
   </g>
   <g id="patch_6">
    <path d="M 52.1245 26.88 
L 450 26.88 
" style="fill:none;stroke:#000000;stroke-linecap:square;stroke-linejoin:miter;stroke-width:0.8;"/>
   </g>
   <g id="text_20">
    <!-- Total 4MB Regions = 7710 -->
    <g transform="translate(172.347875 20.88)scale(0.12 -0.12)">
     <defs>
      <path d="M -19 4666 
L 3928 4666 
L 3928 4134 
L 2272 4134 
L 2272 0 
L 1638 0 
L 1638 4134 
L -19 4134 
L -19 4666 
z
" id="DejaVuSans-54" transform="scale(0.015625)"/>
      <path d="M 1172 4494 
L 1172 3500 
L 2356 3500 
L 2356 3053 
L 1172 3053 
L 1172 1153 
Q 1172 725 1289 603 
Q 1406 481 1766 481 
L 2356 481 
L 2356 0 
L 1766 0 
Q 1100 0 847 248 
Q 594 497 594 1153 
L 594 3053 
L 172 3053 
L 172 3500 
L 594 3500 
L 594 4494 
L 1172 4494 
z
" id="DejaVuSans-74" transform="scale(0.015625)"/>
      <path d="M 603 4863 
L 1178 4863 
L 1178 0 
L 603 0 
L 603 4863 
z
" id="DejaVuSans-6c" transform="scale(0.015625)"/>
      <path d="M 678 2906 
L 4684 2906 
L 4684 2381 
L 678 2381 
L 678 2906 
z
M 678 1631 
L 4684 1631 
L 4684 1100 
L 678 1100 
L 678 1631 
z
" id="DejaVuSans-3d" transform="scale(0.015625)"/>
     </defs>
     <use xlink:href="#DejaVuSans-54"/>
     <use x="44.083984" xlink:href="#DejaVuSans-6f"/>
     <use x="105.265625" xlink:href="#DejaVuSans-74"/>
     <use x="144.474609" xlink:href="#DejaVuSans-61"/>
     <use x="205.753906" xlink:href="#DejaVuSans-6c"/>
     <use x="233.537109" xlink:href="#DejaVuSans-20"/>
     <use x="265.324219" xlink:href="#DejaVuSans-34"/>
     <use x="328.947266" xlink:href="#DejaVuSans-4d"/>
     <use x="415.226562" xlink:href="#DejaVuSans-42"/>
     <use x="483.830078" xlink:href="#DejaVuSans-20"/>
     <use x="515.617188" xlink:href="#DejaVuSans-52"/>
     <use x="580.599609" xlink:href="#DejaVuSans-65"/>
     <use x="642.123047" xlink:href="#DejaVuSans-67"/>
     <use x="705.599609" xlink:href="#DejaVuSans-69"/>
     <use x="733.382812" xlink:href="#DejaVuSans-6f"/>
     <use x="794.564453" xlink:href="#DejaVuSans-6e"/>
     <use x="857.943359" xlink:href="#DejaVuSans-73"/>
     <use x="910.042969" xlink:href="#DejaVuSans-20"/>
     <use x="941.830078" xlink:href="#DejaVuSans-3d"/>
     <use x="1025.619141" xlink:href="#DejaVuSans-20"/>
     <use x="1057.40625" xlink:href="#DejaVuSans-37"/>
     <use x="1121.029297" xlink:href="#DejaVuSans-37"/>
     <use x="1184.652344" xlink:href="#DejaVuSans-31"/>
     <use x="1248.275391" xlink:href="#DejaVuSans-30"/>
    </g>
   </g>
   <g id="legend_1">
    <g id="patch_7">
     <path d="M 59.1245 49.558125 
L 126.641687 49.558125 
Q 128.641687 49.558125 128.641687 47.558125 
L 128.641687 33.88 
Q 128.641687 31.88 126.641687 31.88 
L 59.1245 31.88 
Q 57.1245 31.88 57.1245 33.88 
L 57.1245 47.558125 
Q 57.1245 49.558125 59.1245 49.558125 
z
" style="fill:#ffffff;opacity:0.8;stroke:#cccccc;stroke-linejoin:miter;"/>
    </g>
    <g id="line2d_20"/>
    <g id="line2d_21">
     <g>
      <use style="fill:#1f77b4;stroke:#1f77b4;" x="71.1245" xlink:href="#m6414074ae5" y="39.978438"/>
     </g>
    </g>
    <g id="text_21">
     <!-- User18 -->
     <g transform="translate(89.1245 43.478438)scale(0.1 -0.1)">
      <defs>
       <path d="M 556 4666 
L 1191 4666 
L 1191 1831 
Q 1191 1081 1462 751 
Q 1734 422 2344 422 
Q 2950 422 3222 751 
Q 3494 1081 3494 1831 
L 3494 4666 
L 4128 4666 
L 4128 1753 
Q 4128 841 3676 375 
Q 3225 -91 2344 -91 
Q 1459 -91 1007 375 
Q 556 841 556 1753 
L 556 4666 
z
" id="DejaVuSans-55" transform="scale(0.015625)"/>
      </defs>
      <use xlink:href="#DejaVuSans-55"/>
      <use x="73.193359" xlink:href="#DejaVuSans-73"/>
      <use x="125.292969" xlink:href="#DejaVuSans-65"/>
      <use x="186.816406" xlink:href="#DejaVuSans-72"/>
      <use x="227.929688" xlink:href="#DejaVuSans-31"/>
      <use x="291.552734" xlink:href="#DejaVuSans-38"/>
     </g>
    </g>
   </g>
  </g>
 </g>
 <defs>
  <clipPath id="p48ff4d8299">
   <rect height="263.255464" width="397.8755" x="52.1245" y="26.88"/>
  </clipPath>
 </defs>
</svg>
