<?xml version="1.0" encoding="utf-8" standalone="no"?>
<!DOCTYPE svg PUBLIC "-//W3C//DTD SVG 1.1//EN"
  "http://www.w3.org/Graphics/SVG/1.1/DTD/svg11.dtd">
<svg height="345.6pt" version="1.1" viewBox="0 0 460.8 345.6" width="460.8pt" xmlns="http://www.w3.org/2000/svg" xmlns:xlink="http://www.w3.org/1999/xlink">
 <metadata>
  <rdf:RDF xmlns:cc="http://creativecommons.org/ns#" xmlns:dc="http://purl.org/dc/elements/1.1/" xmlns:rdf="http://www.w3.org/1999/02/22-rdf-syntax-ns#">
   <cc:Work>
    <dc:type rdf:resource="http://purl.org/dc/dcmitype/StillImage"/>
    <dc:date>2021-12-06T00:30:46.084756</dc:date>
    <dc:format>image/svg+xml</dc:format>
    <dc:creator>
     <cc:Agent>
      <dc:title>Matplotlib v3.4.3, https://matplotlib.org/</dc:title>
     </cc:Agent>
    </dc:creator>
   </cc:Work>
  </rdf:RDF>
 </metadata>
 <defs>
  <style type="text/css">*{stroke-linecap:butt;stroke-linejoin:round;}</style>
 </defs>
 <g id="figure_1">
  <g id="patch_1">
   <path d="M 0 345.6 
L 460.8 345.6 
L 460.8 0 
L 0 0 
z
" style="fill:#ffffff;"/>
  </g>
  <g id="axes_1">
   <g id="patch_2">
    <path d="M 57.6 307.584 
L 414.72 307.584 
L 414.72 41.472 
L 57.6 41.472 
z
" style="fill:#ffffff;"/>
   </g>
   <g id="patch_3">
    <path clip-path="url(#pebd484647e)" d="M 58.331803 307.584 
L 59.79541 307.584 
L 59.79541 304.716318 
L 58.331803 304.716318 
z
" style="fill:#1f77b4;"/>
   </g>
   <g id="patch_4">
    <path clip-path="url(#pebd484647e)" d="M 61.259016 307.584 
L 62.722623 307.584 
L 62.722623 305.555246 
L 61.259016 305.555246 
z
" style="fill:#1f77b4;"/>
   </g>
   <g id="patch_5">
    <path clip-path="url(#pebd484647e)" d="M 64.18623 307.584 
L 65.649836 307.584 
L 65.649836 306.174849 
L 64.18623 306.174849 
z
" style="fill:#1f77b4;"/>
   </g>
   <g id="patch_6">
    <path clip-path="url(#pebd484647e)" d="M 67.113443 307.584 
L 68.577049 307.584 
L 68.577049 306.590731 
L 67.113443 306.590731 
z
" style="fill:#1f77b4;"/>
   </g>
   <g id="patch_7">
    <path clip-path="url(#pebd484647e)" d="M 70.040656 307.584 
L 71.504262 307.584 
L 71.504262 303.064244 
L 70.040656 303.064244 
z
" style="fill:#1f77b4;"/>
   </g>
   <g id="patch_8">
    <path clip-path="url(#pebd484647e)" d="M 72.967869 307.584 
L 74.431475 307.584 
L 74.431475 306.573675 
L 72.967869 306.573675 
z
" style="fill:#1f77b4;"/>
   </g>
   <g id="patch_9">
    <path clip-path="url(#pebd484647e)" d="M 75.895082 307.584 
L 77.358689 307.584 
L 77.358689 303.939009 
L 75.895082 303.939009 
z
" style="fill:#1f77b4;"/>
   </g>
   <g id="patch_10">
    <path clip-path="url(#pebd484647e)" d="M 78.822295 307.584 
L 80.285902 307.584 
L 80.285902 305.981014 
L 78.822295 305.981014 
z
" style="fill:#1f77b4;"/>
   </g>
   <g id="patch_11">
    <path clip-path="url(#pebd484647e)" d="M 81.749508 307.584 
L 83.213115 307.584 
L 83.213115 305.671781 
L 81.749508 305.671781 
z
" style="fill:#1f77b4;"/>
   </g>
   <g id="patch_12">
    <path clip-path="url(#pebd484647e)" d="M 84.676721 307.584 
L 86.140328 307.584 
L 86.140328 304.312694 
L 84.676721 304.312694 
z
" style="fill:#1f77b4;"/>
   </g>
   <g id="patch_13">
    <path clip-path="url(#pebd484647e)" d="M 87.603934 307.584 
L 89.067541 307.584 
L 89.067541 305.97607 
L 87.603934 305.97607 
z
" style="fill:#1f77b4;"/>
   </g>
   <g id="patch_14">
    <path clip-path="url(#pebd484647e)" d="M 90.531148 307.584 
L 91.994754 307.584 
L 91.994754 304.474175 
L 90.531148 304.474175 
z
" style="fill:#1f77b4;"/>
   </g>
   <g id="patch_15">
    <path clip-path="url(#pebd484647e)" d="M 93.458361 307.584 
L 94.921967 307.584 
L 94.921967 307.383771 
L 93.458361 307.383771 
z
" style="fill:#1f77b4;"/>
   </g>
   <g id="patch_16">
    <path clip-path="url(#pebd484647e)" d="M 96.385574 307.584 
L 97.84918 307.584 
L 97.84918 305.283743 
L 96.385574 305.283743 
z
" style="fill:#1f77b4;"/>
   </g>
   <g id="patch_17">
    <path clip-path="url(#pebd484647e)" d="M 99.312787 307.584 
L 100.776393 307.584 
L 100.776393 306.232093 
L 99.312787 306.232093 
z
" style="fill:#1f77b4;"/>
   </g>
   <g id="patch_18">
    <path clip-path="url(#pebd484647e)" d="M 102.24 307.584 
L 103.703607 307.584 
L 103.703607 305.985479 
L 102.24 305.985479 
z
" style="fill:#1f77b4;"/>
   </g>
   <g id="patch_19">
    <path clip-path="url(#pebd484647e)" d="M 105.167213 307.584 
L 106.63082 307.584 
L 106.63082 306.943087 
L 105.167213 306.943087 
z
" style="fill:#1f77b4;"/>
   </g>
   <g id="patch_20">
    <path clip-path="url(#pebd484647e)" d="M 108.094426 307.584 
L 109.558033 307.584 
L 109.558033 307.076321 
L 108.094426 307.076321 
z
" style="fill:#1f77b4;"/>
   </g>
   <g id="patch_21">
    <path clip-path="url(#pebd484647e)" d="M 111.021639 307.584 
L 112.485246 307.584 
L 112.485246 306.499607 
L 111.021639 306.499607 
z
" style="fill:#1f77b4;"/>
   </g>
   <g id="patch_22">
    <path clip-path="url(#pebd484647e)" d="M 113.948852 307.584 
L 115.412459 307.584 
L 115.412459 304.341296 
L 113.948852 304.341296 
z
" style="fill:#1f77b4;"/>
   </g>
   <g id="patch_23">
    <path clip-path="url(#pebd484647e)" d="M 116.876066 307.584 
L 118.339672 307.584 
L 118.339672 306.247761 
L 116.876066 306.247761 
z
" style="fill:#1f77b4;"/>
   </g>
   <g id="patch_24">
    <path clip-path="url(#pebd484647e)" d="M 119.803279 307.584 
L 121.266885 307.584 
L 121.266885 305.912579 
L 119.803279 305.912579 
z
" style="fill:#1f77b4;"/>
   </g>
   <g id="patch_25">
    <path clip-path="url(#pebd484647e)" d="M 122.730492 307.584 
L 124.194098 307.584 
L 124.194098 305.318956 
L 122.730492 305.318956 
z
" style="fill:#1f77b4;"/>
   </g>
   <g id="patch_26">
    <path clip-path="url(#pebd484647e)" d="M 125.657705 307.584 
L 127.121311 307.584 
L 127.121311 307.00104 
L 125.657705 307.00104 
z
" style="fill:#1f77b4;"/>
   </g>
   <g id="patch_27">
    <path clip-path="url(#pebd484647e)" d="M 128.584918 307.584 
L 130.048525 307.584 
L 130.048525 305.814815 
L 128.584918 305.814815 
z
" style="fill:#1f77b4;"/>
   </g>
   <g id="patch_28">
    <path clip-path="url(#pebd484647e)" d="M 131.512131 307.584 
L 132.975738 307.584 
L 132.975738 305.565107 
L 131.512131 305.565107 
z
" style="fill:#1f77b4;"/>
   </g>
   <g id="patch_29">
    <path clip-path="url(#pebd484647e)" d="M 134.439344 307.584 
L 135.902951 307.584 
L 135.902951 304.874921 
L 134.439344 304.874921 
z
" style="fill:#1f77b4;"/>
   </g>
   <g id="patch_30">
    <path clip-path="url(#pebd484647e)" d="M 137.366557 307.584 
L 138.830164 307.584 
L 138.830164 306.837098 
L 137.366557 306.837098 
z
" style="fill:#1f77b4;"/>
   </g>
   <g id="patch_31">
    <path clip-path="url(#pebd484647e)" d="M 140.29377 307.584 
L 141.757377 307.584 
L 141.757377 305.938715 
L 140.29377 305.938715 
z
" style="fill:#1f77b4;"/>
   </g>
   <g id="patch_32">
    <path clip-path="url(#pebd484647e)" d="M 143.220984 307.584 
L 144.68459 307.584 
L 144.68459 306.166672 
L 143.220984 306.166672 
z
" style="fill:#1f77b4;"/>
   </g>
   <g id="patch_33">
    <path clip-path="url(#pebd484647e)" d="M 146.148197 307.584 
L 147.611803 307.584 
L 147.611803 306.963336 
L 146.148197 306.963336 
z
" style="fill:#1f77b4;"/>
   </g>
   <g id="patch_34">
    <path clip-path="url(#pebd484647e)" d="M 149.07541 307.584 
L 150.539016 307.584 
L 150.539016 306.025962 
L 149.07541 306.025962 
z
" style="fill:#1f77b4;"/>
   </g>
   <g id="patch_35">
    <path clip-path="url(#pebd484647e)" d="M 152.002623 307.584 
L 153.46623 307.584 
L 153.46623 305.190201 
L 152.002623 305.190201 
z
" style="fill:#1f77b4;"/>
   </g>
   <g id="patch_36">
    <path clip-path="url(#pebd484647e)" d="M 154.929836 307.584 
L 156.393443 307.584 
L 156.393443 307.125048 
L 154.929836 307.125048 
z
" style="fill:#1f77b4;"/>
   </g>
   <g id="patch_37">
    <path clip-path="url(#pebd484647e)" d="M 157.857049 307.584 
L 159.320656 307.584 
L 159.320656 306.967938 
L 157.857049 306.967938 
z
" style="fill:#1f77b4;"/>
   </g>
   <g id="patch_38">
    <path clip-path="url(#pebd484647e)" d="M 160.784262 307.584 
L 162.247869 307.584 
L 162.247869 306.129981 
L 160.784262 306.129981 
z
" style="fill:#1f77b4;"/>
   </g>
   <g id="patch_39">
    <path clip-path="url(#pebd484647e)" d="M 163.711475 307.584 
L 165.175082 307.584 
L 165.175082 306.479763 
L 163.711475 306.479763 
z
" style="fill:#1f77b4;"/>
   </g>
   <g id="patch_40">
    <path clip-path="url(#pebd484647e)" d="M 166.638689 307.584 
L 168.102295 307.584 
L 168.102295 307.034661 
L 166.638689 307.034661 
z
" style="fill:#1f77b4;"/>
   </g>
   <g id="patch_41">
    <path clip-path="url(#pebd484647e)" d="M 169.565902 307.584 
L 171.029508 307.584 
L 171.029508 306.534218 
L 169.565902 306.534218 
z
" style="fill:#1f77b4;"/>
   </g>
   <g id="patch_42">
    <path clip-path="url(#pebd484647e)" d="M 172.493115 307.584 
L 173.956721 307.584 
L 173.956721 306.302326 
L 172.493115 306.302326 
z
" style="fill:#1f77b4;"/>
   </g>
   <g id="patch_43">
    <path clip-path="url(#pebd484647e)" d="M 175.420328 307.584 
L 176.883934 307.584 
L 176.883934 303.641554 
L 175.420328 303.641554 
z
" style="fill:#1f77b4;"/>
   </g>
   <g id="patch_44">
    <path clip-path="url(#pebd484647e)" d="M 178.347541 307.584 
L 179.811148 307.584 
L 179.811148 306.812246 
L 178.347541 306.812246 
z
" style="fill:#1f77b4;"/>
   </g>
   <g id="patch_45">
    <path clip-path="url(#pebd484647e)" d="M 181.274754 307.584 
L 182.738361 307.584 
L 182.738361 305.965386 
L 181.274754 305.965386 
z
" style="fill:#1f77b4;"/>
   </g>
   <g id="patch_46">
    <path clip-path="url(#pebd484647e)" d="M 184.201967 307.584 
L 185.665574 307.584 
L 185.665574 306.239161 
L 184.201967 306.239161 
z
" style="fill:#1f77b4;"/>
   </g>
   <g id="patch_47">
    <path clip-path="url(#pebd484647e)" d="M 187.12918 307.584 
L 188.592787 307.584 
L 188.592787 302.224694 
L 187.12918 302.224694 
z
" style="fill:#1f77b4;"/>
   </g>
   <g id="patch_48">
    <path clip-path="url(#pebd484647e)" d="M 190.056393 307.584 
L 191.52 307.584 
L 191.52 305.579692 
L 190.056393 305.579692 
z
" style="fill:#1f77b4;"/>
   </g>
   <g id="patch_49">
    <path clip-path="url(#pebd484647e)" d="M 192.983607 307.584 
L 194.447213 307.584 
L 194.447213 298.370502 
L 192.983607 298.370502 
z
" style="fill:#1f77b4;"/>
   </g>
   <g id="patch_50">
    <path clip-path="url(#pebd484647e)" d="M 195.91082 307.584 
L 197.374426 307.584 
L 197.374426 305.338346 
L 195.91082 305.338346 
z
" style="fill:#1f77b4;"/>
   </g>
   <g id="patch_51">
    <path clip-path="url(#pebd484647e)" d="M 198.838033 307.584 
L 200.301639 307.584 
L 200.301639 307.043362 
L 198.838033 307.043362 
z
" style="fill:#1f77b4;"/>
   </g>
   <g id="patch_52">
    <path clip-path="url(#pebd484647e)" d="M 201.765246 307.584 
L 203.228852 307.584 
L 203.228852 306.649626 
L 201.765246 306.649626 
z
" style="fill:#1f77b4;"/>
   </g>
   <g id="patch_53">
    <path clip-path="url(#pebd484647e)" d="M 204.692459 307.584 
L 206.156066 307.584 
L 206.156066 306.453825 
L 204.692459 306.453825 
z
" style="fill:#1f77b4;"/>
   </g>
   <g id="patch_54">
    <path clip-path="url(#pebd484647e)" d="M 207.619672 307.584 
L 209.083279 307.584 
L 209.083279 306.081475 
L 207.619672 306.081475 
z
" style="fill:#1f77b4;"/>
   </g>
   <g id="patch_55">
    <path clip-path="url(#pebd484647e)" d="M 210.546885 307.584 
L 212.010492 307.584 
L 212.010492 306.859147 
L 210.546885 306.859147 
z
" style="fill:#1f77b4;"/>
   </g>
   <g id="patch_56">
    <path clip-path="url(#pebd484647e)" d="M 213.474098 307.584 
L 214.937705 307.584 
L 214.937705 304.749391 
L 213.474098 304.749391 
z
" style="fill:#1f77b4;"/>
   </g>
   <g id="patch_57">
    <path clip-path="url(#pebd484647e)" d="M 216.401311 307.584 
L 217.864918 307.584 
L 217.864918 305.652091 
L 216.401311 305.652091 
z
" style="fill:#1f77b4;"/>
   </g>
   <g id="patch_58">
    <path clip-path="url(#pebd484647e)" d="M 219.328525 307.584 
L 220.792131 307.584 
L 220.792131 306.314758 
L 219.328525 306.314758 
z
" style="fill:#1f77b4;"/>
   </g>
   <g id="patch_59">
    <path clip-path="url(#pebd484647e)" d="M 222.255738 307.584 
L 223.719344 307.584 
L 223.719344 307.065208 
L 222.255738 307.065208 
z
" style="fill:#1f77b4;"/>
   </g>
   <g id="patch_60">
    <path clip-path="url(#pebd484647e)" d="M 225.182951 307.584 
L 226.646557 307.584 
L 226.646557 306.385617 
L 225.182951 306.385617 
z
" style="fill:#1f77b4;"/>
   </g>
   <g id="patch_61">
    <path clip-path="url(#pebd484647e)" d="M 228.110164 307.584 
L 229.57377 307.584 
L 229.57377 307.34984 
L 228.110164 307.34984 
z
" style="fill:#1f77b4;"/>
   </g>
   <g id="patch_62">
    <path clip-path="url(#pebd484647e)" d="M 231.037377 307.584 
L 232.500984 307.584 
L 232.500984 306.153999 
L 231.037377 306.153999 
z
" style="fill:#1f77b4;"/>
   </g>
   <g id="patch_63">
    <path clip-path="url(#pebd484647e)" d="M 233.96459 307.584 
L 235.428197 307.584 
L 235.428197 304.916269 
L 233.96459 304.916269 
z
" style="fill:#1f77b4;"/>
   </g>
   <g id="patch_64">
    <path clip-path="url(#pebd484647e)" d="M 236.891803 307.584 
L 238.35541 307.584 
L 238.35541 306.727747 
L 236.891803 306.727747 
z
" style="fill:#1f77b4;"/>
   </g>
   <g id="patch_65">
    <path clip-path="url(#pebd484647e)" d="M 239.819016 307.584 
L 241.282623 307.584 
L 241.282623 305.996363 
L 239.819016 305.996363 
z
" style="fill:#1f77b4;"/>
   </g>
   <g id="patch_66">
    <path clip-path="url(#pebd484647e)" d="M 242.74623 307.584 
L 244.209836 307.584 
L 244.209836 305.848391 
L 242.74623 305.848391 
z
" style="fill:#1f77b4;"/>
   </g>
   <g id="patch_67">
    <path clip-path="url(#pebd484647e)" d="M 245.673443 307.584 
L 247.137049 307.584 
L 247.137049 307.163452 
L 245.673443 307.163452 
z
" style="fill:#1f77b4;"/>
   </g>
   <g id="patch_68">
    <path clip-path="url(#pebd484647e)" d="M 248.600656 307.584 
L 250.064262 307.584 
L 250.064262 305.039435 
L 248.600656 305.039435 
z
" style="fill:#1f77b4;"/>
   </g>
   <g id="patch_69">
    <path clip-path="url(#pebd484647e)" d="M 251.527869 307.584 
L 252.991475 307.584 
L 252.991475 306.486639 
L 251.527869 306.486639 
z
" style="fill:#1f77b4;"/>
   </g>
   <g id="patch_70">
    <path clip-path="url(#pebd484647e)" d="M 254.455082 307.584 
L 255.918689 307.584 
L 255.918689 306.028711 
L 254.455082 306.028711 
z
" style="fill:#1f77b4;"/>
   </g>
   <g id="patch_71">
    <path clip-path="url(#pebd484647e)" d="M 257.382295 307.584 
L 258.845902 307.584 
L 258.845902 305.739361 
L 257.382295 305.739361 
z
" style="fill:#1f77b4;"/>
   </g>
   <g id="patch_72">
    <path clip-path="url(#pebd484647e)" d="M 260.309508 307.584 
L 261.773115 307.584 
L 261.773115 306.906348 
L 260.309508 306.906348 
z
" style="fill:#1f77b4;"/>
   </g>
   <g id="patch_73">
    <path clip-path="url(#pebd484647e)" d="M 263.236721 307.584 
L 264.700328 307.584 
L 264.700328 306.929387 
L 263.236721 306.929387 
z
" style="fill:#1f77b4;"/>
   </g>
   <g id="patch_74">
    <path clip-path="url(#pebd484647e)" d="M 266.163934 307.584 
L 267.627541 307.584 
L 267.627541 305.628785 
L 266.163934 305.628785 
z
" style="fill:#1f77b4;"/>
   </g>
   <g id="patch_75">
    <path clip-path="url(#pebd484647e)" d="M 269.091148 307.584 
L 270.554754 307.584 
L 270.554754 306.444417 
L 269.091148 306.444417 
z
" style="fill:#1f77b4;"/>
   </g>
   <g id="patch_76">
    <path clip-path="url(#pebd484647e)" d="M 272.018361 307.584 
L 273.481967 307.584 
L 273.481967 304.88624 
L 272.018361 304.88624 
z
" style="fill:#1f77b4;"/>
   </g>
   <g id="patch_77">
    <path clip-path="url(#pebd484647e)" d="M 274.945574 307.584 
L 276.40918 307.584 
L 276.40918 306.53513 
L 274.945574 306.53513 
z
" style="fill:#1f77b4;"/>
   </g>
   <g id="patch_78">
    <path clip-path="url(#pebd484647e)" d="M 277.872787 307.584 
L 279.336393 307.584 
L 279.336393 305.86833 
L 277.872787 305.86833 
z
" style="fill:#1f77b4;"/>
   </g>
   <g id="patch_79">
    <path clip-path="url(#pebd484647e)" d="M 280.8 307.584 
L 282.263607 307.584 
L 282.263607 305.066821 
L 280.8 305.066821 
z
" style="fill:#1f77b4;"/>
   </g>
   <g id="patch_80">
    <path clip-path="url(#pebd484647e)" d="M 283.727213 307.584 
L 285.19082 307.584 
L 285.19082 306.571101 
L 283.727213 306.571101 
z
" style="fill:#1f77b4;"/>
   </g>
   <g id="patch_81">
    <path clip-path="url(#pebd484647e)" d="M 286.654426 307.584 
L 288.118033 307.584 
L 288.118033 305.047792 
L 286.654426 305.047792 
z
" style="fill:#1f77b4;"/>
   </g>
   <g id="patch_82">
    <path clip-path="url(#pebd484647e)" d="M 289.581639 307.584 
L 291.045246 307.584 
L 291.045246 305.74478 
L 289.581639 305.74478 
z
" style="fill:#1f77b4;"/>
   </g>
   <g id="patch_83">
    <path clip-path="url(#pebd484647e)" d="M 292.508852 307.584 
L 293.972459 307.584 
L 293.972459 305.931576 
L 292.508852 305.931576 
z
" style="fill:#1f77b4;"/>
   </g>
   <g id="patch_84">
    <path clip-path="url(#pebd484647e)" d="M 295.436066 307.584 
L 296.899672 307.584 
L 296.899672 305.389827 
L 295.436066 305.389827 
z
" style="fill:#1f77b4;"/>
   </g>
   <g id="patch_85">
    <path clip-path="url(#pebd484647e)" d="M 298.363279 307.584 
L 299.826885 307.584 
L 299.826885 307.098963 
L 298.363279 307.098963 
z
" style="fill:#1f77b4;"/>
   </g>
   <g id="patch_86">
    <path clip-path="url(#pebd484647e)" d="M 301.290492 307.584 
L 302.754098 307.584 
L 302.754098 303.709454 
L 301.290492 303.709454 
z
" style="fill:#1f77b4;"/>
   </g>
   <g id="patch_87">
    <path clip-path="url(#pebd484647e)" d="M 304.217705 307.584 
L 305.681311 307.584 
L 305.681311 304.747355 
L 304.217705 304.747355 
z
" style="fill:#1f77b4;"/>
   </g>
   <g id="patch_88">
    <path clip-path="url(#pebd484647e)" d="M 307.144918 307.584 
L 308.608525 307.584 
L 308.608525 307.137258 
L 307.144918 307.137258 
z
" style="fill:#1f77b4;"/>
   </g>
   <g id="patch_89">
    <path clip-path="url(#pebd484647e)" d="M 310.072131 307.584 
L 311.535738 307.584 
L 311.535738 305.382963 
L 310.072131 305.382963 
z
" style="fill:#1f77b4;"/>
   </g>
   <g id="patch_90">
    <path clip-path="url(#pebd484647e)" d="M 312.999344 307.584 
L 314.462951 307.584 
L 314.462951 305.770895 
L 312.999344 305.770895 
z
" style="fill:#1f77b4;"/>
   </g>
   <g id="patch_91">
    <path clip-path="url(#pebd484647e)" d="M 315.926557 307.584 
L 317.390164 307.584 
L 317.390164 306.590259 
L 315.926557 306.590259 
z
" style="fill:#1f77b4;"/>
   </g>
   <g id="patch_92">
    <path clip-path="url(#pebd484647e)" d="M 318.85377 307.584 
L 320.317377 307.584 
L 320.317377 306.318799 
L 318.85377 306.318799 
z
" style="fill:#1f77b4;"/>
   </g>
   <g id="patch_93">
    <path clip-path="url(#pebd484647e)" d="M 321.780984 307.584 
L 323.24459 307.584 
L 323.24459 306.484119 
L 321.780984 306.484119 
z
" style="fill:#1f77b4;"/>
   </g>
   <g id="patch_94">
    <path clip-path="url(#pebd484647e)" d="M 324.708197 307.584 
L 326.171803 307.584 
L 326.171803 306.718045 
L 324.708197 306.718045 
z
" style="fill:#1f77b4;"/>
   </g>
   <g id="patch_95">
    <path clip-path="url(#pebd484647e)" d="M 327.63541 307.584 
L 329.099016 307.584 
L 329.099016 305.291433 
L 327.63541 305.291433 
z
" style="fill:#1f77b4;"/>
   </g>
   <g id="patch_96">
    <path clip-path="url(#pebd484647e)" d="M 330.562623 307.584 
L 332.02623 307.584 
L 332.02623 305.665572 
L 330.562623 305.665572 
z
" style="fill:#1f77b4;"/>
   </g>
   <g id="patch_97">
    <path clip-path="url(#pebd484647e)" d="M 333.489836 307.584 
L 334.953443 307.584 
L 334.953443 306.025536 
L 333.489836 306.025536 
z
" style="fill:#1f77b4;"/>
   </g>
   <g id="patch_98">
    <path clip-path="url(#pebd484647e)" d="M 336.417049 307.584 
L 337.880656 307.584 
L 337.880656 305.802537 
L 336.417049 305.802537 
z
" style="fill:#1f77b4;"/>
   </g>
   <g id="patch_99">
    <path clip-path="url(#pebd484647e)" d="M 339.344262 307.584 
L 340.807869 307.584 
L 340.807869 304.1143 
L 339.344262 304.1143 
z
" style="fill:#1f77b4;"/>
   </g>
   <g id="patch_100">
    <path clip-path="url(#pebd484647e)" d="M 342.271475 307.584 
L 343.735082 307.584 
L 343.735082 306.44002 
L 342.271475 306.44002 
z
" style="fill:#1f77b4;"/>
   </g>
   <g id="patch_101">
    <path clip-path="url(#pebd484647e)" d="M 345.198689 307.584 
L 346.662295 307.584 
L 346.662295 306.488481 
L 345.198689 306.488481 
z
" style="fill:#1f77b4;"/>
   </g>
   <g id="patch_102">
    <path clip-path="url(#pebd484647e)" d="M 348.125902 307.584 
L 349.589508 307.584 
L 349.589508 306.822478 
L 348.125902 306.822478 
z
" style="fill:#1f77b4;"/>
   </g>
   <g id="patch_103">
    <path clip-path="url(#pebd484647e)" d="M 351.053115 307.584 
L 352.516721 307.584 
L 352.516721 306.410971 
L 351.053115 306.410971 
z
" style="fill:#1f77b4;"/>
   </g>
   <g id="patch_104">
    <path clip-path="url(#pebd484647e)" d="M 353.980328 307.584 
L 355.443934 307.584 
L 355.443934 304.845814 
L 353.980328 304.845814 
z
" style="fill:#1f77b4;"/>
   </g>
   <g id="patch_105">
    <path clip-path="url(#pebd484647e)" d="M 356.907541 307.584 
L 358.371148 307.584 
L 358.371148 304.021625 
L 356.907541 304.021625 
z
" style="fill:#1f77b4;"/>
   </g>
   <g id="patch_106">
    <path clip-path="url(#pebd484647e)" d="M 359.834754 307.584 
L 361.298361 307.584 
L 361.298361 304.619085 
L 359.834754 304.619085 
z
" style="fill:#1f77b4;"/>
   </g>
   <g id="patch_107">
    <path clip-path="url(#pebd484647e)" d="M 362.761967 307.584 
L 364.225574 307.584 
L 364.225574 307.061378 
L 362.761967 307.061378 
z
" style="fill:#1f77b4;"/>
   </g>
   <g id="patch_108">
    <path clip-path="url(#pebd484647e)" d="M 365.68918 307.584 
L 367.152787 307.584 
L 367.152787 305.873511 
L 365.68918 305.873511 
z
" style="fill:#1f77b4;"/>
   </g>
   <g id="patch_109">
    <path clip-path="url(#pebd484647e)" d="M 368.616393 307.584 
L 370.08 307.584 
L 370.08 307.536006 
L 368.616393 307.536006 
z
" style="fill:#1f77b4;"/>
   </g>
   <g id="patch_110">
    <path clip-path="url(#pebd484647e)" d="M 371.543607 307.584 
L 373.007213 307.584 
L 373.007213 306.491657 
L 371.543607 306.491657 
z
" style="fill:#1f77b4;"/>
   </g>
   <g id="patch_111">
    <path clip-path="url(#pebd484647e)" d="M 374.47082 307.584 
L 375.934426 307.584 
L 375.934426 304.484461 
L 374.47082 304.484461 
z
" style="fill:#1f77b4;"/>
   </g>
   <g id="patch_112">
    <path clip-path="url(#pebd484647e)" d="M 377.398033 307.584 
L 378.861639 307.584 
L 378.861639 305.46209 
L 377.398033 305.46209 
z
" style="fill:#1f77b4;"/>
   </g>
   <g id="patch_113">
    <path clip-path="url(#pebd484647e)" d="M 380.325246 307.584 
L 381.788852 307.584 
L 381.788852 305.600369 
L 380.325246 305.600369 
z
" style="fill:#1f77b4;"/>
   </g>
   <g id="patch_114">
    <path clip-path="url(#pebd484647e)" d="M 383.252459 307.584 
L 384.716066 307.584 
L 384.716066 304.84997 
L 383.252459 304.84997 
z
" style="fill:#1f77b4;"/>
   </g>
   <g id="patch_115">
    <path clip-path="url(#pebd484647e)" d="M 386.179672 307.584 
L 387.643279 307.584 
L 387.643279 305.719419 
L 386.179672 305.719419 
z
" style="fill:#1f77b4;"/>
   </g>
   <g id="patch_116">
    <path clip-path="url(#pebd484647e)" d="M 389.106885 307.584 
L 390.570492 307.584 
L 390.570492 305.49154 
L 389.106885 305.49154 
z
" style="fill:#1f77b4;"/>
   </g>
   <g id="patch_117">
    <path clip-path="url(#pebd484647e)" d="M 392.034098 307.584 
L 393.497705 307.584 
L 393.497705 301.737247 
L 392.034098 301.737247 
z
" style="fill:#1f77b4;"/>
   </g>
   <g id="patch_118">
    <path clip-path="url(#pebd484647e)" d="M 394.961311 307.584 
L 396.424918 307.584 
L 396.424918 307.0791 
L 394.961311 307.0791 
z
" style="fill:#1f77b4;"/>
   </g>
   <g id="patch_119">
    <path clip-path="url(#pebd484647e)" d="M 397.888525 307.584 
L 399.352131 307.584 
L 399.352131 306.198232 
L 397.888525 306.198232 
z
" style="fill:#1f77b4;"/>
   </g>
   <g id="patch_120">
    <path clip-path="url(#pebd484647e)" d="M 400.815738 307.584 
L 402.279344 307.584 
L 402.279344 304.981459 
L 400.815738 304.981459 
z
" style="fill:#1f77b4;"/>
   </g>
   <g id="patch_121">
    <path clip-path="url(#pebd484647e)" d="M 403.742951 307.584 
L 405.206557 307.584 
L 405.206557 305.338903 
L 403.742951 305.338903 
z
" style="fill:#1f77b4;"/>
   </g>
   <g id="patch_122">
    <path clip-path="url(#pebd484647e)" d="M 406.670164 307.584 
L 408.13377 307.584 
L 408.13377 301.392117 
L 406.670164 301.392117 
z
" style="fill:#1f77b4;"/>
   </g>
   <g id="patch_123">
    <path clip-path="url(#pebd484647e)" d="M 409.597377 307.584 
L 411.060984 307.584 
L 411.060984 307.052867 
L 409.597377 307.052867 
z
" style="fill:#1f77b4;"/>
   </g>
   <g id="patch_124">
    <path clip-path="url(#pebd484647e)" d="M 412.52459 307.584 
L 413.988197 307.584 
L 413.988197 304.76638 
L 412.52459 304.76638 
z
" style="fill:#1f77b4;"/>
   </g>
   <g id="patch_125">
    <path clip-path="url(#pebd484647e)" d="M 58.331803 304.716318 
L 59.79541 304.716318 
L 59.79541 295.125899 
L 58.331803 295.125899 
z
" style="fill:#ff7f0e;"/>
   </g>
   <g id="patch_126">
    <path clip-path="url(#pebd484647e)" d="M 61.259016 305.555246 
L 62.722623 305.555246 
L 62.722623 303.482264 
L 61.259016 303.482264 
z
" style="fill:#ff7f0e;"/>
   </g>
   <g id="patch_127">
    <path clip-path="url(#pebd484647e)" d="M 64.18623 306.174849 
L 65.649836 306.174849 
L 65.649836 264.793367 
L 64.18623 264.793367 
z
" style="fill:#ff7f0e;"/>
   </g>
   <g id="patch_128">
    <path clip-path="url(#pebd484647e)" d="M 67.113443 306.590731 
L 68.577049 306.590731 
L 68.577049 297.652312 
L 67.113443 297.652312 
z
" style="fill:#ff7f0e;"/>
   </g>
   <g id="patch_129">
    <path clip-path="url(#pebd484647e)" d="M 70.040656 303.064244 
L 71.504262 303.064244 
L 71.504262 196.563631 
L 70.040656 196.563631 
z
" style="fill:#ff7f0e;"/>
   </g>
   <g id="patch_130">
    <path clip-path="url(#pebd484647e)" d="M 72.967869 306.573675 
L 74.431475 306.573675 
L 74.431475 305.958427 
L 72.967869 305.958427 
z
" style="fill:#ff7f0e;"/>
   </g>
   <g id="patch_131">
    <path clip-path="url(#pebd484647e)" d="M 75.895082 303.939009 
L 77.358689 303.939009 
L 77.358689 299.100476 
L 75.895082 299.100476 
z
" style="fill:#ff7f0e;"/>
   </g>
   <g id="patch_132">
    <path clip-path="url(#pebd484647e)" d="M 78.822295 305.981014 
L 80.285902 305.981014 
L 80.285902 300.955022 
L 78.822295 300.955022 
z
" style="fill:#ff7f0e;"/>
   </g>
   <g id="patch_133">
    <path clip-path="url(#pebd484647e)" d="M 81.749508 305.671781 
L 83.213115 305.671781 
L 83.213115 207.21291 
L 81.749508 207.21291 
z
" style="fill:#ff7f0e;"/>
   </g>
   <g id="patch_134">
    <path clip-path="url(#pebd484647e)" d="M 84.676721 304.312694 
L 86.140328 304.312694 
L 86.140328 279.376807 
L 84.676721 279.376807 
z
" style="fill:#ff7f0e;"/>
   </g>
   <g id="patch_135">
    <path clip-path="url(#pebd484647e)" d="M 87.603934 305.97607 
L 89.067541 305.97607 
L 89.067541 302.98004 
L 87.603934 302.98004 
z
" style="fill:#ff7f0e;"/>
   </g>
   <g id="patch_136">
    <path clip-path="url(#pebd484647e)" d="M 90.531148 304.474175 
L 91.994754 304.474175 
L 91.994754 297.136167 
L 90.531148 297.136167 
z
" style="fill:#ff7f0e;"/>
   </g>
   <g id="patch_137">
    <path clip-path="url(#pebd484647e)" d="M 93.458361 307.383771 
L 94.921967 307.383771 
L 94.921967 307.273701 
L 93.458361 307.273701 
z
" style="fill:#ff7f0e;"/>
   </g>
   <g id="patch_138">
    <path clip-path="url(#pebd484647e)" d="M 96.385574 305.283743 
L 97.84918 305.283743 
L 97.84918 298.519508 
L 96.385574 298.519508 
z
" style="fill:#ff7f0e;"/>
   </g>
   <g id="patch_139">
    <path clip-path="url(#pebd484647e)" d="M 99.312787 306.232093 
L 100.776393 306.232093 
L 100.776393 302.916396 
L 99.312787 302.916396 
z
" style="fill:#ff7f0e;"/>
   </g>
   <g id="patch_140">
    <path clip-path="url(#pebd484647e)" d="M 102.24 305.985479 
L 103.703607 305.985479 
L 103.703607 250.254208 
L 102.24 250.254208 
z
" style="fill:#ff7f0e;"/>
   </g>
   <g id="patch_141">
    <path clip-path="url(#pebd484647e)" d="M 105.167213 306.943087 
L 106.63082 306.943087 
L 106.63082 231.418548 
L 105.167213 231.418548 
z
" style="fill:#ff7f0e;"/>
   </g>
   <g id="patch_142">
    <path clip-path="url(#pebd484647e)" d="M 108.094426 307.076321 
L 109.558033 307.076321 
L 109.558033 303.676375 
L 108.094426 303.676375 
z
" style="fill:#ff7f0e;"/>
   </g>
   <g id="patch_143">
    <path clip-path="url(#pebd484647e)" d="M 111.021639 306.499607 
L 112.485246 306.499607 
L 112.485246 303.389575 
L 111.021639 303.389575 
z
" style="fill:#ff7f0e;"/>
   </g>
   <g id="patch_144">
    <path clip-path="url(#pebd484647e)" d="M 113.948852 304.341296 
L 115.412459 304.341296 
L 115.412459 262.746339 
L 113.948852 262.746339 
z
" style="fill:#ff7f0e;"/>
   </g>
   <g id="patch_145">
    <path clip-path="url(#pebd484647e)" d="M 116.876066 306.247761 
L 118.339672 306.247761 
L 118.339672 233.370107 
L 116.876066 233.370107 
z
" style="fill:#ff7f0e;"/>
   </g>
   <g id="patch_146">
    <path clip-path="url(#pebd484647e)" d="M 119.803279 305.912579 
L 121.266885 305.912579 
L 121.266885 300.239205 
L 119.803279 300.239205 
z
" style="fill:#ff7f0e;"/>
   </g>
   <g id="patch_147">
    <path clip-path="url(#pebd484647e)" d="M 122.730492 305.318956 
L 124.194098 305.318956 
L 124.194098 298.212114 
L 122.730492 298.212114 
z
" style="fill:#ff7f0e;"/>
   </g>
   <g id="patch_148">
    <path clip-path="url(#pebd484647e)" d="M 125.657705 307.00104 
L 127.121311 307.00104 
L 127.121311 268.873791 
L 125.657705 268.873791 
z
" style="fill:#ff7f0e;"/>
   </g>
   <g id="patch_149">
    <path clip-path="url(#pebd484647e)" d="M 128.584918 305.814815 
L 130.048525 305.814815 
L 130.048525 299.281959 
L 128.584918 299.281959 
z
" style="fill:#ff7f0e;"/>
   </g>
   <g id="patch_150">
    <path clip-path="url(#pebd484647e)" d="M 131.512131 305.565107 
L 132.975738 305.565107 
L 132.975738 293.423223 
L 131.512131 293.423223 
z
" style="fill:#ff7f0e;"/>
   </g>
   <g id="patch_151">
    <path clip-path="url(#pebd484647e)" d="M 134.439344 304.874921 
L 135.902951 304.874921 
L 135.902951 269.650619 
L 134.439344 269.650619 
z
" style="fill:#ff7f0e;"/>
   </g>
   <g id="patch_152">
    <path clip-path="url(#pebd484647e)" d="M 137.366557 306.837098 
L 138.830164 306.837098 
L 138.830164 306.320309 
L 137.366557 306.320309 
z
" style="fill:#ff7f0e;"/>
   </g>
   <g id="patch_153">
    <path clip-path="url(#pebd484647e)" d="M 140.29377 305.938715 
L 141.757377 305.938715 
L 141.757377 299.085678 
L 140.29377 299.085678 
z
" style="fill:#ff7f0e;"/>
   </g>
   <g id="patch_154">
    <path clip-path="url(#pebd484647e)" d="M 143.220984 306.166672 
L 144.68459 306.166672 
L 144.68459 305.237837 
L 143.220984 305.237837 
z
" style="fill:#ff7f0e;"/>
   </g>
   <g id="patch_155">
    <path clip-path="url(#pebd484647e)" d="M 146.148197 306.963336 
L 147.611803 306.963336 
L 147.611803 306.620483 
L 146.148197 306.620483 
z
" style="fill:#ff7f0e;"/>
   </g>
   <g id="patch_156">
    <path clip-path="url(#pebd484647e)" d="M 149.07541 306.025962 
L 150.539016 306.025962 
L 150.539016 281.308556 
L 149.07541 281.308556 
z
" style="fill:#ff7f0e;"/>
   </g>
   <g id="patch_157">
    <path clip-path="url(#pebd484647e)" d="M 152.002623 305.190201 
L 153.46623 305.190201 
L 153.46623 294.723806 
L 152.002623 294.723806 
z
" style="fill:#ff7f0e;"/>
   </g>
   <g id="patch_158">
    <path clip-path="url(#pebd484647e)" d="M 154.929836 307.125048 
L 156.393443 307.125048 
L 156.393443 306.434826 
L 154.929836 306.434826 
z
" style="fill:#ff7f0e;"/>
   </g>
   <g id="patch_159">
    <path clip-path="url(#pebd484647e)" d="M 157.857049 306.967938 
L 159.320656 306.967938 
L 159.320656 306.496494 
L 157.857049 306.496494 
z
" style="fill:#ff7f0e;"/>
   </g>
   <g id="patch_160">
    <path clip-path="url(#pebd484647e)" d="M 160.784262 306.129981 
L 162.247869 306.129981 
L 162.247869 230.540802 
L 160.784262 230.540802 
z
" style="fill:#ff7f0e;"/>
   </g>
   <g id="patch_161">
    <path clip-path="url(#pebd484647e)" d="M 163.711475 306.479763 
L 165.175082 306.479763 
L 165.175082 304.608538 
L 163.711475 304.608538 
z
" style="fill:#ff7f0e;"/>
   </g>
   <g id="patch_162">
    <path clip-path="url(#pebd484647e)" d="M 166.638689 307.034661 
L 168.102295 307.034661 
L 168.102295 306.702565 
L 166.638689 306.702565 
z
" style="fill:#ff7f0e;"/>
   </g>
   <g id="patch_163">
    <path clip-path="url(#pebd484647e)" d="M 169.565902 306.534218 
L 171.029508 306.534218 
L 171.029508 305.820768 
L 169.565902 305.820768 
z
" style="fill:#ff7f0e;"/>
   </g>
   <g id="patch_164">
    <path clip-path="url(#pebd484647e)" d="M 172.493115 306.302326 
L 173.956721 306.302326 
L 173.956721 278.575586 
L 172.493115 278.575586 
z
" style="fill:#ff7f0e;"/>
   </g>
   <g id="patch_165">
    <path clip-path="url(#pebd484647e)" d="M 175.420328 303.641554 
L 176.883934 303.641554 
L 176.883934 136.194554 
L 175.420328 136.194554 
z
" style="fill:#ff7f0e;"/>
   </g>
   <g id="patch_166">
    <path clip-path="url(#pebd484647e)" d="M 178.347541 306.812246 
L 179.811148 306.812246 
L 179.811148 305.821115 
L 178.347541 305.821115 
z
" style="fill:#ff7f0e;"/>
   </g>
   <g id="patch_167">
    <path clip-path="url(#pebd484647e)" d="M 181.274754 305.965386 
L 182.738361 305.965386 
L 182.738361 304.939022 
L 181.274754 304.939022 
z
" style="fill:#ff7f0e;"/>
   </g>
   <g id="patch_168">
    <path clip-path="url(#pebd484647e)" d="M 184.201967 306.239161 
L 185.665574 306.239161 
L 185.665574 261.885731 
L 184.201967 261.885731 
z
" style="fill:#ff7f0e;"/>
   </g>
   <g id="patch_169">
    <path clip-path="url(#pebd484647e)" d="M 187.12918 302.224694 
L 188.592787 302.224694 
L 188.592787 281.887229 
L 187.12918 281.887229 
z
" style="fill:#ff7f0e;"/>
   </g>
   <g id="patch_170">
    <path clip-path="url(#pebd484647e)" d="M 190.056393 305.579692 
L 191.52 305.579692 
L 191.52 264.324858 
L 190.056393 264.324858 
z
" style="fill:#ff7f0e;"/>
   </g>
   <g id="patch_171">
    <path clip-path="url(#pebd484647e)" d="M 192.983607 298.370502 
L 194.447213 298.370502 
L 194.447213 242.663551 
L 192.983607 242.663551 
z
" style="fill:#ff7f0e;"/>
   </g>
   <g id="patch_172">
    <path clip-path="url(#pebd484647e)" d="M 195.91082 305.338346 
L 197.374426 305.338346 
L 197.374426 274.509549 
L 195.91082 274.509549 
z
" style="fill:#ff7f0e;"/>
   </g>
   <g id="patch_173">
    <path clip-path="url(#pebd484647e)" d="M 198.838033 307.043362 
L 200.301639 307.043362 
L 200.301639 305.820762 
L 198.838033 305.820762 
z
" style="fill:#ff7f0e;"/>
   </g>
   <g id="patch_174">
    <path clip-path="url(#pebd484647e)" d="M 201.765246 306.649626 
L 203.228852 306.649626 
L 203.228852 304.058067 
L 201.765246 304.058067 
z
" style="fill:#ff7f0e;"/>
   </g>
   <g id="patch_175">
    <path clip-path="url(#pebd484647e)" d="M 204.692459 306.453825 
L 206.156066 306.453825 
L 206.156066 300.533096 
L 204.692459 300.533096 
z
" style="fill:#ff7f0e;"/>
   </g>
   <g id="patch_176">
    <path clip-path="url(#pebd484647e)" d="M 207.619672 306.081475 
L 209.083279 306.081475 
L 209.083279 301.415424 
L 207.619672 301.415424 
z
" style="fill:#ff7f0e;"/>
   </g>
   <g id="patch_177">
    <path clip-path="url(#pebd484647e)" d="M 210.546885 306.859147 
L 212.010492 306.859147 
L 212.010492 292.836444 
L 210.546885 292.836444 
z
" style="fill:#ff7f0e;"/>
   </g>
   <g id="patch_178">
    <path clip-path="url(#pebd484647e)" d="M 213.474098 304.749391 
L 214.937705 304.749391 
L 214.937705 272.824342 
L 213.474098 272.824342 
z
" style="fill:#ff7f0e;"/>
   </g>
   <g id="patch_179">
    <path clip-path="url(#pebd484647e)" d="M 216.401311 305.652091 
L 217.864918 305.652091 
L 217.864918 211.542469 
L 216.401311 211.542469 
z
" style="fill:#ff7f0e;"/>
   </g>
   <g id="patch_180">
    <path clip-path="url(#pebd484647e)" d="M 219.328525 306.314758 
L 220.792131 306.314758 
L 220.792131 305.191473 
L 219.328525 305.191473 
z
" style="fill:#ff7f0e;"/>
   </g>
   <g id="patch_181">
    <path clip-path="url(#pebd484647e)" d="M 222.255738 307.065208 
L 223.719344 307.065208 
L 223.719344 306.15367 
L 222.255738 306.15367 
z
" style="fill:#ff7f0e;"/>
   </g>
   <g id="patch_182">
    <path clip-path="url(#pebd484647e)" d="M 225.182951 306.385617 
L 226.646557 306.385617 
L 226.646557 295.9525 
L 225.182951 295.9525 
z
" style="fill:#ff7f0e;"/>
   </g>
   <g id="patch_183">
    <path clip-path="url(#pebd484647e)" d="M 228.110164 307.34984 
L 229.57377 307.34984 
L 229.57377 306.434013 
L 228.110164 306.434013 
z
" style="fill:#ff7f0e;"/>
   </g>
   <g id="patch_184">
    <path clip-path="url(#pebd484647e)" d="M 231.037377 306.153999 
L 232.500984 306.153999 
L 232.500984 206.832444 
L 231.037377 206.832444 
z
" style="fill:#ff7f0e;"/>
   </g>
   <g id="patch_185">
    <path clip-path="url(#pebd484647e)" d="M 233.96459 304.916269 
L 235.428197 304.916269 
L 235.428197 295.212356 
L 233.96459 295.212356 
z
" style="fill:#ff7f0e;"/>
   </g>
   <g id="patch_186">
    <path clip-path="url(#pebd484647e)" d="M 236.891803 306.727747 
L 238.35541 306.727747 
L 238.35541 304.366867 
L 236.891803 304.366867 
z
" style="fill:#ff7f0e;"/>
   </g>
   <g id="patch_187">
    <path clip-path="url(#pebd484647e)" d="M 239.819016 305.996363 
L 241.282623 305.996363 
L 241.282623 297.306608 
L 239.819016 297.306608 
z
" style="fill:#ff7f0e;"/>
   </g>
   <g id="patch_188">
    <path clip-path="url(#pebd484647e)" d="M 242.74623 305.848391 
L 244.209836 305.848391 
L 244.209836 201.958098 
L 242.74623 201.958098 
z
" style="fill:#ff7f0e;"/>
   </g>
   <g id="patch_189">
    <path clip-path="url(#pebd484647e)" d="M 245.673443 307.163452 
L 247.137049 307.163452 
L 247.137049 306.90231 
L 245.673443 306.90231 
z
" style="fill:#ff7f0e;"/>
   </g>
   <g id="patch_190">
    <path clip-path="url(#pebd484647e)" d="M 248.600656 305.039435 
L 250.064262 305.039435 
L 250.064262 288.557001 
L 248.600656 288.557001 
z
" style="fill:#ff7f0e;"/>
   </g>
   <g id="patch_191">
    <path clip-path="url(#pebd484647e)" d="M 251.527869 306.486639 
L 252.991475 306.486639 
L 252.991475 305.381583 
L 251.527869 305.381583 
z
" style="fill:#ff7f0e;"/>
   </g>
   <g id="patch_192">
    <path clip-path="url(#pebd484647e)" d="M 254.455082 306.028711 
L 255.918689 306.028711 
L 255.918689 304.41663 
L 254.455082 304.41663 
z
" style="fill:#ff7f0e;"/>
   </g>
   <g id="patch_193">
    <path clip-path="url(#pebd484647e)" d="M 257.382295 305.739361 
L 258.845902 305.739361 
L 258.845902 297.129196 
L 257.382295 297.129196 
z
" style="fill:#ff7f0e;"/>
   </g>
   <g id="patch_194">
    <path clip-path="url(#pebd484647e)" d="M 260.309508 306.906348 
L 261.773115 306.906348 
L 261.773115 306.082222 
L 260.309508 306.082222 
z
" style="fill:#ff7f0e;"/>
   </g>
   <g id="patch_195">
    <path clip-path="url(#pebd484647e)" d="M 263.236721 306.929387 
L 264.700328 306.929387 
L 264.700328 305.821509 
L 263.236721 305.821509 
z
" style="fill:#ff7f0e;"/>
   </g>
   <g id="patch_196">
    <path clip-path="url(#pebd484647e)" d="M 266.163934 305.628785 
L 267.627541 305.628785 
L 267.627541 299.852078 
L 266.163934 299.852078 
z
" style="fill:#ff7f0e;"/>
   </g>
   <g id="patch_197">
    <path clip-path="url(#pebd484647e)" d="M 269.091148 306.444417 
L 270.554754 306.444417 
L 270.554754 302.790354 
L 269.091148 302.790354 
z
" style="fill:#ff7f0e;"/>
   </g>
   <g id="patch_198">
    <path clip-path="url(#pebd484647e)" d="M 272.018361 304.88624 
L 273.481967 304.88624 
L 273.481967 298.109709 
L 272.018361 298.109709 
z
" style="fill:#ff7f0e;"/>
   </g>
   <g id="patch_199">
    <path clip-path="url(#pebd484647e)" d="M 274.945574 306.53513 
L 276.40918 306.53513 
L 276.40918 166.892659 
L 274.945574 166.892659 
z
" style="fill:#ff7f0e;"/>
   </g>
   <g id="patch_200">
    <path clip-path="url(#pebd484647e)" d="M 277.872787 305.86833 
L 279.336393 305.86833 
L 279.336393 301.099969 
L 277.872787 301.099969 
z
" style="fill:#ff7f0e;"/>
   </g>
   <g id="patch_201">
    <path clip-path="url(#pebd484647e)" d="M 280.8 305.066821 
L 282.263607 305.066821 
L 282.263607 226.109329 
L 280.8 226.109329 
z
" style="fill:#ff7f0e;"/>
   </g>
   <g id="patch_202">
    <path clip-path="url(#pebd484647e)" d="M 283.727213 306.571101 
L 285.19082 306.571101 
L 285.19082 226.316988 
L 283.727213 226.316988 
z
" style="fill:#ff7f0e;"/>
   </g>
   <g id="patch_203">
    <path clip-path="url(#pebd484647e)" d="M 286.654426 305.047792 
L 288.118033 305.047792 
L 288.118033 284.761835 
L 286.654426 284.761835 
z
" style="fill:#ff7f0e;"/>
   </g>
   <g id="patch_204">
    <path clip-path="url(#pebd484647e)" d="M 289.581639 305.74478 
L 291.045246 305.74478 
L 291.045246 302.422936 
L 289.581639 302.422936 
z
" style="fill:#ff7f0e;"/>
   </g>
   <g id="patch_205">
    <path clip-path="url(#pebd484647e)" d="M 292.508852 305.931576 
L 293.972459 305.931576 
L 293.972459 299.525331 
L 292.508852 299.525331 
z
" style="fill:#ff7f0e;"/>
   </g>
   <g id="patch_206">
    <path clip-path="url(#pebd484647e)" d="M 295.436066 305.389827 
L 296.899672 305.389827 
L 296.899672 195.298195 
L 295.436066 195.298195 
z
" style="fill:#ff7f0e;"/>
   </g>
   <g id="patch_207">
    <path clip-path="url(#pebd484647e)" d="M 298.363279 307.098963 
L 299.826885 307.098963 
L 299.826885 305.450711 
L 298.363279 305.450711 
z
" style="fill:#ff7f0e;"/>
   </g>
   <g id="patch_208">
    <path clip-path="url(#pebd484647e)" d="M 301.290492 303.709454 
L 302.754098 303.709454 
L 302.754098 86.955383 
L 301.290492 86.955383 
z
" style="fill:#ff7f0e;"/>
   </g>
   <g id="patch_209">
    <path clip-path="url(#pebd484647e)" d="M 304.217705 304.747355 
L 305.681311 304.747355 
L 305.681311 194.923755 
L 304.217705 194.923755 
z
" style="fill:#ff7f0e;"/>
   </g>
   <g id="patch_210">
    <path clip-path="url(#pebd484647e)" d="M 307.144918 307.137258 
L 308.608525 307.137258 
L 308.608525 306.855779 
L 307.144918 306.855779 
z
" style="fill:#ff7f0e;"/>
   </g>
   <g id="patch_211">
    <path clip-path="url(#pebd484647e)" d="M 310.072131 305.382963 
L 311.535738 305.382963 
L 311.535738 151.05832 
L 310.072131 151.05832 
z
" style="fill:#ff7f0e;"/>
   </g>
   <g id="patch_212">
    <path clip-path="url(#pebd484647e)" d="M 312.999344 305.770895 
L 314.462951 305.770895 
L 314.462951 295.288996 
L 312.999344 295.288996 
z
" style="fill:#ff7f0e;"/>
   </g>
   <g id="patch_213">
    <path clip-path="url(#pebd484647e)" d="M 315.926557 306.590259 
L 317.390164 306.590259 
L 317.390164 304.059517 
L 315.926557 304.059517 
z
" style="fill:#ff7f0e;"/>
   </g>
   <g id="patch_214">
    <path clip-path="url(#pebd484647e)" d="M 318.85377 306.318799 
L 320.317377 306.318799 
L 320.317377 249.214084 
L 318.85377 249.214084 
z
" style="fill:#ff7f0e;"/>
   </g>
   <g id="patch_215">
    <path clip-path="url(#pebd484647e)" d="M 321.780984 306.484119 
L 323.24459 306.484119 
L 323.24459 294.694505 
L 321.780984 294.694505 
z
" style="fill:#ff7f0e;"/>
   </g>
   <g id="patch_216">
    <path clip-path="url(#pebd484647e)" d="M 324.708197 306.718045 
L 326.171803 306.718045 
L 326.171803 241.990873 
L 324.708197 241.990873 
z
" style="fill:#ff7f0e;"/>
   </g>
   <g id="patch_217">
    <path clip-path="url(#pebd484647e)" d="M 327.63541 305.291433 
L 329.099016 305.291433 
L 329.099016 101.390293 
L 327.63541 101.390293 
z
" style="fill:#ff7f0e;"/>
   </g>
   <g id="patch_218">
    <path clip-path="url(#pebd484647e)" d="M 330.562623 305.665572 
L 332.02623 305.665572 
L 332.02623 181.757554 
L 330.562623 181.757554 
z
" style="fill:#ff7f0e;"/>
   </g>
   <g id="patch_219">
    <path clip-path="url(#pebd484647e)" d="M 333.489836 306.025536 
L 334.953443 306.025536 
L 334.953443 296.338808 
L 333.489836 296.338808 
z
" style="fill:#ff7f0e;"/>
   </g>
   <g id="patch_220">
    <path clip-path="url(#pebd484647e)" d="M 336.417049 305.802537 
L 337.880656 305.802537 
L 337.880656 304.337496 
L 336.417049 304.337496 
z
" style="fill:#ff7f0e;"/>
   </g>
   <g id="patch_221">
    <path clip-path="url(#pebd484647e)" d="M 339.344262 304.1143 
L 340.807869 304.1143 
L 340.807869 298.398054 
L 339.344262 298.398054 
z
" style="fill:#ff7f0e;"/>
   </g>
   <g id="patch_222">
    <path clip-path="url(#pebd484647e)" d="M 342.271475 306.44002 
L 343.735082 306.44002 
L 343.735082 41.472 
L 342.271475 41.472 
z
" style="fill:#ff7f0e;"/>
   </g>
   <g id="patch_223">
    <path clip-path="url(#pebd484647e)" d="M 345.198689 306.488481 
L 346.662295 306.488481 
L 346.662295 305.731805 
L 345.198689 305.731805 
z
" style="fill:#ff7f0e;"/>
   </g>
   <g id="patch_224">
    <path clip-path="url(#pebd484647e)" d="M 348.125902 306.822478 
L 349.589508 306.822478 
L 349.589508 305.183689 
L 348.125902 305.183689 
z
" style="fill:#ff7f0e;"/>
   </g>
   <g id="patch_225">
    <path clip-path="url(#pebd484647e)" d="M 351.053115 306.410971 
L 352.516721 306.410971 
L 352.516721 300.350432 
L 351.053115 300.350432 
z
" style="fill:#ff7f0e;"/>
   </g>
   <g id="patch_226">
    <path clip-path="url(#pebd484647e)" d="M 353.980328 304.845814 
L 355.443934 304.845814 
L 355.443934 272.832248 
L 353.980328 272.832248 
z
" style="fill:#ff7f0e;"/>
   </g>
   <g id="patch_227">
    <path clip-path="url(#pebd484647e)" d="M 356.907541 304.021625 
L 358.371148 304.021625 
L 358.371148 213.254358 
L 356.907541 213.254358 
z
" style="fill:#ff7f0e;"/>
   </g>
   <g id="patch_228">
    <path clip-path="url(#pebd484647e)" d="M 359.834754 304.619085 
L 361.298361 304.619085 
L 361.298361 206.674831 
L 359.834754 206.674831 
z
" style="fill:#ff7f0e;"/>
   </g>
   <g id="patch_229">
    <path clip-path="url(#pebd484647e)" d="M 362.761967 307.061378 
L 364.225574 307.061378 
L 364.225574 305.934759 
L 362.761967 305.934759 
z
" style="fill:#ff7f0e;"/>
   </g>
   <g id="patch_230">
    <path clip-path="url(#pebd484647e)" d="M 365.68918 305.873511 
L 367.152787 305.873511 
L 367.152787 208.977769 
L 365.68918 208.977769 
z
" style="fill:#ff7f0e;"/>
   </g>
   <g id="patch_231">
    <path clip-path="url(#pebd484647e)" d="M 368.616393 307.536006 
L 370.08 307.536006 
L 370.08 211.580694 
L 368.616393 211.580694 
z
" style="fill:#ff7f0e;"/>
   </g>
   <g id="patch_232">
    <path clip-path="url(#pebd484647e)" d="M 371.543607 306.491657 
L 373.007213 306.491657 
L 373.007213 255.398513 
L 371.543607 255.398513 
z
" style="fill:#ff7f0e;"/>
   </g>
   <g id="patch_233">
    <path clip-path="url(#pebd484647e)" d="M 374.47082 304.484461 
L 375.934426 304.484461 
L 375.934426 297.096982 
L 374.47082 297.096982 
z
" style="fill:#ff7f0e;"/>
   </g>
   <g id="patch_234">
    <path clip-path="url(#pebd484647e)" d="M 377.398033 305.46209 
L 378.861639 305.46209 
L 378.861639 291.742424 
L 377.398033 291.742424 
z
" style="fill:#ff7f0e;"/>
   </g>
   <g id="patch_235">
    <path clip-path="url(#pebd484647e)" d="M 380.325246 305.600369 
L 381.788852 305.600369 
L 381.788852 255.081121 
L 380.325246 255.081121 
z
" style="fill:#ff7f0e;"/>
   </g>
   <g id="patch_236">
    <path clip-path="url(#pebd484647e)" d="M 383.252459 304.84997 
L 384.716066 304.84997 
L 384.716066 253.753252 
L 383.252459 253.753252 
z
" style="fill:#ff7f0e;"/>
   </g>
   <g id="patch_237">
    <path clip-path="url(#pebd484647e)" d="M 386.179672 305.719419 
L 387.643279 305.719419 
L 387.643279 206.85364 
L 386.179672 206.85364 
z
" style="fill:#ff7f0e;"/>
   </g>
   <g id="patch_238">
    <path clip-path="url(#pebd484647e)" d="M 389.106885 305.49154 
L 390.570492 305.49154 
L 390.570492 226.254763 
L 389.106885 226.254763 
z
" style="fill:#ff7f0e;"/>
   </g>
   <g id="patch_239">
    <path clip-path="url(#pebd484647e)" d="M 392.034098 301.737247 
L 393.497705 301.737247 
L 393.497705 285.579274 
L 392.034098 285.579274 
z
" style="fill:#ff7f0e;"/>
   </g>
   <g id="patch_240">
    <path clip-path="url(#pebd484647e)" d="M 394.961311 307.0791 
L 396.424918 307.0791 
L 396.424918 306.702407 
L 394.961311 306.702407 
z
" style="fill:#ff7f0e;"/>
   </g>
   <g id="patch_241">
    <path clip-path="url(#pebd484647e)" d="M 397.888525 306.198232 
L 399.352131 306.198232 
L 399.352131 188.666843 
L 397.888525 188.666843 
z
" style="fill:#ff7f0e;"/>
   </g>
   <g id="patch_242">
    <path clip-path="url(#pebd484647e)" d="M 400.815738 304.981459 
L 402.279344 304.981459 
L 402.279344 299.111098 
L 400.815738 299.111098 
z
" style="fill:#ff7f0e;"/>
   </g>
   <g id="patch_243">
    <path clip-path="url(#pebd484647e)" d="M 403.742951 305.338903 
L 405.206557 305.338903 
L 405.206557 292.937169 
L 403.742951 292.937169 
z
" style="fill:#ff7f0e;"/>
   </g>
   <g id="patch_244">
    <path clip-path="url(#pebd484647e)" d="M 406.670164 301.392117 
L 408.13377 301.392117 
L 408.13377 276.621478 
L 406.670164 276.621478 
z
" style="fill:#ff7f0e;"/>
   </g>
   <g id="patch_245">
    <path clip-path="url(#pebd484647e)" d="M 409.597377 307.052867 
L 411.060984 307.052867 
L 411.060984 304.938937 
L 409.597377 304.938937 
z
" style="fill:#ff7f0e;"/>
   </g>
   <g id="patch_246">
    <path clip-path="url(#pebd484647e)" d="M 412.52459 304.76638 
L 413.988197 304.76638 
L 413.988197 299.94603 
L 412.52459 299.94603 
z
" style="fill:#ff7f0e;"/>
   </g>
   <g id="matplotlib.axis_1">
    <g id="xtick_1">
     <g id="line2d_1">
      <defs>
       <path d="M 0 0 
L 0 3.5 
" id="mf7e9a674c7" style="stroke:#000000;stroke-width:0.8;"/>
      </defs>
      <g>
       <use style="stroke:#000000;stroke-width:0.8;" x="59.063607" xlink:href="#mf7e9a674c7" y="307.584"/>
      </g>
     </g>
     <g id="text_1">
      <!-- 0 -->
      <g transform="translate(61.822982 320.9465)rotate(-90)scale(0.1 -0.1)">
       <defs>
        <path d="M 2034 4250 
Q 1547 4250 1301 3770 
Q 1056 3291 1056 2328 
Q 1056 1369 1301 889 
Q 1547 409 2034 409 
Q 2525 409 2770 889 
Q 3016 1369 3016 2328 
Q 3016 3291 2770 3770 
Q 2525 4250 2034 4250 
z
M 2034 4750 
Q 2819 4750 3233 4129 
Q 3647 3509 3647 2328 
Q 3647 1150 3233 529 
Q 2819 -91 2034 -91 
Q 1250 -91 836 529 
Q 422 1150 422 2328 
Q 422 3509 836 4129 
Q 1250 4750 2034 4750 
z
" id="DejaVuSans-30" transform="scale(0.015625)"/>
       </defs>
       <use xlink:href="#DejaVuSans-30"/>
      </g>
     </g>
    </g>
    <g id="xtick_2">
     <g id="line2d_2">
      <g>
       <use style="stroke:#000000;stroke-width:0.8;" x="79.554098" xlink:href="#mf7e9a674c7" y="307.584"/>
      </g>
     </g>
     <g id="text_2">
      <!-- 7 -->
      <g transform="translate(82.313473 320.9465)rotate(-90)scale(0.1 -0.1)">
       <defs>
        <path d="M 525 4666 
L 3525 4666 
L 3525 4397 
L 1831 0 
L 1172 0 
L 2766 4134 
L 525 4134 
L 525 4666 
z
" id="DejaVuSans-37" transform="scale(0.015625)"/>
       </defs>
       <use xlink:href="#DejaVuSans-37"/>
      </g>
     </g>
    </g>
    <g id="xtick_3">
     <g id="line2d_3">
      <g>
       <use style="stroke:#000000;stroke-width:0.8;" x="100.04459" xlink:href="#mf7e9a674c7" y="307.584"/>
      </g>
     </g>
     <g id="text_3">
      <!-- 14 -->
      <g transform="translate(102.803965 327.309)rotate(-90)scale(0.1 -0.1)">
       <defs>
        <path d="M 794 531 
L 1825 531 
L 1825 4091 
L 703 3866 
L 703 4441 
L 1819 4666 
L 2450 4666 
L 2450 531 
L 3481 531 
L 3481 0 
L 794 0 
L 794 531 
z
" id="DejaVuSans-31" transform="scale(0.015625)"/>
        <path d="M 2419 4116 
L 825 1625 
L 2419 1625 
L 2419 4116 
z
M 2253 4666 
L 3047 4666 
L 3047 1625 
L 3713 1625 
L 3713 1100 
L 3047 1100 
L 3047 0 
L 2419 0 
L 2419 1100 
L 313 1100 
L 313 1709 
L 2253 4666 
z
" id="DejaVuSans-34" transform="scale(0.015625)"/>
       </defs>
       <use xlink:href="#DejaVuSans-31"/>
       <use x="63.623047" xlink:href="#DejaVuSans-34"/>
      </g>
     </g>
    </g>
    <g id="xtick_4">
     <g id="line2d_4">
      <g>
       <use style="stroke:#000000;stroke-width:0.8;" x="120.535082" xlink:href="#mf7e9a674c7" y="307.584"/>
      </g>
     </g>
     <g id="text_4">
      <!-- 21 -->
      <g transform="translate(123.294457 327.309)rotate(-90)scale(0.1 -0.1)">
       <defs>
        <path d="M 1228 531 
L 3431 531 
L 3431 0 
L 469 0 
L 469 531 
Q 828 903 1448 1529 
Q 2069 2156 2228 2338 
Q 2531 2678 2651 2914 
Q 2772 3150 2772 3378 
Q 2772 3750 2511 3984 
Q 2250 4219 1831 4219 
Q 1534 4219 1204 4116 
Q 875 4013 500 3803 
L 500 4441 
Q 881 4594 1212 4672 
Q 1544 4750 1819 4750 
Q 2544 4750 2975 4387 
Q 3406 4025 3406 3419 
Q 3406 3131 3298 2873 
Q 3191 2616 2906 2266 
Q 2828 2175 2409 1742 
Q 1991 1309 1228 531 
z
" id="DejaVuSans-32" transform="scale(0.015625)"/>
       </defs>
       <use xlink:href="#DejaVuSans-32"/>
       <use x="63.623047" xlink:href="#DejaVuSans-31"/>
      </g>
     </g>
    </g>
    <g id="xtick_5">
     <g id="line2d_5">
      <g>
       <use style="stroke:#000000;stroke-width:0.8;" x="141.025574" xlink:href="#mf7e9a674c7" y="307.584"/>
      </g>
     </g>
     <g id="text_5">
      <!-- 28 -->
      <g transform="translate(143.784949 327.309)rotate(-90)scale(0.1 -0.1)">
       <defs>
        <path d="M 2034 2216 
Q 1584 2216 1326 1975 
Q 1069 1734 1069 1313 
Q 1069 891 1326 650 
Q 1584 409 2034 409 
Q 2484 409 2743 651 
Q 3003 894 3003 1313 
Q 3003 1734 2745 1975 
Q 2488 2216 2034 2216 
z
M 1403 2484 
Q 997 2584 770 2862 
Q 544 3141 544 3541 
Q 544 4100 942 4425 
Q 1341 4750 2034 4750 
Q 2731 4750 3128 4425 
Q 3525 4100 3525 3541 
Q 3525 3141 3298 2862 
Q 3072 2584 2669 2484 
Q 3125 2378 3379 2068 
Q 3634 1759 3634 1313 
Q 3634 634 3220 271 
Q 2806 -91 2034 -91 
Q 1263 -91 848 271 
Q 434 634 434 1313 
Q 434 1759 690 2068 
Q 947 2378 1403 2484 
z
M 1172 3481 
Q 1172 3119 1398 2916 
Q 1625 2713 2034 2713 
Q 2441 2713 2670 2916 
Q 2900 3119 2900 3481 
Q 2900 3844 2670 4047 
Q 2441 4250 2034 4250 
Q 1625 4250 1398 4047 
Q 1172 3844 1172 3481 
z
" id="DejaVuSans-38" transform="scale(0.015625)"/>
       </defs>
       <use xlink:href="#DejaVuSans-32"/>
       <use x="63.623047" xlink:href="#DejaVuSans-38"/>
      </g>
     </g>
    </g>
    <g id="xtick_6">
     <g id="line2d_6">
      <g>
       <use style="stroke:#000000;stroke-width:0.8;" x="161.516066" xlink:href="#mf7e9a674c7" y="307.584"/>
      </g>
     </g>
     <g id="text_6">
      <!-- 36 -->
      <g transform="translate(164.275441 327.309)rotate(-90)scale(0.1 -0.1)">
       <defs>
        <path d="M 2597 2516 
Q 3050 2419 3304 2112 
Q 3559 1806 3559 1356 
Q 3559 666 3084 287 
Q 2609 -91 1734 -91 
Q 1441 -91 1130 -33 
Q 819 25 488 141 
L 488 750 
Q 750 597 1062 519 
Q 1375 441 1716 441 
Q 2309 441 2620 675 
Q 2931 909 2931 1356 
Q 2931 1769 2642 2001 
Q 2353 2234 1838 2234 
L 1294 2234 
L 1294 2753 
L 1863 2753 
Q 2328 2753 2575 2939 
Q 2822 3125 2822 3475 
Q 2822 3834 2567 4026 
Q 2313 4219 1838 4219 
Q 1578 4219 1281 4162 
Q 984 4106 628 3988 
L 628 4550 
Q 988 4650 1302 4700 
Q 1616 4750 1894 4750 
Q 2613 4750 3031 4423 
Q 3450 4097 3450 3541 
Q 3450 3153 3228 2886 
Q 3006 2619 2597 2516 
z
" id="DejaVuSans-33" transform="scale(0.015625)"/>
        <path d="M 2113 2584 
Q 1688 2584 1439 2293 
Q 1191 2003 1191 1497 
Q 1191 994 1439 701 
Q 1688 409 2113 409 
Q 2538 409 2786 701 
Q 3034 994 3034 1497 
Q 3034 2003 2786 2293 
Q 2538 2584 2113 2584 
z
M 3366 4563 
L 3366 3988 
Q 3128 4100 2886 4159 
Q 2644 4219 2406 4219 
Q 1781 4219 1451 3797 
Q 1122 3375 1075 2522 
Q 1259 2794 1537 2939 
Q 1816 3084 2150 3084 
Q 2853 3084 3261 2657 
Q 3669 2231 3669 1497 
Q 3669 778 3244 343 
Q 2819 -91 2113 -91 
Q 1303 -91 875 529 
Q 447 1150 447 2328 
Q 447 3434 972 4092 
Q 1497 4750 2381 4750 
Q 2619 4750 2861 4703 
Q 3103 4656 3366 4563 
z
" id="DejaVuSans-36" transform="scale(0.015625)"/>
       </defs>
       <use xlink:href="#DejaVuSans-33"/>
       <use x="63.623047" xlink:href="#DejaVuSans-36"/>
      </g>
     </g>
    </g>
    <g id="xtick_7">
     <g id="line2d_7">
      <g>
       <use style="stroke:#000000;stroke-width:0.8;" x="182.006557" xlink:href="#mf7e9a674c7" y="307.584"/>
      </g>
     </g>
     <g id="text_7">
      <!-- 44 -->
      <g transform="translate(184.765932 327.309)rotate(-90)scale(0.1 -0.1)">
       <use xlink:href="#DejaVuSans-34"/>
       <use x="63.623047" xlink:href="#DejaVuSans-34"/>
      </g>
     </g>
    </g>
    <g id="xtick_8">
     <g id="line2d_8">
      <g>
       <use style="stroke:#000000;stroke-width:0.8;" x="202.497049" xlink:href="#mf7e9a674c7" y="307.584"/>
      </g>
     </g>
     <g id="text_8">
      <!-- 52 -->
      <g transform="translate(205.256424 327.309)rotate(-90)scale(0.1 -0.1)">
       <defs>
        <path d="M 691 4666 
L 3169 4666 
L 3169 4134 
L 1269 4134 
L 1269 2991 
Q 1406 3038 1543 3061 
Q 1681 3084 1819 3084 
Q 2600 3084 3056 2656 
Q 3513 2228 3513 1497 
Q 3513 744 3044 326 
Q 2575 -91 1722 -91 
Q 1428 -91 1123 -41 
Q 819 9 494 109 
L 494 744 
Q 775 591 1075 516 
Q 1375 441 1709 441 
Q 2250 441 2565 725 
Q 2881 1009 2881 1497 
Q 2881 1984 2565 2268 
Q 2250 2553 1709 2553 
Q 1456 2553 1204 2497 
Q 953 2441 691 2322 
L 691 4666 
z
" id="DejaVuSans-35" transform="scale(0.015625)"/>
       </defs>
       <use xlink:href="#DejaVuSans-35"/>
       <use x="63.623047" xlink:href="#DejaVuSans-32"/>
      </g>
     </g>
    </g>
    <g id="xtick_9">
     <g id="line2d_9">
      <g>
       <use style="stroke:#000000;stroke-width:0.8;" x="222.987541" xlink:href="#mf7e9a674c7" y="307.584"/>
      </g>
     </g>
     <g id="text_9">
      <!-- 60 -->
      <g transform="translate(225.746916 327.309)rotate(-90)scale(0.1 -0.1)">
       <use xlink:href="#DejaVuSans-36"/>
       <use x="63.623047" xlink:href="#DejaVuSans-30"/>
      </g>
     </g>
    </g>
    <g id="xtick_10">
     <g id="line2d_10">
      <g>
       <use style="stroke:#000000;stroke-width:0.8;" x="243.478033" xlink:href="#mf7e9a674c7" y="307.584"/>
      </g>
     </g>
     <g id="text_10">
      <!-- 67 -->
      <g transform="translate(246.237408 327.309)rotate(-90)scale(0.1 -0.1)">
       <use xlink:href="#DejaVuSans-36"/>
       <use x="63.623047" xlink:href="#DejaVuSans-37"/>
      </g>
     </g>
    </g>
    <g id="xtick_11">
     <g id="line2d_11">
      <g>
       <use style="stroke:#000000;stroke-width:0.8;" x="263.968525" xlink:href="#mf7e9a674c7" y="307.584"/>
      </g>
     </g>
     <g id="text_11">
      <!-- 74 -->
      <g transform="translate(266.7279 327.309)rotate(-90)scale(0.1 -0.1)">
       <use xlink:href="#DejaVuSans-37"/>
       <use x="63.623047" xlink:href="#DejaVuSans-34"/>
      </g>
     </g>
    </g>
    <g id="xtick_12">
     <g id="line2d_12">
      <g>
       <use style="stroke:#000000;stroke-width:0.8;" x="284.459016" xlink:href="#mf7e9a674c7" y="307.584"/>
      </g>
     </g>
     <g id="text_12">
      <!-- 82 -->
      <g transform="translate(287.218391 327.309)rotate(-90)scale(0.1 -0.1)">
       <use xlink:href="#DejaVuSans-38"/>
       <use x="63.623047" xlink:href="#DejaVuSans-32"/>
      </g>
     </g>
    </g>
    <g id="xtick_13">
     <g id="line2d_13">
      <g>
       <use style="stroke:#000000;stroke-width:0.8;" x="304.949508" xlink:href="#mf7e9a674c7" y="307.584"/>
      </g>
     </g>
     <g id="text_13">
      <!-- 89 -->
      <g transform="translate(307.708883 327.309)rotate(-90)scale(0.1 -0.1)">
       <defs>
        <path d="M 703 97 
L 703 672 
Q 941 559 1184 500 
Q 1428 441 1663 441 
Q 2288 441 2617 861 
Q 2947 1281 2994 2138 
Q 2813 1869 2534 1725 
Q 2256 1581 1919 1581 
Q 1219 1581 811 2004 
Q 403 2428 403 3163 
Q 403 3881 828 4315 
Q 1253 4750 1959 4750 
Q 2769 4750 3195 4129 
Q 3622 3509 3622 2328 
Q 3622 1225 3098 567 
Q 2575 -91 1691 -91 
Q 1453 -91 1209 -44 
Q 966 3 703 97 
z
M 1959 2075 
Q 2384 2075 2632 2365 
Q 2881 2656 2881 3163 
Q 2881 3666 2632 3958 
Q 2384 4250 1959 4250 
Q 1534 4250 1286 3958 
Q 1038 3666 1038 3163 
Q 1038 2656 1286 2365 
Q 1534 2075 1959 2075 
z
" id="DejaVuSans-39" transform="scale(0.015625)"/>
       </defs>
       <use xlink:href="#DejaVuSans-38"/>
       <use x="63.623047" xlink:href="#DejaVuSans-39"/>
      </g>
     </g>
    </g>
    <g id="xtick_14">
     <g id="line2d_14">
      <g>
       <use style="stroke:#000000;stroke-width:0.8;" x="325.44" xlink:href="#mf7e9a674c7" y="307.584"/>
      </g>
     </g>
     <g id="text_14">
      <!-- 96 -->
      <g transform="translate(328.199375 327.309)rotate(-90)scale(0.1 -0.1)">
       <use xlink:href="#DejaVuSans-39"/>
       <use x="63.623047" xlink:href="#DejaVuSans-36"/>
      </g>
     </g>
    </g>
    <g id="xtick_15">
     <g id="line2d_15">
      <g>
       <use style="stroke:#000000;stroke-width:0.8;" x="345.930492" xlink:href="#mf7e9a674c7" y="307.584"/>
      </g>
     </g>
     <g id="text_15">
      <!-- 103 -->
      <g transform="translate(348.689867 333.6715)rotate(-90)scale(0.1 -0.1)">
       <use xlink:href="#DejaVuSans-31"/>
       <use x="63.623047" xlink:href="#DejaVuSans-30"/>
       <use x="127.246094" xlink:href="#DejaVuSans-33"/>
      </g>
     </g>
    </g>
    <g id="xtick_16">
     <g id="line2d_16">
      <g>
       <use style="stroke:#000000;stroke-width:0.8;" x="366.420984" xlink:href="#mf7e9a674c7" y="307.584"/>
      </g>
     </g>
     <g id="text_16">
      <!-- 111 -->
      <g transform="translate(369.180359 333.6715)rotate(-90)scale(0.1 -0.1)">
       <use xlink:href="#DejaVuSans-31"/>
       <use x="63.623047" xlink:href="#DejaVuSans-31"/>
       <use x="127.246094" xlink:href="#DejaVuSans-31"/>
      </g>
     </g>
    </g>
    <g id="xtick_17">
     <g id="line2d_17">
      <g>
       <use style="stroke:#000000;stroke-width:0.8;" x="386.911475" xlink:href="#mf7e9a674c7" y="307.584"/>
      </g>
     </g>
     <g id="text_17">
      <!-- 118 -->
      <g transform="translate(389.67085 333.6715)rotate(-90)scale(0.1 -0.1)">
       <use xlink:href="#DejaVuSans-31"/>
       <use x="63.623047" xlink:href="#DejaVuSans-31"/>
       <use x="127.246094" xlink:href="#DejaVuSans-38"/>
      </g>
     </g>
    </g>
    <g id="xtick_18">
     <g id="line2d_18">
      <g>
       <use style="stroke:#000000;stroke-width:0.8;" x="407.401967" xlink:href="#mf7e9a674c7" y="307.584"/>
      </g>
     </g>
     <g id="text_18">
      <!-- 125 -->
      <g transform="translate(410.161342 333.6715)rotate(-90)scale(0.1 -0.1)">
       <use xlink:href="#DejaVuSans-31"/>
       <use x="63.623047" xlink:href="#DejaVuSans-32"/>
       <use x="127.246094" xlink:href="#DejaVuSans-35"/>
      </g>
     </g>
    </g>
    <g id="text_19">
     <!-- domain -->
     <g transform="translate(217.434219 345.269937)scale(0.1 -0.1)">
      <defs>
       <path d="M 2906 2969 
L 2906 4863 
L 3481 4863 
L 3481 0 
L 2906 0 
L 2906 525 
Q 2725 213 2448 61 
Q 2172 -91 1784 -91 
Q 1150 -91 751 415 
Q 353 922 353 1747 
Q 353 2572 751 3078 
Q 1150 3584 1784 3584 
Q 2172 3584 2448 3432 
Q 2725 3281 2906 2969 
z
M 947 1747 
Q 947 1113 1208 752 
Q 1469 391 1925 391 
Q 2381 391 2643 752 
Q 2906 1113 2906 1747 
Q 2906 2381 2643 2742 
Q 2381 3103 1925 3103 
Q 1469 3103 1208 2742 
Q 947 2381 947 1747 
z
" id="DejaVuSans-64" transform="scale(0.015625)"/>
       <path d="M 1959 3097 
Q 1497 3097 1228 2736 
Q 959 2375 959 1747 
Q 959 1119 1226 758 
Q 1494 397 1959 397 
Q 2419 397 2687 759 
Q 2956 1122 2956 1747 
Q 2956 2369 2687 2733 
Q 2419 3097 1959 3097 
z
M 1959 3584 
Q 2709 3584 3137 3096 
Q 3566 2609 3566 1747 
Q 3566 888 3137 398 
Q 2709 -91 1959 -91 
Q 1206 -91 779 398 
Q 353 888 353 1747 
Q 353 2609 779 3096 
Q 1206 3584 1959 3584 
z
" id="DejaVuSans-6f" transform="scale(0.015625)"/>
       <path d="M 3328 2828 
Q 3544 3216 3844 3400 
Q 4144 3584 4550 3584 
Q 5097 3584 5394 3201 
Q 5691 2819 5691 2113 
L 5691 0 
L 5113 0 
L 5113 2094 
Q 5113 2597 4934 2840 
Q 4756 3084 4391 3084 
Q 3944 3084 3684 2787 
Q 3425 2491 3425 1978 
L 3425 0 
L 2847 0 
L 2847 2094 
Q 2847 2600 2669 2842 
Q 2491 3084 2119 3084 
Q 1678 3084 1418 2786 
Q 1159 2488 1159 1978 
L 1159 0 
L 581 0 
L 581 3500 
L 1159 3500 
L 1159 2956 
Q 1356 3278 1631 3431 
Q 1906 3584 2284 3584 
Q 2666 3584 2933 3390 
Q 3200 3197 3328 2828 
z
" id="DejaVuSans-6d" transform="scale(0.015625)"/>
       <path d="M 2194 1759 
Q 1497 1759 1228 1600 
Q 959 1441 959 1056 
Q 959 750 1161 570 
Q 1363 391 1709 391 
Q 2188 391 2477 730 
Q 2766 1069 2766 1631 
L 2766 1759 
L 2194 1759 
z
M 3341 1997 
L 3341 0 
L 2766 0 
L 2766 531 
Q 2569 213 2275 61 
Q 1981 -91 1556 -91 
Q 1019 -91 701 211 
Q 384 513 384 1019 
Q 384 1609 779 1909 
Q 1175 2209 1959 2209 
L 2766 2209 
L 2766 2266 
Q 2766 2663 2505 2880 
Q 2244 3097 1772 3097 
Q 1472 3097 1187 3025 
Q 903 2953 641 2809 
L 641 3341 
Q 956 3463 1253 3523 
Q 1550 3584 1831 3584 
Q 2591 3584 2966 3190 
Q 3341 2797 3341 1997 
z
" id="DejaVuSans-61" transform="scale(0.015625)"/>
       <path d="M 603 3500 
L 1178 3500 
L 1178 0 
L 603 0 
L 603 3500 
z
M 603 4863 
L 1178 4863 
L 1178 4134 
L 603 4134 
L 603 4863 
z
" id="DejaVuSans-69" transform="scale(0.015625)"/>
       <path d="M 3513 2113 
L 3513 0 
L 2938 0 
L 2938 2094 
Q 2938 2591 2744 2837 
Q 2550 3084 2163 3084 
Q 1697 3084 1428 2787 
Q 1159 2491 1159 1978 
L 1159 0 
L 581 0 
L 581 3500 
L 1159 3500 
L 1159 2956 
Q 1366 3272 1645 3428 
Q 1925 3584 2291 3584 
Q 2894 3584 3203 3211 
Q 3513 2838 3513 2113 
z
" id="DejaVuSans-6e" transform="scale(0.015625)"/>
      </defs>
      <use xlink:href="#DejaVuSans-64"/>
      <use x="63.476562" xlink:href="#DejaVuSans-6f"/>
      <use x="124.658203" xlink:href="#DejaVuSans-6d"/>
      <use x="222.070312" xlink:href="#DejaVuSans-61"/>
      <use x="283.349609" xlink:href="#DejaVuSans-69"/>
      <use x="311.132812" xlink:href="#DejaVuSans-6e"/>
     </g>
    </g>
   </g>
   <g id="matplotlib.axis_2">
    <g id="ytick_1">
     <g id="line2d_19">
      <defs>
       <path d="M 0 0 
L -3.5 0 
" id="m608bf6f2b4" style="stroke:#000000;stroke-width:0.8;"/>
      </defs>
      <g>
       <use style="stroke:#000000;stroke-width:0.8;" x="57.6" xlink:href="#m608bf6f2b4" y="307.584"/>
      </g>
     </g>
     <g id="text_20">
      <!-- 0.0 -->
      <g transform="translate(34.696875 311.383219)scale(0.1 -0.1)">
       <defs>
        <path d="M 684 794 
L 1344 794 
L 1344 0 
L 684 0 
L 684 794 
z
" id="DejaVuSans-2e" transform="scale(0.015625)"/>
       </defs>
       <use xlink:href="#DejaVuSans-30"/>
       <use x="63.623047" xlink:href="#DejaVuSans-2e"/>
       <use x="95.410156" xlink:href="#DejaVuSans-30"/>
      </g>
     </g>
    </g>
    <g id="ytick_2">
     <g id="line2d_20">
      <g>
       <use style="stroke:#000000;stroke-width:0.8;" x="57.6" xlink:href="#m608bf6f2b4" y="272.544138"/>
      </g>
     </g>
     <g id="text_21">
      <!-- 0.5 -->
      <g transform="translate(34.696875 276.343357)scale(0.1 -0.1)">
       <use xlink:href="#DejaVuSans-30"/>
       <use x="63.623047" xlink:href="#DejaVuSans-2e"/>
       <use x="95.410156" xlink:href="#DejaVuSans-35"/>
      </g>
     </g>
    </g>
    <g id="ytick_3">
     <g id="line2d_21">
      <g>
       <use style="stroke:#000000;stroke-width:0.8;" x="57.6" xlink:href="#m608bf6f2b4" y="237.504277"/>
      </g>
     </g>
     <g id="text_22">
      <!-- 1.0 -->
      <g transform="translate(34.696875 241.303496)scale(0.1 -0.1)">
       <use xlink:href="#DejaVuSans-31"/>
       <use x="63.623047" xlink:href="#DejaVuSans-2e"/>
       <use x="95.410156" xlink:href="#DejaVuSans-30"/>
      </g>
     </g>
    </g>
    <g id="ytick_4">
     <g id="line2d_22">
      <g>
       <use style="stroke:#000000;stroke-width:0.8;" x="57.6" xlink:href="#m608bf6f2b4" y="202.464415"/>
      </g>
     </g>
     <g id="text_23">
      <!-- 1.5 -->
      <g transform="translate(34.696875 206.263634)scale(0.1 -0.1)">
       <use xlink:href="#DejaVuSans-31"/>
       <use x="63.623047" xlink:href="#DejaVuSans-2e"/>
       <use x="95.410156" xlink:href="#DejaVuSans-35"/>
      </g>
     </g>
    </g>
    <g id="ytick_5">
     <g id="line2d_23">
      <g>
       <use style="stroke:#000000;stroke-width:0.8;" x="57.6" xlink:href="#m608bf6f2b4" y="167.424554"/>
      </g>
     </g>
     <g id="text_24">
      <!-- 2.0 -->
      <g transform="translate(34.696875 171.223773)scale(0.1 -0.1)">
       <use xlink:href="#DejaVuSans-32"/>
       <use x="63.623047" xlink:href="#DejaVuSans-2e"/>
       <use x="95.410156" xlink:href="#DejaVuSans-30"/>
      </g>
     </g>
    </g>
    <g id="ytick_6">
     <g id="line2d_24">
      <g>
       <use style="stroke:#000000;stroke-width:0.8;" x="57.6" xlink:href="#m608bf6f2b4" y="132.384692"/>
      </g>
     </g>
     <g id="text_25">
      <!-- 2.5 -->
      <g transform="translate(34.696875 136.183911)scale(0.1 -0.1)">
       <use xlink:href="#DejaVuSans-32"/>
       <use x="63.623047" xlink:href="#DejaVuSans-2e"/>
       <use x="95.410156" xlink:href="#DejaVuSans-35"/>
      </g>
     </g>
    </g>
    <g id="ytick_7">
     <g id="line2d_25">
      <g>
       <use style="stroke:#000000;stroke-width:0.8;" x="57.6" xlink:href="#m608bf6f2b4" y="97.344831"/>
      </g>
     </g>
     <g id="text_26">
      <!-- 3.0 -->
      <g transform="translate(34.696875 101.144049)scale(0.1 -0.1)">
       <use xlink:href="#DejaVuSans-33"/>
       <use x="63.623047" xlink:href="#DejaVuSans-2e"/>
       <use x="95.410156" xlink:href="#DejaVuSans-30"/>
      </g>
     </g>
    </g>
    <g id="ytick_8">
     <g id="line2d_26">
      <g>
       <use style="stroke:#000000;stroke-width:0.8;" x="57.6" xlink:href="#m608bf6f2b4" y="62.304969"/>
      </g>
     </g>
     <g id="text_27">
      <!-- 3.5 -->
      <g transform="translate(34.696875 66.104188)scale(0.1 -0.1)">
       <use xlink:href="#DejaVuSans-33"/>
       <use x="63.623047" xlink:href="#DejaVuSans-2e"/>
       <use x="95.410156" xlink:href="#DejaVuSans-35"/>
      </g>
     </g>
    </g>
    <g id="text_28">
     <!-- Total Bytes sent to Domain -->
     <g transform="translate(28.617187 241.823312)rotate(-90)scale(0.1 -0.1)">
      <defs>
       <path d="M -19 4666 
L 3928 4666 
L 3928 4134 
L 2272 4134 
L 2272 0 
L 1638 0 
L 1638 4134 
L -19 4134 
L -19 4666 
z
" id="DejaVuSans-54" transform="scale(0.015625)"/>
       <path d="M 1172 4494 
L 1172 3500 
L 2356 3500 
L 2356 3053 
L 1172 3053 
L 1172 1153 
Q 1172 725 1289 603 
Q 1406 481 1766 481 
L 2356 481 
L 2356 0 
L 1766 0 
Q 1100 0 847 248 
Q 594 497 594 1153 
L 594 3053 
L 172 3053 
L 172 3500 
L 594 3500 
L 594 4494 
L 1172 4494 
z
" id="DejaVuSans-74" transform="scale(0.015625)"/>
       <path d="M 603 4863 
L 1178 4863 
L 1178 0 
L 603 0 
L 603 4863 
z
" id="DejaVuSans-6c" transform="scale(0.015625)"/>
       <path id="DejaVuSans-20" transform="scale(0.015625)"/>
       <path d="M 1259 2228 
L 1259 519 
L 2272 519 
Q 2781 519 3026 730 
Q 3272 941 3272 1375 
Q 3272 1813 3026 2020 
Q 2781 2228 2272 2228 
L 1259 2228 
z
M 1259 4147 
L 1259 2741 
L 2194 2741 
Q 2656 2741 2882 2914 
Q 3109 3088 3109 3444 
Q 3109 3797 2882 3972 
Q 2656 4147 2194 4147 
L 1259 4147 
z
M 628 4666 
L 2241 4666 
Q 2963 4666 3353 4366 
Q 3744 4066 3744 3513 
Q 3744 3084 3544 2831 
Q 3344 2578 2956 2516 
Q 3422 2416 3680 2098 
Q 3938 1781 3938 1306 
Q 3938 681 3513 340 
Q 3088 0 2303 0 
L 628 0 
L 628 4666 
z
" id="DejaVuSans-42" transform="scale(0.015625)"/>
       <path d="M 2059 -325 
Q 1816 -950 1584 -1140 
Q 1353 -1331 966 -1331 
L 506 -1331 
L 506 -850 
L 844 -850 
Q 1081 -850 1212 -737 
Q 1344 -625 1503 -206 
L 1606 56 
L 191 3500 
L 800 3500 
L 1894 763 
L 2988 3500 
L 3597 3500 
L 2059 -325 
z
" id="DejaVuSans-79" transform="scale(0.015625)"/>
       <path d="M 3597 1894 
L 3597 1613 
L 953 1613 
Q 991 1019 1311 708 
Q 1631 397 2203 397 
Q 2534 397 2845 478 
Q 3156 559 3463 722 
L 3463 178 
Q 3153 47 2828 -22 
Q 2503 -91 2169 -91 
Q 1331 -91 842 396 
Q 353 884 353 1716 
Q 353 2575 817 3079 
Q 1281 3584 2069 3584 
Q 2775 3584 3186 3129 
Q 3597 2675 3597 1894 
z
M 3022 2063 
Q 3016 2534 2758 2815 
Q 2500 3097 2075 3097 
Q 1594 3097 1305 2825 
Q 1016 2553 972 2059 
L 3022 2063 
z
" id="DejaVuSans-65" transform="scale(0.015625)"/>
       <path d="M 2834 3397 
L 2834 2853 
Q 2591 2978 2328 3040 
Q 2066 3103 1784 3103 
Q 1356 3103 1142 2972 
Q 928 2841 928 2578 
Q 928 2378 1081 2264 
Q 1234 2150 1697 2047 
L 1894 2003 
Q 2506 1872 2764 1633 
Q 3022 1394 3022 966 
Q 3022 478 2636 193 
Q 2250 -91 1575 -91 
Q 1294 -91 989 -36 
Q 684 19 347 128 
L 347 722 
Q 666 556 975 473 
Q 1284 391 1588 391 
Q 1994 391 2212 530 
Q 2431 669 2431 922 
Q 2431 1156 2273 1281 
Q 2116 1406 1581 1522 
L 1381 1569 
Q 847 1681 609 1914 
Q 372 2147 372 2553 
Q 372 3047 722 3315 
Q 1072 3584 1716 3584 
Q 2034 3584 2315 3537 
Q 2597 3491 2834 3397 
z
" id="DejaVuSans-73" transform="scale(0.015625)"/>
       <path d="M 1259 4147 
L 1259 519 
L 2022 519 
Q 2988 519 3436 956 
Q 3884 1394 3884 2338 
Q 3884 3275 3436 3711 
Q 2988 4147 2022 4147 
L 1259 4147 
z
M 628 4666 
L 1925 4666 
Q 3281 4666 3915 4102 
Q 4550 3538 4550 2338 
Q 4550 1131 3912 565 
Q 3275 0 1925 0 
L 628 0 
L 628 4666 
z
" id="DejaVuSans-44" transform="scale(0.015625)"/>
      </defs>
      <use xlink:href="#DejaVuSans-54"/>
      <use x="44.083984" xlink:href="#DejaVuSans-6f"/>
      <use x="105.265625" xlink:href="#DejaVuSans-74"/>
      <use x="144.474609" xlink:href="#DejaVuSans-61"/>
      <use x="205.753906" xlink:href="#DejaVuSans-6c"/>
      <use x="233.537109" xlink:href="#DejaVuSans-20"/>
      <use x="265.324219" xlink:href="#DejaVuSans-42"/>
      <use x="333.927734" xlink:href="#DejaVuSans-79"/>
      <use x="393.107422" xlink:href="#DejaVuSans-74"/>
      <use x="432.316406" xlink:href="#DejaVuSans-65"/>
      <use x="493.839844" xlink:href="#DejaVuSans-73"/>
      <use x="545.939453" xlink:href="#DejaVuSans-20"/>
      <use x="577.726562" xlink:href="#DejaVuSans-73"/>
      <use x="629.826172" xlink:href="#DejaVuSans-65"/>
      <use x="691.349609" xlink:href="#DejaVuSans-6e"/>
      <use x="754.728516" xlink:href="#DejaVuSans-74"/>
      <use x="793.9375" xlink:href="#DejaVuSans-20"/>
      <use x="825.724609" xlink:href="#DejaVuSans-74"/>
      <use x="864.933594" xlink:href="#DejaVuSans-6f"/>
      <use x="926.115234" xlink:href="#DejaVuSans-20"/>
      <use x="957.902344" xlink:href="#DejaVuSans-44"/>
      <use x="1034.904297" xlink:href="#DejaVuSans-6f"/>
      <use x="1096.085938" xlink:href="#DejaVuSans-6d"/>
      <use x="1193.498047" xlink:href="#DejaVuSans-61"/>
      <use x="1254.777344" xlink:href="#DejaVuSans-69"/>
      <use x="1282.560547" xlink:href="#DejaVuSans-6e"/>
     </g>
    </g>
    <g id="text_29">
     <!-- 1e9 -->
     <g transform="translate(57.6 38.472)scale(0.1 -0.1)">
      <use xlink:href="#DejaVuSans-31"/>
      <use x="63.623047" xlink:href="#DejaVuSans-65"/>
      <use x="125.146484" xlink:href="#DejaVuSans-39"/>
     </g>
    </g>
   </g>
   <g id="patch_247">
    <path d="M 57.6 307.584 
L 57.6 41.472 
" style="fill:none;stroke:#000000;stroke-linecap:square;stroke-linejoin:miter;stroke-width:0.8;"/>
   </g>
   <g id="patch_248">
    <path d="M 414.72 307.584 
L 414.72 41.472 
" style="fill:none;stroke:#000000;stroke-linecap:square;stroke-linejoin:miter;stroke-width:0.8;"/>
   </g>
   <g id="patch_249">
    <path d="M 57.6 307.584 
L 414.72 307.584 
" style="fill:none;stroke:#000000;stroke-linecap:square;stroke-linejoin:miter;stroke-width:0.8;"/>
   </g>
   <g id="patch_250">
    <path d="M 57.6 41.472 
L 414.72 41.472 
" style="fill:none;stroke:#000000;stroke-linecap:square;stroke-linejoin:miter;stroke-width:0.8;"/>
   </g>
   <g id="text_30">
    <!-- ex0-run80 -->
    <g transform="translate(205.333125 35.472)scale(0.12 -0.12)">
     <defs>
      <path d="M 3513 3500 
L 2247 1797 
L 3578 0 
L 2900 0 
L 1881 1375 
L 863 0 
L 184 0 
L 1544 1831 
L 300 3500 
L 978 3500 
L 1906 2253 
L 2834 3500 
L 3513 3500 
z
" id="DejaVuSans-78" transform="scale(0.015625)"/>
      <path d="M 313 2009 
L 1997 2009 
L 1997 1497 
L 313 1497 
L 313 2009 
z
" id="DejaVuSans-2d" transform="scale(0.015625)"/>
      <path d="M 2631 2963 
Q 2534 3019 2420 3045 
Q 2306 3072 2169 3072 
Q 1681 3072 1420 2755 
Q 1159 2438 1159 1844 
L 1159 0 
L 581 0 
L 581 3500 
L 1159 3500 
L 1159 2956 
Q 1341 3275 1631 3429 
Q 1922 3584 2338 3584 
Q 2397 3584 2469 3576 
Q 2541 3569 2628 3553 
L 2631 2963 
z
" id="DejaVuSans-72" transform="scale(0.015625)"/>
      <path d="M 544 1381 
L 544 3500 
L 1119 3500 
L 1119 1403 
Q 1119 906 1312 657 
Q 1506 409 1894 409 
Q 2359 409 2629 706 
Q 2900 1003 2900 1516 
L 2900 3500 
L 3475 3500 
L 3475 0 
L 2900 0 
L 2900 538 
Q 2691 219 2414 64 
Q 2138 -91 1772 -91 
Q 1169 -91 856 284 
Q 544 659 544 1381 
z
M 1991 3584 
L 1991 3584 
z
" id="DejaVuSans-75" transform="scale(0.015625)"/>
     </defs>
     <use xlink:href="#DejaVuSans-65"/>
     <use x="59.773438" xlink:href="#DejaVuSans-78"/>
     <use x="118.953125" xlink:href="#DejaVuSans-30"/>
     <use x="182.576172" xlink:href="#DejaVuSans-2d"/>
     <use x="218.660156" xlink:href="#DejaVuSans-72"/>
     <use x="259.773438" xlink:href="#DejaVuSans-75"/>
     <use x="323.152344" xlink:href="#DejaVuSans-6e"/>
     <use x="386.53125" xlink:href="#DejaVuSans-38"/>
     <use x="450.154297" xlink:href="#DejaVuSans-30"/>
    </g>
   </g>
   <g id="legend_1">
    <g id="patch_251">
     <path d="M 64.6 78.82825 
L 184.99375 78.82825 
Q 186.99375 78.82825 186.99375 76.82825 
L 186.99375 48.472 
Q 186.99375 46.472 184.99375 46.472 
L 64.6 46.472 
Q 62.6 46.472 62.6 48.472 
L 62.6 76.82825 
Q 62.6 78.82825 64.6 78.82825 
z
" style="fill:#ffffff;opacity:0.8;stroke:#cccccc;stroke-linejoin:miter;"/>
    </g>
    <g id="patch_252">
     <path d="M 66.6 58.070437 
L 86.6 58.070437 
L 86.6 51.070437 
L 66.6 51.070437 
z
" style="fill:#1f77b4;"/>
    </g>
    <g id="text_31">
     <!--  non-dupe bytes -->
     <g transform="translate(94.6 58.070437)scale(0.1 -0.1)">
      <defs>
       <path d="M 1159 525 
L 1159 -1331 
L 581 -1331 
L 581 3500 
L 1159 3500 
L 1159 2969 
Q 1341 3281 1617 3432 
Q 1894 3584 2278 3584 
Q 2916 3584 3314 3078 
Q 3713 2572 3713 1747 
Q 3713 922 3314 415 
Q 2916 -91 2278 -91 
Q 1894 -91 1617 61 
Q 1341 213 1159 525 
z
M 3116 1747 
Q 3116 2381 2855 2742 
Q 2594 3103 2138 3103 
Q 1681 3103 1420 2742 
Q 1159 2381 1159 1747 
Q 1159 1113 1420 752 
Q 1681 391 2138 391 
Q 2594 391 2855 752 
Q 3116 1113 3116 1747 
z
" id="DejaVuSans-70" transform="scale(0.015625)"/>
       <path d="M 3116 1747 
Q 3116 2381 2855 2742 
Q 2594 3103 2138 3103 
Q 1681 3103 1420 2742 
Q 1159 2381 1159 1747 
Q 1159 1113 1420 752 
Q 1681 391 2138 391 
Q 2594 391 2855 752 
Q 3116 1113 3116 1747 
z
M 1159 2969 
Q 1341 3281 1617 3432 
Q 1894 3584 2278 3584 
Q 2916 3584 3314 3078 
Q 3713 2572 3713 1747 
Q 3713 922 3314 415 
Q 2916 -91 2278 -91 
Q 1894 -91 1617 61 
Q 1341 213 1159 525 
L 1159 0 
L 581 0 
L 581 4863 
L 1159 4863 
L 1159 2969 
z
" id="DejaVuSans-62" transform="scale(0.015625)"/>
      </defs>
      <use xlink:href="#DejaVuSans-20"/>
      <use x="31.787109" xlink:href="#DejaVuSans-6e"/>
      <use x="95.166016" xlink:href="#DejaVuSans-6f"/>
      <use x="156.347656" xlink:href="#DejaVuSans-6e"/>
      <use x="219.726562" xlink:href="#DejaVuSans-2d"/>
      <use x="255.810547" xlink:href="#DejaVuSans-64"/>
      <use x="319.287109" xlink:href="#DejaVuSans-75"/>
      <use x="382.666016" xlink:href="#DejaVuSans-70"/>
      <use x="446.142578" xlink:href="#DejaVuSans-65"/>
      <use x="507.666016" xlink:href="#DejaVuSans-20"/>
      <use x="539.453125" xlink:href="#DejaVuSans-62"/>
      <use x="602.929688" xlink:href="#DejaVuSans-79"/>
      <use x="662.109375" xlink:href="#DejaVuSans-74"/>
      <use x="701.318359" xlink:href="#DejaVuSans-65"/>
      <use x="762.841797" xlink:href="#DejaVuSans-73"/>
     </g>
    </g>
    <g id="patch_253">
     <path d="M 66.6 72.748562 
L 86.6 72.748562 
L 86.6 65.748562 
L 66.6 65.748562 
z
" style="fill:#ff7f0e;"/>
    </g>
    <g id="text_32">
     <!-- total region bytes -->
     <g transform="translate(94.6 72.748562)scale(0.1 -0.1)">
      <defs>
       <path d="M 2906 1791 
Q 2906 2416 2648 2759 
Q 2391 3103 1925 3103 
Q 1463 3103 1205 2759 
Q 947 2416 947 1791 
Q 947 1169 1205 825 
Q 1463 481 1925 481 
Q 2391 481 2648 825 
Q 2906 1169 2906 1791 
z
M 3481 434 
Q 3481 -459 3084 -895 
Q 2688 -1331 1869 -1331 
Q 1566 -1331 1297 -1286 
Q 1028 -1241 775 -1147 
L 775 -588 
Q 1028 -725 1275 -790 
Q 1522 -856 1778 -856 
Q 2344 -856 2625 -561 
Q 2906 -266 2906 331 
L 2906 616 
Q 2728 306 2450 153 
Q 2172 0 1784 0 
Q 1141 0 747 490 
Q 353 981 353 1791 
Q 353 2603 747 3093 
Q 1141 3584 1784 3584 
Q 2172 3584 2450 3431 
Q 2728 3278 2906 2969 
L 2906 3500 
L 3481 3500 
L 3481 434 
z
" id="DejaVuSans-67" transform="scale(0.015625)"/>
      </defs>
      <use xlink:href="#DejaVuSans-74"/>
      <use x="39.208984" xlink:href="#DejaVuSans-6f"/>
      <use x="100.390625" xlink:href="#DejaVuSans-74"/>
      <use x="139.599609" xlink:href="#DejaVuSans-61"/>
      <use x="200.878906" xlink:href="#DejaVuSans-6c"/>
      <use x="228.662109" xlink:href="#DejaVuSans-20"/>
      <use x="260.449219" xlink:href="#DejaVuSans-72"/>
      <use x="299.3125" xlink:href="#DejaVuSans-65"/>
      <use x="360.835938" xlink:href="#DejaVuSans-67"/>
      <use x="424.3125" xlink:href="#DejaVuSans-69"/>
      <use x="452.095703" xlink:href="#DejaVuSans-6f"/>
      <use x="513.277344" xlink:href="#DejaVuSans-6e"/>
      <use x="576.65625" xlink:href="#DejaVuSans-20"/>
      <use x="608.443359" xlink:href="#DejaVuSans-62"/>
      <use x="671.919922" xlink:href="#DejaVuSans-79"/>
      <use x="731.099609" xlink:href="#DejaVuSans-74"/>
      <use x="770.308594" xlink:href="#DejaVuSans-65"/>
      <use x="831.832031" xlink:href="#DejaVuSans-73"/>
     </g>
    </g>
   </g>
  </g>
 </g>
 <defs>
  <clipPath id="pebd484647e">
   <rect height="266.112" width="357.12" x="57.6" y="41.472"/>
  </clipPath>
 </defs>
</svg>
