<?xml version="1.0" encoding="utf-8" standalone="no"?>
<!DOCTYPE svg PUBLIC "-//W3C//DTD SVG 1.1//EN"
  "http://www.w3.org/Graphics/SVG/1.1/DTD/svg11.dtd">
<svg height="576pt" version="1.1" viewBox="0 0 864 576" width="864pt" xmlns="http://www.w3.org/2000/svg" xmlns:xlink="http://www.w3.org/1999/xlink">
 <metadata>
  <rdf:RDF xmlns:cc="http://creativecommons.org/ns#" xmlns:dc="http://purl.org/dc/elements/1.1/" xmlns:rdf="http://www.w3.org/1999/02/22-rdf-syntax-ns#">
   <cc:Work>
    <dc:type rdf:resource="http://purl.org/dc/dcmitype/StillImage"/>
    <dc:date>2021-12-07T06:58:23.013873</dc:date>
    <dc:format>image/svg+xml</dc:format>
    <dc:creator>
     <cc:Agent>
      <dc:title>Matplotlib v3.4.3, https://matplotlib.org/</dc:title>
     </cc:Agent>
    </dc:creator>
   </cc:Work>
  </rdf:RDF>
 </metadata>
 <defs>
  <style type="text/css">*{stroke-linecap:butt;stroke-linejoin:round;}</style>
 </defs>
 <g id="figure_1">
  <g id="patch_1">
   <path d="M 0 576 
L 864 576 
L 864 0 
L 0 0 
z
" style="fill:#ffffff;"/>
  </g>
  <g id="axes_1">
   <g id="patch_2">
    <path d="M 108 512.64 
L 777.6 512.64 
L 777.6 69.12 
L 108 69.12 
z
" style="fill:#ffffff;"/>
   </g>
   <g id="PathCollection_1">
    <defs>
     <path d="M 0 2.236068 
C 0.593012 2.236068 1.161816 2.000462 1.581139 1.581139 
C 2.000462 1.161816 2.236068 0.593012 2.236068 -0 
C 2.236068 -0.593012 2.000462 -1.161816 1.581139 -1.581139 
C 1.161816 -2.000462 0.593012 -2.236068 0 -2.236068 
C -0.593012 -2.236068 -1.161816 -2.000462 -1.581139 -1.581139 
C -2.000462 -1.161816 -2.236068 -0.593012 -2.236068 0 
C -2.236068 0.593012 -2.000462 1.161816 -1.581139 1.581139 
C -1.161816 2.000462 -0.593012 2.236068 0 2.236068 
z
" id="C0_0_bd43b542e7"/>
    </defs>
    <g clip-path="url(#p2759395cec)">
     <use style="fill:#ff0000;stroke:#ff0000;" x="550.22246" xlink:href="#C0_0_bd43b542e7" y="492.48"/>
    </g>
    <g clip-path="url(#p2759395cec)">
     <use style="fill:#ff0000;stroke:#ff0000;" x="621.837433" xlink:href="#C0_0_bd43b542e7" y="417.555516"/>
    </g>
    <g clip-path="url(#p2759395cec)">
     <use style="fill:#0000ff;stroke:#0000ff;" x="729.259893" xlink:href="#C0_0_bd43b542e7" y="120.131595"/>
    </g>
    <g clip-path="url(#p2759395cec)">
     <use style="fill:#ff0000;stroke:#ff0000;" x="568.126203" xlink:href="#C0_0_bd43b542e7" y="417.480228"/>
    </g>
    <g clip-path="url(#p2759395cec)">
     <use style="fill:#0000ff;stroke:#0000ff;" x="675.548663" xlink:href="#C0_0_bd43b542e7" y="95.355299"/>
    </g>
    <g clip-path="url(#p2759395cec)">
     <use style="fill:#ff0000;stroke:#ff0000;" x="138.436364" xlink:href="#C0_0_bd43b542e7" y="466.363615"/>
    </g>
    <g clip-path="url(#p2759395cec)">
     <use style="fill:#ff0000;stroke:#ff0000;" x="442.8" xlink:href="#C0_0_bd43b542e7" y="410.291168"/>
    </g>
    <g clip-path="url(#p2759395cec)">
     <use style="fill:#0000ff;stroke:#0000ff;" x="747.163636" xlink:href="#C0_0_bd43b542e7" y="101.382903"/>
    </g>
    <g clip-path="url(#p2759395cec)">
     <use style="fill:#ff0000;stroke:#ff0000;" x="371.185027" xlink:href="#C0_0_bd43b542e7" y="419.350813"/>
    </g>
    <g clip-path="url(#p2759395cec)">
     <use style="fill:#0000ff;stroke:#0000ff;" x="693.452406" xlink:href="#C0_0_bd43b542e7" y="89.28"/>
    </g>
    <g clip-path="url(#p2759395cec)">
     <use style="fill:#ff0000;stroke:#ff0000;" x="657.64492" xlink:href="#C0_0_bd43b542e7" y="475.645052"/>
    </g>
    <g clip-path="url(#p2759395cec)">
     <use style="fill:#ff0000;stroke:#ff0000;" x="657.64492" xlink:href="#C0_0_bd43b542e7" y="480.694552"/>
    </g>
    <g clip-path="url(#p2759395cec)">
     <use style="fill:#0000ff;stroke:#0000ff;" x="729.259893" xlink:href="#C0_0_bd43b542e7" y="111.771175"/>
    </g>
    <g clip-path="url(#p2759395cec)">
     <use style="fill:#ff0000;stroke:#ff0000;" x="586.029947" xlink:href="#C0_0_bd43b542e7" y="433.273297"/>
    </g>
    <g clip-path="url(#p2759395cec)">
     <use style="fill:#0000ff;stroke:#0000ff;" x="675.548663" xlink:href="#C0_0_bd43b542e7" y="108.195053"/>
    </g>
   </g>
   <g id="matplotlib.axis_1">
    <g id="xtick_1">
     <g id="line2d_1">
      <defs>
       <path d="M 0 0 
L 0 3.5 
" id="mbaf2614ff5" style="stroke:#000000;stroke-width:0.8;"/>
      </defs>
      <g>
       <use style="stroke:#000000;stroke-width:0.8;" x="120.53262" xlink:href="#mbaf2614ff5" y="512.64"/>
      </g>
     </g>
     <g id="text_1">
      <!-- 7.5 -->
      <g transform="translate(112.581058 527.238438)scale(0.1 -0.1)">
       <defs>
        <path d="M 525 4666 
L 3525 4666 
L 3525 4397 
L 1831 0 
L 1172 0 
L 2766 4134 
L 525 4134 
L 525 4666 
z
" id="DejaVuSans-37" transform="scale(0.015625)"/>
        <path d="M 684 794 
L 1344 794 
L 1344 0 
L 684 0 
L 684 794 
z
" id="DejaVuSans-2e" transform="scale(0.015625)"/>
        <path d="M 691 4666 
L 3169 4666 
L 3169 4134 
L 1269 4134 
L 1269 2991 
Q 1406 3038 1543 3061 
Q 1681 3084 1819 3084 
Q 2600 3084 3056 2656 
Q 3513 2228 3513 1497 
Q 3513 744 3044 326 
Q 2575 -91 1722 -91 
Q 1428 -91 1123 -41 
Q 819 9 494 109 
L 494 744 
Q 775 591 1075 516 
Q 1375 441 1709 441 
Q 2250 441 2565 725 
Q 2881 1009 2881 1497 
Q 2881 1984 2565 2268 
Q 2250 2553 1709 2553 
Q 1456 2553 1204 2497 
Q 953 2441 691 2322 
L 691 4666 
z
" id="DejaVuSans-35" transform="scale(0.015625)"/>
       </defs>
       <use xlink:href="#DejaVuSans-37"/>
       <use x="63.623047" xlink:href="#DejaVuSans-2e"/>
       <use x="95.410156" xlink:href="#DejaVuSans-35"/>
      </g>
     </g>
    </g>
    <g id="xtick_2">
     <g id="line2d_2">
      <g>
       <use style="stroke:#000000;stroke-width:0.8;" x="210.051337" xlink:href="#mbaf2614ff5" y="512.64"/>
      </g>
     </g>
     <g id="text_2">
      <!-- 8.0 -->
      <g transform="translate(202.099774 527.238438)scale(0.1 -0.1)">
       <defs>
        <path d="M 2034 2216 
Q 1584 2216 1326 1975 
Q 1069 1734 1069 1313 
Q 1069 891 1326 650 
Q 1584 409 2034 409 
Q 2484 409 2743 651 
Q 3003 894 3003 1313 
Q 3003 1734 2745 1975 
Q 2488 2216 2034 2216 
z
M 1403 2484 
Q 997 2584 770 2862 
Q 544 3141 544 3541 
Q 544 4100 942 4425 
Q 1341 4750 2034 4750 
Q 2731 4750 3128 4425 
Q 3525 4100 3525 3541 
Q 3525 3141 3298 2862 
Q 3072 2584 2669 2484 
Q 3125 2378 3379 2068 
Q 3634 1759 3634 1313 
Q 3634 634 3220 271 
Q 2806 -91 2034 -91 
Q 1263 -91 848 271 
Q 434 634 434 1313 
Q 434 1759 690 2068 
Q 947 2378 1403 2484 
z
M 1172 3481 
Q 1172 3119 1398 2916 
Q 1625 2713 2034 2713 
Q 2441 2713 2670 2916 
Q 2900 3119 2900 3481 
Q 2900 3844 2670 4047 
Q 2441 4250 2034 4250 
Q 1625 4250 1398 4047 
Q 1172 3844 1172 3481 
z
" id="DejaVuSans-38" transform="scale(0.015625)"/>
        <path d="M 2034 4250 
Q 1547 4250 1301 3770 
Q 1056 3291 1056 2328 
Q 1056 1369 1301 889 
Q 1547 409 2034 409 
Q 2525 409 2770 889 
Q 3016 1369 3016 2328 
Q 3016 3291 2770 3770 
Q 2525 4250 2034 4250 
z
M 2034 4750 
Q 2819 4750 3233 4129 
Q 3647 3509 3647 2328 
Q 3647 1150 3233 529 
Q 2819 -91 2034 -91 
Q 1250 -91 836 529 
Q 422 1150 422 2328 
Q 422 3509 836 4129 
Q 1250 4750 2034 4750 
z
" id="DejaVuSans-30" transform="scale(0.015625)"/>
       </defs>
       <use xlink:href="#DejaVuSans-38"/>
       <use x="63.623047" xlink:href="#DejaVuSans-2e"/>
       <use x="95.410156" xlink:href="#DejaVuSans-30"/>
      </g>
     </g>
    </g>
    <g id="xtick_3">
     <g id="line2d_3">
      <g>
       <use style="stroke:#000000;stroke-width:0.8;" x="299.570053" xlink:href="#mbaf2614ff5" y="512.64"/>
      </g>
     </g>
     <g id="text_3">
      <!-- 8.5 -->
      <g transform="translate(291.618491 527.238438)scale(0.1 -0.1)">
       <use xlink:href="#DejaVuSans-38"/>
       <use x="63.623047" xlink:href="#DejaVuSans-2e"/>
       <use x="95.410156" xlink:href="#DejaVuSans-35"/>
      </g>
     </g>
    </g>
    <g id="xtick_4">
     <g id="line2d_4">
      <g>
       <use style="stroke:#000000;stroke-width:0.8;" x="389.08877" xlink:href="#mbaf2614ff5" y="512.64"/>
      </g>
     </g>
     <g id="text_4">
      <!-- 9.0 -->
      <g transform="translate(381.137208 527.238438)scale(0.1 -0.1)">
       <defs>
        <path d="M 703 97 
L 703 672 
Q 941 559 1184 500 
Q 1428 441 1663 441 
Q 2288 441 2617 861 
Q 2947 1281 2994 2138 
Q 2813 1869 2534 1725 
Q 2256 1581 1919 1581 
Q 1219 1581 811 2004 
Q 403 2428 403 3163 
Q 403 3881 828 4315 
Q 1253 4750 1959 4750 
Q 2769 4750 3195 4129 
Q 3622 3509 3622 2328 
Q 3622 1225 3098 567 
Q 2575 -91 1691 -91 
Q 1453 -91 1209 -44 
Q 966 3 703 97 
z
M 1959 2075 
Q 2384 2075 2632 2365 
Q 2881 2656 2881 3163 
Q 2881 3666 2632 3958 
Q 2384 4250 1959 4250 
Q 1534 4250 1286 3958 
Q 1038 3666 1038 3163 
Q 1038 2656 1286 2365 
Q 1534 2075 1959 2075 
z
" id="DejaVuSans-39" transform="scale(0.015625)"/>
       </defs>
       <use xlink:href="#DejaVuSans-39"/>
       <use x="63.623047" xlink:href="#DejaVuSans-2e"/>
       <use x="95.410156" xlink:href="#DejaVuSans-30"/>
      </g>
     </g>
    </g>
    <g id="xtick_5">
     <g id="line2d_5">
      <g>
       <use style="stroke:#000000;stroke-width:0.8;" x="478.607487" xlink:href="#mbaf2614ff5" y="512.64"/>
      </g>
     </g>
     <g id="text_5">
      <!-- 9.5 -->
      <g transform="translate(470.655924 527.238438)scale(0.1 -0.1)">
       <use xlink:href="#DejaVuSans-39"/>
       <use x="63.623047" xlink:href="#DejaVuSans-2e"/>
       <use x="95.410156" xlink:href="#DejaVuSans-35"/>
      </g>
     </g>
    </g>
    <g id="xtick_6">
     <g id="line2d_6">
      <g>
       <use style="stroke:#000000;stroke-width:0.8;" x="568.126203" xlink:href="#mbaf2614ff5" y="512.64"/>
      </g>
     </g>
     <g id="text_6">
      <!-- 10.0 -->
      <g transform="translate(556.993391 527.238438)scale(0.1 -0.1)">
       <defs>
        <path d="M 794 531 
L 1825 531 
L 1825 4091 
L 703 3866 
L 703 4441 
L 1819 4666 
L 2450 4666 
L 2450 531 
L 3481 531 
L 3481 0 
L 794 0 
L 794 531 
z
" id="DejaVuSans-31" transform="scale(0.015625)"/>
       </defs>
       <use xlink:href="#DejaVuSans-31"/>
       <use x="63.623047" xlink:href="#DejaVuSans-30"/>
       <use x="127.246094" xlink:href="#DejaVuSans-2e"/>
       <use x="159.033203" xlink:href="#DejaVuSans-30"/>
      </g>
     </g>
    </g>
    <g id="xtick_7">
     <g id="line2d_7">
      <g>
       <use style="stroke:#000000;stroke-width:0.8;" x="657.64492" xlink:href="#mbaf2614ff5" y="512.64"/>
      </g>
     </g>
     <g id="text_7">
      <!-- 10.5 -->
      <g transform="translate(646.512107 527.238438)scale(0.1 -0.1)">
       <use xlink:href="#DejaVuSans-31"/>
       <use x="63.623047" xlink:href="#DejaVuSans-30"/>
       <use x="127.246094" xlink:href="#DejaVuSans-2e"/>
       <use x="159.033203" xlink:href="#DejaVuSans-35"/>
      </g>
     </g>
    </g>
    <g id="xtick_8">
     <g id="line2d_8">
      <g>
       <use style="stroke:#000000;stroke-width:0.8;" x="747.163636" xlink:href="#mbaf2614ff5" y="512.64"/>
      </g>
     </g>
     <g id="text_8">
      <!-- 11.0 -->
      <g transform="translate(736.030824 527.238438)scale(0.1 -0.1)">
       <use xlink:href="#DejaVuSans-31"/>
       <use x="63.623047" xlink:href="#DejaVuSans-31"/>
       <use x="127.246094" xlink:href="#DejaVuSans-2e"/>
       <use x="159.033203" xlink:href="#DejaVuSans-30"/>
      </g>
     </g>
    </g>
    <g id="text_9">
     <!-- Overall Deduplication (- - - -&gt; More is Better) -->
     <g transform="translate(335.119531 540.916563)scale(0.1 -0.1)">
      <defs>
       <path d="M 2522 4238 
Q 1834 4238 1429 3725 
Q 1025 3213 1025 2328 
Q 1025 1447 1429 934 
Q 1834 422 2522 422 
Q 3209 422 3611 934 
Q 4013 1447 4013 2328 
Q 4013 3213 3611 3725 
Q 3209 4238 2522 4238 
z
M 2522 4750 
Q 3503 4750 4090 4092 
Q 4678 3434 4678 2328 
Q 4678 1225 4090 567 
Q 3503 -91 2522 -91 
Q 1538 -91 948 565 
Q 359 1222 359 2328 
Q 359 3434 948 4092 
Q 1538 4750 2522 4750 
z
" id="DejaVuSans-4f" transform="scale(0.015625)"/>
       <path d="M 191 3500 
L 800 3500 
L 1894 563 
L 2988 3500 
L 3597 3500 
L 2284 0 
L 1503 0 
L 191 3500 
z
" id="DejaVuSans-76" transform="scale(0.015625)"/>
       <path d="M 3597 1894 
L 3597 1613 
L 953 1613 
Q 991 1019 1311 708 
Q 1631 397 2203 397 
Q 2534 397 2845 478 
Q 3156 559 3463 722 
L 3463 178 
Q 3153 47 2828 -22 
Q 2503 -91 2169 -91 
Q 1331 -91 842 396 
Q 353 884 353 1716 
Q 353 2575 817 3079 
Q 1281 3584 2069 3584 
Q 2775 3584 3186 3129 
Q 3597 2675 3597 1894 
z
M 3022 2063 
Q 3016 2534 2758 2815 
Q 2500 3097 2075 3097 
Q 1594 3097 1305 2825 
Q 1016 2553 972 2059 
L 3022 2063 
z
" id="DejaVuSans-65" transform="scale(0.015625)"/>
       <path d="M 2631 2963 
Q 2534 3019 2420 3045 
Q 2306 3072 2169 3072 
Q 1681 3072 1420 2755 
Q 1159 2438 1159 1844 
L 1159 0 
L 581 0 
L 581 3500 
L 1159 3500 
L 1159 2956 
Q 1341 3275 1631 3429 
Q 1922 3584 2338 3584 
Q 2397 3584 2469 3576 
Q 2541 3569 2628 3553 
L 2631 2963 
z
" id="DejaVuSans-72" transform="scale(0.015625)"/>
       <path d="M 2194 1759 
Q 1497 1759 1228 1600 
Q 959 1441 959 1056 
Q 959 750 1161 570 
Q 1363 391 1709 391 
Q 2188 391 2477 730 
Q 2766 1069 2766 1631 
L 2766 1759 
L 2194 1759 
z
M 3341 1997 
L 3341 0 
L 2766 0 
L 2766 531 
Q 2569 213 2275 61 
Q 1981 -91 1556 -91 
Q 1019 -91 701 211 
Q 384 513 384 1019 
Q 384 1609 779 1909 
Q 1175 2209 1959 2209 
L 2766 2209 
L 2766 2266 
Q 2766 2663 2505 2880 
Q 2244 3097 1772 3097 
Q 1472 3097 1187 3025 
Q 903 2953 641 2809 
L 641 3341 
Q 956 3463 1253 3523 
Q 1550 3584 1831 3584 
Q 2591 3584 2966 3190 
Q 3341 2797 3341 1997 
z
" id="DejaVuSans-61" transform="scale(0.015625)"/>
       <path d="M 603 4863 
L 1178 4863 
L 1178 0 
L 603 0 
L 603 4863 
z
" id="DejaVuSans-6c" transform="scale(0.015625)"/>
       <path id="DejaVuSans-20" transform="scale(0.015625)"/>
       <path d="M 1259 4147 
L 1259 519 
L 2022 519 
Q 2988 519 3436 956 
Q 3884 1394 3884 2338 
Q 3884 3275 3436 3711 
Q 2988 4147 2022 4147 
L 1259 4147 
z
M 628 4666 
L 1925 4666 
Q 3281 4666 3915 4102 
Q 4550 3538 4550 2338 
Q 4550 1131 3912 565 
Q 3275 0 1925 0 
L 628 0 
L 628 4666 
z
" id="DejaVuSans-44" transform="scale(0.015625)"/>
       <path d="M 2906 2969 
L 2906 4863 
L 3481 4863 
L 3481 0 
L 2906 0 
L 2906 525 
Q 2725 213 2448 61 
Q 2172 -91 1784 -91 
Q 1150 -91 751 415 
Q 353 922 353 1747 
Q 353 2572 751 3078 
Q 1150 3584 1784 3584 
Q 2172 3584 2448 3432 
Q 2725 3281 2906 2969 
z
M 947 1747 
Q 947 1113 1208 752 
Q 1469 391 1925 391 
Q 2381 391 2643 752 
Q 2906 1113 2906 1747 
Q 2906 2381 2643 2742 
Q 2381 3103 1925 3103 
Q 1469 3103 1208 2742 
Q 947 2381 947 1747 
z
" id="DejaVuSans-64" transform="scale(0.015625)"/>
       <path d="M 544 1381 
L 544 3500 
L 1119 3500 
L 1119 1403 
Q 1119 906 1312 657 
Q 1506 409 1894 409 
Q 2359 409 2629 706 
Q 2900 1003 2900 1516 
L 2900 3500 
L 3475 3500 
L 3475 0 
L 2900 0 
L 2900 538 
Q 2691 219 2414 64 
Q 2138 -91 1772 -91 
Q 1169 -91 856 284 
Q 544 659 544 1381 
z
M 1991 3584 
L 1991 3584 
z
" id="DejaVuSans-75" transform="scale(0.015625)"/>
       <path d="M 1159 525 
L 1159 -1331 
L 581 -1331 
L 581 3500 
L 1159 3500 
L 1159 2969 
Q 1341 3281 1617 3432 
Q 1894 3584 2278 3584 
Q 2916 3584 3314 3078 
Q 3713 2572 3713 1747 
Q 3713 922 3314 415 
Q 2916 -91 2278 -91 
Q 1894 -91 1617 61 
Q 1341 213 1159 525 
z
M 3116 1747 
Q 3116 2381 2855 2742 
Q 2594 3103 2138 3103 
Q 1681 3103 1420 2742 
Q 1159 2381 1159 1747 
Q 1159 1113 1420 752 
Q 1681 391 2138 391 
Q 2594 391 2855 752 
Q 3116 1113 3116 1747 
z
" id="DejaVuSans-70" transform="scale(0.015625)"/>
       <path d="M 603 3500 
L 1178 3500 
L 1178 0 
L 603 0 
L 603 3500 
z
M 603 4863 
L 1178 4863 
L 1178 4134 
L 603 4134 
L 603 4863 
z
" id="DejaVuSans-69" transform="scale(0.015625)"/>
       <path d="M 3122 3366 
L 3122 2828 
Q 2878 2963 2633 3030 
Q 2388 3097 2138 3097 
Q 1578 3097 1268 2742 
Q 959 2388 959 1747 
Q 959 1106 1268 751 
Q 1578 397 2138 397 
Q 2388 397 2633 464 
Q 2878 531 3122 666 
L 3122 134 
Q 2881 22 2623 -34 
Q 2366 -91 2075 -91 
Q 1284 -91 818 406 
Q 353 903 353 1747 
Q 353 2603 823 3093 
Q 1294 3584 2113 3584 
Q 2378 3584 2631 3529 
Q 2884 3475 3122 3366 
z
" id="DejaVuSans-63" transform="scale(0.015625)"/>
       <path d="M 1172 4494 
L 1172 3500 
L 2356 3500 
L 2356 3053 
L 1172 3053 
L 1172 1153 
Q 1172 725 1289 603 
Q 1406 481 1766 481 
L 2356 481 
L 2356 0 
L 1766 0 
Q 1100 0 847 248 
Q 594 497 594 1153 
L 594 3053 
L 172 3053 
L 172 3500 
L 594 3500 
L 594 4494 
L 1172 4494 
z
" id="DejaVuSans-74" transform="scale(0.015625)"/>
       <path d="M 1959 3097 
Q 1497 3097 1228 2736 
Q 959 2375 959 1747 
Q 959 1119 1226 758 
Q 1494 397 1959 397 
Q 2419 397 2687 759 
Q 2956 1122 2956 1747 
Q 2956 2369 2687 2733 
Q 2419 3097 1959 3097 
z
M 1959 3584 
Q 2709 3584 3137 3096 
Q 3566 2609 3566 1747 
Q 3566 888 3137 398 
Q 2709 -91 1959 -91 
Q 1206 -91 779 398 
Q 353 888 353 1747 
Q 353 2609 779 3096 
Q 1206 3584 1959 3584 
z
" id="DejaVuSans-6f" transform="scale(0.015625)"/>
       <path d="M 3513 2113 
L 3513 0 
L 2938 0 
L 2938 2094 
Q 2938 2591 2744 2837 
Q 2550 3084 2163 3084 
Q 1697 3084 1428 2787 
Q 1159 2491 1159 1978 
L 1159 0 
L 581 0 
L 581 3500 
L 1159 3500 
L 1159 2956 
Q 1366 3272 1645 3428 
Q 1925 3584 2291 3584 
Q 2894 3584 3203 3211 
Q 3513 2838 3513 2113 
z
" id="DejaVuSans-6e" transform="scale(0.015625)"/>
       <path d="M 1984 4856 
Q 1566 4138 1362 3434 
Q 1159 2731 1159 2009 
Q 1159 1288 1364 580 
Q 1569 -128 1984 -844 
L 1484 -844 
Q 1016 -109 783 600 
Q 550 1309 550 2009 
Q 550 2706 781 3412 
Q 1013 4119 1484 4856 
L 1984 4856 
z
" id="DejaVuSans-28" transform="scale(0.015625)"/>
       <path d="M 313 2009 
L 1997 2009 
L 1997 1497 
L 313 1497 
L 313 2009 
z
" id="DejaVuSans-2d" transform="scale(0.015625)"/>
       <path d="M 678 3150 
L 678 3719 
L 4684 2266 
L 4684 1747 
L 678 294 
L 678 863 
L 3897 2003 
L 678 3150 
z
" id="DejaVuSans-3e" transform="scale(0.015625)"/>
       <path d="M 628 4666 
L 1569 4666 
L 2759 1491 
L 3956 4666 
L 4897 4666 
L 4897 0 
L 4281 0 
L 4281 4097 
L 3078 897 
L 2444 897 
L 1241 4097 
L 1241 0 
L 628 0 
L 628 4666 
z
" id="DejaVuSans-4d" transform="scale(0.015625)"/>
       <path d="M 2834 3397 
L 2834 2853 
Q 2591 2978 2328 3040 
Q 2066 3103 1784 3103 
Q 1356 3103 1142 2972 
Q 928 2841 928 2578 
Q 928 2378 1081 2264 
Q 1234 2150 1697 2047 
L 1894 2003 
Q 2506 1872 2764 1633 
Q 3022 1394 3022 966 
Q 3022 478 2636 193 
Q 2250 -91 1575 -91 
Q 1294 -91 989 -36 
Q 684 19 347 128 
L 347 722 
Q 666 556 975 473 
Q 1284 391 1588 391 
Q 1994 391 2212 530 
Q 2431 669 2431 922 
Q 2431 1156 2273 1281 
Q 2116 1406 1581 1522 
L 1381 1569 
Q 847 1681 609 1914 
Q 372 2147 372 2553 
Q 372 3047 722 3315 
Q 1072 3584 1716 3584 
Q 2034 3584 2315 3537 
Q 2597 3491 2834 3397 
z
" id="DejaVuSans-73" transform="scale(0.015625)"/>
       <path d="M 1259 2228 
L 1259 519 
L 2272 519 
Q 2781 519 3026 730 
Q 3272 941 3272 1375 
Q 3272 1813 3026 2020 
Q 2781 2228 2272 2228 
L 1259 2228 
z
M 1259 4147 
L 1259 2741 
L 2194 2741 
Q 2656 2741 2882 2914 
Q 3109 3088 3109 3444 
Q 3109 3797 2882 3972 
Q 2656 4147 2194 4147 
L 1259 4147 
z
M 628 4666 
L 2241 4666 
Q 2963 4666 3353 4366 
Q 3744 4066 3744 3513 
Q 3744 3084 3544 2831 
Q 3344 2578 2956 2516 
Q 3422 2416 3680 2098 
Q 3938 1781 3938 1306 
Q 3938 681 3513 340 
Q 3088 0 2303 0 
L 628 0 
L 628 4666 
z
" id="DejaVuSans-42" transform="scale(0.015625)"/>
       <path d="M 513 4856 
L 1013 4856 
Q 1481 4119 1714 3412 
Q 1947 2706 1947 2009 
Q 1947 1309 1714 600 
Q 1481 -109 1013 -844 
L 513 -844 
Q 928 -128 1133 580 
Q 1338 1288 1338 2009 
Q 1338 2731 1133 3434 
Q 928 4138 513 4856 
z
" id="DejaVuSans-29" transform="scale(0.015625)"/>
      </defs>
      <use xlink:href="#DejaVuSans-4f"/>
      <use x="78.710938" xlink:href="#DejaVuSans-76"/>
      <use x="137.890625" xlink:href="#DejaVuSans-65"/>
      <use x="199.414062" xlink:href="#DejaVuSans-72"/>
      <use x="240.527344" xlink:href="#DejaVuSans-61"/>
      <use x="301.806641" xlink:href="#DejaVuSans-6c"/>
      <use x="329.589844" xlink:href="#DejaVuSans-6c"/>
      <use x="357.373047" xlink:href="#DejaVuSans-20"/>
      <use x="389.160156" xlink:href="#DejaVuSans-44"/>
      <use x="466.162109" xlink:href="#DejaVuSans-65"/>
      <use x="527.685547" xlink:href="#DejaVuSans-64"/>
      <use x="591.162109" xlink:href="#DejaVuSans-75"/>
      <use x="654.541016" xlink:href="#DejaVuSans-70"/>
      <use x="718.017578" xlink:href="#DejaVuSans-6c"/>
      <use x="745.800781" xlink:href="#DejaVuSans-69"/>
      <use x="773.583984" xlink:href="#DejaVuSans-63"/>
      <use x="828.564453" xlink:href="#DejaVuSans-61"/>
      <use x="889.84375" xlink:href="#DejaVuSans-74"/>
      <use x="929.052734" xlink:href="#DejaVuSans-69"/>
      <use x="956.835938" xlink:href="#DejaVuSans-6f"/>
      <use x="1018.017578" xlink:href="#DejaVuSans-6e"/>
      <use x="1081.396484" xlink:href="#DejaVuSans-20"/>
      <use x="1113.183594" xlink:href="#DejaVuSans-28"/>
      <use x="1152.197266" xlink:href="#DejaVuSans-2d"/>
      <use x="1188.28125" xlink:href="#DejaVuSans-2d"/>
      <use x="1224.365234" xlink:href="#DejaVuSans-2d"/>
      <use x="1260.449219" xlink:href="#DejaVuSans-2d"/>
      <use x="1296.533203" xlink:href="#DejaVuSans-3e"/>
      <use x="1380.322266" xlink:href="#DejaVuSans-20"/>
      <use x="1412.109375" xlink:href="#DejaVuSans-4d"/>
      <use x="1498.388672" xlink:href="#DejaVuSans-6f"/>
      <use x="1559.570312" xlink:href="#DejaVuSans-72"/>
      <use x="1598.433594" xlink:href="#DejaVuSans-65"/>
      <use x="1659.957031" xlink:href="#DejaVuSans-20"/>
      <use x="1691.744141" xlink:href="#DejaVuSans-69"/>
      <use x="1719.527344" xlink:href="#DejaVuSans-73"/>
      <use x="1771.626953" xlink:href="#DejaVuSans-20"/>
      <use x="1803.414062" xlink:href="#DejaVuSans-42"/>
      <use x="1872.017578" xlink:href="#DejaVuSans-65"/>
      <use x="1933.541016" xlink:href="#DejaVuSans-74"/>
      <use x="1972.75" xlink:href="#DejaVuSans-74"/>
      <use x="2011.958984" xlink:href="#DejaVuSans-65"/>
      <use x="2073.482422" xlink:href="#DejaVuSans-72"/>
      <use x="2114.595703" xlink:href="#DejaVuSans-29"/>
     </g>
    </g>
   </g>
   <g id="matplotlib.axis_2">
    <g id="ytick_1">
     <g id="line2d_9">
      <defs>
       <path d="M 0 0 
L -3.5 0 
" id="m319dc30b7e" style="stroke:#000000;stroke-width:0.8;"/>
      </defs>
      <g>
       <use style="stroke:#000000;stroke-width:0.8;" x="108" xlink:href="#m319dc30b7e" y="510.823829"/>
      </g>
     </g>
     <g id="text_10">
      <!-- 0 -->
      <g transform="translate(94.6375 514.623048)scale(0.1 -0.1)">
       <use xlink:href="#DejaVuSans-30"/>
      </g>
     </g>
    </g>
    <g id="ytick_2">
     <g id="line2d_10">
      <g>
       <use style="stroke:#000000;stroke-width:0.8;" x="108" xlink:href="#m319dc30b7e" y="438.855394"/>
      </g>
     </g>
     <g id="text_11">
      <!-- 1 -->
      <g transform="translate(94.6375 442.654613)scale(0.1 -0.1)">
       <use xlink:href="#DejaVuSans-31"/>
      </g>
     </g>
    </g>
    <g id="ytick_3">
     <g id="line2d_11">
      <g>
       <use style="stroke:#000000;stroke-width:0.8;" x="108" xlink:href="#m319dc30b7e" y="366.886959"/>
      </g>
     </g>
     <g id="text_12">
      <!-- 2 -->
      <g transform="translate(94.6375 370.686178)scale(0.1 -0.1)">
       <defs>
        <path d="M 1228 531 
L 3431 531 
L 3431 0 
L 469 0 
L 469 531 
Q 828 903 1448 1529 
Q 2069 2156 2228 2338 
Q 2531 2678 2651 2914 
Q 2772 3150 2772 3378 
Q 2772 3750 2511 3984 
Q 2250 4219 1831 4219 
Q 1534 4219 1204 4116 
Q 875 4013 500 3803 
L 500 4441 
Q 881 4594 1212 4672 
Q 1544 4750 1819 4750 
Q 2544 4750 2975 4387 
Q 3406 4025 3406 3419 
Q 3406 3131 3298 2873 
Q 3191 2616 2906 2266 
Q 2828 2175 2409 1742 
Q 1991 1309 1228 531 
z
" id="DejaVuSans-32" transform="scale(0.015625)"/>
       </defs>
       <use xlink:href="#DejaVuSans-32"/>
      </g>
     </g>
    </g>
    <g id="ytick_4">
     <g id="line2d_12">
      <g>
       <use style="stroke:#000000;stroke-width:0.8;" x="108" xlink:href="#m319dc30b7e" y="294.918524"/>
      </g>
     </g>
     <g id="text_13">
      <!-- 3 -->
      <g transform="translate(94.6375 298.717743)scale(0.1 -0.1)">
       <defs>
        <path d="M 2597 2516 
Q 3050 2419 3304 2112 
Q 3559 1806 3559 1356 
Q 3559 666 3084 287 
Q 2609 -91 1734 -91 
Q 1441 -91 1130 -33 
Q 819 25 488 141 
L 488 750 
Q 750 597 1062 519 
Q 1375 441 1716 441 
Q 2309 441 2620 675 
Q 2931 909 2931 1356 
Q 2931 1769 2642 2001 
Q 2353 2234 1838 2234 
L 1294 2234 
L 1294 2753 
L 1863 2753 
Q 2328 2753 2575 2939 
Q 2822 3125 2822 3475 
Q 2822 3834 2567 4026 
Q 2313 4219 1838 4219 
Q 1578 4219 1281 4162 
Q 984 4106 628 3988 
L 628 4550 
Q 988 4650 1302 4700 
Q 1616 4750 1894 4750 
Q 2613 4750 3031 4423 
Q 3450 4097 3450 3541 
Q 3450 3153 3228 2886 
Q 3006 2619 2597 2516 
z
" id="DejaVuSans-33" transform="scale(0.015625)"/>
       </defs>
       <use xlink:href="#DejaVuSans-33"/>
      </g>
     </g>
    </g>
    <g id="ytick_5">
     <g id="line2d_13">
      <g>
       <use style="stroke:#000000;stroke-width:0.8;" x="108" xlink:href="#m319dc30b7e" y="222.950089"/>
      </g>
     </g>
     <g id="text_14">
      <!-- 4 -->
      <g transform="translate(94.6375 226.749308)scale(0.1 -0.1)">
       <defs>
        <path d="M 2419 4116 
L 825 1625 
L 2419 1625 
L 2419 4116 
z
M 2253 4666 
L 3047 4666 
L 3047 1625 
L 3713 1625 
L 3713 1100 
L 3047 1100 
L 3047 0 
L 2419 0 
L 2419 1100 
L 313 1100 
L 313 1709 
L 2253 4666 
z
" id="DejaVuSans-34" transform="scale(0.015625)"/>
       </defs>
       <use xlink:href="#DejaVuSans-34"/>
      </g>
     </g>
    </g>
    <g id="ytick_6">
     <g id="line2d_14">
      <g>
       <use style="stroke:#000000;stroke-width:0.8;" x="108" xlink:href="#m319dc30b7e" y="150.981654"/>
      </g>
     </g>
     <g id="text_15">
      <!-- 5 -->
      <g transform="translate(94.6375 154.780872)scale(0.1 -0.1)">
       <use xlink:href="#DejaVuSans-35"/>
      </g>
     </g>
    </g>
    <g id="ytick_7">
     <g id="line2d_15">
      <g>
       <use style="stroke:#000000;stroke-width:0.8;" x="108" xlink:href="#m319dc30b7e" y="79.013218"/>
      </g>
     </g>
     <g id="text_16">
      <!-- 6 -->
      <g transform="translate(94.6375 82.812437)scale(0.1 -0.1)">
       <defs>
        <path d="M 2113 2584 
Q 1688 2584 1439 2293 
Q 1191 2003 1191 1497 
Q 1191 994 1439 701 
Q 1688 409 2113 409 
Q 2538 409 2786 701 
Q 3034 994 3034 1497 
Q 3034 2003 2786 2293 
Q 2538 2584 2113 2584 
z
M 3366 4563 
L 3366 3988 
Q 3128 4100 2886 4159 
Q 2644 4219 2406 4219 
Q 1781 4219 1451 3797 
Q 1122 3375 1075 2522 
Q 1259 2794 1537 2939 
Q 1816 3084 2150 3084 
Q 2853 3084 3261 2657 
Q 3669 2231 3669 1497 
Q 3669 778 3244 343 
Q 2819 -91 2113 -91 
Q 1303 -91 875 529 
Q 447 1150 447 2328 
Q 447 3434 972 4092 
Q 1497 4750 2381 4750 
Q 2619 4750 2861 4703 
Q 3103 4656 3366 4563 
z
" id="DejaVuSans-36" transform="scale(0.015625)"/>
       </defs>
       <use xlink:href="#DejaVuSans-36"/>
      </g>
     </g>
    </g>
    <g id="text_17">
     <!-- (&lt;- - - - Less is Better) Standard Deviation of Total Pod Logical Bytes -->
     <g transform="translate(88.557812 456.397187)rotate(-90)scale(0.1 -0.1)">
      <defs>
       <path d="M 4684 3150 
L 1459 2003 
L 4684 863 
L 4684 294 
L 678 1747 
L 678 2266 
L 4684 3719 
L 4684 3150 
z
" id="DejaVuSans-3c" transform="scale(0.015625)"/>
       <path d="M 628 4666 
L 1259 4666 
L 1259 531 
L 3531 531 
L 3531 0 
L 628 0 
L 628 4666 
z
" id="DejaVuSans-4c" transform="scale(0.015625)"/>
       <path d="M 3425 4513 
L 3425 3897 
Q 3066 4069 2747 4153 
Q 2428 4238 2131 4238 
Q 1616 4238 1336 4038 
Q 1056 3838 1056 3469 
Q 1056 3159 1242 3001 
Q 1428 2844 1947 2747 
L 2328 2669 
Q 3034 2534 3370 2195 
Q 3706 1856 3706 1288 
Q 3706 609 3251 259 
Q 2797 -91 1919 -91 
Q 1588 -91 1214 -16 
Q 841 59 441 206 
L 441 856 
Q 825 641 1194 531 
Q 1563 422 1919 422 
Q 2459 422 2753 634 
Q 3047 847 3047 1241 
Q 3047 1584 2836 1778 
Q 2625 1972 2144 2069 
L 1759 2144 
Q 1053 2284 737 2584 
Q 422 2884 422 3419 
Q 422 4038 858 4394 
Q 1294 4750 2059 4750 
Q 2388 4750 2728 4690 
Q 3069 4631 3425 4513 
z
" id="DejaVuSans-53" transform="scale(0.015625)"/>
       <path d="M 2375 4863 
L 2375 4384 
L 1825 4384 
Q 1516 4384 1395 4259 
Q 1275 4134 1275 3809 
L 1275 3500 
L 2222 3500 
L 2222 3053 
L 1275 3053 
L 1275 0 
L 697 0 
L 697 3053 
L 147 3053 
L 147 3500 
L 697 3500 
L 697 3744 
Q 697 4328 969 4595 
Q 1241 4863 1831 4863 
L 2375 4863 
z
" id="DejaVuSans-66" transform="scale(0.015625)"/>
       <path d="M -19 4666 
L 3928 4666 
L 3928 4134 
L 2272 4134 
L 2272 0 
L 1638 0 
L 1638 4134 
L -19 4134 
L -19 4666 
z
" id="DejaVuSans-54" transform="scale(0.015625)"/>
       <path d="M 1259 4147 
L 1259 2394 
L 2053 2394 
Q 2494 2394 2734 2622 
Q 2975 2850 2975 3272 
Q 2975 3691 2734 3919 
Q 2494 4147 2053 4147 
L 1259 4147 
z
M 628 4666 
L 2053 4666 
Q 2838 4666 3239 4311 
Q 3641 3956 3641 3272 
Q 3641 2581 3239 2228 
Q 2838 1875 2053 1875 
L 1259 1875 
L 1259 0 
L 628 0 
L 628 4666 
z
" id="DejaVuSans-50" transform="scale(0.015625)"/>
       <path d="M 2906 1791 
Q 2906 2416 2648 2759 
Q 2391 3103 1925 3103 
Q 1463 3103 1205 2759 
Q 947 2416 947 1791 
Q 947 1169 1205 825 
Q 1463 481 1925 481 
Q 2391 481 2648 825 
Q 2906 1169 2906 1791 
z
M 3481 434 
Q 3481 -459 3084 -895 
Q 2688 -1331 1869 -1331 
Q 1566 -1331 1297 -1286 
Q 1028 -1241 775 -1147 
L 775 -588 
Q 1028 -725 1275 -790 
Q 1522 -856 1778 -856 
Q 2344 -856 2625 -561 
Q 2906 -266 2906 331 
L 2906 616 
Q 2728 306 2450 153 
Q 2172 0 1784 0 
Q 1141 0 747 490 
Q 353 981 353 1791 
Q 353 2603 747 3093 
Q 1141 3584 1784 3584 
Q 2172 3584 2450 3431 
Q 2728 3278 2906 2969 
L 2906 3500 
L 3481 3500 
L 3481 434 
z
" id="DejaVuSans-67" transform="scale(0.015625)"/>
       <path d="M 2059 -325 
Q 1816 -950 1584 -1140 
Q 1353 -1331 966 -1331 
L 506 -1331 
L 506 -850 
L 844 -850 
Q 1081 -850 1212 -737 
Q 1344 -625 1503 -206 
L 1606 56 
L 191 3500 
L 800 3500 
L 1894 763 
L 2988 3500 
L 3597 3500 
L 2059 -325 
z
" id="DejaVuSans-79" transform="scale(0.015625)"/>
      </defs>
      <use xlink:href="#DejaVuSans-28"/>
      <use x="39.013672" xlink:href="#DejaVuSans-3c"/>
      <use x="122.802734" xlink:href="#DejaVuSans-2d"/>
      <use x="158.886719" xlink:href="#DejaVuSans-2d"/>
      <use x="194.970703" xlink:href="#DejaVuSans-2d"/>
      <use x="231.054688" xlink:href="#DejaVuSans-2d"/>
      <use x="267.138672" xlink:href="#DejaVuSans-20"/>
      <use x="298.925781" xlink:href="#DejaVuSans-4c"/>
      <use x="352.888672" xlink:href="#DejaVuSans-65"/>
      <use x="414.412109" xlink:href="#DejaVuSans-73"/>
      <use x="466.511719" xlink:href="#DejaVuSans-73"/>
      <use x="518.611328" xlink:href="#DejaVuSans-20"/>
      <use x="550.398438" xlink:href="#DejaVuSans-69"/>
      <use x="578.181641" xlink:href="#DejaVuSans-73"/>
      <use x="630.28125" xlink:href="#DejaVuSans-20"/>
      <use x="662.068359" xlink:href="#DejaVuSans-42"/>
      <use x="730.671875" xlink:href="#DejaVuSans-65"/>
      <use x="792.195312" xlink:href="#DejaVuSans-74"/>
      <use x="831.404297" xlink:href="#DejaVuSans-74"/>
      <use x="870.613281" xlink:href="#DejaVuSans-65"/>
      <use x="932.136719" xlink:href="#DejaVuSans-72"/>
      <use x="973.25" xlink:href="#DejaVuSans-29"/>
      <use x="1012.263672" xlink:href="#DejaVuSans-20"/>
      <use x="1044.050781" xlink:href="#DejaVuSans-53"/>
      <use x="1107.527344" xlink:href="#DejaVuSans-74"/>
      <use x="1146.736328" xlink:href="#DejaVuSans-61"/>
      <use x="1208.015625" xlink:href="#DejaVuSans-6e"/>
      <use x="1271.394531" xlink:href="#DejaVuSans-64"/>
      <use x="1334.871094" xlink:href="#DejaVuSans-61"/>
      <use x="1396.150391" xlink:href="#DejaVuSans-72"/>
      <use x="1435.513672" xlink:href="#DejaVuSans-64"/>
      <use x="1498.990234" xlink:href="#DejaVuSans-20"/>
      <use x="1530.777344" xlink:href="#DejaVuSans-44"/>
      <use x="1607.779297" xlink:href="#DejaVuSans-65"/>
      <use x="1669.302734" xlink:href="#DejaVuSans-76"/>
      <use x="1728.482422" xlink:href="#DejaVuSans-69"/>
      <use x="1756.265625" xlink:href="#DejaVuSans-61"/>
      <use x="1817.544922" xlink:href="#DejaVuSans-74"/>
      <use x="1856.753906" xlink:href="#DejaVuSans-69"/>
      <use x="1884.537109" xlink:href="#DejaVuSans-6f"/>
      <use x="1945.71875" xlink:href="#DejaVuSans-6e"/>
      <use x="2009.097656" xlink:href="#DejaVuSans-20"/>
      <use x="2040.884766" xlink:href="#DejaVuSans-6f"/>
      <use x="2102.066406" xlink:href="#DejaVuSans-66"/>
      <use x="2137.271484" xlink:href="#DejaVuSans-20"/>
      <use x="2169.058594" xlink:href="#DejaVuSans-54"/>
      <use x="2213.142578" xlink:href="#DejaVuSans-6f"/>
      <use x="2274.324219" xlink:href="#DejaVuSans-74"/>
      <use x="2313.533203" xlink:href="#DejaVuSans-61"/>
      <use x="2374.8125" xlink:href="#DejaVuSans-6c"/>
      <use x="2402.595703" xlink:href="#DejaVuSans-20"/>
      <use x="2434.382812" xlink:href="#DejaVuSans-50"/>
      <use x="2491.060547" xlink:href="#DejaVuSans-6f"/>
      <use x="2552.242188" xlink:href="#DejaVuSans-64"/>
      <use x="2615.71875" xlink:href="#DejaVuSans-20"/>
      <use x="2647.505859" xlink:href="#DejaVuSans-4c"/>
      <use x="2701.46875" xlink:href="#DejaVuSans-6f"/>
      <use x="2762.650391" xlink:href="#DejaVuSans-67"/>
      <use x="2826.126953" xlink:href="#DejaVuSans-69"/>
      <use x="2853.910156" xlink:href="#DejaVuSans-63"/>
      <use x="2908.890625" xlink:href="#DejaVuSans-61"/>
      <use x="2970.169922" xlink:href="#DejaVuSans-6c"/>
      <use x="2997.953125" xlink:href="#DejaVuSans-20"/>
      <use x="3029.740234" xlink:href="#DejaVuSans-42"/>
      <use x="3098.34375" xlink:href="#DejaVuSans-79"/>
      <use x="3157.523438" xlink:href="#DejaVuSans-74"/>
      <use x="3196.732422" xlink:href="#DejaVuSans-65"/>
      <use x="3258.255859" xlink:href="#DejaVuSans-73"/>
     </g>
    </g>
    <g id="text_18">
     <!-- 1e10 -->
     <g transform="translate(108 66.12)scale(0.1 -0.1)">
      <use xlink:href="#DejaVuSans-31"/>
      <use x="63.623047" xlink:href="#DejaVuSans-65"/>
      <use x="125.146484" xlink:href="#DejaVuSans-31"/>
      <use x="188.769531" xlink:href="#DejaVuSans-30"/>
     </g>
    </g>
   </g>
   <g id="line2d_16">
    <path clip-path="url(#p2759395cec)" d="M 586.029947 433.273297 
L 675.548663 108.195053 
" style="fill:none;stroke:#1f77b4;stroke-linecap:square;stroke-width:1.5;"/>
   </g>
   <g id="line2d_17">
    <path clip-path="url(#p2759395cec)" d="M 657.64492 475.645052 
L 657.64492 480.694552 
L 729.259893 111.771175 
" style="fill:none;stroke:#ff7f0e;stroke-linecap:square;stroke-width:1.5;"/>
   </g>
   <g id="line2d_18">
    <path clip-path="url(#p2759395cec)" d="M 371.185027 419.350813 
L 693.452406 89.28 
" style="fill:none;stroke:#2ca02c;stroke-linecap:square;stroke-width:1.5;"/>
   </g>
   <g id="line2d_19">
    <path clip-path="url(#p2759395cec)" d="M 138.436364 466.363615 
L 442.8 410.291168 
L 747.163636 101.382903 
" style="fill:none;stroke:#d62728;stroke-linecap:square;stroke-width:1.5;"/>
   </g>
   <g id="line2d_20">
    <path clip-path="url(#p2759395cec)" d="M 568.126203 417.480228 
L 675.548663 95.355299 
" style="fill:none;stroke:#9467bd;stroke-linecap:square;stroke-width:1.5;"/>
   </g>
   <g id="line2d_21">
    <path clip-path="url(#p2759395cec)" d="M 550.22246 492.48 
L 621.837433 417.555516 
L 729.259893 120.131595 
" style="fill:none;stroke:#8c564b;stroke-linecap:square;stroke-width:1.5;"/>
   </g>
   <g id="patch_3">
    <path d="M 108 512.64 
L 108 69.12 
" style="fill:none;stroke:#000000;stroke-linecap:square;stroke-linejoin:miter;stroke-width:0.8;"/>
   </g>
   <g id="patch_4">
    <path d="M 777.6 512.64 
L 777.6 69.12 
" style="fill:none;stroke:#000000;stroke-linecap:square;stroke-linejoin:miter;stroke-width:0.8;"/>
   </g>
   <g id="patch_5">
    <path d="M 108 512.64 
L 777.6 512.64 
" style="fill:none;stroke:#000000;stroke-linecap:square;stroke-linejoin:miter;stroke-width:0.8;"/>
   </g>
   <g id="patch_6">
    <path d="M 108 69.12 
L 777.6 69.12 
" style="fill:none;stroke:#000000;stroke-linecap:square;stroke-linejoin:miter;stroke-width:0.8;"/>
   </g>
   <g id="text_19">
    <!-- w/Q+penalty -->
    <g transform="translate(550.22246 492.48)scale(0.1 -0.1)">
     <defs>
      <path d="M 269 3500 
L 844 3500 
L 1563 769 
L 2278 3500 
L 2956 3500 
L 3675 769 
L 4391 3500 
L 4966 3500 
L 4050 0 
L 3372 0 
L 2619 2869 
L 1863 0 
L 1184 0 
L 269 3500 
z
" id="DejaVuSans-77" transform="scale(0.015625)"/>
      <path d="M 1625 4666 
L 2156 4666 
L 531 -594 
L 0 -594 
L 1625 4666 
z
" id="DejaVuSans-2f" transform="scale(0.015625)"/>
      <path d="M 2522 4238 
Q 1834 4238 1429 3725 
Q 1025 3213 1025 2328 
Q 1025 1447 1429 934 
Q 1834 422 2522 422 
Q 3209 422 3611 934 
Q 4013 1447 4013 2328 
Q 4013 3213 3611 3725 
Q 3209 4238 2522 4238 
z
M 3406 84 
L 4238 -825 
L 3475 -825 
L 2784 -78 
Q 2681 -84 2626 -87 
Q 2572 -91 2522 -91 
Q 1538 -91 948 567 
Q 359 1225 359 2328 
Q 359 3434 948 4092 
Q 1538 4750 2522 4750 
Q 3503 4750 4090 4092 
Q 4678 3434 4678 2328 
Q 4678 1516 4351 937 
Q 4025 359 3406 84 
z
" id="DejaVuSans-51" transform="scale(0.015625)"/>
      <path d="M 2944 4013 
L 2944 2272 
L 4684 2272 
L 4684 1741 
L 2944 1741 
L 2944 0 
L 2419 0 
L 2419 1741 
L 678 1741 
L 678 2272 
L 2419 2272 
L 2419 4013 
L 2944 4013 
z
" id="DejaVuSans-2b" transform="scale(0.015625)"/>
     </defs>
     <use xlink:href="#DejaVuSans-77"/>
     <use x="81.787109" xlink:href="#DejaVuSans-2f"/>
     <use x="115.478516" xlink:href="#DejaVuSans-51"/>
     <use x="194.189453" xlink:href="#DejaVuSans-2b"/>
     <use x="277.978516" xlink:href="#DejaVuSans-70"/>
     <use x="341.455078" xlink:href="#DejaVuSans-65"/>
     <use x="402.978516" xlink:href="#DejaVuSans-6e"/>
     <use x="466.357422" xlink:href="#DejaVuSans-61"/>
     <use x="527.636719" xlink:href="#DejaVuSans-6c"/>
     <use x="555.419922" xlink:href="#DejaVuSans-74"/>
     <use x="594.628906" xlink:href="#DejaVuSans-79"/>
    </g>
   </g>
   <g id="text_20">
    <!-- w/Q -->
    <g transform="translate(621.837433 417.555516)scale(0.1 -0.1)">
     <use xlink:href="#DejaVuSans-77"/>
     <use x="81.787109" xlink:href="#DejaVuSans-2f"/>
     <use x="115.478516" xlink:href="#DejaVuSans-51"/>
    </g>
   </g>
   <g id="text_21">
    <!-- w/Q -->
    <g transform="translate(568.126203 417.480228)scale(0.1 -0.1)">
     <use xlink:href="#DejaVuSans-77"/>
     <use x="81.787109" xlink:href="#DejaVuSans-2f"/>
     <use x="115.478516" xlink:href="#DejaVuSans-51"/>
    </g>
   </g>
   <g id="text_22">
    <!-- w/Q+penalty -->
    <g transform="translate(138.436364 466.363615)scale(0.1 -0.1)">
     <use xlink:href="#DejaVuSans-77"/>
     <use x="81.787109" xlink:href="#DejaVuSans-2f"/>
     <use x="115.478516" xlink:href="#DejaVuSans-51"/>
     <use x="194.189453" xlink:href="#DejaVuSans-2b"/>
     <use x="277.978516" xlink:href="#DejaVuSans-70"/>
     <use x="341.455078" xlink:href="#DejaVuSans-65"/>
     <use x="402.978516" xlink:href="#DejaVuSans-6e"/>
     <use x="466.357422" xlink:href="#DejaVuSans-61"/>
     <use x="527.636719" xlink:href="#DejaVuSans-6c"/>
     <use x="555.419922" xlink:href="#DejaVuSans-74"/>
     <use x="594.628906" xlink:href="#DejaVuSans-79"/>
    </g>
   </g>
   <g id="text_23">
    <!-- w/Q -->
    <g transform="translate(442.8 410.291168)scale(0.1 -0.1)">
     <use xlink:href="#DejaVuSans-77"/>
     <use x="81.787109" xlink:href="#DejaVuSans-2f"/>
     <use x="115.478516" xlink:href="#DejaVuSans-51"/>
    </g>
   </g>
   <g id="text_24">
    <!-- w/Q -->
    <g transform="translate(371.185027 419.350813)scale(0.1 -0.1)">
     <use xlink:href="#DejaVuSans-77"/>
     <use x="81.787109" xlink:href="#DejaVuSans-2f"/>
     <use x="115.478516" xlink:href="#DejaVuSans-51"/>
    </g>
   </g>
   <g id="text_25">
    <!-- w/Q+penalty -->
    <g transform="translate(657.64492 475.645052)scale(0.1 -0.1)">
     <use xlink:href="#DejaVuSans-77"/>
     <use x="81.787109" xlink:href="#DejaVuSans-2f"/>
     <use x="115.478516" xlink:href="#DejaVuSans-51"/>
     <use x="194.189453" xlink:href="#DejaVuSans-2b"/>
     <use x="277.978516" xlink:href="#DejaVuSans-70"/>
     <use x="341.455078" xlink:href="#DejaVuSans-65"/>
     <use x="402.978516" xlink:href="#DejaVuSans-6e"/>
     <use x="466.357422" xlink:href="#DejaVuSans-61"/>
     <use x="527.636719" xlink:href="#DejaVuSans-6c"/>
     <use x="555.419922" xlink:href="#DejaVuSans-74"/>
     <use x="594.628906" xlink:href="#DejaVuSans-79"/>
    </g>
   </g>
   <g id="text_26">
    <!-- w/Q -->
    <g transform="translate(657.64492 480.694552)scale(0.1 -0.1)">
     <use xlink:href="#DejaVuSans-77"/>
     <use x="81.787109" xlink:href="#DejaVuSans-2f"/>
     <use x="115.478516" xlink:href="#DejaVuSans-51"/>
    </g>
   </g>
   <g id="text_27">
    <!-- w/Q -->
    <g transform="translate(586.029947 433.273297)scale(0.1 -0.1)">
     <use xlink:href="#DejaVuSans-77"/>
     <use x="81.787109" xlink:href="#DejaVuSans-2f"/>
     <use x="115.478516" xlink:href="#DejaVuSans-51"/>
    </g>
   </g>
   <g id="text_28">
    <!-- Dataset 3 Overall Pod Logical Skew -->
    <g transform="translate(336.935625 63.12)scale(0.12 -0.12)">
     <defs>
      <path d="M 581 4863 
L 1159 4863 
L 1159 1991 
L 2875 3500 
L 3609 3500 
L 1753 1863 
L 3688 0 
L 2938 0 
L 1159 1709 
L 1159 0 
L 581 0 
L 581 4863 
z
" id="DejaVuSans-6b" transform="scale(0.015625)"/>
     </defs>
     <use xlink:href="#DejaVuSans-44"/>
     <use x="77.001953" xlink:href="#DejaVuSans-61"/>
     <use x="138.28125" xlink:href="#DejaVuSans-74"/>
     <use x="177.490234" xlink:href="#DejaVuSans-61"/>
     <use x="238.769531" xlink:href="#DejaVuSans-73"/>
     <use x="290.869141" xlink:href="#DejaVuSans-65"/>
     <use x="352.392578" xlink:href="#DejaVuSans-74"/>
     <use x="391.601562" xlink:href="#DejaVuSans-20"/>
     <use x="423.388672" xlink:href="#DejaVuSans-33"/>
     <use x="487.011719" xlink:href="#DejaVuSans-20"/>
     <use x="518.798828" xlink:href="#DejaVuSans-4f"/>
     <use x="597.509766" xlink:href="#DejaVuSans-76"/>
     <use x="656.689453" xlink:href="#DejaVuSans-65"/>
     <use x="718.212891" xlink:href="#DejaVuSans-72"/>
     <use x="759.326172" xlink:href="#DejaVuSans-61"/>
     <use x="820.605469" xlink:href="#DejaVuSans-6c"/>
     <use x="848.388672" xlink:href="#DejaVuSans-6c"/>
     <use x="876.171875" xlink:href="#DejaVuSans-20"/>
     <use x="907.958984" xlink:href="#DejaVuSans-50"/>
     <use x="964.636719" xlink:href="#DejaVuSans-6f"/>
     <use x="1025.818359" xlink:href="#DejaVuSans-64"/>
     <use x="1089.294922" xlink:href="#DejaVuSans-20"/>
     <use x="1121.082031" xlink:href="#DejaVuSans-4c"/>
     <use x="1175.044922" xlink:href="#DejaVuSans-6f"/>
     <use x="1236.226562" xlink:href="#DejaVuSans-67"/>
     <use x="1299.703125" xlink:href="#DejaVuSans-69"/>
     <use x="1327.486328" xlink:href="#DejaVuSans-63"/>
     <use x="1382.466797" xlink:href="#DejaVuSans-61"/>
     <use x="1443.746094" xlink:href="#DejaVuSans-6c"/>
     <use x="1471.529297" xlink:href="#DejaVuSans-20"/>
     <use x="1503.316406" xlink:href="#DejaVuSans-53"/>
     <use x="1566.792969" xlink:href="#DejaVuSans-6b"/>
     <use x="1621.078125" xlink:href="#DejaVuSans-65"/>
     <use x="1682.601562" xlink:href="#DejaVuSans-77"/>
    </g>
   </g>
   <g id="legend_1">
    <g id="patch_7">
     <path d="M 115 166.8575 
L 499.078125 166.8575 
Q 501.078125 166.8575 501.078125 164.8575 
L 501.078125 76.12 
Q 501.078125 74.12 499.078125 74.12 
L 115 74.12 
Q 113 74.12 113 76.12 
L 113 164.8575 
Q 113 166.8575 115 166.8575 
z
" style="fill:#ffffff;opacity:0.8;stroke:#cccccc;stroke-linejoin:miter;"/>
    </g>
    <g id="line2d_22">
     <path d="M 117 82.218438 
L 137 82.218438 
" style="fill:none;stroke:#1f77b4;stroke-linecap:square;stroke-width:1.5;"/>
    </g>
    <g id="line2d_23"/>
    <g id="text_29">
     <!-- Data3, 1024 domains, 4MB CONTENT-DEFINED, FIRST_FINGERPRINT_7 -->
     <g transform="translate(145 85.718438)scale(0.1 -0.1)">
      <defs>
       <path d="M 750 794 
L 1409 794 
L 1409 256 
L 897 -744 
L 494 -744 
L 750 256 
L 750 794 
z
" id="DejaVuSans-2c" transform="scale(0.015625)"/>
       <path d="M 3328 2828 
Q 3544 3216 3844 3400 
Q 4144 3584 4550 3584 
Q 5097 3584 5394 3201 
Q 5691 2819 5691 2113 
L 5691 0 
L 5113 0 
L 5113 2094 
Q 5113 2597 4934 2840 
Q 4756 3084 4391 3084 
Q 3944 3084 3684 2787 
Q 3425 2491 3425 1978 
L 3425 0 
L 2847 0 
L 2847 2094 
Q 2847 2600 2669 2842 
Q 2491 3084 2119 3084 
Q 1678 3084 1418 2786 
Q 1159 2488 1159 1978 
L 1159 0 
L 581 0 
L 581 3500 
L 1159 3500 
L 1159 2956 
Q 1356 3278 1631 3431 
Q 1906 3584 2284 3584 
Q 2666 3584 2933 3390 
Q 3200 3197 3328 2828 
z
" id="DejaVuSans-6d" transform="scale(0.015625)"/>
       <path d="M 4122 4306 
L 4122 3641 
Q 3803 3938 3442 4084 
Q 3081 4231 2675 4231 
Q 1875 4231 1450 3742 
Q 1025 3253 1025 2328 
Q 1025 1406 1450 917 
Q 1875 428 2675 428 
Q 3081 428 3442 575 
Q 3803 722 4122 1019 
L 4122 359 
Q 3791 134 3420 21 
Q 3050 -91 2638 -91 
Q 1578 -91 968 557 
Q 359 1206 359 2328 
Q 359 3453 968 4101 
Q 1578 4750 2638 4750 
Q 3056 4750 3426 4639 
Q 3797 4528 4122 4306 
z
" id="DejaVuSans-43" transform="scale(0.015625)"/>
       <path d="M 628 4666 
L 1478 4666 
L 3547 763 
L 3547 4666 
L 4159 4666 
L 4159 0 
L 3309 0 
L 1241 3903 
L 1241 0 
L 628 0 
L 628 4666 
z
" id="DejaVuSans-4e" transform="scale(0.015625)"/>
       <path d="M 628 4666 
L 3578 4666 
L 3578 4134 
L 1259 4134 
L 1259 2753 
L 3481 2753 
L 3481 2222 
L 1259 2222 
L 1259 531 
L 3634 531 
L 3634 0 
L 628 0 
L 628 4666 
z
" id="DejaVuSans-45" transform="scale(0.015625)"/>
       <path d="M 628 4666 
L 3309 4666 
L 3309 4134 
L 1259 4134 
L 1259 2759 
L 3109 2759 
L 3109 2228 
L 1259 2228 
L 1259 0 
L 628 0 
L 628 4666 
z
" id="DejaVuSans-46" transform="scale(0.015625)"/>
       <path d="M 628 4666 
L 1259 4666 
L 1259 0 
L 628 0 
L 628 4666 
z
" id="DejaVuSans-49" transform="scale(0.015625)"/>
       <path d="M 2841 2188 
Q 3044 2119 3236 1894 
Q 3428 1669 3622 1275 
L 4263 0 
L 3584 0 
L 2988 1197 
Q 2756 1666 2539 1819 
Q 2322 1972 1947 1972 
L 1259 1972 
L 1259 0 
L 628 0 
L 628 4666 
L 2053 4666 
Q 2853 4666 3247 4331 
Q 3641 3997 3641 3322 
Q 3641 2881 3436 2590 
Q 3231 2300 2841 2188 
z
M 1259 4147 
L 1259 2491 
L 2053 2491 
Q 2509 2491 2742 2702 
Q 2975 2913 2975 3322 
Q 2975 3731 2742 3939 
Q 2509 4147 2053 4147 
L 1259 4147 
z
" id="DejaVuSans-52" transform="scale(0.015625)"/>
       <path d="M 3263 -1063 
L 3263 -1509 
L -63 -1509 
L -63 -1063 
L 3263 -1063 
z
" id="DejaVuSans-5f" transform="scale(0.015625)"/>
       <path d="M 3809 666 
L 3809 1919 
L 2778 1919 
L 2778 2438 
L 4434 2438 
L 4434 434 
Q 4069 175 3628 42 
Q 3188 -91 2688 -91 
Q 1594 -91 976 548 
Q 359 1188 359 2328 
Q 359 3472 976 4111 
Q 1594 4750 2688 4750 
Q 3144 4750 3555 4637 
Q 3966 4525 4313 4306 
L 4313 3634 
Q 3963 3931 3569 4081 
Q 3175 4231 2741 4231 
Q 1884 4231 1454 3753 
Q 1025 3275 1025 2328 
Q 1025 1384 1454 906 
Q 1884 428 2741 428 
Q 3075 428 3337 486 
Q 3600 544 3809 666 
z
" id="DejaVuSans-47" transform="scale(0.015625)"/>
      </defs>
      <use xlink:href="#DejaVuSans-44"/>
      <use x="77.001953" xlink:href="#DejaVuSans-61"/>
      <use x="138.28125" xlink:href="#DejaVuSans-74"/>
      <use x="177.490234" xlink:href="#DejaVuSans-61"/>
      <use x="238.769531" xlink:href="#DejaVuSans-33"/>
      <use x="302.392578" xlink:href="#DejaVuSans-2c"/>
      <use x="334.179688" xlink:href="#DejaVuSans-20"/>
      <use x="365.966797" xlink:href="#DejaVuSans-31"/>
      <use x="429.589844" xlink:href="#DejaVuSans-30"/>
      <use x="493.212891" xlink:href="#DejaVuSans-32"/>
      <use x="556.835938" xlink:href="#DejaVuSans-34"/>
      <use x="620.458984" xlink:href="#DejaVuSans-20"/>
      <use x="652.246094" xlink:href="#DejaVuSans-64"/>
      <use x="715.722656" xlink:href="#DejaVuSans-6f"/>
      <use x="776.904297" xlink:href="#DejaVuSans-6d"/>
      <use x="874.316406" xlink:href="#DejaVuSans-61"/>
      <use x="935.595703" xlink:href="#DejaVuSans-69"/>
      <use x="963.378906" xlink:href="#DejaVuSans-6e"/>
      <use x="1026.757812" xlink:href="#DejaVuSans-73"/>
      <use x="1078.857422" xlink:href="#DejaVuSans-2c"/>
      <use x="1110.644531" xlink:href="#DejaVuSans-20"/>
      <use x="1142.431641" xlink:href="#DejaVuSans-34"/>
      <use x="1206.054688" xlink:href="#DejaVuSans-4d"/>
      <use x="1292.333984" xlink:href="#DejaVuSans-42"/>
      <use x="1360.9375" xlink:href="#DejaVuSans-20"/>
      <use x="1392.724609" xlink:href="#DejaVuSans-43"/>
      <use x="1462.548828" xlink:href="#DejaVuSans-4f"/>
      <use x="1541.259766" xlink:href="#DejaVuSans-4e"/>
      <use x="1616.064453" xlink:href="#DejaVuSans-54"/>
      <use x="1677.148438" xlink:href="#DejaVuSans-45"/>
      <use x="1740.332031" xlink:href="#DejaVuSans-4e"/>
      <use x="1815.136719" xlink:href="#DejaVuSans-54"/>
      <use x="1867.095703" xlink:href="#DejaVuSans-2d"/>
      <use x="1903.179688" xlink:href="#DejaVuSans-44"/>
      <use x="1980.181641" xlink:href="#DejaVuSans-45"/>
      <use x="2043.365234" xlink:href="#DejaVuSans-46"/>
      <use x="2100.884766" xlink:href="#DejaVuSans-49"/>
      <use x="2130.376953" xlink:href="#DejaVuSans-4e"/>
      <use x="2205.181641" xlink:href="#DejaVuSans-45"/>
      <use x="2268.365234" xlink:href="#DejaVuSans-44"/>
      <use x="2345.367188" xlink:href="#DejaVuSans-2c"/>
      <use x="2377.154297" xlink:href="#DejaVuSans-20"/>
      <use x="2408.941406" xlink:href="#DejaVuSans-46"/>
      <use x="2466.460938" xlink:href="#DejaVuSans-49"/>
      <use x="2495.953125" xlink:href="#DejaVuSans-52"/>
      <use x="2565.435547" xlink:href="#DejaVuSans-53"/>
      <use x="2628.912109" xlink:href="#DejaVuSans-54"/>
      <use x="2689.996094" xlink:href="#DejaVuSans-5f"/>
      <use x="2739.996094" xlink:href="#DejaVuSans-46"/>
      <use x="2797.515625" xlink:href="#DejaVuSans-49"/>
      <use x="2827.007812" xlink:href="#DejaVuSans-4e"/>
      <use x="2901.8125" xlink:href="#DejaVuSans-47"/>
      <use x="2979.302734" xlink:href="#DejaVuSans-45"/>
      <use x="3042.486328" xlink:href="#DejaVuSans-52"/>
      <use x="3111.96875" xlink:href="#DejaVuSans-50"/>
      <use x="3172.271484" xlink:href="#DejaVuSans-52"/>
      <use x="3241.753906" xlink:href="#DejaVuSans-49"/>
      <use x="3271.246094" xlink:href="#DejaVuSans-4e"/>
      <use x="3346.050781" xlink:href="#DejaVuSans-54"/>
      <use x="3407.134766" xlink:href="#DejaVuSans-5f"/>
      <use x="3457.134766" xlink:href="#DejaVuSans-37"/>
     </g>
    </g>
    <g id="line2d_24">
     <path d="M 117 97.174688 
L 137 97.174688 
" style="fill:none;stroke:#ff7f0e;stroke-linecap:square;stroke-width:1.5;"/>
    </g>
    <g id="line2d_25"/>
    <g id="text_30">
     <!-- Data3, 1024 domains, 4MB CONTENT-DEFINED, MAX_FINGERPRINT -->
     <g transform="translate(145 100.674688)scale(0.1 -0.1)">
      <defs>
       <path d="M 2188 4044 
L 1331 1722 
L 3047 1722 
L 2188 4044 
z
M 1831 4666 
L 2547 4666 
L 4325 0 
L 3669 0 
L 3244 1197 
L 1141 1197 
L 716 0 
L 50 0 
L 1831 4666 
z
" id="DejaVuSans-41" transform="scale(0.015625)"/>
       <path d="M 403 4666 
L 1081 4666 
L 2241 2931 
L 3406 4666 
L 4084 4666 
L 2584 2425 
L 4184 0 
L 3506 0 
L 2194 1984 
L 872 0 
L 191 0 
L 1856 2491 
L 403 4666 
z
" id="DejaVuSans-58" transform="scale(0.015625)"/>
      </defs>
      <use xlink:href="#DejaVuSans-44"/>
      <use x="77.001953" xlink:href="#DejaVuSans-61"/>
      <use x="138.28125" xlink:href="#DejaVuSans-74"/>
      <use x="177.490234" xlink:href="#DejaVuSans-61"/>
      <use x="238.769531" xlink:href="#DejaVuSans-33"/>
      <use x="302.392578" xlink:href="#DejaVuSans-2c"/>
      <use x="334.179688" xlink:href="#DejaVuSans-20"/>
      <use x="365.966797" xlink:href="#DejaVuSans-31"/>
      <use x="429.589844" xlink:href="#DejaVuSans-30"/>
      <use x="493.212891" xlink:href="#DejaVuSans-32"/>
      <use x="556.835938" xlink:href="#DejaVuSans-34"/>
      <use x="620.458984" xlink:href="#DejaVuSans-20"/>
      <use x="652.246094" xlink:href="#DejaVuSans-64"/>
      <use x="715.722656" xlink:href="#DejaVuSans-6f"/>
      <use x="776.904297" xlink:href="#DejaVuSans-6d"/>
      <use x="874.316406" xlink:href="#DejaVuSans-61"/>
      <use x="935.595703" xlink:href="#DejaVuSans-69"/>
      <use x="963.378906" xlink:href="#DejaVuSans-6e"/>
      <use x="1026.757812" xlink:href="#DejaVuSans-73"/>
      <use x="1078.857422" xlink:href="#DejaVuSans-2c"/>
      <use x="1110.644531" xlink:href="#DejaVuSans-20"/>
      <use x="1142.431641" xlink:href="#DejaVuSans-34"/>
      <use x="1206.054688" xlink:href="#DejaVuSans-4d"/>
      <use x="1292.333984" xlink:href="#DejaVuSans-42"/>
      <use x="1360.9375" xlink:href="#DejaVuSans-20"/>
      <use x="1392.724609" xlink:href="#DejaVuSans-43"/>
      <use x="1462.548828" xlink:href="#DejaVuSans-4f"/>
      <use x="1541.259766" xlink:href="#DejaVuSans-4e"/>
      <use x="1616.064453" xlink:href="#DejaVuSans-54"/>
      <use x="1677.148438" xlink:href="#DejaVuSans-45"/>
      <use x="1740.332031" xlink:href="#DejaVuSans-4e"/>
      <use x="1815.136719" xlink:href="#DejaVuSans-54"/>
      <use x="1867.095703" xlink:href="#DejaVuSans-2d"/>
      <use x="1903.179688" xlink:href="#DejaVuSans-44"/>
      <use x="1980.181641" xlink:href="#DejaVuSans-45"/>
      <use x="2043.365234" xlink:href="#DejaVuSans-46"/>
      <use x="2100.884766" xlink:href="#DejaVuSans-49"/>
      <use x="2130.376953" xlink:href="#DejaVuSans-4e"/>
      <use x="2205.181641" xlink:href="#DejaVuSans-45"/>
      <use x="2268.365234" xlink:href="#DejaVuSans-44"/>
      <use x="2345.367188" xlink:href="#DejaVuSans-2c"/>
      <use x="2377.154297" xlink:href="#DejaVuSans-20"/>
      <use x="2408.941406" xlink:href="#DejaVuSans-4d"/>
      <use x="2495.220703" xlink:href="#DejaVuSans-41"/>
      <use x="2563.628906" xlink:href="#DejaVuSans-58"/>
      <use x="2632.134766" xlink:href="#DejaVuSans-5f"/>
      <use x="2682.134766" xlink:href="#DejaVuSans-46"/>
      <use x="2739.654297" xlink:href="#DejaVuSans-49"/>
      <use x="2769.146484" xlink:href="#DejaVuSans-4e"/>
      <use x="2843.951172" xlink:href="#DejaVuSans-47"/>
      <use x="2921.441406" xlink:href="#DejaVuSans-45"/>
      <use x="2984.625" xlink:href="#DejaVuSans-52"/>
      <use x="3054.107422" xlink:href="#DejaVuSans-50"/>
      <use x="3114.410156" xlink:href="#DejaVuSans-52"/>
      <use x="3183.892578" xlink:href="#DejaVuSans-49"/>
      <use x="3213.384766" xlink:href="#DejaVuSans-4e"/>
      <use x="3288.189453" xlink:href="#DejaVuSans-54"/>
     </g>
    </g>
    <g id="line2d_26">
     <path d="M 117 112.130938 
L 137 112.130938 
" style="fill:none;stroke:#2ca02c;stroke-linecap:square;stroke-width:1.5;"/>
    </g>
    <g id="line2d_27"/>
    <g id="text_31">
     <!-- Data3, 128 domains, 4MB CONTENT-DEFINED, FIRST_FINGERPRINT_7 -->
     <g transform="translate(145 115.630938)scale(0.1 -0.1)">
      <use xlink:href="#DejaVuSans-44"/>
      <use x="77.001953" xlink:href="#DejaVuSans-61"/>
      <use x="138.28125" xlink:href="#DejaVuSans-74"/>
      <use x="177.490234" xlink:href="#DejaVuSans-61"/>
      <use x="238.769531" xlink:href="#DejaVuSans-33"/>
      <use x="302.392578" xlink:href="#DejaVuSans-2c"/>
      <use x="334.179688" xlink:href="#DejaVuSans-20"/>
      <use x="365.966797" xlink:href="#DejaVuSans-31"/>
      <use x="429.589844" xlink:href="#DejaVuSans-32"/>
      <use x="493.212891" xlink:href="#DejaVuSans-38"/>
      <use x="556.835938" xlink:href="#DejaVuSans-20"/>
      <use x="588.623047" xlink:href="#DejaVuSans-64"/>
      <use x="652.099609" xlink:href="#DejaVuSans-6f"/>
      <use x="713.28125" xlink:href="#DejaVuSans-6d"/>
      <use x="810.693359" xlink:href="#DejaVuSans-61"/>
      <use x="871.972656" xlink:href="#DejaVuSans-69"/>
      <use x="899.755859" xlink:href="#DejaVuSans-6e"/>
      <use x="963.134766" xlink:href="#DejaVuSans-73"/>
      <use x="1015.234375" xlink:href="#DejaVuSans-2c"/>
      <use x="1047.021484" xlink:href="#DejaVuSans-20"/>
      <use x="1078.808594" xlink:href="#DejaVuSans-34"/>
      <use x="1142.431641" xlink:href="#DejaVuSans-4d"/>
      <use x="1228.710938" xlink:href="#DejaVuSans-42"/>
      <use x="1297.314453" xlink:href="#DejaVuSans-20"/>
      <use x="1329.101562" xlink:href="#DejaVuSans-43"/>
      <use x="1398.925781" xlink:href="#DejaVuSans-4f"/>
      <use x="1477.636719" xlink:href="#DejaVuSans-4e"/>
      <use x="1552.441406" xlink:href="#DejaVuSans-54"/>
      <use x="1613.525391" xlink:href="#DejaVuSans-45"/>
      <use x="1676.708984" xlink:href="#DejaVuSans-4e"/>
      <use x="1751.513672" xlink:href="#DejaVuSans-54"/>
      <use x="1803.472656" xlink:href="#DejaVuSans-2d"/>
      <use x="1839.556641" xlink:href="#DejaVuSans-44"/>
      <use x="1916.558594" xlink:href="#DejaVuSans-45"/>
      <use x="1979.742188" xlink:href="#DejaVuSans-46"/>
      <use x="2037.261719" xlink:href="#DejaVuSans-49"/>
      <use x="2066.753906" xlink:href="#DejaVuSans-4e"/>
      <use x="2141.558594" xlink:href="#DejaVuSans-45"/>
      <use x="2204.742188" xlink:href="#DejaVuSans-44"/>
      <use x="2281.744141" xlink:href="#DejaVuSans-2c"/>
      <use x="2313.53125" xlink:href="#DejaVuSans-20"/>
      <use x="2345.318359" xlink:href="#DejaVuSans-46"/>
      <use x="2402.837891" xlink:href="#DejaVuSans-49"/>
      <use x="2432.330078" xlink:href="#DejaVuSans-52"/>
      <use x="2501.8125" xlink:href="#DejaVuSans-53"/>
      <use x="2565.289062" xlink:href="#DejaVuSans-54"/>
      <use x="2626.373047" xlink:href="#DejaVuSans-5f"/>
      <use x="2676.373047" xlink:href="#DejaVuSans-46"/>
      <use x="2733.892578" xlink:href="#DejaVuSans-49"/>
      <use x="2763.384766" xlink:href="#DejaVuSans-4e"/>
      <use x="2838.189453" xlink:href="#DejaVuSans-47"/>
      <use x="2915.679688" xlink:href="#DejaVuSans-45"/>
      <use x="2978.863281" xlink:href="#DejaVuSans-52"/>
      <use x="3048.345703" xlink:href="#DejaVuSans-50"/>
      <use x="3108.648438" xlink:href="#DejaVuSans-52"/>
      <use x="3178.130859" xlink:href="#DejaVuSans-49"/>
      <use x="3207.623047" xlink:href="#DejaVuSans-4e"/>
      <use x="3282.427734" xlink:href="#DejaVuSans-54"/>
      <use x="3343.511719" xlink:href="#DejaVuSans-5f"/>
      <use x="3393.511719" xlink:href="#DejaVuSans-37"/>
     </g>
    </g>
    <g id="line2d_28">
     <path d="M 117 127.087188 
L 137 127.087188 
" style="fill:none;stroke:#d62728;stroke-linecap:square;stroke-width:1.5;"/>
    </g>
    <g id="line2d_29"/>
    <g id="text_32">
     <!-- Data3, 128 domains, 4MB CONTENT-DEFINED, MAX_FINGERPRINT -->
     <g transform="translate(145 130.587188)scale(0.1 -0.1)">
      <use xlink:href="#DejaVuSans-44"/>
      <use x="77.001953" xlink:href="#DejaVuSans-61"/>
      <use x="138.28125" xlink:href="#DejaVuSans-74"/>
      <use x="177.490234" xlink:href="#DejaVuSans-61"/>
      <use x="238.769531" xlink:href="#DejaVuSans-33"/>
      <use x="302.392578" xlink:href="#DejaVuSans-2c"/>
      <use x="334.179688" xlink:href="#DejaVuSans-20"/>
      <use x="365.966797" xlink:href="#DejaVuSans-31"/>
      <use x="429.589844" xlink:href="#DejaVuSans-32"/>
      <use x="493.212891" xlink:href="#DejaVuSans-38"/>
      <use x="556.835938" xlink:href="#DejaVuSans-20"/>
      <use x="588.623047" xlink:href="#DejaVuSans-64"/>
      <use x="652.099609" xlink:href="#DejaVuSans-6f"/>
      <use x="713.28125" xlink:href="#DejaVuSans-6d"/>
      <use x="810.693359" xlink:href="#DejaVuSans-61"/>
      <use x="871.972656" xlink:href="#DejaVuSans-69"/>
      <use x="899.755859" xlink:href="#DejaVuSans-6e"/>
      <use x="963.134766" xlink:href="#DejaVuSans-73"/>
      <use x="1015.234375" xlink:href="#DejaVuSans-2c"/>
      <use x="1047.021484" xlink:href="#DejaVuSans-20"/>
      <use x="1078.808594" xlink:href="#DejaVuSans-34"/>
      <use x="1142.431641" xlink:href="#DejaVuSans-4d"/>
      <use x="1228.710938" xlink:href="#DejaVuSans-42"/>
      <use x="1297.314453" xlink:href="#DejaVuSans-20"/>
      <use x="1329.101562" xlink:href="#DejaVuSans-43"/>
      <use x="1398.925781" xlink:href="#DejaVuSans-4f"/>
      <use x="1477.636719" xlink:href="#DejaVuSans-4e"/>
      <use x="1552.441406" xlink:href="#DejaVuSans-54"/>
      <use x="1613.525391" xlink:href="#DejaVuSans-45"/>
      <use x="1676.708984" xlink:href="#DejaVuSans-4e"/>
      <use x="1751.513672" xlink:href="#DejaVuSans-54"/>
      <use x="1803.472656" xlink:href="#DejaVuSans-2d"/>
      <use x="1839.556641" xlink:href="#DejaVuSans-44"/>
      <use x="1916.558594" xlink:href="#DejaVuSans-45"/>
      <use x="1979.742188" xlink:href="#DejaVuSans-46"/>
      <use x="2037.261719" xlink:href="#DejaVuSans-49"/>
      <use x="2066.753906" xlink:href="#DejaVuSans-4e"/>
      <use x="2141.558594" xlink:href="#DejaVuSans-45"/>
      <use x="2204.742188" xlink:href="#DejaVuSans-44"/>
      <use x="2281.744141" xlink:href="#DejaVuSans-2c"/>
      <use x="2313.53125" xlink:href="#DejaVuSans-20"/>
      <use x="2345.318359" xlink:href="#DejaVuSans-4d"/>
      <use x="2431.597656" xlink:href="#DejaVuSans-41"/>
      <use x="2500.005859" xlink:href="#DejaVuSans-58"/>
      <use x="2568.511719" xlink:href="#DejaVuSans-5f"/>
      <use x="2618.511719" xlink:href="#DejaVuSans-46"/>
      <use x="2676.03125" xlink:href="#DejaVuSans-49"/>
      <use x="2705.523438" xlink:href="#DejaVuSans-4e"/>
      <use x="2780.328125" xlink:href="#DejaVuSans-47"/>
      <use x="2857.818359" xlink:href="#DejaVuSans-45"/>
      <use x="2921.001953" xlink:href="#DejaVuSans-52"/>
      <use x="2990.484375" xlink:href="#DejaVuSans-50"/>
      <use x="3050.787109" xlink:href="#DejaVuSans-52"/>
      <use x="3120.269531" xlink:href="#DejaVuSans-49"/>
      <use x="3149.761719" xlink:href="#DejaVuSans-4e"/>
      <use x="3224.566406" xlink:href="#DejaVuSans-54"/>
     </g>
    </g>
    <g id="line2d_30">
     <path d="M 117 142.043438 
L 137 142.043438 
" style="fill:none;stroke:#9467bd;stroke-linecap:square;stroke-width:1.5;"/>
    </g>
    <g id="line2d_31"/>
    <g id="text_33">
     <!-- Data3, 256 domains, 4MB CONTENT-DEFINED, FIRST_FINGERPRINT_7 -->
     <g transform="translate(145 145.543438)scale(0.1 -0.1)">
      <use xlink:href="#DejaVuSans-44"/>
      <use x="77.001953" xlink:href="#DejaVuSans-61"/>
      <use x="138.28125" xlink:href="#DejaVuSans-74"/>
      <use x="177.490234" xlink:href="#DejaVuSans-61"/>
      <use x="238.769531" xlink:href="#DejaVuSans-33"/>
      <use x="302.392578" xlink:href="#DejaVuSans-2c"/>
      <use x="334.179688" xlink:href="#DejaVuSans-20"/>
      <use x="365.966797" xlink:href="#DejaVuSans-32"/>
      <use x="429.589844" xlink:href="#DejaVuSans-35"/>
      <use x="493.212891" xlink:href="#DejaVuSans-36"/>
      <use x="556.835938" xlink:href="#DejaVuSans-20"/>
      <use x="588.623047" xlink:href="#DejaVuSans-64"/>
      <use x="652.099609" xlink:href="#DejaVuSans-6f"/>
      <use x="713.28125" xlink:href="#DejaVuSans-6d"/>
      <use x="810.693359" xlink:href="#DejaVuSans-61"/>
      <use x="871.972656" xlink:href="#DejaVuSans-69"/>
      <use x="899.755859" xlink:href="#DejaVuSans-6e"/>
      <use x="963.134766" xlink:href="#DejaVuSans-73"/>
      <use x="1015.234375" xlink:href="#DejaVuSans-2c"/>
      <use x="1047.021484" xlink:href="#DejaVuSans-20"/>
      <use x="1078.808594" xlink:href="#DejaVuSans-34"/>
      <use x="1142.431641" xlink:href="#DejaVuSans-4d"/>
      <use x="1228.710938" xlink:href="#DejaVuSans-42"/>
      <use x="1297.314453" xlink:href="#DejaVuSans-20"/>
      <use x="1329.101562" xlink:href="#DejaVuSans-43"/>
      <use x="1398.925781" xlink:href="#DejaVuSans-4f"/>
      <use x="1477.636719" xlink:href="#DejaVuSans-4e"/>
      <use x="1552.441406" xlink:href="#DejaVuSans-54"/>
      <use x="1613.525391" xlink:href="#DejaVuSans-45"/>
      <use x="1676.708984" xlink:href="#DejaVuSans-4e"/>
      <use x="1751.513672" xlink:href="#DejaVuSans-54"/>
      <use x="1803.472656" xlink:href="#DejaVuSans-2d"/>
      <use x="1839.556641" xlink:href="#DejaVuSans-44"/>
      <use x="1916.558594" xlink:href="#DejaVuSans-45"/>
      <use x="1979.742188" xlink:href="#DejaVuSans-46"/>
      <use x="2037.261719" xlink:href="#DejaVuSans-49"/>
      <use x="2066.753906" xlink:href="#DejaVuSans-4e"/>
      <use x="2141.558594" xlink:href="#DejaVuSans-45"/>
      <use x="2204.742188" xlink:href="#DejaVuSans-44"/>
      <use x="2281.744141" xlink:href="#DejaVuSans-2c"/>
      <use x="2313.53125" xlink:href="#DejaVuSans-20"/>
      <use x="2345.318359" xlink:href="#DejaVuSans-46"/>
      <use x="2402.837891" xlink:href="#DejaVuSans-49"/>
      <use x="2432.330078" xlink:href="#DejaVuSans-52"/>
      <use x="2501.8125" xlink:href="#DejaVuSans-53"/>
      <use x="2565.289062" xlink:href="#DejaVuSans-54"/>
      <use x="2626.373047" xlink:href="#DejaVuSans-5f"/>
      <use x="2676.373047" xlink:href="#DejaVuSans-46"/>
      <use x="2733.892578" xlink:href="#DejaVuSans-49"/>
      <use x="2763.384766" xlink:href="#DejaVuSans-4e"/>
      <use x="2838.189453" xlink:href="#DejaVuSans-47"/>
      <use x="2915.679688" xlink:href="#DejaVuSans-45"/>
      <use x="2978.863281" xlink:href="#DejaVuSans-52"/>
      <use x="3048.345703" xlink:href="#DejaVuSans-50"/>
      <use x="3108.648438" xlink:href="#DejaVuSans-52"/>
      <use x="3178.130859" xlink:href="#DejaVuSans-49"/>
      <use x="3207.623047" xlink:href="#DejaVuSans-4e"/>
      <use x="3282.427734" xlink:href="#DejaVuSans-54"/>
      <use x="3343.511719" xlink:href="#DejaVuSans-5f"/>
      <use x="3393.511719" xlink:href="#DejaVuSans-37"/>
     </g>
    </g>
    <g id="line2d_32">
     <path d="M 117 156.999688 
L 137 156.999688 
" style="fill:none;stroke:#8c564b;stroke-linecap:square;stroke-width:1.5;"/>
    </g>
    <g id="line2d_33"/>
    <g id="text_34">
     <!-- Data3, 256 domains, 4MB CONTENT-DEFINED, MAX_FINGERPRINT -->
     <g transform="translate(145 160.499688)scale(0.1 -0.1)">
      <use xlink:href="#DejaVuSans-44"/>
      <use x="77.001953" xlink:href="#DejaVuSans-61"/>
      <use x="138.28125" xlink:href="#DejaVuSans-74"/>
      <use x="177.490234" xlink:href="#DejaVuSans-61"/>
      <use x="238.769531" xlink:href="#DejaVuSans-33"/>
      <use x="302.392578" xlink:href="#DejaVuSans-2c"/>
      <use x="334.179688" xlink:href="#DejaVuSans-20"/>
      <use x="365.966797" xlink:href="#DejaVuSans-32"/>
      <use x="429.589844" xlink:href="#DejaVuSans-35"/>
      <use x="493.212891" xlink:href="#DejaVuSans-36"/>
      <use x="556.835938" xlink:href="#DejaVuSans-20"/>
      <use x="588.623047" xlink:href="#DejaVuSans-64"/>
      <use x="652.099609" xlink:href="#DejaVuSans-6f"/>
      <use x="713.28125" xlink:href="#DejaVuSans-6d"/>
      <use x="810.693359" xlink:href="#DejaVuSans-61"/>
      <use x="871.972656" xlink:href="#DejaVuSans-69"/>
      <use x="899.755859" xlink:href="#DejaVuSans-6e"/>
      <use x="963.134766" xlink:href="#DejaVuSans-73"/>
      <use x="1015.234375" xlink:href="#DejaVuSans-2c"/>
      <use x="1047.021484" xlink:href="#DejaVuSans-20"/>
      <use x="1078.808594" xlink:href="#DejaVuSans-34"/>
      <use x="1142.431641" xlink:href="#DejaVuSans-4d"/>
      <use x="1228.710938" xlink:href="#DejaVuSans-42"/>
      <use x="1297.314453" xlink:href="#DejaVuSans-20"/>
      <use x="1329.101562" xlink:href="#DejaVuSans-43"/>
      <use x="1398.925781" xlink:href="#DejaVuSans-4f"/>
      <use x="1477.636719" xlink:href="#DejaVuSans-4e"/>
      <use x="1552.441406" xlink:href="#DejaVuSans-54"/>
      <use x="1613.525391" xlink:href="#DejaVuSans-45"/>
      <use x="1676.708984" xlink:href="#DejaVuSans-4e"/>
      <use x="1751.513672" xlink:href="#DejaVuSans-54"/>
      <use x="1803.472656" xlink:href="#DejaVuSans-2d"/>
      <use x="1839.556641" xlink:href="#DejaVuSans-44"/>
      <use x="1916.558594" xlink:href="#DejaVuSans-45"/>
      <use x="1979.742188" xlink:href="#DejaVuSans-46"/>
      <use x="2037.261719" xlink:href="#DejaVuSans-49"/>
      <use x="2066.753906" xlink:href="#DejaVuSans-4e"/>
      <use x="2141.558594" xlink:href="#DejaVuSans-45"/>
      <use x="2204.742188" xlink:href="#DejaVuSans-44"/>
      <use x="2281.744141" xlink:href="#DejaVuSans-2c"/>
      <use x="2313.53125" xlink:href="#DejaVuSans-20"/>
      <use x="2345.318359" xlink:href="#DejaVuSans-4d"/>
      <use x="2431.597656" xlink:href="#DejaVuSans-41"/>
      <use x="2500.005859" xlink:href="#DejaVuSans-58"/>
      <use x="2568.511719" xlink:href="#DejaVuSans-5f"/>
      <use x="2618.511719" xlink:href="#DejaVuSans-46"/>
      <use x="2676.03125" xlink:href="#DejaVuSans-49"/>
      <use x="2705.523438" xlink:href="#DejaVuSans-4e"/>
      <use x="2780.328125" xlink:href="#DejaVuSans-47"/>
      <use x="2857.818359" xlink:href="#DejaVuSans-45"/>
      <use x="2921.001953" xlink:href="#DejaVuSans-52"/>
      <use x="2990.484375" xlink:href="#DejaVuSans-50"/>
      <use x="3050.787109" xlink:href="#DejaVuSans-52"/>
      <use x="3120.269531" xlink:href="#DejaVuSans-49"/>
      <use x="3149.761719" xlink:href="#DejaVuSans-4e"/>
      <use x="3224.566406" xlink:href="#DejaVuSans-54"/>
     </g>
    </g>
   </g>
  </g>
 </g>
 <defs>
  <clipPath id="p2759395cec">
   <rect height="443.52" width="669.6" x="108" y="69.12"/>
  </clipPath>
 </defs>
</svg>
