<?xml version="1.0" encoding="utf-8" standalone="no"?>
<!DOCTYPE svg PUBLIC "-//W3C//DTD SVG 1.1//EN"
  "http://www.w3.org/Graphics/SVG/1.1/DTD/svg11.dtd">
<svg height="345.6pt" version="1.1" viewBox="0 0 460.8 345.6" width="460.8pt" xmlns="http://www.w3.org/2000/svg" xmlns:xlink="http://www.w3.org/1999/xlink">
 <metadata>
  <rdf:RDF xmlns:cc="http://creativecommons.org/ns#" xmlns:dc="http://purl.org/dc/elements/1.1/" xmlns:rdf="http://www.w3.org/1999/02/22-rdf-syntax-ns#">
   <cc:Work>
    <dc:type rdf:resource="http://purl.org/dc/dcmitype/StillImage"/>
    <dc:date>2021-12-06T18:39:37.982601</dc:date>
    <dc:format>image/svg+xml</dc:format>
    <dc:creator>
     <cc:Agent>
      <dc:title>Matplotlib v3.4.3, https://matplotlib.org/</dc:title>
     </cc:Agent>
    </dc:creator>
   </cc:Work>
  </rdf:RDF>
 </metadata>
 <defs>
  <style type="text/css">*{stroke-linecap:butt;stroke-linejoin:round;}</style>
 </defs>
 <g id="figure_1">
  <g id="patch_1">
   <path d="M 0 345.6 
L 460.8 345.6 
L 460.8 0 
L 0 0 
z
" style="fill:#ffffff;"/>
  </g>
  <g id="axes_1">
   <g id="patch_2">
    <path d="M 57.6 307.584 
L 414.72 307.584 
L 414.72 41.472 
L 57.6 41.472 
z
" style="fill:#ffffff;"/>
   </g>
   <g id="patch_3">
    <path clip-path="url(#p34376bb9b3)" d="M 58.308571 307.584 
L 59.725714 307.584 
L 59.725714 306.377224 
L 58.308571 306.377224 
z
" style="fill:#1f77b4;"/>
   </g>
   <g id="patch_4">
    <path clip-path="url(#p34376bb9b3)" d="M 61.142857 307.584 
L 62.56 307.584 
L 62.56 304.083495 
L 61.142857 304.083495 
z
" style="fill:#1f77b4;"/>
   </g>
   <g id="patch_5">
    <path clip-path="url(#p34376bb9b3)" d="M 63.977143 307.584 
L 65.394286 307.584 
L 65.394286 306.559869 
L 63.977143 306.559869 
z
" style="fill:#1f77b4;"/>
   </g>
   <g id="patch_6">
    <path clip-path="url(#p34376bb9b3)" d="M 66.811429 307.584 
L 68.228571 307.584 
L 68.228571 306.23191 
L 66.811429 306.23191 
z
" style="fill:#1f77b4;"/>
   </g>
   <g id="patch_7">
    <path clip-path="url(#p34376bb9b3)" d="M 69.645714 307.584 
L 71.062857 307.584 
L 71.062857 305.948426 
L 69.645714 305.948426 
z
" style="fill:#1f77b4;"/>
   </g>
   <g id="patch_8">
    <path clip-path="url(#p34376bb9b3)" d="M 72.48 307.584 
L 73.897143 307.584 
L 73.897143 304.56481 
L 72.48 304.56481 
z
" style="fill:#1f77b4;"/>
   </g>
   <g id="patch_9">
    <path clip-path="url(#p34376bb9b3)" d="M 75.314286 307.584 
L 76.731429 307.584 
L 76.731429 304.271898 
L 75.314286 304.271898 
z
" style="fill:#1f77b4;"/>
   </g>
   <g id="patch_10">
    <path clip-path="url(#p34376bb9b3)" d="M 78.148571 307.584 
L 79.565714 307.584 
L 79.565714 305.794915 
L 78.148571 305.794915 
z
" style="fill:#1f77b4;"/>
   </g>
   <g id="patch_11">
    <path clip-path="url(#p34376bb9b3)" d="M 80.982857 307.584 
L 82.4 307.584 
L 82.4 305.46861 
L 80.982857 305.46861 
z
" style="fill:#1f77b4;"/>
   </g>
   <g id="patch_12">
    <path clip-path="url(#p34376bb9b3)" d="M 83.817143 307.584 
L 85.234286 307.584 
L 85.234286 305.159151 
L 83.817143 305.159151 
z
" style="fill:#1f77b4;"/>
   </g>
   <g id="patch_13">
    <path clip-path="url(#p34376bb9b3)" d="M 86.651429 307.584 
L 88.068571 307.584 
L 88.068571 306.067535 
L 86.651429 306.067535 
z
" style="fill:#1f77b4;"/>
   </g>
   <g id="patch_14">
    <path clip-path="url(#p34376bb9b3)" d="M 89.485714 307.584 
L 90.902857 307.584 
L 90.902857 305.754613 
L 89.485714 305.754613 
z
" style="fill:#1f77b4;"/>
   </g>
   <g id="patch_15">
    <path clip-path="url(#p34376bb9b3)" d="M 92.32 307.584 
L 93.737143 307.584 
L 93.737143 306.731728 
L 92.32 306.731728 
z
" style="fill:#1f77b4;"/>
   </g>
   <g id="patch_16">
    <path clip-path="url(#p34376bb9b3)" d="M 95.154286 307.584 
L 96.571429 307.584 
L 96.571429 303.147026 
L 95.154286 303.147026 
z
" style="fill:#1f77b4;"/>
   </g>
   <g id="patch_17">
    <path clip-path="url(#p34376bb9b3)" d="M 97.988571 307.584 
L 99.405714 307.584 
L 99.405714 305.436785 
L 97.988571 305.436785 
z
" style="fill:#1f77b4;"/>
   </g>
   <g id="patch_18">
    <path clip-path="url(#p34376bb9b3)" d="M 100.822857 307.584 
L 102.24 307.584 
L 102.24 303.698353 
L 100.822857 303.698353 
z
" style="fill:#1f77b4;"/>
   </g>
   <g id="patch_19">
    <path clip-path="url(#p34376bb9b3)" d="M 103.657143 307.584 
L 105.074286 307.584 
L 105.074286 303.273986 
L 103.657143 303.273986 
z
" style="fill:#1f77b4;"/>
   </g>
   <g id="patch_20">
    <path clip-path="url(#p34376bb9b3)" d="M 106.491429 307.584 
L 107.908571 307.584 
L 107.908571 307.243589 
L 106.491429 307.243589 
z
" style="fill:#1f77b4;"/>
   </g>
   <g id="patch_21">
    <path clip-path="url(#p34376bb9b3)" d="M 109.325714 307.584 
L 110.742857 307.584 
L 110.742857 306.53468 
L 109.325714 306.53468 
z
" style="fill:#1f77b4;"/>
   </g>
   <g id="patch_22">
    <path clip-path="url(#p34376bb9b3)" d="M 112.16 307.584 
L 113.577143 307.584 
L 113.577143 306.107079 
L 112.16 306.107079 
z
" style="fill:#1f77b4;"/>
   </g>
   <g id="patch_23">
    <path clip-path="url(#p34376bb9b3)" d="M 114.994286 307.584 
L 116.411429 307.584 
L 116.411429 306.416724 
L 114.994286 306.416724 
z
" style="fill:#1f77b4;"/>
   </g>
   <g id="patch_24">
    <path clip-path="url(#p34376bb9b3)" d="M 117.828571 307.584 
L 119.245714 307.584 
L 119.245714 302.036105 
L 117.828571 302.036105 
z
" style="fill:#1f77b4;"/>
   </g>
   <g id="patch_25">
    <path clip-path="url(#p34376bb9b3)" d="M 120.662857 307.584 
L 122.08 307.584 
L 122.08 307.18984 
L 120.662857 307.18984 
z
" style="fill:#1f77b4;"/>
   </g>
   <g id="patch_26">
    <path clip-path="url(#p34376bb9b3)" d="M 123.497143 307.584 
L 124.914286 307.584 
L 124.914286 307.183631 
L 123.497143 307.183631 
z
" style="fill:#1f77b4;"/>
   </g>
   <g id="patch_27">
    <path clip-path="url(#p34376bb9b3)" d="M 126.331429 307.584 
L 127.748571 307.584 
L 127.748571 303.836244 
L 126.331429 303.836244 
z
" style="fill:#1f77b4;"/>
   </g>
   <g id="patch_28">
    <path clip-path="url(#p34376bb9b3)" d="M 129.165714 307.584 
L 130.582857 307.584 
L 130.582857 304.661026 
L 129.165714 304.661026 
z
" style="fill:#1f77b4;"/>
   </g>
   <g id="patch_29">
    <path clip-path="url(#p34376bb9b3)" d="M 132 307.584 
L 133.417143 307.584 
L 133.417143 306.470798 
L 132 306.470798 
z
" style="fill:#1f77b4;"/>
   </g>
   <g id="patch_30">
    <path clip-path="url(#p34376bb9b3)" d="M 134.834286 307.584 
L 136.251429 307.584 
L 136.251429 306.925856 
L 134.834286 306.925856 
z
" style="fill:#1f77b4;"/>
   </g>
   <g id="patch_31">
    <path clip-path="url(#p34376bb9b3)" d="M 137.668571 307.584 
L 139.085714 307.584 
L 139.085714 304.791494 
L 137.668571 304.791494 
z
" style="fill:#1f77b4;"/>
   </g>
   <g id="patch_32">
    <path clip-path="url(#p34376bb9b3)" d="M 140.502857 307.584 
L 141.92 307.584 
L 141.92 304.733455 
L 140.502857 304.733455 
z
" style="fill:#1f77b4;"/>
   </g>
   <g id="patch_33">
    <path clip-path="url(#p34376bb9b3)" d="M 143.337143 307.584 
L 144.754286 307.584 
L 144.754286 304.480579 
L 143.337143 304.480579 
z
" style="fill:#1f77b4;"/>
   </g>
   <g id="patch_34">
    <path clip-path="url(#p34376bb9b3)" d="M 146.171429 307.584 
L 147.588571 307.584 
L 147.588571 304.585441 
L 146.171429 304.585441 
z
" style="fill:#1f77b4;"/>
   </g>
   <g id="patch_35">
    <path clip-path="url(#p34376bb9b3)" d="M 149.005714 307.584 
L 150.422857 307.584 
L 150.422857 305.029648 
L 149.005714 305.029648 
z
" style="fill:#1f77b4;"/>
   </g>
   <g id="patch_36">
    <path clip-path="url(#p34376bb9b3)" d="M 151.84 307.584 
L 153.257143 307.584 
L 153.257143 304.287228 
L 151.84 304.287228 
z
" style="fill:#1f77b4;"/>
   </g>
   <g id="patch_37">
    <path clip-path="url(#p34376bb9b3)" d="M 154.674286 307.584 
L 156.091429 307.584 
L 156.091429 305.775726 
L 154.674286 305.775726 
z
" style="fill:#1f77b4;"/>
   </g>
   <g id="patch_38">
    <path clip-path="url(#p34376bb9b3)" d="M 157.508571 307.584 
L 158.925714 307.584 
L 158.925714 305.194008 
L 157.508571 305.194008 
z
" style="fill:#1f77b4;"/>
   </g>
   <g id="patch_39">
    <path clip-path="url(#p34376bb9b3)" d="M 160.342857 307.584 
L 161.76 307.584 
L 161.76 305.288179 
L 160.342857 305.288179 
z
" style="fill:#1f77b4;"/>
   </g>
   <g id="patch_40">
    <path clip-path="url(#p34376bb9b3)" d="M 163.177143 307.584 
L 164.594286 307.584 
L 164.594286 305.976601 
L 163.177143 305.976601 
z
" style="fill:#1f77b4;"/>
   </g>
   <g id="patch_41">
    <path clip-path="url(#p34376bb9b3)" d="M 166.011429 307.584 
L 167.428571 307.584 
L 167.428571 305.578613 
L 166.011429 305.578613 
z
" style="fill:#1f77b4;"/>
   </g>
   <g id="patch_42">
    <path clip-path="url(#p34376bb9b3)" d="M 168.845714 307.584 
L 170.262857 307.584 
L 170.262857 305.420084 
L 168.845714 305.420084 
z
" style="fill:#1f77b4;"/>
   </g>
   <g id="patch_43">
    <path clip-path="url(#p34376bb9b3)" d="M 171.68 307.584 
L 173.097143 307.584 
L 173.097143 305.498702 
L 171.68 305.498702 
z
" style="fill:#1f77b4;"/>
   </g>
   <g id="patch_44">
    <path clip-path="url(#p34376bb9b3)" d="M 174.514286 307.584 
L 175.931429 307.584 
L 175.931429 305.423479 
L 174.514286 305.423479 
z
" style="fill:#1f77b4;"/>
   </g>
   <g id="patch_45">
    <path clip-path="url(#p34376bb9b3)" d="M 177.348571 307.584 
L 178.765714 307.584 
L 178.765714 303.63191 
L 177.348571 303.63191 
z
" style="fill:#1f77b4;"/>
   </g>
   <g id="patch_46">
    <path clip-path="url(#p34376bb9b3)" d="M 180.182857 307.584 
L 181.6 307.584 
L 181.6 304.961732 
L 180.182857 304.961732 
z
" style="fill:#1f77b4;"/>
   </g>
   <g id="patch_47">
    <path clip-path="url(#p34376bb9b3)" d="M 183.017143 307.584 
L 184.434286 307.584 
L 184.434286 304.619444 
L 183.017143 304.619444 
z
" style="fill:#1f77b4;"/>
   </g>
   <g id="patch_48">
    <path clip-path="url(#p34376bb9b3)" d="M 185.851429 307.584 
L 187.268571 307.584 
L 187.268571 305.268992 
L 185.851429 305.268992 
z
" style="fill:#1f77b4;"/>
   </g>
   <g id="patch_49">
    <path clip-path="url(#p34376bb9b3)" d="M 188.685714 307.584 
L 190.102857 307.584 
L 190.102857 306.663354 
L 188.685714 306.663354 
z
" style="fill:#1f77b4;"/>
   </g>
   <g id="patch_50">
    <path clip-path="url(#p34376bb9b3)" d="M 191.52 307.584 
L 192.937143 307.584 
L 192.937143 305.371922 
L 191.52 305.371922 
z
" style="fill:#1f77b4;"/>
   </g>
   <g id="patch_51">
    <path clip-path="url(#p34376bb9b3)" d="M 194.354286 307.584 
L 195.771429 307.584 
L 195.771429 304.58855 
L 194.354286 304.58855 
z
" style="fill:#1f77b4;"/>
   </g>
   <g id="patch_52">
    <path clip-path="url(#p34376bb9b3)" d="M 197.188571 307.584 
L 198.605714 307.584 
L 198.605714 304.496476 
L 197.188571 304.496476 
z
" style="fill:#1f77b4;"/>
   </g>
   <g id="patch_53">
    <path clip-path="url(#p34376bb9b3)" d="M 200.022857 307.584 
L 201.44 307.584 
L 201.44 304.71859 
L 200.022857 304.71859 
z
" style="fill:#1f77b4;"/>
   </g>
   <g id="patch_54">
    <path clip-path="url(#p34376bb9b3)" d="M 202.857143 307.584 
L 204.274286 307.584 
L 204.274286 301.357047 
L 202.857143 301.357047 
z
" style="fill:#1f77b4;"/>
   </g>
   <g id="patch_55">
    <path clip-path="url(#p34376bb9b3)" d="M 205.691429 307.584 
L 207.108571 307.584 
L 207.108571 305.51002 
L 205.691429 305.51002 
z
" style="fill:#1f77b4;"/>
   </g>
   <g id="patch_56">
    <path clip-path="url(#p34376bb9b3)" d="M 208.525714 307.584 
L 209.942857 307.584 
L 209.942857 304.579695 
L 208.525714 304.579695 
z
" style="fill:#1f77b4;"/>
   </g>
   <g id="patch_57">
    <path clip-path="url(#p34376bb9b3)" d="M 211.36 307.584 
L 212.777143 307.584 
L 212.777143 304.03917 
L 211.36 304.03917 
z
" style="fill:#1f77b4;"/>
   </g>
   <g id="patch_58">
    <path clip-path="url(#p34376bb9b3)" d="M 214.194286 307.584 
L 215.611429 307.584 
L 215.611429 306.139925 
L 214.194286 306.139925 
z
" style="fill:#1f77b4;"/>
   </g>
   <g id="patch_59">
    <path clip-path="url(#p34376bb9b3)" d="M 217.028571 307.584 
L 218.445714 307.584 
L 218.445714 305.762492 
L 217.028571 305.762492 
z
" style="fill:#1f77b4;"/>
   </g>
   <g id="patch_60">
    <path clip-path="url(#p34376bb9b3)" d="M 219.862857 307.584 
L 221.28 307.584 
L 221.28 304.902499 
L 219.862857 304.902499 
z
" style="fill:#1f77b4;"/>
   </g>
   <g id="patch_61">
    <path clip-path="url(#p34376bb9b3)" d="M 222.697143 307.584 
L 224.114286 307.584 
L 224.114286 304.720782 
L 222.697143 304.720782 
z
" style="fill:#1f77b4;"/>
   </g>
   <g id="patch_62">
    <path clip-path="url(#p34376bb9b3)" d="M 225.531429 307.584 
L 226.948571 307.584 
L 226.948571 303.276376 
L 225.531429 303.276376 
z
" style="fill:#1f77b4;"/>
   </g>
   <g id="patch_63">
    <path clip-path="url(#p34376bb9b3)" d="M 228.365714 307.584 
L 229.782857 307.584 
L 229.782857 306.541919 
L 228.365714 306.541919 
z
" style="fill:#1f77b4;"/>
   </g>
   <g id="patch_64">
    <path clip-path="url(#p34376bb9b3)" d="M 231.2 307.584 
L 232.617143 307.584 
L 232.617143 304.277814 
L 231.2 304.277814 
z
" style="fill:#1f77b4;"/>
   </g>
   <g id="patch_65">
    <path clip-path="url(#p34376bb9b3)" d="M 234.034286 307.584 
L 235.451429 307.584 
L 235.451429 300.247172 
L 234.034286 300.247172 
z
" style="fill:#1f77b4;"/>
   </g>
   <g id="patch_66">
    <path clip-path="url(#p34376bb9b3)" d="M 236.868571 307.584 
L 238.285714 307.584 
L 238.285714 303.887176 
L 236.868571 303.887176 
z
" style="fill:#1f77b4;"/>
   </g>
   <g id="patch_67">
    <path clip-path="url(#p34376bb9b3)" d="M 239.702857 307.584 
L 241.12 307.584 
L 241.12 305.065965 
L 239.702857 305.065965 
z
" style="fill:#1f77b4;"/>
   </g>
   <g id="patch_68">
    <path clip-path="url(#p34376bb9b3)" d="M 242.537143 307.584 
L 243.954286 307.584 
L 243.954286 307.175919 
L 242.537143 307.175919 
z
" style="fill:#1f77b4;"/>
   </g>
   <g id="patch_69">
    <path clip-path="url(#p34376bb9b3)" d="M 245.371429 307.584 
L 246.788571 307.584 
L 246.788571 305.553481 
L 245.371429 305.553481 
z
" style="fill:#1f77b4;"/>
   </g>
   <g id="patch_70">
    <path clip-path="url(#p34376bb9b3)" d="M 248.205714 307.584 
L 249.622857 307.584 
L 249.622857 304.627401 
L 248.205714 304.627401 
z
" style="fill:#1f77b4;"/>
   </g>
   <g id="patch_71">
    <path clip-path="url(#p34376bb9b3)" d="M 251.04 307.584 
L 252.457143 307.584 
L 252.457143 302.50364 
L 251.04 302.50364 
z
" style="fill:#1f77b4;"/>
   </g>
   <g id="patch_72">
    <path clip-path="url(#p34376bb9b3)" d="M 253.874286 307.584 
L 255.291429 307.584 
L 255.291429 305.809529 
L 253.874286 305.809529 
z
" style="fill:#1f77b4;"/>
   </g>
   <g id="patch_73">
    <path clip-path="url(#p34376bb9b3)" d="M 256.708571 307.584 
L 258.125714 307.584 
L 258.125714 303.254741 
L 256.708571 303.254741 
z
" style="fill:#1f77b4;"/>
   </g>
   <g id="patch_74">
    <path clip-path="url(#p34376bb9b3)" d="M 259.542857 307.584 
L 260.96 307.584 
L 260.96 303.896294 
L 259.542857 303.896294 
z
" style="fill:#1f77b4;"/>
   </g>
   <g id="patch_75">
    <path clip-path="url(#p34376bb9b3)" d="M 262.377143 307.584 
L 263.794286 307.584 
L 263.794286 305.494163 
L 262.377143 305.494163 
z
" style="fill:#1f77b4;"/>
   </g>
   <g id="patch_76">
    <path clip-path="url(#p34376bb9b3)" d="M 265.211429 307.584 
L 266.628571 307.584 
L 266.628571 304.661588 
L 265.211429 304.661588 
z
" style="fill:#1f77b4;"/>
   </g>
   <g id="patch_77">
    <path clip-path="url(#p34376bb9b3)" d="M 268.045714 307.584 
L 269.462857 307.584 
L 269.462857 302.769073 
L 268.045714 302.769073 
z
" style="fill:#1f77b4;"/>
   </g>
   <g id="patch_78">
    <path clip-path="url(#p34376bb9b3)" d="M 270.88 307.584 
L 272.297143 307.584 
L 272.297143 305.898421 
L 270.88 305.898421 
z
" style="fill:#1f77b4;"/>
   </g>
   <g id="patch_79">
    <path clip-path="url(#p34376bb9b3)" d="M 273.714286 307.584 
L 275.131429 307.584 
L 275.131429 305.169327 
L 273.714286 305.169327 
z
" style="fill:#1f77b4;"/>
   </g>
   <g id="patch_80">
    <path clip-path="url(#p34376bb9b3)" d="M 276.548571 307.584 
L 277.965714 307.584 
L 277.965714 304.771582 
L 276.548571 304.771582 
z
" style="fill:#1f77b4;"/>
   </g>
   <g id="patch_81">
    <path clip-path="url(#p34376bb9b3)" d="M 279.382857 307.584 
L 280.8 307.584 
L 280.8 304.528647 
L 279.382857 304.528647 
z
" style="fill:#1f77b4;"/>
   </g>
   <g id="patch_82">
    <path clip-path="url(#p34376bb9b3)" d="M 282.217143 307.584 
L 283.634286 307.584 
L 283.634286 306.60574 
L 282.217143 306.60574 
z
" style="fill:#1f77b4;"/>
   </g>
   <g id="patch_83">
    <path clip-path="url(#p34376bb9b3)" d="M 285.051429 307.584 
L 286.468571 307.584 
L 286.468571 306.070217 
L 285.051429 306.070217 
z
" style="fill:#1f77b4;"/>
   </g>
   <g id="patch_84">
    <path clip-path="url(#p34376bb9b3)" d="M 287.885714 307.584 
L 289.302857 307.584 
L 289.302857 306.743129 
L 287.885714 306.743129 
z
" style="fill:#1f77b4;"/>
   </g>
   <g id="patch_85">
    <path clip-path="url(#p34376bb9b3)" d="M 290.72 307.584 
L 292.137143 307.584 
L 292.137143 303.965355 
L 290.72 303.965355 
z
" style="fill:#1f77b4;"/>
   </g>
   <g id="patch_86">
    <path clip-path="url(#p34376bb9b3)" d="M 293.554286 307.584 
L 294.971429 307.584 
L 294.971429 302.140793 
L 293.554286 302.140793 
z
" style="fill:#1f77b4;"/>
   </g>
   <g id="patch_87">
    <path clip-path="url(#p34376bb9b3)" d="M 296.388571 307.584 
L 297.805714 307.584 
L 297.805714 305.464641 
L 296.388571 305.464641 
z
" style="fill:#1f77b4;"/>
   </g>
   <g id="patch_88">
    <path clip-path="url(#p34376bb9b3)" d="M 299.222857 307.584 
L 300.64 307.584 
L 300.64 307.026199 
L 299.222857 307.026199 
z
" style="fill:#1f77b4;"/>
   </g>
   <g id="patch_89">
    <path clip-path="url(#p34376bb9b3)" d="M 302.057143 307.584 
L 303.474286 307.584 
L 303.474286 305.701827 
L 302.057143 305.701827 
z
" style="fill:#1f77b4;"/>
   </g>
   <g id="patch_90">
    <path clip-path="url(#p34376bb9b3)" d="M 304.891429 307.584 
L 306.308571 307.584 
L 306.308571 303.859839 
L 304.891429 303.859839 
z
" style="fill:#1f77b4;"/>
   </g>
   <g id="patch_91">
    <path clip-path="url(#p34376bb9b3)" d="M 307.725714 307.584 
L 309.142857 307.584 
L 309.142857 305.371777 
L 307.725714 305.371777 
z
" style="fill:#1f77b4;"/>
   </g>
   <g id="patch_92">
    <path clip-path="url(#p34376bb9b3)" d="M 310.56 307.584 
L 311.977143 307.584 
L 311.977143 305.975897 
L 310.56 305.975897 
z
" style="fill:#1f77b4;"/>
   </g>
   <g id="patch_93">
    <path clip-path="url(#p34376bb9b3)" d="M 313.394286 307.584 
L 314.811429 307.584 
L 314.811429 306.993621 
L 313.394286 306.993621 
z
" style="fill:#1f77b4;"/>
   </g>
   <g id="patch_94">
    <path clip-path="url(#p34376bb9b3)" d="M 316.228571 307.584 
L 317.645714 307.584 
L 317.645714 307.265683 
L 316.228571 307.265683 
z
" style="fill:#1f77b4;"/>
   </g>
   <g id="patch_95">
    <path clip-path="url(#p34376bb9b3)" d="M 319.062857 307.584 
L 320.48 307.584 
L 320.48 304.546955 
L 319.062857 304.546955 
z
" style="fill:#1f77b4;"/>
   </g>
   <g id="patch_96">
    <path clip-path="url(#p34376bb9b3)" d="M 321.897143 307.584 
L 323.314286 307.584 
L 323.314286 305.506894 
L 321.897143 305.506894 
z
" style="fill:#1f77b4;"/>
   </g>
   <g id="patch_97">
    <path clip-path="url(#p34376bb9b3)" d="M 324.731429 307.584 
L 326.148571 307.584 
L 326.148571 306.976503 
L 324.731429 306.976503 
z
" style="fill:#1f77b4;"/>
   </g>
   <g id="patch_98">
    <path clip-path="url(#p34376bb9b3)" d="M 327.565714 307.584 
L 328.982857 307.584 
L 328.982857 303.625573 
L 327.565714 303.625573 
z
" style="fill:#1f77b4;"/>
   </g>
   <g id="patch_99">
    <path clip-path="url(#p34376bb9b3)" d="M 330.4 307.584 
L 331.817143 307.584 
L 331.817143 303.793768 
L 330.4 303.793768 
z
" style="fill:#1f77b4;"/>
   </g>
   <g id="patch_100">
    <path clip-path="url(#p34376bb9b3)" d="M 333.234286 307.584 
L 334.651429 307.584 
L 334.651429 302.129189 
L 333.234286 302.129189 
z
" style="fill:#1f77b4;"/>
   </g>
   <g id="patch_101">
    <path clip-path="url(#p34376bb9b3)" d="M 336.068571 307.584 
L 337.485714 307.584 
L 337.485714 306.499125 
L 336.068571 306.499125 
z
" style="fill:#1f77b4;"/>
   </g>
   <g id="patch_102">
    <path clip-path="url(#p34376bb9b3)" d="M 338.902857 307.584 
L 340.32 307.584 
L 340.32 304.065225 
L 338.902857 304.065225 
z
" style="fill:#1f77b4;"/>
   </g>
   <g id="patch_103">
    <path clip-path="url(#p34376bb9b3)" d="M 341.737143 307.584 
L 343.154286 307.584 
L 343.154286 303.870457 
L 341.737143 303.870457 
z
" style="fill:#1f77b4;"/>
   </g>
   <g id="patch_104">
    <path clip-path="url(#p34376bb9b3)" d="M 344.571429 307.584 
L 345.988571 307.584 
L 345.988571 306.945753 
L 344.571429 306.945753 
z
" style="fill:#1f77b4;"/>
   </g>
   <g id="patch_105">
    <path clip-path="url(#p34376bb9b3)" d="M 347.405714 307.584 
L 348.822857 307.584 
L 348.822857 305.694998 
L 347.405714 305.694998 
z
" style="fill:#1f77b4;"/>
   </g>
   <g id="patch_106">
    <path clip-path="url(#p34376bb9b3)" d="M 350.24 307.584 
L 351.657143 307.584 
L 351.657143 305.55822 
L 350.24 305.55822 
z
" style="fill:#1f77b4;"/>
   </g>
   <g id="patch_107">
    <path clip-path="url(#p34376bb9b3)" d="M 353.074286 307.584 
L 354.491429 307.584 
L 354.491429 306.040296 
L 353.074286 306.040296 
z
" style="fill:#1f77b4;"/>
   </g>
   <g id="patch_108">
    <path clip-path="url(#p34376bb9b3)" d="M 355.908571 307.584 
L 357.325714 307.584 
L 357.325714 306.85187 
L 355.908571 306.85187 
z
" style="fill:#1f77b4;"/>
   </g>
   <g id="patch_109">
    <path clip-path="url(#p34376bb9b3)" d="M 358.742857 307.584 
L 360.16 307.584 
L 360.16 305.757784 
L 358.742857 305.757784 
z
" style="fill:#1f77b4;"/>
   </g>
   <g id="patch_110">
    <path clip-path="url(#p34376bb9b3)" d="M 361.577143 307.584 
L 362.994286 307.584 
L 362.994286 304.831554 
L 361.577143 304.831554 
z
" style="fill:#1f77b4;"/>
   </g>
   <g id="patch_111">
    <path clip-path="url(#p34376bb9b3)" d="M 364.411429 307.584 
L 365.828571 307.584 
L 365.828571 305.336328 
L 364.411429 305.336328 
z
" style="fill:#1f77b4;"/>
   </g>
   <g id="patch_112">
    <path clip-path="url(#p34376bb9b3)" d="M 367.245714 307.584 
L 368.662857 307.584 
L 368.662857 306.580661 
L 367.245714 306.580661 
z
" style="fill:#1f77b4;"/>
   </g>
   <g id="patch_113">
    <path clip-path="url(#p34376bb9b3)" d="M 370.08 307.584 
L 371.497143 307.584 
L 371.497143 303.514909 
L 370.08 303.514909 
z
" style="fill:#1f77b4;"/>
   </g>
   <g id="patch_114">
    <path clip-path="url(#p34376bb9b3)" d="M 372.914286 307.584 
L 374.331429 307.584 
L 374.331429 306.66979 
L 372.914286 306.66979 
z
" style="fill:#1f77b4;"/>
   </g>
   <g id="patch_115">
    <path clip-path="url(#p34376bb9b3)" d="M 375.748571 307.584 
L 377.165714 307.584 
L 377.165714 301.999237 
L 375.748571 301.999237 
z
" style="fill:#1f77b4;"/>
   </g>
   <g id="patch_116">
    <path clip-path="url(#p34376bb9b3)" d="M 378.582857 307.584 
L 380 307.584 
L 380 303.160344 
L 378.582857 303.160344 
z
" style="fill:#1f77b4;"/>
   </g>
   <g id="patch_117">
    <path clip-path="url(#p34376bb9b3)" d="M 381.417143 307.584 
L 382.834286 307.584 
L 382.834286 305.872613 
L 381.417143 305.872613 
z
" style="fill:#1f77b4;"/>
   </g>
   <g id="patch_118">
    <path clip-path="url(#p34376bb9b3)" d="M 384.251429 307.584 
L 385.668571 307.584 
L 385.668571 306.068001 
L 384.251429 306.068001 
z
" style="fill:#1f77b4;"/>
   </g>
   <g id="patch_119">
    <path clip-path="url(#p34376bb9b3)" d="M 387.085714 307.584 
L 388.502857 307.584 
L 388.502857 305.145339 
L 387.085714 305.145339 
z
" style="fill:#1f77b4;"/>
   </g>
   <g id="patch_120">
    <path clip-path="url(#p34376bb9b3)" d="M 389.92 307.584 
L 391.337143 307.584 
L 391.337143 306.835808 
L 389.92 306.835808 
z
" style="fill:#1f77b4;"/>
   </g>
   <g id="patch_121">
    <path clip-path="url(#p34376bb9b3)" d="M 392.754286 307.584 
L 394.171429 307.584 
L 394.171429 304.949253 
L 392.754286 304.949253 
z
" style="fill:#1f77b4;"/>
   </g>
   <g id="patch_122">
    <path clip-path="url(#p34376bb9b3)" d="M 395.588571 307.584 
L 397.005714 307.584 
L 397.005714 305.958555 
L 395.588571 305.958555 
z
" style="fill:#1f77b4;"/>
   </g>
   <g id="patch_123">
    <path clip-path="url(#p34376bb9b3)" d="M 398.422857 307.584 
L 399.84 307.584 
L 399.84 305.527779 
L 398.422857 305.527779 
z
" style="fill:#1f77b4;"/>
   </g>
   <g id="patch_124">
    <path clip-path="url(#p34376bb9b3)" d="M 401.257143 307.584 
L 402.674286 307.584 
L 402.674286 305.058785 
L 401.257143 305.058785 
z
" style="fill:#1f77b4;"/>
   </g>
   <g id="patch_125">
    <path clip-path="url(#p34376bb9b3)" d="M 404.091429 307.584 
L 405.508571 307.584 
L 405.508571 306.457814 
L 404.091429 306.457814 
z
" style="fill:#1f77b4;"/>
   </g>
   <g id="patch_126">
    <path clip-path="url(#p34376bb9b3)" d="M 406.925714 307.584 
L 408.342857 307.584 
L 408.342857 306.04411 
L 406.925714 306.04411 
z
" style="fill:#1f77b4;"/>
   </g>
   <g id="patch_127">
    <path clip-path="url(#p34376bb9b3)" d="M 409.76 307.584 
L 411.177143 307.584 
L 411.177143 305.911699 
L 409.76 305.911699 
z
" style="fill:#1f77b4;"/>
   </g>
   <g id="patch_128">
    <path clip-path="url(#p34376bb9b3)" d="M 412.594286 307.584 
L 414.011429 307.584 
L 414.011429 304.789459 
L 412.594286 304.789459 
z
" style="fill:#1f77b4;"/>
   </g>
   <g id="patch_129">
    <path clip-path="url(#p34376bb9b3)" d="M 58.308571 306.377224 
L 59.725714 306.377224 
L 59.725714 257.976485 
L 58.308571 257.976485 
z
" style="fill:#ff7f0e;"/>
   </g>
   <g id="patch_130">
    <path clip-path="url(#p34376bb9b3)" d="M 61.142857 304.083495 
L 62.56 304.083495 
L 62.56 227.859719 
L 61.142857 227.859719 
z
" style="fill:#ff7f0e;"/>
   </g>
   <g id="patch_131">
    <path clip-path="url(#p34376bb9b3)" d="M 63.977143 306.559869 
L 65.394286 306.559869 
L 65.394286 273.155059 
L 63.977143 273.155059 
z
" style="fill:#ff7f0e;"/>
   </g>
   <g id="patch_132">
    <path clip-path="url(#p34376bb9b3)" d="M 66.811429 306.23191 
L 68.228571 306.23191 
L 68.228571 304.913505 
L 66.811429 304.913505 
z
" style="fill:#ff7f0e;"/>
   </g>
   <g id="patch_133">
    <path clip-path="url(#p34376bb9b3)" d="M 69.645714 305.948426 
L 71.062857 305.948426 
L 71.062857 303.805342 
L 69.645714 303.805342 
z
" style="fill:#ff7f0e;"/>
   </g>
   <g id="patch_134">
    <path clip-path="url(#p34376bb9b3)" d="M 72.48 304.56481 
L 73.897143 304.56481 
L 73.897143 293.536314 
L 72.48 293.536314 
z
" style="fill:#ff7f0e;"/>
   </g>
   <g id="patch_135">
    <path clip-path="url(#p34376bb9b3)" d="M 75.314286 304.271898 
L 76.731429 304.271898 
L 76.731429 226.1688 
L 75.314286 226.1688 
z
" style="fill:#ff7f0e;"/>
   </g>
   <g id="patch_136">
    <path clip-path="url(#p34376bb9b3)" d="M 78.148571 305.794915 
L 79.565714 305.794915 
L 79.565714 297.56896 
L 78.148571 297.56896 
z
" style="fill:#ff7f0e;"/>
   </g>
   <g id="patch_137">
    <path clip-path="url(#p34376bb9b3)" d="M 80.982857 305.46861 
L 82.4 305.46861 
L 82.4 243.51781 
L 80.982857 243.51781 
z
" style="fill:#ff7f0e;"/>
   </g>
   <g id="patch_138">
    <path clip-path="url(#p34376bb9b3)" d="M 83.817143 305.159151 
L 85.234286 305.159151 
L 85.234286 292.648465 
L 83.817143 292.648465 
z
" style="fill:#ff7f0e;"/>
   </g>
   <g id="patch_139">
    <path clip-path="url(#p34376bb9b3)" d="M 86.651429 306.067535 
L 88.068571 306.067535 
L 88.068571 303.482427 
L 86.651429 303.482427 
z
" style="fill:#ff7f0e;"/>
   </g>
   <g id="patch_140">
    <path clip-path="url(#p34376bb9b3)" d="M 89.485714 305.754613 
L 90.902857 305.754613 
L 90.902857 301.844476 
L 89.485714 301.844476 
z
" style="fill:#ff7f0e;"/>
   </g>
   <g id="patch_141">
    <path clip-path="url(#p34376bb9b3)" d="M 92.32 306.731728 
L 93.737143 306.731728 
L 93.737143 304.906876 
L 92.32 304.906876 
z
" style="fill:#ff7f0e;"/>
   </g>
   <g id="patch_142">
    <path clip-path="url(#p34376bb9b3)" d="M 95.154286 303.147026 
L 96.571429 303.147026 
L 96.571429 202.377093 
L 95.154286 202.377093 
z
" style="fill:#ff7f0e;"/>
   </g>
   <g id="patch_143">
    <path clip-path="url(#p34376bb9b3)" d="M 97.988571 305.436785 
L 99.405714 305.436785 
L 99.405714 196.20033 
L 97.988571 196.20033 
z
" style="fill:#ff7f0e;"/>
   </g>
   <g id="patch_144">
    <path clip-path="url(#p34376bb9b3)" d="M 100.822857 303.698353 
L 102.24 303.698353 
L 102.24 167.107268 
L 100.822857 167.107268 
z
" style="fill:#ff7f0e;"/>
   </g>
   <g id="patch_145">
    <path clip-path="url(#p34376bb9b3)" d="M 103.657143 303.273986 
L 105.074286 303.273986 
L 105.074286 58.548722 
L 103.657143 58.548722 
z
" style="fill:#ff7f0e;"/>
   </g>
   <g id="patch_146">
    <path clip-path="url(#p34376bb9b3)" d="M 106.491429 307.243589 
L 107.908571 307.243589 
L 107.908571 307.038271 
L 106.491429 307.038271 
z
" style="fill:#ff7f0e;"/>
   </g>
   <g id="patch_147">
    <path clip-path="url(#p34376bb9b3)" d="M 109.325714 306.53468 
L 110.742857 306.53468 
L 110.742857 214.688675 
L 109.325714 214.688675 
z
" style="fill:#ff7f0e;"/>
   </g>
   <g id="patch_148">
    <path clip-path="url(#p34376bb9b3)" d="M 112.16 306.107079 
L 113.577143 306.107079 
L 113.577143 289.372419 
L 112.16 289.372419 
z
" style="fill:#ff7f0e;"/>
   </g>
   <g id="patch_149">
    <path clip-path="url(#p34376bb9b3)" d="M 114.994286 306.416724 
L 116.411429 306.416724 
L 116.411429 276.586236 
L 114.994286 276.586236 
z
" style="fill:#ff7f0e;"/>
   </g>
   <g id="patch_150">
    <path clip-path="url(#p34376bb9b3)" d="M 117.828571 302.036105 
L 119.245714 302.036105 
L 119.245714 183.51607 
L 117.828571 183.51607 
z
" style="fill:#ff7f0e;"/>
   </g>
   <g id="patch_151">
    <path clip-path="url(#p34376bb9b3)" d="M 120.662857 307.18984 
L 122.08 307.18984 
L 122.08 305.391656 
L 120.662857 305.391656 
z
" style="fill:#ff7f0e;"/>
   </g>
   <g id="patch_152">
    <path clip-path="url(#p34376bb9b3)" d="M 123.497143 307.183631 
L 124.914286 307.183631 
L 124.914286 244.18302 
L 123.497143 244.18302 
z
" style="fill:#ff7f0e;"/>
   </g>
   <g id="patch_153">
    <path clip-path="url(#p34376bb9b3)" d="M 126.331429 303.836244 
L 127.748571 303.836244 
L 127.748571 283.968332 
L 126.331429 283.968332 
z
" style="fill:#ff7f0e;"/>
   </g>
   <g id="patch_154">
    <path clip-path="url(#p34376bb9b3)" d="M 129.165714 304.661026 
L 130.582857 304.661026 
L 130.582857 288.277807 
L 129.165714 288.277807 
z
" style="fill:#ff7f0e;"/>
   </g>
   <g id="patch_155">
    <path clip-path="url(#p34376bb9b3)" d="M 132 306.470798 
L 133.417143 306.470798 
L 133.417143 305.516853 
L 132 305.516853 
z
" style="fill:#ff7f0e;"/>
   </g>
   <g id="patch_156">
    <path clip-path="url(#p34376bb9b3)" d="M 134.834286 306.925856 
L 136.251429 306.925856 
L 136.251429 100.208832 
L 134.834286 100.208832 
z
" style="fill:#ff7f0e;"/>
   </g>
   <g id="patch_157">
    <path clip-path="url(#p34376bb9b3)" d="M 137.668571 304.791494 
L 139.085714 304.791494 
L 139.085714 300.477353 
L 137.668571 300.477353 
z
" style="fill:#ff7f0e;"/>
   </g>
   <g id="patch_158">
    <path clip-path="url(#p34376bb9b3)" d="M 140.502857 304.733455 
L 141.92 304.733455 
L 141.92 202.515917 
L 140.502857 202.515917 
z
" style="fill:#ff7f0e;"/>
   </g>
   <g id="patch_159">
    <path clip-path="url(#p34376bb9b3)" d="M 143.337143 304.480579 
L 144.754286 304.480579 
L 144.754286 297.099437 
L 143.337143 297.099437 
z
" style="fill:#ff7f0e;"/>
   </g>
   <g id="patch_160">
    <path clip-path="url(#p34376bb9b3)" d="M 146.171429 304.585441 
L 147.588571 304.585441 
L 147.588571 274.266666 
L 146.171429 274.266666 
z
" style="fill:#ff7f0e;"/>
   </g>
   <g id="patch_161">
    <path clip-path="url(#p34376bb9b3)" d="M 149.005714 305.029648 
L 150.422857 305.029648 
L 150.422857 296.51965 
L 149.005714 296.51965 
z
" style="fill:#ff7f0e;"/>
   </g>
   <g id="patch_162">
    <path clip-path="url(#p34376bb9b3)" d="M 151.84 304.287228 
L 153.257143 304.287228 
L 153.257143 232.913517 
L 151.84 232.913517 
z
" style="fill:#ff7f0e;"/>
   </g>
   <g id="patch_163">
    <path clip-path="url(#p34376bb9b3)" d="M 154.674286 305.775726 
L 156.091429 305.775726 
L 156.091429 301.857967 
L 154.674286 301.857967 
z
" style="fill:#ff7f0e;"/>
   </g>
   <g id="patch_164">
    <path clip-path="url(#p34376bb9b3)" d="M 157.508571 305.194008 
L 158.925714 305.194008 
L 158.925714 288.741261 
L 157.508571 288.741261 
z
" style="fill:#ff7f0e;"/>
   </g>
   <g id="patch_165">
    <path clip-path="url(#p34376bb9b3)" d="M 160.342857 305.288179 
L 161.76 305.288179 
L 161.76 298.215366 
L 160.342857 298.215366 
z
" style="fill:#ff7f0e;"/>
   </g>
   <g id="patch_166">
    <path clip-path="url(#p34376bb9b3)" d="M 163.177143 305.976601 
L 164.594286 305.976601 
L 164.594286 305.06959 
L 163.177143 305.06959 
z
" style="fill:#ff7f0e;"/>
   </g>
   <g id="patch_167">
    <path clip-path="url(#p34376bb9b3)" d="M 166.011429 305.578613 
L 167.428571 305.578613 
L 167.428571 236.266595 
L 166.011429 236.266595 
z
" style="fill:#ff7f0e;"/>
   </g>
   <g id="patch_168">
    <path clip-path="url(#p34376bb9b3)" d="M 168.845714 305.420084 
L 170.262857 305.420084 
L 170.262857 302.879654 
L 168.845714 302.879654 
z
" style="fill:#ff7f0e;"/>
   </g>
   <g id="patch_169">
    <path clip-path="url(#p34376bb9b3)" d="M 171.68 305.498702 
L 173.097143 305.498702 
L 173.097143 297.317085 
L 171.68 297.317085 
z
" style="fill:#ff7f0e;"/>
   </g>
   <g id="patch_170">
    <path clip-path="url(#p34376bb9b3)" d="M 174.514286 305.423479 
L 175.931429 305.423479 
L 175.931429 158.910913 
L 174.514286 158.910913 
z
" style="fill:#ff7f0e;"/>
   </g>
   <g id="patch_171">
    <path clip-path="url(#p34376bb9b3)" d="M 177.348571 303.63191 
L 178.765714 303.63191 
L 178.765714 292.552405 
L 177.348571 292.552405 
z
" style="fill:#ff7f0e;"/>
   </g>
   <g id="patch_172">
    <path clip-path="url(#p34376bb9b3)" d="M 180.182857 304.961732 
L 181.6 304.961732 
L 181.6 247.563152 
L 180.182857 247.563152 
z
" style="fill:#ff7f0e;"/>
   </g>
   <g id="patch_173">
    <path clip-path="url(#p34376bb9b3)" d="M 183.017143 304.619444 
L 184.434286 304.619444 
L 184.434286 206.349737 
L 183.017143 206.349737 
z
" style="fill:#ff7f0e;"/>
   </g>
   <g id="patch_174">
    <path clip-path="url(#p34376bb9b3)" d="M 185.851429 305.268992 
L 187.268571 305.268992 
L 187.268571 298.461287 
L 185.851429 298.461287 
z
" style="fill:#ff7f0e;"/>
   </g>
   <g id="patch_175">
    <path clip-path="url(#p34376bb9b3)" d="M 188.685714 306.663354 
L 190.102857 306.663354 
L 190.102857 244.071776 
L 188.685714 244.071776 
z
" style="fill:#ff7f0e;"/>
   </g>
   <g id="patch_176">
    <path clip-path="url(#p34376bb9b3)" d="M 191.52 305.371922 
L 192.937143 305.371922 
L 192.937143 267.429913 
L 191.52 267.429913 
z
" style="fill:#ff7f0e;"/>
   </g>
   <g id="patch_177">
    <path clip-path="url(#p34376bb9b3)" d="M 194.354286 304.58855 
L 195.771429 304.58855 
L 195.771429 292.13289 
L 194.354286 292.13289 
z
" style="fill:#ff7f0e;"/>
   </g>
   <g id="patch_178">
    <path clip-path="url(#p34376bb9b3)" d="M 197.188571 304.496476 
L 198.605714 304.496476 
L 198.605714 165.756691 
L 197.188571 165.756691 
z
" style="fill:#ff7f0e;"/>
   </g>
   <g id="patch_179">
    <path clip-path="url(#p34376bb9b3)" d="M 200.022857 304.71859 
L 201.44 304.71859 
L 201.44 249.731088 
L 200.022857 249.731088 
z
" style="fill:#ff7f0e;"/>
   </g>
   <g id="patch_180">
    <path clip-path="url(#p34376bb9b3)" d="M 202.857143 301.357047 
L 204.274286 301.357047 
L 204.274286 52.675849 
L 202.857143 52.675849 
z
" style="fill:#ff7f0e;"/>
   </g>
   <g id="patch_181">
    <path clip-path="url(#p34376bb9b3)" d="M 205.691429 305.51002 
L 207.108571 305.51002 
L 207.108571 246.555382 
L 205.691429 246.555382 
z
" style="fill:#ff7f0e;"/>
   </g>
   <g id="patch_182">
    <path clip-path="url(#p34376bb9b3)" d="M 208.525714 304.579695 
L 209.942857 304.579695 
L 209.942857 292.967719 
L 208.525714 292.967719 
z
" style="fill:#ff7f0e;"/>
   </g>
   <g id="patch_183">
    <path clip-path="url(#p34376bb9b3)" d="M 211.36 304.03917 
L 212.777143 304.03917 
L 212.777143 290.300424 
L 211.36 290.300424 
z
" style="fill:#ff7f0e;"/>
   </g>
   <g id="patch_184">
    <path clip-path="url(#p34376bb9b3)" d="M 214.194286 306.139925 
L 215.611429 306.139925 
L 215.611429 303.335605 
L 214.194286 303.335605 
z
" style="fill:#ff7f0e;"/>
   </g>
   <g id="patch_185">
    <path clip-path="url(#p34376bb9b3)" d="M 217.028571 305.762492 
L 218.445714 305.762492 
L 218.445714 172.227491 
L 217.028571 172.227491 
z
" style="fill:#ff7f0e;"/>
   </g>
   <g id="patch_186">
    <path clip-path="url(#p34376bb9b3)" d="M 219.862857 304.902499 
L 221.28 304.902499 
L 221.28 302.634805 
L 219.862857 302.634805 
z
" style="fill:#ff7f0e;"/>
   </g>
   <g id="patch_187">
    <path clip-path="url(#p34376bb9b3)" d="M 222.697143 304.720782 
L 224.114286 304.720782 
L 224.114286 243.730751 
L 222.697143 243.730751 
z
" style="fill:#ff7f0e;"/>
   </g>
   <g id="patch_188">
    <path clip-path="url(#p34376bb9b3)" d="M 225.531429 303.276376 
L 226.948571 303.276376 
L 226.948571 291.083891 
L 225.531429 291.083891 
z
" style="fill:#ff7f0e;"/>
   </g>
   <g id="patch_189">
    <path clip-path="url(#p34376bb9b3)" d="M 228.365714 306.541919 
L 229.782857 306.541919 
L 229.782857 304.774728 
L 228.365714 304.774728 
z
" style="fill:#ff7f0e;"/>
   </g>
   <g id="patch_190">
    <path clip-path="url(#p34376bb9b3)" d="M 231.2 304.277814 
L 232.617143 304.277814 
L 232.617143 269.56343 
L 231.2 269.56343 
z
" style="fill:#ff7f0e;"/>
   </g>
   <g id="patch_191">
    <path clip-path="url(#p34376bb9b3)" d="M 234.034286 300.247172 
L 235.451429 300.247172 
L 235.451429 276.342797 
L 234.034286 276.342797 
z
" style="fill:#ff7f0e;"/>
   </g>
   <g id="patch_192">
    <path clip-path="url(#p34376bb9b3)" d="M 236.868571 303.887176 
L 238.285714 303.887176 
L 238.285714 298.576926 
L 236.868571 298.576926 
z
" style="fill:#ff7f0e;"/>
   </g>
   <g id="patch_193">
    <path clip-path="url(#p34376bb9b3)" d="M 239.702857 305.065965 
L 241.12 305.065965 
L 241.12 301.212209 
L 239.702857 301.212209 
z
" style="fill:#ff7f0e;"/>
   </g>
   <g id="patch_194">
    <path clip-path="url(#p34376bb9b3)" d="M 242.537143 307.175919 
L 243.954286 307.175919 
L 243.954286 305.716491 
L 242.537143 305.716491 
z
" style="fill:#ff7f0e;"/>
   </g>
   <g id="patch_195">
    <path clip-path="url(#p34376bb9b3)" d="M 245.371429 305.553481 
L 246.788571 305.553481 
L 246.788571 293.962317 
L 245.371429 293.962317 
z
" style="fill:#ff7f0e;"/>
   </g>
   <g id="patch_196">
    <path clip-path="url(#p34376bb9b3)" d="M 248.205714 304.627401 
L 249.622857 304.627401 
L 249.622857 159.070643 
L 248.205714 159.070643 
z
" style="fill:#ff7f0e;"/>
   </g>
   <g id="patch_197">
    <path clip-path="url(#p34376bb9b3)" d="M 251.04 302.50364 
L 252.457143 302.50364 
L 252.457143 243.396307 
L 251.04 243.396307 
z
" style="fill:#ff7f0e;"/>
   </g>
   <g id="patch_198">
    <path clip-path="url(#p34376bb9b3)" d="M 253.874286 305.809529 
L 255.291429 305.809529 
L 255.291429 41.472 
L 253.874286 41.472 
z
" style="fill:#ff7f0e;"/>
   </g>
   <g id="patch_199">
    <path clip-path="url(#p34376bb9b3)" d="M 256.708571 303.254741 
L 258.125714 303.254741 
L 258.125714 149.281415 
L 256.708571 149.281415 
z
" style="fill:#ff7f0e;"/>
   </g>
   <g id="patch_200">
    <path clip-path="url(#p34376bb9b3)" d="M 259.542857 303.896294 
L 260.96 303.896294 
L 260.96 188.808597 
L 259.542857 188.808597 
z
" style="fill:#ff7f0e;"/>
   </g>
   <g id="patch_201">
    <path clip-path="url(#p34376bb9b3)" d="M 262.377143 305.494163 
L 263.794286 305.494163 
L 263.794286 298.100212 
L 262.377143 298.100212 
z
" style="fill:#ff7f0e;"/>
   </g>
   <g id="patch_202">
    <path clip-path="url(#p34376bb9b3)" d="M 265.211429 304.661588 
L 266.628571 304.661588 
L 266.628571 300.024641 
L 265.211429 300.024641 
z
" style="fill:#ff7f0e;"/>
   </g>
   <g id="patch_203">
    <path clip-path="url(#p34376bb9b3)" d="M 268.045714 302.769073 
L 269.462857 302.769073 
L 269.462857 285.89781 
L 268.045714 285.89781 
z
" style="fill:#ff7f0e;"/>
   </g>
   <g id="patch_204">
    <path clip-path="url(#p34376bb9b3)" d="M 270.88 305.898421 
L 272.297143 305.898421 
L 272.297143 293.013044 
L 270.88 293.013044 
z
" style="fill:#ff7f0e;"/>
   </g>
   <g id="patch_205">
    <path clip-path="url(#p34376bb9b3)" d="M 273.714286 305.169327 
L 275.131429 305.169327 
L 275.131429 117.642725 
L 273.714286 117.642725 
z
" style="fill:#ff7f0e;"/>
   </g>
   <g id="patch_206">
    <path clip-path="url(#p34376bb9b3)" d="M 276.548571 304.771582 
L 277.965714 304.771582 
L 277.965714 300.300013 
L 276.548571 300.300013 
z
" style="fill:#ff7f0e;"/>
   </g>
   <g id="patch_207">
    <path clip-path="url(#p34376bb9b3)" d="M 279.382857 304.528647 
L 280.8 304.528647 
L 280.8 299.420958 
L 279.382857 299.420958 
z
" style="fill:#ff7f0e;"/>
   </g>
   <g id="patch_208">
    <path clip-path="url(#p34376bb9b3)" d="M 282.217143 306.60574 
L 283.634286 306.60574 
L 283.634286 305.934344 
L 282.217143 305.934344 
z
" style="fill:#ff7f0e;"/>
   </g>
   <g id="patch_209">
    <path clip-path="url(#p34376bb9b3)" d="M 285.051429 306.070217 
L 286.468571 306.070217 
L 286.468571 229.83566 
L 285.051429 229.83566 
z
" style="fill:#ff7f0e;"/>
   </g>
   <g id="patch_210">
    <path clip-path="url(#p34376bb9b3)" d="M 287.885714 306.743129 
L 289.302857 306.743129 
L 289.302857 260.087748 
L 287.885714 260.087748 
z
" style="fill:#ff7f0e;"/>
   </g>
   <g id="patch_211">
    <path clip-path="url(#p34376bb9b3)" d="M 290.72 303.965355 
L 292.137143 303.965355 
L 292.137143 89.84174 
L 290.72 89.84174 
z
" style="fill:#ff7f0e;"/>
   </g>
   <g id="patch_212">
    <path clip-path="url(#p34376bb9b3)" d="M 293.554286 302.140793 
L 294.971429 302.140793 
L 294.971429 244.806976 
L 293.554286 244.806976 
z
" style="fill:#ff7f0e;"/>
   </g>
   <g id="patch_213">
    <path clip-path="url(#p34376bb9b3)" d="M 296.388571 305.464641 
L 297.805714 305.464641 
L 297.805714 194.859993 
L 296.388571 194.859993 
z
" style="fill:#ff7f0e;"/>
   </g>
   <g id="patch_214">
    <path clip-path="url(#p34376bb9b3)" d="M 299.222857 307.026199 
L 300.64 307.026199 
L 300.64 306.703041 
L 299.222857 306.703041 
z
" style="fill:#ff7f0e;"/>
   </g>
   <g id="patch_215">
    <path clip-path="url(#p34376bb9b3)" d="M 302.057143 305.701827 
L 303.474286 305.701827 
L 303.474286 296.055739 
L 302.057143 296.055739 
z
" style="fill:#ff7f0e;"/>
   </g>
   <g id="patch_216">
    <path clip-path="url(#p34376bb9b3)" d="M 304.891429 303.859839 
L 306.308571 303.859839 
L 306.308571 220.448286 
L 304.891429 220.448286 
z
" style="fill:#ff7f0e;"/>
   </g>
   <g id="patch_217">
    <path clip-path="url(#p34376bb9b3)" d="M 307.725714 305.371777 
L 309.142857 305.371777 
L 309.142857 217.647232 
L 307.725714 217.647232 
z
" style="fill:#ff7f0e;"/>
   </g>
   <g id="patch_218">
    <path clip-path="url(#p34376bb9b3)" d="M 310.56 305.975897 
L 311.977143 305.975897 
L 311.977143 299.406894 
L 310.56 299.406894 
z
" style="fill:#ff7f0e;"/>
   </g>
   <g id="patch_219">
    <path clip-path="url(#p34376bb9b3)" d="M 313.394286 306.993621 
L 314.811429 306.993621 
L 314.811429 304.588886 
L 313.394286 304.588886 
z
" style="fill:#ff7f0e;"/>
   </g>
   <g id="patch_220">
    <path clip-path="url(#p34376bb9b3)" d="M 316.228571 307.265683 
L 317.645714 307.265683 
L 317.645714 307.139041 
L 316.228571 307.139041 
z
" style="fill:#ff7f0e;"/>
   </g>
   <g id="patch_221">
    <path clip-path="url(#p34376bb9b3)" d="M 319.062857 304.546955 
L 320.48 304.546955 
L 320.48 296.105878 
L 319.062857 296.105878 
z
" style="fill:#ff7f0e;"/>
   </g>
   <g id="patch_222">
    <path clip-path="url(#p34376bb9b3)" d="M 321.897143 305.506894 
L 323.314286 305.506894 
L 323.314286 285.995545 
L 321.897143 285.995545 
z
" style="fill:#ff7f0e;"/>
   </g>
   <g id="patch_223">
    <path clip-path="url(#p34376bb9b3)" d="M 324.731429 306.976503 
L 326.148571 306.976503 
L 326.148571 306.575733 
L 324.731429 306.575733 
z
" style="fill:#ff7f0e;"/>
   </g>
   <g id="patch_224">
    <path clip-path="url(#p34376bb9b3)" d="M 327.565714 303.625573 
L 328.982857 303.625573 
L 328.982857 293.230484 
L 327.565714 293.230484 
z
" style="fill:#ff7f0e;"/>
   </g>
   <g id="patch_225">
    <path clip-path="url(#p34376bb9b3)" d="M 330.4 303.793768 
L 331.817143 303.793768 
L 331.817143 295.347498 
L 330.4 295.347498 
z
" style="fill:#ff7f0e;"/>
   </g>
   <g id="patch_226">
    <path clip-path="url(#p34376bb9b3)" d="M 333.234286 302.129189 
L 334.651429 302.129189 
L 334.651429 270.789552 
L 333.234286 270.789552 
z
" style="fill:#ff7f0e;"/>
   </g>
   <g id="patch_227">
    <path clip-path="url(#p34376bb9b3)" d="M 336.068571 306.499125 
L 337.485714 306.499125 
L 337.485714 300.463304 
L 336.068571 300.463304 
z
" style="fill:#ff7f0e;"/>
   </g>
   <g id="patch_228">
    <path clip-path="url(#p34376bb9b3)" d="M 338.902857 304.065225 
L 340.32 304.065225 
L 340.32 156.395041 
L 338.902857 156.395041 
z
" style="fill:#ff7f0e;"/>
   </g>
   <g id="patch_229">
    <path clip-path="url(#p34376bb9b3)" d="M 341.737143 303.870457 
L 343.154286 303.870457 
L 343.154286 237.330636 
L 341.737143 237.330636 
z
" style="fill:#ff7f0e;"/>
   </g>
   <g id="patch_230">
    <path clip-path="url(#p34376bb9b3)" d="M 344.571429 306.945753 
L 345.988571 306.945753 
L 345.988571 306.588694 
L 344.571429 306.588694 
z
" style="fill:#ff7f0e;"/>
   </g>
   <g id="patch_231">
    <path clip-path="url(#p34376bb9b3)" d="M 347.405714 305.694998 
L 348.822857 305.694998 
L 348.822857 284.605436 
L 347.405714 284.605436 
z
" style="fill:#ff7f0e;"/>
   </g>
   <g id="patch_232">
    <path clip-path="url(#p34376bb9b3)" d="M 350.24 305.55822 
L 351.657143 305.55822 
L 351.657143 299.208867 
L 350.24 299.208867 
z
" style="fill:#ff7f0e;"/>
   </g>
   <g id="patch_233">
    <path clip-path="url(#p34376bb9b3)" d="M 353.074286 306.040296 
L 354.491429 306.040296 
L 354.491429 294.453716 
L 353.074286 294.453716 
z
" style="fill:#ff7f0e;"/>
   </g>
   <g id="patch_234">
    <path clip-path="url(#p34376bb9b3)" d="M 355.908571 306.85187 
L 357.325714 306.85187 
L 357.325714 305.289872 
L 355.908571 305.289872 
z
" style="fill:#ff7f0e;"/>
   </g>
   <g id="patch_235">
    <path clip-path="url(#p34376bb9b3)" d="M 358.742857 305.757784 
L 360.16 305.757784 
L 360.16 297.311322 
L 358.742857 297.311322 
z
" style="fill:#ff7f0e;"/>
   </g>
   <g id="patch_236">
    <path clip-path="url(#p34376bb9b3)" d="M 361.577143 304.831554 
L 362.994286 304.831554 
L 362.994286 240.270828 
L 361.577143 240.270828 
z
" style="fill:#ff7f0e;"/>
   </g>
   <g id="patch_237">
    <path clip-path="url(#p34376bb9b3)" d="M 364.411429 305.336328 
L 365.828571 305.336328 
L 365.828571 255.588278 
L 364.411429 255.588278 
z
" style="fill:#ff7f0e;"/>
   </g>
   <g id="patch_238">
    <path clip-path="url(#p34376bb9b3)" d="M 367.245714 306.580661 
L 368.662857 306.580661 
L 368.662857 304.751263 
L 367.245714 304.751263 
z
" style="fill:#ff7f0e;"/>
   </g>
   <g id="patch_239">
    <path clip-path="url(#p34376bb9b3)" d="M 370.08 303.514909 
L 371.497143 303.514909 
L 371.497143 223.192593 
L 370.08 223.192593 
z
" style="fill:#ff7f0e;"/>
   </g>
   <g id="patch_240">
    <path clip-path="url(#p34376bb9b3)" d="M 372.914286 306.66979 
L 374.331429 306.66979 
L 374.331429 305.976723 
L 372.914286 305.976723 
z
" style="fill:#ff7f0e;"/>
   </g>
   <g id="patch_241">
    <path clip-path="url(#p34376bb9b3)" d="M 375.748571 301.999237 
L 377.165714 301.999237 
L 377.165714 154.998622 
L 375.748571 154.998622 
z
" style="fill:#ff7f0e;"/>
   </g>
   <g id="patch_242">
    <path clip-path="url(#p34376bb9b3)" d="M 378.582857 303.160344 
L 380 303.160344 
L 380 291.416485 
L 378.582857 291.416485 
z
" style="fill:#ff7f0e;"/>
   </g>
   <g id="patch_243">
    <path clip-path="url(#p34376bb9b3)" d="M 381.417143 305.872613 
L 382.834286 305.872613 
L 382.834286 293.509442 
L 381.417143 293.509442 
z
" style="fill:#ff7f0e;"/>
   </g>
   <g id="patch_244">
    <path clip-path="url(#p34376bb9b3)" d="M 384.251429 306.068001 
L 385.668571 306.068001 
L 385.668571 256.486427 
L 384.251429 256.486427 
z
" style="fill:#ff7f0e;"/>
   </g>
   <g id="patch_245">
    <path clip-path="url(#p34376bb9b3)" d="M 387.085714 305.145339 
L 388.502857 305.145339 
L 388.502857 303.064115 
L 387.085714 303.064115 
z
" style="fill:#ff7f0e;"/>
   </g>
   <g id="patch_246">
    <path clip-path="url(#p34376bb9b3)" d="M 389.92 306.835808 
L 391.337143 306.835808 
L 391.337143 262.011656 
L 389.92 262.011656 
z
" style="fill:#ff7f0e;"/>
   </g>
   <g id="patch_247">
    <path clip-path="url(#p34376bb9b3)" d="M 392.754286 304.949253 
L 394.171429 304.949253 
L 394.171429 299.468735 
L 392.754286 299.468735 
z
" style="fill:#ff7f0e;"/>
   </g>
   <g id="patch_248">
    <path clip-path="url(#p34376bb9b3)" d="M 395.588571 305.958555 
L 397.005714 305.958555 
L 397.005714 301.311465 
L 395.588571 301.311465 
z
" style="fill:#ff7f0e;"/>
   </g>
   <g id="patch_249">
    <path clip-path="url(#p34376bb9b3)" d="M 398.422857 305.527779 
L 399.84 305.527779 
L 399.84 213.268971 
L 398.422857 213.268971 
z
" style="fill:#ff7f0e;"/>
   </g>
   <g id="patch_250">
    <path clip-path="url(#p34376bb9b3)" d="M 401.257143 305.058785 
L 402.674286 305.058785 
L 402.674286 253.190708 
L 401.257143 253.190708 
z
" style="fill:#ff7f0e;"/>
   </g>
   <g id="patch_251">
    <path clip-path="url(#p34376bb9b3)" d="M 404.091429 306.457814 
L 405.508571 306.457814 
L 405.508571 305.601792 
L 404.091429 305.601792 
z
" style="fill:#ff7f0e;"/>
   </g>
   <g id="patch_252">
    <path clip-path="url(#p34376bb9b3)" d="M 406.925714 306.04411 
L 408.342857 306.04411 
L 408.342857 301.063604 
L 406.925714 301.063604 
z
" style="fill:#ff7f0e;"/>
   </g>
   <g id="patch_253">
    <path clip-path="url(#p34376bb9b3)" d="M 409.76 305.911699 
L 411.177143 305.911699 
L 411.177143 287.273109 
L 409.76 287.273109 
z
" style="fill:#ff7f0e;"/>
   </g>
   <g id="patch_254">
    <path clip-path="url(#p34376bb9b3)" d="M 412.594286 304.789459 
L 414.011429 304.789459 
L 414.011429 293.490513 
L 412.594286 293.490513 
z
" style="fill:#ff7f0e;"/>
   </g>
   <g id="matplotlib.axis_1">
    <g id="xtick_1">
     <g id="line2d_1">
      <defs>
       <path d="M 0 0 
L 0 3.5 
" id="m86977ed342" style="stroke:#000000;stroke-width:0.8;"/>
      </defs>
      <g>
       <use style="stroke:#000000;stroke-width:0.8;" x="59.017143" xlink:href="#m86977ed342" y="307.584"/>
      </g>
     </g>
     <g id="text_1">
      <!-- 0 -->
      <g transform="translate(61.776518 320.9465)rotate(-90)scale(0.1 -0.1)">
       <defs>
        <path d="M 2034 4250 
Q 1547 4250 1301 3770 
Q 1056 3291 1056 2328 
Q 1056 1369 1301 889 
Q 1547 409 2034 409 
Q 2525 409 2770 889 
Q 3016 1369 3016 2328 
Q 3016 3291 2770 3770 
Q 2525 4250 2034 4250 
z
M 2034 4750 
Q 2819 4750 3233 4129 
Q 3647 3509 3647 2328 
Q 3647 1150 3233 529 
Q 2819 -91 2034 -91 
Q 1250 -91 836 529 
Q 422 1150 422 2328 
Q 422 3509 836 4129 
Q 1250 4750 2034 4750 
z
" id="DejaVuSans-30" transform="scale(0.015625)"/>
       </defs>
       <use xlink:href="#DejaVuSans-30"/>
      </g>
     </g>
    </g>
    <g id="xtick_2">
     <g id="line2d_2">
      <g>
       <use style="stroke:#000000;stroke-width:0.8;" x="78.857143" xlink:href="#m86977ed342" y="307.584"/>
      </g>
     </g>
     <g id="text_2">
      <!-- 7 -->
      <g transform="translate(81.616518 320.9465)rotate(-90)scale(0.1 -0.1)">
       <defs>
        <path d="M 525 4666 
L 3525 4666 
L 3525 4397 
L 1831 0 
L 1172 0 
L 2766 4134 
L 525 4134 
L 525 4666 
z
" id="DejaVuSans-37" transform="scale(0.015625)"/>
       </defs>
       <use xlink:href="#DejaVuSans-37"/>
      </g>
     </g>
    </g>
    <g id="xtick_3">
     <g id="line2d_3">
      <g>
       <use style="stroke:#000000;stroke-width:0.8;" x="98.697143" xlink:href="#m86977ed342" y="307.584"/>
      </g>
     </g>
     <g id="text_3">
      <!-- 14 -->
      <g transform="translate(101.456518 327.309)rotate(-90)scale(0.1 -0.1)">
       <defs>
        <path d="M 794 531 
L 1825 531 
L 1825 4091 
L 703 3866 
L 703 4441 
L 1819 4666 
L 2450 4666 
L 2450 531 
L 3481 531 
L 3481 0 
L 794 0 
L 794 531 
z
" id="DejaVuSans-31" transform="scale(0.015625)"/>
        <path d="M 2419 4116 
L 825 1625 
L 2419 1625 
L 2419 4116 
z
M 2253 4666 
L 3047 4666 
L 3047 1625 
L 3713 1625 
L 3713 1100 
L 3047 1100 
L 3047 0 
L 2419 0 
L 2419 1100 
L 313 1100 
L 313 1709 
L 2253 4666 
z
" id="DejaVuSans-34" transform="scale(0.015625)"/>
       </defs>
       <use xlink:href="#DejaVuSans-31"/>
       <use x="63.623047" xlink:href="#DejaVuSans-34"/>
      </g>
     </g>
    </g>
    <g id="xtick_4">
     <g id="line2d_4">
      <g>
       <use style="stroke:#000000;stroke-width:0.8;" x="118.537143" xlink:href="#m86977ed342" y="307.584"/>
      </g>
     </g>
     <g id="text_4">
      <!-- 21 -->
      <g transform="translate(121.296518 327.309)rotate(-90)scale(0.1 -0.1)">
       <defs>
        <path d="M 1228 531 
L 3431 531 
L 3431 0 
L 469 0 
L 469 531 
Q 828 903 1448 1529 
Q 2069 2156 2228 2338 
Q 2531 2678 2651 2914 
Q 2772 3150 2772 3378 
Q 2772 3750 2511 3984 
Q 2250 4219 1831 4219 
Q 1534 4219 1204 4116 
Q 875 4013 500 3803 
L 500 4441 
Q 881 4594 1212 4672 
Q 1544 4750 1819 4750 
Q 2544 4750 2975 4387 
Q 3406 4025 3406 3419 
Q 3406 3131 3298 2873 
Q 3191 2616 2906 2266 
Q 2828 2175 2409 1742 
Q 1991 1309 1228 531 
z
" id="DejaVuSans-32" transform="scale(0.015625)"/>
       </defs>
       <use xlink:href="#DejaVuSans-32"/>
       <use x="63.623047" xlink:href="#DejaVuSans-31"/>
      </g>
     </g>
    </g>
    <g id="xtick_5">
     <g id="line2d_5">
      <g>
       <use style="stroke:#000000;stroke-width:0.8;" x="138.377143" xlink:href="#m86977ed342" y="307.584"/>
      </g>
     </g>
     <g id="text_5">
      <!-- 28 -->
      <g transform="translate(141.136518 327.309)rotate(-90)scale(0.1 -0.1)">
       <defs>
        <path d="M 2034 2216 
Q 1584 2216 1326 1975 
Q 1069 1734 1069 1313 
Q 1069 891 1326 650 
Q 1584 409 2034 409 
Q 2484 409 2743 651 
Q 3003 894 3003 1313 
Q 3003 1734 2745 1975 
Q 2488 2216 2034 2216 
z
M 1403 2484 
Q 997 2584 770 2862 
Q 544 3141 544 3541 
Q 544 4100 942 4425 
Q 1341 4750 2034 4750 
Q 2731 4750 3128 4425 
Q 3525 4100 3525 3541 
Q 3525 3141 3298 2862 
Q 3072 2584 2669 2484 
Q 3125 2378 3379 2068 
Q 3634 1759 3634 1313 
Q 3634 634 3220 271 
Q 2806 -91 2034 -91 
Q 1263 -91 848 271 
Q 434 634 434 1313 
Q 434 1759 690 2068 
Q 947 2378 1403 2484 
z
M 1172 3481 
Q 1172 3119 1398 2916 
Q 1625 2713 2034 2713 
Q 2441 2713 2670 2916 
Q 2900 3119 2900 3481 
Q 2900 3844 2670 4047 
Q 2441 4250 2034 4250 
Q 1625 4250 1398 4047 
Q 1172 3844 1172 3481 
z
" id="DejaVuSans-38" transform="scale(0.015625)"/>
       </defs>
       <use xlink:href="#DejaVuSans-32"/>
       <use x="63.623047" xlink:href="#DejaVuSans-38"/>
      </g>
     </g>
    </g>
    <g id="xtick_6">
     <g id="line2d_6">
      <g>
       <use style="stroke:#000000;stroke-width:0.8;" x="158.217143" xlink:href="#m86977ed342" y="307.584"/>
      </g>
     </g>
     <g id="text_6">
      <!-- 35 -->
      <g transform="translate(160.976518 327.309)rotate(-90)scale(0.1 -0.1)">
       <defs>
        <path d="M 2597 2516 
Q 3050 2419 3304 2112 
Q 3559 1806 3559 1356 
Q 3559 666 3084 287 
Q 2609 -91 1734 -91 
Q 1441 -91 1130 -33 
Q 819 25 488 141 
L 488 750 
Q 750 597 1062 519 
Q 1375 441 1716 441 
Q 2309 441 2620 675 
Q 2931 909 2931 1356 
Q 2931 1769 2642 2001 
Q 2353 2234 1838 2234 
L 1294 2234 
L 1294 2753 
L 1863 2753 
Q 2328 2753 2575 2939 
Q 2822 3125 2822 3475 
Q 2822 3834 2567 4026 
Q 2313 4219 1838 4219 
Q 1578 4219 1281 4162 
Q 984 4106 628 3988 
L 628 4550 
Q 988 4650 1302 4700 
Q 1616 4750 1894 4750 
Q 2613 4750 3031 4423 
Q 3450 4097 3450 3541 
Q 3450 3153 3228 2886 
Q 3006 2619 2597 2516 
z
" id="DejaVuSans-33" transform="scale(0.015625)"/>
        <path d="M 691 4666 
L 3169 4666 
L 3169 4134 
L 1269 4134 
L 1269 2991 
Q 1406 3038 1543 3061 
Q 1681 3084 1819 3084 
Q 2600 3084 3056 2656 
Q 3513 2228 3513 1497 
Q 3513 744 3044 326 
Q 2575 -91 1722 -91 
Q 1428 -91 1123 -41 
Q 819 9 494 109 
L 494 744 
Q 775 591 1075 516 
Q 1375 441 1709 441 
Q 2250 441 2565 725 
Q 2881 1009 2881 1497 
Q 2881 1984 2565 2268 
Q 2250 2553 1709 2553 
Q 1456 2553 1204 2497 
Q 953 2441 691 2322 
L 691 4666 
z
" id="DejaVuSans-35" transform="scale(0.015625)"/>
       </defs>
       <use xlink:href="#DejaVuSans-33"/>
       <use x="63.623047" xlink:href="#DejaVuSans-35"/>
      </g>
     </g>
    </g>
    <g id="xtick_7">
     <g id="line2d_7">
      <g>
       <use style="stroke:#000000;stroke-width:0.8;" x="178.057143" xlink:href="#m86977ed342" y="307.584"/>
      </g>
     </g>
     <g id="text_7">
      <!-- 42 -->
      <g transform="translate(180.816518 327.309)rotate(-90)scale(0.1 -0.1)">
       <use xlink:href="#DejaVuSans-34"/>
       <use x="63.623047" xlink:href="#DejaVuSans-32"/>
      </g>
     </g>
    </g>
    <g id="xtick_8">
     <g id="line2d_8">
      <g>
       <use style="stroke:#000000;stroke-width:0.8;" x="197.897143" xlink:href="#m86977ed342" y="307.584"/>
      </g>
     </g>
     <g id="text_8">
      <!-- 50 -->
      <g transform="translate(200.656518 327.309)rotate(-90)scale(0.1 -0.1)">
       <use xlink:href="#DejaVuSans-35"/>
       <use x="63.623047" xlink:href="#DejaVuSans-30"/>
      </g>
     </g>
    </g>
    <g id="xtick_9">
     <g id="line2d_9">
      <g>
       <use style="stroke:#000000;stroke-width:0.8;" x="217.737143" xlink:href="#m86977ed342" y="307.584"/>
      </g>
     </g>
     <g id="text_9">
      <!-- 57 -->
      <g transform="translate(220.496518 327.309)rotate(-90)scale(0.1 -0.1)">
       <use xlink:href="#DejaVuSans-35"/>
       <use x="63.623047" xlink:href="#DejaVuSans-37"/>
      </g>
     </g>
    </g>
    <g id="xtick_10">
     <g id="line2d_10">
      <g>
       <use style="stroke:#000000;stroke-width:0.8;" x="237.577143" xlink:href="#m86977ed342" y="307.584"/>
      </g>
     </g>
     <g id="text_10">
      <!-- 64 -->
      <g transform="translate(240.336518 327.309)rotate(-90)scale(0.1 -0.1)">
       <defs>
        <path d="M 2113 2584 
Q 1688 2584 1439 2293 
Q 1191 2003 1191 1497 
Q 1191 994 1439 701 
Q 1688 409 2113 409 
Q 2538 409 2786 701 
Q 3034 994 3034 1497 
Q 3034 2003 2786 2293 
Q 2538 2584 2113 2584 
z
M 3366 4563 
L 3366 3988 
Q 3128 4100 2886 4159 
Q 2644 4219 2406 4219 
Q 1781 4219 1451 3797 
Q 1122 3375 1075 2522 
Q 1259 2794 1537 2939 
Q 1816 3084 2150 3084 
Q 2853 3084 3261 2657 
Q 3669 2231 3669 1497 
Q 3669 778 3244 343 
Q 2819 -91 2113 -91 
Q 1303 -91 875 529 
Q 447 1150 447 2328 
Q 447 3434 972 4092 
Q 1497 4750 2381 4750 
Q 2619 4750 2861 4703 
Q 3103 4656 3366 4563 
z
" id="DejaVuSans-36" transform="scale(0.015625)"/>
       </defs>
       <use xlink:href="#DejaVuSans-36"/>
       <use x="63.623047" xlink:href="#DejaVuSans-34"/>
      </g>
     </g>
    </g>
    <g id="xtick_11">
     <g id="line2d_11">
      <g>
       <use style="stroke:#000000;stroke-width:0.8;" x="257.417143" xlink:href="#m86977ed342" y="307.584"/>
      </g>
     </g>
     <g id="text_11">
      <!-- 71 -->
      <g transform="translate(260.176518 327.309)rotate(-90)scale(0.1 -0.1)">
       <use xlink:href="#DejaVuSans-37"/>
       <use x="63.623047" xlink:href="#DejaVuSans-31"/>
      </g>
     </g>
    </g>
    <g id="xtick_12">
     <g id="line2d_12">
      <g>
       <use style="stroke:#000000;stroke-width:0.8;" x="277.257143" xlink:href="#m86977ed342" y="307.584"/>
      </g>
     </g>
     <g id="text_12">
      <!-- 78 -->
      <g transform="translate(280.016518 327.309)rotate(-90)scale(0.1 -0.1)">
       <use xlink:href="#DejaVuSans-37"/>
       <use x="63.623047" xlink:href="#DejaVuSans-38"/>
      </g>
     </g>
    </g>
    <g id="xtick_13">
     <g id="line2d_13">
      <g>
       <use style="stroke:#000000;stroke-width:0.8;" x="297.097143" xlink:href="#m86977ed342" y="307.584"/>
      </g>
     </g>
     <g id="text_13">
      <!-- 85 -->
      <g transform="translate(299.856518 327.309)rotate(-90)scale(0.1 -0.1)">
       <use xlink:href="#DejaVuSans-38"/>
       <use x="63.623047" xlink:href="#DejaVuSans-35"/>
      </g>
     </g>
    </g>
    <g id="xtick_14">
     <g id="line2d_14">
      <g>
       <use style="stroke:#000000;stroke-width:0.8;" x="316.937143" xlink:href="#m86977ed342" y="307.584"/>
      </g>
     </g>
     <g id="text_14">
      <!-- 92 -->
      <g transform="translate(319.696518 327.309)rotate(-90)scale(0.1 -0.1)">
       <defs>
        <path d="M 703 97 
L 703 672 
Q 941 559 1184 500 
Q 1428 441 1663 441 
Q 2288 441 2617 861 
Q 2947 1281 2994 2138 
Q 2813 1869 2534 1725 
Q 2256 1581 1919 1581 
Q 1219 1581 811 2004 
Q 403 2428 403 3163 
Q 403 3881 828 4315 
Q 1253 4750 1959 4750 
Q 2769 4750 3195 4129 
Q 3622 3509 3622 2328 
Q 3622 1225 3098 567 
Q 2575 -91 1691 -91 
Q 1453 -91 1209 -44 
Q 966 3 703 97 
z
M 1959 2075 
Q 2384 2075 2632 2365 
Q 2881 2656 2881 3163 
Q 2881 3666 2632 3958 
Q 2384 4250 1959 4250 
Q 1534 4250 1286 3958 
Q 1038 3666 1038 3163 
Q 1038 2656 1286 2365 
Q 1534 2075 1959 2075 
z
" id="DejaVuSans-39" transform="scale(0.015625)"/>
       </defs>
       <use xlink:href="#DejaVuSans-39"/>
       <use x="63.623047" xlink:href="#DejaVuSans-32"/>
      </g>
     </g>
    </g>
    <g id="xtick_15">
     <g id="line2d_15">
      <g>
       <use style="stroke:#000000;stroke-width:0.8;" x="336.777143" xlink:href="#m86977ed342" y="307.584"/>
      </g>
     </g>
     <g id="text_15">
      <!-- 99 -->
      <g transform="translate(339.536518 327.309)rotate(-90)scale(0.1 -0.1)">
       <use xlink:href="#DejaVuSans-39"/>
       <use x="63.623047" xlink:href="#DejaVuSans-39"/>
      </g>
     </g>
    </g>
    <g id="xtick_16">
     <g id="line2d_16">
      <g>
       <use style="stroke:#000000;stroke-width:0.8;" x="356.617143" xlink:href="#m86977ed342" y="307.584"/>
      </g>
     </g>
     <g id="text_16">
      <!-- 106 -->
      <g transform="translate(359.376518 333.6715)rotate(-90)scale(0.1 -0.1)">
       <use xlink:href="#DejaVuSans-31"/>
       <use x="63.623047" xlink:href="#DejaVuSans-30"/>
       <use x="127.246094" xlink:href="#DejaVuSans-36"/>
      </g>
     </g>
    </g>
    <g id="xtick_17">
     <g id="line2d_17">
      <g>
       <use style="stroke:#000000;stroke-width:0.8;" x="376.457143" xlink:href="#m86977ed342" y="307.584"/>
      </g>
     </g>
     <g id="text_17">
      <!-- 114 -->
      <g transform="translate(379.216518 333.6715)rotate(-90)scale(0.1 -0.1)">
       <use xlink:href="#DejaVuSans-31"/>
       <use x="63.623047" xlink:href="#DejaVuSans-31"/>
       <use x="127.246094" xlink:href="#DejaVuSans-34"/>
      </g>
     </g>
    </g>
    <g id="xtick_18">
     <g id="line2d_18">
      <g>
       <use style="stroke:#000000;stroke-width:0.8;" x="396.297143" xlink:href="#m86977ed342" y="307.584"/>
      </g>
     </g>
     <g id="text_18">
      <!-- 121 -->
      <g transform="translate(399.056518 333.6715)rotate(-90)scale(0.1 -0.1)">
       <use xlink:href="#DejaVuSans-31"/>
       <use x="63.623047" xlink:href="#DejaVuSans-32"/>
       <use x="127.246094" xlink:href="#DejaVuSans-31"/>
      </g>
     </g>
    </g>
    <g id="text_19">
     <!-- domain -->
     <g transform="translate(217.434219 345.269937)scale(0.1 -0.1)">
      <defs>
       <path d="M 2906 2969 
L 2906 4863 
L 3481 4863 
L 3481 0 
L 2906 0 
L 2906 525 
Q 2725 213 2448 61 
Q 2172 -91 1784 -91 
Q 1150 -91 751 415 
Q 353 922 353 1747 
Q 353 2572 751 3078 
Q 1150 3584 1784 3584 
Q 2172 3584 2448 3432 
Q 2725 3281 2906 2969 
z
M 947 1747 
Q 947 1113 1208 752 
Q 1469 391 1925 391 
Q 2381 391 2643 752 
Q 2906 1113 2906 1747 
Q 2906 2381 2643 2742 
Q 2381 3103 1925 3103 
Q 1469 3103 1208 2742 
Q 947 2381 947 1747 
z
" id="DejaVuSans-64" transform="scale(0.015625)"/>
       <path d="M 1959 3097 
Q 1497 3097 1228 2736 
Q 959 2375 959 1747 
Q 959 1119 1226 758 
Q 1494 397 1959 397 
Q 2419 397 2687 759 
Q 2956 1122 2956 1747 
Q 2956 2369 2687 2733 
Q 2419 3097 1959 3097 
z
M 1959 3584 
Q 2709 3584 3137 3096 
Q 3566 2609 3566 1747 
Q 3566 888 3137 398 
Q 2709 -91 1959 -91 
Q 1206 -91 779 398 
Q 353 888 353 1747 
Q 353 2609 779 3096 
Q 1206 3584 1959 3584 
z
" id="DejaVuSans-6f" transform="scale(0.015625)"/>
       <path d="M 3328 2828 
Q 3544 3216 3844 3400 
Q 4144 3584 4550 3584 
Q 5097 3584 5394 3201 
Q 5691 2819 5691 2113 
L 5691 0 
L 5113 0 
L 5113 2094 
Q 5113 2597 4934 2840 
Q 4756 3084 4391 3084 
Q 3944 3084 3684 2787 
Q 3425 2491 3425 1978 
L 3425 0 
L 2847 0 
L 2847 2094 
Q 2847 2600 2669 2842 
Q 2491 3084 2119 3084 
Q 1678 3084 1418 2786 
Q 1159 2488 1159 1978 
L 1159 0 
L 581 0 
L 581 3500 
L 1159 3500 
L 1159 2956 
Q 1356 3278 1631 3431 
Q 1906 3584 2284 3584 
Q 2666 3584 2933 3390 
Q 3200 3197 3328 2828 
z
" id="DejaVuSans-6d" transform="scale(0.015625)"/>
       <path d="M 2194 1759 
Q 1497 1759 1228 1600 
Q 959 1441 959 1056 
Q 959 750 1161 570 
Q 1363 391 1709 391 
Q 2188 391 2477 730 
Q 2766 1069 2766 1631 
L 2766 1759 
L 2194 1759 
z
M 3341 1997 
L 3341 0 
L 2766 0 
L 2766 531 
Q 2569 213 2275 61 
Q 1981 -91 1556 -91 
Q 1019 -91 701 211 
Q 384 513 384 1019 
Q 384 1609 779 1909 
Q 1175 2209 1959 2209 
L 2766 2209 
L 2766 2266 
Q 2766 2663 2505 2880 
Q 2244 3097 1772 3097 
Q 1472 3097 1187 3025 
Q 903 2953 641 2809 
L 641 3341 
Q 956 3463 1253 3523 
Q 1550 3584 1831 3584 
Q 2591 3584 2966 3190 
Q 3341 2797 3341 1997 
z
" id="DejaVuSans-61" transform="scale(0.015625)"/>
       <path d="M 603 3500 
L 1178 3500 
L 1178 0 
L 603 0 
L 603 3500 
z
M 603 4863 
L 1178 4863 
L 1178 4134 
L 603 4134 
L 603 4863 
z
" id="DejaVuSans-69" transform="scale(0.015625)"/>
       <path d="M 3513 2113 
L 3513 0 
L 2938 0 
L 2938 2094 
Q 2938 2591 2744 2837 
Q 2550 3084 2163 3084 
Q 1697 3084 1428 2787 
Q 1159 2491 1159 1978 
L 1159 0 
L 581 0 
L 581 3500 
L 1159 3500 
L 1159 2956 
Q 1366 3272 1645 3428 
Q 1925 3584 2291 3584 
Q 2894 3584 3203 3211 
Q 3513 2838 3513 2113 
z
" id="DejaVuSans-6e" transform="scale(0.015625)"/>
      </defs>
      <use xlink:href="#DejaVuSans-64"/>
      <use x="63.476562" xlink:href="#DejaVuSans-6f"/>
      <use x="124.658203" xlink:href="#DejaVuSans-6d"/>
      <use x="222.070312" xlink:href="#DejaVuSans-61"/>
      <use x="283.349609" xlink:href="#DejaVuSans-69"/>
      <use x="311.132812" xlink:href="#DejaVuSans-6e"/>
     </g>
    </g>
   </g>
   <g id="matplotlib.axis_2">
    <g id="ytick_1">
     <g id="line2d_19">
      <defs>
       <path d="M 0 0 
L -3.5 0 
" id="m7be029121a" style="stroke:#000000;stroke-width:0.8;"/>
      </defs>
      <g>
       <use style="stroke:#000000;stroke-width:0.8;" x="57.6" xlink:href="#m7be029121a" y="307.584"/>
      </g>
     </g>
     <g id="text_20">
      <!-- 0.0 -->
      <g transform="translate(34.696875 311.383219)scale(0.1 -0.1)">
       <defs>
        <path d="M 684 794 
L 1344 794 
L 1344 0 
L 684 0 
L 684 794 
z
" id="DejaVuSans-2e" transform="scale(0.015625)"/>
       </defs>
       <use xlink:href="#DejaVuSans-30"/>
       <use x="63.623047" xlink:href="#DejaVuSans-2e"/>
       <use x="95.410156" xlink:href="#DejaVuSans-30"/>
      </g>
     </g>
    </g>
    <g id="ytick_2">
     <g id="line2d_20">
      <g>
       <use style="stroke:#000000;stroke-width:0.8;" x="57.6" xlink:href="#m7be029121a" y="260.280965"/>
      </g>
     </g>
     <g id="text_21">
      <!-- 0.5 -->
      <g transform="translate(34.696875 264.080184)scale(0.1 -0.1)">
       <use xlink:href="#DejaVuSans-30"/>
       <use x="63.623047" xlink:href="#DejaVuSans-2e"/>
       <use x="95.410156" xlink:href="#DejaVuSans-35"/>
      </g>
     </g>
    </g>
    <g id="ytick_3">
     <g id="line2d_21">
      <g>
       <use style="stroke:#000000;stroke-width:0.8;" x="57.6" xlink:href="#m7be029121a" y="212.97793"/>
      </g>
     </g>
     <g id="text_22">
      <!-- 1.0 -->
      <g transform="translate(34.696875 216.777149)scale(0.1 -0.1)">
       <use xlink:href="#DejaVuSans-31"/>
       <use x="63.623047" xlink:href="#DejaVuSans-2e"/>
       <use x="95.410156" xlink:href="#DejaVuSans-30"/>
      </g>
     </g>
    </g>
    <g id="ytick_4">
     <g id="line2d_22">
      <g>
       <use style="stroke:#000000;stroke-width:0.8;" x="57.6" xlink:href="#m7be029121a" y="165.674896"/>
      </g>
     </g>
     <g id="text_23">
      <!-- 1.5 -->
      <g transform="translate(34.696875 169.474114)scale(0.1 -0.1)">
       <use xlink:href="#DejaVuSans-31"/>
       <use x="63.623047" xlink:href="#DejaVuSans-2e"/>
       <use x="95.410156" xlink:href="#DejaVuSans-35"/>
      </g>
     </g>
    </g>
    <g id="ytick_5">
     <g id="line2d_23">
      <g>
       <use style="stroke:#000000;stroke-width:0.8;" x="57.6" xlink:href="#m7be029121a" y="118.371861"/>
      </g>
     </g>
     <g id="text_24">
      <!-- 2.0 -->
      <g transform="translate(34.696875 122.17108)scale(0.1 -0.1)">
       <use xlink:href="#DejaVuSans-32"/>
       <use x="63.623047" xlink:href="#DejaVuSans-2e"/>
       <use x="95.410156" xlink:href="#DejaVuSans-30"/>
      </g>
     </g>
    </g>
    <g id="ytick_6">
     <g id="line2d_24">
      <g>
       <use style="stroke:#000000;stroke-width:0.8;" x="57.6" xlink:href="#m7be029121a" y="71.068826"/>
      </g>
     </g>
     <g id="text_25">
      <!-- 2.5 -->
      <g transform="translate(34.696875 74.868045)scale(0.1 -0.1)">
       <use xlink:href="#DejaVuSans-32"/>
       <use x="63.623047" xlink:href="#DejaVuSans-2e"/>
       <use x="95.410156" xlink:href="#DejaVuSans-35"/>
      </g>
     </g>
    </g>
    <g id="text_26">
     <!-- Total Bytes sent to Domain -->
     <g transform="translate(28.617187 241.823312)rotate(-90)scale(0.1 -0.1)">
      <defs>
       <path d="M -19 4666 
L 3928 4666 
L 3928 4134 
L 2272 4134 
L 2272 0 
L 1638 0 
L 1638 4134 
L -19 4134 
L -19 4666 
z
" id="DejaVuSans-54" transform="scale(0.015625)"/>
       <path d="M 1172 4494 
L 1172 3500 
L 2356 3500 
L 2356 3053 
L 1172 3053 
L 1172 1153 
Q 1172 725 1289 603 
Q 1406 481 1766 481 
L 2356 481 
L 2356 0 
L 1766 0 
Q 1100 0 847 248 
Q 594 497 594 1153 
L 594 3053 
L 172 3053 
L 172 3500 
L 594 3500 
L 594 4494 
L 1172 4494 
z
" id="DejaVuSans-74" transform="scale(0.015625)"/>
       <path d="M 603 4863 
L 1178 4863 
L 1178 0 
L 603 0 
L 603 4863 
z
" id="DejaVuSans-6c" transform="scale(0.015625)"/>
       <path id="DejaVuSans-20" transform="scale(0.015625)"/>
       <path d="M 1259 2228 
L 1259 519 
L 2272 519 
Q 2781 519 3026 730 
Q 3272 941 3272 1375 
Q 3272 1813 3026 2020 
Q 2781 2228 2272 2228 
L 1259 2228 
z
M 1259 4147 
L 1259 2741 
L 2194 2741 
Q 2656 2741 2882 2914 
Q 3109 3088 3109 3444 
Q 3109 3797 2882 3972 
Q 2656 4147 2194 4147 
L 1259 4147 
z
M 628 4666 
L 2241 4666 
Q 2963 4666 3353 4366 
Q 3744 4066 3744 3513 
Q 3744 3084 3544 2831 
Q 3344 2578 2956 2516 
Q 3422 2416 3680 2098 
Q 3938 1781 3938 1306 
Q 3938 681 3513 340 
Q 3088 0 2303 0 
L 628 0 
L 628 4666 
z
" id="DejaVuSans-42" transform="scale(0.015625)"/>
       <path d="M 2059 -325 
Q 1816 -950 1584 -1140 
Q 1353 -1331 966 -1331 
L 506 -1331 
L 506 -850 
L 844 -850 
Q 1081 -850 1212 -737 
Q 1344 -625 1503 -206 
L 1606 56 
L 191 3500 
L 800 3500 
L 1894 763 
L 2988 3500 
L 3597 3500 
L 2059 -325 
z
" id="DejaVuSans-79" transform="scale(0.015625)"/>
       <path d="M 3597 1894 
L 3597 1613 
L 953 1613 
Q 991 1019 1311 708 
Q 1631 397 2203 397 
Q 2534 397 2845 478 
Q 3156 559 3463 722 
L 3463 178 
Q 3153 47 2828 -22 
Q 2503 -91 2169 -91 
Q 1331 -91 842 396 
Q 353 884 353 1716 
Q 353 2575 817 3079 
Q 1281 3584 2069 3584 
Q 2775 3584 3186 3129 
Q 3597 2675 3597 1894 
z
M 3022 2063 
Q 3016 2534 2758 2815 
Q 2500 3097 2075 3097 
Q 1594 3097 1305 2825 
Q 1016 2553 972 2059 
L 3022 2063 
z
" id="DejaVuSans-65" transform="scale(0.015625)"/>
       <path d="M 2834 3397 
L 2834 2853 
Q 2591 2978 2328 3040 
Q 2066 3103 1784 3103 
Q 1356 3103 1142 2972 
Q 928 2841 928 2578 
Q 928 2378 1081 2264 
Q 1234 2150 1697 2047 
L 1894 2003 
Q 2506 1872 2764 1633 
Q 3022 1394 3022 966 
Q 3022 478 2636 193 
Q 2250 -91 1575 -91 
Q 1294 -91 989 -36 
Q 684 19 347 128 
L 347 722 
Q 666 556 975 473 
Q 1284 391 1588 391 
Q 1994 391 2212 530 
Q 2431 669 2431 922 
Q 2431 1156 2273 1281 
Q 2116 1406 1581 1522 
L 1381 1569 
Q 847 1681 609 1914 
Q 372 2147 372 2553 
Q 372 3047 722 3315 
Q 1072 3584 1716 3584 
Q 2034 3584 2315 3537 
Q 2597 3491 2834 3397 
z
" id="DejaVuSans-73" transform="scale(0.015625)"/>
       <path d="M 1259 4147 
L 1259 519 
L 2022 519 
Q 2988 519 3436 956 
Q 3884 1394 3884 2338 
Q 3884 3275 3436 3711 
Q 2988 4147 2022 4147 
L 1259 4147 
z
M 628 4666 
L 1925 4666 
Q 3281 4666 3915 4102 
Q 4550 3538 4550 2338 
Q 4550 1131 3912 565 
Q 3275 0 1925 0 
L 628 0 
L 628 4666 
z
" id="DejaVuSans-44" transform="scale(0.015625)"/>
      </defs>
      <use xlink:href="#DejaVuSans-54"/>
      <use x="44.083984" xlink:href="#DejaVuSans-6f"/>
      <use x="105.265625" xlink:href="#DejaVuSans-74"/>
      <use x="144.474609" xlink:href="#DejaVuSans-61"/>
      <use x="205.753906" xlink:href="#DejaVuSans-6c"/>
      <use x="233.537109" xlink:href="#DejaVuSans-20"/>
      <use x="265.324219" xlink:href="#DejaVuSans-42"/>
      <use x="333.927734" xlink:href="#DejaVuSans-79"/>
      <use x="393.107422" xlink:href="#DejaVuSans-74"/>
      <use x="432.316406" xlink:href="#DejaVuSans-65"/>
      <use x="493.839844" xlink:href="#DejaVuSans-73"/>
      <use x="545.939453" xlink:href="#DejaVuSans-20"/>
      <use x="577.726562" xlink:href="#DejaVuSans-73"/>
      <use x="629.826172" xlink:href="#DejaVuSans-65"/>
      <use x="691.349609" xlink:href="#DejaVuSans-6e"/>
      <use x="754.728516" xlink:href="#DejaVuSans-74"/>
      <use x="793.9375" xlink:href="#DejaVuSans-20"/>
      <use x="825.724609" xlink:href="#DejaVuSans-74"/>
      <use x="864.933594" xlink:href="#DejaVuSans-6f"/>
      <use x="926.115234" xlink:href="#DejaVuSans-20"/>
      <use x="957.902344" xlink:href="#DejaVuSans-44"/>
      <use x="1034.904297" xlink:href="#DejaVuSans-6f"/>
      <use x="1096.085938" xlink:href="#DejaVuSans-6d"/>
      <use x="1193.498047" xlink:href="#DejaVuSans-61"/>
      <use x="1254.777344" xlink:href="#DejaVuSans-69"/>
      <use x="1282.560547" xlink:href="#DejaVuSans-6e"/>
     </g>
    </g>
    <g id="text_27">
     <!-- 1e9 -->
     <g transform="translate(57.6 38.472)scale(0.1 -0.1)">
      <use xlink:href="#DejaVuSans-31"/>
      <use x="63.623047" xlink:href="#DejaVuSans-65"/>
      <use x="125.146484" xlink:href="#DejaVuSans-39"/>
     </g>
    </g>
   </g>
   <g id="patch_255">
    <path d="M 57.6 307.584 
L 57.6 41.472 
" style="fill:none;stroke:#000000;stroke-linecap:square;stroke-linejoin:miter;stroke-width:0.8;"/>
   </g>
   <g id="patch_256">
    <path d="M 414.72 307.584 
L 414.72 41.472 
" style="fill:none;stroke:#000000;stroke-linecap:square;stroke-linejoin:miter;stroke-width:0.8;"/>
   </g>
   <g id="patch_257">
    <path d="M 57.6 307.584 
L 414.72 307.584 
" style="fill:none;stroke:#000000;stroke-linecap:square;stroke-linejoin:miter;stroke-width:0.8;"/>
   </g>
   <g id="patch_258">
    <path d="M 57.6 41.472 
L 414.72 41.472 
" style="fill:none;stroke:#000000;stroke-linecap:square;stroke-linejoin:miter;stroke-width:0.8;"/>
   </g>
   <g id="text_28">
    <!-- ex2-run50 -->
    <g transform="translate(205.333125 35.472)scale(0.12 -0.12)">
     <defs>
      <path d="M 3513 3500 
L 2247 1797 
L 3578 0 
L 2900 0 
L 1881 1375 
L 863 0 
L 184 0 
L 1544 1831 
L 300 3500 
L 978 3500 
L 1906 2253 
L 2834 3500 
L 3513 3500 
z
" id="DejaVuSans-78" transform="scale(0.015625)"/>
      <path d="M 313 2009 
L 1997 2009 
L 1997 1497 
L 313 1497 
L 313 2009 
z
" id="DejaVuSans-2d" transform="scale(0.015625)"/>
      <path d="M 2631 2963 
Q 2534 3019 2420 3045 
Q 2306 3072 2169 3072 
Q 1681 3072 1420 2755 
Q 1159 2438 1159 1844 
L 1159 0 
L 581 0 
L 581 3500 
L 1159 3500 
L 1159 2956 
Q 1341 3275 1631 3429 
Q 1922 3584 2338 3584 
Q 2397 3584 2469 3576 
Q 2541 3569 2628 3553 
L 2631 2963 
z
" id="DejaVuSans-72" transform="scale(0.015625)"/>
      <path d="M 544 1381 
L 544 3500 
L 1119 3500 
L 1119 1403 
Q 1119 906 1312 657 
Q 1506 409 1894 409 
Q 2359 409 2629 706 
Q 2900 1003 2900 1516 
L 2900 3500 
L 3475 3500 
L 3475 0 
L 2900 0 
L 2900 538 
Q 2691 219 2414 64 
Q 2138 -91 1772 -91 
Q 1169 -91 856 284 
Q 544 659 544 1381 
z
M 1991 3584 
L 1991 3584 
z
" id="DejaVuSans-75" transform="scale(0.015625)"/>
     </defs>
     <use xlink:href="#DejaVuSans-65"/>
     <use x="59.773438" xlink:href="#DejaVuSans-78"/>
     <use x="118.953125" xlink:href="#DejaVuSans-32"/>
     <use x="182.576172" xlink:href="#DejaVuSans-2d"/>
     <use x="218.660156" xlink:href="#DejaVuSans-72"/>
     <use x="259.773438" xlink:href="#DejaVuSans-75"/>
     <use x="323.152344" xlink:href="#DejaVuSans-6e"/>
     <use x="386.53125" xlink:href="#DejaVuSans-35"/>
     <use x="450.154297" xlink:href="#DejaVuSans-30"/>
    </g>
   </g>
   <g id="legend_1">
    <g id="patch_259">
     <path d="M 287.32625 78.82825 
L 407.72 78.82825 
Q 409.72 78.82825 409.72 76.82825 
L 409.72 48.472 
Q 409.72 46.472 407.72 46.472 
L 287.32625 46.472 
Q 285.32625 46.472 285.32625 48.472 
L 285.32625 76.82825 
Q 285.32625 78.82825 287.32625 78.82825 
z
" style="fill:#ffffff;opacity:0.8;stroke:#cccccc;stroke-linejoin:miter;"/>
    </g>
    <g id="patch_260">
     <path d="M 289.32625 58.070437 
L 309.32625 58.070437 
L 309.32625 51.070437 
L 289.32625 51.070437 
z
" style="fill:#1f77b4;"/>
    </g>
    <g id="text_29">
     <!--  non-dupe bytes -->
     <g transform="translate(317.32625 58.070437)scale(0.1 -0.1)">
      <defs>
       <path d="M 1159 525 
L 1159 -1331 
L 581 -1331 
L 581 3500 
L 1159 3500 
L 1159 2969 
Q 1341 3281 1617 3432 
Q 1894 3584 2278 3584 
Q 2916 3584 3314 3078 
Q 3713 2572 3713 1747 
Q 3713 922 3314 415 
Q 2916 -91 2278 -91 
Q 1894 -91 1617 61 
Q 1341 213 1159 525 
z
M 3116 1747 
Q 3116 2381 2855 2742 
Q 2594 3103 2138 3103 
Q 1681 3103 1420 2742 
Q 1159 2381 1159 1747 
Q 1159 1113 1420 752 
Q 1681 391 2138 391 
Q 2594 391 2855 752 
Q 3116 1113 3116 1747 
z
" id="DejaVuSans-70" transform="scale(0.015625)"/>
       <path d="M 3116 1747 
Q 3116 2381 2855 2742 
Q 2594 3103 2138 3103 
Q 1681 3103 1420 2742 
Q 1159 2381 1159 1747 
Q 1159 1113 1420 752 
Q 1681 391 2138 391 
Q 2594 391 2855 752 
Q 3116 1113 3116 1747 
z
M 1159 2969 
Q 1341 3281 1617 3432 
Q 1894 3584 2278 3584 
Q 2916 3584 3314 3078 
Q 3713 2572 3713 1747 
Q 3713 922 3314 415 
Q 2916 -91 2278 -91 
Q 1894 -91 1617 61 
Q 1341 213 1159 525 
L 1159 0 
L 581 0 
L 581 4863 
L 1159 4863 
L 1159 2969 
z
" id="DejaVuSans-62" transform="scale(0.015625)"/>
      </defs>
      <use xlink:href="#DejaVuSans-20"/>
      <use x="31.787109" xlink:href="#DejaVuSans-6e"/>
      <use x="95.166016" xlink:href="#DejaVuSans-6f"/>
      <use x="156.347656" xlink:href="#DejaVuSans-6e"/>
      <use x="219.726562" xlink:href="#DejaVuSans-2d"/>
      <use x="255.810547" xlink:href="#DejaVuSans-64"/>
      <use x="319.287109" xlink:href="#DejaVuSans-75"/>
      <use x="382.666016" xlink:href="#DejaVuSans-70"/>
      <use x="446.142578" xlink:href="#DejaVuSans-65"/>
      <use x="507.666016" xlink:href="#DejaVuSans-20"/>
      <use x="539.453125" xlink:href="#DejaVuSans-62"/>
      <use x="602.929688" xlink:href="#DejaVuSans-79"/>
      <use x="662.109375" xlink:href="#DejaVuSans-74"/>
      <use x="701.318359" xlink:href="#DejaVuSans-65"/>
      <use x="762.841797" xlink:href="#DejaVuSans-73"/>
     </g>
    </g>
    <g id="patch_261">
     <path d="M 289.32625 72.748562 
L 309.32625 72.748562 
L 309.32625 65.748562 
L 289.32625 65.748562 
z
" style="fill:#ff7f0e;"/>
    </g>
    <g id="text_30">
     <!-- total region bytes -->
     <g transform="translate(317.32625 72.748562)scale(0.1 -0.1)">
      <defs>
       <path d="M 2906 1791 
Q 2906 2416 2648 2759 
Q 2391 3103 1925 3103 
Q 1463 3103 1205 2759 
Q 947 2416 947 1791 
Q 947 1169 1205 825 
Q 1463 481 1925 481 
Q 2391 481 2648 825 
Q 2906 1169 2906 1791 
z
M 3481 434 
Q 3481 -459 3084 -895 
Q 2688 -1331 1869 -1331 
Q 1566 -1331 1297 -1286 
Q 1028 -1241 775 -1147 
L 775 -588 
Q 1028 -725 1275 -790 
Q 1522 -856 1778 -856 
Q 2344 -856 2625 -561 
Q 2906 -266 2906 331 
L 2906 616 
Q 2728 306 2450 153 
Q 2172 0 1784 0 
Q 1141 0 747 490 
Q 353 981 353 1791 
Q 353 2603 747 3093 
Q 1141 3584 1784 3584 
Q 2172 3584 2450 3431 
Q 2728 3278 2906 2969 
L 2906 3500 
L 3481 3500 
L 3481 434 
z
" id="DejaVuSans-67" transform="scale(0.015625)"/>
      </defs>
      <use xlink:href="#DejaVuSans-74"/>
      <use x="39.208984" xlink:href="#DejaVuSans-6f"/>
      <use x="100.390625" xlink:href="#DejaVuSans-74"/>
      <use x="139.599609" xlink:href="#DejaVuSans-61"/>
      <use x="200.878906" xlink:href="#DejaVuSans-6c"/>
      <use x="228.662109" xlink:href="#DejaVuSans-20"/>
      <use x="260.449219" xlink:href="#DejaVuSans-72"/>
      <use x="299.3125" xlink:href="#DejaVuSans-65"/>
      <use x="360.835938" xlink:href="#DejaVuSans-67"/>
      <use x="424.3125" xlink:href="#DejaVuSans-69"/>
      <use x="452.095703" xlink:href="#DejaVuSans-6f"/>
      <use x="513.277344" xlink:href="#DejaVuSans-6e"/>
      <use x="576.65625" xlink:href="#DejaVuSans-20"/>
      <use x="608.443359" xlink:href="#DejaVuSans-62"/>
      <use x="671.919922" xlink:href="#DejaVuSans-79"/>
      <use x="731.099609" xlink:href="#DejaVuSans-74"/>
      <use x="770.308594" xlink:href="#DejaVuSans-65"/>
      <use x="831.832031" xlink:href="#DejaVuSans-73"/>
     </g>
    </g>
   </g>
  </g>
 </g>
 <defs>
  <clipPath id="p34376bb9b3">
   <rect height="266.112" width="357.12" x="57.6" y="41.472"/>
  </clipPath>
 </defs>
</svg>
