<?xml version="1.0" encoding="utf-8" standalone="no"?>
<!DOCTYPE svg PUBLIC "-//W3C//DTD SVG 1.1//EN"
  "http://www.w3.org/Graphics/SVG/1.1/DTD/svg11.dtd">
<svg height="345.6pt" version="1.1" viewBox="0 0 460.8 345.6" width="460.8pt" xmlns="http://www.w3.org/2000/svg" xmlns:xlink="http://www.w3.org/1999/xlink">
 <metadata>
  <rdf:RDF xmlns:cc="http://creativecommons.org/ns#" xmlns:dc="http://purl.org/dc/elements/1.1/" xmlns:rdf="http://www.w3.org/1999/02/22-rdf-syntax-ns#">
   <cc:Work>
    <dc:type rdf:resource="http://purl.org/dc/dcmitype/StillImage"/>
    <dc:date>2021-12-04T02:06:27.900795</dc:date>
    <dc:format>image/svg+xml</dc:format>
    <dc:creator>
     <cc:Agent>
      <dc:title>Matplotlib v3.4.3, https://matplotlib.org/</dc:title>
     </cc:Agent>
    </dc:creator>
   </cc:Work>
  </rdf:RDF>
 </metadata>
 <defs>
  <style type="text/css">*{stroke-linecap:butt;stroke-linejoin:round;}</style>
 </defs>
 <g id="figure_1">
  <g id="patch_1">
   <path d="M 0 345.6 
L 460.8 345.6 
L 460.8 0 
L 0 0 
z
" style="fill:#ffffff;"/>
  </g>
  <g id="axes_1">
   <g id="patch_2">
    <path d="M 57.6 307.584 
L 414.72 307.584 
L 414.72 41.472 
L 57.6 41.472 
z
" style="fill:#ffffff;"/>
   </g>
   <g id="patch_3">
    <path clip-path="url(#p3aa7b1fef9)" d="M 58.2975 307.584 
L 59.6925 307.584 
L 59.6925 306.194719 
L 58.2975 306.194719 
z
" style="fill:#1f77b4;"/>
   </g>
   <g id="patch_4">
    <path clip-path="url(#p3aa7b1fef9)" d="M 61.0875 307.584 
L 62.4825 307.584 
L 62.4825 306.560286 
L 61.0875 306.560286 
z
" style="fill:#1f77b4;"/>
   </g>
   <g id="patch_5">
    <path clip-path="url(#p3aa7b1fef9)" d="M 63.8775 307.584 
L 65.2725 307.584 
L 65.2725 306.043776 
L 63.8775 306.043776 
z
" style="fill:#1f77b4;"/>
   </g>
   <g id="patch_6">
    <path clip-path="url(#p3aa7b1fef9)" d="M 66.6675 307.584 
L 68.0625 307.584 
L 68.0625 306.296435 
L 66.6675 306.296435 
z
" style="fill:#1f77b4;"/>
   </g>
   <g id="patch_7">
    <path clip-path="url(#p3aa7b1fef9)" d="M 69.4575 307.584 
L 70.8525 307.584 
L 70.8525 306.147328 
L 69.4575 306.147328 
z
" style="fill:#1f77b4;"/>
   </g>
   <g id="patch_8">
    <path clip-path="url(#p3aa7b1fef9)" d="M 72.2475 307.584 
L 73.6425 307.584 
L 73.6425 306.112049 
L 72.2475 306.112049 
z
" style="fill:#1f77b4;"/>
   </g>
   <g id="patch_9">
    <path clip-path="url(#p3aa7b1fef9)" d="M 75.0375 307.584 
L 76.4325 307.584 
L 76.4325 306.478622 
L 75.0375 306.478622 
z
" style="fill:#1f77b4;"/>
   </g>
   <g id="patch_10">
    <path clip-path="url(#p3aa7b1fef9)" d="M 77.8275 307.584 
L 79.2225 307.584 
L 79.2225 306.21967 
L 77.8275 306.21967 
z
" style="fill:#1f77b4;"/>
   </g>
   <g id="patch_11">
    <path clip-path="url(#p3aa7b1fef9)" d="M 80.6175 307.584 
L 82.0125 307.584 
L 82.0125 306.056629 
L 80.6175 306.056629 
z
" style="fill:#1f77b4;"/>
   </g>
   <g id="patch_12">
    <path clip-path="url(#p3aa7b1fef9)" d="M 83.4075 307.584 
L 84.8025 307.584 
L 84.8025 306.325509 
L 83.4075 306.325509 
z
" style="fill:#1f77b4;"/>
   </g>
   <g id="patch_13">
    <path clip-path="url(#p3aa7b1fef9)" d="M 86.1975 307.584 
L 87.5925 307.584 
L 87.5925 305.558438 
L 86.1975 305.558438 
z
" style="fill:#1f77b4;"/>
   </g>
   <g id="patch_14">
    <path clip-path="url(#p3aa7b1fef9)" d="M 88.9875 307.584 
L 90.3825 307.584 
L 90.3825 306.09698 
L 88.9875 306.09698 
z
" style="fill:#1f77b4;"/>
   </g>
   <g id="patch_15">
    <path clip-path="url(#p3aa7b1fef9)" d="M 91.7775 307.584 
L 93.1725 307.584 
L 93.1725 306.853486 
L 91.7775 306.853486 
z
" style="fill:#1f77b4;"/>
   </g>
   <g id="patch_16">
    <path clip-path="url(#p3aa7b1fef9)" d="M 94.5675 307.584 
L 95.9625 307.584 
L 95.9625 305.932572 
L 94.5675 305.932572 
z
" style="fill:#1f77b4;"/>
   </g>
   <g id="patch_17">
    <path clip-path="url(#p3aa7b1fef9)" d="M 97.3575 307.584 
L 98.7525 307.584 
L 98.7525 306.48592 
L 97.3575 306.48592 
z
" style="fill:#1f77b4;"/>
   </g>
   <g id="patch_18">
    <path clip-path="url(#p3aa7b1fef9)" d="M 100.1475 307.584 
L 101.5425 307.584 
L 101.5425 305.771485 
L 100.1475 305.771485 
z
" style="fill:#1f77b4;"/>
   </g>
   <g id="patch_19">
    <path clip-path="url(#p3aa7b1fef9)" d="M 102.9375 307.584 
L 104.3325 307.584 
L 104.3325 306.509385 
L 102.9375 306.509385 
z
" style="fill:#1f77b4;"/>
   </g>
   <g id="patch_20">
    <path clip-path="url(#p3aa7b1fef9)" d="M 105.7275 307.584 
L 107.1225 307.584 
L 107.1225 305.608478 
L 105.7275 305.608478 
z
" style="fill:#1f77b4;"/>
   </g>
   <g id="patch_21">
    <path clip-path="url(#p3aa7b1fef9)" d="M 108.5175 307.584 
L 109.9125 307.584 
L 109.9125 305.981279 
L 108.5175 305.981279 
z
" style="fill:#1f77b4;"/>
   </g>
   <g id="patch_22">
    <path clip-path="url(#p3aa7b1fef9)" d="M 111.3075 307.584 
L 112.7025 307.584 
L 112.7025 305.689611 
L 111.3075 305.689611 
z
" style="fill:#1f77b4;"/>
   </g>
   <g id="patch_23">
    <path clip-path="url(#p3aa7b1fef9)" d="M 114.0975 307.584 
L 115.4925 307.584 
L 115.4925 306.136694 
L 114.0975 306.136694 
z
" style="fill:#1f77b4;"/>
   </g>
   <g id="patch_24">
    <path clip-path="url(#p3aa7b1fef9)" d="M 116.8875 307.584 
L 118.2825 307.584 
L 118.2825 306.18215 
L 116.8875 306.18215 
z
" style="fill:#1f77b4;"/>
   </g>
   <g id="patch_25">
    <path clip-path="url(#p3aa7b1fef9)" d="M 119.6775 307.584 
L 121.0725 307.584 
L 121.0725 306.266133 
L 119.6775 306.266133 
z
" style="fill:#1f77b4;"/>
   </g>
   <g id="patch_26">
    <path clip-path="url(#p3aa7b1fef9)" d="M 122.4675 307.584 
L 123.8625 307.584 
L 123.8625 305.781387 
L 122.4675 305.781387 
z
" style="fill:#1f77b4;"/>
   </g>
   <g id="patch_27">
    <path clip-path="url(#p3aa7b1fef9)" d="M 125.2575 307.584 
L 126.6525 307.584 
L 126.6525 305.646147 
L 125.2575 305.646147 
z
" style="fill:#1f77b4;"/>
   </g>
   <g id="patch_28">
    <path clip-path="url(#p3aa7b1fef9)" d="M 128.0475 307.584 
L 129.4425 307.584 
L 129.4425 305.688682 
L 128.0475 305.688682 
z
" style="fill:#1f77b4;"/>
   </g>
   <g id="patch_29">
    <path clip-path="url(#p3aa7b1fef9)" d="M 130.8375 307.584 
L 132.2325 307.584 
L 132.2325 306.418347 
L 130.8375 306.418347 
z
" style="fill:#1f77b4;"/>
   </g>
   <g id="patch_30">
    <path clip-path="url(#p3aa7b1fef9)" d="M 133.6275 307.584 
L 135.0225 307.584 
L 135.0225 306.071052 
L 133.6275 306.071052 
z
" style="fill:#1f77b4;"/>
   </g>
   <g id="patch_31">
    <path clip-path="url(#p3aa7b1fef9)" d="M 136.4175 307.584 
L 137.8125 307.584 
L 137.8125 306.32597 
L 136.4175 306.32597 
z
" style="fill:#1f77b4;"/>
   </g>
   <g id="patch_32">
    <path clip-path="url(#p3aa7b1fef9)" d="M 139.2075 307.584 
L 140.6025 307.584 
L 140.6025 305.894284 
L 139.2075 305.894284 
z
" style="fill:#1f77b4;"/>
   </g>
   <g id="patch_33">
    <path clip-path="url(#p3aa7b1fef9)" d="M 141.9975 307.584 
L 143.3925 307.584 
L 143.3925 306.081474 
L 141.9975 306.081474 
z
" style="fill:#1f77b4;"/>
   </g>
   <g id="patch_34">
    <path clip-path="url(#p3aa7b1fef9)" d="M 144.7875 307.584 
L 146.1825 307.584 
L 146.1825 304.878782 
L 144.7875 304.878782 
z
" style="fill:#1f77b4;"/>
   </g>
   <g id="patch_35">
    <path clip-path="url(#p3aa7b1fef9)" d="M 147.5775 307.584 
L 148.9725 307.584 
L 148.9725 305.921412 
L 147.5775 305.921412 
z
" style="fill:#1f77b4;"/>
   </g>
   <g id="patch_36">
    <path clip-path="url(#p3aa7b1fef9)" d="M 150.3675 307.584 
L 151.7625 307.584 
L 151.7625 306.271121 
L 150.3675 306.271121 
z
" style="fill:#1f77b4;"/>
   </g>
   <g id="patch_37">
    <path clip-path="url(#p3aa7b1fef9)" d="M 153.1575 307.584 
L 154.5525 307.584 
L 154.5525 306.199117 
L 153.1575 306.199117 
z
" style="fill:#1f77b4;"/>
   </g>
   <g id="patch_38">
    <path clip-path="url(#p3aa7b1fef9)" d="M 155.9475 307.584 
L 157.3425 307.584 
L 157.3425 305.465991 
L 155.9475 305.465991 
z
" style="fill:#1f77b4;"/>
   </g>
   <g id="patch_39">
    <path clip-path="url(#p3aa7b1fef9)" d="M 158.7375 307.584 
L 160.1325 307.584 
L 160.1325 305.901361 
L 158.7375 305.901361 
z
" style="fill:#1f77b4;"/>
   </g>
   <g id="patch_40">
    <path clip-path="url(#p3aa7b1fef9)" d="M 161.5275 307.584 
L 162.9225 307.584 
L 162.9225 305.976281 
L 161.5275 305.976281 
z
" style="fill:#1f77b4;"/>
   </g>
   <g id="patch_41">
    <path clip-path="url(#p3aa7b1fef9)" d="M 164.3175 307.584 
L 165.7125 307.584 
L 165.7125 306.362821 
L 164.3175 306.362821 
z
" style="fill:#1f77b4;"/>
   </g>
   <g id="patch_42">
    <path clip-path="url(#p3aa7b1fef9)" d="M 167.1075 307.584 
L 168.5025 307.584 
L 168.5025 305.800587 
L 167.1075 305.800587 
z
" style="fill:#1f77b4;"/>
   </g>
   <g id="patch_43">
    <path clip-path="url(#p3aa7b1fef9)" d="M 169.8975 307.584 
L 171.2925 307.584 
L 171.2925 306.151388 
L 169.8975 306.151388 
z
" style="fill:#1f77b4;"/>
   </g>
   <g id="patch_44">
    <path clip-path="url(#p3aa7b1fef9)" d="M 172.6875 307.584 
L 174.0825 307.584 
L 174.0825 306.008266 
L 172.6875 306.008266 
z
" style="fill:#1f77b4;"/>
   </g>
   <g id="patch_45">
    <path clip-path="url(#p3aa7b1fef9)" d="M 175.4775 307.584 
L 176.8725 307.584 
L 176.8725 305.544248 
L 175.4775 305.544248 
z
" style="fill:#1f77b4;"/>
   </g>
   <g id="patch_46">
    <path clip-path="url(#p3aa7b1fef9)" d="M 178.2675 307.584 
L 179.6625 307.584 
L 179.6625 306.302562 
L 178.2675 306.302562 
z
" style="fill:#1f77b4;"/>
   </g>
   <g id="patch_47">
    <path clip-path="url(#p3aa7b1fef9)" d="M 181.0575 307.584 
L 182.4525 307.584 
L 182.4525 305.864828 
L 181.0575 305.864828 
z
" style="fill:#1f77b4;"/>
   </g>
   <g id="patch_48">
    <path clip-path="url(#p3aa7b1fef9)" d="M 183.8475 307.584 
L 185.2425 307.584 
L 185.2425 306.197785 
L 183.8475 306.197785 
z
" style="fill:#1f77b4;"/>
   </g>
   <g id="patch_49">
    <path clip-path="url(#p3aa7b1fef9)" d="M 186.6375 307.584 
L 188.0325 307.584 
L 188.0325 306.092303 
L 186.6375 306.092303 
z
" style="fill:#1f77b4;"/>
   </g>
   <g id="patch_50">
    <path clip-path="url(#p3aa7b1fef9)" d="M 189.4275 307.584 
L 190.8225 307.584 
L 190.8225 306.316415 
L 189.4275 306.316415 
z
" style="fill:#1f77b4;"/>
   </g>
   <g id="patch_51">
    <path clip-path="url(#p3aa7b1fef9)" d="M 192.2175 307.584 
L 193.6125 307.584 
L 193.6125 305.560558 
L 192.2175 305.560558 
z
" style="fill:#1f77b4;"/>
   </g>
   <g id="patch_52">
    <path clip-path="url(#p3aa7b1fef9)" d="M 195.0075 307.584 
L 196.4025 307.584 
L 196.4025 305.719507 
L 195.0075 305.719507 
z
" style="fill:#1f77b4;"/>
   </g>
   <g id="patch_53">
    <path clip-path="url(#p3aa7b1fef9)" d="M 197.7975 307.584 
L 199.1925 307.584 
L 199.1925 306.354828 
L 197.7975 306.354828 
z
" style="fill:#1f77b4;"/>
   </g>
   <g id="patch_54">
    <path clip-path="url(#p3aa7b1fef9)" d="M 200.5875 307.584 
L 201.9825 307.584 
L 201.9825 305.751467 
L 200.5875 305.751467 
z
" style="fill:#1f77b4;"/>
   </g>
   <g id="patch_55">
    <path clip-path="url(#p3aa7b1fef9)" d="M 203.3775 307.584 
L 204.7725 307.584 
L 204.7725 305.853597 
L 203.3775 305.853597 
z
" style="fill:#1f77b4;"/>
   </g>
   <g id="patch_56">
    <path clip-path="url(#p3aa7b1fef9)" d="M 206.1675 307.584 
L 207.5625 307.584 
L 207.5625 306.043422 
L 206.1675 306.043422 
z
" style="fill:#1f77b4;"/>
   </g>
   <g id="patch_57">
    <path clip-path="url(#p3aa7b1fef9)" d="M 208.9575 307.584 
L 210.3525 307.584 
L 210.3525 305.592683 
L 208.9575 305.592683 
z
" style="fill:#1f77b4;"/>
   </g>
   <g id="patch_58">
    <path clip-path="url(#p3aa7b1fef9)" d="M 211.7475 307.584 
L 213.1425 307.584 
L 213.1425 306.176515 
L 211.7475 306.176515 
z
" style="fill:#1f77b4;"/>
   </g>
   <g id="patch_59">
    <path clip-path="url(#p3aa7b1fef9)" d="M 214.5375 307.584 
L 215.9325 307.584 
L 215.9325 305.909015 
L 214.5375 305.909015 
z
" style="fill:#1f77b4;"/>
   </g>
   <g id="patch_60">
    <path clip-path="url(#p3aa7b1fef9)" d="M 217.3275 307.584 
L 218.7225 307.584 
L 218.7225 305.680538 
L 217.3275 305.680538 
z
" style="fill:#1f77b4;"/>
   </g>
   <g id="patch_61">
    <path clip-path="url(#p3aa7b1fef9)" d="M 220.1175 307.584 
L 221.5125 307.584 
L 221.5125 306.374052 
L 220.1175 306.374052 
z
" style="fill:#1f77b4;"/>
   </g>
   <g id="patch_62">
    <path clip-path="url(#p3aa7b1fef9)" d="M 222.9075 307.584 
L 224.3025 307.584 
L 224.3025 305.86002 
L 222.9075 305.86002 
z
" style="fill:#1f77b4;"/>
   </g>
   <g id="patch_63">
    <path clip-path="url(#p3aa7b1fef9)" d="M 225.6975 307.584 
L 227.0925 307.584 
L 227.0925 306.223622 
L 225.6975 306.223622 
z
" style="fill:#1f77b4;"/>
   </g>
   <g id="patch_64">
    <path clip-path="url(#p3aa7b1fef9)" d="M 228.4875 307.584 
L 229.8825 307.584 
L 229.8825 305.788146 
L 228.4875 305.788146 
z
" style="fill:#1f77b4;"/>
   </g>
   <g id="patch_65">
    <path clip-path="url(#p3aa7b1fef9)" d="M 231.2775 307.584 
L 232.6725 307.584 
L 232.6725 306.516285 
L 231.2775 306.516285 
z
" style="fill:#1f77b4;"/>
   </g>
   <g id="patch_66">
    <path clip-path="url(#p3aa7b1fef9)" d="M 234.0675 307.584 
L 235.4625 307.584 
L 235.4625 305.994859 
L 234.0675 305.994859 
z
" style="fill:#1f77b4;"/>
   </g>
   <g id="patch_67">
    <path clip-path="url(#p3aa7b1fef9)" d="M 236.8575 307.584 
L 238.2525 307.584 
L 238.2525 306.102282 
L 236.8575 306.102282 
z
" style="fill:#1f77b4;"/>
   </g>
   <g id="patch_68">
    <path clip-path="url(#p3aa7b1fef9)" d="M 239.6475 307.584 
L 241.0425 307.584 
L 241.0425 306.117045 
L 239.6475 306.117045 
z
" style="fill:#1f77b4;"/>
   </g>
   <g id="patch_69">
    <path clip-path="url(#p3aa7b1fef9)" d="M 242.4375 307.584 
L 243.8325 307.584 
L 243.8325 305.382233 
L 242.4375 305.382233 
z
" style="fill:#1f77b4;"/>
   </g>
   <g id="patch_70">
    <path clip-path="url(#p3aa7b1fef9)" d="M 245.2275 307.584 
L 246.6225 307.584 
L 246.6225 306.321412 
L 245.2275 306.321412 
z
" style="fill:#1f77b4;"/>
   </g>
   <g id="patch_71">
    <path clip-path="url(#p3aa7b1fef9)" d="M 248.0175 307.584 
L 249.4125 307.584 
L 249.4125 306.321638 
L 248.0175 306.321638 
z
" style="fill:#1f77b4;"/>
   </g>
   <g id="patch_72">
    <path clip-path="url(#p3aa7b1fef9)" d="M 250.8075 307.584 
L 252.2025 307.584 
L 252.2025 306.230586 
L 250.8075 306.230586 
z
" style="fill:#1f77b4;"/>
   </g>
   <g id="patch_73">
    <path clip-path="url(#p3aa7b1fef9)" d="M 253.5975 307.584 
L 254.9925 307.584 
L 254.9925 305.926173 
L 253.5975 305.926173 
z
" style="fill:#1f77b4;"/>
   </g>
   <g id="patch_74">
    <path clip-path="url(#p3aa7b1fef9)" d="M 256.3875 307.584 
L 257.7825 307.584 
L 257.7825 306.342249 
L 256.3875 306.342249 
z
" style="fill:#1f77b4;"/>
   </g>
   <g id="patch_75">
    <path clip-path="url(#p3aa7b1fef9)" d="M 259.1775 307.584 
L 260.5725 307.584 
L 260.5725 305.627701 
L 259.1775 305.627701 
z
" style="fill:#1f77b4;"/>
   </g>
   <g id="patch_76">
    <path clip-path="url(#p3aa7b1fef9)" d="M 261.9675 307.584 
L 263.3625 307.584 
L 263.3625 306.082593 
L 261.9675 306.082593 
z
" style="fill:#1f77b4;"/>
   </g>
   <g id="patch_77">
    <path clip-path="url(#p3aa7b1fef9)" d="M 264.7575 307.584 
L 266.1525 307.584 
L 266.1525 306.205436 
L 264.7575 306.205436 
z
" style="fill:#1f77b4;"/>
   </g>
   <g id="patch_78">
    <path clip-path="url(#p3aa7b1fef9)" d="M 267.5475 307.584 
L 268.9425 307.584 
L 268.9425 305.559167 
L 267.5475 305.559167 
z
" style="fill:#1f77b4;"/>
   </g>
   <g id="patch_79">
    <path clip-path="url(#p3aa7b1fef9)" d="M 270.3375 307.584 
L 271.7325 307.584 
L 271.7325 306.12635 
L 270.3375 306.12635 
z
" style="fill:#1f77b4;"/>
   </g>
   <g id="patch_80">
    <path clip-path="url(#p3aa7b1fef9)" d="M 273.1275 307.584 
L 274.5225 307.584 
L 274.5225 306.230525 
L 273.1275 306.230525 
z
" style="fill:#1f77b4;"/>
   </g>
   <g id="patch_81">
    <path clip-path="url(#p3aa7b1fef9)" d="M 275.9175 307.584 
L 277.3125 307.584 
L 277.3125 306.186025 
L 275.9175 306.186025 
z
" style="fill:#1f77b4;"/>
   </g>
   <g id="patch_82">
    <path clip-path="url(#p3aa7b1fef9)" d="M 278.7075 307.584 
L 280.1025 307.584 
L 280.1025 306.212366 
L 278.7075 306.212366 
z
" style="fill:#1f77b4;"/>
   </g>
   <g id="patch_83">
    <path clip-path="url(#p3aa7b1fef9)" d="M 281.4975 307.584 
L 282.8925 307.584 
L 282.8925 305.782622 
L 281.4975 305.782622 
z
" style="fill:#1f77b4;"/>
   </g>
   <g id="patch_84">
    <path clip-path="url(#p3aa7b1fef9)" d="M 284.2875 307.584 
L 285.6825 307.584 
L 285.6825 306.042641 
L 284.2875 306.042641 
z
" style="fill:#1f77b4;"/>
   </g>
   <g id="patch_85">
    <path clip-path="url(#p3aa7b1fef9)" d="M 287.0775 307.584 
L 288.4725 307.584 
L 288.4725 306.01085 
L 287.0775 306.01085 
z
" style="fill:#1f77b4;"/>
   </g>
   <g id="patch_86">
    <path clip-path="url(#p3aa7b1fef9)" d="M 289.8675 307.584 
L 291.2625 307.584 
L 291.2625 305.747748 
L 289.8675 305.747748 
z
" style="fill:#1f77b4;"/>
   </g>
   <g id="patch_87">
    <path clip-path="url(#p3aa7b1fef9)" d="M 292.6575 307.584 
L 294.0525 307.584 
L 294.0525 305.975316 
L 292.6575 305.975316 
z
" style="fill:#1f77b4;"/>
   </g>
   <g id="patch_88">
    <path clip-path="url(#p3aa7b1fef9)" d="M 295.4475 307.584 
L 296.8425 307.584 
L 296.8425 306.473587 
L 295.4475 306.473587 
z
" style="fill:#1f77b4;"/>
   </g>
   <g id="patch_89">
    <path clip-path="url(#p3aa7b1fef9)" d="M 298.2375 307.584 
L 299.6325 307.584 
L 299.6325 305.875026 
L 298.2375 305.875026 
z
" style="fill:#1f77b4;"/>
   </g>
   <g id="patch_90">
    <path clip-path="url(#p3aa7b1fef9)" d="M 301.0275 307.584 
L 302.4225 307.584 
L 302.4225 306.126986 
L 301.0275 306.126986 
z
" style="fill:#1f77b4;"/>
   </g>
   <g id="patch_91">
    <path clip-path="url(#p3aa7b1fef9)" d="M 303.8175 307.584 
L 305.2125 307.584 
L 305.2125 305.995195 
L 303.8175 305.995195 
z
" style="fill:#1f77b4;"/>
   </g>
   <g id="patch_92">
    <path clip-path="url(#p3aa7b1fef9)" d="M 306.6075 307.584 
L 308.0025 307.584 
L 308.0025 306.39833 
L 306.6075 306.39833 
z
" style="fill:#1f77b4;"/>
   </g>
   <g id="patch_93">
    <path clip-path="url(#p3aa7b1fef9)" d="M 309.3975 307.584 
L 310.7925 307.584 
L 310.7925 306.271367 
L 309.3975 306.271367 
z
" style="fill:#1f77b4;"/>
   </g>
   <g id="patch_94">
    <path clip-path="url(#p3aa7b1fef9)" d="M 312.1875 307.584 
L 313.5825 307.584 
L 313.5825 305.546843 
L 312.1875 305.546843 
z
" style="fill:#1f77b4;"/>
   </g>
   <g id="patch_95">
    <path clip-path="url(#p3aa7b1fef9)" d="M 314.9775 307.584 
L 316.3725 307.584 
L 316.3725 305.783286 
L 314.9775 305.783286 
z
" style="fill:#1f77b4;"/>
   </g>
   <g id="patch_96">
    <path clip-path="url(#p3aa7b1fef9)" d="M 317.7675 307.584 
L 319.1625 307.584 
L 319.1625 306.029126 
L 317.7675 306.029126 
z
" style="fill:#1f77b4;"/>
   </g>
   <g id="patch_97">
    <path clip-path="url(#p3aa7b1fef9)" d="M 320.5575 307.584 
L 321.9525 307.584 
L 321.9525 305.757441 
L 320.5575 305.757441 
z
" style="fill:#1f77b4;"/>
   </g>
   <g id="patch_98">
    <path clip-path="url(#p3aa7b1fef9)" d="M 323.3475 307.584 
L 324.7425 307.584 
L 324.7425 305.856561 
L 323.3475 305.856561 
z
" style="fill:#1f77b4;"/>
   </g>
   <g id="patch_99">
    <path clip-path="url(#p3aa7b1fef9)" d="M 326.1375 307.584 
L 327.5325 307.584 
L 327.5325 305.79498 
L 326.1375 305.79498 
z
" style="fill:#1f77b4;"/>
   </g>
   <g id="patch_100">
    <path clip-path="url(#p3aa7b1fef9)" d="M 328.9275 307.584 
L 330.3225 307.584 
L 330.3225 305.727825 
L 328.9275 305.727825 
z
" style="fill:#1f77b4;"/>
   </g>
   <g id="patch_101">
    <path clip-path="url(#p3aa7b1fef9)" d="M 331.7175 307.584 
L 333.1125 307.584 
L 333.1125 305.865944 
L 331.7175 305.865944 
z
" style="fill:#1f77b4;"/>
   </g>
   <g id="patch_102">
    <path clip-path="url(#p3aa7b1fef9)" d="M 334.5075 307.584 
L 335.9025 307.584 
L 335.9025 305.883433 
L 334.5075 305.883433 
z
" style="fill:#1f77b4;"/>
   </g>
   <g id="patch_103">
    <path clip-path="url(#p3aa7b1fef9)" d="M 337.2975 307.584 
L 338.6925 307.584 
L 338.6925 306.548385 
L 337.2975 306.548385 
z
" style="fill:#1f77b4;"/>
   </g>
   <g id="patch_104">
    <path clip-path="url(#p3aa7b1fef9)" d="M 340.0875 307.584 
L 341.4825 307.584 
L 341.4825 306.070311 
L 340.0875 306.070311 
z
" style="fill:#1f77b4;"/>
   </g>
   <g id="patch_105">
    <path clip-path="url(#p3aa7b1fef9)" d="M 342.8775 307.584 
L 344.2725 307.584 
L 344.2725 305.08905 
L 342.8775 305.08905 
z
" style="fill:#1f77b4;"/>
   </g>
   <g id="patch_106">
    <path clip-path="url(#p3aa7b1fef9)" d="M 345.6675 307.584 
L 347.0625 307.584 
L 347.0625 306.112631 
L 345.6675 306.112631 
z
" style="fill:#1f77b4;"/>
   </g>
   <g id="patch_107">
    <path clip-path="url(#p3aa7b1fef9)" d="M 348.4575 307.584 
L 349.8525 307.584 
L 349.8525 306.564038 
L 348.4575 306.564038 
z
" style="fill:#1f77b4;"/>
   </g>
   <g id="patch_108">
    <path clip-path="url(#p3aa7b1fef9)" d="M 351.2475 307.584 
L 352.6425 307.584 
L 352.6425 305.834153 
L 351.2475 305.834153 
z
" style="fill:#1f77b4;"/>
   </g>
   <g id="patch_109">
    <path clip-path="url(#p3aa7b1fef9)" d="M 354.0375 307.584 
L 355.4325 307.584 
L 355.4325 305.874195 
L 354.0375 305.874195 
z
" style="fill:#1f77b4;"/>
   </g>
   <g id="patch_110">
    <path clip-path="url(#p3aa7b1fef9)" d="M 356.8275 307.584 
L 358.2225 307.584 
L 358.2225 306.829874 
L 356.8275 306.829874 
z
" style="fill:#1f77b4;"/>
   </g>
   <g id="patch_111">
    <path clip-path="url(#p3aa7b1fef9)" d="M 359.6175 307.584 
L 361.0125 307.584 
L 361.0125 306.22108 
L 359.6175 306.22108 
z
" style="fill:#1f77b4;"/>
   </g>
   <g id="patch_112">
    <path clip-path="url(#p3aa7b1fef9)" d="M 362.4075 307.584 
L 363.8025 307.584 
L 363.8025 305.84647 
L 362.4075 305.84647 
z
" style="fill:#1f77b4;"/>
   </g>
   <g id="patch_113">
    <path clip-path="url(#p3aa7b1fef9)" d="M 365.1975 307.584 
L 366.5925 307.584 
L 366.5925 306.121174 
L 365.1975 306.121174 
z
" style="fill:#1f77b4;"/>
   </g>
   <g id="patch_114">
    <path clip-path="url(#p3aa7b1fef9)" d="M 367.9875 307.584 
L 369.3825 307.584 
L 369.3825 305.864611 
L 367.9875 305.864611 
z
" style="fill:#1f77b4;"/>
   </g>
   <g id="patch_115">
    <path clip-path="url(#p3aa7b1fef9)" d="M 370.7775 307.584 
L 372.1725 307.584 
L 372.1725 306.45867 
L 370.7775 306.45867 
z
" style="fill:#1f77b4;"/>
   </g>
   <g id="patch_116">
    <path clip-path="url(#p3aa7b1fef9)" d="M 373.5675 307.584 
L 374.9625 307.584 
L 374.9625 306.127554 
L 373.5675 306.127554 
z
" style="fill:#1f77b4;"/>
   </g>
   <g id="patch_117">
    <path clip-path="url(#p3aa7b1fef9)" d="M 376.3575 307.584 
L 377.7525 307.584 
L 377.7525 306.049037 
L 376.3575 306.049037 
z
" style="fill:#1f77b4;"/>
   </g>
   <g id="patch_118">
    <path clip-path="url(#p3aa7b1fef9)" d="M 379.1475 307.584 
L 380.5425 307.584 
L 380.5425 305.864735 
L 379.1475 305.864735 
z
" style="fill:#1f77b4;"/>
   </g>
   <g id="patch_119">
    <path clip-path="url(#p3aa7b1fef9)" d="M 381.9375 307.584 
L 383.3325 307.584 
L 383.3325 305.846385 
L 381.9375 305.846385 
z
" style="fill:#1f77b4;"/>
   </g>
   <g id="patch_120">
    <path clip-path="url(#p3aa7b1fef9)" d="M 384.7275 307.584 
L 386.1225 307.584 
L 386.1225 305.898532 
L 384.7275 305.898532 
z
" style="fill:#1f77b4;"/>
   </g>
   <g id="patch_121">
    <path clip-path="url(#p3aa7b1fef9)" d="M 387.5175 307.584 
L 388.9125 307.584 
L 388.9125 305.830584 
L 387.5175 305.830584 
z
" style="fill:#1f77b4;"/>
   </g>
   <g id="patch_122">
    <path clip-path="url(#p3aa7b1fef9)" d="M 390.3075 307.584 
L 391.7025 307.584 
L 391.7025 305.764319 
L 390.3075 305.764319 
z
" style="fill:#1f77b4;"/>
   </g>
   <g id="patch_123">
    <path clip-path="url(#p3aa7b1fef9)" d="M 393.0975 307.584 
L 394.4925 307.584 
L 394.4925 305.850282 
L 393.0975 305.850282 
z
" style="fill:#1f77b4;"/>
   </g>
   <g id="patch_124">
    <path clip-path="url(#p3aa7b1fef9)" d="M 395.8875 307.584 
L 397.2825 307.584 
L 397.2825 306.225002 
L 395.8875 306.225002 
z
" style="fill:#1f77b4;"/>
   </g>
   <g id="patch_125">
    <path clip-path="url(#p3aa7b1fef9)" d="M 398.6775 307.584 
L 400.0725 307.584 
L 400.0725 306.372984 
L 398.6775 306.372984 
z
" style="fill:#1f77b4;"/>
   </g>
   <g id="patch_126">
    <path clip-path="url(#p3aa7b1fef9)" d="M 401.4675 307.584 
L 402.8625 307.584 
L 402.8625 306.202183 
L 401.4675 306.202183 
z
" style="fill:#1f77b4;"/>
   </g>
   <g id="patch_127">
    <path clip-path="url(#p3aa7b1fef9)" d="M 404.2575 307.584 
L 405.6525 307.584 
L 405.6525 305.404293 
L 404.2575 305.404293 
z
" style="fill:#1f77b4;"/>
   </g>
   <g id="patch_128">
    <path clip-path="url(#p3aa7b1fef9)" d="M 407.0475 307.584 
L 408.4425 307.584 
L 408.4425 305.553724 
L 407.0475 305.553724 
z
" style="fill:#1f77b4;"/>
   </g>
   <g id="patch_129">
    <path clip-path="url(#p3aa7b1fef9)" d="M 409.8375 307.584 
L 411.2325 307.584 
L 411.2325 305.799898 
L 409.8375 305.799898 
z
" style="fill:#1f77b4;"/>
   </g>
   <g id="patch_130">
    <path clip-path="url(#p3aa7b1fef9)" d="M 412.6275 307.584 
L 414.0225 307.584 
L 414.0225 306.098073 
L 412.6275 306.098073 
z
" style="fill:#1f77b4;"/>
   </g>
   <g id="patch_131">
    <path clip-path="url(#p3aa7b1fef9)" d="M 58.2975 306.194719 
L 59.6925 306.194719 
L 59.6925 290.994643 
L 58.2975 290.994643 
z
" style="fill:#ff7f0e;"/>
   </g>
   <g id="patch_132">
    <path clip-path="url(#p3aa7b1fef9)" d="M 61.0875 306.560286 
L 62.4825 306.560286 
L 62.4825 297.844153 
L 61.0875 297.844153 
z
" style="fill:#ff7f0e;"/>
   </g>
   <g id="patch_133">
    <path clip-path="url(#p3aa7b1fef9)" d="M 63.8775 306.043776 
L 65.2725 306.043776 
L 65.2725 285.785752 
L 63.8775 285.785752 
z
" style="fill:#ff7f0e;"/>
   </g>
   <g id="patch_134">
    <path clip-path="url(#p3aa7b1fef9)" d="M 66.6675 306.296435 
L 68.0625 306.296435 
L 68.0625 286.078342 
L 66.6675 286.078342 
z
" style="fill:#ff7f0e;"/>
   </g>
   <g id="patch_135">
    <path clip-path="url(#p3aa7b1fef9)" d="M 69.4575 306.147328 
L 70.8525 306.147328 
L 70.8525 288.385615 
L 69.4575 288.385615 
z
" style="fill:#ff7f0e;"/>
   </g>
   <g id="patch_136">
    <path clip-path="url(#p3aa7b1fef9)" d="M 72.2475 306.112049 
L 73.6425 306.112049 
L 73.6425 281.47779 
L 72.2475 281.47779 
z
" style="fill:#ff7f0e;"/>
   </g>
   <g id="patch_137">
    <path clip-path="url(#p3aa7b1fef9)" d="M 75.0375 306.478622 
L 76.4325 306.478622 
L 76.4325 289.06451 
L 75.0375 289.06451 
z
" style="fill:#ff7f0e;"/>
   </g>
   <g id="patch_138">
    <path clip-path="url(#p3aa7b1fef9)" d="M 77.8275 306.21967 
L 79.2225 306.21967 
L 79.2225 279.200034 
L 77.8275 279.200034 
z
" style="fill:#ff7f0e;"/>
   </g>
   <g id="patch_139">
    <path clip-path="url(#p3aa7b1fef9)" d="M 80.6175 306.056629 
L 82.0125 306.056629 
L 82.0125 287.846379 
L 80.6175 287.846379 
z
" style="fill:#ff7f0e;"/>
   </g>
   <g id="patch_140">
    <path clip-path="url(#p3aa7b1fef9)" d="M 83.4075 306.325509 
L 84.8025 306.325509 
L 84.8025 289.645511 
L 83.4075 289.645511 
z
" style="fill:#ff7f0e;"/>
   </g>
   <g id="patch_141">
    <path clip-path="url(#p3aa7b1fef9)" d="M 86.1975 305.558438 
L 87.5925 305.558438 
L 87.5925 273.419174 
L 86.1975 273.419174 
z
" style="fill:#ff7f0e;"/>
   </g>
   <g id="patch_142">
    <path clip-path="url(#p3aa7b1fef9)" d="M 88.9875 306.09698 
L 90.3825 306.09698 
L 90.3825 288.563313 
L 88.9875 288.563313 
z
" style="fill:#ff7f0e;"/>
   </g>
   <g id="patch_143">
    <path clip-path="url(#p3aa7b1fef9)" d="M 91.7775 306.853486 
L 93.1725 306.853486 
L 93.1725 295.978862 
L 91.7775 295.978862 
z
" style="fill:#ff7f0e;"/>
   </g>
   <g id="patch_144">
    <path clip-path="url(#p3aa7b1fef9)" d="M 94.5675 305.932572 
L 95.9625 305.932572 
L 95.9625 275.554441 
L 94.5675 275.554441 
z
" style="fill:#ff7f0e;"/>
   </g>
   <g id="patch_145">
    <path clip-path="url(#p3aa7b1fef9)" d="M 97.3575 306.48592 
L 98.7525 306.48592 
L 98.7525 287.959593 
L 97.3575 287.959593 
z
" style="fill:#ff7f0e;"/>
   </g>
   <g id="patch_146">
    <path clip-path="url(#p3aa7b1fef9)" d="M 100.1475 305.771485 
L 101.5425 305.771485 
L 101.5425 41.472 
L 100.1475 41.472 
z
" style="fill:#ff7f0e;"/>
   </g>
   <g id="patch_147">
    <path clip-path="url(#p3aa7b1fef9)" d="M 102.9375 306.509385 
L 104.3325 306.509385 
L 104.3325 290.31933 
L 102.9375 290.31933 
z
" style="fill:#ff7f0e;"/>
   </g>
   <g id="patch_148">
    <path clip-path="url(#p3aa7b1fef9)" d="M 105.7275 305.608478 
L 107.1225 305.608478 
L 107.1225 261.375361 
L 105.7275 261.375361 
z
" style="fill:#ff7f0e;"/>
   </g>
   <g id="patch_149">
    <path clip-path="url(#p3aa7b1fef9)" d="M 108.5175 305.981279 
L 109.9125 305.981279 
L 109.9125 285.266259 
L 108.5175 285.266259 
z
" style="fill:#ff7f0e;"/>
   </g>
   <g id="patch_150">
    <path clip-path="url(#p3aa7b1fef9)" d="M 111.3075 305.689611 
L 112.7025 305.689611 
L 112.7025 275.469731 
L 111.3075 275.469731 
z
" style="fill:#ff7f0e;"/>
   </g>
   <g id="patch_151">
    <path clip-path="url(#p3aa7b1fef9)" d="M 114.0975 306.136694 
L 115.4925 306.136694 
L 115.4925 284.69791 
L 114.0975 284.69791 
z
" style="fill:#ff7f0e;"/>
   </g>
   <g id="patch_152">
    <path clip-path="url(#p3aa7b1fef9)" d="M 116.8875 306.18215 
L 118.2825 306.18215 
L 118.2825 283.572476 
L 116.8875 283.572476 
z
" style="fill:#ff7f0e;"/>
   </g>
   <g id="patch_153">
    <path clip-path="url(#p3aa7b1fef9)" d="M 119.6775 306.266133 
L 121.0725 306.266133 
L 121.0725 283.740582 
L 119.6775 283.740582 
z
" style="fill:#ff7f0e;"/>
   </g>
   <g id="patch_154">
    <path clip-path="url(#p3aa7b1fef9)" d="M 122.4675 305.781387 
L 123.8625 305.781387 
L 123.8625 284.671198 
L 122.4675 284.671198 
z
" style="fill:#ff7f0e;"/>
   </g>
   <g id="patch_155">
    <path clip-path="url(#p3aa7b1fef9)" d="M 125.2575 305.646147 
L 126.6525 305.646147 
L 126.6525 278.134531 
L 125.2575 278.134531 
z
" style="fill:#ff7f0e;"/>
   </g>
   <g id="patch_156">
    <path clip-path="url(#p3aa7b1fef9)" d="M 128.0475 305.688682 
L 129.4425 305.688682 
L 129.4425 280.888591 
L 128.0475 280.888591 
z
" style="fill:#ff7f0e;"/>
   </g>
   <g id="patch_157">
    <path clip-path="url(#p3aa7b1fef9)" d="M 130.8375 306.418347 
L 132.2325 306.418347 
L 132.2325 285.302883 
L 130.8375 285.302883 
z
" style="fill:#ff7f0e;"/>
   </g>
   <g id="patch_158">
    <path clip-path="url(#p3aa7b1fef9)" d="M 133.6275 306.071052 
L 135.0225 306.071052 
L 135.0225 278.849241 
L 133.6275 278.849241 
z
" style="fill:#ff7f0e;"/>
   </g>
   <g id="patch_159">
    <path clip-path="url(#p3aa7b1fef9)" d="M 136.4175 306.32597 
L 137.8125 306.32597 
L 137.8125 291.549595 
L 136.4175 291.549595 
z
" style="fill:#ff7f0e;"/>
   </g>
   <g id="patch_160">
    <path clip-path="url(#p3aa7b1fef9)" d="M 139.2075 305.894284 
L 140.6025 305.894284 
L 140.6025 283.205757 
L 139.2075 283.205757 
z
" style="fill:#ff7f0e;"/>
   </g>
   <g id="patch_161">
    <path clip-path="url(#p3aa7b1fef9)" d="M 141.9975 306.081474 
L 143.3925 306.081474 
L 143.3925 284.465057 
L 141.9975 284.465057 
z
" style="fill:#ff7f0e;"/>
   </g>
   <g id="patch_162">
    <path clip-path="url(#p3aa7b1fef9)" d="M 144.7875 304.878782 
L 146.1825 304.878782 
L 146.1825 275.696781 
L 144.7875 275.696781 
z
" style="fill:#ff7f0e;"/>
   </g>
   <g id="patch_163">
    <path clip-path="url(#p3aa7b1fef9)" d="M 147.5775 305.921412 
L 148.9725 305.921412 
L 148.9725 274.589267 
L 147.5775 274.589267 
z
" style="fill:#ff7f0e;"/>
   </g>
   <g id="patch_164">
    <path clip-path="url(#p3aa7b1fef9)" d="M 150.3675 306.271121 
L 151.7625 306.271121 
L 151.7625 287.812417 
L 150.3675 287.812417 
z
" style="fill:#ff7f0e;"/>
   </g>
   <g id="patch_165">
    <path clip-path="url(#p3aa7b1fef9)" d="M 153.1575 306.199117 
L 154.5525 306.199117 
L 154.5525 289.089059 
L 153.1575 289.089059 
z
" style="fill:#ff7f0e;"/>
   </g>
   <g id="patch_166">
    <path clip-path="url(#p3aa7b1fef9)" d="M 155.9475 305.465991 
L 157.3425 305.465991 
L 157.3425 267.366772 
L 155.9475 267.366772 
z
" style="fill:#ff7f0e;"/>
   </g>
   <g id="patch_167">
    <path clip-path="url(#p3aa7b1fef9)" d="M 158.7375 305.901361 
L 160.1325 305.901361 
L 160.1325 282.265208 
L 158.7375 282.265208 
z
" style="fill:#ff7f0e;"/>
   </g>
   <g id="patch_168">
    <path clip-path="url(#p3aa7b1fef9)" d="M 161.5275 305.976281 
L 162.9225 305.976281 
L 162.9225 283.476129 
L 161.5275 283.476129 
z
" style="fill:#ff7f0e;"/>
   </g>
   <g id="patch_169">
    <path clip-path="url(#p3aa7b1fef9)" d="M 164.3175 306.362821 
L 165.7125 306.362821 
L 165.7125 289.517134 
L 164.3175 289.517134 
z
" style="fill:#ff7f0e;"/>
   </g>
   <g id="patch_170">
    <path clip-path="url(#p3aa7b1fef9)" d="M 167.1075 305.800587 
L 168.5025 305.800587 
L 168.5025 280.966098 
L 167.1075 280.966098 
z
" style="fill:#ff7f0e;"/>
   </g>
   <g id="patch_171">
    <path clip-path="url(#p3aa7b1fef9)" d="M 169.8975 306.151388 
L 171.2925 306.151388 
L 171.2925 292.371645 
L 169.8975 292.371645 
z
" style="fill:#ff7f0e;"/>
   </g>
   <g id="patch_172">
    <path clip-path="url(#p3aa7b1fef9)" d="M 172.6875 306.008266 
L 174.0825 306.008266 
L 174.0825 284.29491 
L 172.6875 284.29491 
z
" style="fill:#ff7f0e;"/>
   </g>
   <g id="patch_173">
    <path clip-path="url(#p3aa7b1fef9)" d="M 175.4775 305.544248 
L 176.8725 305.544248 
L 176.8725 277.465455 
L 175.4775 277.465455 
z
" style="fill:#ff7f0e;"/>
   </g>
   <g id="patch_174">
    <path clip-path="url(#p3aa7b1fef9)" d="M 178.2675 306.302562 
L 179.6625 306.302562 
L 179.6625 281.440451 
L 178.2675 281.440451 
z
" style="fill:#ff7f0e;"/>
   </g>
   <g id="patch_175">
    <path clip-path="url(#p3aa7b1fef9)" d="M 181.0575 305.864828 
L 182.4525 305.864828 
L 182.4525 279.445898 
L 181.0575 279.445898 
z
" style="fill:#ff7f0e;"/>
   </g>
   <g id="patch_176">
    <path clip-path="url(#p3aa7b1fef9)" d="M 183.8475 306.197785 
L 185.2425 306.197785 
L 185.2425 283.478941 
L 183.8475 283.478941 
z
" style="fill:#ff7f0e;"/>
   </g>
   <g id="patch_177">
    <path clip-path="url(#p3aa7b1fef9)" d="M 186.6375 306.092303 
L 188.0325 306.092303 
L 188.0325 287.048301 
L 186.6375 287.048301 
z
" style="fill:#ff7f0e;"/>
   </g>
   <g id="patch_178">
    <path clip-path="url(#p3aa7b1fef9)" d="M 189.4275 306.316415 
L 190.8225 306.316415 
L 190.8225 293.263744 
L 189.4275 293.263744 
z
" style="fill:#ff7f0e;"/>
   </g>
   <g id="patch_179">
    <path clip-path="url(#p3aa7b1fef9)" d="M 192.2175 305.560558 
L 193.6125 305.560558 
L 193.6125 273.296451 
L 192.2175 273.296451 
z
" style="fill:#ff7f0e;"/>
   </g>
   <g id="patch_180">
    <path clip-path="url(#p3aa7b1fef9)" d="M 195.0075 305.719507 
L 196.4025 305.719507 
L 196.4025 283.923945 
L 195.0075 283.923945 
z
" style="fill:#ff7f0e;"/>
   </g>
   <g id="patch_181">
    <path clip-path="url(#p3aa7b1fef9)" d="M 197.7975 306.354828 
L 199.1925 306.354828 
L 199.1925 278.875019 
L 197.7975 278.875019 
z
" style="fill:#ff7f0e;"/>
   </g>
   <g id="patch_182">
    <path clip-path="url(#p3aa7b1fef9)" d="M 200.5875 305.751467 
L 201.9825 305.751467 
L 201.9825 279.394728 
L 200.5875 279.394728 
z
" style="fill:#ff7f0e;"/>
   </g>
   <g id="patch_183">
    <path clip-path="url(#p3aa7b1fef9)" d="M 203.3775 305.853597 
L 204.7725 305.853597 
L 204.7725 278.462661 
L 203.3775 278.462661 
z
" style="fill:#ff7f0e;"/>
   </g>
   <g id="patch_184">
    <path clip-path="url(#p3aa7b1fef9)" d="M 206.1675 306.043422 
L 207.5625 306.043422 
L 207.5625 287.804427 
L 206.1675 287.804427 
z
" style="fill:#ff7f0e;"/>
   </g>
   <g id="patch_185">
    <path clip-path="url(#p3aa7b1fef9)" d="M 208.9575 305.592683 
L 210.3525 305.592683 
L 210.3525 91.264902 
L 208.9575 91.264902 
z
" style="fill:#ff7f0e;"/>
   </g>
   <g id="patch_186">
    <path clip-path="url(#p3aa7b1fef9)" d="M 211.7475 306.176515 
L 213.1425 306.176515 
L 213.1425 285.304761 
L 211.7475 285.304761 
z
" style="fill:#ff7f0e;"/>
   </g>
   <g id="patch_187">
    <path clip-path="url(#p3aa7b1fef9)" d="M 214.5375 305.909015 
L 215.9325 305.909015 
L 215.9325 282.160981 
L 214.5375 282.160981 
z
" style="fill:#ff7f0e;"/>
   </g>
   <g id="patch_188">
    <path clip-path="url(#p3aa7b1fef9)" d="M 217.3275 305.680538 
L 218.7225 305.680538 
L 218.7225 280.122281 
L 217.3275 280.122281 
z
" style="fill:#ff7f0e;"/>
   </g>
   <g id="patch_189">
    <path clip-path="url(#p3aa7b1fef9)" d="M 220.1175 306.374052 
L 221.5125 306.374052 
L 221.5125 291.993258 
L 220.1175 291.993258 
z
" style="fill:#ff7f0e;"/>
   </g>
   <g id="patch_190">
    <path clip-path="url(#p3aa7b1fef9)" d="M 222.9075 305.86002 
L 224.3025 305.86002 
L 224.3025 268.026985 
L 222.9075 268.026985 
z
" style="fill:#ff7f0e;"/>
   </g>
   <g id="patch_191">
    <path clip-path="url(#p3aa7b1fef9)" d="M 225.6975 306.223622 
L 227.0925 306.223622 
L 227.0925 283.178069 
L 225.6975 283.178069 
z
" style="fill:#ff7f0e;"/>
   </g>
   <g id="patch_192">
    <path clip-path="url(#p3aa7b1fef9)" d="M 228.4875 305.788146 
L 229.8825 305.788146 
L 229.8825 278.510508 
L 228.4875 278.510508 
z
" style="fill:#ff7f0e;"/>
   </g>
   <g id="patch_193">
    <path clip-path="url(#p3aa7b1fef9)" d="M 231.2775 306.516285 
L 232.6725 306.516285 
L 232.6725 296.187837 
L 231.2775 296.187837 
z
" style="fill:#ff7f0e;"/>
   </g>
   <g id="patch_194">
    <path clip-path="url(#p3aa7b1fef9)" d="M 234.0675 305.994859 
L 235.4625 305.994859 
L 235.4625 278.538663 
L 234.0675 278.538663 
z
" style="fill:#ff7f0e;"/>
   </g>
   <g id="patch_195">
    <path clip-path="url(#p3aa7b1fef9)" d="M 236.8575 306.102282 
L 238.2525 306.102282 
L 238.2525 276.94053 
L 236.8575 276.94053 
z
" style="fill:#ff7f0e;"/>
   </g>
   <g id="patch_196">
    <path clip-path="url(#p3aa7b1fef9)" d="M 239.6475 306.117045 
L 241.0425 306.117045 
L 241.0425 286.595837 
L 239.6475 286.595837 
z
" style="fill:#ff7f0e;"/>
   </g>
   <g id="patch_197">
    <path clip-path="url(#p3aa7b1fef9)" d="M 242.4375 305.382233 
L 243.8325 305.382233 
L 243.8325 269.860111 
L 242.4375 269.860111 
z
" style="fill:#ff7f0e;"/>
   </g>
   <g id="patch_198">
    <path clip-path="url(#p3aa7b1fef9)" d="M 245.2275 306.321412 
L 246.6225 306.321412 
L 246.6225 289.327175 
L 245.2275 289.327175 
z
" style="fill:#ff7f0e;"/>
   </g>
   <g id="patch_199">
    <path clip-path="url(#p3aa7b1fef9)" d="M 248.0175 306.321638 
L 249.4125 306.321638 
L 249.4125 278.361355 
L 248.0175 278.361355 
z
" style="fill:#ff7f0e;"/>
   </g>
   <g id="patch_200">
    <path clip-path="url(#p3aa7b1fef9)" d="M 250.8075 306.230586 
L 252.2025 306.230586 
L 252.2025 284.107167 
L 250.8075 284.107167 
z
" style="fill:#ff7f0e;"/>
   </g>
   <g id="patch_201">
    <path clip-path="url(#p3aa7b1fef9)" d="M 253.5975 305.926173 
L 254.9925 305.926173 
L 254.9925 282.546193 
L 253.5975 282.546193 
z
" style="fill:#ff7f0e;"/>
   </g>
   <g id="patch_202">
    <path clip-path="url(#p3aa7b1fef9)" d="M 256.3875 306.342249 
L 257.7825 306.342249 
L 257.7825 292.030636 
L 256.3875 292.030636 
z
" style="fill:#ff7f0e;"/>
   </g>
   <g id="patch_203">
    <path clip-path="url(#p3aa7b1fef9)" d="M 259.1775 305.627701 
L 260.5725 305.627701 
L 260.5725 276.022103 
L 259.1775 276.022103 
z
" style="fill:#ff7f0e;"/>
   </g>
   <g id="patch_204">
    <path clip-path="url(#p3aa7b1fef9)" d="M 261.9675 306.082593 
L 263.3625 306.082593 
L 263.3625 281.022545 
L 261.9675 281.022545 
z
" style="fill:#ff7f0e;"/>
   </g>
   <g id="patch_205">
    <path clip-path="url(#p3aa7b1fef9)" d="M 264.7575 306.205436 
L 266.1525 306.205436 
L 266.1525 289.518165 
L 264.7575 289.518165 
z
" style="fill:#ff7f0e;"/>
   </g>
   <g id="patch_206">
    <path clip-path="url(#p3aa7b1fef9)" d="M 267.5475 305.559167 
L 268.9425 305.559167 
L 268.9425 286.172461 
L 267.5475 286.172461 
z
" style="fill:#ff7f0e;"/>
   </g>
   <g id="patch_207">
    <path clip-path="url(#p3aa7b1fef9)" d="M 270.3375 306.12635 
L 271.7325 306.12635 
L 271.7325 284.838857 
L 270.3375 284.838857 
z
" style="fill:#ff7f0e;"/>
   </g>
   <g id="patch_208">
    <path clip-path="url(#p3aa7b1fef9)" d="M 273.1275 306.230525 
L 274.5225 306.230525 
L 274.5225 287.721983 
L 273.1275 287.721983 
z
" style="fill:#ff7f0e;"/>
   </g>
   <g id="patch_209">
    <path clip-path="url(#p3aa7b1fef9)" d="M 275.9175 306.186025 
L 277.3125 306.186025 
L 277.3125 289.201068 
L 275.9175 289.201068 
z
" style="fill:#ff7f0e;"/>
   </g>
   <g id="patch_210">
    <path clip-path="url(#p3aa7b1fef9)" d="M 278.7075 306.212366 
L 280.1025 306.212366 
L 280.1025 282.788793 
L 278.7075 282.788793 
z
" style="fill:#ff7f0e;"/>
   </g>
   <g id="patch_211">
    <path clip-path="url(#p3aa7b1fef9)" d="M 281.4975 305.782622 
L 282.8925 305.782622 
L 282.8925 286.178805 
L 281.4975 286.178805 
z
" style="fill:#ff7f0e;"/>
   </g>
   <g id="patch_212">
    <path clip-path="url(#p3aa7b1fef9)" d="M 284.2875 306.042641 
L 285.6825 306.042641 
L 285.6825 276.778143 
L 284.2875 276.778143 
z
" style="fill:#ff7f0e;"/>
   </g>
   <g id="patch_213">
    <path clip-path="url(#p3aa7b1fef9)" d="M 287.0775 306.01085 
L 288.4725 306.01085 
L 288.4725 281.158493 
L 287.0775 281.158493 
z
" style="fill:#ff7f0e;"/>
   </g>
   <g id="patch_214">
    <path clip-path="url(#p3aa7b1fef9)" d="M 289.8675 305.747748 
L 291.2625 305.747748 
L 291.2625 271.275057 
L 289.8675 271.275057 
z
" style="fill:#ff7f0e;"/>
   </g>
   <g id="patch_215">
    <path clip-path="url(#p3aa7b1fef9)" d="M 292.6575 305.975316 
L 294.0525 305.975316 
L 294.0525 279.820802 
L 292.6575 279.820802 
z
" style="fill:#ff7f0e;"/>
   </g>
   <g id="patch_216">
    <path clip-path="url(#p3aa7b1fef9)" d="M 295.4475 306.473587 
L 296.8425 306.473587 
L 296.8425 289.465815 
L 295.4475 289.465815 
z
" style="fill:#ff7f0e;"/>
   </g>
   <g id="patch_217">
    <path clip-path="url(#p3aa7b1fef9)" d="M 298.2375 305.875026 
L 299.6325 305.875026 
L 299.6325 277.828603 
L 298.2375 277.828603 
z
" style="fill:#ff7f0e;"/>
   </g>
   <g id="patch_218">
    <path clip-path="url(#p3aa7b1fef9)" d="M 301.0275 306.126986 
L 302.4225 306.126986 
L 302.4225 276.720727 
L 301.0275 276.720727 
z
" style="fill:#ff7f0e;"/>
   </g>
   <g id="patch_219">
    <path clip-path="url(#p3aa7b1fef9)" d="M 303.8175 305.995195 
L 305.2125 305.995195 
L 305.2125 285.300485 
L 303.8175 285.300485 
z
" style="fill:#ff7f0e;"/>
   </g>
   <g id="patch_220">
    <path clip-path="url(#p3aa7b1fef9)" d="M 306.6075 306.39833 
L 308.0025 306.39833 
L 308.0025 291.821284 
L 306.6075 291.821284 
z
" style="fill:#ff7f0e;"/>
   </g>
   <g id="patch_221">
    <path clip-path="url(#p3aa7b1fef9)" d="M 309.3975 306.271367 
L 310.7925 306.271367 
L 310.7925 282.715376 
L 309.3975 282.715376 
z
" style="fill:#ff7f0e;"/>
   </g>
   <g id="patch_222">
    <path clip-path="url(#p3aa7b1fef9)" d="M 312.1875 305.546843 
L 313.5825 305.546843 
L 313.5825 273.12529 
L 312.1875 273.12529 
z
" style="fill:#ff7f0e;"/>
   </g>
   <g id="patch_223">
    <path clip-path="url(#p3aa7b1fef9)" d="M 314.9775 305.783286 
L 316.3725 305.783286 
L 316.3725 275.14411 
L 314.9775 275.14411 
z
" style="fill:#ff7f0e;"/>
   </g>
   <g id="patch_224">
    <path clip-path="url(#p3aa7b1fef9)" d="M 317.7675 306.029126 
L 319.1625 306.029126 
L 319.1625 290.562315 
L 317.7675 290.562315 
z
" style="fill:#ff7f0e;"/>
   </g>
   <g id="patch_225">
    <path clip-path="url(#p3aa7b1fef9)" d="M 320.5575 305.757441 
L 321.9525 305.757441 
L 321.9525 279.088736 
L 320.5575 279.088736 
z
" style="fill:#ff7f0e;"/>
   </g>
   <g id="patch_226">
    <path clip-path="url(#p3aa7b1fef9)" d="M 323.3475 305.856561 
L 324.7425 305.856561 
L 324.7425 276.230252 
L 323.3475 276.230252 
z
" style="fill:#ff7f0e;"/>
   </g>
   <g id="patch_227">
    <path clip-path="url(#p3aa7b1fef9)" d="M 326.1375 305.79498 
L 327.5325 305.79498 
L 327.5325 278.892643 
L 326.1375 278.892643 
z
" style="fill:#ff7f0e;"/>
   </g>
   <g id="patch_228">
    <path clip-path="url(#p3aa7b1fef9)" d="M 328.9275 305.727825 
L 330.3225 305.727825 
L 330.3225 273.620394 
L 328.9275 273.620394 
z
" style="fill:#ff7f0e;"/>
   </g>
   <g id="patch_229">
    <path clip-path="url(#p3aa7b1fef9)" d="M 331.7175 305.865944 
L 333.1125 305.865944 
L 333.1125 279.610722 
L 331.7175 279.610722 
z
" style="fill:#ff7f0e;"/>
   </g>
   <g id="patch_230">
    <path clip-path="url(#p3aa7b1fef9)" d="M 334.5075 305.883433 
L 335.9025 305.883433 
L 335.9025 285.327678 
L 334.5075 285.327678 
z
" style="fill:#ff7f0e;"/>
   </g>
   <g id="patch_231">
    <path clip-path="url(#p3aa7b1fef9)" d="M 337.2975 306.548385 
L 338.6925 306.548385 
L 338.6925 286.467082 
L 337.2975 286.467082 
z
" style="fill:#ff7f0e;"/>
   </g>
   <g id="patch_232">
    <path clip-path="url(#p3aa7b1fef9)" d="M 340.0875 306.070311 
L 341.4825 306.070311 
L 341.4825 283.187062 
L 340.0875 283.187062 
z
" style="fill:#ff7f0e;"/>
   </g>
   <g id="patch_233">
    <path clip-path="url(#p3aa7b1fef9)" d="M 342.8775 305.08905 
L 344.2725 305.08905 
L 344.2725 158.786999 
L 342.8775 158.786999 
z
" style="fill:#ff7f0e;"/>
   </g>
   <g id="patch_234">
    <path clip-path="url(#p3aa7b1fef9)" d="M 345.6675 306.112631 
L 347.0625 306.112631 
L 347.0625 284.149417 
L 345.6675 284.149417 
z
" style="fill:#ff7f0e;"/>
   </g>
   <g id="patch_235">
    <path clip-path="url(#p3aa7b1fef9)" d="M 348.4575 306.564038 
L 349.8525 306.564038 
L 349.8525 295.911062 
L 348.4575 295.911062 
z
" style="fill:#ff7f0e;"/>
   </g>
   <g id="patch_236">
    <path clip-path="url(#p3aa7b1fef9)" d="M 351.2475 305.834153 
L 352.6425 305.834153 
L 352.6425 282.944152 
L 351.2475 282.944152 
z
" style="fill:#ff7f0e;"/>
   </g>
   <g id="patch_237">
    <path clip-path="url(#p3aa7b1fef9)" d="M 354.0375 305.874195 
L 355.4325 305.874195 
L 355.4325 282.365173 
L 354.0375 282.365173 
z
" style="fill:#ff7f0e;"/>
   </g>
   <g id="patch_238">
    <path clip-path="url(#p3aa7b1fef9)" d="M 356.8275 306.829874 
L 358.2225 306.829874 
L 358.2225 295.429257 
L 356.8275 295.429257 
z
" style="fill:#ff7f0e;"/>
   </g>
   <g id="patch_239">
    <path clip-path="url(#p3aa7b1fef9)" d="M 359.6175 306.22108 
L 361.0125 306.22108 
L 361.0125 286.21089 
L 359.6175 286.21089 
z
" style="fill:#ff7f0e;"/>
   </g>
   <g id="patch_240">
    <path clip-path="url(#p3aa7b1fef9)" d="M 362.4075 305.84647 
L 363.8025 305.84647 
L 363.8025 271.882854 
L 362.4075 271.882854 
z
" style="fill:#ff7f0e;"/>
   </g>
   <g id="patch_241">
    <path clip-path="url(#p3aa7b1fef9)" d="M 365.1975 306.121174 
L 366.5925 306.121174 
L 366.5925 277.724376 
L 365.1975 277.724376 
z
" style="fill:#ff7f0e;"/>
   </g>
   <g id="patch_242">
    <path clip-path="url(#p3aa7b1fef9)" d="M 367.9875 305.864611 
L 369.3825 305.864611 
L 369.3825 278.60339 
L 367.9875 278.60339 
z
" style="fill:#ff7f0e;"/>
   </g>
   <g id="patch_243">
    <path clip-path="url(#p3aa7b1fef9)" d="M 370.7775 306.45867 
L 372.1725 306.45867 
L 372.1725 290.569247 
L 370.7775 290.569247 
z
" style="fill:#ff7f0e;"/>
   </g>
   <g id="patch_244">
    <path clip-path="url(#p3aa7b1fef9)" d="M 373.5675 306.127554 
L 374.9625 306.127554 
L 374.9625 286.127539 
L 373.5675 286.127539 
z
" style="fill:#ff7f0e;"/>
   </g>
   <g id="patch_245">
    <path clip-path="url(#p3aa7b1fef9)" d="M 376.3575 306.049037 
L 377.7525 306.049037 
L 377.7525 286.443579 
L 376.3575 286.443579 
z
" style="fill:#ff7f0e;"/>
   </g>
   <g id="patch_246">
    <path clip-path="url(#p3aa7b1fef9)" d="M 379.1475 305.864735 
L 380.5425 305.864735 
L 380.5425 273.986996 
L 379.1475 273.986996 
z
" style="fill:#ff7f0e;"/>
   </g>
   <g id="patch_247">
    <path clip-path="url(#p3aa7b1fef9)" d="M 381.9375 305.846385 
L 383.3325 305.846385 
L 383.3325 275.512856 
L 381.9375 275.512856 
z
" style="fill:#ff7f0e;"/>
   </g>
   <g id="patch_248">
    <path clip-path="url(#p3aa7b1fef9)" d="M 384.7275 305.898532 
L 386.1225 305.898532 
L 386.1225 280.708171 
L 384.7275 280.708171 
z
" style="fill:#ff7f0e;"/>
   </g>
   <g id="patch_249">
    <path clip-path="url(#p3aa7b1fef9)" d="M 387.5175 305.830584 
L 388.9125 305.830584 
L 388.9125 285.060651 
L 387.5175 285.060651 
z
" style="fill:#ff7f0e;"/>
   </g>
   <g id="patch_250">
    <path clip-path="url(#p3aa7b1fef9)" d="M 390.3075 305.764319 
L 391.7025 305.764319 
L 391.7025 281.793553 
L 390.3075 281.793553 
z
" style="fill:#ff7f0e;"/>
   </g>
   <g id="patch_251">
    <path clip-path="url(#p3aa7b1fef9)" d="M 393.0975 305.850282 
L 394.4925 305.850282 
L 394.4925 273.817773 
L 393.0975 273.817773 
z
" style="fill:#ff7f0e;"/>
   </g>
   <g id="patch_252">
    <path clip-path="url(#p3aa7b1fef9)" d="M 395.8875 306.225002 
L 397.2825 306.225002 
L 397.2825 282.295439 
L 395.8875 282.295439 
z
" style="fill:#ff7f0e;"/>
   </g>
   <g id="patch_253">
    <path clip-path="url(#p3aa7b1fef9)" d="M 398.6775 306.372984 
L 400.0725 306.372984 
L 400.0725 288.263261 
L 398.6775 288.263261 
z
" style="fill:#ff7f0e;"/>
   </g>
   <g id="patch_254">
    <path clip-path="url(#p3aa7b1fef9)" d="M 401.4675 306.202183 
L 402.8625 306.202183 
L 402.8625 293.03631 
L 401.4675 293.03631 
z
" style="fill:#ff7f0e;"/>
   </g>
   <g id="patch_255">
    <path clip-path="url(#p3aa7b1fef9)" d="M 404.2575 305.404293 
L 405.6525 305.404293 
L 405.6525 278.288118 
L 404.2575 278.288118 
z
" style="fill:#ff7f0e;"/>
   </g>
   <g id="patch_256">
    <path clip-path="url(#p3aa7b1fef9)" d="M 407.0475 305.553724 
L 408.4425 305.553724 
L 408.4425 279.265872 
L 407.0475 279.265872 
z
" style="fill:#ff7f0e;"/>
   </g>
   <g id="patch_257">
    <path clip-path="url(#p3aa7b1fef9)" d="M 409.8375 305.799898 
L 411.2325 305.799898 
L 411.2325 89.992866 
L 409.8375 89.992866 
z
" style="fill:#ff7f0e;"/>
   </g>
   <g id="patch_258">
    <path clip-path="url(#p3aa7b1fef9)" d="M 412.6275 306.098073 
L 414.0225 306.098073 
L 414.0225 292.467562 
L 412.6275 292.467562 
z
" style="fill:#ff7f0e;"/>
   </g>
   <g id="matplotlib.axis_1">
    <g id="xtick_1">
     <g id="line2d_1">
      <defs>
       <path d="M 0 0 
L 0 3.5 
" id="mfc93b7715b" style="stroke:#000000;stroke-width:0.8;"/>
      </defs>
      <g>
       <use style="stroke:#000000;stroke-width:0.8;" x="58.995" xlink:href="#mfc93b7715b" y="307.584"/>
      </g>
     </g>
     <g id="text_1">
      <!-- 0 -->
      <g transform="translate(61.754375 320.9465)rotate(-90)scale(0.1 -0.1)">
       <defs>
        <path d="M 2034 4250 
Q 1547 4250 1301 3770 
Q 1056 3291 1056 2328 
Q 1056 1369 1301 889 
Q 1547 409 2034 409 
Q 2525 409 2770 889 
Q 3016 1369 3016 2328 
Q 3016 3291 2770 3770 
Q 2525 4250 2034 4250 
z
M 2034 4750 
Q 2819 4750 3233 4129 
Q 3647 3509 3647 2328 
Q 3647 1150 3233 529 
Q 2819 -91 2034 -91 
Q 1250 -91 836 529 
Q 422 1150 422 2328 
Q 422 3509 836 4129 
Q 1250 4750 2034 4750 
z
" id="DejaVuSans-30" transform="scale(0.015625)"/>
       </defs>
       <use xlink:href="#DejaVuSans-30"/>
      </g>
     </g>
    </g>
    <g id="xtick_2">
     <g id="line2d_2">
      <g>
       <use style="stroke:#000000;stroke-width:0.8;" x="237.555" xlink:href="#mfc93b7715b" y="307.584"/>
      </g>
     </g>
     <g id="text_2">
      <!-- 64 -->
      <g transform="translate(240.314375 327.309)rotate(-90)scale(0.1 -0.1)">
       <defs>
        <path d="M 2113 2584 
Q 1688 2584 1439 2293 
Q 1191 2003 1191 1497 
Q 1191 994 1439 701 
Q 1688 409 2113 409 
Q 2538 409 2786 701 
Q 3034 994 3034 1497 
Q 3034 2003 2786 2293 
Q 2538 2584 2113 2584 
z
M 3366 4563 
L 3366 3988 
Q 3128 4100 2886 4159 
Q 2644 4219 2406 4219 
Q 1781 4219 1451 3797 
Q 1122 3375 1075 2522 
Q 1259 2794 1537 2939 
Q 1816 3084 2150 3084 
Q 2853 3084 3261 2657 
Q 3669 2231 3669 1497 
Q 3669 778 3244 343 
Q 2819 -91 2113 -91 
Q 1303 -91 875 529 
Q 447 1150 447 2328 
Q 447 3434 972 4092 
Q 1497 4750 2381 4750 
Q 2619 4750 2861 4703 
Q 3103 4656 3366 4563 
z
" id="DejaVuSans-36" transform="scale(0.015625)"/>
        <path d="M 2419 4116 
L 825 1625 
L 2419 1625 
L 2419 4116 
z
M 2253 4666 
L 3047 4666 
L 3047 1625 
L 3713 1625 
L 3713 1100 
L 3047 1100 
L 3047 0 
L 2419 0 
L 2419 1100 
L 313 1100 
L 313 1709 
L 2253 4666 
z
" id="DejaVuSans-34" transform="scale(0.015625)"/>
       </defs>
       <use xlink:href="#DejaVuSans-36"/>
       <use x="63.623047" xlink:href="#DejaVuSans-34"/>
      </g>
     </g>
    </g>
    <g id="text_3">
     <!-- domain -->
     <g transform="translate(217.434219 338.907437)scale(0.1 -0.1)">
      <defs>
       <path d="M 2906 2969 
L 2906 4863 
L 3481 4863 
L 3481 0 
L 2906 0 
L 2906 525 
Q 2725 213 2448 61 
Q 2172 -91 1784 -91 
Q 1150 -91 751 415 
Q 353 922 353 1747 
Q 353 2572 751 3078 
Q 1150 3584 1784 3584 
Q 2172 3584 2448 3432 
Q 2725 3281 2906 2969 
z
M 947 1747 
Q 947 1113 1208 752 
Q 1469 391 1925 391 
Q 2381 391 2643 752 
Q 2906 1113 2906 1747 
Q 2906 2381 2643 2742 
Q 2381 3103 1925 3103 
Q 1469 3103 1208 2742 
Q 947 2381 947 1747 
z
" id="DejaVuSans-64" transform="scale(0.015625)"/>
       <path d="M 1959 3097 
Q 1497 3097 1228 2736 
Q 959 2375 959 1747 
Q 959 1119 1226 758 
Q 1494 397 1959 397 
Q 2419 397 2687 759 
Q 2956 1122 2956 1747 
Q 2956 2369 2687 2733 
Q 2419 3097 1959 3097 
z
M 1959 3584 
Q 2709 3584 3137 3096 
Q 3566 2609 3566 1747 
Q 3566 888 3137 398 
Q 2709 -91 1959 -91 
Q 1206 -91 779 398 
Q 353 888 353 1747 
Q 353 2609 779 3096 
Q 1206 3584 1959 3584 
z
" id="DejaVuSans-6f" transform="scale(0.015625)"/>
       <path d="M 3328 2828 
Q 3544 3216 3844 3400 
Q 4144 3584 4550 3584 
Q 5097 3584 5394 3201 
Q 5691 2819 5691 2113 
L 5691 0 
L 5113 0 
L 5113 2094 
Q 5113 2597 4934 2840 
Q 4756 3084 4391 3084 
Q 3944 3084 3684 2787 
Q 3425 2491 3425 1978 
L 3425 0 
L 2847 0 
L 2847 2094 
Q 2847 2600 2669 2842 
Q 2491 3084 2119 3084 
Q 1678 3084 1418 2786 
Q 1159 2488 1159 1978 
L 1159 0 
L 581 0 
L 581 3500 
L 1159 3500 
L 1159 2956 
Q 1356 3278 1631 3431 
Q 1906 3584 2284 3584 
Q 2666 3584 2933 3390 
Q 3200 3197 3328 2828 
z
" id="DejaVuSans-6d" transform="scale(0.015625)"/>
       <path d="M 2194 1759 
Q 1497 1759 1228 1600 
Q 959 1441 959 1056 
Q 959 750 1161 570 
Q 1363 391 1709 391 
Q 2188 391 2477 730 
Q 2766 1069 2766 1631 
L 2766 1759 
L 2194 1759 
z
M 3341 1997 
L 3341 0 
L 2766 0 
L 2766 531 
Q 2569 213 2275 61 
Q 1981 -91 1556 -91 
Q 1019 -91 701 211 
Q 384 513 384 1019 
Q 384 1609 779 1909 
Q 1175 2209 1959 2209 
L 2766 2209 
L 2766 2266 
Q 2766 2663 2505 2880 
Q 2244 3097 1772 3097 
Q 1472 3097 1187 3025 
Q 903 2953 641 2809 
L 641 3341 
Q 956 3463 1253 3523 
Q 1550 3584 1831 3584 
Q 2591 3584 2966 3190 
Q 3341 2797 3341 1997 
z
" id="DejaVuSans-61" transform="scale(0.015625)"/>
       <path d="M 603 3500 
L 1178 3500 
L 1178 0 
L 603 0 
L 603 3500 
z
M 603 4863 
L 1178 4863 
L 1178 4134 
L 603 4134 
L 603 4863 
z
" id="DejaVuSans-69" transform="scale(0.015625)"/>
       <path d="M 3513 2113 
L 3513 0 
L 2938 0 
L 2938 2094 
Q 2938 2591 2744 2837 
Q 2550 3084 2163 3084 
Q 1697 3084 1428 2787 
Q 1159 2491 1159 1978 
L 1159 0 
L 581 0 
L 581 3500 
L 1159 3500 
L 1159 2956 
Q 1366 3272 1645 3428 
Q 1925 3584 2291 3584 
Q 2894 3584 3203 3211 
Q 3513 2838 3513 2113 
z
" id="DejaVuSans-6e" transform="scale(0.015625)"/>
      </defs>
      <use xlink:href="#DejaVuSans-64"/>
      <use x="63.476562" xlink:href="#DejaVuSans-6f"/>
      <use x="124.658203" xlink:href="#DejaVuSans-6d"/>
      <use x="222.070312" xlink:href="#DejaVuSans-61"/>
      <use x="283.349609" xlink:href="#DejaVuSans-69"/>
      <use x="311.132812" xlink:href="#DejaVuSans-6e"/>
     </g>
    </g>
   </g>
   <g id="matplotlib.axis_2">
    <g id="ytick_1">
     <g id="line2d_3">
      <defs>
       <path d="M 0 0 
L -3.5 0 
" id="mf727aa4e2a" style="stroke:#000000;stroke-width:0.8;"/>
      </defs>
      <g>
       <use style="stroke:#000000;stroke-width:0.8;" x="57.6" xlink:href="#mf727aa4e2a" y="307.584"/>
      </g>
     </g>
     <g id="text_4">
      <!-- 0.0 -->
      <g transform="translate(34.696875 311.383219)scale(0.1 -0.1)">
       <defs>
        <path d="M 684 794 
L 1344 794 
L 1344 0 
L 684 0 
L 684 794 
z
" id="DejaVuSans-2e" transform="scale(0.015625)"/>
       </defs>
       <use xlink:href="#DejaVuSans-30"/>
       <use x="63.623047" xlink:href="#DejaVuSans-2e"/>
       <use x="95.410156" xlink:href="#DejaVuSans-30"/>
      </g>
     </g>
    </g>
    <g id="ytick_2">
     <g id="line2d_4">
      <g>
       <use style="stroke:#000000;stroke-width:0.8;" x="57.6" xlink:href="#mf727aa4e2a" y="277.359106"/>
      </g>
     </g>
     <g id="text_5">
      <!-- 0.2 -->
      <g transform="translate(34.696875 281.158325)scale(0.1 -0.1)">
       <defs>
        <path d="M 1228 531 
L 3431 531 
L 3431 0 
L 469 0 
L 469 531 
Q 828 903 1448 1529 
Q 2069 2156 2228 2338 
Q 2531 2678 2651 2914 
Q 2772 3150 2772 3378 
Q 2772 3750 2511 3984 
Q 2250 4219 1831 4219 
Q 1534 4219 1204 4116 
Q 875 4013 500 3803 
L 500 4441 
Q 881 4594 1212 4672 
Q 1544 4750 1819 4750 
Q 2544 4750 2975 4387 
Q 3406 4025 3406 3419 
Q 3406 3131 3298 2873 
Q 3191 2616 2906 2266 
Q 2828 2175 2409 1742 
Q 1991 1309 1228 531 
z
" id="DejaVuSans-32" transform="scale(0.015625)"/>
       </defs>
       <use xlink:href="#DejaVuSans-30"/>
       <use x="63.623047" xlink:href="#DejaVuSans-2e"/>
       <use x="95.410156" xlink:href="#DejaVuSans-32"/>
      </g>
     </g>
    </g>
    <g id="ytick_3">
     <g id="line2d_5">
      <g>
       <use style="stroke:#000000;stroke-width:0.8;" x="57.6" xlink:href="#mf727aa4e2a" y="247.134213"/>
      </g>
     </g>
     <g id="text_6">
      <!-- 0.4 -->
      <g transform="translate(34.696875 250.933432)scale(0.1 -0.1)">
       <use xlink:href="#DejaVuSans-30"/>
       <use x="63.623047" xlink:href="#DejaVuSans-2e"/>
       <use x="95.410156" xlink:href="#DejaVuSans-34"/>
      </g>
     </g>
    </g>
    <g id="ytick_4">
     <g id="line2d_6">
      <g>
       <use style="stroke:#000000;stroke-width:0.8;" x="57.6" xlink:href="#mf727aa4e2a" y="216.909319"/>
      </g>
     </g>
     <g id="text_7">
      <!-- 0.6 -->
      <g transform="translate(34.696875 220.708538)scale(0.1 -0.1)">
       <use xlink:href="#DejaVuSans-30"/>
       <use x="63.623047" xlink:href="#DejaVuSans-2e"/>
       <use x="95.410156" xlink:href="#DejaVuSans-36"/>
      </g>
     </g>
    </g>
    <g id="ytick_5">
     <g id="line2d_7">
      <g>
       <use style="stroke:#000000;stroke-width:0.8;" x="57.6" xlink:href="#mf727aa4e2a" y="186.684426"/>
      </g>
     </g>
     <g id="text_8">
      <!-- 0.8 -->
      <g transform="translate(34.696875 190.483645)scale(0.1 -0.1)">
       <defs>
        <path d="M 2034 2216 
Q 1584 2216 1326 1975 
Q 1069 1734 1069 1313 
Q 1069 891 1326 650 
Q 1584 409 2034 409 
Q 2484 409 2743 651 
Q 3003 894 3003 1313 
Q 3003 1734 2745 1975 
Q 2488 2216 2034 2216 
z
M 1403 2484 
Q 997 2584 770 2862 
Q 544 3141 544 3541 
Q 544 4100 942 4425 
Q 1341 4750 2034 4750 
Q 2731 4750 3128 4425 
Q 3525 4100 3525 3541 
Q 3525 3141 3298 2862 
Q 3072 2584 2669 2484 
Q 3125 2378 3379 2068 
Q 3634 1759 3634 1313 
Q 3634 634 3220 271 
Q 2806 -91 2034 -91 
Q 1263 -91 848 271 
Q 434 634 434 1313 
Q 434 1759 690 2068 
Q 947 2378 1403 2484 
z
M 1172 3481 
Q 1172 3119 1398 2916 
Q 1625 2713 2034 2713 
Q 2441 2713 2670 2916 
Q 2900 3119 2900 3481 
Q 2900 3844 2670 4047 
Q 2441 4250 2034 4250 
Q 1625 4250 1398 4047 
Q 1172 3844 1172 3481 
z
" id="DejaVuSans-38" transform="scale(0.015625)"/>
       </defs>
       <use xlink:href="#DejaVuSans-30"/>
       <use x="63.623047" xlink:href="#DejaVuSans-2e"/>
       <use x="95.410156" xlink:href="#DejaVuSans-38"/>
      </g>
     </g>
    </g>
    <g id="ytick_6">
     <g id="line2d_8">
      <g>
       <use style="stroke:#000000;stroke-width:0.8;" x="57.6" xlink:href="#mf727aa4e2a" y="156.459532"/>
      </g>
     </g>
     <g id="text_9">
      <!-- 1.0 -->
      <g transform="translate(34.696875 160.258751)scale(0.1 -0.1)">
       <defs>
        <path d="M 794 531 
L 1825 531 
L 1825 4091 
L 703 3866 
L 703 4441 
L 1819 4666 
L 2450 4666 
L 2450 531 
L 3481 531 
L 3481 0 
L 794 0 
L 794 531 
z
" id="DejaVuSans-31" transform="scale(0.015625)"/>
       </defs>
       <use xlink:href="#DejaVuSans-31"/>
       <use x="63.623047" xlink:href="#DejaVuSans-2e"/>
       <use x="95.410156" xlink:href="#DejaVuSans-30"/>
      </g>
     </g>
    </g>
    <g id="ytick_7">
     <g id="line2d_9">
      <g>
       <use style="stroke:#000000;stroke-width:0.8;" x="57.6" xlink:href="#mf727aa4e2a" y="126.234639"/>
      </g>
     </g>
     <g id="text_10">
      <!-- 1.2 -->
      <g transform="translate(34.696875 130.033857)scale(0.1 -0.1)">
       <use xlink:href="#DejaVuSans-31"/>
       <use x="63.623047" xlink:href="#DejaVuSans-2e"/>
       <use x="95.410156" xlink:href="#DejaVuSans-32"/>
      </g>
     </g>
    </g>
    <g id="ytick_8">
     <g id="line2d_10">
      <g>
       <use style="stroke:#000000;stroke-width:0.8;" x="57.6" xlink:href="#mf727aa4e2a" y="96.009745"/>
      </g>
     </g>
     <g id="text_11">
      <!-- 1.4 -->
      <g transform="translate(34.696875 99.808964)scale(0.1 -0.1)">
       <use xlink:href="#DejaVuSans-31"/>
       <use x="63.623047" xlink:href="#DejaVuSans-2e"/>
       <use x="95.410156" xlink:href="#DejaVuSans-34"/>
      </g>
     </g>
    </g>
    <g id="ytick_9">
     <g id="line2d_11">
      <g>
       <use style="stroke:#000000;stroke-width:0.8;" x="57.6" xlink:href="#mf727aa4e2a" y="65.784852"/>
      </g>
     </g>
     <g id="text_12">
      <!-- 1.6 -->
      <g transform="translate(34.696875 69.58407)scale(0.1 -0.1)">
       <use xlink:href="#DejaVuSans-31"/>
       <use x="63.623047" xlink:href="#DejaVuSans-2e"/>
       <use x="95.410156" xlink:href="#DejaVuSans-36"/>
      </g>
     </g>
    </g>
    <g id="text_13">
     <!-- Total Bytes sent to Domain -->
     <g transform="translate(28.617187 241.823312)rotate(-90)scale(0.1 -0.1)">
      <defs>
       <path d="M -19 4666 
L 3928 4666 
L 3928 4134 
L 2272 4134 
L 2272 0 
L 1638 0 
L 1638 4134 
L -19 4134 
L -19 4666 
z
" id="DejaVuSans-54" transform="scale(0.015625)"/>
       <path d="M 1172 4494 
L 1172 3500 
L 2356 3500 
L 2356 3053 
L 1172 3053 
L 1172 1153 
Q 1172 725 1289 603 
Q 1406 481 1766 481 
L 2356 481 
L 2356 0 
L 1766 0 
Q 1100 0 847 248 
Q 594 497 594 1153 
L 594 3053 
L 172 3053 
L 172 3500 
L 594 3500 
L 594 4494 
L 1172 4494 
z
" id="DejaVuSans-74" transform="scale(0.015625)"/>
       <path d="M 603 4863 
L 1178 4863 
L 1178 0 
L 603 0 
L 603 4863 
z
" id="DejaVuSans-6c" transform="scale(0.015625)"/>
       <path id="DejaVuSans-20" transform="scale(0.015625)"/>
       <path d="M 1259 2228 
L 1259 519 
L 2272 519 
Q 2781 519 3026 730 
Q 3272 941 3272 1375 
Q 3272 1813 3026 2020 
Q 2781 2228 2272 2228 
L 1259 2228 
z
M 1259 4147 
L 1259 2741 
L 2194 2741 
Q 2656 2741 2882 2914 
Q 3109 3088 3109 3444 
Q 3109 3797 2882 3972 
Q 2656 4147 2194 4147 
L 1259 4147 
z
M 628 4666 
L 2241 4666 
Q 2963 4666 3353 4366 
Q 3744 4066 3744 3513 
Q 3744 3084 3544 2831 
Q 3344 2578 2956 2516 
Q 3422 2416 3680 2098 
Q 3938 1781 3938 1306 
Q 3938 681 3513 340 
Q 3088 0 2303 0 
L 628 0 
L 628 4666 
z
" id="DejaVuSans-42" transform="scale(0.015625)"/>
       <path d="M 2059 -325 
Q 1816 -950 1584 -1140 
Q 1353 -1331 966 -1331 
L 506 -1331 
L 506 -850 
L 844 -850 
Q 1081 -850 1212 -737 
Q 1344 -625 1503 -206 
L 1606 56 
L 191 3500 
L 800 3500 
L 1894 763 
L 2988 3500 
L 3597 3500 
L 2059 -325 
z
" id="DejaVuSans-79" transform="scale(0.015625)"/>
       <path d="M 3597 1894 
L 3597 1613 
L 953 1613 
Q 991 1019 1311 708 
Q 1631 397 2203 397 
Q 2534 397 2845 478 
Q 3156 559 3463 722 
L 3463 178 
Q 3153 47 2828 -22 
Q 2503 -91 2169 -91 
Q 1331 -91 842 396 
Q 353 884 353 1716 
Q 353 2575 817 3079 
Q 1281 3584 2069 3584 
Q 2775 3584 3186 3129 
Q 3597 2675 3597 1894 
z
M 3022 2063 
Q 3016 2534 2758 2815 
Q 2500 3097 2075 3097 
Q 1594 3097 1305 2825 
Q 1016 2553 972 2059 
L 3022 2063 
z
" id="DejaVuSans-65" transform="scale(0.015625)"/>
       <path d="M 2834 3397 
L 2834 2853 
Q 2591 2978 2328 3040 
Q 2066 3103 1784 3103 
Q 1356 3103 1142 2972 
Q 928 2841 928 2578 
Q 928 2378 1081 2264 
Q 1234 2150 1697 2047 
L 1894 2003 
Q 2506 1872 2764 1633 
Q 3022 1394 3022 966 
Q 3022 478 2636 193 
Q 2250 -91 1575 -91 
Q 1294 -91 989 -36 
Q 684 19 347 128 
L 347 722 
Q 666 556 975 473 
Q 1284 391 1588 391 
Q 1994 391 2212 530 
Q 2431 669 2431 922 
Q 2431 1156 2273 1281 
Q 2116 1406 1581 1522 
L 1381 1569 
Q 847 1681 609 1914 
Q 372 2147 372 2553 
Q 372 3047 722 3315 
Q 1072 3584 1716 3584 
Q 2034 3584 2315 3537 
Q 2597 3491 2834 3397 
z
" id="DejaVuSans-73" transform="scale(0.015625)"/>
       <path d="M 1259 4147 
L 1259 519 
L 2022 519 
Q 2988 519 3436 956 
Q 3884 1394 3884 2338 
Q 3884 3275 3436 3711 
Q 2988 4147 2022 4147 
L 1259 4147 
z
M 628 4666 
L 1925 4666 
Q 3281 4666 3915 4102 
Q 4550 3538 4550 2338 
Q 4550 1131 3912 565 
Q 3275 0 1925 0 
L 628 0 
L 628 4666 
z
" id="DejaVuSans-44" transform="scale(0.015625)"/>
      </defs>
      <use xlink:href="#DejaVuSans-54"/>
      <use x="44.083984" xlink:href="#DejaVuSans-6f"/>
      <use x="105.265625" xlink:href="#DejaVuSans-74"/>
      <use x="144.474609" xlink:href="#DejaVuSans-61"/>
      <use x="205.753906" xlink:href="#DejaVuSans-6c"/>
      <use x="233.537109" xlink:href="#DejaVuSans-20"/>
      <use x="265.324219" xlink:href="#DejaVuSans-42"/>
      <use x="333.927734" xlink:href="#DejaVuSans-79"/>
      <use x="393.107422" xlink:href="#DejaVuSans-74"/>
      <use x="432.316406" xlink:href="#DejaVuSans-65"/>
      <use x="493.839844" xlink:href="#DejaVuSans-73"/>
      <use x="545.939453" xlink:href="#DejaVuSans-20"/>
      <use x="577.726562" xlink:href="#DejaVuSans-73"/>
      <use x="629.826172" xlink:href="#DejaVuSans-65"/>
      <use x="691.349609" xlink:href="#DejaVuSans-6e"/>
      <use x="754.728516" xlink:href="#DejaVuSans-74"/>
      <use x="793.9375" xlink:href="#DejaVuSans-20"/>
      <use x="825.724609" xlink:href="#DejaVuSans-74"/>
      <use x="864.933594" xlink:href="#DejaVuSans-6f"/>
      <use x="926.115234" xlink:href="#DejaVuSans-20"/>
      <use x="957.902344" xlink:href="#DejaVuSans-44"/>
      <use x="1034.904297" xlink:href="#DejaVuSans-6f"/>
      <use x="1096.085938" xlink:href="#DejaVuSans-6d"/>
      <use x="1193.498047" xlink:href="#DejaVuSans-61"/>
      <use x="1254.777344" xlink:href="#DejaVuSans-69"/>
      <use x="1282.560547" xlink:href="#DejaVuSans-6e"/>
     </g>
    </g>
    <g id="text_14">
     <!-- 1e10 -->
     <g transform="translate(57.6 38.472)scale(0.1 -0.1)">
      <use xlink:href="#DejaVuSans-31"/>
      <use x="63.623047" xlink:href="#DejaVuSans-65"/>
      <use x="125.146484" xlink:href="#DejaVuSans-31"/>
      <use x="188.769531" xlink:href="#DejaVuSans-30"/>
     </g>
    </g>
   </g>
   <g id="patch_259">
    <path d="M 57.6 307.584 
L 57.6 41.472 
" style="fill:none;stroke:#000000;stroke-linecap:square;stroke-linejoin:miter;stroke-width:0.8;"/>
   </g>
   <g id="patch_260">
    <path d="M 414.72 307.584 
L 414.72 41.472 
" style="fill:none;stroke:#000000;stroke-linecap:square;stroke-linejoin:miter;stroke-width:0.8;"/>
   </g>
   <g id="patch_261">
    <path d="M 57.6 307.584 
L 414.72 307.584 
" style="fill:none;stroke:#000000;stroke-linecap:square;stroke-linejoin:miter;stroke-width:0.8;"/>
   </g>
   <g id="patch_262">
    <path d="M 57.6 41.472 
L 414.72 41.472 
" style="fill:none;stroke:#000000;stroke-linecap:square;stroke-linejoin:miter;stroke-width:0.8;"/>
   </g>
   <g id="text_15">
    <!-- ex1-run99 -->
    <g transform="translate(205.333125 35.472)scale(0.12 -0.12)">
     <defs>
      <path d="M 3513 3500 
L 2247 1797 
L 3578 0 
L 2900 0 
L 1881 1375 
L 863 0 
L 184 0 
L 1544 1831 
L 300 3500 
L 978 3500 
L 1906 2253 
L 2834 3500 
L 3513 3500 
z
" id="DejaVuSans-78" transform="scale(0.015625)"/>
      <path d="M 313 2009 
L 1997 2009 
L 1997 1497 
L 313 1497 
L 313 2009 
z
" id="DejaVuSans-2d" transform="scale(0.015625)"/>
      <path d="M 2631 2963 
Q 2534 3019 2420 3045 
Q 2306 3072 2169 3072 
Q 1681 3072 1420 2755 
Q 1159 2438 1159 1844 
L 1159 0 
L 581 0 
L 581 3500 
L 1159 3500 
L 1159 2956 
Q 1341 3275 1631 3429 
Q 1922 3584 2338 3584 
Q 2397 3584 2469 3576 
Q 2541 3569 2628 3553 
L 2631 2963 
z
" id="DejaVuSans-72" transform="scale(0.015625)"/>
      <path d="M 544 1381 
L 544 3500 
L 1119 3500 
L 1119 1403 
Q 1119 906 1312 657 
Q 1506 409 1894 409 
Q 2359 409 2629 706 
Q 2900 1003 2900 1516 
L 2900 3500 
L 3475 3500 
L 3475 0 
L 2900 0 
L 2900 538 
Q 2691 219 2414 64 
Q 2138 -91 1772 -91 
Q 1169 -91 856 284 
Q 544 659 544 1381 
z
M 1991 3584 
L 1991 3584 
z
" id="DejaVuSans-75" transform="scale(0.015625)"/>
      <path d="M 703 97 
L 703 672 
Q 941 559 1184 500 
Q 1428 441 1663 441 
Q 2288 441 2617 861 
Q 2947 1281 2994 2138 
Q 2813 1869 2534 1725 
Q 2256 1581 1919 1581 
Q 1219 1581 811 2004 
Q 403 2428 403 3163 
Q 403 3881 828 4315 
Q 1253 4750 1959 4750 
Q 2769 4750 3195 4129 
Q 3622 3509 3622 2328 
Q 3622 1225 3098 567 
Q 2575 -91 1691 -91 
Q 1453 -91 1209 -44 
Q 966 3 703 97 
z
M 1959 2075 
Q 2384 2075 2632 2365 
Q 2881 2656 2881 3163 
Q 2881 3666 2632 3958 
Q 2384 4250 1959 4250 
Q 1534 4250 1286 3958 
Q 1038 3666 1038 3163 
Q 1038 2656 1286 2365 
Q 1534 2075 1959 2075 
z
" id="DejaVuSans-39" transform="scale(0.015625)"/>
     </defs>
     <use xlink:href="#DejaVuSans-65"/>
     <use x="59.773438" xlink:href="#DejaVuSans-78"/>
     <use x="118.953125" xlink:href="#DejaVuSans-31"/>
     <use x="182.576172" xlink:href="#DejaVuSans-2d"/>
     <use x="218.660156" xlink:href="#DejaVuSans-72"/>
     <use x="259.773438" xlink:href="#DejaVuSans-75"/>
     <use x="323.152344" xlink:href="#DejaVuSans-6e"/>
     <use x="386.53125" xlink:href="#DejaVuSans-39"/>
     <use x="450.154297" xlink:href="#DejaVuSans-39"/>
    </g>
   </g>
   <g id="legend_1">
    <g id="patch_263">
     <path d="M 287.32625 78.82825 
L 407.72 78.82825 
Q 409.72 78.82825 409.72 76.82825 
L 409.72 48.472 
Q 409.72 46.472 407.72 46.472 
L 287.32625 46.472 
Q 285.32625 46.472 285.32625 48.472 
L 285.32625 76.82825 
Q 285.32625 78.82825 287.32625 78.82825 
z
" style="fill:#ffffff;opacity:0.8;stroke:#cccccc;stroke-linejoin:miter;"/>
    </g>
    <g id="patch_264">
     <path d="M 289.32625 58.070437 
L 309.32625 58.070437 
L 309.32625 51.070437 
L 289.32625 51.070437 
z
" style="fill:#1f77b4;"/>
    </g>
    <g id="text_16">
     <!--  non-dupe bytes -->
     <g transform="translate(317.32625 58.070437)scale(0.1 -0.1)">
      <defs>
       <path d="M 1159 525 
L 1159 -1331 
L 581 -1331 
L 581 3500 
L 1159 3500 
L 1159 2969 
Q 1341 3281 1617 3432 
Q 1894 3584 2278 3584 
Q 2916 3584 3314 3078 
Q 3713 2572 3713 1747 
Q 3713 922 3314 415 
Q 2916 -91 2278 -91 
Q 1894 -91 1617 61 
Q 1341 213 1159 525 
z
M 3116 1747 
Q 3116 2381 2855 2742 
Q 2594 3103 2138 3103 
Q 1681 3103 1420 2742 
Q 1159 2381 1159 1747 
Q 1159 1113 1420 752 
Q 1681 391 2138 391 
Q 2594 391 2855 752 
Q 3116 1113 3116 1747 
z
" id="DejaVuSans-70" transform="scale(0.015625)"/>
       <path d="M 3116 1747 
Q 3116 2381 2855 2742 
Q 2594 3103 2138 3103 
Q 1681 3103 1420 2742 
Q 1159 2381 1159 1747 
Q 1159 1113 1420 752 
Q 1681 391 2138 391 
Q 2594 391 2855 752 
Q 3116 1113 3116 1747 
z
M 1159 2969 
Q 1341 3281 1617 3432 
Q 1894 3584 2278 3584 
Q 2916 3584 3314 3078 
Q 3713 2572 3713 1747 
Q 3713 922 3314 415 
Q 2916 -91 2278 -91 
Q 1894 -91 1617 61 
Q 1341 213 1159 525 
L 1159 0 
L 581 0 
L 581 4863 
L 1159 4863 
L 1159 2969 
z
" id="DejaVuSans-62" transform="scale(0.015625)"/>
      </defs>
      <use xlink:href="#DejaVuSans-20"/>
      <use x="31.787109" xlink:href="#DejaVuSans-6e"/>
      <use x="95.166016" xlink:href="#DejaVuSans-6f"/>
      <use x="156.347656" xlink:href="#DejaVuSans-6e"/>
      <use x="219.726562" xlink:href="#DejaVuSans-2d"/>
      <use x="255.810547" xlink:href="#DejaVuSans-64"/>
      <use x="319.287109" xlink:href="#DejaVuSans-75"/>
      <use x="382.666016" xlink:href="#DejaVuSans-70"/>
      <use x="446.142578" xlink:href="#DejaVuSans-65"/>
      <use x="507.666016" xlink:href="#DejaVuSans-20"/>
      <use x="539.453125" xlink:href="#DejaVuSans-62"/>
      <use x="602.929688" xlink:href="#DejaVuSans-79"/>
      <use x="662.109375" xlink:href="#DejaVuSans-74"/>
      <use x="701.318359" xlink:href="#DejaVuSans-65"/>
      <use x="762.841797" xlink:href="#DejaVuSans-73"/>
     </g>
    </g>
    <g id="patch_265">
     <path d="M 289.32625 72.748562 
L 309.32625 72.748562 
L 309.32625 65.748562 
L 289.32625 65.748562 
z
" style="fill:#ff7f0e;"/>
    </g>
    <g id="text_17">
     <!-- total region bytes -->
     <g transform="translate(317.32625 72.748562)scale(0.1 -0.1)">
      <defs>
       <path d="M 2906 1791 
Q 2906 2416 2648 2759 
Q 2391 3103 1925 3103 
Q 1463 3103 1205 2759 
Q 947 2416 947 1791 
Q 947 1169 1205 825 
Q 1463 481 1925 481 
Q 2391 481 2648 825 
Q 2906 1169 2906 1791 
z
M 3481 434 
Q 3481 -459 3084 -895 
Q 2688 -1331 1869 -1331 
Q 1566 -1331 1297 -1286 
Q 1028 -1241 775 -1147 
L 775 -588 
Q 1028 -725 1275 -790 
Q 1522 -856 1778 -856 
Q 2344 -856 2625 -561 
Q 2906 -266 2906 331 
L 2906 616 
Q 2728 306 2450 153 
Q 2172 0 1784 0 
Q 1141 0 747 490 
Q 353 981 353 1791 
Q 353 2603 747 3093 
Q 1141 3584 1784 3584 
Q 2172 3584 2450 3431 
Q 2728 3278 2906 2969 
L 2906 3500 
L 3481 3500 
L 3481 434 
z
" id="DejaVuSans-67" transform="scale(0.015625)"/>
      </defs>
      <use xlink:href="#DejaVuSans-74"/>
      <use x="39.208984" xlink:href="#DejaVuSans-6f"/>
      <use x="100.390625" xlink:href="#DejaVuSans-74"/>
      <use x="139.599609" xlink:href="#DejaVuSans-61"/>
      <use x="200.878906" xlink:href="#DejaVuSans-6c"/>
      <use x="228.662109" xlink:href="#DejaVuSans-20"/>
      <use x="260.449219" xlink:href="#DejaVuSans-72"/>
      <use x="299.3125" xlink:href="#DejaVuSans-65"/>
      <use x="360.835938" xlink:href="#DejaVuSans-67"/>
      <use x="424.3125" xlink:href="#DejaVuSans-69"/>
      <use x="452.095703" xlink:href="#DejaVuSans-6f"/>
      <use x="513.277344" xlink:href="#DejaVuSans-6e"/>
      <use x="576.65625" xlink:href="#DejaVuSans-20"/>
      <use x="608.443359" xlink:href="#DejaVuSans-62"/>
      <use x="671.919922" xlink:href="#DejaVuSans-79"/>
      <use x="731.099609" xlink:href="#DejaVuSans-74"/>
      <use x="770.308594" xlink:href="#DejaVuSans-65"/>
      <use x="831.832031" xlink:href="#DejaVuSans-73"/>
     </g>
    </g>
   </g>
  </g>
 </g>
 <defs>
  <clipPath id="p3aa7b1fef9">
   <rect height="266.112" width="357.12" x="57.6" y="41.472"/>
  </clipPath>
 </defs>
</svg>
