<?xml version="1.0" encoding="utf-8" standalone="no"?>
<!DOCTYPE svg PUBLIC "-//W3C//DTD SVG 1.1//EN"
  "http://www.w3.org/Graphics/SVG/1.1/DTD/svg11.dtd">
<svg height="345.6pt" version="1.1" viewBox="0 0 460.8 345.6" width="460.8pt" xmlns="http://www.w3.org/2000/svg" xmlns:xlink="http://www.w3.org/1999/xlink">
 <metadata>
  <rdf:RDF xmlns:cc="http://creativecommons.org/ns#" xmlns:dc="http://purl.org/dc/elements/1.1/" xmlns:rdf="http://www.w3.org/1999/02/22-rdf-syntax-ns#">
   <cc:Work>
    <dc:type rdf:resource="http://purl.org/dc/dcmitype/StillImage"/>
    <dc:date>2021-12-04T02:05:09.254071</dc:date>
    <dc:format>image/svg+xml</dc:format>
    <dc:creator>
     <cc:Agent>
      <dc:title>Matplotlib v3.4.3, https://matplotlib.org/</dc:title>
     </cc:Agent>
    </dc:creator>
   </cc:Work>
  </rdf:RDF>
 </metadata>
 <defs>
  <style type="text/css">*{stroke-linecap:butt;stroke-linejoin:round;}</style>
 </defs>
 <g id="figure_1">
  <g id="patch_1">
   <path d="M 0 345.6 
L 460.8 345.6 
L 460.8 0 
L 0 0 
z
" style="fill:#ffffff;"/>
  </g>
  <g id="axes_1">
   <g id="patch_2">
    <path d="M 57.6 307.584 
L 414.72 307.584 
L 414.72 41.472 
L 57.6 41.472 
z
" style="fill:#ffffff;"/>
   </g>
   <g id="patch_3">
    <path clip-path="url(#p6b8cd86db6)" d="M 58.2975 307.584 
L 59.6925 307.584 
L 59.6925 305.615179 
L 58.2975 305.615179 
z
" style="fill:#1f77b4;"/>
   </g>
   <g id="patch_4">
    <path clip-path="url(#p6b8cd86db6)" d="M 61.0875 307.584 
L 62.4825 307.584 
L 62.4825 306.644012 
L 61.0875 306.644012 
z
" style="fill:#1f77b4;"/>
   </g>
   <g id="patch_5">
    <path clip-path="url(#p6b8cd86db6)" d="M 63.8775 307.584 
L 65.2725 307.584 
L 65.2725 306.15452 
L 63.8775 306.15452 
z
" style="fill:#1f77b4;"/>
   </g>
   <g id="patch_6">
    <path clip-path="url(#p6b8cd86db6)" d="M 66.6675 307.584 
L 68.0625 307.584 
L 68.0625 306.762521 
L 66.6675 306.762521 
z
" style="fill:#1f77b4;"/>
   </g>
   <g id="patch_7">
    <path clip-path="url(#p6b8cd86db6)" d="M 69.4575 307.584 
L 70.8525 307.584 
L 70.8525 306.039992 
L 69.4575 306.039992 
z
" style="fill:#1f77b4;"/>
   </g>
   <g id="patch_8">
    <path clip-path="url(#p6b8cd86db6)" d="M 72.2475 307.584 
L 73.6425 307.584 
L 73.6425 306.367825 
L 72.2475 306.367825 
z
" style="fill:#1f77b4;"/>
   </g>
   <g id="patch_9">
    <path clip-path="url(#p6b8cd86db6)" d="M 75.0375 307.584 
L 76.4325 307.584 
L 76.4325 306.60781 
L 75.0375 306.60781 
z
" style="fill:#1f77b4;"/>
   </g>
   <g id="patch_10">
    <path clip-path="url(#p6b8cd86db6)" d="M 77.8275 307.584 
L 79.2225 307.584 
L 79.2225 306.211469 
L 77.8275 306.211469 
z
" style="fill:#1f77b4;"/>
   </g>
   <g id="patch_11">
    <path clip-path="url(#p6b8cd86db6)" d="M 80.6175 307.584 
L 82.0125 307.584 
L 82.0125 305.967144 
L 80.6175 305.967144 
z
" style="fill:#1f77b4;"/>
   </g>
   <g id="patch_12">
    <path clip-path="url(#p6b8cd86db6)" d="M 83.4075 307.584 
L 84.8025 307.584 
L 84.8025 306.210445 
L 83.4075 306.210445 
z
" style="fill:#1f77b4;"/>
   </g>
   <g id="patch_13">
    <path clip-path="url(#p6b8cd86db6)" d="M 86.1975 307.584 
L 87.5925 307.584 
L 87.5925 305.95866 
L 86.1975 305.95866 
z
" style="fill:#1f77b4;"/>
   </g>
   <g id="patch_14">
    <path clip-path="url(#p6b8cd86db6)" d="M 88.9875 307.584 
L 90.3825 307.584 
L 90.3825 305.92037 
L 88.9875 305.92037 
z
" style="fill:#1f77b4;"/>
   </g>
   <g id="patch_15">
    <path clip-path="url(#p6b8cd86db6)" d="M 91.7775 307.584 
L 93.1725 307.584 
L 93.1725 306.636226 
L 91.7775 306.636226 
z
" style="fill:#1f77b4;"/>
   </g>
   <g id="patch_16">
    <path clip-path="url(#p6b8cd86db6)" d="M 94.5675 307.584 
L 95.9625 307.584 
L 95.9625 306.05992 
L 94.5675 306.05992 
z
" style="fill:#1f77b4;"/>
   </g>
   <g id="patch_17">
    <path clip-path="url(#p6b8cd86db6)" d="M 97.3575 307.584 
L 98.7525 307.584 
L 98.7525 306.54938 
L 97.3575 306.54938 
z
" style="fill:#1f77b4;"/>
   </g>
   <g id="patch_18">
    <path clip-path="url(#p6b8cd86db6)" d="M 100.1475 307.584 
L 101.5425 307.584 
L 101.5425 305.591485 
L 100.1475 305.591485 
z
" style="fill:#1f77b4;"/>
   </g>
   <g id="patch_19">
    <path clip-path="url(#p6b8cd86db6)" d="M 102.9375 307.584 
L 104.3325 307.584 
L 104.3325 305.973102 
L 102.9375 305.973102 
z
" style="fill:#1f77b4;"/>
   </g>
   <g id="patch_20">
    <path clip-path="url(#p6b8cd86db6)" d="M 105.7275 307.584 
L 107.1225 307.584 
L 107.1225 305.741468 
L 105.7275 305.741468 
z
" style="fill:#1f77b4;"/>
   </g>
   <g id="patch_21">
    <path clip-path="url(#p6b8cd86db6)" d="M 108.5175 307.584 
L 109.9125 307.584 
L 109.9125 306.410578 
L 108.5175 306.410578 
z
" style="fill:#1f77b4;"/>
   </g>
   <g id="patch_22">
    <path clip-path="url(#p6b8cd86db6)" d="M 111.3075 307.584 
L 112.7025 307.584 
L 112.7025 305.197535 
L 111.3075 305.197535 
z
" style="fill:#1f77b4;"/>
   </g>
   <g id="patch_23">
    <path clip-path="url(#p6b8cd86db6)" d="M 114.0975 307.584 
L 115.4925 307.584 
L 115.4925 306.485975 
L 114.0975 306.485975 
z
" style="fill:#1f77b4;"/>
   </g>
   <g id="patch_24">
    <path clip-path="url(#p6b8cd86db6)" d="M 116.8875 307.584 
L 118.2825 307.584 
L 118.2825 306.115067 
L 116.8875 306.115067 
z
" style="fill:#1f77b4;"/>
   </g>
   <g id="patch_25">
    <path clip-path="url(#p6b8cd86db6)" d="M 119.6775 307.584 
L 121.0725 307.584 
L 121.0725 305.497891 
L 119.6775 305.497891 
z
" style="fill:#1f77b4;"/>
   </g>
   <g id="patch_26">
    <path clip-path="url(#p6b8cd86db6)" d="M 122.4675 307.584 
L 123.8625 307.584 
L 123.8625 305.999764 
L 122.4675 305.999764 
z
" style="fill:#1f77b4;"/>
   </g>
   <g id="patch_27">
    <path clip-path="url(#p6b8cd86db6)" d="M 125.2575 307.584 
L 126.6525 307.584 
L 126.6525 305.385398 
L 125.2575 305.385398 
z
" style="fill:#1f77b4;"/>
   </g>
   <g id="patch_28">
    <path clip-path="url(#p6b8cd86db6)" d="M 128.0475 307.584 
L 129.4425 307.584 
L 129.4425 305.22618 
L 128.0475 305.22618 
z
" style="fill:#1f77b4;"/>
   </g>
   <g id="patch_29">
    <path clip-path="url(#p6b8cd86db6)" d="M 130.8375 307.584 
L 132.2325 307.584 
L 132.2325 306.372989 
L 130.8375 306.372989 
z
" style="fill:#1f77b4;"/>
   </g>
   <g id="patch_30">
    <path clip-path="url(#p6b8cd86db6)" d="M 133.6275 307.584 
L 135.0225 307.584 
L 135.0225 306.00806 
L 133.6275 306.00806 
z
" style="fill:#1f77b4;"/>
   </g>
   <g id="patch_31">
    <path clip-path="url(#p6b8cd86db6)" d="M 136.4175 307.584 
L 137.8125 307.584 
L 137.8125 306.013 
L 136.4175 306.013 
z
" style="fill:#1f77b4;"/>
   </g>
   <g id="patch_32">
    <path clip-path="url(#p6b8cd86db6)" d="M 139.2075 307.584 
L 140.6025 307.584 
L 140.6025 306.235702 
L 139.2075 306.235702 
z
" style="fill:#1f77b4;"/>
   </g>
   <g id="patch_33">
    <path clip-path="url(#p6b8cd86db6)" d="M 141.9975 307.584 
L 143.3925 307.584 
L 143.3925 306.679703 
L 141.9975 306.679703 
z
" style="fill:#1f77b4;"/>
   </g>
   <g id="patch_34">
    <path clip-path="url(#p6b8cd86db6)" d="M 144.7875 307.584 
L 146.1825 307.584 
L 146.1825 305.250857 
L 144.7875 305.250857 
z
" style="fill:#1f77b4;"/>
   </g>
   <g id="patch_35">
    <path clip-path="url(#p6b8cd86db6)" d="M 147.5775 307.584 
L 148.9725 307.584 
L 148.9725 306.064221 
L 147.5775 306.064221 
z
" style="fill:#1f77b4;"/>
   </g>
   <g id="patch_36">
    <path clip-path="url(#p6b8cd86db6)" d="M 150.3675 307.584 
L 151.7625 307.584 
L 151.7625 306.022031 
L 150.3675 306.022031 
z
" style="fill:#1f77b4;"/>
   </g>
   <g id="patch_37">
    <path clip-path="url(#p6b8cd86db6)" d="M 153.1575 307.584 
L 154.5525 307.584 
L 154.5525 306.252386 
L 153.1575 306.252386 
z
" style="fill:#1f77b4;"/>
   </g>
   <g id="patch_38">
    <path clip-path="url(#p6b8cd86db6)" d="M 155.9475 307.584 
L 157.3425 307.584 
L 157.3425 304.662796 
L 155.9475 304.662796 
z
" style="fill:#1f77b4;"/>
   </g>
   <g id="patch_39">
    <path clip-path="url(#p6b8cd86db6)" d="M 158.7375 307.584 
L 160.1325 307.584 
L 160.1325 305.675041 
L 158.7375 305.675041 
z
" style="fill:#1f77b4;"/>
   </g>
   <g id="patch_40">
    <path clip-path="url(#p6b8cd86db6)" d="M 161.5275 307.584 
L 162.9225 307.584 
L 162.9225 305.733008 
L 161.5275 305.733008 
z
" style="fill:#1f77b4;"/>
   </g>
   <g id="patch_41">
    <path clip-path="url(#p6b8cd86db6)" d="M 164.3175 307.584 
L 165.7125 307.584 
L 165.7125 306.549479 
L 164.3175 306.549479 
z
" style="fill:#1f77b4;"/>
   </g>
   <g id="patch_42">
    <path clip-path="url(#p6b8cd86db6)" d="M 167.1075 307.584 
L 168.5025 307.584 
L 168.5025 305.093388 
L 167.1075 305.093388 
z
" style="fill:#1f77b4;"/>
   </g>
   <g id="patch_43">
    <path clip-path="url(#p6b8cd86db6)" d="M 169.8975 307.584 
L 171.2925 307.584 
L 171.2925 305.939102 
L 169.8975 305.939102 
z
" style="fill:#1f77b4;"/>
   </g>
   <g id="patch_44">
    <path clip-path="url(#p6b8cd86db6)" d="M 172.6875 307.584 
L 174.0825 307.584 
L 174.0825 305.59606 
L 172.6875 305.59606 
z
" style="fill:#1f77b4;"/>
   </g>
   <g id="patch_45">
    <path clip-path="url(#p6b8cd86db6)" d="M 175.4775 307.584 
L 176.8725 307.584 
L 176.8725 305.435907 
L 175.4775 305.435907 
z
" style="fill:#1f77b4;"/>
   </g>
   <g id="patch_46">
    <path clip-path="url(#p6b8cd86db6)" d="M 178.2675 307.584 
L 179.6625 307.584 
L 179.6625 306.593165 
L 178.2675 306.593165 
z
" style="fill:#1f77b4;"/>
   </g>
   <g id="patch_47">
    <path clip-path="url(#p6b8cd86db6)" d="M 181.0575 307.584 
L 182.4525 307.584 
L 182.4525 305.661781 
L 181.0575 305.661781 
z
" style="fill:#1f77b4;"/>
   </g>
   <g id="patch_48">
    <path clip-path="url(#p6b8cd86db6)" d="M 183.8475 307.584 
L 185.2425 307.584 
L 185.2425 305.591982 
L 183.8475 305.591982 
z
" style="fill:#1f77b4;"/>
   </g>
   <g id="patch_49">
    <path clip-path="url(#p6b8cd86db6)" d="M 186.6375 307.584 
L 188.0325 307.584 
L 188.0325 305.969825 
L 186.6375 305.969825 
z
" style="fill:#1f77b4;"/>
   </g>
   <g id="patch_50">
    <path clip-path="url(#p6b8cd86db6)" d="M 189.4275 307.584 
L 190.8225 307.584 
L 190.8225 305.819615 
L 189.4275 305.819615 
z
" style="fill:#1f77b4;"/>
   </g>
   <g id="patch_51">
    <path clip-path="url(#p6b8cd86db6)" d="M 192.2175 307.584 
L 193.6125 307.584 
L 193.6125 305.726234 
L 192.2175 305.726234 
z
" style="fill:#1f77b4;"/>
   </g>
   <g id="patch_52">
    <path clip-path="url(#p6b8cd86db6)" d="M 195.0075 307.584 
L 196.4025 307.584 
L 196.4025 305.127039 
L 195.0075 305.127039 
z
" style="fill:#1f77b4;"/>
   </g>
   <g id="patch_53">
    <path clip-path="url(#p6b8cd86db6)" d="M 197.7975 307.584 
L 199.1925 307.584 
L 199.1925 306.566409 
L 197.7975 306.566409 
z
" style="fill:#1f77b4;"/>
   </g>
   <g id="patch_54">
    <path clip-path="url(#p6b8cd86db6)" d="M 200.5875 307.584 
L 201.9825 307.584 
L 201.9825 306.094324 
L 200.5875 306.094324 
z
" style="fill:#1f77b4;"/>
   </g>
   <g id="patch_55">
    <path clip-path="url(#p6b8cd86db6)" d="M 203.3775 307.584 
L 204.7725 307.584 
L 204.7725 305.960451 
L 203.3775 305.960451 
z
" style="fill:#1f77b4;"/>
   </g>
   <g id="patch_56">
    <path clip-path="url(#p6b8cd86db6)" d="M 206.1675 307.584 
L 207.5625 307.584 
L 207.5625 305.85405 
L 206.1675 305.85405 
z
" style="fill:#1f77b4;"/>
   </g>
   <g id="patch_57">
    <path clip-path="url(#p6b8cd86db6)" d="M 208.9575 307.584 
L 210.3525 307.584 
L 210.3525 304.915181 
L 208.9575 304.915181 
z
" style="fill:#1f77b4;"/>
   </g>
   <g id="patch_58">
    <path clip-path="url(#p6b8cd86db6)" d="M 211.7475 307.584 
L 213.1425 307.584 
L 213.1425 305.860724 
L 211.7475 305.860724 
z
" style="fill:#1f77b4;"/>
   </g>
   <g id="patch_59">
    <path clip-path="url(#p6b8cd86db6)" d="M 214.5375 307.584 
L 215.9325 307.584 
L 215.9325 305.891918 
L 214.5375 305.891918 
z
" style="fill:#1f77b4;"/>
   </g>
   <g id="patch_60">
    <path clip-path="url(#p6b8cd86db6)" d="M 217.3275 307.584 
L 218.7225 307.584 
L 218.7225 305.813691 
L 217.3275 305.813691 
z
" style="fill:#1f77b4;"/>
   </g>
   <g id="patch_61">
    <path clip-path="url(#p6b8cd86db6)" d="M 220.1175 307.584 
L 221.5125 307.584 
L 221.5125 305.412503 
L 220.1175 305.412503 
z
" style="fill:#1f77b4;"/>
   </g>
   <g id="patch_62">
    <path clip-path="url(#p6b8cd86db6)" d="M 222.9075 307.584 
L 224.3025 307.584 
L 224.3025 306.347069 
L 222.9075 306.347069 
z
" style="fill:#1f77b4;"/>
   </g>
   <g id="patch_63">
    <path clip-path="url(#p6b8cd86db6)" d="M 225.6975 307.584 
L 227.0925 307.584 
L 227.0925 306.758982 
L 225.6975 306.758982 
z
" style="fill:#1f77b4;"/>
   </g>
   <g id="patch_64">
    <path clip-path="url(#p6b8cd86db6)" d="M 228.4875 307.584 
L 229.8825 307.584 
L 229.8825 306.234849 
L 228.4875 306.234849 
z
" style="fill:#1f77b4;"/>
   </g>
   <g id="patch_65">
    <path clip-path="url(#p6b8cd86db6)" d="M 231.2775 307.584 
L 232.6725 307.584 
L 232.6725 306.468394 
L 231.2775 306.468394 
z
" style="fill:#1f77b4;"/>
   </g>
   <g id="patch_66">
    <path clip-path="url(#p6b8cd86db6)" d="M 234.0675 307.584 
L 235.4625 307.584 
L 235.4625 305.489963 
L 234.0675 305.489963 
z
" style="fill:#1f77b4;"/>
   </g>
   <g id="patch_67">
    <path clip-path="url(#p6b8cd86db6)" d="M 236.8575 307.584 
L 238.2525 307.584 
L 238.2525 305.823685 
L 236.8575 305.823685 
z
" style="fill:#1f77b4;"/>
   </g>
   <g id="patch_68">
    <path clip-path="url(#p6b8cd86db6)" d="M 239.6475 307.584 
L 241.0425 307.584 
L 241.0425 306.962012 
L 239.6475 306.962012 
z
" style="fill:#1f77b4;"/>
   </g>
   <g id="patch_69">
    <path clip-path="url(#p6b8cd86db6)" d="M 242.4375 307.584 
L 243.8325 307.584 
L 243.8325 305.291632 
L 242.4375 305.291632 
z
" style="fill:#1f77b4;"/>
   </g>
   <g id="patch_70">
    <path clip-path="url(#p6b8cd86db6)" d="M 245.2275 307.584 
L 246.6225 307.584 
L 246.6225 306.471062 
L 245.2275 306.471062 
z
" style="fill:#1f77b4;"/>
   </g>
   <g id="patch_71">
    <path clip-path="url(#p6b8cd86db6)" d="M 248.0175 307.584 
L 249.4125 307.584 
L 249.4125 306.506019 
L 248.0175 306.506019 
z
" style="fill:#1f77b4;"/>
   </g>
   <g id="patch_72">
    <path clip-path="url(#p6b8cd86db6)" d="M 250.8075 307.584 
L 252.2025 307.584 
L 252.2025 305.80732 
L 250.8075 305.80732 
z
" style="fill:#1f77b4;"/>
   </g>
   <g id="patch_73">
    <path clip-path="url(#p6b8cd86db6)" d="M 253.5975 307.584 
L 254.9925 307.584 
L 254.9925 305.842577 
L 253.5975 305.842577 
z
" style="fill:#1f77b4;"/>
   </g>
   <g id="patch_74">
    <path clip-path="url(#p6b8cd86db6)" d="M 256.3875 307.584 
L 257.7825 307.584 
L 257.7825 306.383715 
L 256.3875 306.383715 
z
" style="fill:#1f77b4;"/>
   </g>
   <g id="patch_75">
    <path clip-path="url(#p6b8cd86db6)" d="M 259.1775 307.584 
L 260.5725 307.584 
L 260.5725 305.743111 
L 259.1775 305.743111 
z
" style="fill:#1f77b4;"/>
   </g>
   <g id="patch_76">
    <path clip-path="url(#p6b8cd86db6)" d="M 261.9675 307.584 
L 263.3625 307.584 
L 263.3625 306.750364 
L 261.9675 306.750364 
z
" style="fill:#1f77b4;"/>
   </g>
   <g id="patch_77">
    <path clip-path="url(#p6b8cd86db6)" d="M 264.7575 307.584 
L 266.1525 307.584 
L 266.1525 306.702242 
L 264.7575 306.702242 
z
" style="fill:#1f77b4;"/>
   </g>
   <g id="patch_78">
    <path clip-path="url(#p6b8cd86db6)" d="M 267.5475 307.584 
L 268.9425 307.584 
L 268.9425 305.863738 
L 267.5475 305.863738 
z
" style="fill:#1f77b4;"/>
   </g>
   <g id="patch_79">
    <path clip-path="url(#p6b8cd86db6)" d="M 270.3375 307.584 
L 271.7325 307.584 
L 271.7325 305.763013 
L 270.3375 305.763013 
z
" style="fill:#1f77b4;"/>
   </g>
   <g id="patch_80">
    <path clip-path="url(#p6b8cd86db6)" d="M 273.1275 307.584 
L 274.5225 307.584 
L 274.5225 306.517106 
L 273.1275 306.517106 
z
" style="fill:#1f77b4;"/>
   </g>
   <g id="patch_81">
    <path clip-path="url(#p6b8cd86db6)" d="M 275.9175 307.584 
L 277.3125 307.584 
L 277.3125 306.860267 
L 275.9175 306.860267 
z
" style="fill:#1f77b4;"/>
   </g>
   <g id="patch_82">
    <path clip-path="url(#p6b8cd86db6)" d="M 278.7075 307.584 
L 280.1025 307.584 
L 280.1025 305.572265 
L 278.7075 305.572265 
z
" style="fill:#1f77b4;"/>
   </g>
   <g id="patch_83">
    <path clip-path="url(#p6b8cd86db6)" d="M 281.4975 307.584 
L 282.8925 307.584 
L 282.8925 305.421973 
L 281.4975 305.421973 
z
" style="fill:#1f77b4;"/>
   </g>
   <g id="patch_84">
    <path clip-path="url(#p6b8cd86db6)" d="M 284.2875 307.584 
L 285.6825 307.584 
L 285.6825 306.20469 
L 284.2875 306.20469 
z
" style="fill:#1f77b4;"/>
   </g>
   <g id="patch_85">
    <path clip-path="url(#p6b8cd86db6)" d="M 287.0775 307.584 
L 288.4725 307.584 
L 288.4725 306.247201 
L 287.0775 306.247201 
z
" style="fill:#1f77b4;"/>
   </g>
   <g id="patch_86">
    <path clip-path="url(#p6b8cd86db6)" d="M 289.8675 307.584 
L 291.2625 307.584 
L 291.2625 305.738816 
L 289.8675 305.738816 
z
" style="fill:#1f77b4;"/>
   </g>
   <g id="patch_87">
    <path clip-path="url(#p6b8cd86db6)" d="M 292.6575 307.584 
L 294.0525 307.584 
L 294.0525 306.641037 
L 292.6575 306.641037 
z
" style="fill:#1f77b4;"/>
   </g>
   <g id="patch_88">
    <path clip-path="url(#p6b8cd86db6)" d="M 295.4475 307.584 
L 296.8425 307.584 
L 296.8425 306.818208 
L 295.4475 306.818208 
z
" style="fill:#1f77b4;"/>
   </g>
   <g id="patch_89">
    <path clip-path="url(#p6b8cd86db6)" d="M 298.2375 307.584 
L 299.6325 307.584 
L 299.6325 305.968303 
L 298.2375 305.968303 
z
" style="fill:#1f77b4;"/>
   </g>
   <g id="patch_90">
    <path clip-path="url(#p6b8cd86db6)" d="M 301.0275 307.584 
L 302.4225 307.584 
L 302.4225 306.239343 
L 301.0275 306.239343 
z
" style="fill:#1f77b4;"/>
   </g>
   <g id="patch_91">
    <path clip-path="url(#p6b8cd86db6)" d="M 303.8175 307.584 
L 305.2125 307.584 
L 305.2125 306.282534 
L 303.8175 306.282534 
z
" style="fill:#1f77b4;"/>
   </g>
   <g id="patch_92">
    <path clip-path="url(#p6b8cd86db6)" d="M 306.6075 307.584 
L 308.0025 307.584 
L 308.0025 306.349451 
L 306.6075 306.349451 
z
" style="fill:#1f77b4;"/>
   </g>
   <g id="patch_93">
    <path clip-path="url(#p6b8cd86db6)" d="M 309.3975 307.584 
L 310.7925 307.584 
L 310.7925 306.650719 
L 309.3975 306.650719 
z
" style="fill:#1f77b4;"/>
   </g>
   <g id="patch_94">
    <path clip-path="url(#p6b8cd86db6)" d="M 312.1875 307.584 
L 313.5825 307.584 
L 313.5825 305.540607 
L 312.1875 305.540607 
z
" style="fill:#1f77b4;"/>
   </g>
   <g id="patch_95">
    <path clip-path="url(#p6b8cd86db6)" d="M 314.9775 307.584 
L 316.3725 307.584 
L 316.3725 306.690282 
L 314.9775 306.690282 
z
" style="fill:#1f77b4;"/>
   </g>
   <g id="patch_96">
    <path clip-path="url(#p6b8cd86db6)" d="M 317.7675 307.584 
L 319.1625 307.584 
L 319.1625 305.972013 
L 317.7675 305.972013 
z
" style="fill:#1f77b4;"/>
   </g>
   <g id="patch_97">
    <path clip-path="url(#p6b8cd86db6)" d="M 320.5575 307.584 
L 321.9525 307.584 
L 321.9525 305.832482 
L 320.5575 305.832482 
z
" style="fill:#1f77b4;"/>
   </g>
   <g id="patch_98">
    <path clip-path="url(#p6b8cd86db6)" d="M 323.3475 307.584 
L 324.7425 307.584 
L 324.7425 306.492246 
L 323.3475 306.492246 
z
" style="fill:#1f77b4;"/>
   </g>
   <g id="patch_99">
    <path clip-path="url(#p6b8cd86db6)" d="M 326.1375 307.584 
L 327.5325 307.584 
L 327.5325 305.557535 
L 326.1375 305.557535 
z
" style="fill:#1f77b4;"/>
   </g>
   <g id="patch_100">
    <path clip-path="url(#p6b8cd86db6)" d="M 328.9275 307.584 
L 330.3225 307.584 
L 330.3225 305.526249 
L 328.9275 305.526249 
z
" style="fill:#1f77b4;"/>
   </g>
   <g id="patch_101">
    <path clip-path="url(#p6b8cd86db6)" d="M 331.7175 307.584 
L 333.1125 307.584 
L 333.1125 305.622249 
L 331.7175 305.622249 
z
" style="fill:#1f77b4;"/>
   </g>
   <g id="patch_102">
    <path clip-path="url(#p6b8cd86db6)" d="M 334.5075 307.584 
L 335.9025 307.584 
L 335.9025 306.071607 
L 334.5075 306.071607 
z
" style="fill:#1f77b4;"/>
   </g>
   <g id="patch_103">
    <path clip-path="url(#p6b8cd86db6)" d="M 337.2975 307.584 
L 338.6925 307.584 
L 338.6925 306.329346 
L 337.2975 306.329346 
z
" style="fill:#1f77b4;"/>
   </g>
   <g id="patch_104">
    <path clip-path="url(#p6b8cd86db6)" d="M 340.0875 307.584 
L 341.4825 307.584 
L 341.4825 305.626246 
L 340.0875 305.626246 
z
" style="fill:#1f77b4;"/>
   </g>
   <g id="patch_105">
    <path clip-path="url(#p6b8cd86db6)" d="M 342.8775 307.584 
L 344.2725 307.584 
L 344.2725 305.662182 
L 342.8775 305.662182 
z
" style="fill:#1f77b4;"/>
   </g>
   <g id="patch_106">
    <path clip-path="url(#p6b8cd86db6)" d="M 345.6675 307.584 
L 347.0625 307.584 
L 347.0625 305.973812 
L 345.6675 305.973812 
z
" style="fill:#1f77b4;"/>
   </g>
   <g id="patch_107">
    <path clip-path="url(#p6b8cd86db6)" d="M 348.4575 307.584 
L 349.8525 307.584 
L 349.8525 305.932965 
L 348.4575 305.932965 
z
" style="fill:#1f77b4;"/>
   </g>
   <g id="patch_108">
    <path clip-path="url(#p6b8cd86db6)" d="M 351.2475 307.584 
L 352.6425 307.584 
L 352.6425 305.350899 
L 351.2475 305.350899 
z
" style="fill:#1f77b4;"/>
   </g>
   <g id="patch_109">
    <path clip-path="url(#p6b8cd86db6)" d="M 354.0375 307.584 
L 355.4325 307.584 
L 355.4325 305.87768 
L 354.0375 305.87768 
z
" style="fill:#1f77b4;"/>
   </g>
   <g id="patch_110">
    <path clip-path="url(#p6b8cd86db6)" d="M 356.8275 307.584 
L 358.2225 307.584 
L 358.2225 306.325687 
L 356.8275 306.325687 
z
" style="fill:#1f77b4;"/>
   </g>
   <g id="patch_111">
    <path clip-path="url(#p6b8cd86db6)" d="M 359.6175 307.584 
L 361.0125 307.584 
L 361.0125 306.230041 
L 359.6175 306.230041 
z
" style="fill:#1f77b4;"/>
   </g>
   <g id="patch_112">
    <path clip-path="url(#p6b8cd86db6)" d="M 362.4075 307.584 
L 363.8025 307.584 
L 363.8025 305.943677 
L 362.4075 305.943677 
z
" style="fill:#1f77b4;"/>
   </g>
   <g id="patch_113">
    <path clip-path="url(#p6b8cd86db6)" d="M 365.1975 307.584 
L 366.5925 307.584 
L 366.5925 305.930626 
L 365.1975 305.930626 
z
" style="fill:#1f77b4;"/>
   </g>
   <g id="patch_114">
    <path clip-path="url(#p6b8cd86db6)" d="M 367.9875 307.584 
L 369.3825 307.584 
L 369.3825 305.677813 
L 367.9875 305.677813 
z
" style="fill:#1f77b4;"/>
   </g>
   <g id="patch_115">
    <path clip-path="url(#p6b8cd86db6)" d="M 370.7775 307.584 
L 372.1725 307.584 
L 372.1725 306.601163 
L 370.7775 306.601163 
z
" style="fill:#1f77b4;"/>
   </g>
   <g id="patch_116">
    <path clip-path="url(#p6b8cd86db6)" d="M 373.5675 307.584 
L 374.9625 307.584 
L 374.9625 305.827143 
L 373.5675 305.827143 
z
" style="fill:#1f77b4;"/>
   </g>
   <g id="patch_117">
    <path clip-path="url(#p6b8cd86db6)" d="M 376.3575 307.584 
L 377.7525 307.584 
L 377.7525 306.286634 
L 376.3575 306.286634 
z
" style="fill:#1f77b4;"/>
   </g>
   <g id="patch_118">
    <path clip-path="url(#p6b8cd86db6)" d="M 379.1475 307.584 
L 380.5425 307.584 
L 380.5425 305.758087 
L 379.1475 305.758087 
z
" style="fill:#1f77b4;"/>
   </g>
   <g id="patch_119">
    <path clip-path="url(#p6b8cd86db6)" d="M 381.9375 307.584 
L 383.3325 307.584 
L 383.3325 306.324587 
L 381.9375 306.324587 
z
" style="fill:#1f77b4;"/>
   </g>
   <g id="patch_120">
    <path clip-path="url(#p6b8cd86db6)" d="M 384.7275 307.584 
L 386.1225 307.584 
L 386.1225 306.184732 
L 384.7275 306.184732 
z
" style="fill:#1f77b4;"/>
   </g>
   <g id="patch_121">
    <path clip-path="url(#p6b8cd86db6)" d="M 387.5175 307.584 
L 388.9125 307.584 
L 388.9125 305.586908 
L 387.5175 305.586908 
z
" style="fill:#1f77b4;"/>
   </g>
   <g id="patch_122">
    <path clip-path="url(#p6b8cd86db6)" d="M 390.3075 307.584 
L 391.7025 307.584 
L 391.7025 305.962754 
L 390.3075 305.962754 
z
" style="fill:#1f77b4;"/>
   </g>
   <g id="patch_123">
    <path clip-path="url(#p6b8cd86db6)" d="M 393.0975 307.584 
L 394.4925 307.584 
L 394.4925 305.911092 
L 393.0975 305.911092 
z
" style="fill:#1f77b4;"/>
   </g>
   <g id="patch_124">
    <path clip-path="url(#p6b8cd86db6)" d="M 395.8875 307.584 
L 397.2825 307.584 
L 397.2825 306.561882 
L 395.8875 306.561882 
z
" style="fill:#1f77b4;"/>
   </g>
   <g id="patch_125">
    <path clip-path="url(#p6b8cd86db6)" d="M 398.6775 307.584 
L 400.0725 307.584 
L 400.0725 305.979815 
L 398.6775 305.979815 
z
" style="fill:#1f77b4;"/>
   </g>
   <g id="patch_126">
    <path clip-path="url(#p6b8cd86db6)" d="M 401.4675 307.584 
L 402.8625 307.584 
L 402.8625 305.636076 
L 401.4675 305.636076 
z
" style="fill:#1f77b4;"/>
   </g>
   <g id="patch_127">
    <path clip-path="url(#p6b8cd86db6)" d="M 404.2575 307.584 
L 405.6525 307.584 
L 405.6525 305.640446 
L 404.2575 305.640446 
z
" style="fill:#1f77b4;"/>
   </g>
   <g id="patch_128">
    <path clip-path="url(#p6b8cd86db6)" d="M 407.0475 307.584 
L 408.4425 307.584 
L 408.4425 305.636622 
L 407.0475 305.636622 
z
" style="fill:#1f77b4;"/>
   </g>
   <g id="patch_129">
    <path clip-path="url(#p6b8cd86db6)" d="M 409.8375 307.584 
L 411.2325 307.584 
L 411.2325 305.555809 
L 409.8375 305.555809 
z
" style="fill:#1f77b4;"/>
   </g>
   <g id="patch_130">
    <path clip-path="url(#p6b8cd86db6)" d="M 412.6275 307.584 
L 414.0225 307.584 
L 414.0225 306.100088 
L 412.6275 306.100088 
z
" style="fill:#1f77b4;"/>
   </g>
   <g id="patch_131">
    <path clip-path="url(#p6b8cd86db6)" d="M 58.2975 305.615179 
L 59.6925 305.615179 
L 59.6925 282.243001 
L 58.2975 282.243001 
z
" style="fill:#ff7f0e;"/>
   </g>
   <g id="patch_132">
    <path clip-path="url(#p6b8cd86db6)" d="M 61.0875 306.644012 
L 62.4825 306.644012 
L 62.4825 297.416631 
L 61.0875 297.416631 
z
" style="fill:#ff7f0e;"/>
   </g>
   <g id="patch_133">
    <path clip-path="url(#p6b8cd86db6)" d="M 63.8775 306.15452 
L 65.2725 306.15452 
L 65.2725 287.631655 
L 63.8775 287.631655 
z
" style="fill:#ff7f0e;"/>
   </g>
   <g id="patch_134">
    <path clip-path="url(#p6b8cd86db6)" d="M 66.6675 306.762521 
L 68.0625 306.762521 
L 68.0625 294.683721 
L 66.6675 294.683721 
z
" style="fill:#ff7f0e;"/>
   </g>
   <g id="patch_135">
    <path clip-path="url(#p6b8cd86db6)" d="M 69.4575 306.039992 
L 70.8525 306.039992 
L 70.8525 276.310968 
L 69.4575 276.310968 
z
" style="fill:#ff7f0e;"/>
   </g>
   <g id="patch_136">
    <path clip-path="url(#p6b8cd86db6)" d="M 72.2475 306.367825 
L 73.6425 306.367825 
L 73.6425 287.984897 
L 72.2475 287.984897 
z
" style="fill:#ff7f0e;"/>
   </g>
   <g id="patch_137">
    <path clip-path="url(#p6b8cd86db6)" d="M 75.0375 306.60781 
L 76.4325 306.60781 
L 76.4325 294.657607 
L 75.0375 294.657607 
z
" style="fill:#ff7f0e;"/>
   </g>
   <g id="patch_138">
    <path clip-path="url(#p6b8cd86db6)" d="M 77.8275 306.211469 
L 79.2225 306.211469 
L 79.2225 275.553753 
L 77.8275 275.553753 
z
" style="fill:#ff7f0e;"/>
   </g>
   <g id="patch_139">
    <path clip-path="url(#p6b8cd86db6)" d="M 80.6175 305.967144 
L 82.0125 305.967144 
L 82.0125 283.409974 
L 80.6175 283.409974 
z
" style="fill:#ff7f0e;"/>
   </g>
   <g id="patch_140">
    <path clip-path="url(#p6b8cd86db6)" d="M 83.4075 306.210445 
L 84.8025 306.210445 
L 84.8025 282.621946 
L 83.4075 282.621946 
z
" style="fill:#ff7f0e;"/>
   </g>
   <g id="patch_141">
    <path clip-path="url(#p6b8cd86db6)" d="M 86.1975 305.95866 
L 87.5925 305.95866 
L 87.5925 277.122421 
L 86.1975 277.122421 
z
" style="fill:#ff7f0e;"/>
   </g>
   <g id="patch_142">
    <path clip-path="url(#p6b8cd86db6)" d="M 88.9875 305.92037 
L 90.3825 305.92037 
L 90.3825 281.826363 
L 88.9875 281.826363 
z
" style="fill:#ff7f0e;"/>
   </g>
   <g id="patch_143">
    <path clip-path="url(#p6b8cd86db6)" d="M 91.7775 306.636226 
L 93.1725 306.636226 
L 93.1725 292.310777 
L 91.7775 292.310777 
z
" style="fill:#ff7f0e;"/>
   </g>
   <g id="patch_144">
    <path clip-path="url(#p6b8cd86db6)" d="M 94.5675 306.05992 
L 95.9625 306.05992 
L 95.9625 278.728955 
L 94.5675 278.728955 
z
" style="fill:#ff7f0e;"/>
   </g>
   <g id="patch_145">
    <path clip-path="url(#p6b8cd86db6)" d="M 97.3575 306.54938 
L 98.7525 306.54938 
L 98.7525 284.356933 
L 97.3575 284.356933 
z
" style="fill:#ff7f0e;"/>
   </g>
   <g id="patch_146">
    <path clip-path="url(#p6b8cd86db6)" d="M 100.1475 305.591485 
L 101.5425 305.591485 
L 101.5425 41.472 
L 100.1475 41.472 
z
" style="fill:#ff7f0e;"/>
   </g>
   <g id="patch_147">
    <path clip-path="url(#p6b8cd86db6)" d="M 102.9375 305.973102 
L 104.3325 305.973102 
L 104.3325 274.116295 
L 102.9375 274.116295 
z
" style="fill:#ff7f0e;"/>
   </g>
   <g id="patch_148">
    <path clip-path="url(#p6b8cd86db6)" d="M 105.7275 305.741468 
L 107.1225 305.741468 
L 107.1225 255.453771 
L 105.7275 255.453771 
z
" style="fill:#ff7f0e;"/>
   </g>
   <g id="patch_149">
    <path clip-path="url(#p6b8cd86db6)" d="M 108.5175 306.410578 
L 109.9125 306.410578 
L 109.9125 290.746462 
L 108.5175 290.746462 
z
" style="fill:#ff7f0e;"/>
   </g>
   <g id="patch_150">
    <path clip-path="url(#p6b8cd86db6)" d="M 111.3075 305.197535 
L 112.7025 305.197535 
L 112.7025 265.165593 
L 111.3075 265.165593 
z
" style="fill:#ff7f0e;"/>
   </g>
   <g id="patch_151">
    <path clip-path="url(#p6b8cd86db6)" d="M 114.0975 306.485975 
L 115.4925 306.485975 
L 115.4925 293.191996 
L 114.0975 293.191996 
z
" style="fill:#ff7f0e;"/>
   </g>
   <g id="patch_152">
    <path clip-path="url(#p6b8cd86db6)" d="M 116.8875 306.115067 
L 118.2825 306.115067 
L 118.2825 286.420851 
L 116.8875 286.420851 
z
" style="fill:#ff7f0e;"/>
   </g>
   <g id="patch_153">
    <path clip-path="url(#p6b8cd86db6)" d="M 119.6775 305.497891 
L 121.0725 305.497891 
L 121.0725 281.875892 
L 119.6775 281.875892 
z
" style="fill:#ff7f0e;"/>
   </g>
   <g id="patch_154">
    <path clip-path="url(#p6b8cd86db6)" d="M 122.4675 305.999764 
L 123.8625 305.999764 
L 123.8625 289.857179 
L 122.4675 289.857179 
z
" style="fill:#ff7f0e;"/>
   </g>
   <g id="patch_155">
    <path clip-path="url(#p6b8cd86db6)" d="M 125.2575 305.385398 
L 126.6525 305.385398 
L 126.6525 267.828075 
L 125.2575 267.828075 
z
" style="fill:#ff7f0e;"/>
   </g>
   <g id="patch_156">
    <path clip-path="url(#p6b8cd86db6)" d="M 128.0475 305.22618 
L 129.4425 305.22618 
L 129.4425 262.832714 
L 128.0475 262.832714 
z
" style="fill:#ff7f0e;"/>
   </g>
   <g id="patch_157">
    <path clip-path="url(#p6b8cd86db6)" d="M 130.8375 306.372989 
L 132.2325 306.372989 
L 132.2325 284.975823 
L 130.8375 284.975823 
z
" style="fill:#ff7f0e;"/>
   </g>
   <g id="patch_158">
    <path clip-path="url(#p6b8cd86db6)" d="M 133.6275 306.00806 
L 135.0225 306.00806 
L 135.0225 284.580808 
L 133.6275 284.580808 
z
" style="fill:#ff7f0e;"/>
   </g>
   <g id="patch_159">
    <path clip-path="url(#p6b8cd86db6)" d="M 136.4175 306.013 
L 137.8125 306.013 
L 137.8125 292.778507 
L 136.4175 292.778507 
z
" style="fill:#ff7f0e;"/>
   </g>
   <g id="patch_160">
    <path clip-path="url(#p6b8cd86db6)" d="M 139.2075 306.235702 
L 140.6025 306.235702 
L 140.6025 287.472349 
L 139.2075 287.472349 
z
" style="fill:#ff7f0e;"/>
   </g>
   <g id="patch_161">
    <path clip-path="url(#p6b8cd86db6)" d="M 141.9975 306.679703 
L 143.3925 306.679703 
L 143.3925 294.403368 
L 141.9975 294.403368 
z
" style="fill:#ff7f0e;"/>
   </g>
   <g id="patch_162">
    <path clip-path="url(#p6b8cd86db6)" d="M 144.7875 305.250857 
L 146.1825 305.250857 
L 146.1825 287.788591 
L 144.7875 287.788591 
z
" style="fill:#ff7f0e;"/>
   </g>
   <g id="patch_163">
    <path clip-path="url(#p6b8cd86db6)" d="M 147.5775 306.064221 
L 148.9725 306.064221 
L 148.9725 274.755096 
L 147.5775 274.755096 
z
" style="fill:#ff7f0e;"/>
   </g>
   <g id="patch_164">
    <path clip-path="url(#p6b8cd86db6)" d="M 150.3675 306.022031 
L 151.7625 306.022031 
L 151.7625 290.437873 
L 150.3675 290.437873 
z
" style="fill:#ff7f0e;"/>
   </g>
   <g id="patch_165">
    <path clip-path="url(#p6b8cd86db6)" d="M 153.1575 306.252386 
L 154.5525 306.252386 
L 154.5525 278.122091 
L 153.1575 278.122091 
z
" style="fill:#ff7f0e;"/>
   </g>
   <g id="patch_166">
    <path clip-path="url(#p6b8cd86db6)" d="M 155.9475 304.662796 
L 157.3425 304.662796 
L 157.3425 245.015428 
L 155.9475 245.015428 
z
" style="fill:#ff7f0e;"/>
   </g>
   <g id="patch_167">
    <path clip-path="url(#p6b8cd86db6)" d="M 158.7375 305.675041 
L 160.1325 305.675041 
L 160.1325 275.151021 
L 158.7375 275.151021 
z
" style="fill:#ff7f0e;"/>
   </g>
   <g id="patch_168">
    <path clip-path="url(#p6b8cd86db6)" d="M 161.5275 305.733008 
L 162.9225 305.733008 
L 162.9225 278.165652 
L 161.5275 278.165652 
z
" style="fill:#ff7f0e;"/>
   </g>
   <g id="patch_169">
    <path clip-path="url(#p6b8cd86db6)" d="M 164.3175 306.549479 
L 165.7125 306.549479 
L 165.7125 294.920105 
L 164.3175 294.920105 
z
" style="fill:#ff7f0e;"/>
   </g>
   <g id="patch_170">
    <path clip-path="url(#p6b8cd86db6)" d="M 167.1075 305.093388 
L 168.5025 305.093388 
L 168.5025 272.138396 
L 167.1075 272.138396 
z
" style="fill:#ff7f0e;"/>
   </g>
   <g id="patch_171">
    <path clip-path="url(#p6b8cd86db6)" d="M 169.8975 305.939102 
L 171.2925 305.939102 
L 171.2925 289.87995 
L 169.8975 289.87995 
z
" style="fill:#ff7f0e;"/>
   </g>
   <g id="patch_172">
    <path clip-path="url(#p6b8cd86db6)" d="M 172.6875 305.59606 
L 174.0825 305.59606 
L 174.0825 273.426731 
L 172.6875 273.426731 
z
" style="fill:#ff7f0e;"/>
   </g>
   <g id="patch_173">
    <path clip-path="url(#p6b8cd86db6)" d="M 175.4775 305.435907 
L 176.8725 305.435907 
L 176.8725 275.189011 
L 175.4775 275.189011 
z
" style="fill:#ff7f0e;"/>
   </g>
   <g id="patch_174">
    <path clip-path="url(#p6b8cd86db6)" d="M 178.2675 306.593165 
L 179.6625 306.593165 
L 179.6625 289.527194 
L 178.2675 289.527194 
z
" style="fill:#ff7f0e;"/>
   </g>
   <g id="patch_175">
    <path clip-path="url(#p6b8cd86db6)" d="M 181.0575 305.661781 
L 182.4525 305.661781 
L 182.4525 278.599508 
L 181.0575 278.599508 
z
" style="fill:#ff7f0e;"/>
   </g>
   <g id="patch_176">
    <path clip-path="url(#p6b8cd86db6)" d="M 183.8475 305.591982 
L 185.2425 305.591982 
L 185.2425 278.893818 
L 183.8475 278.893818 
z
" style="fill:#ff7f0e;"/>
   </g>
   <g id="patch_177">
    <path clip-path="url(#p6b8cd86db6)" d="M 186.6375 305.969825 
L 188.0325 305.969825 
L 188.0325 282.224274 
L 186.6375 282.224274 
z
" style="fill:#ff7f0e;"/>
   </g>
   <g id="patch_178">
    <path clip-path="url(#p6b8cd86db6)" d="M 189.4275 305.819615 
L 190.8225 305.819615 
L 190.8225 285.392122 
L 189.4275 285.392122 
z
" style="fill:#ff7f0e;"/>
   </g>
   <g id="patch_179">
    <path clip-path="url(#p6b8cd86db6)" d="M 192.2175 305.726234 
L 193.6125 305.726234 
L 193.6125 270.560338 
L 192.2175 270.560338 
z
" style="fill:#ff7f0e;"/>
   </g>
   <g id="patch_180">
    <path clip-path="url(#p6b8cd86db6)" d="M 195.0075 305.127039 
L 196.4025 305.127039 
L 196.4025 287.483151 
L 195.0075 287.483151 
z
" style="fill:#ff7f0e;"/>
   </g>
   <g id="patch_181">
    <path clip-path="url(#p6b8cd86db6)" d="M 197.7975 306.566409 
L 199.1925 306.566409 
L 199.1925 290.919014 
L 197.7975 290.919014 
z
" style="fill:#ff7f0e;"/>
   </g>
   <g id="patch_182">
    <path clip-path="url(#p6b8cd86db6)" d="M 200.5875 306.094324 
L 201.9825 306.094324 
L 201.9825 281.48611 
L 200.5875 281.48611 
z
" style="fill:#ff7f0e;"/>
   </g>
   <g id="patch_183">
    <path clip-path="url(#p6b8cd86db6)" d="M 203.3775 305.960451 
L 204.7725 305.960451 
L 204.7725 283.052614 
L 203.3775 283.052614 
z
" style="fill:#ff7f0e;"/>
   </g>
   <g id="patch_184">
    <path clip-path="url(#p6b8cd86db6)" d="M 206.1675 305.85405 
L 207.5625 305.85405 
L 207.5625 283.66174 
L 206.1675 283.66174 
z
" style="fill:#ff7f0e;"/>
   </g>
   <g id="patch_185">
    <path clip-path="url(#p6b8cd86db6)" d="M 208.9575 304.915181 
L 210.3525 304.915181 
L 210.3525 88.798635 
L 208.9575 88.798635 
z
" style="fill:#ff7f0e;"/>
   </g>
   <g id="patch_186">
    <path clip-path="url(#p6b8cd86db6)" d="M 211.7475 305.860724 
L 213.1425 305.860724 
L 213.1425 283.353325 
L 211.7475 283.353325 
z
" style="fill:#ff7f0e;"/>
   </g>
   <g id="patch_187">
    <path clip-path="url(#p6b8cd86db6)" d="M 214.5375 305.891918 
L 215.9325 305.891918 
L 215.9325 277.802825 
L 214.5375 277.802825 
z
" style="fill:#ff7f0e;"/>
   </g>
   <g id="patch_188">
    <path clip-path="url(#p6b8cd86db6)" d="M 217.3275 305.813691 
L 218.7225 305.813691 
L 218.7225 281.522571 
L 217.3275 281.522571 
z
" style="fill:#ff7f0e;"/>
   </g>
   <g id="patch_189">
    <path clip-path="url(#p6b8cd86db6)" d="M 220.1175 305.412503 
L 221.5125 305.412503 
L 221.5125 282.907791 
L 220.1175 282.907791 
z
" style="fill:#ff7f0e;"/>
   </g>
   <g id="patch_190">
    <path clip-path="url(#p6b8cd86db6)" d="M 222.9075 306.347069 
L 224.3025 306.347069 
L 224.3025 272.610149 
L 222.9075 272.610149 
z
" style="fill:#ff7f0e;"/>
   </g>
   <g id="patch_191">
    <path clip-path="url(#p6b8cd86db6)" d="M 225.6975 306.758982 
L 227.0925 306.758982 
L 227.0925 291.126762 
L 225.6975 291.126762 
z
" style="fill:#ff7f0e;"/>
   </g>
   <g id="patch_192">
    <path clip-path="url(#p6b8cd86db6)" d="M 228.4875 306.234849 
L 229.8825 306.234849 
L 229.8825 280.157956 
L 228.4875 280.157956 
z
" style="fill:#ff7f0e;"/>
   </g>
   <g id="patch_193">
    <path clip-path="url(#p6b8cd86db6)" d="M 231.2775 306.468394 
L 232.6725 306.468394 
L 232.6725 287.968423 
L 231.2775 287.968423 
z
" style="fill:#ff7f0e;"/>
   </g>
   <g id="patch_194">
    <path clip-path="url(#p6b8cd86db6)" d="M 234.0675 305.489963 
L 235.4625 305.489963 
L 235.4625 264.285301 
L 234.0675 264.285301 
z
" style="fill:#ff7f0e;"/>
   </g>
   <g id="patch_195">
    <path clip-path="url(#p6b8cd86db6)" d="M 236.8575 305.823685 
L 238.2525 305.823685 
L 238.2525 266.297099 
L 236.8575 266.297099 
z
" style="fill:#ff7f0e;"/>
   </g>
   <g id="patch_196">
    <path clip-path="url(#p6b8cd86db6)" d="M 239.6475 306.962012 
L 241.0425 306.962012 
L 241.0425 291.741268 
L 239.6475 291.741268 
z
" style="fill:#ff7f0e;"/>
   </g>
   <g id="patch_197">
    <path clip-path="url(#p6b8cd86db6)" d="M 242.4375 305.291632 
L 243.8325 305.291632 
L 243.8325 265.530112 
L 242.4375 265.530112 
z
" style="fill:#ff7f0e;"/>
   </g>
   <g id="patch_198">
    <path clip-path="url(#p6b8cd86db6)" d="M 245.2275 306.471062 
L 246.6225 306.471062 
L 246.6225 281.22961 
L 245.2275 281.22961 
z
" style="fill:#ff7f0e;"/>
   </g>
   <g id="patch_199">
    <path clip-path="url(#p6b8cd86db6)" d="M 248.0175 306.506019 
L 249.4125 306.506019 
L 249.4125 286.731048 
L 248.0175 286.731048 
z
" style="fill:#ff7f0e;"/>
   </g>
   <g id="patch_200">
    <path clip-path="url(#p6b8cd86db6)" d="M 250.8075 305.80732 
L 252.2025 305.80732 
L 252.2025 281.209385 
L 250.8075 281.209385 
z
" style="fill:#ff7f0e;"/>
   </g>
   <g id="patch_201">
    <path clip-path="url(#p6b8cd86db6)" d="M 253.5975 305.842577 
L 254.9925 305.842577 
L 254.9925 274.998568 
L 253.5975 274.998568 
z
" style="fill:#ff7f0e;"/>
   </g>
   <g id="patch_202">
    <path clip-path="url(#p6b8cd86db6)" d="M 256.3875 306.383715 
L 257.7825 306.383715 
L 257.7825 296.817822 
L 256.3875 296.817822 
z
" style="fill:#ff7f0e;"/>
   </g>
   <g id="patch_203">
    <path clip-path="url(#p6b8cd86db6)" d="M 259.1775 305.743111 
L 260.5725 305.743111 
L 260.5725 277.535147 
L 259.1775 277.535147 
z
" style="fill:#ff7f0e;"/>
   </g>
   <g id="patch_204">
    <path clip-path="url(#p6b8cd86db6)" d="M 261.9675 306.750364 
L 263.3625 306.750364 
L 263.3625 291.436917 
L 261.9675 291.436917 
z
" style="fill:#ff7f0e;"/>
   </g>
   <g id="patch_205">
    <path clip-path="url(#p6b8cd86db6)" d="M 264.7575 306.702242 
L 266.1525 306.702242 
L 266.1525 289.548463 
L 264.7575 289.548463 
z
" style="fill:#ff7f0e;"/>
   </g>
   <g id="patch_206">
    <path clip-path="url(#p6b8cd86db6)" d="M 267.5475 305.863738 
L 268.9425 305.863738 
L 268.9425 284.835707 
L 267.5475 284.835707 
z
" style="fill:#ff7f0e;"/>
   </g>
   <g id="patch_207">
    <path clip-path="url(#p6b8cd86db6)" d="M 270.3375 305.763013 
L 271.7325 305.763013 
L 271.7325 286.122545 
L 270.3375 286.122545 
z
" style="fill:#ff7f0e;"/>
   </g>
   <g id="patch_208">
    <path clip-path="url(#p6b8cd86db6)" d="M 273.1275 306.517106 
L 274.5225 306.517106 
L 274.5225 290.963794 
L 273.1275 290.963794 
z
" style="fill:#ff7f0e;"/>
   </g>
   <g id="patch_209">
    <path clip-path="url(#p6b8cd86db6)" d="M 275.9175 306.860267 
L 277.3125 306.860267 
L 277.3125 294.296749 
L 275.9175 294.296749 
z
" style="fill:#ff7f0e;"/>
   </g>
   <g id="patch_210">
    <path clip-path="url(#p6b8cd86db6)" d="M 278.7075 305.572265 
L 280.1025 305.572265 
L 280.1025 275.225402 
L 278.7075 275.225402 
z
" style="fill:#ff7f0e;"/>
   </g>
   <g id="patch_211">
    <path clip-path="url(#p6b8cd86db6)" d="M 281.4975 305.421973 
L 282.8925 305.421973 
L 282.8925 277.702321 
L 281.4975 277.702321 
z
" style="fill:#ff7f0e;"/>
   </g>
   <g id="patch_212">
    <path clip-path="url(#p6b8cd86db6)" d="M 284.2875 306.20469 
L 285.6825 306.20469 
L 285.6825 280.917602 
L 284.2875 280.917602 
z
" style="fill:#ff7f0e;"/>
   </g>
   <g id="patch_213">
    <path clip-path="url(#p6b8cd86db6)" d="M 287.0775 306.247201 
L 288.4725 306.247201 
L 288.4725 284.763166 
L 287.0775 284.763166 
z
" style="fill:#ff7f0e;"/>
   </g>
   <g id="patch_214">
    <path clip-path="url(#p6b8cd86db6)" d="M 289.8675 305.738816 
L 291.2625 305.738816 
L 291.2625 271.63372 
L 289.8675 271.63372 
z
" style="fill:#ff7f0e;"/>
   </g>
   <g id="patch_215">
    <path clip-path="url(#p6b8cd86db6)" d="M 292.6575 306.641037 
L 294.0525 306.641037 
L 294.0525 289.064534 
L 292.6575 289.064534 
z
" style="fill:#ff7f0e;"/>
   </g>
   <g id="patch_216">
    <path clip-path="url(#p6b8cd86db6)" d="M 295.4475 306.818208 
L 296.8425 306.818208 
L 296.8425 293.256686 
L 295.4475 293.256686 
z
" style="fill:#ff7f0e;"/>
   </g>
   <g id="patch_217">
    <path clip-path="url(#p6b8cd86db6)" d="M 298.2375 305.968303 
L 299.6325 305.968303 
L 299.6325 283.305442 
L 298.2375 283.305442 
z
" style="fill:#ff7f0e;"/>
   </g>
   <g id="patch_218">
    <path clip-path="url(#p6b8cd86db6)" d="M 301.0275 306.239343 
L 302.4225 306.239343 
L 302.4225 283.111836 
L 301.0275 283.111836 
z
" style="fill:#ff7f0e;"/>
   </g>
   <g id="patch_219">
    <path clip-path="url(#p6b8cd86db6)" d="M 303.8175 306.282534 
L 305.2125 306.282534 
L 305.2125 282.363856 
L 303.8175 282.363856 
z
" style="fill:#ff7f0e;"/>
   </g>
   <g id="patch_220">
    <path clip-path="url(#p6b8cd86db6)" d="M 306.6075 306.349451 
L 308.0025 306.349451 
L 308.0025 290.568014 
L 306.6075 290.568014 
z
" style="fill:#ff7f0e;"/>
   </g>
   <g id="patch_221">
    <path clip-path="url(#p6b8cd86db6)" d="M 309.3975 306.650719 
L 310.7925 306.650719 
L 310.7925 291.478726 
L 309.3975 291.478726 
z
" style="fill:#ff7f0e;"/>
   </g>
   <g id="patch_222">
    <path clip-path="url(#p6b8cd86db6)" d="M 312.1875 305.540607 
L 313.5825 305.540607 
L 313.5825 260.403419 
L 312.1875 260.403419 
z
" style="fill:#ff7f0e;"/>
   </g>
   <g id="patch_223">
    <path clip-path="url(#p6b8cd86db6)" d="M 314.9775 306.690282 
L 316.3725 306.690282 
L 316.3725 290.280284 
L 314.9775 290.280284 
z
" style="fill:#ff7f0e;"/>
   </g>
   <g id="patch_224">
    <path clip-path="url(#p6b8cd86db6)" d="M 317.7675 305.972013 
L 319.1625 305.972013 
L 319.1625 286.956343 
L 317.7675 286.956343 
z
" style="fill:#ff7f0e;"/>
   </g>
   <g id="patch_225">
    <path clip-path="url(#p6b8cd86db6)" d="M 320.5575 305.832482 
L 321.9525 305.832482 
L 321.9525 275.119153 
L 320.5575 275.119153 
z
" style="fill:#ff7f0e;"/>
   </g>
   <g id="patch_226">
    <path clip-path="url(#p6b8cd86db6)" d="M 323.3475 306.492246 
L 324.7425 306.492246 
L 324.7425 286.587224 
L 323.3475 286.587224 
z
" style="fill:#ff7f0e;"/>
   </g>
   <g id="patch_227">
    <path clip-path="url(#p6b8cd86db6)" d="M 326.1375 305.557535 
L 327.5325 305.557535 
L 327.5325 276.452362 
L 326.1375 276.452362 
z
" style="fill:#ff7f0e;"/>
   </g>
   <g id="patch_228">
    <path clip-path="url(#p6b8cd86db6)" d="M 328.9275 305.526249 
L 330.3225 305.526249 
L 330.3225 272.344284 
L 328.9275 272.344284 
z
" style="fill:#ff7f0e;"/>
   </g>
   <g id="patch_229">
    <path clip-path="url(#p6b8cd86db6)" d="M 331.7175 305.622249 
L 333.1125 305.622249 
L 333.1125 276.409608 
L 331.7175 276.409608 
z
" style="fill:#ff7f0e;"/>
   </g>
   <g id="patch_230">
    <path clip-path="url(#p6b8cd86db6)" d="M 334.5075 306.071607 
L 335.9025 306.071607 
L 335.9025 283.447749 
L 334.5075 283.447749 
z
" style="fill:#ff7f0e;"/>
   </g>
   <g id="patch_231">
    <path clip-path="url(#p6b8cd86db6)" d="M 337.2975 306.329346 
L 338.6925 306.329346 
L 338.6925 281.505725 
L 337.2975 281.505725 
z
" style="fill:#ff7f0e;"/>
   </g>
   <g id="patch_232">
    <path clip-path="url(#p6b8cd86db6)" d="M 340.0875 305.626246 
L 341.4825 305.626246 
L 341.4825 274.455742 
L 340.0875 274.455742 
z
" style="fill:#ff7f0e;"/>
   </g>
   <g id="patch_233">
    <path clip-path="url(#p6b8cd86db6)" d="M 342.8775 305.662182 
L 344.2725 305.662182 
L 344.2725 173.482081 
L 342.8775 173.482081 
z
" style="fill:#ff7f0e;"/>
   </g>
   <g id="patch_234">
    <path clip-path="url(#p6b8cd86db6)" d="M 345.6675 305.973812 
L 347.0625 305.973812 
L 347.0625 282.178575 
L 345.6675 282.178575 
z
" style="fill:#ff7f0e;"/>
   </g>
   <g id="patch_235">
    <path clip-path="url(#p6b8cd86db6)" d="M 348.4575 305.932965 
L 349.8525 305.932965 
L 349.8525 288.932094 
L 348.4575 288.932094 
z
" style="fill:#ff7f0e;"/>
   </g>
   <g id="patch_236">
    <path clip-path="url(#p6b8cd86db6)" d="M 351.2475 305.350899 
L 352.6425 305.350899 
L 352.6425 278.151337 
L 351.2475 278.151337 
z
" style="fill:#ff7f0e;"/>
   </g>
   <g id="patch_237">
    <path clip-path="url(#p6b8cd86db6)" d="M 354.0375 305.87768 
L 355.4325 305.87768 
L 355.4325 281.492659 
L 354.0375 281.492659 
z
" style="fill:#ff7f0e;"/>
   </g>
   <g id="patch_238">
    <path clip-path="url(#p6b8cd86db6)" d="M 356.8275 306.325687 
L 358.2225 306.325687 
L 358.2225 290.9838 
L 356.8275 290.9838 
z
" style="fill:#ff7f0e;"/>
   </g>
   <g id="patch_239">
    <path clip-path="url(#p6b8cd86db6)" d="M 359.6175 306.230041 
L 361.0125 306.230041 
L 361.0125 282.588633 
L 359.6175 282.588633 
z
" style="fill:#ff7f0e;"/>
   </g>
   <g id="patch_240">
    <path clip-path="url(#p6b8cd86db6)" d="M 362.4075 305.943677 
L 363.8025 305.943677 
L 363.8025 271.293574 
L 362.4075 271.293574 
z
" style="fill:#ff7f0e;"/>
   </g>
   <g id="patch_241">
    <path clip-path="url(#p6b8cd86db6)" d="M 365.1975 305.930626 
L 366.5925 305.930626 
L 366.5925 276.846039 
L 365.1975 276.846039 
z
" style="fill:#ff7f0e;"/>
   </g>
   <g id="patch_242">
    <path clip-path="url(#p6b8cd86db6)" d="M 367.9875 305.677813 
L 369.3825 305.677813 
L 369.3825 272.435282 
L 367.9875 272.435282 
z
" style="fill:#ff7f0e;"/>
   </g>
   <g id="patch_243">
    <path clip-path="url(#p6b8cd86db6)" d="M 370.7775 306.601163 
L 372.1725 306.601163 
L 372.1725 286.56149 
L 370.7775 286.56149 
z
" style="fill:#ff7f0e;"/>
   </g>
   <g id="patch_244">
    <path clip-path="url(#p6b8cd86db6)" d="M 373.5675 305.827143 
L 374.9625 305.827143 
L 374.9625 281.560492 
L 373.5675 281.560492 
z
" style="fill:#ff7f0e;"/>
   </g>
   <g id="patch_245">
    <path clip-path="url(#p6b8cd86db6)" d="M 376.3575 306.286634 
L 377.7525 306.286634 
L 377.7525 292.876036 
L 376.3575 292.876036 
z
" style="fill:#ff7f0e;"/>
   </g>
   <g id="patch_246">
    <path clip-path="url(#p6b8cd86db6)" d="M 379.1475 305.758087 
L 380.5425 305.758087 
L 380.5425 280.481462 
L 379.1475 280.481462 
z
" style="fill:#ff7f0e;"/>
   </g>
   <g id="patch_247">
    <path clip-path="url(#p6b8cd86db6)" d="M 381.9375 306.324587 
L 383.3325 306.324587 
L 383.3325 291.734292 
L 381.9375 291.734292 
z
" style="fill:#ff7f0e;"/>
   </g>
   <g id="patch_248">
    <path clip-path="url(#p6b8cd86db6)" d="M 384.7275 306.184732 
L 386.1225 306.184732 
L 386.1225 292.28262 
L 384.7275 292.28262 
z
" style="fill:#ff7f0e;"/>
   </g>
   <g id="patch_249">
    <path clip-path="url(#p6b8cd86db6)" d="M 387.5175 305.586908 
L 388.9125 305.586908 
L 388.9125 282.097213 
L 387.5175 282.097213 
z
" style="fill:#ff7f0e;"/>
   </g>
   <g id="patch_250">
    <path clip-path="url(#p6b8cd86db6)" d="M 390.3075 305.962754 
L 391.7025 305.962754 
L 391.7025 291.113667 
L 390.3075 291.113667 
z
" style="fill:#ff7f0e;"/>
   </g>
   <g id="patch_251">
    <path clip-path="url(#p6b8cd86db6)" d="M 393.0975 305.911092 
L 394.4925 305.911092 
L 394.4925 274.775326 
L 393.0975 274.775326 
z
" style="fill:#ff7f0e;"/>
   </g>
   <g id="patch_252">
    <path clip-path="url(#p6b8cd86db6)" d="M 395.8875 306.561882 
L 397.2825 306.561882 
L 397.2825 291.186004 
L 395.8875 291.186004 
z
" style="fill:#ff7f0e;"/>
   </g>
   <g id="patch_253">
    <path clip-path="url(#p6b8cd86db6)" d="M 398.6775 305.979815 
L 400.0725 305.979815 
L 400.0725 276.036839 
L 398.6775 276.036839 
z
" style="fill:#ff7f0e;"/>
   </g>
   <g id="patch_254">
    <path clip-path="url(#p6b8cd86db6)" d="M 401.4675 305.636076 
L 402.8625 305.636076 
L 402.8625 287.485968 
L 401.4675 287.485968 
z
" style="fill:#ff7f0e;"/>
   </g>
   <g id="patch_255">
    <path clip-path="url(#p6b8cd86db6)" d="M 404.2575 305.640446 
L 405.6525 305.640446 
L 405.6525 288.688949 
L 404.2575 288.688949 
z
" style="fill:#ff7f0e;"/>
   </g>
   <g id="patch_256">
    <path clip-path="url(#p6b8cd86db6)" d="M 407.0475 305.636622 
L 408.4425 305.636622 
L 408.4425 277.367905 
L 407.0475 277.367905 
z
" style="fill:#ff7f0e;"/>
   </g>
   <g id="patch_257">
    <path clip-path="url(#p6b8cd86db6)" d="M 409.8375 305.555809 
L 411.2325 305.555809 
L 411.2325 78.193006 
L 409.8375 78.193006 
z
" style="fill:#ff7f0e;"/>
   </g>
   <g id="patch_258">
    <path clip-path="url(#p6b8cd86db6)" d="M 412.6275 306.100088 
L 414.0225 306.100088 
L 414.0225 293.831038 
L 412.6275 293.831038 
z
" style="fill:#ff7f0e;"/>
   </g>
   <g id="matplotlib.axis_1">
    <g id="xtick_1">
     <g id="line2d_1">
      <defs>
       <path d="M 0 0 
L 0 3.5 
" id="m2abe7c4113" style="stroke:#000000;stroke-width:0.8;"/>
      </defs>
      <g>
       <use style="stroke:#000000;stroke-width:0.8;" x="58.995" xlink:href="#m2abe7c4113" y="307.584"/>
      </g>
     </g>
     <g id="text_1">
      <!-- 0 -->
      <g transform="translate(61.754375 320.9465)rotate(-90)scale(0.1 -0.1)">
       <defs>
        <path d="M 2034 4250 
Q 1547 4250 1301 3770 
Q 1056 3291 1056 2328 
Q 1056 1369 1301 889 
Q 1547 409 2034 409 
Q 2525 409 2770 889 
Q 3016 1369 3016 2328 
Q 3016 3291 2770 3770 
Q 2525 4250 2034 4250 
z
M 2034 4750 
Q 2819 4750 3233 4129 
Q 3647 3509 3647 2328 
Q 3647 1150 3233 529 
Q 2819 -91 2034 -91 
Q 1250 -91 836 529 
Q 422 1150 422 2328 
Q 422 3509 836 4129 
Q 1250 4750 2034 4750 
z
" id="DejaVuSans-30" transform="scale(0.015625)"/>
       </defs>
       <use xlink:href="#DejaVuSans-30"/>
      </g>
     </g>
    </g>
    <g id="xtick_2">
     <g id="line2d_2">
      <g>
       <use style="stroke:#000000;stroke-width:0.8;" x="237.555" xlink:href="#m2abe7c4113" y="307.584"/>
      </g>
     </g>
     <g id="text_2">
      <!-- 64 -->
      <g transform="translate(240.314375 327.309)rotate(-90)scale(0.1 -0.1)">
       <defs>
        <path d="M 2113 2584 
Q 1688 2584 1439 2293 
Q 1191 2003 1191 1497 
Q 1191 994 1439 701 
Q 1688 409 2113 409 
Q 2538 409 2786 701 
Q 3034 994 3034 1497 
Q 3034 2003 2786 2293 
Q 2538 2584 2113 2584 
z
M 3366 4563 
L 3366 3988 
Q 3128 4100 2886 4159 
Q 2644 4219 2406 4219 
Q 1781 4219 1451 3797 
Q 1122 3375 1075 2522 
Q 1259 2794 1537 2939 
Q 1816 3084 2150 3084 
Q 2853 3084 3261 2657 
Q 3669 2231 3669 1497 
Q 3669 778 3244 343 
Q 2819 -91 2113 -91 
Q 1303 -91 875 529 
Q 447 1150 447 2328 
Q 447 3434 972 4092 
Q 1497 4750 2381 4750 
Q 2619 4750 2861 4703 
Q 3103 4656 3366 4563 
z
" id="DejaVuSans-36" transform="scale(0.015625)"/>
        <path d="M 2419 4116 
L 825 1625 
L 2419 1625 
L 2419 4116 
z
M 2253 4666 
L 3047 4666 
L 3047 1625 
L 3713 1625 
L 3713 1100 
L 3047 1100 
L 3047 0 
L 2419 0 
L 2419 1100 
L 313 1100 
L 313 1709 
L 2253 4666 
z
" id="DejaVuSans-34" transform="scale(0.015625)"/>
       </defs>
       <use xlink:href="#DejaVuSans-36"/>
       <use x="63.623047" xlink:href="#DejaVuSans-34"/>
      </g>
     </g>
    </g>
    <g id="text_3">
     <!-- domain -->
     <g transform="translate(217.434219 338.907437)scale(0.1 -0.1)">
      <defs>
       <path d="M 2906 2969 
L 2906 4863 
L 3481 4863 
L 3481 0 
L 2906 0 
L 2906 525 
Q 2725 213 2448 61 
Q 2172 -91 1784 -91 
Q 1150 -91 751 415 
Q 353 922 353 1747 
Q 353 2572 751 3078 
Q 1150 3584 1784 3584 
Q 2172 3584 2448 3432 
Q 2725 3281 2906 2969 
z
M 947 1747 
Q 947 1113 1208 752 
Q 1469 391 1925 391 
Q 2381 391 2643 752 
Q 2906 1113 2906 1747 
Q 2906 2381 2643 2742 
Q 2381 3103 1925 3103 
Q 1469 3103 1208 2742 
Q 947 2381 947 1747 
z
" id="DejaVuSans-64" transform="scale(0.015625)"/>
       <path d="M 1959 3097 
Q 1497 3097 1228 2736 
Q 959 2375 959 1747 
Q 959 1119 1226 758 
Q 1494 397 1959 397 
Q 2419 397 2687 759 
Q 2956 1122 2956 1747 
Q 2956 2369 2687 2733 
Q 2419 3097 1959 3097 
z
M 1959 3584 
Q 2709 3584 3137 3096 
Q 3566 2609 3566 1747 
Q 3566 888 3137 398 
Q 2709 -91 1959 -91 
Q 1206 -91 779 398 
Q 353 888 353 1747 
Q 353 2609 779 3096 
Q 1206 3584 1959 3584 
z
" id="DejaVuSans-6f" transform="scale(0.015625)"/>
       <path d="M 3328 2828 
Q 3544 3216 3844 3400 
Q 4144 3584 4550 3584 
Q 5097 3584 5394 3201 
Q 5691 2819 5691 2113 
L 5691 0 
L 5113 0 
L 5113 2094 
Q 5113 2597 4934 2840 
Q 4756 3084 4391 3084 
Q 3944 3084 3684 2787 
Q 3425 2491 3425 1978 
L 3425 0 
L 2847 0 
L 2847 2094 
Q 2847 2600 2669 2842 
Q 2491 3084 2119 3084 
Q 1678 3084 1418 2786 
Q 1159 2488 1159 1978 
L 1159 0 
L 581 0 
L 581 3500 
L 1159 3500 
L 1159 2956 
Q 1356 3278 1631 3431 
Q 1906 3584 2284 3584 
Q 2666 3584 2933 3390 
Q 3200 3197 3328 2828 
z
" id="DejaVuSans-6d" transform="scale(0.015625)"/>
       <path d="M 2194 1759 
Q 1497 1759 1228 1600 
Q 959 1441 959 1056 
Q 959 750 1161 570 
Q 1363 391 1709 391 
Q 2188 391 2477 730 
Q 2766 1069 2766 1631 
L 2766 1759 
L 2194 1759 
z
M 3341 1997 
L 3341 0 
L 2766 0 
L 2766 531 
Q 2569 213 2275 61 
Q 1981 -91 1556 -91 
Q 1019 -91 701 211 
Q 384 513 384 1019 
Q 384 1609 779 1909 
Q 1175 2209 1959 2209 
L 2766 2209 
L 2766 2266 
Q 2766 2663 2505 2880 
Q 2244 3097 1772 3097 
Q 1472 3097 1187 3025 
Q 903 2953 641 2809 
L 641 3341 
Q 956 3463 1253 3523 
Q 1550 3584 1831 3584 
Q 2591 3584 2966 3190 
Q 3341 2797 3341 1997 
z
" id="DejaVuSans-61" transform="scale(0.015625)"/>
       <path d="M 603 3500 
L 1178 3500 
L 1178 0 
L 603 0 
L 603 3500 
z
M 603 4863 
L 1178 4863 
L 1178 4134 
L 603 4134 
L 603 4863 
z
" id="DejaVuSans-69" transform="scale(0.015625)"/>
       <path d="M 3513 2113 
L 3513 0 
L 2938 0 
L 2938 2094 
Q 2938 2591 2744 2837 
Q 2550 3084 2163 3084 
Q 1697 3084 1428 2787 
Q 1159 2491 1159 1978 
L 1159 0 
L 581 0 
L 581 3500 
L 1159 3500 
L 1159 2956 
Q 1366 3272 1645 3428 
Q 1925 3584 2291 3584 
Q 2894 3584 3203 3211 
Q 3513 2838 3513 2113 
z
" id="DejaVuSans-6e" transform="scale(0.015625)"/>
      </defs>
      <use xlink:href="#DejaVuSans-64"/>
      <use x="63.476562" xlink:href="#DejaVuSans-6f"/>
      <use x="124.658203" xlink:href="#DejaVuSans-6d"/>
      <use x="222.070312" xlink:href="#DejaVuSans-61"/>
      <use x="283.349609" xlink:href="#DejaVuSans-69"/>
      <use x="311.132812" xlink:href="#DejaVuSans-6e"/>
     </g>
    </g>
   </g>
   <g id="matplotlib.axis_2">
    <g id="ytick_1">
     <g id="line2d_3">
      <defs>
       <path d="M 0 0 
L -3.5 0 
" id="m51cca461cb" style="stroke:#000000;stroke-width:0.8;"/>
      </defs>
      <g>
       <use style="stroke:#000000;stroke-width:0.8;" x="57.6" xlink:href="#m51cca461cb" y="307.584"/>
      </g>
     </g>
     <g id="text_4">
      <!-- 0.0 -->
      <g transform="translate(34.696875 311.383219)scale(0.1 -0.1)">
       <defs>
        <path d="M 684 794 
L 1344 794 
L 1344 0 
L 684 0 
L 684 794 
z
" id="DejaVuSans-2e" transform="scale(0.015625)"/>
       </defs>
       <use xlink:href="#DejaVuSans-30"/>
       <use x="63.623047" xlink:href="#DejaVuSans-2e"/>
       <use x="95.410156" xlink:href="#DejaVuSans-30"/>
      </g>
     </g>
    </g>
    <g id="ytick_2">
     <g id="line2d_4">
      <g>
       <use style="stroke:#000000;stroke-width:0.8;" x="57.6" xlink:href="#m51cca461cb" y="276.679677"/>
      </g>
     </g>
     <g id="text_5">
      <!-- 0.2 -->
      <g transform="translate(34.696875 280.478896)scale(0.1 -0.1)">
       <defs>
        <path d="M 1228 531 
L 3431 531 
L 3431 0 
L 469 0 
L 469 531 
Q 828 903 1448 1529 
Q 2069 2156 2228 2338 
Q 2531 2678 2651 2914 
Q 2772 3150 2772 3378 
Q 2772 3750 2511 3984 
Q 2250 4219 1831 4219 
Q 1534 4219 1204 4116 
Q 875 4013 500 3803 
L 500 4441 
Q 881 4594 1212 4672 
Q 1544 4750 1819 4750 
Q 2544 4750 2975 4387 
Q 3406 4025 3406 3419 
Q 3406 3131 3298 2873 
Q 3191 2616 2906 2266 
Q 2828 2175 2409 1742 
Q 1991 1309 1228 531 
z
" id="DejaVuSans-32" transform="scale(0.015625)"/>
       </defs>
       <use xlink:href="#DejaVuSans-30"/>
       <use x="63.623047" xlink:href="#DejaVuSans-2e"/>
       <use x="95.410156" xlink:href="#DejaVuSans-32"/>
      </g>
     </g>
    </g>
    <g id="ytick_3">
     <g id="line2d_5">
      <g>
       <use style="stroke:#000000;stroke-width:0.8;" x="57.6" xlink:href="#m51cca461cb" y="245.775355"/>
      </g>
     </g>
     <g id="text_6">
      <!-- 0.4 -->
      <g transform="translate(34.696875 249.574574)scale(0.1 -0.1)">
       <use xlink:href="#DejaVuSans-30"/>
       <use x="63.623047" xlink:href="#DejaVuSans-2e"/>
       <use x="95.410156" xlink:href="#DejaVuSans-34"/>
      </g>
     </g>
    </g>
    <g id="ytick_4">
     <g id="line2d_6">
      <g>
       <use style="stroke:#000000;stroke-width:0.8;" x="57.6" xlink:href="#m51cca461cb" y="214.871032"/>
      </g>
     </g>
     <g id="text_7">
      <!-- 0.6 -->
      <g transform="translate(34.696875 218.670251)scale(0.1 -0.1)">
       <use xlink:href="#DejaVuSans-30"/>
       <use x="63.623047" xlink:href="#DejaVuSans-2e"/>
       <use x="95.410156" xlink:href="#DejaVuSans-36"/>
      </g>
     </g>
    </g>
    <g id="ytick_5">
     <g id="line2d_7">
      <g>
       <use style="stroke:#000000;stroke-width:0.8;" x="57.6" xlink:href="#m51cca461cb" y="183.96671"/>
      </g>
     </g>
     <g id="text_8">
      <!-- 0.8 -->
      <g transform="translate(34.696875 187.765928)scale(0.1 -0.1)">
       <defs>
        <path d="M 2034 2216 
Q 1584 2216 1326 1975 
Q 1069 1734 1069 1313 
Q 1069 891 1326 650 
Q 1584 409 2034 409 
Q 2484 409 2743 651 
Q 3003 894 3003 1313 
Q 3003 1734 2745 1975 
Q 2488 2216 2034 2216 
z
M 1403 2484 
Q 997 2584 770 2862 
Q 544 3141 544 3541 
Q 544 4100 942 4425 
Q 1341 4750 2034 4750 
Q 2731 4750 3128 4425 
Q 3525 4100 3525 3541 
Q 3525 3141 3298 2862 
Q 3072 2584 2669 2484 
Q 3125 2378 3379 2068 
Q 3634 1759 3634 1313 
Q 3634 634 3220 271 
Q 2806 -91 2034 -91 
Q 1263 -91 848 271 
Q 434 634 434 1313 
Q 434 1759 690 2068 
Q 947 2378 1403 2484 
z
M 1172 3481 
Q 1172 3119 1398 2916 
Q 1625 2713 2034 2713 
Q 2441 2713 2670 2916 
Q 2900 3119 2900 3481 
Q 2900 3844 2670 4047 
Q 2441 4250 2034 4250 
Q 1625 4250 1398 4047 
Q 1172 3844 1172 3481 
z
" id="DejaVuSans-38" transform="scale(0.015625)"/>
       </defs>
       <use xlink:href="#DejaVuSans-30"/>
       <use x="63.623047" xlink:href="#DejaVuSans-2e"/>
       <use x="95.410156" xlink:href="#DejaVuSans-38"/>
      </g>
     </g>
    </g>
    <g id="ytick_6">
     <g id="line2d_8">
      <g>
       <use style="stroke:#000000;stroke-width:0.8;" x="57.6" xlink:href="#m51cca461cb" y="153.062387"/>
      </g>
     </g>
     <g id="text_9">
      <!-- 1.0 -->
      <g transform="translate(34.696875 156.861606)scale(0.1 -0.1)">
       <defs>
        <path d="M 794 531 
L 1825 531 
L 1825 4091 
L 703 3866 
L 703 4441 
L 1819 4666 
L 2450 4666 
L 2450 531 
L 3481 531 
L 3481 0 
L 794 0 
L 794 531 
z
" id="DejaVuSans-31" transform="scale(0.015625)"/>
       </defs>
       <use xlink:href="#DejaVuSans-31"/>
       <use x="63.623047" xlink:href="#DejaVuSans-2e"/>
       <use x="95.410156" xlink:href="#DejaVuSans-30"/>
      </g>
     </g>
    </g>
    <g id="ytick_7">
     <g id="line2d_9">
      <g>
       <use style="stroke:#000000;stroke-width:0.8;" x="57.6" xlink:href="#m51cca461cb" y="122.158065"/>
      </g>
     </g>
     <g id="text_10">
      <!-- 1.2 -->
      <g transform="translate(34.696875 125.957283)scale(0.1 -0.1)">
       <use xlink:href="#DejaVuSans-31"/>
       <use x="63.623047" xlink:href="#DejaVuSans-2e"/>
       <use x="95.410156" xlink:href="#DejaVuSans-32"/>
      </g>
     </g>
    </g>
    <g id="ytick_8">
     <g id="line2d_10">
      <g>
       <use style="stroke:#000000;stroke-width:0.8;" x="57.6" xlink:href="#m51cca461cb" y="91.253742"/>
      </g>
     </g>
     <g id="text_11">
      <!-- 1.4 -->
      <g transform="translate(34.696875 95.052961)scale(0.1 -0.1)">
       <use xlink:href="#DejaVuSans-31"/>
       <use x="63.623047" xlink:href="#DejaVuSans-2e"/>
       <use x="95.410156" xlink:href="#DejaVuSans-34"/>
      </g>
     </g>
    </g>
    <g id="ytick_9">
     <g id="line2d_11">
      <g>
       <use style="stroke:#000000;stroke-width:0.8;" x="57.6" xlink:href="#m51cca461cb" y="60.349419"/>
      </g>
     </g>
     <g id="text_12">
      <!-- 1.6 -->
      <g transform="translate(34.696875 64.148638)scale(0.1 -0.1)">
       <use xlink:href="#DejaVuSans-31"/>
       <use x="63.623047" xlink:href="#DejaVuSans-2e"/>
       <use x="95.410156" xlink:href="#DejaVuSans-36"/>
      </g>
     </g>
    </g>
    <g id="text_13">
     <!-- Total Bytes sent to Domain -->
     <g transform="translate(28.617187 241.823312)rotate(-90)scale(0.1 -0.1)">
      <defs>
       <path d="M -19 4666 
L 3928 4666 
L 3928 4134 
L 2272 4134 
L 2272 0 
L 1638 0 
L 1638 4134 
L -19 4134 
L -19 4666 
z
" id="DejaVuSans-54" transform="scale(0.015625)"/>
       <path d="M 1172 4494 
L 1172 3500 
L 2356 3500 
L 2356 3053 
L 1172 3053 
L 1172 1153 
Q 1172 725 1289 603 
Q 1406 481 1766 481 
L 2356 481 
L 2356 0 
L 1766 0 
Q 1100 0 847 248 
Q 594 497 594 1153 
L 594 3053 
L 172 3053 
L 172 3500 
L 594 3500 
L 594 4494 
L 1172 4494 
z
" id="DejaVuSans-74" transform="scale(0.015625)"/>
       <path d="M 603 4863 
L 1178 4863 
L 1178 0 
L 603 0 
L 603 4863 
z
" id="DejaVuSans-6c" transform="scale(0.015625)"/>
       <path id="DejaVuSans-20" transform="scale(0.015625)"/>
       <path d="M 1259 2228 
L 1259 519 
L 2272 519 
Q 2781 519 3026 730 
Q 3272 941 3272 1375 
Q 3272 1813 3026 2020 
Q 2781 2228 2272 2228 
L 1259 2228 
z
M 1259 4147 
L 1259 2741 
L 2194 2741 
Q 2656 2741 2882 2914 
Q 3109 3088 3109 3444 
Q 3109 3797 2882 3972 
Q 2656 4147 2194 4147 
L 1259 4147 
z
M 628 4666 
L 2241 4666 
Q 2963 4666 3353 4366 
Q 3744 4066 3744 3513 
Q 3744 3084 3544 2831 
Q 3344 2578 2956 2516 
Q 3422 2416 3680 2098 
Q 3938 1781 3938 1306 
Q 3938 681 3513 340 
Q 3088 0 2303 0 
L 628 0 
L 628 4666 
z
" id="DejaVuSans-42" transform="scale(0.015625)"/>
       <path d="M 2059 -325 
Q 1816 -950 1584 -1140 
Q 1353 -1331 966 -1331 
L 506 -1331 
L 506 -850 
L 844 -850 
Q 1081 -850 1212 -737 
Q 1344 -625 1503 -206 
L 1606 56 
L 191 3500 
L 800 3500 
L 1894 763 
L 2988 3500 
L 3597 3500 
L 2059 -325 
z
" id="DejaVuSans-79" transform="scale(0.015625)"/>
       <path d="M 3597 1894 
L 3597 1613 
L 953 1613 
Q 991 1019 1311 708 
Q 1631 397 2203 397 
Q 2534 397 2845 478 
Q 3156 559 3463 722 
L 3463 178 
Q 3153 47 2828 -22 
Q 2503 -91 2169 -91 
Q 1331 -91 842 396 
Q 353 884 353 1716 
Q 353 2575 817 3079 
Q 1281 3584 2069 3584 
Q 2775 3584 3186 3129 
Q 3597 2675 3597 1894 
z
M 3022 2063 
Q 3016 2534 2758 2815 
Q 2500 3097 2075 3097 
Q 1594 3097 1305 2825 
Q 1016 2553 972 2059 
L 3022 2063 
z
" id="DejaVuSans-65" transform="scale(0.015625)"/>
       <path d="M 2834 3397 
L 2834 2853 
Q 2591 2978 2328 3040 
Q 2066 3103 1784 3103 
Q 1356 3103 1142 2972 
Q 928 2841 928 2578 
Q 928 2378 1081 2264 
Q 1234 2150 1697 2047 
L 1894 2003 
Q 2506 1872 2764 1633 
Q 3022 1394 3022 966 
Q 3022 478 2636 193 
Q 2250 -91 1575 -91 
Q 1294 -91 989 -36 
Q 684 19 347 128 
L 347 722 
Q 666 556 975 473 
Q 1284 391 1588 391 
Q 1994 391 2212 530 
Q 2431 669 2431 922 
Q 2431 1156 2273 1281 
Q 2116 1406 1581 1522 
L 1381 1569 
Q 847 1681 609 1914 
Q 372 2147 372 2553 
Q 372 3047 722 3315 
Q 1072 3584 1716 3584 
Q 2034 3584 2315 3537 
Q 2597 3491 2834 3397 
z
" id="DejaVuSans-73" transform="scale(0.015625)"/>
       <path d="M 1259 4147 
L 1259 519 
L 2022 519 
Q 2988 519 3436 956 
Q 3884 1394 3884 2338 
Q 3884 3275 3436 3711 
Q 2988 4147 2022 4147 
L 1259 4147 
z
M 628 4666 
L 1925 4666 
Q 3281 4666 3915 4102 
Q 4550 3538 4550 2338 
Q 4550 1131 3912 565 
Q 3275 0 1925 0 
L 628 0 
L 628 4666 
z
" id="DejaVuSans-44" transform="scale(0.015625)"/>
      </defs>
      <use xlink:href="#DejaVuSans-54"/>
      <use x="44.083984" xlink:href="#DejaVuSans-6f"/>
      <use x="105.265625" xlink:href="#DejaVuSans-74"/>
      <use x="144.474609" xlink:href="#DejaVuSans-61"/>
      <use x="205.753906" xlink:href="#DejaVuSans-6c"/>
      <use x="233.537109" xlink:href="#DejaVuSans-20"/>
      <use x="265.324219" xlink:href="#DejaVuSans-42"/>
      <use x="333.927734" xlink:href="#DejaVuSans-79"/>
      <use x="393.107422" xlink:href="#DejaVuSans-74"/>
      <use x="432.316406" xlink:href="#DejaVuSans-65"/>
      <use x="493.839844" xlink:href="#DejaVuSans-73"/>
      <use x="545.939453" xlink:href="#DejaVuSans-20"/>
      <use x="577.726562" xlink:href="#DejaVuSans-73"/>
      <use x="629.826172" xlink:href="#DejaVuSans-65"/>
      <use x="691.349609" xlink:href="#DejaVuSans-6e"/>
      <use x="754.728516" xlink:href="#DejaVuSans-74"/>
      <use x="793.9375" xlink:href="#DejaVuSans-20"/>
      <use x="825.724609" xlink:href="#DejaVuSans-74"/>
      <use x="864.933594" xlink:href="#DejaVuSans-6f"/>
      <use x="926.115234" xlink:href="#DejaVuSans-20"/>
      <use x="957.902344" xlink:href="#DejaVuSans-44"/>
      <use x="1034.904297" xlink:href="#DejaVuSans-6f"/>
      <use x="1096.085938" xlink:href="#DejaVuSans-6d"/>
      <use x="1193.498047" xlink:href="#DejaVuSans-61"/>
      <use x="1254.777344" xlink:href="#DejaVuSans-69"/>
      <use x="1282.560547" xlink:href="#DejaVuSans-6e"/>
     </g>
    </g>
    <g id="text_14">
     <!-- 1e10 -->
     <g transform="translate(57.6 38.472)scale(0.1 -0.1)">
      <use xlink:href="#DejaVuSans-31"/>
      <use x="63.623047" xlink:href="#DejaVuSans-65"/>
      <use x="125.146484" xlink:href="#DejaVuSans-31"/>
      <use x="188.769531" xlink:href="#DejaVuSans-30"/>
     </g>
    </g>
   </g>
   <g id="patch_259">
    <path d="M 57.6 307.584 
L 57.6 41.472 
" style="fill:none;stroke:#000000;stroke-linecap:square;stroke-linejoin:miter;stroke-width:0.8;"/>
   </g>
   <g id="patch_260">
    <path d="M 414.72 307.584 
L 414.72 41.472 
" style="fill:none;stroke:#000000;stroke-linecap:square;stroke-linejoin:miter;stroke-width:0.8;"/>
   </g>
   <g id="patch_261">
    <path d="M 57.6 307.584 
L 414.72 307.584 
" style="fill:none;stroke:#000000;stroke-linecap:square;stroke-linejoin:miter;stroke-width:0.8;"/>
   </g>
   <g id="patch_262">
    <path d="M 57.6 41.472 
L 414.72 41.472 
" style="fill:none;stroke:#000000;stroke-linecap:square;stroke-linejoin:miter;stroke-width:0.8;"/>
   </g>
   <g id="text_15">
    <!-- ex1-run100 -->
    <g transform="translate(201.515625 35.472)scale(0.12 -0.12)">
     <defs>
      <path d="M 3513 3500 
L 2247 1797 
L 3578 0 
L 2900 0 
L 1881 1375 
L 863 0 
L 184 0 
L 1544 1831 
L 300 3500 
L 978 3500 
L 1906 2253 
L 2834 3500 
L 3513 3500 
z
" id="DejaVuSans-78" transform="scale(0.015625)"/>
      <path d="M 313 2009 
L 1997 2009 
L 1997 1497 
L 313 1497 
L 313 2009 
z
" id="DejaVuSans-2d" transform="scale(0.015625)"/>
      <path d="M 2631 2963 
Q 2534 3019 2420 3045 
Q 2306 3072 2169 3072 
Q 1681 3072 1420 2755 
Q 1159 2438 1159 1844 
L 1159 0 
L 581 0 
L 581 3500 
L 1159 3500 
L 1159 2956 
Q 1341 3275 1631 3429 
Q 1922 3584 2338 3584 
Q 2397 3584 2469 3576 
Q 2541 3569 2628 3553 
L 2631 2963 
z
" id="DejaVuSans-72" transform="scale(0.015625)"/>
      <path d="M 544 1381 
L 544 3500 
L 1119 3500 
L 1119 1403 
Q 1119 906 1312 657 
Q 1506 409 1894 409 
Q 2359 409 2629 706 
Q 2900 1003 2900 1516 
L 2900 3500 
L 3475 3500 
L 3475 0 
L 2900 0 
L 2900 538 
Q 2691 219 2414 64 
Q 2138 -91 1772 -91 
Q 1169 -91 856 284 
Q 544 659 544 1381 
z
M 1991 3584 
L 1991 3584 
z
" id="DejaVuSans-75" transform="scale(0.015625)"/>
     </defs>
     <use xlink:href="#DejaVuSans-65"/>
     <use x="59.773438" xlink:href="#DejaVuSans-78"/>
     <use x="118.953125" xlink:href="#DejaVuSans-31"/>
     <use x="182.576172" xlink:href="#DejaVuSans-2d"/>
     <use x="218.660156" xlink:href="#DejaVuSans-72"/>
     <use x="259.773438" xlink:href="#DejaVuSans-75"/>
     <use x="323.152344" xlink:href="#DejaVuSans-6e"/>
     <use x="386.53125" xlink:href="#DejaVuSans-31"/>
     <use x="450.154297" xlink:href="#DejaVuSans-30"/>
     <use x="513.777344" xlink:href="#DejaVuSans-30"/>
    </g>
   </g>
   <g id="legend_1">
    <g id="patch_263">
     <path d="M 287.32625 78.82825 
L 407.72 78.82825 
Q 409.72 78.82825 409.72 76.82825 
L 409.72 48.472 
Q 409.72 46.472 407.72 46.472 
L 287.32625 46.472 
Q 285.32625 46.472 285.32625 48.472 
L 285.32625 76.82825 
Q 285.32625 78.82825 287.32625 78.82825 
z
" style="fill:#ffffff;opacity:0.8;stroke:#cccccc;stroke-linejoin:miter;"/>
    </g>
    <g id="patch_264">
     <path d="M 289.32625 58.070437 
L 309.32625 58.070437 
L 309.32625 51.070437 
L 289.32625 51.070437 
z
" style="fill:#1f77b4;"/>
    </g>
    <g id="text_16">
     <!--  non-dupe bytes -->
     <g transform="translate(317.32625 58.070437)scale(0.1 -0.1)">
      <defs>
       <path d="M 1159 525 
L 1159 -1331 
L 581 -1331 
L 581 3500 
L 1159 3500 
L 1159 2969 
Q 1341 3281 1617 3432 
Q 1894 3584 2278 3584 
Q 2916 3584 3314 3078 
Q 3713 2572 3713 1747 
Q 3713 922 3314 415 
Q 2916 -91 2278 -91 
Q 1894 -91 1617 61 
Q 1341 213 1159 525 
z
M 3116 1747 
Q 3116 2381 2855 2742 
Q 2594 3103 2138 3103 
Q 1681 3103 1420 2742 
Q 1159 2381 1159 1747 
Q 1159 1113 1420 752 
Q 1681 391 2138 391 
Q 2594 391 2855 752 
Q 3116 1113 3116 1747 
z
" id="DejaVuSans-70" transform="scale(0.015625)"/>
       <path d="M 3116 1747 
Q 3116 2381 2855 2742 
Q 2594 3103 2138 3103 
Q 1681 3103 1420 2742 
Q 1159 2381 1159 1747 
Q 1159 1113 1420 752 
Q 1681 391 2138 391 
Q 2594 391 2855 752 
Q 3116 1113 3116 1747 
z
M 1159 2969 
Q 1341 3281 1617 3432 
Q 1894 3584 2278 3584 
Q 2916 3584 3314 3078 
Q 3713 2572 3713 1747 
Q 3713 922 3314 415 
Q 2916 -91 2278 -91 
Q 1894 -91 1617 61 
Q 1341 213 1159 525 
L 1159 0 
L 581 0 
L 581 4863 
L 1159 4863 
L 1159 2969 
z
" id="DejaVuSans-62" transform="scale(0.015625)"/>
      </defs>
      <use xlink:href="#DejaVuSans-20"/>
      <use x="31.787109" xlink:href="#DejaVuSans-6e"/>
      <use x="95.166016" xlink:href="#DejaVuSans-6f"/>
      <use x="156.347656" xlink:href="#DejaVuSans-6e"/>
      <use x="219.726562" xlink:href="#DejaVuSans-2d"/>
      <use x="255.810547" xlink:href="#DejaVuSans-64"/>
      <use x="319.287109" xlink:href="#DejaVuSans-75"/>
      <use x="382.666016" xlink:href="#DejaVuSans-70"/>
      <use x="446.142578" xlink:href="#DejaVuSans-65"/>
      <use x="507.666016" xlink:href="#DejaVuSans-20"/>
      <use x="539.453125" xlink:href="#DejaVuSans-62"/>
      <use x="602.929688" xlink:href="#DejaVuSans-79"/>
      <use x="662.109375" xlink:href="#DejaVuSans-74"/>
      <use x="701.318359" xlink:href="#DejaVuSans-65"/>
      <use x="762.841797" xlink:href="#DejaVuSans-73"/>
     </g>
    </g>
    <g id="patch_265">
     <path d="M 289.32625 72.748562 
L 309.32625 72.748562 
L 309.32625 65.748562 
L 289.32625 65.748562 
z
" style="fill:#ff7f0e;"/>
    </g>
    <g id="text_17">
     <!-- total region bytes -->
     <g transform="translate(317.32625 72.748562)scale(0.1 -0.1)">
      <defs>
       <path d="M 2906 1791 
Q 2906 2416 2648 2759 
Q 2391 3103 1925 3103 
Q 1463 3103 1205 2759 
Q 947 2416 947 1791 
Q 947 1169 1205 825 
Q 1463 481 1925 481 
Q 2391 481 2648 825 
Q 2906 1169 2906 1791 
z
M 3481 434 
Q 3481 -459 3084 -895 
Q 2688 -1331 1869 -1331 
Q 1566 -1331 1297 -1286 
Q 1028 -1241 775 -1147 
L 775 -588 
Q 1028 -725 1275 -790 
Q 1522 -856 1778 -856 
Q 2344 -856 2625 -561 
Q 2906 -266 2906 331 
L 2906 616 
Q 2728 306 2450 153 
Q 2172 0 1784 0 
Q 1141 0 747 490 
Q 353 981 353 1791 
Q 353 2603 747 3093 
Q 1141 3584 1784 3584 
Q 2172 3584 2450 3431 
Q 2728 3278 2906 2969 
L 2906 3500 
L 3481 3500 
L 3481 434 
z
" id="DejaVuSans-67" transform="scale(0.015625)"/>
      </defs>
      <use xlink:href="#DejaVuSans-74"/>
      <use x="39.208984" xlink:href="#DejaVuSans-6f"/>
      <use x="100.390625" xlink:href="#DejaVuSans-74"/>
      <use x="139.599609" xlink:href="#DejaVuSans-61"/>
      <use x="200.878906" xlink:href="#DejaVuSans-6c"/>
      <use x="228.662109" xlink:href="#DejaVuSans-20"/>
      <use x="260.449219" xlink:href="#DejaVuSans-72"/>
      <use x="299.3125" xlink:href="#DejaVuSans-65"/>
      <use x="360.835938" xlink:href="#DejaVuSans-67"/>
      <use x="424.3125" xlink:href="#DejaVuSans-69"/>
      <use x="452.095703" xlink:href="#DejaVuSans-6f"/>
      <use x="513.277344" xlink:href="#DejaVuSans-6e"/>
      <use x="576.65625" xlink:href="#DejaVuSans-20"/>
      <use x="608.443359" xlink:href="#DejaVuSans-62"/>
      <use x="671.919922" xlink:href="#DejaVuSans-79"/>
      <use x="731.099609" xlink:href="#DejaVuSans-74"/>
      <use x="770.308594" xlink:href="#DejaVuSans-65"/>
      <use x="831.832031" xlink:href="#DejaVuSans-73"/>
     </g>
    </g>
   </g>
  </g>
 </g>
 <defs>
  <clipPath id="p6b8cd86db6">
   <rect height="266.112" width="357.12" x="57.6" y="41.472"/>
  </clipPath>
 </defs>
</svg>
