<?xml version="1.0" encoding="utf-8" standalone="no"?>
<!DOCTYPE svg PUBLIC "-//W3C//DTD SVG 1.1//EN"
  "http://www.w3.org/Graphics/SVG/1.1/DTD/svg11.dtd">
<svg height="345.6pt" version="1.1" viewBox="0 0 460.8 345.6" width="460.8pt" xmlns="http://www.w3.org/2000/svg" xmlns:xlink="http://www.w3.org/1999/xlink">
 <metadata>
  <rdf:RDF xmlns:cc="http://creativecommons.org/ns#" xmlns:dc="http://purl.org/dc/elements/1.1/" xmlns:rdf="http://www.w3.org/1999/02/22-rdf-syntax-ns#">
   <cc:Work>
    <dc:type rdf:resource="http://purl.org/dc/dcmitype/StillImage"/>
    <dc:date>2021-12-05T23:53:32.592803</dc:date>
    <dc:format>image/svg+xml</dc:format>
    <dc:creator>
     <cc:Agent>
      <dc:title>Matplotlib v3.4.3, https://matplotlib.org/</dc:title>
     </cc:Agent>
    </dc:creator>
   </cc:Work>
  </rdf:RDF>
 </metadata>
 <defs>
  <style type="text/css">*{stroke-linecap:butt;stroke-linejoin:round;}</style>
 </defs>
 <g id="figure_1">
  <g id="patch_1">
   <path d="M 0 345.6 
L 460.8 345.6 
L 460.8 0 
L 0 0 
z
" style="fill:#ffffff;"/>
  </g>
  <g id="axes_1">
   <g id="patch_2">
    <path d="M 57.6 307.584 
L 414.72 307.584 
L 414.72 41.472 
L 57.6 41.472 
z
" style="fill:#ffffff;"/>
   </g>
   <g id="patch_3">
    <path clip-path="url(#p0352787fd0)" d="M 58.2975 307.584 
L 59.6925 307.584 
L 59.6925 305.661884 
L 58.2975 305.661884 
z
" style="fill:#1f77b4;"/>
   </g>
   <g id="patch_4">
    <path clip-path="url(#p0352787fd0)" d="M 61.0875 307.584 
L 62.4825 307.584 
L 62.4825 306.320304 
L 61.0875 306.320304 
z
" style="fill:#1f77b4;"/>
   </g>
   <g id="patch_5">
    <path clip-path="url(#p0352787fd0)" d="M 63.8775 307.584 
L 65.2725 307.584 
L 65.2725 306.629941 
L 63.8775 306.629941 
z
" style="fill:#1f77b4;"/>
   </g>
   <g id="patch_6">
    <path clip-path="url(#p0352787fd0)" d="M 66.6675 307.584 
L 68.0625 307.584 
L 68.0625 306.308317 
L 66.6675 306.308317 
z
" style="fill:#1f77b4;"/>
   </g>
   <g id="patch_7">
    <path clip-path="url(#p0352787fd0)" d="M 69.4575 307.584 
L 70.8525 307.584 
L 70.8525 306.437971 
L 69.4575 306.437971 
z
" style="fill:#1f77b4;"/>
   </g>
   <g id="patch_8">
    <path clip-path="url(#p0352787fd0)" d="M 72.2475 307.584 
L 73.6425 307.584 
L 73.6425 306.366394 
L 72.2475 306.366394 
z
" style="fill:#1f77b4;"/>
   </g>
   <g id="patch_9">
    <path clip-path="url(#p0352787fd0)" d="M 75.0375 307.584 
L 76.4325 307.584 
L 76.4325 306.212631 
L 75.0375 306.212631 
z
" style="fill:#1f77b4;"/>
   </g>
   <g id="patch_10">
    <path clip-path="url(#p0352787fd0)" d="M 77.8275 307.584 
L 79.2225 307.584 
L 79.2225 305.648871 
L 77.8275 305.648871 
z
" style="fill:#1f77b4;"/>
   </g>
   <g id="patch_11">
    <path clip-path="url(#p0352787fd0)" d="M 80.6175 307.584 
L 82.0125 307.584 
L 82.0125 306.055358 
L 80.6175 306.055358 
z
" style="fill:#1f77b4;"/>
   </g>
   <g id="patch_12">
    <path clip-path="url(#p0352787fd0)" d="M 83.4075 307.584 
L 84.8025 307.584 
L 84.8025 306.474888 
L 83.4075 306.474888 
z
" style="fill:#1f77b4;"/>
   </g>
   <g id="patch_13">
    <path clip-path="url(#p0352787fd0)" d="M 86.1975 307.584 
L 87.5925 307.584 
L 87.5925 305.450937 
L 86.1975 305.450937 
z
" style="fill:#1f77b4;"/>
   </g>
   <g id="patch_14">
    <path clip-path="url(#p0352787fd0)" d="M 88.9875 307.584 
L 90.3825 307.584 
L 90.3825 305.78578 
L 88.9875 305.78578 
z
" style="fill:#1f77b4;"/>
   </g>
   <g id="patch_15">
    <path clip-path="url(#p0352787fd0)" d="M 91.7775 307.584 
L 93.1725 307.584 
L 93.1725 305.996023 
L 91.7775 305.996023 
z
" style="fill:#1f77b4;"/>
   </g>
   <g id="patch_16">
    <path clip-path="url(#p0352787fd0)" d="M 94.5675 307.584 
L 95.9625 307.584 
L 95.9625 306.466144 
L 94.5675 306.466144 
z
" style="fill:#1f77b4;"/>
   </g>
   <g id="patch_17">
    <path clip-path="url(#p0352787fd0)" d="M 97.3575 307.584 
L 98.7525 307.584 
L 98.7525 305.206903 
L 97.3575 305.206903 
z
" style="fill:#1f77b4;"/>
   </g>
   <g id="patch_18">
    <path clip-path="url(#p0352787fd0)" d="M 100.1475 307.584 
L 101.5425 307.584 
L 101.5425 306.678353 
L 100.1475 306.678353 
z
" style="fill:#1f77b4;"/>
   </g>
   <g id="patch_19">
    <path clip-path="url(#p0352787fd0)" d="M 102.9375 307.584 
L 104.3325 307.584 
L 104.3325 305.388625 
L 102.9375 305.388625 
z
" style="fill:#1f77b4;"/>
   </g>
   <g id="patch_20">
    <path clip-path="url(#p0352787fd0)" d="M 105.7275 307.584 
L 107.1225 307.584 
L 107.1225 305.594805 
L 105.7275 305.594805 
z
" style="fill:#1f77b4;"/>
   </g>
   <g id="patch_21">
    <path clip-path="url(#p0352787fd0)" d="M 108.5175 307.584 
L 109.9125 307.584 
L 109.9125 306.126236 
L 108.5175 306.126236 
z
" style="fill:#1f77b4;"/>
   </g>
   <g id="patch_22">
    <path clip-path="url(#p0352787fd0)" d="M 111.3075 307.584 
L 112.7025 307.584 
L 112.7025 305.376209 
L 111.3075 305.376209 
z
" style="fill:#1f77b4;"/>
   </g>
   <g id="patch_23">
    <path clip-path="url(#p0352787fd0)" d="M 114.0975 307.584 
L 115.4925 307.584 
L 115.4925 306.350104 
L 114.0975 306.350104 
z
" style="fill:#1f77b4;"/>
   </g>
   <g id="patch_24">
    <path clip-path="url(#p0352787fd0)" d="M 116.8875 307.584 
L 118.2825 307.584 
L 118.2825 305.786834 
L 116.8875 305.786834 
z
" style="fill:#1f77b4;"/>
   </g>
   <g id="patch_25">
    <path clip-path="url(#p0352787fd0)" d="M 119.6775 307.584 
L 121.0725 307.584 
L 121.0725 306.432168 
L 119.6775 306.432168 
z
" style="fill:#1f77b4;"/>
   </g>
   <g id="patch_26">
    <path clip-path="url(#p0352787fd0)" d="M 122.4675 307.584 
L 123.8625 307.584 
L 123.8625 306.377126 
L 122.4675 306.377126 
z
" style="fill:#1f77b4;"/>
   </g>
   <g id="patch_27">
    <path clip-path="url(#p0352787fd0)" d="M 125.2575 307.584 
L 126.6525 307.584 
L 126.6525 305.315198 
L 125.2575 305.315198 
z
" style="fill:#1f77b4;"/>
   </g>
   <g id="patch_28">
    <path clip-path="url(#p0352787fd0)" d="M 128.0475 307.584 
L 129.4425 307.584 
L 129.4425 305.715102 
L 128.0475 305.715102 
z
" style="fill:#1f77b4;"/>
   </g>
   <g id="patch_29">
    <path clip-path="url(#p0352787fd0)" d="M 130.8375 307.584 
L 132.2325 307.584 
L 132.2325 306.048844 
L 130.8375 306.048844 
z
" style="fill:#1f77b4;"/>
   </g>
   <g id="patch_30">
    <path clip-path="url(#p0352787fd0)" d="M 133.6275 307.584 
L 135.0225 307.584 
L 135.0225 305.813464 
L 133.6275 305.813464 
z
" style="fill:#1f77b4;"/>
   </g>
   <g id="patch_31">
    <path clip-path="url(#p0352787fd0)" d="M 136.4175 307.584 
L 137.8125 307.584 
L 137.8125 305.205155 
L 136.4175 305.205155 
z
" style="fill:#1f77b4;"/>
   </g>
   <g id="patch_32">
    <path clip-path="url(#p0352787fd0)" d="M 139.2075 307.584 
L 140.6025 307.584 
L 140.6025 306.208395 
L 139.2075 306.208395 
z
" style="fill:#1f77b4;"/>
   </g>
   <g id="patch_33">
    <path clip-path="url(#p0352787fd0)" d="M 141.9975 307.584 
L 143.3925 307.584 
L 143.3925 305.909069 
L 141.9975 305.909069 
z
" style="fill:#1f77b4;"/>
   </g>
   <g id="patch_34">
    <path clip-path="url(#p0352787fd0)" d="M 144.7875 307.584 
L 146.1825 307.584 
L 146.1825 305.466891 
L 144.7875 305.466891 
z
" style="fill:#1f77b4;"/>
   </g>
   <g id="patch_35">
    <path clip-path="url(#p0352787fd0)" d="M 147.5775 307.584 
L 148.9725 307.584 
L 148.9725 305.500298 
L 147.5775 305.500298 
z
" style="fill:#1f77b4;"/>
   </g>
   <g id="patch_36">
    <path clip-path="url(#p0352787fd0)" d="M 150.3675 307.584 
L 151.7625 307.584 
L 151.7625 305.805449 
L 150.3675 305.805449 
z
" style="fill:#1f77b4;"/>
   </g>
   <g id="patch_37">
    <path clip-path="url(#p0352787fd0)" d="M 153.1575 307.584 
L 154.5525 307.584 
L 154.5525 306.075002 
L 153.1575 306.075002 
z
" style="fill:#1f77b4;"/>
   </g>
   <g id="patch_38">
    <path clip-path="url(#p0352787fd0)" d="M 155.9475 307.584 
L 157.3425 307.584 
L 157.3425 306.057447 
L 155.9475 306.057447 
z
" style="fill:#1f77b4;"/>
   </g>
   <g id="patch_39">
    <path clip-path="url(#p0352787fd0)" d="M 158.7375 307.584 
L 160.1325 307.584 
L 160.1325 305.804518 
L 158.7375 305.804518 
z
" style="fill:#1f77b4;"/>
   </g>
   <g id="patch_40">
    <path clip-path="url(#p0352787fd0)" d="M 161.5275 307.584 
L 162.9225 307.584 
L 162.9225 306.86447 
L 161.5275 306.86447 
z
" style="fill:#1f77b4;"/>
   </g>
   <g id="patch_41">
    <path clip-path="url(#p0352787fd0)" d="M 164.3175 307.584 
L 165.7125 307.584 
L 165.7125 306.674359 
L 164.3175 306.674359 
z
" style="fill:#1f77b4;"/>
   </g>
   <g id="patch_42">
    <path clip-path="url(#p0352787fd0)" d="M 167.1075 307.584 
L 168.5025 307.584 
L 168.5025 305.313552 
L 167.1075 305.313552 
z
" style="fill:#1f77b4;"/>
   </g>
   <g id="patch_43">
    <path clip-path="url(#p0352787fd0)" d="M 169.8975 307.584 
L 171.2925 307.584 
L 171.2925 305.180067 
L 169.8975 305.180067 
z
" style="fill:#1f77b4;"/>
   </g>
   <g id="patch_44">
    <path clip-path="url(#p0352787fd0)" d="M 172.6875 307.584 
L 174.0825 307.584 
L 174.0825 306.59308 
L 172.6875 306.59308 
z
" style="fill:#1f77b4;"/>
   </g>
   <g id="patch_45">
    <path clip-path="url(#p0352787fd0)" d="M 175.4775 307.584 
L 176.8725 307.584 
L 176.8725 305.758369 
L 175.4775 305.758369 
z
" style="fill:#1f77b4;"/>
   </g>
   <g id="patch_46">
    <path clip-path="url(#p0352787fd0)" d="M 178.2675 307.584 
L 179.6625 307.584 
L 179.6625 306.043151 
L 178.2675 306.043151 
z
" style="fill:#1f77b4;"/>
   </g>
   <g id="patch_47">
    <path clip-path="url(#p0352787fd0)" d="M 181.0575 307.584 
L 182.4525 307.584 
L 182.4525 306.48771 
L 181.0575 306.48771 
z
" style="fill:#1f77b4;"/>
   </g>
   <g id="patch_48">
    <path clip-path="url(#p0352787fd0)" d="M 183.8475 307.584 
L 185.2425 307.584 
L 185.2425 306.600002 
L 183.8475 306.600002 
z
" style="fill:#1f77b4;"/>
   </g>
   <g id="patch_49">
    <path clip-path="url(#p0352787fd0)" d="M 186.6375 307.584 
L 188.0325 307.584 
L 188.0325 305.984964 
L 186.6375 305.984964 
z
" style="fill:#1f77b4;"/>
   </g>
   <g id="patch_50">
    <path clip-path="url(#p0352787fd0)" d="M 189.4275 307.584 
L 190.8225 307.584 
L 190.8225 306.193271 
L 189.4275 306.193271 
z
" style="fill:#1f77b4;"/>
   </g>
   <g id="patch_51">
    <path clip-path="url(#p0352787fd0)" d="M 192.2175 307.584 
L 193.6125 307.584 
L 193.6125 306.501309 
L 192.2175 306.501309 
z
" style="fill:#1f77b4;"/>
   </g>
   <g id="patch_52">
    <path clip-path="url(#p0352787fd0)" d="M 195.0075 307.584 
L 196.4025 307.584 
L 196.4025 305.591298 
L 195.0075 305.591298 
z
" style="fill:#1f77b4;"/>
   </g>
   <g id="patch_53">
    <path clip-path="url(#p0352787fd0)" d="M 197.7975 307.584 
L 199.1925 307.584 
L 199.1925 306.184714 
L 197.7975 306.184714 
z
" style="fill:#1f77b4;"/>
   </g>
   <g id="patch_54">
    <path clip-path="url(#p0352787fd0)" d="M 200.5875 307.584 
L 201.9825 307.584 
L 201.9825 305.298144 
L 200.5875 305.298144 
z
" style="fill:#1f77b4;"/>
   </g>
   <g id="patch_55">
    <path clip-path="url(#p0352787fd0)" d="M 203.3775 307.584 
L 204.7725 307.584 
L 204.7725 301.362923 
L 203.3775 301.362923 
z
" style="fill:#1f77b4;"/>
   </g>
   <g id="patch_56">
    <path clip-path="url(#p0352787fd0)" d="M 206.1675 307.584 
L 207.5625 307.584 
L 207.5625 306.408509 
L 206.1675 306.408509 
z
" style="fill:#1f77b4;"/>
   </g>
   <g id="patch_57">
    <path clip-path="url(#p0352787fd0)" d="M 208.9575 307.584 
L 210.3525 307.584 
L 210.3525 305.514262 
L 208.9575 305.514262 
z
" style="fill:#1f77b4;"/>
   </g>
   <g id="patch_58">
    <path clip-path="url(#p0352787fd0)" d="M 211.7475 307.584 
L 213.1425 307.584 
L 213.1425 305.498954 
L 211.7475 305.498954 
z
" style="fill:#1f77b4;"/>
   </g>
   <g id="patch_59">
    <path clip-path="url(#p0352787fd0)" d="M 214.5375 307.584 
L 215.9325 307.584 
L 215.9325 306.108116 
L 214.5375 306.108116 
z
" style="fill:#1f77b4;"/>
   </g>
   <g id="patch_60">
    <path clip-path="url(#p0352787fd0)" d="M 217.3275 307.584 
L 218.7225 307.584 
L 218.7225 304.394592 
L 217.3275 304.394592 
z
" style="fill:#1f77b4;"/>
   </g>
   <g id="patch_61">
    <path clip-path="url(#p0352787fd0)" d="M 220.1175 307.584 
L 221.5125 307.584 
L 221.5125 305.666028 
L 220.1175 305.666028 
z
" style="fill:#1f77b4;"/>
   </g>
   <g id="patch_62">
    <path clip-path="url(#p0352787fd0)" d="M 222.9075 307.584 
L 224.3025 307.584 
L 224.3025 305.556758 
L 222.9075 305.556758 
z
" style="fill:#1f77b4;"/>
   </g>
   <g id="patch_63">
    <path clip-path="url(#p0352787fd0)" d="M 225.6975 307.584 
L 227.0925 307.584 
L 227.0925 306.553948 
L 225.6975 306.553948 
z
" style="fill:#1f77b4;"/>
   </g>
   <g id="patch_64">
    <path clip-path="url(#p0352787fd0)" d="M 228.4875 307.584 
L 229.8825 307.584 
L 229.8825 305.559311 
L 228.4875 305.559311 
z
" style="fill:#1f77b4;"/>
   </g>
   <g id="patch_65">
    <path clip-path="url(#p0352787fd0)" d="M 231.2775 307.584 
L 232.6725 307.584 
L 232.6725 306.515461 
L 231.2775 306.515461 
z
" style="fill:#1f77b4;"/>
   </g>
   <g id="patch_66">
    <path clip-path="url(#p0352787fd0)" d="M 234.0675 307.584 
L 235.4625 307.584 
L 235.4625 305.637255 
L 234.0675 305.637255 
z
" style="fill:#1f77b4;"/>
   </g>
   <g id="patch_67">
    <path clip-path="url(#p0352787fd0)" d="M 236.8575 307.584 
L 238.2525 307.584 
L 238.2525 306.064046 
L 236.8575 306.064046 
z
" style="fill:#1f77b4;"/>
   </g>
   <g id="patch_68">
    <path clip-path="url(#p0352787fd0)" d="M 239.6475 307.584 
L 241.0425 307.584 
L 241.0425 306.555364 
L 239.6475 306.555364 
z
" style="fill:#1f77b4;"/>
   </g>
   <g id="patch_69">
    <path clip-path="url(#p0352787fd0)" d="M 242.4375 307.584 
L 243.8325 307.584 
L 243.8325 306.037275 
L 242.4375 306.037275 
z
" style="fill:#1f77b4;"/>
   </g>
   <g id="patch_70">
    <path clip-path="url(#p0352787fd0)" d="M 245.2275 307.584 
L 246.6225 307.584 
L 246.6225 305.763016 
L 245.2275 305.763016 
z
" style="fill:#1f77b4;"/>
   </g>
   <g id="patch_71">
    <path clip-path="url(#p0352787fd0)" d="M 248.0175 307.584 
L 249.4125 307.584 
L 249.4125 306.081439 
L 248.0175 306.081439 
z
" style="fill:#1f77b4;"/>
   </g>
   <g id="patch_72">
    <path clip-path="url(#p0352787fd0)" d="M 250.8075 307.584 
L 252.2025 307.584 
L 252.2025 306.320352 
L 250.8075 306.320352 
z
" style="fill:#1f77b4;"/>
   </g>
   <g id="patch_73">
    <path clip-path="url(#p0352787fd0)" d="M 253.5975 307.584 
L 254.9925 307.584 
L 254.9925 306.13642 
L 253.5975 306.13642 
z
" style="fill:#1f77b4;"/>
   </g>
   <g id="patch_74">
    <path clip-path="url(#p0352787fd0)" d="M 256.3875 307.584 
L 257.7825 307.584 
L 257.7825 305.909533 
L 256.3875 305.909533 
z
" style="fill:#1f77b4;"/>
   </g>
   <g id="patch_75">
    <path clip-path="url(#p0352787fd0)" d="M 259.1775 307.584 
L 260.5725 307.584 
L 260.5725 306.595652 
L 259.1775 306.595652 
z
" style="fill:#1f77b4;"/>
   </g>
   <g id="patch_76">
    <path clip-path="url(#p0352787fd0)" d="M 261.9675 307.584 
L 263.3625 307.584 
L 263.3625 305.614289 
L 261.9675 305.614289 
z
" style="fill:#1f77b4;"/>
   </g>
   <g id="patch_77">
    <path clip-path="url(#p0352787fd0)" d="M 264.7575 307.584 
L 266.1525 307.584 
L 266.1525 305.648559 
L 264.7575 305.648559 
z
" style="fill:#1f77b4;"/>
   </g>
   <g id="patch_78">
    <path clip-path="url(#p0352787fd0)" d="M 267.5475 307.584 
L 268.9425 307.584 
L 268.9425 305.216608 
L 267.5475 305.216608 
z
" style="fill:#1f77b4;"/>
   </g>
   <g id="patch_79">
    <path clip-path="url(#p0352787fd0)" d="M 270.3375 307.584 
L 271.7325 307.584 
L 271.7325 305.825483 
L 270.3375 305.825483 
z
" style="fill:#1f77b4;"/>
   </g>
   <g id="patch_80">
    <path clip-path="url(#p0352787fd0)" d="M 273.1275 307.584 
L 274.5225 307.584 
L 274.5225 306.599214 
L 273.1275 306.599214 
z
" style="fill:#1f77b4;"/>
   </g>
   <g id="patch_81">
    <path clip-path="url(#p0352787fd0)" d="M 275.9175 307.584 
L 277.3125 307.584 
L 277.3125 305.943294 
L 275.9175 305.943294 
z
" style="fill:#1f77b4;"/>
   </g>
   <g id="patch_82">
    <path clip-path="url(#p0352787fd0)" d="M 278.7075 307.584 
L 280.1025 307.584 
L 280.1025 305.409956 
L 278.7075 305.409956 
z
" style="fill:#1f77b4;"/>
   </g>
   <g id="patch_83">
    <path clip-path="url(#p0352787fd0)" d="M 281.4975 307.584 
L 282.8925 307.584 
L 282.8925 304.87967 
L 281.4975 304.87967 
z
" style="fill:#1f77b4;"/>
   </g>
   <g id="patch_84">
    <path clip-path="url(#p0352787fd0)" d="M 284.2875 307.584 
L 285.6825 307.584 
L 285.6825 306.53953 
L 284.2875 306.53953 
z
" style="fill:#1f77b4;"/>
   </g>
   <g id="patch_85">
    <path clip-path="url(#p0352787fd0)" d="M 287.0775 307.584 
L 288.4725 307.584 
L 288.4725 306.640344 
L 287.0775 306.640344 
z
" style="fill:#1f77b4;"/>
   </g>
   <g id="patch_86">
    <path clip-path="url(#p0352787fd0)" d="M 289.8675 307.584 
L 291.2625 307.584 
L 291.2625 306.085642 
L 289.8675 306.085642 
z
" style="fill:#1f77b4;"/>
   </g>
   <g id="patch_87">
    <path clip-path="url(#p0352787fd0)" d="M 292.6575 307.584 
L 294.0525 307.584 
L 294.0525 305.12592 
L 292.6575 305.12592 
z
" style="fill:#1f77b4;"/>
   </g>
   <g id="patch_88">
    <path clip-path="url(#p0352787fd0)" d="M 295.4475 307.584 
L 296.8425 307.584 
L 296.8425 306.614854 
L 295.4475 306.614854 
z
" style="fill:#1f77b4;"/>
   </g>
   <g id="patch_89">
    <path clip-path="url(#p0352787fd0)" d="M 298.2375 307.584 
L 299.6325 307.584 
L 299.6325 306.280501 
L 298.2375 306.280501 
z
" style="fill:#1f77b4;"/>
   </g>
   <g id="patch_90">
    <path clip-path="url(#p0352787fd0)" d="M 301.0275 307.584 
L 302.4225 307.584 
L 302.4225 306.647317 
L 301.0275 306.647317 
z
" style="fill:#1f77b4;"/>
   </g>
   <g id="patch_91">
    <path clip-path="url(#p0352787fd0)" d="M 303.8175 307.584 
L 305.2125 307.584 
L 305.2125 305.770091 
L 303.8175 305.770091 
z
" style="fill:#1f77b4;"/>
   </g>
   <g id="patch_92">
    <path clip-path="url(#p0352787fd0)" d="M 306.6075 307.584 
L 308.0025 307.584 
L 308.0025 306.481795 
L 306.6075 306.481795 
z
" style="fill:#1f77b4;"/>
   </g>
   <g id="patch_93">
    <path clip-path="url(#p0352787fd0)" d="M 309.3975 307.584 
L 310.7925 307.584 
L 310.7925 305.587795 
L 309.3975 305.587795 
z
" style="fill:#1f77b4;"/>
   </g>
   <g id="patch_94">
    <path clip-path="url(#p0352787fd0)" d="M 312.1875 307.584 
L 313.5825 307.584 
L 313.5825 306.137585 
L 312.1875 306.137585 
z
" style="fill:#1f77b4;"/>
   </g>
   <g id="patch_95">
    <path clip-path="url(#p0352787fd0)" d="M 314.9775 307.584 
L 316.3725 307.584 
L 316.3725 305.701405 
L 314.9775 305.701405 
z
" style="fill:#1f77b4;"/>
   </g>
   <g id="patch_96">
    <path clip-path="url(#p0352787fd0)" d="M 317.7675 307.584 
L 319.1625 307.584 
L 319.1625 305.312787 
L 317.7675 305.312787 
z
" style="fill:#1f77b4;"/>
   </g>
   <g id="patch_97">
    <path clip-path="url(#p0352787fd0)" d="M 320.5575 307.584 
L 321.9525 307.584 
L 321.9525 306.163028 
L 320.5575 306.163028 
z
" style="fill:#1f77b4;"/>
   </g>
   <g id="patch_98">
    <path clip-path="url(#p0352787fd0)" d="M 323.3475 307.584 
L 324.7425 307.584 
L 324.7425 306.109914 
L 323.3475 306.109914 
z
" style="fill:#1f77b4;"/>
   </g>
   <g id="patch_99">
    <path clip-path="url(#p0352787fd0)" d="M 326.1375 307.584 
L 327.5325 307.584 
L 327.5325 305.577445 
L 326.1375 305.577445 
z
" style="fill:#1f77b4;"/>
   </g>
   <g id="patch_100">
    <path clip-path="url(#p0352787fd0)" d="M 328.9275 307.584 
L 330.3225 307.584 
L 330.3225 306.565872 
L 328.9275 306.565872 
z
" style="fill:#1f77b4;"/>
   </g>
   <g id="patch_101">
    <path clip-path="url(#p0352787fd0)" d="M 331.7175 307.584 
L 333.1125 307.584 
L 333.1125 305.962712 
L 331.7175 305.962712 
z
" style="fill:#1f77b4;"/>
   </g>
   <g id="patch_102">
    <path clip-path="url(#p0352787fd0)" d="M 334.5075 307.584 
L 335.9025 307.584 
L 335.9025 305.834503 
L 334.5075 305.834503 
z
" style="fill:#1f77b4;"/>
   </g>
   <g id="patch_103">
    <path clip-path="url(#p0352787fd0)" d="M 337.2975 307.584 
L 338.6925 307.584 
L 338.6925 304.919373 
L 337.2975 304.919373 
z
" style="fill:#1f77b4;"/>
   </g>
   <g id="patch_104">
    <path clip-path="url(#p0352787fd0)" d="M 340.0875 307.584 
L 341.4825 307.584 
L 341.4825 305.359397 
L 340.0875 305.359397 
z
" style="fill:#1f77b4;"/>
   </g>
   <g id="patch_105">
    <path clip-path="url(#p0352787fd0)" d="M 342.8775 307.584 
L 344.2725 307.584 
L 344.2725 305.659912 
L 342.8775 305.659912 
z
" style="fill:#1f77b4;"/>
   </g>
   <g id="patch_106">
    <path clip-path="url(#p0352787fd0)" d="M 345.6675 307.584 
L 347.0625 307.584 
L 347.0625 305.786947 
L 345.6675 305.786947 
z
" style="fill:#1f77b4;"/>
   </g>
   <g id="patch_107">
    <path clip-path="url(#p0352787fd0)" d="M 348.4575 307.584 
L 349.8525 307.584 
L 349.8525 306.80919 
L 348.4575 306.80919 
z
" style="fill:#1f77b4;"/>
   </g>
   <g id="patch_108">
    <path clip-path="url(#p0352787fd0)" d="M 351.2475 307.584 
L 352.6425 307.584 
L 352.6425 305.740555 
L 351.2475 305.740555 
z
" style="fill:#1f77b4;"/>
   </g>
   <g id="patch_109">
    <path clip-path="url(#p0352787fd0)" d="M 354.0375 307.584 
L 355.4325 307.584 
L 355.4325 306.114377 
L 354.0375 306.114377 
z
" style="fill:#1f77b4;"/>
   </g>
   <g id="patch_110">
    <path clip-path="url(#p0352787fd0)" d="M 356.8275 307.584 
L 358.2225 307.584 
L 358.2225 305.816166 
L 356.8275 305.816166 
z
" style="fill:#1f77b4;"/>
   </g>
   <g id="patch_111">
    <path clip-path="url(#p0352787fd0)" d="M 359.6175 307.584 
L 361.0125 307.584 
L 361.0125 305.485846 
L 359.6175 305.485846 
z
" style="fill:#1f77b4;"/>
   </g>
   <g id="patch_112">
    <path clip-path="url(#p0352787fd0)" d="M 362.4075 307.584 
L 363.8025 307.584 
L 363.8025 306.235536 
L 362.4075 306.235536 
z
" style="fill:#1f77b4;"/>
   </g>
   <g id="patch_113">
    <path clip-path="url(#p0352787fd0)" d="M 365.1975 307.584 
L 366.5925 307.584 
L 366.5925 306.504101 
L 365.1975 306.504101 
z
" style="fill:#1f77b4;"/>
   </g>
   <g id="patch_114">
    <path clip-path="url(#p0352787fd0)" d="M 367.9875 307.584 
L 369.3825 307.584 
L 369.3825 305.958623 
L 367.9875 305.958623 
z
" style="fill:#1f77b4;"/>
   </g>
   <g id="patch_115">
    <path clip-path="url(#p0352787fd0)" d="M 370.7775 307.584 
L 372.1725 307.584 
L 372.1725 305.322939 
L 370.7775 305.322939 
z
" style="fill:#1f77b4;"/>
   </g>
   <g id="patch_116">
    <path clip-path="url(#p0352787fd0)" d="M 373.5675 307.584 
L 374.9625 307.584 
L 374.9625 305.983227 
L 373.5675 305.983227 
z
" style="fill:#1f77b4;"/>
   </g>
   <g id="patch_117">
    <path clip-path="url(#p0352787fd0)" d="M 376.3575 307.584 
L 377.7525 307.584 
L 377.7525 306.561436 
L 376.3575 306.561436 
z
" style="fill:#1f77b4;"/>
   </g>
   <g id="patch_118">
    <path clip-path="url(#p0352787fd0)" d="M 379.1475 307.584 
L 380.5425 307.584 
L 380.5425 306.107962 
L 379.1475 306.107962 
z
" style="fill:#1f77b4;"/>
   </g>
   <g id="patch_119">
    <path clip-path="url(#p0352787fd0)" d="M 381.9375 307.584 
L 383.3325 307.584 
L 383.3325 306.41539 
L 381.9375 306.41539 
z
" style="fill:#1f77b4;"/>
   </g>
   <g id="patch_120">
    <path clip-path="url(#p0352787fd0)" d="M 384.7275 307.584 
L 386.1225 307.584 
L 386.1225 305.461498 
L 384.7275 305.461498 
z
" style="fill:#1f77b4;"/>
   </g>
   <g id="patch_121">
    <path clip-path="url(#p0352787fd0)" d="M 387.5175 307.584 
L 388.9125 307.584 
L 388.9125 305.614854 
L 387.5175 305.614854 
z
" style="fill:#1f77b4;"/>
   </g>
   <g id="patch_122">
    <path clip-path="url(#p0352787fd0)" d="M 390.3075 307.584 
L 391.7025 307.584 
L 391.7025 306.570717 
L 390.3075 306.570717 
z
" style="fill:#1f77b4;"/>
   </g>
   <g id="patch_123">
    <path clip-path="url(#p0352787fd0)" d="M 393.0975 307.584 
L 394.4925 307.584 
L 394.4925 306.387637 
L 393.0975 306.387637 
z
" style="fill:#1f77b4;"/>
   </g>
   <g id="patch_124">
    <path clip-path="url(#p0352787fd0)" d="M 395.8875 307.584 
L 397.2825 307.584 
L 397.2825 305.803302 
L 395.8875 305.803302 
z
" style="fill:#1f77b4;"/>
   </g>
   <g id="patch_125">
    <path clip-path="url(#p0352787fd0)" d="M 398.6775 307.584 
L 400.0725 307.584 
L 400.0725 306.056749 
L 398.6775 306.056749 
z
" style="fill:#1f77b4;"/>
   </g>
   <g id="patch_126">
    <path clip-path="url(#p0352787fd0)" d="M 401.4675 307.584 
L 402.8625 307.584 
L 402.8625 305.927539 
L 401.4675 305.927539 
z
" style="fill:#1f77b4;"/>
   </g>
   <g id="patch_127">
    <path clip-path="url(#p0352787fd0)" d="M 404.2575 307.584 
L 405.6525 307.584 
L 405.6525 305.16082 
L 404.2575 305.16082 
z
" style="fill:#1f77b4;"/>
   </g>
   <g id="patch_128">
    <path clip-path="url(#p0352787fd0)" d="M 407.0475 307.584 
L 408.4425 307.584 
L 408.4425 305.465519 
L 407.0475 305.465519 
z
" style="fill:#1f77b4;"/>
   </g>
   <g id="patch_129">
    <path clip-path="url(#p0352787fd0)" d="M 409.8375 307.584 
L 411.2325 307.584 
L 411.2325 305.813737 
L 409.8375 305.813737 
z
" style="fill:#1f77b4;"/>
   </g>
   <g id="patch_130">
    <path clip-path="url(#p0352787fd0)" d="M 412.6275 307.584 
L 414.0225 307.584 
L 414.0225 306.860669 
L 412.6275 306.860669 
z
" style="fill:#1f77b4;"/>
   </g>
   <g id="patch_131">
    <path clip-path="url(#p0352787fd0)" d="M 58.2975 305.661884 
L 59.6925 305.661884 
L 59.6925 283.180449 
L 58.2975 283.180449 
z
" style="fill:#ff7f0e;"/>
   </g>
   <g id="patch_132">
    <path clip-path="url(#p0352787fd0)" d="M 61.0875 306.320304 
L 62.4825 306.320304 
L 62.4825 287.098153 
L 61.0875 287.098153 
z
" style="fill:#ff7f0e;"/>
   </g>
   <g id="patch_133">
    <path clip-path="url(#p0352787fd0)" d="M 63.8775 306.629941 
L 65.2725 306.629941 
L 65.2725 290.962422 
L 63.8775 290.962422 
z
" style="fill:#ff7f0e;"/>
   </g>
   <g id="patch_134">
    <path clip-path="url(#p0352787fd0)" d="M 66.6675 306.308317 
L 68.0625 306.308317 
L 68.0625 294.10294 
L 66.6675 294.10294 
z
" style="fill:#ff7f0e;"/>
   </g>
   <g id="patch_135">
    <path clip-path="url(#p0352787fd0)" d="M 69.4575 306.437971 
L 70.8525 306.437971 
L 70.8525 297.219748 
L 69.4575 297.219748 
z
" style="fill:#ff7f0e;"/>
   </g>
   <g id="patch_136">
    <path clip-path="url(#p0352787fd0)" d="M 72.2475 306.366394 
L 73.6425 306.366394 
L 73.6425 289.604285 
L 72.2475 289.604285 
z
" style="fill:#ff7f0e;"/>
   </g>
   <g id="patch_137">
    <path clip-path="url(#p0352787fd0)" d="M 75.0375 306.212631 
L 76.4325 306.212631 
L 76.4325 276.35883 
L 75.0375 276.35883 
z
" style="fill:#ff7f0e;"/>
   </g>
   <g id="patch_138">
    <path clip-path="url(#p0352787fd0)" d="M 77.8275 305.648871 
L 79.2225 305.648871 
L 79.2225 264.931063 
L 77.8275 264.931063 
z
" style="fill:#ff7f0e;"/>
   </g>
   <g id="patch_139">
    <path clip-path="url(#p0352787fd0)" d="M 80.6175 306.055358 
L 82.0125 306.055358 
L 82.0125 271.974837 
L 80.6175 271.974837 
z
" style="fill:#ff7f0e;"/>
   </g>
   <g id="patch_140">
    <path clip-path="url(#p0352787fd0)" d="M 83.4075 306.474888 
L 84.8025 306.474888 
L 84.8025 295.182436 
L 83.4075 295.182436 
z
" style="fill:#ff7f0e;"/>
   </g>
   <g id="patch_141">
    <path clip-path="url(#p0352787fd0)" d="M 86.1975 305.450937 
L 87.5925 305.450937 
L 87.5925 267.208655 
L 86.1975 267.208655 
z
" style="fill:#ff7f0e;"/>
   </g>
   <g id="patch_142">
    <path clip-path="url(#p0352787fd0)" d="M 88.9875 305.78578 
L 90.3825 305.78578 
L 90.3825 289.628447 
L 88.9875 289.628447 
z
" style="fill:#ff7f0e;"/>
   </g>
   <g id="patch_143">
    <path clip-path="url(#p0352787fd0)" d="M 91.7775 305.996023 
L 93.1725 305.996023 
L 93.1725 290.870609 
L 91.7775 290.870609 
z
" style="fill:#ff7f0e;"/>
   </g>
   <g id="patch_144">
    <path clip-path="url(#p0352787fd0)" d="M 94.5675 306.466144 
L 95.9625 306.466144 
L 95.9625 295.263774 
L 94.5675 295.263774 
z
" style="fill:#ff7f0e;"/>
   </g>
   <g id="patch_145">
    <path clip-path="url(#p0352787fd0)" d="M 97.3575 305.206903 
L 98.7525 305.206903 
L 98.7525 277.899792 
L 97.3575 277.899792 
z
" style="fill:#ff7f0e;"/>
   </g>
   <g id="patch_146">
    <path clip-path="url(#p0352787fd0)" d="M 100.1475 306.678353 
L 101.5425 306.678353 
L 101.5425 298.081406 
L 100.1475 298.081406 
z
" style="fill:#ff7f0e;"/>
   </g>
   <g id="patch_147">
    <path clip-path="url(#p0352787fd0)" d="M 102.9375 305.388625 
L 104.3325 305.388625 
L 104.3325 275.840509 
L 102.9375 275.840509 
z
" style="fill:#ff7f0e;"/>
   </g>
   <g id="patch_148">
    <path clip-path="url(#p0352787fd0)" d="M 105.7275 305.594805 
L 107.1225 305.594805 
L 107.1225 274.195044 
L 105.7275 274.195044 
z
" style="fill:#ff7f0e;"/>
   </g>
   <g id="patch_149">
    <path clip-path="url(#p0352787fd0)" d="M 108.5175 306.126236 
L 109.9125 306.126236 
L 109.9125 284.941875 
L 108.5175 284.941875 
z
" style="fill:#ff7f0e;"/>
   </g>
   <g id="patch_150">
    <path clip-path="url(#p0352787fd0)" d="M 111.3075 305.376209 
L 112.7025 305.376209 
L 112.7025 273.112528 
L 111.3075 273.112528 
z
" style="fill:#ff7f0e;"/>
   </g>
   <g id="patch_151">
    <path clip-path="url(#p0352787fd0)" d="M 114.0975 306.350104 
L 115.4925 306.350104 
L 115.4925 285.815813 
L 114.0975 285.815813 
z
" style="fill:#ff7f0e;"/>
   </g>
   <g id="patch_152">
    <path clip-path="url(#p0352787fd0)" d="M 116.8875 305.786834 
L 118.2825 305.786834 
L 118.2825 278.779607 
L 116.8875 278.779607 
z
" style="fill:#ff7f0e;"/>
   </g>
   <g id="patch_153">
    <path clip-path="url(#p0352787fd0)" d="M 119.6775 306.432168 
L 121.0725 306.432168 
L 121.0725 290.931802 
L 119.6775 290.931802 
z
" style="fill:#ff7f0e;"/>
   </g>
   <g id="patch_154">
    <path clip-path="url(#p0352787fd0)" d="M 122.4675 306.377126 
L 123.8625 306.377126 
L 123.8625 288.633435 
L 122.4675 288.633435 
z
" style="fill:#ff7f0e;"/>
   </g>
   <g id="patch_155">
    <path clip-path="url(#p0352787fd0)" d="M 125.2575 305.315198 
L 126.6525 305.315198 
L 126.6525 275.83159 
L 125.2575 275.83159 
z
" style="fill:#ff7f0e;"/>
   </g>
   <g id="patch_156">
    <path clip-path="url(#p0352787fd0)" d="M 128.0475 305.715102 
L 129.4425 305.715102 
L 129.4425 286.779114 
L 128.0475 286.779114 
z
" style="fill:#ff7f0e;"/>
   </g>
   <g id="patch_157">
    <path clip-path="url(#p0352787fd0)" d="M 130.8375 306.048844 
L 132.2325 306.048844 
L 132.2325 269.549761 
L 130.8375 269.549761 
z
" style="fill:#ff7f0e;"/>
   </g>
   <g id="patch_158">
    <path clip-path="url(#p0352787fd0)" d="M 133.6275 305.813464 
L 135.0225 305.813464 
L 135.0225 286.317006 
L 133.6275 286.317006 
z
" style="fill:#ff7f0e;"/>
   </g>
   <g id="patch_159">
    <path clip-path="url(#p0352787fd0)" d="M 136.4175 305.205155 
L 137.8125 305.205155 
L 137.8125 277.646339 
L 136.4175 277.646339 
z
" style="fill:#ff7f0e;"/>
   </g>
   <g id="patch_160">
    <path clip-path="url(#p0352787fd0)" d="M 139.2075 306.208395 
L 140.6025 306.208395 
L 140.6025 288.932943 
L 139.2075 288.932943 
z
" style="fill:#ff7f0e;"/>
   </g>
   <g id="patch_161">
    <path clip-path="url(#p0352787fd0)" d="M 141.9975 305.909069 
L 143.3925 305.909069 
L 143.3925 289.833534 
L 141.9975 289.833534 
z
" style="fill:#ff7f0e;"/>
   </g>
   <g id="patch_162">
    <path clip-path="url(#p0352787fd0)" d="M 144.7875 305.466891 
L 146.1825 305.466891 
L 146.1825 274.986883 
L 144.7875 274.986883 
z
" style="fill:#ff7f0e;"/>
   </g>
   <g id="patch_163">
    <path clip-path="url(#p0352787fd0)" d="M 147.5775 305.500298 
L 148.9725 305.500298 
L 148.9725 268.348535 
L 147.5775 268.348535 
z
" style="fill:#ff7f0e;"/>
   </g>
   <g id="patch_164">
    <path clip-path="url(#p0352787fd0)" d="M 150.3675 305.805449 
L 151.7625 305.805449 
L 151.7625 42.367616 
L 150.3675 42.367616 
z
" style="fill:#ff7f0e;"/>
   </g>
   <g id="patch_165">
    <path clip-path="url(#p0352787fd0)" d="M 153.1575 306.075002 
L 154.5525 306.075002 
L 154.5525 286.841656 
L 153.1575 286.841656 
z
" style="fill:#ff7f0e;"/>
   </g>
   <g id="patch_166">
    <path clip-path="url(#p0352787fd0)" d="M 155.9475 306.057447 
L 157.3425 306.057447 
L 157.3425 286.372076 
L 155.9475 286.372076 
z
" style="fill:#ff7f0e;"/>
   </g>
   <g id="patch_167">
    <path clip-path="url(#p0352787fd0)" d="M 158.7375 305.804518 
L 160.1325 305.804518 
L 160.1325 275.924411 
L 158.7375 275.924411 
z
" style="fill:#ff7f0e;"/>
   </g>
   <g id="patch_168">
    <path clip-path="url(#p0352787fd0)" d="M 161.5275 306.86447 
L 162.9225 306.86447 
L 162.9225 298.073241 
L 161.5275 298.073241 
z
" style="fill:#ff7f0e;"/>
   </g>
   <g id="patch_169">
    <path clip-path="url(#p0352787fd0)" d="M 164.3175 306.674359 
L 165.7125 306.674359 
L 165.7125 289.535989 
L 164.3175 289.535989 
z
" style="fill:#ff7f0e;"/>
   </g>
   <g id="patch_170">
    <path clip-path="url(#p0352787fd0)" d="M 167.1075 305.313552 
L 168.5025 305.313552 
L 168.5025 275.026679 
L 167.1075 275.026679 
z
" style="fill:#ff7f0e;"/>
   </g>
   <g id="patch_171">
    <path clip-path="url(#p0352787fd0)" d="M 169.8975 305.180067 
L 171.2925 305.180067 
L 171.2925 267.941189 
L 169.8975 267.941189 
z
" style="fill:#ff7f0e;"/>
   </g>
   <g id="patch_172">
    <path clip-path="url(#p0352787fd0)" d="M 172.6875 306.59308 
L 174.0825 306.59308 
L 174.0825 283.922144 
L 172.6875 283.922144 
z
" style="fill:#ff7f0e;"/>
   </g>
   <g id="patch_173">
    <path clip-path="url(#p0352787fd0)" d="M 175.4775 305.758369 
L 176.8725 305.758369 
L 176.8725 287.167803 
L 175.4775 287.167803 
z
" style="fill:#ff7f0e;"/>
   </g>
   <g id="patch_174">
    <path clip-path="url(#p0352787fd0)" d="M 178.2675 306.043151 
L 179.6625 306.043151 
L 179.6625 295.496687 
L 178.2675 295.496687 
z
" style="fill:#ff7f0e;"/>
   </g>
   <g id="patch_175">
    <path clip-path="url(#p0352787fd0)" d="M 181.0575 306.48771 
L 182.4525 306.48771 
L 182.4525 285.070455 
L 181.0575 285.070455 
z
" style="fill:#ff7f0e;"/>
   </g>
   <g id="patch_176">
    <path clip-path="url(#p0352787fd0)" d="M 183.8475 306.600002 
L 185.2425 306.600002 
L 185.2425 286.315863 
L 183.8475 286.315863 
z
" style="fill:#ff7f0e;"/>
   </g>
   <g id="patch_177">
    <path clip-path="url(#p0352787fd0)" d="M 186.6375 305.984964 
L 188.0325 305.984964 
L 188.0325 287.424619 
L 186.6375 287.424619 
z
" style="fill:#ff7f0e;"/>
   </g>
   <g id="patch_178">
    <path clip-path="url(#p0352787fd0)" d="M 189.4275 306.193271 
L 190.8225 306.193271 
L 190.8225 293.446184 
L 189.4275 293.446184 
z
" style="fill:#ff7f0e;"/>
   </g>
   <g id="patch_179">
    <path clip-path="url(#p0352787fd0)" d="M 192.2175 306.501309 
L 193.6125 306.501309 
L 193.6125 287.964681 
L 192.2175 287.964681 
z
" style="fill:#ff7f0e;"/>
   </g>
   <g id="patch_180">
    <path clip-path="url(#p0352787fd0)" d="M 195.0075 305.591298 
L 196.4025 305.591298 
L 196.4025 267.894808 
L 195.0075 267.894808 
z
" style="fill:#ff7f0e;"/>
   </g>
   <g id="patch_181">
    <path clip-path="url(#p0352787fd0)" d="M 197.7975 306.184714 
L 199.1925 306.184714 
L 199.1925 288.593435 
L 197.7975 288.593435 
z
" style="fill:#ff7f0e;"/>
   </g>
   <g id="patch_182">
    <path clip-path="url(#p0352787fd0)" d="M 200.5875 305.298144 
L 201.9825 305.298144 
L 201.9825 274.602462 
L 200.5875 274.602462 
z
" style="fill:#ff7f0e;"/>
   </g>
   <g id="patch_183">
    <path clip-path="url(#p0352787fd0)" d="M 203.3775 301.362923 
L 204.7725 301.362923 
L 204.7725 186.804588 
L 203.3775 186.804588 
z
" style="fill:#ff7f0e;"/>
   </g>
   <g id="patch_184">
    <path clip-path="url(#p0352787fd0)" d="M 206.1675 306.408509 
L 207.5625 306.408509 
L 207.5625 289.744411 
L 206.1675 289.744411 
z
" style="fill:#ff7f0e;"/>
   </g>
   <g id="patch_185">
    <path clip-path="url(#p0352787fd0)" d="M 208.9575 305.514262 
L 210.3525 305.514262 
L 210.3525 271.030291 
L 208.9575 271.030291 
z
" style="fill:#ff7f0e;"/>
   </g>
   <g id="patch_186">
    <path clip-path="url(#p0352787fd0)" d="M 211.7475 305.498954 
L 213.1425 305.498954 
L 213.1425 273.917901 
L 211.7475 273.917901 
z
" style="fill:#ff7f0e;"/>
   </g>
   <g id="patch_187">
    <path clip-path="url(#p0352787fd0)" d="M 214.5375 306.108116 
L 215.9325 306.108116 
L 215.9325 288.094246 
L 214.5375 288.094246 
z
" style="fill:#ff7f0e;"/>
   </g>
   <g id="patch_188">
    <path clip-path="url(#p0352787fd0)" d="M 217.3275 304.394592 
L 218.7225 304.394592 
L 218.7225 89.154766 
L 217.3275 89.154766 
z
" style="fill:#ff7f0e;"/>
   </g>
   <g id="patch_189">
    <path clip-path="url(#p0352787fd0)" d="M 220.1175 305.666028 
L 221.5125 305.666028 
L 221.5125 195.090284 
L 220.1175 195.090284 
z
" style="fill:#ff7f0e;"/>
   </g>
   <g id="patch_190">
    <path clip-path="url(#p0352787fd0)" d="M 222.9075 305.556758 
L 224.3025 305.556758 
L 224.3025 273.039041 
L 222.9075 273.039041 
z
" style="fill:#ff7f0e;"/>
   </g>
   <g id="patch_191">
    <path clip-path="url(#p0352787fd0)" d="M 225.6975 306.553948 
L 227.0925 306.553948 
L 227.0925 280.613877 
L 225.6975 280.613877 
z
" style="fill:#ff7f0e;"/>
   </g>
   <g id="patch_192">
    <path clip-path="url(#p0352787fd0)" d="M 228.4875 305.559311 
L 229.8825 305.559311 
L 229.8825 277.536619 
L 228.4875 277.536619 
z
" style="fill:#ff7f0e;"/>
   </g>
   <g id="patch_193">
    <path clip-path="url(#p0352787fd0)" d="M 231.2775 306.515461 
L 232.6725 306.515461 
L 232.6725 281.894289 
L 231.2775 281.894289 
z
" style="fill:#ff7f0e;"/>
   </g>
   <g id="patch_194">
    <path clip-path="url(#p0352787fd0)" d="M 234.0675 305.637255 
L 235.4625 305.637255 
L 235.4625 280.894189 
L 234.0675 280.894189 
z
" style="fill:#ff7f0e;"/>
   </g>
   <g id="patch_195">
    <path clip-path="url(#p0352787fd0)" d="M 236.8575 306.064046 
L 238.2525 306.064046 
L 238.2525 291.245739 
L 236.8575 291.245739 
z
" style="fill:#ff7f0e;"/>
   </g>
   <g id="patch_196">
    <path clip-path="url(#p0352787fd0)" d="M 239.6475 306.555364 
L 241.0425 306.555364 
L 241.0425 288.761965 
L 239.6475 288.761965 
z
" style="fill:#ff7f0e;"/>
   </g>
   <g id="patch_197">
    <path clip-path="url(#p0352787fd0)" d="M 242.4375 306.037275 
L 243.8325 306.037275 
L 243.8325 275.508459 
L 242.4375 275.508459 
z
" style="fill:#ff7f0e;"/>
   </g>
   <g id="patch_198">
    <path clip-path="url(#p0352787fd0)" d="M 245.2275 305.763016 
L 246.6225 305.763016 
L 246.6225 276.867309 
L 245.2275 276.867309 
z
" style="fill:#ff7f0e;"/>
   </g>
   <g id="patch_199">
    <path clip-path="url(#p0352787fd0)" d="M 248.0175 306.081439 
L 249.4125 306.081439 
L 249.4125 280.048451 
L 248.0175 280.048451 
z
" style="fill:#ff7f0e;"/>
   </g>
   <g id="patch_200">
    <path clip-path="url(#p0352787fd0)" d="M 250.8075 306.320352 
L 252.2025 306.320352 
L 252.2025 283.108363 
L 250.8075 283.108363 
z
" style="fill:#ff7f0e;"/>
   </g>
   <g id="patch_201">
    <path clip-path="url(#p0352787fd0)" d="M 253.5975 306.13642 
L 254.9925 306.13642 
L 254.9925 290.127283 
L 253.5975 290.127283 
z
" style="fill:#ff7f0e;"/>
   </g>
   <g id="patch_202">
    <path clip-path="url(#p0352787fd0)" d="M 256.3875 305.909533 
L 257.7825 305.909533 
L 257.7825 282.585695 
L 256.3875 282.585695 
z
" style="fill:#ff7f0e;"/>
   </g>
   <g id="patch_203">
    <path clip-path="url(#p0352787fd0)" d="M 259.1775 306.595652 
L 260.5725 306.595652 
L 260.5725 294.299886 
L 259.1775 294.299886 
z
" style="fill:#ff7f0e;"/>
   </g>
   <g id="patch_204">
    <path clip-path="url(#p0352787fd0)" d="M 261.9675 305.614289 
L 263.3625 305.614289 
L 263.3625 273.230556 
L 261.9675 273.230556 
z
" style="fill:#ff7f0e;"/>
   </g>
   <g id="patch_205">
    <path clip-path="url(#p0352787fd0)" d="M 264.7575 305.648559 
L 266.1525 305.648559 
L 266.1525 280.6759 
L 264.7575 280.6759 
z
" style="fill:#ff7f0e;"/>
   </g>
   <g id="patch_206">
    <path clip-path="url(#p0352787fd0)" d="M 267.5475 305.216608 
L 268.9425 305.216608 
L 268.9425 276.641271 
L 267.5475 276.641271 
z
" style="fill:#ff7f0e;"/>
   </g>
   <g id="patch_207">
    <path clip-path="url(#p0352787fd0)" d="M 270.3375 305.825483 
L 271.7325 305.825483 
L 271.7325 262.949909 
L 270.3375 262.949909 
z
" style="fill:#ff7f0e;"/>
   </g>
   <g id="patch_208">
    <path clip-path="url(#p0352787fd0)" d="M 273.1275 306.599214 
L 274.5225 306.599214 
L 274.5225 294.313371 
L 273.1275 294.313371 
z
" style="fill:#ff7f0e;"/>
   </g>
   <g id="patch_209">
    <path clip-path="url(#p0352787fd0)" d="M 275.9175 305.943294 
L 277.3125 305.943294 
L 277.3125 285.506409 
L 275.9175 285.506409 
z
" style="fill:#ff7f0e;"/>
   </g>
   <g id="patch_210">
    <path clip-path="url(#p0352787fd0)" d="M 278.7075 305.409956 
L 280.1025 305.409956 
L 280.1025 41.472 
L 278.7075 41.472 
z
" style="fill:#ff7f0e;"/>
   </g>
   <g id="patch_211">
    <path clip-path="url(#p0352787fd0)" d="M 281.4975 304.87967 
L 282.8925 304.87967 
L 282.8925 251.383095 
L 281.4975 251.383095 
z
" style="fill:#ff7f0e;"/>
   </g>
   <g id="patch_212">
    <path clip-path="url(#p0352787fd0)" d="M 284.2875 306.53953 
L 285.6825 306.53953 
L 285.6825 285.963884 
L 284.2875 285.963884 
z
" style="fill:#ff7f0e;"/>
   </g>
   <g id="patch_213">
    <path clip-path="url(#p0352787fd0)" d="M 287.0775 306.640344 
L 288.4725 306.640344 
L 288.4725 294.501298 
L 287.0775 294.501298 
z
" style="fill:#ff7f0e;"/>
   </g>
   <g id="patch_214">
    <path clip-path="url(#p0352787fd0)" d="M 289.8675 306.085642 
L 291.2625 306.085642 
L 291.2625 287.162283 
L 289.8675 287.162283 
z
" style="fill:#ff7f0e;"/>
   </g>
   <g id="patch_215">
    <path clip-path="url(#p0352787fd0)" d="M 292.6575 305.12592 
L 294.0525 305.12592 
L 294.0525 262.561504 
L 292.6575 262.561504 
z
" style="fill:#ff7f0e;"/>
   </g>
   <g id="patch_216">
    <path clip-path="url(#p0352787fd0)" d="M 295.4475 306.614854 
L 296.8425 306.614854 
L 296.8425 292.220772 
L 295.4475 292.220772 
z
" style="fill:#ff7f0e;"/>
   </g>
   <g id="patch_217">
    <path clip-path="url(#p0352787fd0)" d="M 298.2375 306.280501 
L 299.6325 306.280501 
L 299.6325 287.067467 
L 298.2375 287.067467 
z
" style="fill:#ff7f0e;"/>
   </g>
   <g id="patch_218">
    <path clip-path="url(#p0352787fd0)" d="M 301.0275 306.647317 
L 302.4225 306.647317 
L 302.4225 292.686096 
L 301.0275 292.686096 
z
" style="fill:#ff7f0e;"/>
   </g>
   <g id="patch_219">
    <path clip-path="url(#p0352787fd0)" d="M 303.8175 305.770091 
L 305.2125 305.770091 
L 305.2125 271.40639 
L 303.8175 271.40639 
z
" style="fill:#ff7f0e;"/>
   </g>
   <g id="patch_220">
    <path clip-path="url(#p0352787fd0)" d="M 306.6075 306.481795 
L 308.0025 306.481795 
L 308.0025 288.809094 
L 306.6075 288.809094 
z
" style="fill:#ff7f0e;"/>
   </g>
   <g id="patch_221">
    <path clip-path="url(#p0352787fd0)" d="M 309.3975 305.587795 
L 310.7925 305.587795 
L 310.7925 266.442878 
L 309.3975 266.442878 
z
" style="fill:#ff7f0e;"/>
   </g>
   <g id="patch_222">
    <path clip-path="url(#p0352787fd0)" d="M 312.1875 306.137585 
L 313.5825 306.137585 
L 313.5825 281.922049 
L 312.1875 281.922049 
z
" style="fill:#ff7f0e;"/>
   </g>
   <g id="patch_223">
    <path clip-path="url(#p0352787fd0)" d="M 314.9775 305.701405 
L 316.3725 305.701405 
L 316.3725 282.152324 
L 314.9775 282.152324 
z
" style="fill:#ff7f0e;"/>
   </g>
   <g id="patch_224">
    <path clip-path="url(#p0352787fd0)" d="M 317.7675 305.312787 
L 319.1625 305.312787 
L 319.1625 259.120287 
L 317.7675 259.120287 
z
" style="fill:#ff7f0e;"/>
   </g>
   <g id="patch_225">
    <path clip-path="url(#p0352787fd0)" d="M 320.5575 306.163028 
L 321.9525 306.163028 
L 321.9525 278.475241 
L 320.5575 278.475241 
z
" style="fill:#ff7f0e;"/>
   </g>
   <g id="patch_226">
    <path clip-path="url(#p0352787fd0)" d="M 323.3475 306.109914 
L 324.7425 306.109914 
L 324.7425 272.095947 
L 323.3475 272.095947 
z
" style="fill:#ff7f0e;"/>
   </g>
   <g id="patch_227">
    <path clip-path="url(#p0352787fd0)" d="M 326.1375 305.577445 
L 327.5325 305.577445 
L 327.5325 266.764169 
L 326.1375 266.764169 
z
" style="fill:#ff7f0e;"/>
   </g>
   <g id="patch_228">
    <path clip-path="url(#p0352787fd0)" d="M 328.9275 306.565872 
L 330.3225 306.565872 
L 330.3225 287.96567 
L 328.9275 287.96567 
z
" style="fill:#ff7f0e;"/>
   </g>
   <g id="patch_229">
    <path clip-path="url(#p0352787fd0)" d="M 331.7175 305.962712 
L 333.1125 305.962712 
L 333.1125 281.118444 
L 331.7175 281.118444 
z
" style="fill:#ff7f0e;"/>
   </g>
   <g id="patch_230">
    <path clip-path="url(#p0352787fd0)" d="M 334.5075 305.834503 
L 335.9025 305.834503 
L 335.9025 288.92807 
L 334.5075 288.92807 
z
" style="fill:#ff7f0e;"/>
   </g>
   <g id="patch_231">
    <path clip-path="url(#p0352787fd0)" d="M 337.2975 304.919373 
L 338.6925 304.919373 
L 338.6925 267.415897 
L 337.2975 267.415897 
z
" style="fill:#ff7f0e;"/>
   </g>
   <g id="patch_232">
    <path clip-path="url(#p0352787fd0)" d="M 340.0875 305.359397 
L 341.4825 305.359397 
L 341.4825 267.154081 
L 340.0875 267.154081 
z
" style="fill:#ff7f0e;"/>
   </g>
   <g id="patch_233">
    <path clip-path="url(#p0352787fd0)" d="M 342.8775 305.659912 
L 344.2725 305.659912 
L 344.2725 284.522676 
L 342.8775 284.522676 
z
" style="fill:#ff7f0e;"/>
   </g>
   <g id="patch_234">
    <path clip-path="url(#p0352787fd0)" d="M 345.6675 305.786947 
L 347.0625 305.786947 
L 347.0625 281.60491 
L 345.6675 281.60491 
z
" style="fill:#ff7f0e;"/>
   </g>
   <g id="patch_235">
    <path clip-path="url(#p0352787fd0)" d="M 348.4575 306.80919 
L 349.8525 306.80919 
L 349.8525 294.768947 
L 348.4575 294.768947 
z
" style="fill:#ff7f0e;"/>
   </g>
   <g id="patch_236">
    <path clip-path="url(#p0352787fd0)" d="M 351.2475 305.740555 
L 352.6425 305.740555 
L 352.6425 273.389588 
L 351.2475 273.389588 
z
" style="fill:#ff7f0e;"/>
   </g>
   <g id="patch_237">
    <path clip-path="url(#p0352787fd0)" d="M 354.0375 306.114377 
L 355.4325 306.114377 
L 355.4325 282.23534 
L 354.0375 282.23534 
z
" style="fill:#ff7f0e;"/>
   </g>
   <g id="patch_238">
    <path clip-path="url(#p0352787fd0)" d="M 356.8275 305.816166 
L 358.2225 305.816166 
L 358.2225 276.413701 
L 356.8275 276.413701 
z
" style="fill:#ff7f0e;"/>
   </g>
   <g id="patch_239">
    <path clip-path="url(#p0352787fd0)" d="M 359.6175 305.485846 
L 361.0125 305.485846 
L 361.0125 281.787416 
L 359.6175 281.787416 
z
" style="fill:#ff7f0e;"/>
   </g>
   <g id="patch_240">
    <path clip-path="url(#p0352787fd0)" d="M 362.4075 306.235536 
L 363.8025 306.235536 
L 363.8025 285.606748 
L 362.4075 285.606748 
z
" style="fill:#ff7f0e;"/>
   </g>
   <g id="patch_241">
    <path clip-path="url(#p0352787fd0)" d="M 365.1975 306.504101 
L 366.5925 306.504101 
L 366.5925 287.100195 
L 365.1975 287.100195 
z
" style="fill:#ff7f0e;"/>
   </g>
   <g id="patch_242">
    <path clip-path="url(#p0352787fd0)" d="M 367.9875 305.958623 
L 369.3825 305.958623 
L 369.3825 280.676025 
L 367.9875 280.676025 
z
" style="fill:#ff7f0e;"/>
   </g>
   <g id="patch_243">
    <path clip-path="url(#p0352787fd0)" d="M 370.7775 305.322939 
L 372.1725 305.322939 
L 372.1725 265.862536 
L 370.7775 265.862536 
z
" style="fill:#ff7f0e;"/>
   </g>
   <g id="patch_244">
    <path clip-path="url(#p0352787fd0)" d="M 373.5675 305.983227 
L 374.9625 305.983227 
L 374.9625 290.005534 
L 373.5675 290.005534 
z
" style="fill:#ff7f0e;"/>
   </g>
   <g id="patch_245">
    <path clip-path="url(#p0352787fd0)" d="M 376.3575 306.561436 
L 377.7525 306.561436 
L 377.7525 296.498807 
L 376.3575 296.498807 
z
" style="fill:#ff7f0e;"/>
   </g>
   <g id="patch_246">
    <path clip-path="url(#p0352787fd0)" d="M 379.1475 306.107962 
L 380.5425 306.107962 
L 380.5425 279.486112 
L 379.1475 279.486112 
z
" style="fill:#ff7f0e;"/>
   </g>
   <g id="patch_247">
    <path clip-path="url(#p0352787fd0)" d="M 381.9375 306.41539 
L 383.3325 306.41539 
L 383.3325 297.5265 
L 381.9375 297.5265 
z
" style="fill:#ff7f0e;"/>
   </g>
   <g id="patch_248">
    <path clip-path="url(#p0352787fd0)" d="M 384.7275 305.461498 
L 386.1225 305.461498 
L 386.1225 272.553299 
L 384.7275 272.553299 
z
" style="fill:#ff7f0e;"/>
   </g>
   <g id="patch_249">
    <path clip-path="url(#p0352787fd0)" d="M 387.5175 305.614854 
L 388.9125 305.614854 
L 388.9125 279.863376 
L 387.5175 279.863376 
z
" style="fill:#ff7f0e;"/>
   </g>
   <g id="patch_250">
    <path clip-path="url(#p0352787fd0)" d="M 390.3075 306.570717 
L 391.7025 306.570717 
L 391.7025 284.525765 
L 390.3075 284.525765 
z
" style="fill:#ff7f0e;"/>
   </g>
   <g id="patch_251">
    <path clip-path="url(#p0352787fd0)" d="M 393.0975 306.387637 
L 394.4925 306.387637 
L 394.4925 285.241987 
L 393.0975 285.241987 
z
" style="fill:#ff7f0e;"/>
   </g>
   <g id="patch_252">
    <path clip-path="url(#p0352787fd0)" d="M 395.8875 305.803302 
L 397.2825 305.803302 
L 397.2825 282.292516 
L 395.8875 282.292516 
z
" style="fill:#ff7f0e;"/>
   </g>
   <g id="patch_253">
    <path clip-path="url(#p0352787fd0)" d="M 398.6775 306.056749 
L 400.0725 306.056749 
L 400.0725 286.546912 
L 398.6775 286.546912 
z
" style="fill:#ff7f0e;"/>
   </g>
   <g id="patch_254">
    <path clip-path="url(#p0352787fd0)" d="M 401.4675 305.927539 
L 402.8625 305.927539 
L 402.8625 286.563049 
L 401.4675 286.563049 
z
" style="fill:#ff7f0e;"/>
   </g>
   <g id="patch_255">
    <path clip-path="url(#p0352787fd0)" d="M 404.2575 305.16082 
L 405.6525 305.16082 
L 405.6525 273.816429 
L 404.2575 273.816429 
z
" style="fill:#ff7f0e;"/>
   </g>
   <g id="patch_256">
    <path clip-path="url(#p0352787fd0)" d="M 407.0475 305.465519 
L 408.4425 305.465519 
L 408.4425 275.023057 
L 407.0475 275.023057 
z
" style="fill:#ff7f0e;"/>
   </g>
   <g id="patch_257">
    <path clip-path="url(#p0352787fd0)" d="M 409.8375 305.813737 
L 411.2325 305.813737 
L 411.2325 280.25643 
L 409.8375 280.25643 
z
" style="fill:#ff7f0e;"/>
   </g>
   <g id="patch_258">
    <path clip-path="url(#p0352787fd0)" d="M 412.6275 306.860669 
L 414.0225 306.860669 
L 414.0225 296.369433 
L 412.6275 296.369433 
z
" style="fill:#ff7f0e;"/>
   </g>
   <g id="matplotlib.axis_1">
    <g id="xtick_1">
     <g id="line2d_1">
      <defs>
       <path d="M 0 0 
L 0 3.5 
" id="mbc1c20d80e" style="stroke:#000000;stroke-width:0.8;"/>
      </defs>
      <g>
       <use style="stroke:#000000;stroke-width:0.8;" x="58.995" xlink:href="#mbc1c20d80e" y="307.584"/>
      </g>
     </g>
     <g id="text_1">
      <!-- 0 -->
      <g transform="translate(61.754375 320.9465)rotate(-90)scale(0.1 -0.1)">
       <defs>
        <path d="M 2034 4250 
Q 1547 4250 1301 3770 
Q 1056 3291 1056 2328 
Q 1056 1369 1301 889 
Q 1547 409 2034 409 
Q 2525 409 2770 889 
Q 3016 1369 3016 2328 
Q 3016 3291 2770 3770 
Q 2525 4250 2034 4250 
z
M 2034 4750 
Q 2819 4750 3233 4129 
Q 3647 3509 3647 2328 
Q 3647 1150 3233 529 
Q 2819 -91 2034 -91 
Q 1250 -91 836 529 
Q 422 1150 422 2328 
Q 422 3509 836 4129 
Q 1250 4750 2034 4750 
z
" id="DejaVuSans-30" transform="scale(0.015625)"/>
       </defs>
       <use xlink:href="#DejaVuSans-30"/>
      </g>
     </g>
    </g>
    <g id="xtick_2">
     <g id="line2d_2">
      <g>
       <use style="stroke:#000000;stroke-width:0.8;" x="103.635" xlink:href="#mbc1c20d80e" y="307.584"/>
      </g>
     </g>
     <g id="text_2">
      <!-- 16 -->
      <g transform="translate(106.394375 327.309)rotate(-90)scale(0.1 -0.1)">
       <defs>
        <path d="M 794 531 
L 1825 531 
L 1825 4091 
L 703 3866 
L 703 4441 
L 1819 4666 
L 2450 4666 
L 2450 531 
L 3481 531 
L 3481 0 
L 794 0 
L 794 531 
z
" id="DejaVuSans-31" transform="scale(0.015625)"/>
        <path d="M 2113 2584 
Q 1688 2584 1439 2293 
Q 1191 2003 1191 1497 
Q 1191 994 1439 701 
Q 1688 409 2113 409 
Q 2538 409 2786 701 
Q 3034 994 3034 1497 
Q 3034 2003 2786 2293 
Q 2538 2584 2113 2584 
z
M 3366 4563 
L 3366 3988 
Q 3128 4100 2886 4159 
Q 2644 4219 2406 4219 
Q 1781 4219 1451 3797 
Q 1122 3375 1075 2522 
Q 1259 2794 1537 2939 
Q 1816 3084 2150 3084 
Q 2853 3084 3261 2657 
Q 3669 2231 3669 1497 
Q 3669 778 3244 343 
Q 2819 -91 2113 -91 
Q 1303 -91 875 529 
Q 447 1150 447 2328 
Q 447 3434 972 4092 
Q 1497 4750 2381 4750 
Q 2619 4750 2861 4703 
Q 3103 4656 3366 4563 
z
" id="DejaVuSans-36" transform="scale(0.015625)"/>
       </defs>
       <use xlink:href="#DejaVuSans-31"/>
       <use x="63.623047" xlink:href="#DejaVuSans-36"/>
      </g>
     </g>
    </g>
    <g id="xtick_3">
     <g id="line2d_3">
      <g>
       <use style="stroke:#000000;stroke-width:0.8;" x="148.275" xlink:href="#mbc1c20d80e" y="307.584"/>
      </g>
     </g>
     <g id="text_3">
      <!-- 32 -->
      <g transform="translate(151.034375 327.309)rotate(-90)scale(0.1 -0.1)">
       <defs>
        <path d="M 2597 2516 
Q 3050 2419 3304 2112 
Q 3559 1806 3559 1356 
Q 3559 666 3084 287 
Q 2609 -91 1734 -91 
Q 1441 -91 1130 -33 
Q 819 25 488 141 
L 488 750 
Q 750 597 1062 519 
Q 1375 441 1716 441 
Q 2309 441 2620 675 
Q 2931 909 2931 1356 
Q 2931 1769 2642 2001 
Q 2353 2234 1838 2234 
L 1294 2234 
L 1294 2753 
L 1863 2753 
Q 2328 2753 2575 2939 
Q 2822 3125 2822 3475 
Q 2822 3834 2567 4026 
Q 2313 4219 1838 4219 
Q 1578 4219 1281 4162 
Q 984 4106 628 3988 
L 628 4550 
Q 988 4650 1302 4700 
Q 1616 4750 1894 4750 
Q 2613 4750 3031 4423 
Q 3450 4097 3450 3541 
Q 3450 3153 3228 2886 
Q 3006 2619 2597 2516 
z
" id="DejaVuSans-33" transform="scale(0.015625)"/>
        <path d="M 1228 531 
L 3431 531 
L 3431 0 
L 469 0 
L 469 531 
Q 828 903 1448 1529 
Q 2069 2156 2228 2338 
Q 2531 2678 2651 2914 
Q 2772 3150 2772 3378 
Q 2772 3750 2511 3984 
Q 2250 4219 1831 4219 
Q 1534 4219 1204 4116 
Q 875 4013 500 3803 
L 500 4441 
Q 881 4594 1212 4672 
Q 1544 4750 1819 4750 
Q 2544 4750 2975 4387 
Q 3406 4025 3406 3419 
Q 3406 3131 3298 2873 
Q 3191 2616 2906 2266 
Q 2828 2175 2409 1742 
Q 1991 1309 1228 531 
z
" id="DejaVuSans-32" transform="scale(0.015625)"/>
       </defs>
       <use xlink:href="#DejaVuSans-33"/>
       <use x="63.623047" xlink:href="#DejaVuSans-32"/>
      </g>
     </g>
    </g>
    <g id="xtick_4">
     <g id="line2d_4">
      <g>
       <use style="stroke:#000000;stroke-width:0.8;" x="192.915" xlink:href="#mbc1c20d80e" y="307.584"/>
      </g>
     </g>
     <g id="text_4">
      <!-- 48 -->
      <g transform="translate(195.674375 327.309)rotate(-90)scale(0.1 -0.1)">
       <defs>
        <path d="M 2419 4116 
L 825 1625 
L 2419 1625 
L 2419 4116 
z
M 2253 4666 
L 3047 4666 
L 3047 1625 
L 3713 1625 
L 3713 1100 
L 3047 1100 
L 3047 0 
L 2419 0 
L 2419 1100 
L 313 1100 
L 313 1709 
L 2253 4666 
z
" id="DejaVuSans-34" transform="scale(0.015625)"/>
        <path d="M 2034 2216 
Q 1584 2216 1326 1975 
Q 1069 1734 1069 1313 
Q 1069 891 1326 650 
Q 1584 409 2034 409 
Q 2484 409 2743 651 
Q 3003 894 3003 1313 
Q 3003 1734 2745 1975 
Q 2488 2216 2034 2216 
z
M 1403 2484 
Q 997 2584 770 2862 
Q 544 3141 544 3541 
Q 544 4100 942 4425 
Q 1341 4750 2034 4750 
Q 2731 4750 3128 4425 
Q 3525 4100 3525 3541 
Q 3525 3141 3298 2862 
Q 3072 2584 2669 2484 
Q 3125 2378 3379 2068 
Q 3634 1759 3634 1313 
Q 3634 634 3220 271 
Q 2806 -91 2034 -91 
Q 1263 -91 848 271 
Q 434 634 434 1313 
Q 434 1759 690 2068 
Q 947 2378 1403 2484 
z
M 1172 3481 
Q 1172 3119 1398 2916 
Q 1625 2713 2034 2713 
Q 2441 2713 2670 2916 
Q 2900 3119 2900 3481 
Q 2900 3844 2670 4047 
Q 2441 4250 2034 4250 
Q 1625 4250 1398 4047 
Q 1172 3844 1172 3481 
z
" id="DejaVuSans-38" transform="scale(0.015625)"/>
       </defs>
       <use xlink:href="#DejaVuSans-34"/>
       <use x="63.623047" xlink:href="#DejaVuSans-38"/>
      </g>
     </g>
    </g>
    <g id="xtick_5">
     <g id="line2d_5">
      <g>
       <use style="stroke:#000000;stroke-width:0.8;" x="237.555" xlink:href="#mbc1c20d80e" y="307.584"/>
      </g>
     </g>
     <g id="text_5">
      <!-- 64 -->
      <g transform="translate(240.314375 327.309)rotate(-90)scale(0.1 -0.1)">
       <use xlink:href="#DejaVuSans-36"/>
       <use x="63.623047" xlink:href="#DejaVuSans-34"/>
      </g>
     </g>
    </g>
    <g id="xtick_6">
     <g id="line2d_6">
      <g>
       <use style="stroke:#000000;stroke-width:0.8;" x="282.195" xlink:href="#mbc1c20d80e" y="307.584"/>
      </g>
     </g>
     <g id="text_6">
      <!-- 80 -->
      <g transform="translate(284.954375 327.309)rotate(-90)scale(0.1 -0.1)">
       <use xlink:href="#DejaVuSans-38"/>
       <use x="63.623047" xlink:href="#DejaVuSans-30"/>
      </g>
     </g>
    </g>
    <g id="xtick_7">
     <g id="line2d_7">
      <g>
       <use style="stroke:#000000;stroke-width:0.8;" x="326.835" xlink:href="#mbc1c20d80e" y="307.584"/>
      </g>
     </g>
     <g id="text_7">
      <!-- 96 -->
      <g transform="translate(329.594375 327.309)rotate(-90)scale(0.1 -0.1)">
       <defs>
        <path d="M 703 97 
L 703 672 
Q 941 559 1184 500 
Q 1428 441 1663 441 
Q 2288 441 2617 861 
Q 2947 1281 2994 2138 
Q 2813 1869 2534 1725 
Q 2256 1581 1919 1581 
Q 1219 1581 811 2004 
Q 403 2428 403 3163 
Q 403 3881 828 4315 
Q 1253 4750 1959 4750 
Q 2769 4750 3195 4129 
Q 3622 3509 3622 2328 
Q 3622 1225 3098 567 
Q 2575 -91 1691 -91 
Q 1453 -91 1209 -44 
Q 966 3 703 97 
z
M 1959 2075 
Q 2384 2075 2632 2365 
Q 2881 2656 2881 3163 
Q 2881 3666 2632 3958 
Q 2384 4250 1959 4250 
Q 1534 4250 1286 3958 
Q 1038 3666 1038 3163 
Q 1038 2656 1286 2365 
Q 1534 2075 1959 2075 
z
" id="DejaVuSans-39" transform="scale(0.015625)"/>
       </defs>
       <use xlink:href="#DejaVuSans-39"/>
       <use x="63.623047" xlink:href="#DejaVuSans-36"/>
      </g>
     </g>
    </g>
    <g id="xtick_8">
     <g id="line2d_8">
      <g>
       <use style="stroke:#000000;stroke-width:0.8;" x="371.475" xlink:href="#mbc1c20d80e" y="307.584"/>
      </g>
     </g>
     <g id="text_8">
      <!-- 112 -->
      <g transform="translate(374.234375 333.6715)rotate(-90)scale(0.1 -0.1)">
       <use xlink:href="#DejaVuSans-31"/>
       <use x="63.623047" xlink:href="#DejaVuSans-31"/>
       <use x="127.246094" xlink:href="#DejaVuSans-32"/>
      </g>
     </g>
    </g>
    <g id="xtick_9">
     <g id="line2d_9">
      <g>
       <use style="stroke:#000000;stroke-width:0.8;" x="413.325" xlink:href="#mbc1c20d80e" y="307.584"/>
      </g>
     </g>
     <g id="text_9">
      <!-- 127 -->
      <g transform="translate(416.084375 333.6715)rotate(-90)scale(0.1 -0.1)">
       <defs>
        <path d="M 525 4666 
L 3525 4666 
L 3525 4397 
L 1831 0 
L 1172 0 
L 2766 4134 
L 525 4134 
L 525 4666 
z
" id="DejaVuSans-37" transform="scale(0.015625)"/>
       </defs>
       <use xlink:href="#DejaVuSans-31"/>
       <use x="63.623047" xlink:href="#DejaVuSans-32"/>
       <use x="127.246094" xlink:href="#DejaVuSans-37"/>
      </g>
     </g>
    </g>
    <g id="text_10">
     <!-- domain -->
     <g transform="translate(217.434219 345.269937)scale(0.1 -0.1)">
      <defs>
       <path d="M 2906 2969 
L 2906 4863 
L 3481 4863 
L 3481 0 
L 2906 0 
L 2906 525 
Q 2725 213 2448 61 
Q 2172 -91 1784 -91 
Q 1150 -91 751 415 
Q 353 922 353 1747 
Q 353 2572 751 3078 
Q 1150 3584 1784 3584 
Q 2172 3584 2448 3432 
Q 2725 3281 2906 2969 
z
M 947 1747 
Q 947 1113 1208 752 
Q 1469 391 1925 391 
Q 2381 391 2643 752 
Q 2906 1113 2906 1747 
Q 2906 2381 2643 2742 
Q 2381 3103 1925 3103 
Q 1469 3103 1208 2742 
Q 947 2381 947 1747 
z
" id="DejaVuSans-64" transform="scale(0.015625)"/>
       <path d="M 1959 3097 
Q 1497 3097 1228 2736 
Q 959 2375 959 1747 
Q 959 1119 1226 758 
Q 1494 397 1959 397 
Q 2419 397 2687 759 
Q 2956 1122 2956 1747 
Q 2956 2369 2687 2733 
Q 2419 3097 1959 3097 
z
M 1959 3584 
Q 2709 3584 3137 3096 
Q 3566 2609 3566 1747 
Q 3566 888 3137 398 
Q 2709 -91 1959 -91 
Q 1206 -91 779 398 
Q 353 888 353 1747 
Q 353 2609 779 3096 
Q 1206 3584 1959 3584 
z
" id="DejaVuSans-6f" transform="scale(0.015625)"/>
       <path d="M 3328 2828 
Q 3544 3216 3844 3400 
Q 4144 3584 4550 3584 
Q 5097 3584 5394 3201 
Q 5691 2819 5691 2113 
L 5691 0 
L 5113 0 
L 5113 2094 
Q 5113 2597 4934 2840 
Q 4756 3084 4391 3084 
Q 3944 3084 3684 2787 
Q 3425 2491 3425 1978 
L 3425 0 
L 2847 0 
L 2847 2094 
Q 2847 2600 2669 2842 
Q 2491 3084 2119 3084 
Q 1678 3084 1418 2786 
Q 1159 2488 1159 1978 
L 1159 0 
L 581 0 
L 581 3500 
L 1159 3500 
L 1159 2956 
Q 1356 3278 1631 3431 
Q 1906 3584 2284 3584 
Q 2666 3584 2933 3390 
Q 3200 3197 3328 2828 
z
" id="DejaVuSans-6d" transform="scale(0.015625)"/>
       <path d="M 2194 1759 
Q 1497 1759 1228 1600 
Q 959 1441 959 1056 
Q 959 750 1161 570 
Q 1363 391 1709 391 
Q 2188 391 2477 730 
Q 2766 1069 2766 1631 
L 2766 1759 
L 2194 1759 
z
M 3341 1997 
L 3341 0 
L 2766 0 
L 2766 531 
Q 2569 213 2275 61 
Q 1981 -91 1556 -91 
Q 1019 -91 701 211 
Q 384 513 384 1019 
Q 384 1609 779 1909 
Q 1175 2209 1959 2209 
L 2766 2209 
L 2766 2266 
Q 2766 2663 2505 2880 
Q 2244 3097 1772 3097 
Q 1472 3097 1187 3025 
Q 903 2953 641 2809 
L 641 3341 
Q 956 3463 1253 3523 
Q 1550 3584 1831 3584 
Q 2591 3584 2966 3190 
Q 3341 2797 3341 1997 
z
" id="DejaVuSans-61" transform="scale(0.015625)"/>
       <path d="M 603 3500 
L 1178 3500 
L 1178 0 
L 603 0 
L 603 3500 
z
M 603 4863 
L 1178 4863 
L 1178 4134 
L 603 4134 
L 603 4863 
z
" id="DejaVuSans-69" transform="scale(0.015625)"/>
       <path d="M 3513 2113 
L 3513 0 
L 2938 0 
L 2938 2094 
Q 2938 2591 2744 2837 
Q 2550 3084 2163 3084 
Q 1697 3084 1428 2787 
Q 1159 2491 1159 1978 
L 1159 0 
L 581 0 
L 581 3500 
L 1159 3500 
L 1159 2956 
Q 1366 3272 1645 3428 
Q 1925 3584 2291 3584 
Q 2894 3584 3203 3211 
Q 3513 2838 3513 2113 
z
" id="DejaVuSans-6e" transform="scale(0.015625)"/>
      </defs>
      <use xlink:href="#DejaVuSans-64"/>
      <use x="63.476562" xlink:href="#DejaVuSans-6f"/>
      <use x="124.658203" xlink:href="#DejaVuSans-6d"/>
      <use x="222.070312" xlink:href="#DejaVuSans-61"/>
      <use x="283.349609" xlink:href="#DejaVuSans-69"/>
      <use x="311.132812" xlink:href="#DejaVuSans-6e"/>
     </g>
    </g>
   </g>
   <g id="matplotlib.axis_2">
    <g id="ytick_1">
     <g id="line2d_10">
      <defs>
       <path d="M 0 0 
L -3.5 0 
" id="mf0689375a5" style="stroke:#000000;stroke-width:0.8;"/>
      </defs>
      <g>
       <use style="stroke:#000000;stroke-width:0.8;" x="57.6" xlink:href="#mf0689375a5" y="307.584"/>
      </g>
     </g>
     <g id="text_11">
      <!-- 0.0 -->
      <g transform="translate(34.696875 311.383219)scale(0.1 -0.1)">
       <defs>
        <path d="M 684 794 
L 1344 794 
L 1344 0 
L 684 0 
L 684 794 
z
" id="DejaVuSans-2e" transform="scale(0.015625)"/>
       </defs>
       <use xlink:href="#DejaVuSans-30"/>
       <use x="63.623047" xlink:href="#DejaVuSans-2e"/>
       <use x="95.410156" xlink:href="#DejaVuSans-30"/>
      </g>
     </g>
    </g>
    <g id="ytick_2">
     <g id="line2d_11">
      <g>
       <use style="stroke:#000000;stroke-width:0.8;" x="57.6" xlink:href="#mf0689375a5" y="275.598816"/>
      </g>
     </g>
     <g id="text_12">
      <!-- 0.2 -->
      <g transform="translate(34.696875 279.398035)scale(0.1 -0.1)">
       <use xlink:href="#DejaVuSans-30"/>
       <use x="63.623047" xlink:href="#DejaVuSans-2e"/>
       <use x="95.410156" xlink:href="#DejaVuSans-32"/>
      </g>
     </g>
    </g>
    <g id="ytick_3">
     <g id="line2d_12">
      <g>
       <use style="stroke:#000000;stroke-width:0.8;" x="57.6" xlink:href="#mf0689375a5" y="243.613632"/>
      </g>
     </g>
     <g id="text_13">
      <!-- 0.4 -->
      <g transform="translate(34.696875 247.412851)scale(0.1 -0.1)">
       <use xlink:href="#DejaVuSans-30"/>
       <use x="63.623047" xlink:href="#DejaVuSans-2e"/>
       <use x="95.410156" xlink:href="#DejaVuSans-34"/>
      </g>
     </g>
    </g>
    <g id="ytick_4">
     <g id="line2d_13">
      <g>
       <use style="stroke:#000000;stroke-width:0.8;" x="57.6" xlink:href="#mf0689375a5" y="211.628449"/>
      </g>
     </g>
     <g id="text_14">
      <!-- 0.6 -->
      <g transform="translate(34.696875 215.427667)scale(0.1 -0.1)">
       <use xlink:href="#DejaVuSans-30"/>
       <use x="63.623047" xlink:href="#DejaVuSans-2e"/>
       <use x="95.410156" xlink:href="#DejaVuSans-36"/>
      </g>
     </g>
    </g>
    <g id="ytick_5">
     <g id="line2d_14">
      <g>
       <use style="stroke:#000000;stroke-width:0.8;" x="57.6" xlink:href="#mf0689375a5" y="179.643265"/>
      </g>
     </g>
     <g id="text_15">
      <!-- 0.8 -->
      <g transform="translate(34.696875 183.442484)scale(0.1 -0.1)">
       <use xlink:href="#DejaVuSans-30"/>
       <use x="63.623047" xlink:href="#DejaVuSans-2e"/>
       <use x="95.410156" xlink:href="#DejaVuSans-38"/>
      </g>
     </g>
    </g>
    <g id="ytick_6">
     <g id="line2d_15">
      <g>
       <use style="stroke:#000000;stroke-width:0.8;" x="57.6" xlink:href="#mf0689375a5" y="147.658081"/>
      </g>
     </g>
     <g id="text_16">
      <!-- 1.0 -->
      <g transform="translate(34.696875 151.4573)scale(0.1 -0.1)">
       <use xlink:href="#DejaVuSans-31"/>
       <use x="63.623047" xlink:href="#DejaVuSans-2e"/>
       <use x="95.410156" xlink:href="#DejaVuSans-30"/>
      </g>
     </g>
    </g>
    <g id="ytick_7">
     <g id="line2d_16">
      <g>
       <use style="stroke:#000000;stroke-width:0.8;" x="57.6" xlink:href="#mf0689375a5" y="115.672897"/>
      </g>
     </g>
     <g id="text_17">
      <!-- 1.2 -->
      <g transform="translate(34.696875 119.472116)scale(0.1 -0.1)">
       <use xlink:href="#DejaVuSans-31"/>
       <use x="63.623047" xlink:href="#DejaVuSans-2e"/>
       <use x="95.410156" xlink:href="#DejaVuSans-32"/>
      </g>
     </g>
    </g>
    <g id="ytick_8">
     <g id="line2d_17">
      <g>
       <use style="stroke:#000000;stroke-width:0.8;" x="57.6" xlink:href="#mf0689375a5" y="83.687714"/>
      </g>
     </g>
     <g id="text_18">
      <!-- 1.4 -->
      <g transform="translate(34.696875 87.486932)scale(0.1 -0.1)">
       <use xlink:href="#DejaVuSans-31"/>
       <use x="63.623047" xlink:href="#DejaVuSans-2e"/>
       <use x="95.410156" xlink:href="#DejaVuSans-34"/>
      </g>
     </g>
    </g>
    <g id="ytick_9">
     <g id="line2d_18">
      <g>
       <use style="stroke:#000000;stroke-width:0.8;" x="57.6" xlink:href="#mf0689375a5" y="51.70253"/>
      </g>
     </g>
     <g id="text_19">
      <!-- 1.6 -->
      <g transform="translate(34.696875 55.501749)scale(0.1 -0.1)">
       <use xlink:href="#DejaVuSans-31"/>
       <use x="63.623047" xlink:href="#DejaVuSans-2e"/>
       <use x="95.410156" xlink:href="#DejaVuSans-36"/>
      </g>
     </g>
    </g>
    <g id="text_20">
     <!-- Total Bytes sent to Domain -->
     <g transform="translate(28.617187 241.823312)rotate(-90)scale(0.1 -0.1)">
      <defs>
       <path d="M -19 4666 
L 3928 4666 
L 3928 4134 
L 2272 4134 
L 2272 0 
L 1638 0 
L 1638 4134 
L -19 4134 
L -19 4666 
z
" id="DejaVuSans-54" transform="scale(0.015625)"/>
       <path d="M 1172 4494 
L 1172 3500 
L 2356 3500 
L 2356 3053 
L 1172 3053 
L 1172 1153 
Q 1172 725 1289 603 
Q 1406 481 1766 481 
L 2356 481 
L 2356 0 
L 1766 0 
Q 1100 0 847 248 
Q 594 497 594 1153 
L 594 3053 
L 172 3053 
L 172 3500 
L 594 3500 
L 594 4494 
L 1172 4494 
z
" id="DejaVuSans-74" transform="scale(0.015625)"/>
       <path d="M 603 4863 
L 1178 4863 
L 1178 0 
L 603 0 
L 603 4863 
z
" id="DejaVuSans-6c" transform="scale(0.015625)"/>
       <path id="DejaVuSans-20" transform="scale(0.015625)"/>
       <path d="M 1259 2228 
L 1259 519 
L 2272 519 
Q 2781 519 3026 730 
Q 3272 941 3272 1375 
Q 3272 1813 3026 2020 
Q 2781 2228 2272 2228 
L 1259 2228 
z
M 1259 4147 
L 1259 2741 
L 2194 2741 
Q 2656 2741 2882 2914 
Q 3109 3088 3109 3444 
Q 3109 3797 2882 3972 
Q 2656 4147 2194 4147 
L 1259 4147 
z
M 628 4666 
L 2241 4666 
Q 2963 4666 3353 4366 
Q 3744 4066 3744 3513 
Q 3744 3084 3544 2831 
Q 3344 2578 2956 2516 
Q 3422 2416 3680 2098 
Q 3938 1781 3938 1306 
Q 3938 681 3513 340 
Q 3088 0 2303 0 
L 628 0 
L 628 4666 
z
" id="DejaVuSans-42" transform="scale(0.015625)"/>
       <path d="M 2059 -325 
Q 1816 -950 1584 -1140 
Q 1353 -1331 966 -1331 
L 506 -1331 
L 506 -850 
L 844 -850 
Q 1081 -850 1212 -737 
Q 1344 -625 1503 -206 
L 1606 56 
L 191 3500 
L 800 3500 
L 1894 763 
L 2988 3500 
L 3597 3500 
L 2059 -325 
z
" id="DejaVuSans-79" transform="scale(0.015625)"/>
       <path d="M 3597 1894 
L 3597 1613 
L 953 1613 
Q 991 1019 1311 708 
Q 1631 397 2203 397 
Q 2534 397 2845 478 
Q 3156 559 3463 722 
L 3463 178 
Q 3153 47 2828 -22 
Q 2503 -91 2169 -91 
Q 1331 -91 842 396 
Q 353 884 353 1716 
Q 353 2575 817 3079 
Q 1281 3584 2069 3584 
Q 2775 3584 3186 3129 
Q 3597 2675 3597 1894 
z
M 3022 2063 
Q 3016 2534 2758 2815 
Q 2500 3097 2075 3097 
Q 1594 3097 1305 2825 
Q 1016 2553 972 2059 
L 3022 2063 
z
" id="DejaVuSans-65" transform="scale(0.015625)"/>
       <path d="M 2834 3397 
L 2834 2853 
Q 2591 2978 2328 3040 
Q 2066 3103 1784 3103 
Q 1356 3103 1142 2972 
Q 928 2841 928 2578 
Q 928 2378 1081 2264 
Q 1234 2150 1697 2047 
L 1894 2003 
Q 2506 1872 2764 1633 
Q 3022 1394 3022 966 
Q 3022 478 2636 193 
Q 2250 -91 1575 -91 
Q 1294 -91 989 -36 
Q 684 19 347 128 
L 347 722 
Q 666 556 975 473 
Q 1284 391 1588 391 
Q 1994 391 2212 530 
Q 2431 669 2431 922 
Q 2431 1156 2273 1281 
Q 2116 1406 1581 1522 
L 1381 1569 
Q 847 1681 609 1914 
Q 372 2147 372 2553 
Q 372 3047 722 3315 
Q 1072 3584 1716 3584 
Q 2034 3584 2315 3537 
Q 2597 3491 2834 3397 
z
" id="DejaVuSans-73" transform="scale(0.015625)"/>
       <path d="M 1259 4147 
L 1259 519 
L 2022 519 
Q 2988 519 3436 956 
Q 3884 1394 3884 2338 
Q 3884 3275 3436 3711 
Q 2988 4147 2022 4147 
L 1259 4147 
z
M 628 4666 
L 1925 4666 
Q 3281 4666 3915 4102 
Q 4550 3538 4550 2338 
Q 4550 1131 3912 565 
Q 3275 0 1925 0 
L 628 0 
L 628 4666 
z
" id="DejaVuSans-44" transform="scale(0.015625)"/>
      </defs>
      <use xlink:href="#DejaVuSans-54"/>
      <use x="44.083984" xlink:href="#DejaVuSans-6f"/>
      <use x="105.265625" xlink:href="#DejaVuSans-74"/>
      <use x="144.474609" xlink:href="#DejaVuSans-61"/>
      <use x="205.753906" xlink:href="#DejaVuSans-6c"/>
      <use x="233.537109" xlink:href="#DejaVuSans-20"/>
      <use x="265.324219" xlink:href="#DejaVuSans-42"/>
      <use x="333.927734" xlink:href="#DejaVuSans-79"/>
      <use x="393.107422" xlink:href="#DejaVuSans-74"/>
      <use x="432.316406" xlink:href="#DejaVuSans-65"/>
      <use x="493.839844" xlink:href="#DejaVuSans-73"/>
      <use x="545.939453" xlink:href="#DejaVuSans-20"/>
      <use x="577.726562" xlink:href="#DejaVuSans-73"/>
      <use x="629.826172" xlink:href="#DejaVuSans-65"/>
      <use x="691.349609" xlink:href="#DejaVuSans-6e"/>
      <use x="754.728516" xlink:href="#DejaVuSans-74"/>
      <use x="793.9375" xlink:href="#DejaVuSans-20"/>
      <use x="825.724609" xlink:href="#DejaVuSans-74"/>
      <use x="864.933594" xlink:href="#DejaVuSans-6f"/>
      <use x="926.115234" xlink:href="#DejaVuSans-20"/>
      <use x="957.902344" xlink:href="#DejaVuSans-44"/>
      <use x="1034.904297" xlink:href="#DejaVuSans-6f"/>
      <use x="1096.085938" xlink:href="#DejaVuSans-6d"/>
      <use x="1193.498047" xlink:href="#DejaVuSans-61"/>
      <use x="1254.777344" xlink:href="#DejaVuSans-69"/>
      <use x="1282.560547" xlink:href="#DejaVuSans-6e"/>
     </g>
    </g>
    <g id="text_21">
     <!-- 1e10 -->
     <g transform="translate(57.6 38.472)scale(0.1 -0.1)">
      <use xlink:href="#DejaVuSans-31"/>
      <use x="63.623047" xlink:href="#DejaVuSans-65"/>
      <use x="125.146484" xlink:href="#DejaVuSans-31"/>
      <use x="188.769531" xlink:href="#DejaVuSans-30"/>
     </g>
    </g>
   </g>
   <g id="patch_259">
    <path d="M 57.6 307.584 
L 57.6 41.472 
" style="fill:none;stroke:#000000;stroke-linecap:square;stroke-linejoin:miter;stroke-width:0.8;"/>
   </g>
   <g id="patch_260">
    <path d="M 414.72 307.584 
L 414.72 41.472 
" style="fill:none;stroke:#000000;stroke-linecap:square;stroke-linejoin:miter;stroke-width:0.8;"/>
   </g>
   <g id="patch_261">
    <path d="M 57.6 307.584 
L 414.72 307.584 
" style="fill:none;stroke:#000000;stroke-linecap:square;stroke-linejoin:miter;stroke-width:0.8;"/>
   </g>
   <g id="patch_262">
    <path d="M 57.6 41.472 
L 414.72 41.472 
" style="fill:none;stroke:#000000;stroke-linecap:square;stroke-linejoin:miter;stroke-width:0.8;"/>
   </g>
   <g id="text_22">
    <!-- ex1-run94 -->
    <g transform="translate(205.333125 35.472)scale(0.12 -0.12)">
     <defs>
      <path d="M 3513 3500 
L 2247 1797 
L 3578 0 
L 2900 0 
L 1881 1375 
L 863 0 
L 184 0 
L 1544 1831 
L 300 3500 
L 978 3500 
L 1906 2253 
L 2834 3500 
L 3513 3500 
z
" id="DejaVuSans-78" transform="scale(0.015625)"/>
      <path d="M 313 2009 
L 1997 2009 
L 1997 1497 
L 313 1497 
L 313 2009 
z
" id="DejaVuSans-2d" transform="scale(0.015625)"/>
      <path d="M 2631 2963 
Q 2534 3019 2420 3045 
Q 2306 3072 2169 3072 
Q 1681 3072 1420 2755 
Q 1159 2438 1159 1844 
L 1159 0 
L 581 0 
L 581 3500 
L 1159 3500 
L 1159 2956 
Q 1341 3275 1631 3429 
Q 1922 3584 2338 3584 
Q 2397 3584 2469 3576 
Q 2541 3569 2628 3553 
L 2631 2963 
z
" id="DejaVuSans-72" transform="scale(0.015625)"/>
      <path d="M 544 1381 
L 544 3500 
L 1119 3500 
L 1119 1403 
Q 1119 906 1312 657 
Q 1506 409 1894 409 
Q 2359 409 2629 706 
Q 2900 1003 2900 1516 
L 2900 3500 
L 3475 3500 
L 3475 0 
L 2900 0 
L 2900 538 
Q 2691 219 2414 64 
Q 2138 -91 1772 -91 
Q 1169 -91 856 284 
Q 544 659 544 1381 
z
M 1991 3584 
L 1991 3584 
z
" id="DejaVuSans-75" transform="scale(0.015625)"/>
     </defs>
     <use xlink:href="#DejaVuSans-65"/>
     <use x="59.773438" xlink:href="#DejaVuSans-78"/>
     <use x="118.953125" xlink:href="#DejaVuSans-31"/>
     <use x="182.576172" xlink:href="#DejaVuSans-2d"/>
     <use x="218.660156" xlink:href="#DejaVuSans-72"/>
     <use x="259.773438" xlink:href="#DejaVuSans-75"/>
     <use x="323.152344" xlink:href="#DejaVuSans-6e"/>
     <use x="386.53125" xlink:href="#DejaVuSans-39"/>
     <use x="450.154297" xlink:href="#DejaVuSans-34"/>
    </g>
   </g>
   <g id="legend_1">
    <g id="patch_263">
     <path d="M 287.32625 78.82825 
L 407.72 78.82825 
Q 409.72 78.82825 409.72 76.82825 
L 409.72 48.472 
Q 409.72 46.472 407.72 46.472 
L 287.32625 46.472 
Q 285.32625 46.472 285.32625 48.472 
L 285.32625 76.82825 
Q 285.32625 78.82825 287.32625 78.82825 
z
" style="fill:#ffffff;opacity:0.8;stroke:#cccccc;stroke-linejoin:miter;"/>
    </g>
    <g id="patch_264">
     <path d="M 289.32625 58.070437 
L 309.32625 58.070437 
L 309.32625 51.070437 
L 289.32625 51.070437 
z
" style="fill:#1f77b4;"/>
    </g>
    <g id="text_23">
     <!--  non-dupe bytes -->
     <g transform="translate(317.32625 58.070437)scale(0.1 -0.1)">
      <defs>
       <path d="M 1159 525 
L 1159 -1331 
L 581 -1331 
L 581 3500 
L 1159 3500 
L 1159 2969 
Q 1341 3281 1617 3432 
Q 1894 3584 2278 3584 
Q 2916 3584 3314 3078 
Q 3713 2572 3713 1747 
Q 3713 922 3314 415 
Q 2916 -91 2278 -91 
Q 1894 -91 1617 61 
Q 1341 213 1159 525 
z
M 3116 1747 
Q 3116 2381 2855 2742 
Q 2594 3103 2138 3103 
Q 1681 3103 1420 2742 
Q 1159 2381 1159 1747 
Q 1159 1113 1420 752 
Q 1681 391 2138 391 
Q 2594 391 2855 752 
Q 3116 1113 3116 1747 
z
" id="DejaVuSans-70" transform="scale(0.015625)"/>
       <path d="M 3116 1747 
Q 3116 2381 2855 2742 
Q 2594 3103 2138 3103 
Q 1681 3103 1420 2742 
Q 1159 2381 1159 1747 
Q 1159 1113 1420 752 
Q 1681 391 2138 391 
Q 2594 391 2855 752 
Q 3116 1113 3116 1747 
z
M 1159 2969 
Q 1341 3281 1617 3432 
Q 1894 3584 2278 3584 
Q 2916 3584 3314 3078 
Q 3713 2572 3713 1747 
Q 3713 922 3314 415 
Q 2916 -91 2278 -91 
Q 1894 -91 1617 61 
Q 1341 213 1159 525 
L 1159 0 
L 581 0 
L 581 4863 
L 1159 4863 
L 1159 2969 
z
" id="DejaVuSans-62" transform="scale(0.015625)"/>
      </defs>
      <use xlink:href="#DejaVuSans-20"/>
      <use x="31.787109" xlink:href="#DejaVuSans-6e"/>
      <use x="95.166016" xlink:href="#DejaVuSans-6f"/>
      <use x="156.347656" xlink:href="#DejaVuSans-6e"/>
      <use x="219.726562" xlink:href="#DejaVuSans-2d"/>
      <use x="255.810547" xlink:href="#DejaVuSans-64"/>
      <use x="319.287109" xlink:href="#DejaVuSans-75"/>
      <use x="382.666016" xlink:href="#DejaVuSans-70"/>
      <use x="446.142578" xlink:href="#DejaVuSans-65"/>
      <use x="507.666016" xlink:href="#DejaVuSans-20"/>
      <use x="539.453125" xlink:href="#DejaVuSans-62"/>
      <use x="602.929688" xlink:href="#DejaVuSans-79"/>
      <use x="662.109375" xlink:href="#DejaVuSans-74"/>
      <use x="701.318359" xlink:href="#DejaVuSans-65"/>
      <use x="762.841797" xlink:href="#DejaVuSans-73"/>
     </g>
    </g>
    <g id="patch_265">
     <path d="M 289.32625 72.748562 
L 309.32625 72.748562 
L 309.32625 65.748562 
L 289.32625 65.748562 
z
" style="fill:#ff7f0e;"/>
    </g>
    <g id="text_24">
     <!-- total region bytes -->
     <g transform="translate(317.32625 72.748562)scale(0.1 -0.1)">
      <defs>
       <path d="M 2906 1791 
Q 2906 2416 2648 2759 
Q 2391 3103 1925 3103 
Q 1463 3103 1205 2759 
Q 947 2416 947 1791 
Q 947 1169 1205 825 
Q 1463 481 1925 481 
Q 2391 481 2648 825 
Q 2906 1169 2906 1791 
z
M 3481 434 
Q 3481 -459 3084 -895 
Q 2688 -1331 1869 -1331 
Q 1566 -1331 1297 -1286 
Q 1028 -1241 775 -1147 
L 775 -588 
Q 1028 -725 1275 -790 
Q 1522 -856 1778 -856 
Q 2344 -856 2625 -561 
Q 2906 -266 2906 331 
L 2906 616 
Q 2728 306 2450 153 
Q 2172 0 1784 0 
Q 1141 0 747 490 
Q 353 981 353 1791 
Q 353 2603 747 3093 
Q 1141 3584 1784 3584 
Q 2172 3584 2450 3431 
Q 2728 3278 2906 2969 
L 2906 3500 
L 3481 3500 
L 3481 434 
z
" id="DejaVuSans-67" transform="scale(0.015625)"/>
      </defs>
      <use xlink:href="#DejaVuSans-74"/>
      <use x="39.208984" xlink:href="#DejaVuSans-6f"/>
      <use x="100.390625" xlink:href="#DejaVuSans-74"/>
      <use x="139.599609" xlink:href="#DejaVuSans-61"/>
      <use x="200.878906" xlink:href="#DejaVuSans-6c"/>
      <use x="228.662109" xlink:href="#DejaVuSans-20"/>
      <use x="260.449219" xlink:href="#DejaVuSans-72"/>
      <use x="299.3125" xlink:href="#DejaVuSans-65"/>
      <use x="360.835938" xlink:href="#DejaVuSans-67"/>
      <use x="424.3125" xlink:href="#DejaVuSans-69"/>
      <use x="452.095703" xlink:href="#DejaVuSans-6f"/>
      <use x="513.277344" xlink:href="#DejaVuSans-6e"/>
      <use x="576.65625" xlink:href="#DejaVuSans-20"/>
      <use x="608.443359" xlink:href="#DejaVuSans-62"/>
      <use x="671.919922" xlink:href="#DejaVuSans-79"/>
      <use x="731.099609" xlink:href="#DejaVuSans-74"/>
      <use x="770.308594" xlink:href="#DejaVuSans-65"/>
      <use x="831.832031" xlink:href="#DejaVuSans-73"/>
     </g>
    </g>
   </g>
  </g>
 </g>
 <defs>
  <clipPath id="p0352787fd0">
   <rect height="266.112" width="357.12" x="57.6" y="41.472"/>
  </clipPath>
 </defs>
</svg>
